<svg  viewBox="0 0 416 321" fill="none" xmlns="http://www.w3.org/2000/svg">
<path d="M169.841 310.517L166.924 305.226L415.471 207.068L384.835 256.512L169.841 310.517Z" fill="#F8CD5B"/>
<path d="M166.377 307.049L161.818 298.839L389.395 189.369L406.354 205.06L166.377 307.049Z" fill="#FD63D5"/>
<path d="M214.701 253.773L199.566 301.028C194.095 301.575 189.172 303.947 188.989 307.413C188.989 312.887 216.342 312.157 216.342 312.157L241.872 259.247L303.507 227.865C302.413 217.831 298.219 203.235 293.842 198.309C286.913 203.965 214.701 253.773 214.701 253.773Z" fill="#5BCC85"/>
<path d="M213.059 312.523C206.495 312.523 192.636 312.159 189.353 309.057C188.806 308.51 188.624 307.962 188.624 307.415C188.624 303.766 193.912 301.212 199.2 300.664L214.336 253.592H214.518C215.248 253.045 286.73 203.784 293.659 198.128L293.842 197.945L294.024 198.128C298.401 202.871 302.595 217.467 303.871 227.867V228.049L303.689 228.232L242.236 259.431L216.706 312.523H216.524C216.159 312.523 214.883 312.523 213.059 312.523ZM215.065 254.14L199.748 301.394H199.565C194.642 301.759 189.353 304.131 189.353 307.415C189.353 307.78 189.536 308.145 189.9 308.51C193.548 312.159 213.971 311.794 216.159 311.794L241.689 258.883H241.871L303.324 227.685C302.048 217.65 298.036 203.601 293.842 198.858C285.636 205.243 217.983 251.95 215.065 254.14Z" fill="#5BCC85"/>
<path d="M158.171 294.642L150.147 284.972L329.583 136.094L374.624 148.318L158.171 294.642Z" fill="#4DD1FF"/>
<path d="M162.183 46.1475L193 41.9512L118.6 247.754L109.665 244.835L162.183 46.1475Z" fill="#FD63D5"/>
<path d="M108.024 245.748L86.5068 245.2L128.813 8.38086L157.26 41.2218L108.024 245.748Z" fill="#F8CD5B"/>
<path d="M91.612 36.1113L122.977 10.5684L85.0473 243.739L71.1885 243.921L91.612 36.1113Z" fill="#4DD1FF"/>
<path d="M60.6123 243.921H71.1888L88.33 18.0488L60.6123 41.9497V243.921Z" fill="#FD63D5"/>
<path d="M33.8066 30.0918L55.8714 37.5722L59.3361 245.2L50.4008 243.74L33.8066 30.0918Z" fill="#F8CD5B"/>
<path d="M49.1241 247.57L38.5476 249.212L8.09473 49.7952L27.6065 6.55469L49.1241 247.57Z" fill="#4DD1FF"/>
<path d="M49.1241 247.57L38.5476 249.212L8.09473 49.7952L27.6065 6.55469L49.1241 247.57Z" fill="#4DD1FF"/>
<path d="M332.499 271.473C333.046 273.297 334.14 276.764 334.14 278.953C332.864 282.055 331.587 285.156 330.129 288.258C329.034 283.149 327.029 277.493 325.205 273.662C325.205 273.48 325.387 273.297 325.387 273.115L332.499 271.473Z" fill="#F8CD5B"/>
<path d="M329.764 289.354L329.582 288.441C328.67 283.698 326.664 278.042 324.658 274.028V273.845L325.023 273.116L332.499 271.291L332.682 271.656C333.229 273.298 334.323 276.947 334.323 279.319V279.501C333.046 282.603 331.77 285.705 330.311 288.806L329.764 289.354ZM325.388 273.663C327.211 277.494 329.035 282.785 329.946 287.164C331.223 284.427 332.499 281.691 333.593 278.771C333.593 276.764 332.682 273.48 332.135 271.656L325.388 273.298V273.663Z" fill="#F8CD5B"/>
<path d="M307.7 317.45H295.847C298.035 313.618 299.858 308.875 301.317 303.584C302.958 302.124 304.782 300.664 306.423 298.84C307.882 304.496 308.247 312.889 307.7 317.45Z" fill="#F8CD5B"/>
<path d="M308.065 317.814H295.3L295.664 317.267C297.67 313.435 299.676 308.874 301.135 303.4V303.218C302.776 301.758 304.417 300.299 306.241 298.474L306.606 298.109L306.788 298.657C308.064 304.495 308.429 312.888 308.065 317.449V317.814ZM296.394 317.084H307.335C307.7 312.705 307.335 305.042 306.241 299.569C304.6 301.211 303.141 302.488 301.682 303.765C300.223 308.874 298.4 313.435 296.394 317.084Z" fill="#F8CD5B"/>
<path d="M302.776 298.841C304.418 292.456 305.512 285.34 306.241 278.042L321.559 274.211C315.724 284.063 309.159 292.821 302.776 298.841Z" fill="#5BCC85"/>
<path d="M302.047 299.935L302.229 298.84C303.688 292.637 304.965 285.521 305.694 278.041V277.858L322.106 273.662L321.741 274.392C315.723 284.609 309.159 293.184 302.776 299.205L302.047 299.935ZM306.423 278.223C305.694 285.156 304.6 291.725 303.141 297.745C308.976 291.907 315.176 284.062 320.647 274.574L306.423 278.223Z" fill="#5BCC85"/>
<path d="M323.382 276.398C325.388 280.96 327.394 287.345 327.941 292.271C326.118 295.92 324.112 299.387 322.106 302.489C321.012 296.285 318.459 289.352 317 286.251C319.188 283.331 321.377 279.865 323.382 276.398Z" fill="#F8CD5B"/>
<path d="M321.741 303.4L321.559 302.488C320.465 296.467 317.912 289.534 316.453 286.432V286.25L316.635 286.068C318.824 282.966 321.012 279.682 323.2 276.215L323.565 275.668L323.747 276.215C325.388 280.229 327.759 286.797 328.306 292.088V292.271C326.483 295.92 324.477 299.386 322.288 302.488L321.741 303.4ZM317.183 286.432C318.641 289.534 321.012 295.92 322.106 301.758C323.93 298.839 325.753 295.555 327.577 292.271C327.03 287.527 325.024 281.506 323.383 277.31C321.377 280.412 319.371 283.513 317.183 286.432Z" fill="#F8CD5B"/>
<path d="M303.505 209.622C304.052 208.709 304.782 207.432 305.146 206.885C305.511 208.892 304.964 215.095 303.505 220.021C302.958 217.467 302.229 214.913 301.682 212.358C302.411 211.628 302.958 210.534 303.505 209.622Z" fill="#157048"/>
<path d="M303.688 221.665L303.324 220.388C302.776 217.833 302.047 215.279 301.5 212.907V212.725V212.542C302.229 211.63 302.776 210.535 303.324 209.623L303.688 209.806L303.324 209.623C303.871 208.711 304.6 207.434 305.147 206.886L305.512 206.521L305.694 207.069C306.059 209.258 305.329 215.644 304.053 220.388L303.688 221.665ZM302.047 212.725C302.594 214.732 303.141 216.739 303.506 218.745C304.418 214.549 304.965 209.988 304.782 207.799C304.418 208.346 303.871 209.258 303.688 209.806L303.324 209.623L303.688 209.806C303.324 210.718 302.776 211.63 302.047 212.725Z" fill="#157048"/>
<path d="M223.818 298.656L303.323 278.77C301.5 295.19 297.853 309.056 292.747 317.449H231.841V310.881C231.841 310.151 231.294 309.603 230.565 309.603H218.529L223.818 298.656Z" fill="#5BCC85"/>
<path d="M292.929 317.813H231.477V310.88C231.477 310.333 231.112 309.968 230.565 309.968H217.982L223.635 298.474H223.818L303.871 278.404V278.952C302.047 295.372 298.218 309.238 292.929 317.813ZM232.388 317.084H292.747C297.671 308.873 301.318 295.372 303.141 279.134L224 299.021L219.076 309.238H230.565C231.477 309.238 232.206 309.968 232.206 310.88V317.084H232.388Z" fill="#5BCC85"/>
<path d="M187.347 307.777C187.347 307.96 187.529 308.325 187.529 308.507C187.712 308.872 187.894 309.237 188.076 309.419H180.782L187.347 307.777Z" fill="#5BCC85"/>
<path d="M188.623 309.786H178.047L187.529 307.414V307.779C187.529 307.961 187.712 308.326 187.712 308.509C187.894 308.874 188.076 309.056 188.259 309.421L188.623 309.786ZM183.517 309.056H187.529C187.529 308.874 187.347 308.691 187.347 308.509C187.347 308.326 187.165 308.144 187.165 308.144L183.517 309.056Z" fill="#5BCC85"/>
<path d="M211.053 259.613C210.871 260.343 210.506 261.073 210.324 261.62L206.13 274.574L205.583 276.399L161.636 298.84C160.541 297.563 159.447 296.103 158.171 294.644L211.053 259.613Z" fill="#F8CD5B"/>
<path d="M161.635 299.387L157.806 294.643L211.6 258.883L211.053 260.342C210.87 260.89 210.688 261.437 210.506 261.984L205.765 276.763H205.582L161.635 299.387ZM158.717 294.825L161.817 298.474L205.4 276.215L209.959 261.62C210.141 261.255 210.141 260.89 210.323 260.525L158.717 294.825Z" fill="#F8CD5B"/>
<path d="M144.858 278.589C148.688 277.859 153.247 278.224 156.164 279.866L150.329 284.975C148.323 282.968 146.682 280.778 144.858 278.589Z" fill="#F8CD5B"/>
<path d="M150.147 285.522L144.129 278.407L144.676 278.224C148.87 277.312 153.429 277.859 156.164 279.684L156.529 279.866L150.147 285.522ZM145.405 278.772L150.147 284.61L155.435 280.049C153.064 278.589 149.052 278.224 145.405 278.772Z" fill="#F8CD5B"/>
<path d="M135.923 226.955L141.029 237.719C141.211 238.084 141.576 238.449 142.123 238.449H142.306C142.67 238.449 143.035 238.267 143.4 237.902L150.511 229.509C153.611 229.874 156.711 230.239 159.994 230.421C160.176 230.604 160.541 230.604 160.723 230.421C163.823 230.604 167.106 230.786 170.388 230.786C170.57 230.786 170.57 230.786 170.753 230.786C170.935 230.786 170.935 230.786 171.117 230.786C171.482 230.786 172.029 230.786 172.394 230.786C175.676 230.786 178.776 230.604 182.058 230.421L188.988 238.997C189.17 239.362 189.535 239.544 190.082 239.544C190.447 239.544 190.811 239.362 191.176 238.997L198.106 228.597C204.488 227.32 210.323 225.313 215.429 222.759C214.7 225.13 213.606 228.05 212.329 230.421L195.188 245.382C172.211 252.68 151.241 251.221 136.105 241.186C127.9 235.713 122.247 227.867 120.605 220.387C123.705 222.394 127.353 224.036 131.729 225.678C132.823 226.225 134.282 226.59 135.923 226.955Z" fill="#F8CD5B"/>
<path d="M167.834 250.49C155.799 250.49 144.858 247.571 136.105 241.55C127.899 236.077 122.064 228.231 120.423 220.386L120.24 219.656L120.97 220.021C124.252 222.028 127.899 223.853 131.911 225.312C133.005 225.677 134.464 226.224 136.105 226.589H136.287V226.772L141.393 237.536C141.576 237.901 141.758 238.084 142.123 238.084C142.487 238.084 142.852 238.084 143.034 237.719L150.328 229.144H150.511C153.611 229.509 156.893 229.873 159.993 230.056H160.176C160.358 230.056 160.54 230.056 160.723 230.056C164.005 230.238 167.287 230.421 170.387 230.421H170.57C170.752 230.421 170.934 230.421 171.117 230.421C174.764 230.421 178.411 230.421 182.058 230.056H182.24L189.352 238.631C189.534 238.813 189.899 238.996 190.081 238.996C190.446 238.996 190.811 238.813 190.993 238.631L197.923 228.049H198.105C204.852 226.772 210.687 224.765 215.246 222.211L215.976 221.846L215.793 222.575C215.064 224.765 213.97 227.866 212.511 230.421L195.37 245.382H195.187C185.705 249.031 176.405 250.49 167.834 250.49ZM121.152 221.116C122.976 228.414 128.628 235.894 136.287 241.003C151.24 251.038 172.211 252.497 195.005 245.199L211.964 230.421C213.24 228.231 214.152 225.677 214.881 223.488C210.323 225.86 204.67 227.684 198.287 228.961L191.54 239.178C191.176 239.543 190.811 239.908 190.264 239.908C189.717 239.908 189.352 239.726 188.987 239.361L182.24 230.968C178.776 231.151 175.128 231.333 171.481 231.333C171.117 231.333 170.934 231.333 170.57 231.333C167.47 231.333 164.187 231.151 160.905 230.968C160.54 230.968 160.358 230.968 159.993 230.968C156.893 230.786 153.611 230.421 150.693 230.056L143.581 238.266C143.217 238.631 142.67 238.996 142.123 238.813C141.576 238.813 141.028 238.449 140.846 237.901L135.74 227.319C134.099 226.954 132.823 226.407 131.728 226.042C127.717 224.582 124.252 222.94 121.152 221.116Z" fill="#F8CD5B"/>
<path d="M139.206 227.867C141.577 228.415 144.312 228.962 147.23 229.327L142.488 234.8L139.206 227.867Z" fill="white"/>
<path d="M142.489 235.346L138.659 227.318L139.389 227.501C141.759 228.048 144.494 228.595 147.412 228.96H147.959L142.489 235.346ZM139.753 228.231L142.671 234.069L146.683 229.325C144.312 229.143 141.941 228.778 139.753 228.231Z" fill="white"/>
<path d="M162.911 228.233L166.193 223.307L168.746 228.598C166.923 228.415 164.917 228.233 162.911 228.233Z" fill="white"/>
<path d="M169.294 228.779H168.747C166.741 228.779 164.735 228.597 162.911 228.597H162.364L166.376 222.576L169.294 228.779ZM163.458 227.867C165.099 227.867 166.558 228.05 168.199 228.05L166.194 223.853L163.458 227.867Z" fill="white"/>
<path d="M185.523 230.603C188.623 230.42 191.541 230.055 194.459 229.508L190.082 236.259L185.523 230.603Z" fill="white"/>
<path d="M190.082 236.806L184.794 230.238H185.341C188.441 230.056 191.541 229.508 194.276 229.143L195.006 228.961L190.082 236.806ZM186.253 230.785L190.082 235.529L193.912 229.873C191.359 230.238 188.806 230.603 186.253 230.785Z" fill="white"/>
<path d="M221.082 219.293C221.265 219.293 221.265 219.475 221.447 219.475C222.176 220.023 222.906 220.388 223.818 220.753L217.253 226.409C217.982 224.219 218.529 222.212 218.894 220.935C219.624 220.388 220.353 219.84 221.082 219.293Z" fill="#5BCC85"/>
<path d="M216.341 227.502L216.706 226.225C217.435 224.035 217.982 222.028 218.347 220.751V220.569H218.529C219.258 220.021 219.988 219.474 220.717 218.927L220.9 218.744L221.264 218.927C221.264 218.927 221.447 218.927 221.447 219.109C222.176 219.656 222.906 220.021 223.817 220.204L224.364 220.386L216.341 227.502ZM219.076 221.116C218.711 222.211 218.347 223.67 217.8 225.312L222.906 220.751C222.176 220.386 221.629 220.021 221.082 219.656C221.082 219.656 221.082 219.656 220.9 219.656C220.535 220.204 219.806 220.569 219.076 221.116Z" fill="#5BCC85"/>
<path d="M124.617 234.254C127.352 237.72 130.817 240.822 134.646 243.559C143.946 249.762 155.252 252.864 167.652 252.864C174.946 252.864 182.605 251.769 190.446 249.762L171.664 266.183C166.74 259.614 159.629 255.6 151.058 254.871C143.035 254.323 134.829 256.695 130.088 261.074C125.529 255.601 122.246 251.769 121.335 250.492C120.423 249.397 119.511 248.485 118.417 247.755C119.511 243.924 121.699 238.45 124.617 234.254Z" fill="#5BCC85"/>
<path d="M171.664 266.547L171.482 266.182C166.741 259.614 159.446 255.782 151.241 255.052C143.399 254.505 135.376 256.877 130.452 261.256L130.27 261.438L130.088 261.256C125.164 255.235 122.064 251.768 121.335 250.674C120.423 249.579 119.511 248.667 118.599 247.937L118.417 247.754V247.572C118.964 245.748 120.788 239.179 124.435 233.888L124.617 233.523L124.982 233.888C127.717 237.355 131.182 240.456 135.011 243.011C144.129 249.214 155.252 252.316 167.835 252.316C174.946 252.316 182.605 251.221 190.446 249.214L191.905 248.849L171.664 266.547ZM148.87 254.505C149.599 254.505 150.511 254.505 151.241 254.688C159.629 255.417 166.923 259.249 171.846 265.817L189.352 250.491C181.876 252.316 174.764 253.228 167.835 253.228C155.07 253.228 143.764 250.126 134.646 243.741C130.817 241.186 127.535 238.267 124.799 234.801C121.335 239.727 119.693 245.748 119.146 247.754C120.058 248.484 120.97 249.397 121.882 250.491C122.793 251.586 125.711 254.87 130.452 260.708C134.646 256.877 141.758 254.505 148.87 254.505Z" fill="#5BCC85"/>
<path d="M151.058 257.606C158.9 258.154 165.464 261.803 169.841 268.006L166.376 271.108C155.982 264.722 142.853 265.817 136.105 268.189C134.647 266.547 133.37 264.905 132.094 263.262C136.288 259.249 143.764 257.059 151.058 257.606Z" fill="#F8CD5B"/>
<path d="M166.194 271.472L166.012 271.289C154.888 264.356 141.576 266.363 136.106 268.37H135.923L131.547 263.079L131.729 262.897C136.106 258.883 143.582 256.511 151.059 257.241C158.9 257.788 165.647 261.619 170.023 267.64L170.206 267.823L166.194 271.472ZM148.141 265.816C153.794 265.816 160.359 266.91 166.194 270.559L169.294 267.823C164.918 261.984 158.535 258.518 150.876 257.788C143.765 257.241 136.653 259.248 132.276 263.079L135.923 267.458C138.841 266.728 143.217 265.816 148.141 265.816Z" fill="#F8CD5B"/>
<path d="M164.188 272.75L158.17 278.041C154.34 275.304 147.776 274.757 143.035 276.216C141.393 274.209 139.57 272.202 137.929 270.195C144.129 268.371 155.07 267.641 164.188 272.75Z" fill="#F8CD5B"/>
<path d="M158.17 278.588L157.988 278.406C154.158 275.487 147.411 275.304 143.035 276.581H142.852L137.382 270.013L137.929 269.83C145.041 267.641 155.982 267.459 164.37 272.385L164.735 272.567L158.17 278.588ZM148.688 275.122C151.97 275.122 155.617 275.851 157.988 277.676L163.458 272.932C155.435 268.553 145.223 268.553 138.294 270.56L142.852 276.034C144.676 275.486 146.682 275.122 148.688 275.122Z" fill="#F8CD5B"/>
<path d="M277.246 162.365C277.429 160.906 277.794 159.264 278.158 158.352C279.435 159.994 281.258 165.832 281.076 170.211L279.617 171.488C278.523 170.211 277.246 168.751 276.152 167.474C276.699 165.832 277.064 164.008 277.246 162.365Z" fill="#157048"/>
<path d="M279.8 172.037L279.618 171.854C278.524 170.577 277.247 169.118 276.153 168.023L275.971 167.841V167.658C276.335 165.834 276.7 164.192 277.065 162.55C277.247 161.09 277.612 159.448 277.977 158.536L278.159 157.988L278.524 158.536C279.8 160.36 281.624 166.199 281.624 170.577V170.76L279.8 172.037ZM276.7 167.476C277.794 168.57 278.888 169.848 279.8 170.942L280.894 170.03C280.894 166.199 279.435 161.455 278.341 159.083C278.159 159.995 277.977 161.272 277.794 162.185C277.43 164.009 277.065 165.834 276.7 167.476Z" fill="#157048"/>
<path d="M265.028 153.064C265.94 154.159 267.399 156.896 268.311 160.545C267.217 159.815 266.122 158.903 265.028 158.173C264.846 155.254 265.028 153.794 265.028 153.064Z" fill="#157048"/>
<path d="M268.858 161.456L268.129 160.908C267.035 160.178 265.941 159.266 264.846 158.536H264.664V158.354C264.482 155.435 264.482 153.975 264.664 153.245L264.846 152.516L265.394 153.063C266.305 154.158 267.764 157.077 268.676 160.726L268.858 161.456ZM265.394 157.989C266.123 158.536 267.035 159.084 267.764 159.631C267.035 157.077 266.123 155.07 265.394 153.975C265.211 154.705 265.211 155.982 265.394 157.989Z" fill="#157048"/>
<path d="M148.871 184.261C151.788 183.896 154.888 183.713 157.806 183.713C160.724 183.713 163.824 183.713 166.741 183.896H166.924C167.835 183.896 168.382 182.984 168.2 182.254C167.653 176.78 168.018 171.307 170.023 166.381C172.029 161.455 175.859 157.441 180.782 155.434C183.153 154.339 185.888 153.792 188.441 153.609C190.994 153.427 193.729 153.974 196.282 154.704C198.835 155.616 201.206 156.893 203.394 158.353C205.582 159.995 207.406 161.82 208.865 164.191C208.865 164.191 208.865 164.191 208.865 164.374C208.5 165.469 208.318 166.381 207.953 167.475C207.953 167.658 207.953 168.023 208.318 168.205C208.682 168.388 209.047 168.205 209.047 167.84C209.594 166.746 209.959 165.651 210.506 164.739C210.871 164.556 211.053 164.009 211.053 163.644C211.965 162.002 213.059 160.542 214.335 159.265C216.706 156.893 219.441 154.886 222.541 153.792C225.641 152.515 229.106 151.967 232.571 151.785C236.035 151.602 239.5 151.967 242.782 152.697C244.423 153.062 246.065 153.427 247.888 153.974C249.529 154.522 251.171 155.069 252.812 155.799C256.094 157.076 259.194 158.718 262.112 160.542C265.029 162.367 267.765 164.556 270.318 166.928C272.688 169.118 274.876 171.307 277.065 173.861L225.459 219.109C224.365 218.744 223.271 218.196 222.359 217.649C221.265 216.919 220.353 216.007 219.806 214.73C219.259 213.635 218.894 212.176 218.712 210.899C218.529 209.439 218.712 207.979 219.076 206.702C219.076 206.337 219.076 205.972 218.712 205.79C218.347 205.607 217.8 205.79 217.618 206.155C216.706 207.614 216.341 209.256 216.159 211.081C216.159 212.723 216.341 214.548 217.071 216.19C217.435 216.919 217.8 217.467 218.347 218.197C209.412 225.13 193.547 228.961 173.671 229.143C172.759 229.143 172.029 229.143 171.118 229.143L166.924 220.568C166.741 220.203 166.376 219.839 165.829 219.839C165.282 219.839 164.918 220.021 164.553 220.386L159.082 228.596C155.618 228.414 152.518 228.049 149.418 227.684C149.235 227.684 149.235 227.684 149.053 227.684C144.129 226.954 139.935 226.224 136.471 225.312C134.647 224.765 133.188 224.4 131.912 223.852C106.382 214.183 102.735 197.215 102.371 190.464C102.006 182.984 106.747 181.159 108.206 180.794C111.123 180.065 113.676 181.707 114.953 183.166C114.224 185.356 114.041 187.727 115.135 189.917C115.318 190.282 115.682 190.464 115.865 190.282C116.229 190.282 116.412 189.734 116.412 189.369C116.047 187.545 116.229 185.538 117.141 183.896C117.506 183.713 117.688 183.349 117.688 182.984C118.053 182.436 118.6 181.889 119.147 181.524C119.876 180.977 120.788 180.612 121.7 180.612C122.612 180.612 123.523 180.612 124.435 180.977C125.347 181.342 126.076 181.707 126.806 182.436C127.535 183.166 128.082 183.896 128.447 184.808C128.812 185.72 128.994 186.633 128.994 187.545C128.994 187.727 128.994 187.91 128.994 187.91C129.176 188.64 129.906 189.005 130.635 188.822C133.553 187.91 136.471 186.998 139.388 186.45C143.035 184.991 145.953 184.443 148.871 184.261Z" fill="#5BCC85"/>
<path d="M172.394 228.779C172.212 228.779 172.029 228.779 171.847 228.779H171.664L167.47 220.022C167.288 219.657 166.923 219.474 166.559 219.474C166.194 219.474 165.829 219.657 165.647 219.839L159.994 228.232H159.812C156.529 228.05 153.247 227.685 150.147 227.32C149.964 227.32 149.964 227.32 149.964 227.32C145.223 226.772 140.847 225.86 137.2 224.948C135.376 224.4 133.735 224.036 132.459 223.488C106.747 213.818 103.1 196.668 102.735 189.735C102.37 182.072 107.294 180.065 108.753 179.7C112.035 178.788 114.77 180.795 115.864 182.255L116.047 182.437V182.62C115.317 184.809 115.317 187.181 116.229 189.005C116.229 189.188 116.412 189.188 116.594 189.188C116.776 189.188 116.959 189.005 116.776 188.823C116.412 186.998 116.594 184.809 117.506 183.167C117.688 182.984 117.87 182.802 117.87 182.437C118.235 181.89 118.782 181.342 119.329 180.977C120.059 180.43 120.97 180.065 122.064 180.065C122.976 180.065 124.07 180.065 124.982 180.43C125.894 180.795 126.806 181.342 127.353 181.89C128.082 182.62 128.629 183.349 128.994 184.444C129.359 185.356 129.723 186.451 129.541 187.181C129.541 187.363 129.541 187.363 129.541 187.546C129.541 187.728 129.723 188.093 130.088 188.093C130.27 188.276 130.635 188.276 130.817 188.093L131.182 187.911C134.1 186.998 136.653 186.086 139.57 185.539C142.306 184.991 145.406 184.444 148.506 184.079C151.423 183.714 154.341 183.532 157.441 183.532C160.541 183.532 163.641 183.532 166.376 183.714H166.559C167.288 183.714 167.653 182.984 167.653 182.437C167.106 176.416 167.653 170.943 169.659 166.382C171.664 161.273 175.676 157.259 180.6 155.252C183.153 154.157 185.706 153.61 188.441 153.428C191.176 153.245 193.729 153.61 196.464 154.522C199.017 155.435 201.388 156.712 203.576 158.354C205.947 159.996 207.77 162.003 209.047 164.192L209.229 164.375V164.557C208.864 165.652 208.682 166.564 208.317 167.659C208.317 167.841 208.317 167.841 208.5 168.024H208.682C208.682 168.024 208.864 168.024 208.864 167.841C209.412 166.746 209.776 165.652 210.323 164.739C210.506 164.557 210.688 164.192 210.688 164.01C211.782 162.185 212.876 160.726 214.153 159.448C216.523 157.077 219.441 155.07 222.541 153.792C225.459 152.698 228.923 151.968 232.57 151.786C236.035 151.603 239.5 151.968 242.964 152.698C244.241 152.88 245.517 153.245 246.794 153.61C247.159 153.792 247.523 153.793 248.07 153.975L248.982 154.34C250.259 154.705 251.717 155.252 252.994 155.799C256.276 157.077 259.376 158.719 262.294 160.543C265.212 162.55 268.129 164.557 270.682 166.929C272.87 168.936 275.059 171.125 277.429 173.862L277.612 174.044L277.429 174.227L225.641 219.474H225.459C224.182 219.109 223.088 218.562 222.176 217.832C221.082 217.103 219.988 216.008 219.441 214.913C218.894 213.818 218.347 212.359 218.347 210.899C218.164 209.44 218.347 207.98 218.712 206.52C218.712 206.338 218.712 205.973 218.529 205.973C218.347 205.791 217.982 205.973 217.8 206.156C217.07 207.615 216.523 209.257 216.523 210.899C216.341 212.724 216.706 214.366 217.435 215.825C217.8 216.555 218.164 217.103 218.712 217.65L218.894 217.832L218.712 218.015C209.776 224.948 193.729 228.962 173.853 229.144C173.67 228.779 173.123 228.779 172.394 228.779ZM172.029 228.05C172.759 228.05 173.488 228.05 174.4 228.05C194.094 227.867 209.776 224.036 218.712 217.285C218.347 216.738 217.982 216.19 217.617 215.461C216.888 213.818 216.523 211.994 216.523 210.169C216.706 208.345 217.07 206.703 217.982 205.243C218.347 204.696 219.076 204.513 219.623 204.878C219.988 205.061 220.353 205.608 220.17 206.156C219.806 207.433 219.623 208.892 219.806 210.352C219.988 211.629 220.17 213.089 220.9 214.001C221.447 215.096 222.359 216.008 223.453 216.738C224.182 217.285 225.094 217.65 226.37 218.197L277.612 173.315C275.423 170.76 273.235 168.571 271.047 166.746C268.494 164.557 265.759 162.368 262.841 160.361C259.923 158.536 256.823 156.894 253.723 155.617C252.447 155.07 250.988 154.522 249.712 154.157L248.8 153.792C248.435 153.61 248.07 153.61 247.706 153.428C246.429 153.063 245.153 152.698 243.876 152.515C240.594 151.786 237.129 151.421 233.664 151.603C230.017 151.786 226.735 152.333 223.817 153.428C220.717 154.705 217.982 156.529 215.612 158.901C214.335 160.178 213.423 161.638 212.329 163.28C212.329 163.827 211.964 164.192 211.6 164.557C211.053 165.469 210.506 166.564 210.141 167.659C209.959 167.841 209.776 168.024 209.594 168.206C209.412 168.388 209.047 168.206 208.864 168.206C208.5 168.024 208.317 167.659 208.317 167.111C208.5 166.199 208.682 165.104 209.047 164.192C207.77 162.185 205.947 160.178 203.759 158.536C201.57 156.894 199.2 155.617 196.829 154.887C194.276 153.975 191.723 153.61 189.17 153.792C186.617 153.975 184.064 154.522 181.512 155.617C176.77 157.624 172.941 161.455 170.935 166.382C169.112 170.943 168.382 176.416 169.112 182.072C169.294 183.167 168.564 183.897 167.47 184.079C167.288 184.079 167.288 184.079 167.106 184.079C164.188 183.897 161.27 183.714 158.17 183.897C155.07 183.897 152.153 184.079 149.235 184.444C146.135 184.809 143.217 185.174 140.482 185.904C137.747 186.451 135.012 187.363 132.094 188.275L131.729 188.458C131.364 188.64 130.817 188.64 130.453 188.275C130.088 188.093 129.723 187.728 129.541 187.363C129.541 187.181 129.541 186.998 129.541 186.816C129.541 186.086 129.359 184.991 128.994 184.262C128.629 183.349 128.082 182.62 127.535 181.89C126.988 181.16 126.076 180.795 125.347 180.43C124.617 180.065 123.523 180.065 122.794 180.065C121.882 180.065 121.153 180.43 120.423 180.977C119.876 181.342 119.512 181.707 119.147 182.255C119.147 182.62 118.782 183.167 118.417 183.349C117.688 184.991 117.323 186.816 117.87 188.458C118.053 189.005 117.688 189.553 117.141 189.735C116.594 189.918 116.229 189.553 116.047 189.188C115.135 187.181 114.953 184.809 115.864 182.437C114.77 181.16 112.4 179.518 109.664 180.248C108.206 180.613 103.647 182.437 104.012 189.553C104.376 196.303 108.023 213.089 133.37 222.758C134.647 223.306 136.106 223.671 137.929 224.218C141.394 225.13 145.77 225.86 150.512 226.59C150.694 226.59 150.694 226.59 150.876 226.59C153.976 226.955 157.076 227.32 160.176 227.502L165.464 219.474C165.829 218.927 166.376 218.745 166.923 218.745C167.47 218.745 168.017 219.109 168.382 219.657L172.029 228.05Z" fill="#5BCC85"/>
<path d="M85.7756 130.439C85.958 130.257 86.505 130.439 87.0521 130.986C88.5109 132.993 92.3403 137.555 93.4345 138.832C93.7992 139.561 94.1639 140.291 94.5286 141.021C94.7109 141.386 95.258 141.568 95.6227 141.386C95.9874 141.203 96.1698 140.656 95.9874 140.291C95.8051 140.109 94.8933 139.561 94.8933 139.379C95.4404 138.832 95.258 138.467 94.8933 137.737C94.8933 137.737 95.6227 137.372 95.258 136.825C95.258 136.642 95.4404 136.46 95.4404 136.277C95.6227 135.912 96.1698 135.548 96.8992 135.365C97.2639 135.365 97.6286 135.183 98.1757 135.183C98.1757 135.548 98.358 136.095 98.358 136.46C98.7227 137.372 99.0874 138.284 99.6345 139.014C99.8168 139.379 100.364 139.561 100.729 139.197C101.093 139.014 101.276 138.467 101.093 138.102C100.729 137.372 100.364 136.642 100.364 135.912C100.364 135.548 100.364 135.183 100.364 134.818C100.546 134.635 100.729 134.27 100.729 134.088C101.093 133.723 101.458 133.541 102.005 133.358C102.552 133.176 103.099 133.176 103.646 133.176C104.011 133.723 104.193 134.27 104.558 134.818C104.74 135.183 105.105 135.365 105.47 135.183C105.834 135 106.199 134.635 106.017 134.27C105.834 133.723 105.652 132.993 105.47 132.446C105.652 132.263 104.923 131.899 104.923 131.716C104.923 131.169 105.287 130.804 104.923 130.621C104.74 130.074 104.558 129.527 104.376 128.979C104.011 128.067 103.829 127.155 103.464 126.425L102.917 125.148L102.734 124.601C102.734 124.418 102.734 124.236 102.734 124.236C102.734 124.053 102.734 123.871 102.917 123.688C102.917 123.506 103.099 123.506 103.099 123.506C103.282 123.506 103.829 123.506 104.193 124.053L104.376 124.236L104.558 124.418L104.923 124.965L105.652 126.06L107.111 128.432L119.329 147.042L128.082 160.361L123.887 177.146C123.34 177.146 122.793 177.146 122.246 177.146C120.97 177.329 119.511 177.876 118.599 178.606C118.052 178.971 117.687 179.335 117.323 179.883C116.046 178.606 114.405 177.693 112.582 177.328C110.029 172.767 87.4168 134.088 86.1403 131.534C85.7756 130.986 85.5933 130.621 85.7756 130.439Z" fill="#1B806A"/>
<path d="M117.141 180.43L116.959 180.248C115.682 178.971 114.041 178.059 112.4 177.694H112.218V177.511C108.024 170.213 87.0529 134.088 85.7765 131.716C85.4118 130.986 85.4118 130.439 85.7765 130.257C86.1412 130.074 86.8706 130.074 87.4177 130.986C88.8765 132.993 92.8882 137.92 93.8 138.832V139.014C93.9824 139.744 94.347 140.474 94.8941 141.204C95.0765 141.386 95.2588 141.569 95.6235 141.386C95.8059 141.204 95.9882 141.021 95.8059 140.656C95.8059 140.656 95.4412 140.474 95.2588 140.291C94.8941 140.109 94.7118 139.927 94.5294 139.562L94.347 139.379L94.5294 139.197C94.7118 139.014 94.8941 138.832 94.347 138.102L94.1647 137.92V137.555L94.347 137.372C94.7117 137.19 94.7118 137.007 94.7118 137.007L94.5294 136.825V136.642C94.5294 136.46 94.7118 136.278 94.7118 136.095C94.8941 135.73 95.6235 135.365 96.3529 135.183C96.7176 135.183 97.0823 135 97.6294 135H97.9941V135.365C97.9941 135.73 98.1765 136.095 98.1765 136.46C98.3588 137.19 98.7235 138.102 99.4529 139.014C99.6353 139.197 99.8176 139.197 100 139.197C100.182 139.197 100.182 139.014 100.182 138.832C100.182 138.649 100.182 138.649 100.182 138.467C99.8176 137.737 99.4529 136.825 99.2706 136.278C99.0882 135.913 99.0882 135.365 99.2706 135V134.818C99.4529 134.635 99.4529 134.453 99.6353 134.271V134.088C100 133.723 100.365 133.541 101.094 133.358C101.641 133.176 102.188 133.176 102.918 133.176H103.1L103.282 133.358C103.647 133.906 103.829 134.453 104.194 135C104.376 135.183 104.559 135.183 104.741 135.183C104.924 135.183 104.924 135 104.924 135C104.924 134.818 104.924 134.818 104.924 134.635C104.741 134.088 104.559 133.358 104.376 132.811V132.629C104.376 132.629 104.376 132.629 104.194 132.446C104.012 132.264 103.829 132.081 103.829 131.899C103.829 131.716 103.829 131.534 104.012 131.351V131.169H103.829C103.647 130.622 103.465 130.074 103.282 129.527L102.918 128.615C102.735 128.067 102.553 127.338 102.188 126.79L101.459 124.966C101.459 124.783 101.459 124.601 101.459 124.418C101.459 124.053 101.459 123.871 101.641 123.688C101.824 123.506 102.006 123.324 102.188 123.324C102.553 123.141 103.1 123.324 103.647 124.053L103.829 124.236L106.565 128.432L118.782 147.042L127.718 160.361L123.524 177.511H123.159C122.612 177.511 122.065 177.511 121.7 177.511C120.424 177.694 119.147 178.241 118.235 178.971C117.871 179.336 117.323 179.701 116.959 180.248L117.141 180.43ZM112.582 177.146C114.224 177.511 115.865 178.423 117.141 179.518C117.506 179.153 117.871 178.788 118.235 178.423C119.329 177.511 120.606 176.964 122.065 176.781C122.429 176.781 122.976 176.781 123.524 176.781L127.535 160.361L118.782 147.224L103.829 124.418L103.647 124.236C103.282 123.871 102.918 123.688 102.918 123.688C102.918 123.688 102.918 123.871 102.918 124.053C102.918 124.236 102.918 124.236 102.918 124.418L103.1 124.783L103.647 126.06C103.829 126.608 104.012 127.338 104.376 127.885L104.741 128.797C104.924 129.344 105.106 129.892 105.288 130.439C105.653 130.622 105.471 131.169 105.471 131.351C105.471 131.534 105.471 131.534 105.471 131.716C105.471 131.716 105.653 131.716 105.653 131.899C105.835 132.081 106.018 132.264 106.018 132.446C106.2 132.993 106.382 133.541 106.565 134.271C106.565 134.636 106.565 134.818 106.382 135.183C106.2 135.365 106.018 135.548 105.653 135.73C105.106 135.913 104.741 135.548 104.376 135.183C104.012 134.636 103.829 134.088 103.465 133.723C102.918 133.723 102.371 133.723 102.006 133.906C101.459 134.088 101.094 134.271 100.912 134.453C100.912 134.818 100.729 135 100.547 135.183C100.547 135.548 100.547 135.73 100.547 136.095C100.729 136.642 100.912 137.372 101.276 138.102C101.459 138.467 101.459 138.649 101.459 139.014C101.459 139.379 101.094 139.562 100.912 139.744C100.365 140.109 99.8176 139.927 99.4529 139.379C98.9059 138.467 98.3588 137.555 98.1765 136.642C97.9941 136.278 97.9941 136.095 97.9941 135.73C97.6294 135.73 97.447 135.73 97.0823 135.913C96.5353 136.095 95.9882 136.278 95.8059 136.642C95.8059 136.642 95.6235 136.825 95.6235 137.007C95.6235 137.19 95.6235 137.372 95.6235 137.372C95.6235 137.555 95.4412 137.92 95.2588 137.92C95.6235 138.467 95.6235 139.014 95.2588 139.379C95.4412 139.379 95.4412 139.562 95.6235 139.562C95.9882 139.744 96.1706 139.927 96.3529 140.109C96.7176 140.656 96.5353 141.386 95.8059 141.751C95.2588 142.116 94.5294 141.933 94.347 141.386C93.8 140.656 93.4353 139.927 93.2529 139.197C92.3412 138.102 88.5117 133.358 87.0529 131.351C86.6882 130.986 86.5059 130.804 86.3235 130.804C86.3235 130.804 86.3235 131.169 86.5059 131.351C87.4177 133.906 109.665 172.038 112.582 177.146Z" fill="#1B806A"/>
<path d="M40.7351 247.39C41.4645 245.93 42.741 245.383 44.3821 245.383H103.1C109.847 245.383 115.135 247.755 119.329 252.498C122.794 256.695 158.535 299.388 167.106 309.605H160.723C156.712 304.861 122.247 264.175 117.506 258.337C112.217 251.769 107.476 249.579 98.9057 249.579H44.5645C42.9233 249.579 41.2821 249.944 40.3704 250.856C40.188 249.397 40.3704 248.302 40.7351 247.39Z" fill="#F76779"/>
<path d="M167.835 309.787H160.541L160.359 309.605C158.717 307.78 122.064 264.357 117.141 258.336C112.035 251.951 107.111 249.579 98.7232 249.579H44.3821C42.7409 249.579 41.2821 249.944 40.3703 250.674L39.8232 251.038V250.491C39.8232 249.214 40.0056 248.119 40.3703 247.207C41.0997 245.747 42.3762 245.018 44.3821 245.018H103.1C110.029 245.018 115.317 247.389 119.511 252.316C123.159 256.512 159.811 300.665 167.288 309.422L167.835 309.787ZM160.906 309.057H166.376C158.17 299.205 122.611 256.694 119.147 252.498C115.135 247.754 109.847 245.565 103.1 245.565H44.3821C42.7409 245.565 41.6468 246.112 40.9174 247.389C40.5527 248.119 40.3703 248.849 40.3703 249.761C41.4644 249.214 42.7409 248.849 44.3821 248.849H98.7232C107.294 248.849 112.217 251.221 117.688 257.789C122.611 263.992 158.353 306.138 160.906 309.057Z" fill="#F76779"/>
<path d="M41.646 254.87C41.4636 254.687 41.4636 254.505 41.2813 254.322C41.0989 254.14 41.0989 253.775 41.2813 253.41C41.646 252.863 42.5578 252.133 44.5637 252.133H98.9049C106.746 252.133 110.758 253.957 115.499 259.978C119.875 265.452 149.599 300.482 157.258 309.604H85.9578C72.4637 292.819 43.4695 257.059 41.646 254.87Z" fill="#F76779"/>
<path d="M157.988 309.787H85.9585L85.7761 309.604C73.0114 293.913 43.2879 257.059 41.4644 255.052C41.282 254.869 41.282 254.687 41.0997 254.504C40.9173 254.139 40.9173 253.775 41.0997 253.41C41.4644 252.68 42.5585 251.768 44.5644 251.768H98.9055C106.747 251.768 110.941 253.775 115.682 259.795C119.876 265.086 148.688 299.205 157.441 309.422L157.988 309.787ZM86.1408 309.057H156.529C147.229 298.11 119.329 265.269 115.135 259.978C110.394 254.139 106.564 252.315 98.9055 252.315H44.5644C42.7408 252.315 41.8291 253.045 41.6467 253.41C41.6467 253.592 41.6467 253.774 41.6467 253.957C41.8291 254.139 41.8291 254.322 42.0114 254.504C43.8349 256.876 73.3761 293.366 86.1408 309.057Z" fill="#F76779"/>
<path d="M88.1465 312.158H216.341H229.288V317.449H92.3406C91.7935 316.537 90.1524 314.712 88.1465 312.158Z" fill="#F76779"/>
<path d="M229.653 317.815H92.3408L87.5996 311.977H229.835V317.815H229.653ZM92.5231 317.085H228.923V312.524H88.8761L92.5231 317.085Z" fill="#F76779"/>
<path d="M310.617 317.451C310.8 312.16 310.435 302.49 308.794 296.47C310.982 294.098 312.988 291.543 315.176 288.807C317 292.821 319.553 300.301 319.918 305.957C316.818 310.336 313.717 314.167 310.617 317.451Z" fill="#F8CD5B"/>
<path d="M310.799 317.815H310.07V317.451C310.435 311.977 310.07 302.49 308.429 296.651V296.469L308.611 296.286C310.617 293.915 312.805 291.36 314.811 288.623L315.176 288.076L315.358 288.623C317.364 293.185 319.735 300.483 320.099 305.956V306.139V306.321C316.999 310.517 313.899 314.349 310.799 317.815ZM309.158 296.651C310.617 302.307 311.164 311.247 310.799 316.721C313.717 313.619 316.635 309.97 319.37 305.956C319.005 300.483 316.452 293.367 314.993 289.536C312.988 292.09 310.982 294.462 309.158 296.651Z" fill="#F8CD5B"/>
<path d="M335.964 273.844C335.599 272.75 335.416 271.655 335.052 270.743L337.24 270.195C336.693 271.472 336.328 272.75 335.964 273.844Z" fill="#F8CD5B"/>
<path d="M335.781 275.121L335.599 274.026C335.417 272.932 335.052 271.837 334.687 270.925L334.505 270.56L337.605 269.83L337.423 270.377C337.058 271.655 336.693 272.749 336.146 274.026L335.781 275.121ZM335.417 270.925C335.599 271.472 335.781 272.019 335.964 272.567C336.146 271.837 336.511 271.29 336.693 270.56L335.417 270.925Z" fill="#F8CD5B"/>
<path d="M63.8946 213.634C64.9888 214.364 65.5358 215.459 65.5358 216.736C65.5358 218.013 64.8064 219.108 63.7123 220.02C62.6182 220.932 61.1594 221.48 59.5182 221.662C57.877 221.844 56.4182 221.662 55.5064 220.932C54.4123 220.202 53.8652 219.29 53.8652 218.195C53.8652 216.918 54.2299 215.824 55.3241 214.911C56.4182 213.999 57.6947 213.269 59.5182 213.087C61.1594 212.722 62.8005 212.904 63.8946 213.634ZM56.7829 217.83C56.7829 218.378 57.877 218.56 59.5182 218.378C61.1594 218.195 62.2535 217.648 62.2535 217.101C62.2535 216.553 61.1594 216.371 59.5182 216.553C57.877 216.918 56.7829 217.283 56.7829 217.83Z" fill="black"/>
<path d="M57.6948 211.628L55.5066 211.993C55.5066 210.716 54.5948 209.804 53.5007 209.622L53.3184 206.885L65.9007 204.695L65.7183 208.527L57.6948 209.804V211.628Z" fill="black"/>
<path d="M64.6242 192.653C65.9007 193.565 66.6301 194.843 66.4477 196.849C66.4477 198.674 65.7183 200.316 64.2595 201.593C62.983 202.87 61.3418 203.783 59.3359 204.147C57.3301 204.512 55.8712 204.33 54.5948 203.6C53.3183 202.87 52.7712 201.593 52.5889 199.951C52.4065 198.127 52.9536 196.667 54.23 195.207C55.5065 193.748 57.1477 192.836 59.1536 192.288C61.5242 191.558 63.3477 191.741 64.6242 192.653ZM56.2359 199.039C56.2359 199.769 57.5124 199.951 59.3359 199.586C61.3418 199.221 62.6183 198.492 62.6183 197.762C62.6183 197.032 61.3418 196.849 59.3359 197.214C57.5124 197.579 56.2359 198.309 56.2359 199.039Z" fill="black"/>
<path d="M65.1715 175.502C66.6303 176.597 67.3597 178.239 67.1774 180.611C66.995 182.983 66.2656 184.99 64.8068 186.632C63.348 188.274 61.5244 189.369 59.3362 189.916C57.148 190.463 55.5068 190.281 54.048 189.369C52.7715 188.456 52.0421 186.997 51.8598 184.99C51.6774 182.8 52.4068 180.793 53.6833 179.151C54.9598 177.327 56.7833 175.867 59.1539 175.138C61.7068 174.408 63.7127 174.408 65.1715 175.502ZM55.8715 183.895C55.8715 184.807 57.3303 184.99 59.3362 184.442C61.5244 183.895 62.9833 182.8 62.9833 181.888C62.9833 180.976 61.5244 180.793 59.3362 181.523C57.148 182.071 55.6892 182.983 55.8715 183.895Z" fill="black"/>
<path d="M65.9007 153.607C67.5419 154.884 68.2713 156.891 68.2713 159.993C68.089 162.912 67.1772 165.466 65.536 167.838C63.8948 170.027 61.8889 171.487 59.336 172.399C56.9654 173.311 54.9595 173.129 53.5007 172.034C52.0419 170.94 51.1301 169.115 51.1301 166.561C50.9477 163.824 51.6771 161.27 53.136 158.898C54.5948 156.344 56.783 154.519 59.336 153.425C61.8889 152.33 64.2595 152.33 65.9007 153.607ZM55.3242 164.919C55.3242 166.013 56.783 166.196 59.336 165.284C61.7066 164.371 63.3478 162.912 63.5301 161.817C63.5301 160.722 61.8889 160.54 59.336 161.452C56.783 162.547 55.3242 163.824 55.3242 164.919Z" fill="black"/>
<path d="M56.6006 151.055L53.3182 152.514C53.1359 149.595 52.0417 147.953 50.2182 147.953L49.8535 141.567L69.183 131.715L68.8182 141.02L56.6006 146.858V151.055Z" fill="black"/>
<path d="M56.2363 134.086L52.5892 136.093C52.4068 132.627 51.1304 130.62 49.1245 130.802L48.7598 123.139L70.0951 110.186L69.548 121.497L56.0539 128.978L56.2363 134.086Z" fill="black"/>
<path d="M68.6359 71.8706C71.0065 73.8776 72.1006 78.2564 71.9183 84.6421C71.5536 90.663 70.2771 96.1364 67.7241 101.063C65.3536 105.806 62.4359 109.09 58.9712 111.28C55.6889 113.469 52.9536 113.652 50.9477 112.01C48.9418 110.368 47.6653 107.083 47.483 102.157C47.1183 96.8663 48.0301 91.7577 50.0359 86.6491C52.0418 81.1756 54.9595 76.7968 58.9712 73.6951C62.8006 70.411 66.2653 69.6812 68.6359 71.8706ZM53.5006 97.9609C53.5006 100.15 55.6889 100.15 58.9712 97.7785C62.4359 95.4067 64.8065 92.1225 64.8065 89.7507C64.8065 87.3788 62.4359 87.5613 58.9712 90.1156C55.5065 92.6699 53.3183 95.7715 53.5006 97.9609Z" fill="black"/>
<path d="M233.847 235.712C233.664 236.989 233.3 237.901 232.753 238.448C232.205 238.813 231.476 238.631 230.929 237.901C230.382 237.171 229.835 235.894 229.47 234.252C229.105 232.61 229.105 231.333 229.105 230.056C229.288 228.779 229.47 228.049 230.017 227.501C230.564 226.954 231.111 226.954 231.658 227.684C232.206 228.414 232.753 229.508 233.117 231.15C233.847 232.793 234.029 234.435 233.847 235.712ZM230.747 230.238C230.564 230.421 230.564 231.515 230.929 232.975C231.294 234.435 231.658 235.529 231.841 235.347C232.023 235.164 232.023 234.07 231.658 232.428C231.476 230.968 231.111 230.056 230.747 230.238Z" fill="black"/>
<path d="M233.664 228.961L233.117 226.954C233.664 226.407 234.029 225.312 233.847 224.218L235.123 223.123L238.223 234.8L236.4 235.894L234.576 228.414L233.664 228.961Z" fill="black"/>
<path d="M243.693 228.962C243.511 230.604 242.964 231.698 242.052 232.246C241.14 232.793 240.411 232.611 239.499 231.881C238.77 230.969 238.04 229.691 237.493 227.867C236.946 226.042 236.764 224.4 236.946 222.941C237.129 221.481 237.493 220.386 238.405 219.657C239.135 218.927 240.046 218.927 240.776 219.474C241.688 220.204 242.417 221.481 242.964 223.306C243.693 225.495 243.876 227.32 243.693 228.962ZM239.317 222.941C238.952 223.123 239.135 224.583 239.499 226.225C240.046 228.049 240.593 228.962 240.958 228.779C241.323 228.597 241.14 227.137 240.593 225.313C240.229 223.671 239.682 222.576 239.317 222.941Z" fill="black"/>
<path d="M252.082 223.123C251.899 224.947 251.17 226.407 249.893 227.137C248.799 227.866 247.705 227.866 246.611 226.954C245.517 226.042 244.788 224.582 244.058 222.758C243.511 220.751 243.146 218.926 243.511 217.284C243.693 215.642 244.24 214.365 245.335 213.453C246.429 212.541 247.34 212.358 248.435 212.906C249.529 213.453 250.441 214.912 251.352 216.919C252.082 219.291 252.264 221.298 252.082 223.123ZM246.429 216.919C246.064 217.284 246.064 218.744 246.793 220.568C247.523 222.575 248.252 223.67 248.617 223.305C248.982 222.94 248.982 221.481 248.252 219.474C247.523 217.649 246.793 216.555 246.429 216.919Z" fill="black"/>
<path d="M263.206 215.643C262.841 217.833 261.929 219.475 260.288 220.57C258.829 221.482 257.37 221.664 255.911 220.752C254.453 219.84 253.359 218.38 252.629 216.191C251.9 214.001 251.535 211.994 251.717 210.17C251.9 208.345 252.629 206.703 253.906 205.609C255.182 204.331 256.641 203.967 258.1 204.514C259.559 205.061 260.835 206.521 261.929 208.71C263.023 210.9 263.57 213.272 263.206 215.643ZM255.547 209.075C255 209.623 255.182 211.082 256.094 213.272C257.006 215.461 257.917 216.556 258.464 216.191C259.011 215.826 258.829 214.001 257.917 211.812C257.006 209.623 256.094 208.71 255.547 209.075Z" fill="black"/>
<path d="M278.705 204.877C278.34 207.614 276.881 209.621 274.693 211.08C272.505 212.54 270.499 212.722 268.493 211.81C266.487 211.08 265.029 209.438 263.934 206.884C262.84 204.512 262.476 202.323 262.658 199.951C263.023 197.762 263.934 195.755 265.758 194.113C267.582 192.471 269.405 191.741 271.411 192.106C273.599 192.471 275.423 193.93 276.881 196.302C278.523 199.404 279.07 202.14 278.705 204.877ZM267.764 198.674C267.034 199.221 267.217 201.228 268.493 203.418C269.77 205.789 271.046 206.884 271.958 206.337C272.87 205.789 272.505 203.6 271.046 201.228C269.952 199.039 268.493 197.944 267.764 198.674Z" fill="black"/>
<path d="M277.976 192.287L275.97 189.186C277.976 187.361 278.887 184.807 278.34 182.8L282.899 178.604L296.211 196.483L288.735 201.41L280.893 189.733L277.976 192.287Z" fill="black"/>
<path d="M290.741 181.707L288.188 178.423C290.924 176.051 292.018 173.132 291.288 170.942L297.306 165.469L315.359 184.079L305.147 190.829L294.753 178.423L290.741 181.707Z" fill="black"/>
<path d="M211.053 162.915C211.236 162.733 211.236 162.733 211.418 162.55C209.777 159.996 207.771 157.989 205.4 156.165C203.03 154.34 200.477 152.881 197.559 151.968C194.824 151.056 191.724 150.509 188.624 150.691C185.524 150.874 182.606 151.421 179.871 152.698C177.136 153.793 174.583 155.617 172.395 157.807C170.206 159.996 168.565 162.55 167.471 165.287C166.377 168.024 165.647 170.943 165.283 173.862C165.1 176.234 164.918 178.606 165.1 180.978C162.548 180.795 160.177 180.795 157.624 180.795C154.524 180.795 151.424 180.978 148.324 181.343C145.224 181.707 142.124 182.255 139.206 182.802C136.836 183.349 134.283 184.079 131.912 184.809C131.73 184.079 131.548 183.532 131.183 182.802C130.636 181.707 129.906 180.43 128.995 179.518C128.083 178.606 126.806 177.876 125.53 177.511C124.253 177.146 122.977 176.964 121.518 177.146C120.242 177.329 118.783 177.876 117.871 178.606C116.777 179.518 116.048 180.43 115.5 181.707C114.406 184.079 114.224 186.816 115.318 189.005C115.5 189.37 115.865 189.553 116.047 189.37C116.412 189.37 116.595 188.823 116.595 188.458C116.048 186.451 116.595 184.262 117.506 182.62C118.053 181.707 118.6 180.978 119.33 180.613C120.059 180.065 120.971 179.701 121.883 179.701C122.795 179.701 123.706 179.7 124.618 180.065C125.53 180.43 126.259 180.795 126.989 181.525C127.718 182.255 128.265 182.985 128.63 183.897C128.995 184.809 129.177 185.721 129.177 186.634C129.177 186.816 129.177 186.998 129.177 186.998C129.359 187.728 130.089 188.093 130.818 187.911C133.736 186.998 136.653 186.086 139.571 185.539C142.489 184.809 145.406 184.444 148.324 184.079C151.242 183.714 154.342 183.532 157.259 183.532C160.177 183.532 163.277 183.532 166.195 183.714H166.377C167.289 183.714 167.836 182.802 167.653 182.072C167.106 176.599 167.471 171.125 169.477 166.199C171.483 161.273 175.312 157.259 180.236 155.252C182.606 154.158 185.342 153.61 187.895 153.428C190.447 153.245 193.183 153.793 195.736 154.523C198.289 155.435 200.659 156.712 202.847 158.172C205.036 159.814 206.859 161.638 208.318 164.01C208.5 164.375 209.047 164.557 209.412 164.557C210.506 164.01 210.689 163.463 211.053 162.915Z" fill="black"/>
<path d="M208.5 167.293C209.229 163.644 210.688 160.178 213.241 157.258C215.612 154.339 218.894 152.15 222.359 150.873C225.824 149.413 229.471 148.866 233.3 148.683C236.947 148.501 240.594 148.866 244.241 149.595C245.153 149.778 246.065 149.96 246.976 150.143L249.712 150.873C251.535 151.42 253.176 151.967 254.818 152.697C258.282 154.157 261.382 155.799 264.482 157.806C270.682 161.82 275.971 166.746 280.529 172.402C281.076 172.949 280.894 173.861 280.347 174.226C279.8 174.591 278.888 174.591 278.524 174.044C276.153 171.307 273.782 168.935 271.229 166.563C268.676 164.191 265.941 162.185 263.024 160.178C260.106 158.353 257.006 156.711 253.724 155.434C252.082 154.704 250.441 154.157 248.8 153.609C247.159 153.244 245.518 152.697 243.694 152.332C240.229 151.602 236.765 151.238 233.482 151.42C230.018 151.602 226.735 152.15 223.453 153.427C220.353 154.704 217.435 156.529 215.247 158.9C212.876 161.272 211.235 164.374 209.776 167.476C209.594 167.84 209.229 167.841 209.047 167.841C208.5 167.841 208.5 167.658 208.5 167.293Z" fill="black"/>
<path d="M293.659 320.003C293.477 320.003 293.112 320.003 292.929 319.821C292.382 319.456 292.2 318.543 292.565 317.996C299.312 307.414 303.871 286.98 304.6 263.809C305.33 240.638 302.229 218.379 296.212 204.513C295.847 203.783 296.212 203.053 296.941 202.688C297.671 202.323 298.4 202.688 298.765 203.418C311.894 234.252 309.888 296.102 294.935 319.456C294.388 319.821 294.024 320.003 293.659 320.003Z" fill="black"/>
<path d="M221.995 216.737C221.448 216.19 220.718 216.19 220.171 216.555C211.418 224.035 195.189 228.231 174.401 228.414C156.712 228.596 139.936 225.859 132.642 223.123C107.112 213.453 103.465 196.485 103.101 189.735C102.736 182.254 107.477 180.43 108.936 180.065C112.036 179.152 114.953 181.342 116.048 182.801C116.23 182.984 116.412 183.166 116.777 183.349V183.166C116.777 182.254 117.142 181.524 117.689 180.795C117.689 180.795 117.871 180.795 117.871 180.612C115.865 178.058 112.218 176.233 108.389 177.328C104.377 178.423 100.183 182.254 100.548 189.735C100.912 197.033 104.924 215.277 131.73 225.495C138.659 228.049 155.071 230.786 172.577 230.786C190.995 230.786 210.871 227.684 221.812 218.197C222.542 218.014 222.542 217.284 221.995 216.737Z" fill="black"/>
<path d="M219.624 206.154C219.259 207.613 219.077 209.073 219.259 210.35C219.441 211.81 219.624 213.087 220.353 214.181C220.9 215.276 221.812 216.371 222.906 217.101C224 217.83 225.277 218.378 226.735 218.925C227.465 219.108 227.83 219.837 227.647 220.567C227.465 221.297 226.736 221.662 226.188 221.479C224.547 221.114 222.906 220.567 221.447 219.655C219.988 218.743 218.712 217.283 217.983 215.641C217.253 213.999 216.889 212.175 217.071 210.532C217.071 208.89 217.618 207.066 218.53 205.606C218.712 205.241 219.259 205.059 219.624 205.242C219.624 205.242 219.806 205.606 219.624 206.154Z" fill="black"/>
<path d="M122.794 182.437C118.782 183.532 119.694 190.1 124.07 188.823C128.082 187.728 126.623 181.525 122.794 182.437Z" fill="black"/>
<path d="M108.754 183.714C104.742 184.808 105.654 191.376 110.03 190.099C114.042 189.005 112.583 182.619 108.754 183.714Z" fill="black"/>
<path d="M143.764 184.078C139.57 177.875 135.558 171.854 131.364 165.651L119.147 147.223L106.929 128.613L105.47 126.242L104.741 125.147L104.376 124.6L104.194 124.417L104.011 124.235C103.647 123.687 103.099 123.687 102.917 123.687C102.735 123.687 102.735 123.687 102.735 123.87C102.735 124.052 102.552 124.235 102.552 124.417C102.552 124.6 102.552 124.782 102.552 124.782L102.735 125.329L103.282 126.607C103.647 127.519 103.829 128.431 104.194 129.161C104.741 130.985 105.288 132.627 105.835 134.452C106.017 134.817 105.652 135.364 105.288 135.364C104.923 135.364 104.558 135.364 104.376 134.999C103.464 133.357 102.735 131.715 101.823 130.073C101.458 129.161 101.094 128.431 100.729 127.519L100.182 126.242C100.182 126.059 99.9995 125.694 99.8171 125.512C99.8171 125.147 99.6348 124.964 99.6348 124.6C99.6348 123.87 99.6348 123.14 100.182 122.41C100.547 121.68 101.276 121.133 102.188 120.951C102.917 120.768 103.829 120.951 104.376 121.133C104.923 121.498 105.47 121.863 106.017 122.228L106.382 122.593L106.564 122.958L106.929 123.687L107.658 124.782L109.117 127.154L121.517 145.581L133.735 164.009C137.747 170.212 141.941 176.415 145.952 182.618C146.317 183.166 146.135 184.078 145.588 184.443C144.858 184.808 144.129 184.625 143.764 184.078Z" fill="black"/>
<path d="M112.583 177.875C112.4 177.51 87.2358 134.27 85.9593 131.533C85.777 130.986 85.5946 130.621 85.9593 130.438C86.1417 130.256 86.6887 130.438 87.2358 130.986C88.877 133.175 93.6181 139.014 93.8005 139.196C93.9829 139.378 94.1652 139.561 94.3475 139.561C94.3475 139.561 94.3475 139.561 94.3475 139.378C93.9828 138.466 93.8005 137.736 93.9828 136.824C93.9828 136.459 94.3475 136.094 94.5299 135.729C92.8887 133.723 90.5181 130.621 89.424 129.161C87.9652 127.337 85.9593 127.154 84.6828 127.884C83.4064 128.614 82.677 130.256 83.7711 132.445C85.2299 135.182 109.483 177.146 110.577 178.97C110.759 179.335 111.306 179.7 111.671 179.7C111.853 179.7 112.218 179.7 112.4 179.517C112.765 179.335 112.948 178.423 112.583 177.875Z" fill="black"/>
<path d="M103.83 130.986C103.83 130.804 103.83 130.804 103.83 130.621C102.918 130.621 102.006 130.804 100.912 131.168C100.73 131.168 100.365 131.351 100.183 131.533C100 131.716 99.6356 131.898 99.4532 131.898C99.2709 132.081 98.9062 132.263 98.7238 132.446C98.5415 132.628 98.3591 132.993 98.1768 133.175C97.6297 134.27 97.6297 135.547 97.9944 136.459C98.3591 137.372 98.7238 138.284 99.2709 139.014C99.4533 139.379 100 139.561 100.365 139.196C100.73 139.014 100.912 138.466 100.73 138.101C100.365 137.372 100 136.642 100 135.912C99.8179 135.182 100 134.635 100.183 134.088C100.365 133.723 100.912 133.358 101.641 133.175C102.371 132.993 103.1 132.993 103.83 132.993C103.83 132.993 103.83 132.993 104.012 132.993C104.194 132.993 104.377 132.993 104.559 132.81C104.194 132.628 103.83 131.898 103.83 130.986Z" fill="black"/>
<path d="M99.2706 134.452C99.4529 133.905 99.6353 133.54 100 133.175C99.8176 132.81 99.2705 132.627 98.9058 132.81C97.9941 132.81 97.0823 132.992 95.9882 133.357C95.8059 133.357 95.4412 133.54 95.2588 133.722C95.0764 133.905 94.7118 134.087 94.5294 134.087C94.347 134.269 93.9824 134.452 93.8 134.634C93.6177 134.817 93.4353 135.182 93.2529 135.364C92.7059 136.459 92.7059 137.736 93.0706 138.648C93.4353 139.561 93.8 140.473 94.347 141.203C94.5294 141.568 95.0765 141.75 95.4412 141.568C95.8059 141.385 95.9882 140.838 95.8059 140.473C95.4412 139.743 95.0765 139.013 95.0765 138.283C94.8941 137.554 95.0764 137.006 95.2588 136.459C95.4412 136.094 95.9882 135.729 96.7176 135.547C97.447 135.364 98.1764 135.364 98.9058 135.364C98.9058 135.364 98.9059 135.364 99.0882 135.364C99.0882 135.182 99.2706 134.817 99.2706 134.452Z" fill="black"/>
<path d="M167.654 252.863C155.072 252.863 143.766 249.761 134.648 243.558C124.801 236.99 118.236 227.138 117.507 217.833C117.507 217.103 118.054 216.373 118.783 216.373C119.513 216.373 120.242 216.92 120.242 217.65C120.972 226.043 126.989 235.165 136.107 241.369C151.242 251.586 172.213 253.045 195.189 245.565C195.919 245.382 196.648 245.747 196.83 246.477C197.013 247.207 196.648 247.937 195.919 248.119C186.254 251.221 176.589 252.863 167.654 252.863Z" fill="black"/>
<path d="M213.424 232.792C213.242 232.792 212.877 232.792 212.695 232.61C212.148 232.245 211.783 231.333 212.148 230.785C214.518 226.772 215.977 221.298 216.342 219.656C216.524 218.926 217.254 218.561 217.983 218.744C218.713 218.926 219.077 219.656 218.895 220.386C218.348 222.575 216.889 228.049 214.518 232.245C214.336 232.61 213.789 232.792 213.424 232.792Z" fill="black"/>
<path d="M117.141 249.761C116.959 249.761 116.959 249.761 116.777 249.761C116.047 249.578 115.682 248.848 115.865 248.119C116.959 243.375 119.694 236.077 123.706 231.333C124.253 230.786 124.982 230.603 125.53 231.151C126.077 231.698 126.259 232.428 125.712 232.975C122.065 237.537 119.512 244.287 118.418 248.666C118.235 249.213 117.688 249.761 117.141 249.761Z" fill="black"/>
<path d="M142.307 238.63C142.307 238.63 142.125 238.63 142.307 238.63C141.76 238.63 141.213 238.265 141.031 237.9L135.56 226.589C135.195 225.859 135.56 225.129 136.107 224.764C136.836 224.399 137.566 224.764 137.93 225.311L142.489 234.799L148.689 227.501C149.236 226.953 149.966 226.953 150.513 227.318C151.06 227.866 151.06 228.596 150.695 229.143L143.036 238.083C143.036 238.448 142.672 238.63 142.307 238.63Z" fill="black"/>
<path d="M170.936 231.15C170.389 231.15 170.024 230.785 169.659 230.42L166.195 223.305L161.636 230.238C161.271 230.785 160.359 230.968 159.812 230.603C159.265 230.238 159.083 229.326 159.448 228.778L165.283 219.838C165.465 219.473 166.012 219.291 166.559 219.291C167.106 219.291 167.471 219.656 167.653 220.021L172.212 229.326C172.577 230.056 172.212 230.785 171.665 231.15C171.301 231.15 171.118 231.15 170.936 231.15Z" fill="black"/>
<path d="M190.264 239.727C189.9 239.727 189.535 239.544 189.17 239.179L181.876 230.239C181.329 229.692 181.512 228.78 182.059 228.415C182.606 227.867 183.517 228.05 183.882 228.597L190.082 236.26L196.282 226.955C196.647 226.408 197.558 226.225 198.106 226.59C198.653 226.955 198.835 227.867 198.47 228.415L191.359 239.179C191.176 239.544 190.811 239.727 190.264 239.727Z" fill="black"/>
<path d="M171.483 269.465C171.118 269.465 170.571 269.283 170.389 268.918C166.012 262.35 159.083 258.336 151.059 257.606C143.218 257.059 135.195 259.613 131.183 264.174C130.636 264.721 129.906 264.721 129.359 264.357C128.812 263.992 128.812 263.079 129.177 262.532C133.736 257.423 142.671 254.504 151.242 255.234C160.177 255.964 167.836 260.343 172.759 267.641C173.124 268.188 172.942 269.1 172.395 269.465C172.03 269.465 171.848 269.465 171.483 269.465Z" fill="black"/>
<path d="M166.377 274.027C166.194 274.027 165.83 274.027 165.647 273.844C155.436 267.094 142.124 268.553 136.106 270.925C135.377 271.29 134.647 270.925 134.283 270.195C133.918 269.466 134.283 268.736 135.012 268.371C141.577 265.634 155.983 263.992 167.106 271.472C167.653 271.837 167.836 272.75 167.471 273.297C167.289 273.844 166.742 274.027 166.377 274.027Z" fill="#B99727"/>
<path d="M157.989 281.142C157.624 281.142 157.259 280.959 157.077 280.777C154.159 277.858 147.23 277.493 142.854 279.135C142.124 279.317 141.395 278.952 141.212 278.405C141.03 277.675 141.395 276.945 141.942 276.763C147.23 274.938 155.254 275.303 158.901 278.952C159.448 279.5 159.448 280.229 158.901 280.777C158.718 280.959 158.354 281.142 157.989 281.142Z" fill="#B99727"/>
<path d="M216.524 249.395C215.43 253.774 214.153 258.153 212.877 262.531L208.865 275.485L204.853 288.439L200.842 301.393C200.659 301.94 200.112 302.305 199.565 302.488C197.742 302.488 195.918 302.67 194.277 303.218C192.636 303.765 191.177 304.677 190.447 305.954C190.265 306.319 190.265 306.502 190.083 306.867C190.083 307.232 190.083 307.414 190.083 307.596C190.265 307.961 190.63 308.509 191.359 308.691C192.089 309.056 193 309.238 193.912 309.238C194.824 309.421 195.736 309.421 196.647 309.421C197.377 309.421 197.924 309.968 197.924 310.698C197.924 311.428 197.377 311.975 196.647 311.975C195.553 311.975 194.642 311.975 193.547 311.793C192.453 311.61 191.359 311.428 190.265 311.063C190.083 310.881 189.718 310.881 189.536 310.698C189.353 310.516 188.989 310.333 188.806 310.151C188.259 309.786 187.894 309.056 187.53 308.509C187.165 307.779 187.165 307.049 187.165 306.319C187.165 305.589 187.53 305.042 187.712 304.495C188.259 303.4 189.171 302.488 190.083 301.758C190.994 301.028 192.089 300.663 193 300.298C195.006 299.569 197.194 299.386 199.2 299.386L197.924 300.481L201.936 287.527L206.13 274.573L210.324 261.619C211.783 257.24 213.242 253.044 214.883 248.848C215.065 248.483 215.612 248.118 215.977 248.3C216.342 248.665 216.524 249.03 216.524 249.395Z" fill="black"/>
<path d="M216.342 312.158C216.16 312.158 215.977 312.158 215.795 311.975C215.065 311.61 214.883 310.88 215.248 310.151L240.412 258.7C240.595 258.517 240.777 258.152 240.96 258.152L393.771 180.246C394.501 179.882 395.23 180.247 395.595 180.794C395.96 181.524 395.595 182.253 395.048 182.618L242.783 260.342L217.801 311.428C217.436 311.793 216.889 312.158 216.342 312.158Z" fill="black"/>
<path d="M150.147 288.256C149.782 288.256 149.418 288.074 149.053 287.709C148.506 287.161 148.688 286.249 149.235 285.884L325.935 130.985C326.482 130.437 327.394 130.62 327.759 131.167C328.306 131.715 328.124 132.627 327.577 132.992L151.059 287.891C150.694 288.074 150.512 288.256 150.147 288.256Z" fill="black"/>
<path d="M270.318 165.287C269.589 165.287 269.042 164.739 269.042 164.192C268.495 159.083 266.307 154.522 265.03 153.063C264.848 153.792 264.848 155.435 265.213 158.901C265.213 159.631 264.666 160.361 263.936 160.361C263.207 160.361 262.477 159.813 262.477 159.083C261.93 152.88 262.295 150.326 264.301 149.961C264.848 149.779 265.577 149.961 266.307 150.508C268.677 152.15 271.048 158.171 271.777 163.645C271.777 164.557 271.23 165.287 270.318 165.287C270.501 165.287 270.318 165.287 270.318 165.287Z" fill="black"/>
<path d="M282.536 172.219C281.806 172.219 281.077 171.489 281.259 170.759C281.441 166.38 279.618 160.177 278.341 158.353C277.977 159.265 277.794 160.907 277.43 162.367C277.065 164.191 276.7 166.198 276.153 168.387C275.971 169.117 275.241 169.482 274.512 169.3C273.783 169.117 273.418 168.387 273.6 167.658C274.147 165.651 274.512 163.644 274.877 161.819C275.606 157.988 275.971 155.798 277.794 155.433C278.159 155.251 278.888 155.251 279.8 155.981C282.171 157.805 284.359 165.833 284.177 170.942C283.812 171.671 283.265 172.219 282.536 172.219Z" fill="black"/>
<path d="M303.324 226.59C303.141 226.59 302.959 226.59 302.777 226.408C302.047 226.043 301.865 225.313 302.23 224.583C304.418 220.022 305.877 209.622 305.33 206.885C304.783 207.433 304.053 208.71 303.689 209.622C303.141 210.717 302.412 211.994 301.5 213.089C301.136 213.636 300.224 213.819 299.677 213.271C299.13 212.906 298.947 211.994 299.494 211.447C300.224 210.534 300.953 209.257 301.5 208.163C302.777 205.791 304.236 203.419 306.424 203.966C306.789 204.149 307.336 204.331 307.7 205.243C309.159 208.528 306.971 221.117 304.6 225.678C304.236 226.408 303.688 226.59 303.324 226.59Z" fill="black"/>
<path d="M243.329 140.291L246.064 132.811L248.435 140.291L255.729 142.115L248.435 144.305L245.882 150.143L243.694 144.67L236.399 141.386L243.329 140.291Z" fill="black"/>
<path d="M245.882 151.42C245.335 151.42 244.788 151.055 244.606 150.508L242.6 145.581L235.853 142.48C235.306 142.297 234.941 141.75 235.124 141.02C235.124 140.473 235.671 139.926 236.218 139.926L242.418 138.831L244.788 132.08C244.971 131.533 245.518 131.168 246.065 131.168C246.612 131.168 247.159 131.533 247.341 132.08L249.529 138.831L256.094 140.473C256.641 140.655 257.006 141.203 257.006 141.75C257.006 142.297 256.641 142.845 256.094 143.027L249.347 145.034L246.977 150.143C246.794 151.055 246.429 151.42 245.882 151.42ZM240.959 141.932L244.241 143.392C244.606 143.575 244.788 143.757 244.971 144.122L246.065 146.676L247.524 143.757C247.706 143.392 248.071 143.21 248.435 143.027L251.171 142.115L248.435 141.385C248.071 141.203 247.706 141.02 247.524 140.473L246.247 136.641L244.971 140.473C244.788 141.02 244.424 141.203 243.877 141.385L240.959 141.932Z" fill="black"/>
<path d="M191.177 132.812L193.183 138.651L198.289 140.658L193.001 142.665L191.177 148.321L188.442 142.3L183.883 140.475L188.989 138.833L191.177 132.812Z" fill="black"/>
<path d="M191.177 149.596C190.63 149.596 190.265 149.232 189.9 148.867L187.347 143.393L183.336 141.751C182.789 141.569 182.424 141.021 182.424 140.474C182.424 139.927 182.789 139.379 183.336 139.197L187.894 137.737L189.718 132.264C189.9 131.716 190.447 131.352 190.994 131.352C191.541 131.352 192.088 131.716 192.271 132.264L194.094 137.555L198.653 139.379C199.2 139.562 199.565 140.109 199.565 140.656C199.565 141.204 199.2 141.751 198.653 141.934L193.912 143.758L192.271 148.684C192.271 149.232 191.724 149.596 191.177 149.596ZM187.894 140.656L188.988 141.021C189.353 141.204 189.536 141.386 189.718 141.751L190.994 144.67L191.906 142.299C192.088 141.934 192.271 141.569 192.636 141.569L194.824 140.656L192.818 139.927C192.453 139.744 192.271 139.562 192.088 139.197L191.359 137.008L190.63 139.562C190.447 139.927 190.083 140.292 189.718 140.474L187.894 140.656Z" fill="black"/>
<path d="M166.377 144.303L168.93 151.418L176.771 153.973L169.113 155.98L166.742 164.555L163.277 155.98L157.26 154.52L164.007 152.331L166.377 144.303Z" fill="black"/>
<path d="M166.742 166.016C166.195 166.016 165.648 165.651 165.465 165.104L162.183 157.076L156.895 155.799C156.348 155.616 155.983 155.069 155.801 154.522C155.801 153.974 156.165 153.427 156.713 153.245L162.73 151.238L164.918 143.94C165.101 143.392 165.648 143.027 166.195 143.027C166.742 143.027 167.289 143.392 167.471 143.94L169.842 150.325L176.954 152.697C177.501 152.88 177.866 153.427 177.866 153.974C177.866 154.522 177.501 155.069 176.954 155.251L170.207 157.076L168.018 165.104C167.836 165.469 167.289 166.016 166.742 166.016ZM162.183 154.339L163.46 154.704C163.824 154.887 164.189 155.069 164.371 155.434L166.377 160.543L167.654 155.616C167.836 155.251 168.201 154.887 168.566 154.704L171.665 153.792L168.201 152.697C167.836 152.515 167.471 152.332 167.289 151.967L166.013 148.683L164.736 152.697C164.554 153.062 164.371 153.427 163.824 153.609L162.183 154.339Z" fill="black"/>
<path d="M329.401 240.092H329.218C328.489 239.909 327.942 239.18 328.124 238.45C328.489 236.808 328.489 233.706 328.671 230.604C328.854 223.489 329.036 221.847 330.312 221.3C330.859 221.117 331.407 221.117 331.954 221.482C334.142 222.759 334.871 229.692 334.871 229.875C334.871 230.604 334.324 231.334 333.595 231.334C332.865 231.334 332.136 230.787 332.136 230.057C331.954 228.598 331.771 227.138 331.407 226.043C331.224 227.503 331.224 229.327 331.224 230.787C331.042 233.889 331.042 237.173 330.677 238.997C330.495 239.727 329.948 240.092 329.401 240.092Z" fill="black"/>
<path d="M318.642 256.511C318.46 256.511 318.277 256.511 318.095 256.511C317.366 256.328 317.001 255.416 317.366 254.869C318.095 252.679 318.642 247.571 319.007 243.374C319.736 235.894 319.919 234.069 321.56 233.887C321.925 233.887 322.472 233.887 323.019 234.434C324.842 236.076 326.483 243.009 326.483 246.293C326.483 247.023 325.936 247.571 325.207 247.571C324.477 247.571 323.93 247.023 323.93 246.293C323.93 244.104 323.201 240.637 322.472 238.448C322.289 239.908 322.107 241.915 321.925 243.557C321.56 248.3 321.013 253.409 320.101 255.781C319.736 256.146 319.189 256.511 318.642 256.511Z" fill="black"/>
<path d="M305.694 268.371C305.512 268.371 305.329 268.371 304.965 268.188C304.235 267.823 304.053 267.094 304.418 266.364C305.329 264.539 306.788 259.066 308.065 254.14C310.8 243.558 311.347 242.463 312.806 242.463C313.353 242.463 313.718 242.645 314.082 243.01C315.906 245.017 316.271 256.329 316.088 259.431C316.088 260.161 315.359 260.708 314.63 260.708C313.9 260.708 313.353 259.978 313.353 259.248C313.535 256.329 313.171 250.491 312.624 247.207C311.894 249.396 311.165 252.315 310.435 254.869C308.977 260.161 307.7 265.634 306.424 267.641C306.606 268.188 306.059 268.371 305.694 268.371Z" fill="black"/>
<path d="M230.565 320.003C229.836 320.003 229.289 319.456 229.289 318.726V312.158H85.4122C84.6828 312.158 84.1357 311.61 84.1357 310.881C84.1357 310.151 84.6828 309.604 85.4122 309.604H230.747C231.477 309.604 232.024 310.151 232.024 310.881V318.726C232.024 319.456 231.295 320.003 230.565 320.003Z" fill="black"/>
<path d="M308.977 320.004H308.795C308.065 319.821 307.518 319.274 307.7 318.544C308.43 313.983 307.883 302.671 306.059 296.468C305.877 295.738 306.242 295.008 306.971 294.826C307.7 294.643 308.43 295.008 308.612 295.738C310.618 302.306 311.165 314.165 310.436 318.909C310.253 319.639 309.706 320.004 308.977 320.004Z" fill="#B99727"/>
<path d="M321.012 307.78C320.283 307.78 319.736 307.232 319.736 306.502C319.553 299.569 315.724 289.9 314.083 286.798C313.718 286.068 313.9 285.338 314.63 284.973C315.359 284.609 316.089 284.791 316.453 285.521C318.095 288.622 322.106 299.022 322.289 306.32C322.471 307.05 321.924 307.78 321.012 307.78C321.195 307.78 321.012 307.78 321.012 307.78Z" fill="#B99727"/>
<path d="M329.218 293.913C328.488 293.913 327.941 293.366 327.941 292.636C327.394 286.98 324.659 278.77 322.288 274.026C321.924 273.296 322.288 272.566 322.835 272.202C323.565 271.837 324.294 272.202 324.659 272.749C327.03 277.675 329.947 286.25 330.494 292.271C330.677 293.183 330.13 293.73 329.218 293.913C329.4 293.913 329.4 293.913 329.218 293.913Z" fill="#B99727"/>
<path d="M335.418 280.595C335.418 280.595 335.236 280.595 335.418 280.595C334.689 280.595 334.142 279.865 334.142 279.135C334.142 276.398 332.501 271.29 332.136 270.378C331.771 269.648 332.136 268.918 332.683 268.553C333.413 268.188 334.142 268.553 334.507 269.101C335.054 270.195 336.877 275.851 336.695 279.135C336.695 279.865 336.148 280.595 335.418 280.595Z" fill="#B99727"/>
<path d="M232.571 279.134C232.024 279.134 231.477 278.769 231.294 278.405C230.93 277.675 231.294 276.945 232.024 276.58L408.177 202.688C408.906 202.323 409.636 202.688 410 203.418C410.365 204.148 410 204.877 409.271 205.242L233.118 278.952C232.936 279.134 232.753 279.134 232.571 279.134Z" fill="black"/>
<path d="M165.831 307.231C165.284 307.231 164.737 306.866 164.554 306.501C164.19 305.772 164.554 305.042 165.284 304.677L202.119 289.169C202.848 288.804 203.578 289.169 203.942 289.898C204.307 290.628 203.943 291.358 203.213 291.723L166.378 307.231C166.195 307.049 166.013 307.231 165.831 307.231Z" fill="black"/>
<path d="M161.454 301.941C160.907 301.941 160.542 301.758 160.177 301.211C159.812 300.481 160.177 299.751 160.724 299.386L205.948 276.215C206.677 275.85 207.406 276.215 207.771 276.763C208.136 277.492 207.771 278.222 207.224 278.587L162.001 301.758C161.818 301.758 161.636 301.941 161.454 301.941Z" fill="black"/>
<path d="M156.347 295.738C155.983 295.738 155.436 295.555 155.253 295.19C154.889 294.643 155.071 293.731 155.618 293.366L212.694 255.416C213.241 255.052 214.153 255.234 214.518 255.781C214.883 256.329 214.7 257.241 214.153 257.606L157.077 295.555C156.712 295.738 156.53 295.738 156.347 295.738Z" fill="black"/>
<path d="M143.766 182.983C143.583 182.983 143.401 182.983 143.401 182.983C142.671 182.8 142.307 181.888 142.671 181.34L195.918 34.4686C196.101 33.7388 197.013 33.374 197.56 33.7389C198.289 33.9213 198.654 34.8335 198.289 35.3809L145.042 182.253C144.86 182.8 144.313 182.983 143.766 182.983Z" fill="black"/>
<path d="M108.388 245.746C108.206 245.746 108.206 245.746 108.024 245.746C107.294 245.563 106.93 244.834 107.112 244.104L114.406 214.912C114.588 214.182 115.318 213.817 116.047 214C116.777 214.182 117.141 214.912 116.959 215.642L109.665 244.834C109.482 245.381 108.935 245.746 108.388 245.746Z" fill="black"/>
<path d="M124.618 179.882C124.436 179.882 124.436 179.882 124.253 179.882C123.524 179.699 123.159 178.969 123.341 178.24L159.265 33.3748C159.447 32.645 160.177 32.2801 160.906 32.4625C161.635 32.645 162 33.3747 161.818 34.1045L125.894 178.97C125.894 179.517 125.347 179.882 124.618 179.882Z" fill="black"/>
<path d="M86.5062 245.199H86.3238C85.5944 245.017 85.0473 244.47 85.2297 243.74L98.5414 158.171C98.7238 157.441 99.2708 156.894 100 157.076C100.73 157.259 101.277 157.806 101.094 158.536L87.7826 244.105C87.6003 244.835 87.0532 245.199 86.5062 245.199Z" fill="black"/>
<path d="M105.107 124.782H104.924C104.195 124.6 103.648 124.053 103.83 123.323L122.795 1.44647C122.977 0.716677 123.524 0.169318 124.254 0.351767C124.983 0.534217 125.53 1.0816 125.348 1.8114L106.383 123.688C106.383 124.417 105.836 124.782 105.107 124.782Z" fill="black"/>
<path d="M72.4647 245.382C71.553 245.382 71.0059 244.652 71.1883 243.922L86.8706 16.9548C86.8706 16.225 87.6 15.6777 88.3295 15.6777C89.0589 15.6777 89.6059 16.4075 89.6059 17.1373L73.9236 244.105C73.7412 244.834 73.1941 245.382 72.4647 245.382Z" fill="black"/>
<path d="M49.1235 245.199C48.3941 245.199 47.847 244.651 47.847 243.921L26.5117 6.73692C26.5117 6.00712 27.0588 5.27734 27.7882 5.27734C28.5176 5.27734 29.247 5.82471 29.247 6.55451L50.5823 243.739C50.4 244.469 49.8529 245.199 49.1235 245.199Z" fill="black"/>
<path d="M170.023 312.159C169.659 312.159 169.294 311.976 168.929 311.611C168.565 311.064 123.341 257.059 119.329 252.315C115.135 247.571 109.847 245.2 103.1 245.2H44.3823C42.5587 245.2 41.4646 245.929 40.7352 247.207C39.6411 249.578 40.3705 253.045 41.647 254.687C42.0117 255.234 42.0117 256.147 41.4646 256.512C40.9176 256.876 40.0058 256.876 39.6411 256.329C37.8176 253.957 36.9058 249.396 38.547 246.112C39.6411 243.74 41.8293 242.463 44.5646 242.463H103.282C110.941 242.463 116.959 245.017 121.518 250.491C125.347 254.869 165.465 303.036 170.57 309.057L188.441 304.496C189.17 304.313 189.9 304.678 190.082 305.408C190.265 306.138 189.9 306.868 189.17 307.05L170.388 311.794C170.206 312.159 170.023 312.159 170.023 312.159Z" fill="black"/>
<path d="M39.0946 253.045C38.5475 253.045 37.8181 252.681 37.8181 251.951L0.435733 43.5934C0.25338 42.8636 0.80045 42.1338 1.52986 41.9514C2.25927 41.7689 2.98868 42.3163 3.17103 43.0461L40.5534 251.403C40.7358 252.133 40.1887 252.863 39.4593 253.045C39.2769 253.045 39.0946 253.045 39.0946 253.045Z" fill="black"/>
<path d="M141.576 145.581L158.535 95.4074L169.476 104.712L192.453 77.5273L173.853 130.62L159.082 120.038L141.576 145.581Z" fill="black"/>
<path d="M141.577 147.04C141.394 147.04 141.212 147.04 141.03 146.858C140.483 146.493 140.118 145.945 140.3 145.216L157.259 95.042C157.442 94.6772 157.806 94.3123 158.171 94.1298C158.536 93.9474 159.083 94.1298 159.447 94.3122L169.477 102.705L191.542 76.6147C191.906 76.0673 192.636 76.0673 193.183 76.2497C193.73 76.6146 193.912 77.162 193.73 77.8918L175.312 131.167C175.13 131.532 174.765 131.897 174.4 132.079C174.036 132.262 173.489 132.079 173.306 131.897L159.63 122.045L142.853 146.493C142.489 146.675 141.942 147.04 141.577 147.04ZM159.083 97.5963L145.771 136.823L157.806 119.125C157.989 118.76 158.353 118.578 158.718 118.578C159.083 118.578 159.447 118.578 159.812 118.76L173.124 128.43L188.624 83.7302L170.389 105.442C170.206 105.624 169.842 105.807 169.477 105.989C169.112 105.989 168.747 105.989 168.565 105.624L159.083 97.5963Z" fill="black"/>
<path d="M245.7 263.445L274.147 249.579L274.33 256.877L296.941 245.93L265.03 271.655L265.759 259.431L245.7 263.445Z" fill="black"/>
<path d="M265.03 273.115C264.848 273.115 264.665 273.115 264.483 272.933C263.936 272.75 263.754 272.203 263.754 271.655L264.301 261.073L245.883 264.722C245.154 264.905 244.607 264.54 244.424 263.81C244.242 263.263 244.424 262.533 245.154 262.168L273.601 248.484C273.965 248.302 274.512 248.302 274.877 248.484C275.242 248.667 275.424 249.214 275.606 249.579L275.789 254.688L296.577 244.653C297.124 244.288 297.854 244.653 298.218 245.2C298.583 245.747 298.401 246.477 297.854 247.025L265.942 272.75C265.759 272.933 265.395 273.115 265.03 273.115ZM265.759 257.972C266.124 257.972 266.306 258.154 266.671 258.337C267.036 258.519 267.218 259.066 267.218 259.431L266.854 268.736L287.459 251.951L275.059 257.972C274.695 258.154 274.148 258.154 273.783 257.972C273.418 257.789 273.236 257.242 273.054 256.877L272.871 251.768L255.73 259.979L265.395 257.972C265.577 257.972 265.577 257.972 265.759 257.972Z" fill="black"/>
<path d="M135.377 197.762C130.271 197.215 126.807 201.411 133.736 201.958C140.665 202.688 142.124 198.492 135.377 197.762Z" fill="#1F936F"/>
<path d="M144.312 204.877C137.747 204.148 132.642 209.439 143.583 210.533C154.706 211.446 153.43 205.79 144.312 204.877Z" fill="#1F936F"/>
<path d="M128.995 207.432C132.459 207.979 132.642 205.425 129.724 205.06C126.806 204.513 125.53 206.884 128.995 207.432Z" fill="#1F936F"/>
<path d="M184.429 200.135C201.571 200.135 201.206 192.472 183.335 193.201C167.471 193.749 164.553 200.135 184.429 200.135Z" fill="#1F936F"/>
<path d="M229.836 199.586C248.071 199.221 248.983 192.471 229.836 193.018C210.689 193.565 210.507 200.133 229.836 199.586Z" fill="#1F936F"/>
<path d="M192.636 160.178C174.036 160.178 170.572 192.471 192.636 192.471C209.413 192.654 210.871 160.178 192.636 160.178Z" fill="white"/>
<path d="M189.536 159.083C170.936 158.17 165.101 191.741 187.166 191.741C204.671 191.741 209.96 160.177 189.536 159.083Z" fill="black"/>
<path d="M189.536 193.932C183.883 193.932 179.142 192.107 176.042 188.823C173.306 185.904 171.665 181.708 171.665 177.146C171.665 167.659 178.23 157.807 189.353 157.807V159.084V157.807C196.1 157.807 201.753 161.091 205.036 166.564C208.5 172.403 208.5 179.883 205.4 185.539C202.3 191.012 196.647 193.932 189.536 193.932ZM189.536 160.543C180.053 160.543 174.4 168.936 174.4 177.146C174.4 187.546 182.606 191.377 189.536 191.377C195.736 191.377 200.477 188.823 203.212 184.444C205.947 179.701 205.765 173.132 202.847 168.206C200.112 163.098 195.371 160.543 189.536 160.543Z" fill="black"/>
<path d="M184.977 162.549L187.165 171.306L197.012 170.941L189.9 176.233L192.089 186.085L184.977 178.422L178.23 184.625L180.783 176.05L175.677 172.219L182.059 171.854L184.977 162.549Z" fill="white"/>
<path d="M192.088 187.362C191.724 187.362 191.359 187.18 191.177 186.997L184.977 180.429L179.141 185.72C178.777 186.085 178.047 186.085 177.5 185.903C176.953 185.538 176.771 184.99 176.953 184.443L179.324 176.78L174.947 173.678C174.582 173.313 174.218 172.766 174.4 172.219C174.582 171.671 174.947 171.307 175.677 171.307L181.147 170.942L183.7 162.549C183.882 162.002 184.43 161.637 184.977 161.637C185.524 161.637 186.071 162.002 186.253 162.731L188.077 170.394L196.83 170.029C197.377 170.029 197.924 170.394 198.106 170.942C198.288 171.489 198.106 172.036 197.559 172.401L191.177 177.145L193.182 186.085C193.365 186.632 193 187.362 192.453 187.545C192.453 187.362 192.271 187.362 192.088 187.362ZM184.977 177.145C185.341 177.145 185.706 177.327 185.888 177.51L189.718 181.524L188.624 176.415C188.441 175.868 188.624 175.32 189.171 175.138L192.818 172.401L187.165 172.584C186.618 172.584 185.888 172.219 185.888 171.489L184.977 167.475L183.518 172.036C183.335 172.584 182.971 172.949 182.424 172.949L179.688 173.131L181.877 174.773C182.424 175.138 182.606 175.685 182.424 176.233L181.147 180.247L184.247 177.327C184.247 177.327 184.612 177.145 184.977 177.145Z" fill="white"/>
<path d="M234.577 160.178C215.977 160.178 212.512 192.471 234.577 192.471C251.536 192.654 252.994 160.178 234.577 160.178Z" fill="white"/>
<path d="M231.659 159.083C213.059 158.17 207.224 191.741 229.289 191.741C246.612 191.741 252.083 160.177 231.659 159.083Z" fill="black"/>
<path d="M231.66 193.932C226.007 193.932 221.266 192.107 218.166 188.823C215.43 185.904 213.789 181.708 213.789 177.146C213.789 167.659 220.354 157.807 231.477 157.807V159.084V157.807C238.224 157.807 243.877 161.091 247.16 166.564C250.624 172.403 250.624 179.883 247.524 185.539C244.424 191.012 238.771 193.932 231.66 193.932ZM231.66 160.543C222.177 160.543 216.524 168.936 216.524 177.146C216.524 187.546 224.73 191.377 231.66 191.377C237.86 191.377 242.601 188.823 245.336 184.444C248.071 179.701 247.889 173.132 244.971 168.206C242.054 163.098 237.313 160.543 231.66 160.543Z" fill="black"/>
<path d="M227.101 162.549L229.107 171.306L238.954 170.941L232.024 176.233L234.212 186.085L226.918 178.422L220.171 184.625L222.907 176.05L217.801 172.219L224.183 171.854L227.101 162.549Z" fill="white"/>
<path d="M234.212 187.362C233.848 187.362 233.483 187.18 233.301 186.997L227.101 180.429L221.265 185.72C220.901 186.085 220.171 186.085 219.624 185.903C219.077 185.538 218.895 184.99 219.077 184.443L221.448 176.78L217.071 173.678C216.706 173.313 216.342 172.766 216.524 172.219C216.706 171.671 217.071 171.307 217.801 171.307L223.271 170.942L225.824 162.549C226.006 162.002 226.553 161.637 227.101 161.637C227.648 161.637 228.195 162.002 228.377 162.731L230.201 170.394L238.953 170.029C239.501 170.029 240.048 170.394 240.23 170.942C240.412 171.489 240.23 172.036 239.683 172.401L233.301 177.145L235.306 186.085C235.489 186.632 235.124 187.362 234.577 187.545C234.577 187.362 234.395 187.362 234.212 187.362ZM226.918 177.145C227.283 177.145 227.648 177.327 227.83 177.51L231.659 181.524L230.565 176.415C230.383 175.868 230.565 175.32 231.112 175.138L234.759 172.401L229.106 172.584C228.559 172.584 227.83 172.219 227.83 171.489L226.918 167.475L225.459 172.036C225.277 172.584 224.912 172.949 224.365 172.949L221.63 173.131L223.818 174.773C224.365 175.138 224.548 175.685 224.365 176.233L223.089 180.247L226.189 177.327C226.371 177.327 226.736 177.145 226.918 177.145Z" fill="white"/>
<path d="M311.166 320.002H91.795C91.4303 320.002 91.0656 319.82 90.7009 319.455C90.1538 318.907 41.2833 258.517 39.6421 256.51C38.548 255.233 38.1833 253.59 38.9127 252.313C39.8245 250.489 41.8303 249.394 44.5656 249.394H98.9068C107.477 249.394 112.219 251.766 117.507 258.152C122.43 264.355 160.724 309.42 161.089 309.967C161.636 310.515 161.454 311.427 160.907 311.792C160.36 312.339 159.448 312.157 159.083 311.609C158.719 311.244 120.424 265.997 115.501 259.794C110.76 253.773 106.748 251.948 98.9068 251.948H44.5656C42.5598 251.948 41.648 252.678 41.2833 253.226C41.1009 253.773 41.2833 254.32 41.648 254.685C43.4715 256.692 87.4186 311.062 92.5244 317.265H310.801C329.766 297.196 347.454 256.692 343.26 220.75C342.895 217.83 341.801 216.736 341.254 216.736C340.707 216.736 339.43 217.648 338.701 220.385C338.336 221.844 328.307 254.32 306.607 268.186C306.06 268.551 305.148 268.369 304.783 267.822C304.418 267.274 304.601 266.362 305.148 265.997C326.119 252.678 335.783 221.114 336.148 219.655C337.242 216.006 339.248 213.999 341.618 214.181C343.442 214.364 345.448 216.188 345.995 220.567C350.371 257.604 331.954 299.203 312.442 319.637C311.895 320.002 311.53 320.002 311.166 320.002Z" fill="black"/>
<path d="M300.224 304.13C299.86 304.13 299.495 303.948 299.13 303.583C298.583 303.036 298.765 302.124 299.312 301.759C318.642 286.068 341.254 243.375 340.342 215.825C340.342 215.095 340.889 214.548 341.618 214.365C342.348 214.365 342.895 214.913 343.077 215.642C343.989 244.652 320.83 287.71 301.136 303.766C300.954 303.948 300.589 304.13 300.224 304.13Z" fill="black"/>
<path d="M222.907 298.84C222.36 298.84 221.813 298.475 221.63 297.745C221.448 297.015 221.813 296.286 222.542 296.103L391.219 253.775C391.948 253.593 392.677 253.957 392.86 254.687C393.042 255.417 392.677 256.147 391.948 256.329L223.272 298.658C223.089 298.84 223.089 298.84 222.907 298.84Z" fill="black"/>
<path d="M89.6063 267.641C82.3122 267.641 80.1239 273.479 84.5004 280.777C89.0592 288.075 98.5416 293.913 105.653 293.913C112.947 293.913 115.136 288.075 110.759 280.777C106.383 273.479 96.9004 267.641 89.6063 267.641ZM97.0828 286.068H95.8063C95.0769 286.068 94.1651 285.521 93.8004 284.791C93.4357 284.061 93.618 283.514 94.3475 283.514H95.6239C96.3534 283.514 97.2651 284.061 97.6298 284.791C97.9945 285.521 97.8122 286.068 97.0828 286.068ZM91.2475 280.777C90.8828 280.047 91.0651 279.5 91.7945 279.5H95.9887C96.7181 279.5 97.6298 280.047 97.9945 280.777C98.3592 281.507 98.1769 282.054 97.4475 282.054H93.2534C92.7063 282.054 91.6122 281.507 91.2475 280.777ZM106.2 286.068H100.912C100.183 286.068 99.271 285.521 98.9063 284.791C98.5416 284.061 98.7239 283.514 99.4533 283.514H104.742C105.471 283.514 106.383 284.061 106.748 284.791C107.112 285.521 106.93 286.068 106.2 286.068ZM103.647 282.054H101.277C100.547 282.054 99.6357 281.507 99.271 280.777C98.9063 280.047 99.0886 279.5 99.818 279.5H102.189C102.918 279.5 103.83 280.047 104.195 280.777C104.559 281.507 104.377 282.054 103.647 282.054ZM101.277 278.04H90.8828C90.1533 278.04 89.2416 277.493 88.8769 276.763C88.5122 276.033 88.6945 275.486 89.4239 275.486H99.818C100.547 275.486 101.459 276.033 101.824 276.763C102.189 277.493 102.006 278.04 101.277 278.04Z" fill="black"/>
</svg>
