<svg width="93" height="49" viewBox="0 0 93 49" fill="none" xmlns="http://www.w3.org/2000/svg">
<g clip-path="url(#clip0)">
<rect x="12" y="23" width="50" height="50" rx="25" fill="#6E57FC" fill-opacity="0.5"/>
<path d="M9.74459 4.0011C9.74367 4.0011 9.74292 4.00034 9.74292 3.99942C9.74202 3.44625 9.2952 3 8.74182 3H2.0011C1.44716 3 1 3.44716 1 4.0011V10.7452C1 11.2991 1.44716 11.7463 2.0011 11.7463H8.74516C9.2991 11.7463 9.74626 11.2991 9.74626 10.7452V4.00277C9.74626 4.00184 9.74551 4.0011 9.74459 4.0011Z" fill="#5C5C5C"/>
<path d="M21.4124 4.0011C21.4124 3.44716 20.9653 3 20.4113 3H13.6706C13.1167 3 12.6695 3.44716 12.6695 4.0011V10.7452C12.6695 11.2991 13.1167 11.7463 13.6706 11.7463H20.4113C20.9653 11.7463 21.4124 11.2991 21.4124 10.7452V4.0011Z" fill="#5C5C5C"/>
<path d="M33.0835 4.0011C33.0825 4.0011 33.0818 4.00034 33.0818 3.99942C33.0809 3.44625 32.6341 3 32.0807 3H25.34C24.786 3 24.3389 3.44716 24.3389 4.0011V10.7452C24.3389 11.2991 24.786 11.7463 25.34 11.7463H32.084C32.638 11.7463 33.0851 11.2991 33.0851 10.7452V4.00277C33.0851 4.00184 33.0844 4.0011 33.0835 4.0011Z" fill="#5C5C5C"/>
<path d="M9.74459 15.734C9.74367 15.734 9.74292 15.7333 9.74292 15.7323C9.74202 15.1792 9.2952 14.7329 8.74182 14.7329H2.0011C1.44716 14.7329 1 15.1801 1 15.734V22.4747C1 23.0287 1.44716 23.4758 2.0011 23.4758H8.74516C9.2991 23.4758 9.74626 23.0287 9.74626 22.4747V15.7357C9.74626 15.7348 9.74551 15.734 9.74459 15.734Z" fill="#5C5C5C"/>
<path d="M21.4124 15.734C21.4124 15.1801 20.9653 14.7329 20.4113 14.7329H13.6706C13.1167 14.7329 12.6695 15.1801 12.6695 15.734V22.4747C12.6695 23.0287 13.1167 23.4758 13.6706 23.4758H20.4113C20.9653 23.4758 21.4124 23.0287 21.4124 22.4747V15.734Z" fill="#5C5C5C"/>
<path d="M33.0835 15.734C33.0825 15.734 33.0818 15.7333 33.0818 15.7323C33.0809 15.1792 32.6341 14.7329 32.0807 14.7329H25.34C24.786 14.7329 24.3389 15.1801 24.3389 15.734V22.4747C24.3389 23.0287 24.786 23.4758 25.34 23.4758H32.084C32.638 23.4758 33.0851 23.0287 33.0851 22.4747V15.7357C33.0851 15.7348 33.0844 15.734 33.0835 15.734Z" fill="#5C5C5C"/>
<path d="M8.74182 26.4623H2.0011C1.44716 26.4623 1 26.9095 1 27.4634V34.2075C1 34.7615 1.44716 35.2086 2.0011 35.2086H8.74516C9.2991 35.2086 9.74626 34.7615 9.74626 34.2075V27.4634C9.74292 26.9128 9.29576 26.4623 8.74182 26.4623Z" fill="#5C5C5C"/>
<path d="M20.4113 26.4623H13.6706C13.1167 26.4623 12.6695 26.9095 12.6695 27.4634V34.2075C12.6695 34.7615 13.1167 35.2086 13.6706 35.2086H20.4113C20.9653 35.2086 21.4124 34.7615 21.4124 34.2075V27.4634C21.4124 26.9128 20.9652 26.4623 20.4113 26.4623Z" fill="#5C5C5C"/>
<path d="M32.0807 26.4623H25.34C24.786 26.4623 24.3389 26.9095 24.3389 27.4634V34.2075C24.3389 34.7615 24.786 35.2086 25.34 35.2086H32.084C32.638 35.2086 33.0851 34.7615 33.0851 34.2075V27.4634C33.0818 26.9128 32.6346 26.4623 32.0807 26.4623Z" fill="#5C5C5C"/>
<path d="M71.3582 36.7217V17.3369C71.3582 16.5989 70.7593 16 70.0213 16H63.3369C62.5989 16 62 16.5989 62 17.3369V46.7483C62 47.4863 62.5989 48.0852 63.3369 48.0852H70.0213C70.7593 48.0852 71.3582 47.4863 71.3582 46.7483V38.727V36.7217Z" fill="#5C5C5C"/>
<path d="M74.7004 48.0852H92.7483C93.4863 48.0852 94.0852 47.4862 94.0852 46.7483V40.0639C94.0852 39.3259 93.4863 38.727 92.7483 38.727H74.7004C73.9624 38.727 73.3635 39.3259 73.3635 40.0639V46.7483C73.3635 47.4862 73.9624 48.0852 74.7004 48.0852Z" fill="#5C5C5C"/>
<path d="M92.7483 16H74.7004C73.9624 16 73.3635 16.5989 73.3635 17.3369V35.3848C73.3635 36.1228 73.9624 36.7217 74.7004 36.7217H92.7483C93.4863 36.7217 94.0852 36.1228 94.0852 35.3848V17.3369C94.0852 16.5989 93.4863 16 92.7483 16Z" fill="#5C5C5C"/>
</g>
<defs>
<clipPath id="clip0">
<rect width="93" height="49" fill="white"/>
</clipPath>
</defs>
</svg>
