<svg width="93" height="49" viewBox="0 0 93 49" fill="none" xmlns="http://www.w3.org/2000/svg">
<g clip-path="url(#clip0)">
<rect x="58" y="-7" width="50" height="50" rx="25" fill="#F8CD5B" fill-opacity="0.6"/>
<path d="M76.0938 35.8438V43.5938C76.0938 44.6215 75.6855 45.6071 74.9588 46.3338C74.2321 47.0605 73.2465 47.4688 72.2188 47.4688H24.75C23.4654 47.4688 22.2333 46.9584 21.325 46.05C20.4166 45.1417 19.9062 43.9096 19.9062 42.625V12.5938C19.9062 11.566 20.3145 10.5804 21.0412 9.85371C21.7679 9.12701 22.7535 8.71875 23.7812 8.71875H38.3125V16.4688C38.3117 19.0133 38.8124 21.5331 39.7858 23.8841C40.7592 26.2352 42.1863 28.3714 43.9856 30.1706C45.7849 31.9699 47.9211 33.3971 50.2721 34.3705C52.6231 35.3439 55.1429 35.8445 57.6875 35.8438H76.0938Z" fill="#F5F5F5"/>
<path d="M57.6875 47.4688H38.3125C37.8593 48.9796 37.071 50.3686 36.0064 51.5325C34.9418 52.6964 33.6284 53.6051 32.1638 54.1909L29.5938 55.2188H66.4062L63.8362 54.1909C62.3716 53.6051 61.0582 52.6964 59.9936 51.5325C58.929 50.3686 58.1407 48.9796 57.6875 47.4688Z" fill="#5C5C5C"/>
<path d="M44.125 6.78125H49.9375V9.6875C49.9375 10.4583 49.6313 11.1975 49.0863 11.7425C48.5413 12.2876 47.802 12.5938 47.0312 12.5938C46.2605 12.5938 45.5212 12.2876 44.9762 11.7425C44.4312 11.1975 44.125 10.4583 44.125 9.6875V6.78125Z" fill="#F5F5F5"/>
<path d="M62.4247 17.0694L57.4744 18.0575C56.3647 18.2821 55.2111 18.0853 54.2388 17.5053L51.9913 16.1491C51.2832 15.7238 50.4728 15.4994 49.6469 15.5C48.9146 15.5002 48.1932 15.3226 47.5447 14.9824C46.8962 14.6422 46.34 14.1496 45.924 13.547C45.9715 13.547 46.015 13.5625 46.0625 13.5625C46.4692 13.5618 46.8711 13.4751 47.2419 13.3082C47.6127 13.1412 47.944 12.8977 48.2141 12.5938H43.1563L37.3438 13.5625L35.0478 19.6947C34.9022 20.0832 34.907 20.5122 35.0612 20.8974C35.2154 21.2826 35.508 21.5963 35.8815 21.777C36.255 21.9577 36.6826 21.9924 37.0803 21.8742C37.4781 21.756 37.8173 21.4935 38.0316 21.1381L40.25 17.4375H43.1563V22.2812H50.9063V18.0188L54.7813 20.3438L60.865 19.5881C61.1467 19.5525 61.4169 19.4543 61.6558 19.3008C61.8947 19.1473 62.0963 18.9423 62.2458 18.7009C62.3953 18.4594 62.489 18.1877 62.5199 17.9054C62.5509 17.6231 62.5183 17.3375 62.4247 17.0694Z" fill="#F5F5F5"/>
<path d="M50.8501 24.6683C51.1079 25.271 51.5881 25.7511 52.1908 26.009L53.0084 26.3597C53.5541 26.5963 54.0346 26.9612 54.409 27.4233C54.7835 27.8854 55.0408 28.4312 55.1591 29.0141C55.2763 29.6013 55.5353 30.151 55.9135 30.6154C56.2917 31.0797 56.7777 31.4445 57.3291 31.6781L57.6875 34.875L53.8125 33.9062L52.8438 28.0938L48.9688 26.1562L46.0625 31.9688L36.375 32.9375L37.1791 29.0625L42.1875 28.0938L43.1562 22.2812H50.9062L50.7125 23.0562C50.5806 23.5941 50.6275 24.1604 50.8462 24.6692L50.8501 24.6683Z" fill="#F5F5F5"/>
<path d="M53.8125 33.9062H56.7188C57.7465 33.9062 58.7321 34.3145 59.4588 35.0412C60.1855 35.7679 60.5938 36.7535 60.5938 37.7812H53.8125V33.9062Z" fill="#5C5C5C"/>
<path d="M37.3438 29.0625V31.9688C37.3438 32.9965 36.9355 33.9821 36.2088 34.7088C35.4821 35.4355 34.4965 35.8438 33.4688 35.8438V29.0625H37.3438Z" fill="#5C5C5C"/>
<path d="M38.3125 43.5938C39.3826 43.5938 40.25 42.7263 40.25 41.6562C40.25 40.5862 39.3826 39.7188 38.3125 39.7188C37.2424 39.7188 36.375 40.5862 36.375 41.6562C36.375 42.7263 37.2424 43.5938 38.3125 43.5938Z" fill="#5C5C5C"/>
<path d="M68.3438 32.9375H72.2188V36.8125H68.3438V32.9375Z" fill="#5C5C5C"/>
<path d="M68.3438 29.0625H72.2188V32.9375H68.3438V29.0625Z" fill="#5C5C5C"/>
<path d="M68.3438 25.1875H72.2188V29.0625H68.3438V25.1875Z" fill="#F5F5F5"/>
<path d="M68.3438 21.3125H72.2188V25.1875H68.3438V21.3125Z" fill="#5C5C5C"/>
<path d="M72.2188 7.75H50.9062V2.90625C50.9062 2.64932 50.8042 2.40292 50.6225 2.22124C50.4408 2.03956 50.1944 1.9375 49.9375 1.9375H48C46.7158 1.93904 45.4847 2.44985 44.5766 3.3579C43.6686 4.26595 43.1578 5.49708 43.1562 6.78125V7.75H23.7812C22.4971 7.75154 21.2659 8.26235 20.3579 9.1704C19.4499 10.0784 18.939 11.3096 18.9375 12.5938V42.625C18.939 44.1661 19.5519 45.6436 20.6416 46.7334C21.7314 47.8231 23.2089 48.436 24.75 48.4375H36.903C35.8918 50.6515 34.0655 52.39 31.8044 53.2909L29.4077 54.25H27.6562C26.8855 54.25 26.1462 54.5562 25.6012 55.1012C25.0562 55.6463 24.75 56.3855 24.75 57.1562V59.0938C24.75 59.3507 24.8521 59.5971 25.0337 59.7788C25.2154 59.9604 25.4618 60.0625 25.7188 60.0625H70.2812C70.5382 60.0625 70.7846 59.9604 70.9663 59.7788C71.1479 59.5971 71.25 59.3507 71.25 59.0938V57.1562C71.25 56.3855 70.9438 55.6463 70.3988 55.1012C69.8537 54.5562 69.1145 54.25 68.3438 54.25H66.5923L64.1956 53.2909C61.9345 52.39 60.1082 50.6515 59.097 48.4375H72.2188C73.5029 48.436 74.7341 47.9251 75.6421 47.0171C76.5501 46.1091 77.061 44.8779 77.0625 43.5938V12.5938C77.061 11.3096 76.5501 10.0784 75.6421 9.1704C74.7341 8.26235 73.5029 7.75154 72.2188 7.75ZM59.4593 36.8125H54.7812V34.875H56.7188C57.3196 34.8757 57.9056 35.0623 58.3963 35.4092C58.8869 35.7561 59.2582 36.2463 59.4593 36.8125ZM54.633 32.9375L53.7989 27.9339C53.7738 27.7832 53.7134 27.6406 53.6227 27.5177C53.5319 27.3948 53.4134 27.2951 53.2768 27.2267L49.4018 25.2892C49.2879 25.2323 49.164 25.1984 49.037 25.1894C48.91 25.1804 48.7826 25.1965 48.6618 25.2368C48.5411 25.2771 48.4295 25.3408 48.3334 25.4243C48.2373 25.5077 48.1585 25.6093 48.1017 25.7232L45.4357 31.0581L38.3125 31.775V29.8375L42.3706 29.0528C42.5652 29.0159 42.7438 28.9203 42.8824 28.7788C43.0209 28.6373 43.1128 28.4567 43.1456 28.2613L43.9768 23.25H50.6156L55.8091 26.7123L56.4979 32.9375H54.633ZM36.375 30.0312V31.9688C36.3743 32.5696 36.1877 33.1556 35.8408 33.6462C35.4939 34.1369 35.0037 34.5082 34.4375 34.7093V30.0312H36.375ZM51.4052 17.1885C51.2582 17.1002 51.0904 17.0525 50.9189 17.0503C50.7475 17.048 50.5785 17.0913 50.4293 17.1757C50.28 17.2602 50.1559 17.3827 50.0695 17.5308C49.9831 17.6789 49.9375 17.8473 49.9375 18.0188V21.3125H44.125V17.4375C44.125 17.1806 44.0229 16.9342 43.8413 16.7525C43.6596 16.5708 43.4132 16.4688 43.1562 16.4688H40.25C40.0828 16.4688 39.9185 16.5121 39.773 16.5944C39.6276 16.6767 39.5059 16.7953 39.4198 16.9386L37.2004 20.6344C37.1186 20.7697 36.9932 20.8733 36.8448 20.928C36.6964 20.9828 36.5338 20.9855 36.3837 20.9357C36.2948 20.9062 36.2128 20.859 36.1426 20.7971C36.0724 20.7352 36.0153 20.6598 35.9749 20.5753C35.9345 20.4908 35.9115 20.3991 35.9073 20.3055C35.9032 20.212 35.9179 20.1186 35.9507 20.0308L38.0538 14.4227L43.2367 13.5625H50.5662L55.1445 17.2253C55.248 17.3081 55.3673 17.3688 55.4951 17.4036C55.6229 17.4384 55.7564 17.4467 55.8876 17.4278L60.4959 16.7691C60.6284 16.7499 60.7635 16.7597 60.892 16.7976C61.0204 16.8356 61.1391 16.9009 61.2399 16.989C61.3419 17.076 61.4237 17.1844 61.4794 17.3064C61.5351 17.4284 61.5635 17.5611 61.5625 17.6952C61.5622 17.9228 61.4789 18.1426 61.3282 18.3132C61.1775 18.4839 60.9698 18.5938 60.7439 18.6223L54.9934 19.3411L51.4052 17.1885ZM45.0938 9.6875V7.75H48.9688V9.6875C48.9688 10.2014 48.7646 10.6942 48.4013 11.0575C48.0379 11.4209 47.5451 11.625 47.0312 11.625C46.5174 11.625 46.0246 11.4209 45.6612 11.0575C45.2979 10.6942 45.0938 10.2014 45.0938 9.6875ZM48 3.875H48.9688V5.8125H45.2594C45.4605 5.24626 45.8318 4.75609 46.3225 4.40921C46.8132 4.06233 47.3991 3.87573 48 3.875ZM69.3125 57.1562V58.125H26.6875V57.1562C26.6875 56.8993 26.7896 56.6529 26.9712 56.4712C27.1529 56.2896 27.3993 56.1875 27.6562 56.1875H68.3438C68.6007 56.1875 68.8471 56.2896 69.0288 56.4712C69.2104 56.6529 69.3125 56.8993 69.3125 57.1562ZM61.7872 54.25H34.2127C36.4258 52.9139 38.1178 50.8638 39.01 48.4375H56.99C57.8822 50.8638 59.5742 52.9139 61.7872 54.25ZM75.125 43.5938C75.125 44.3645 74.8188 45.1037 74.2738 45.6488C73.7287 46.1938 72.9895 46.5 72.2188 46.5H24.75C23.7223 46.5 22.7367 46.0917 22.01 45.365C21.2833 44.6383 20.875 43.6527 20.875 42.625V12.5938C20.875 11.823 21.1812 11.0837 21.7262 10.5387C22.2712 9.99369 23.0105 9.6875 23.7812 9.6875H43.1562C43.1603 10.3697 43.3462 11.0386 43.6949 11.625H43.1562C43.103 11.6247 43.0498 11.6292 42.9974 11.6386L37.1849 12.6073C37.017 12.6351 36.8595 12.7065 36.728 12.8145C36.5965 12.9225 36.4958 13.0632 36.436 13.2225L34.1362 19.3547C34.0122 19.6863 33.9563 20.0395 33.9718 20.3932C33.9873 20.747 34.0739 21.0939 34.2264 21.4135C34.3789 21.733 34.5943 22.0185 34.8595 22.253C35.1248 22.4875 35.4347 22.6661 35.7705 22.7782C36.339 22.9647 36.9539 22.9533 37.5151 22.7457C38.0762 22.5381 38.5505 22.1467 38.8608 21.6351L40.7983 18.4062H42.1875V22.2008L41.3428 27.2703L37.0802 28.0938H33.4688C33.2118 28.0938 32.9654 28.1958 32.7837 28.3775C32.6021 28.5592 32.5 28.8056 32.5 29.0625V35.8438C32.5 36.1007 32.6021 36.3471 32.7837 36.5288C32.9654 36.7104 33.2118 36.8125 33.4688 36.8125C34.438 36.8106 35.3845 36.518 36.1856 35.9724C36.9868 35.4268 37.6059 34.6534 37.9628 33.7522L46.1594 32.9327C46.3221 32.9164 46.4781 32.8592 46.6128 32.7663C46.7474 32.6735 46.8564 32.5481 46.9295 32.4018L49.4018 27.4563L51.9719 28.7399L52.8438 33.9867V37.7812C52.8438 38.0382 52.9458 38.2846 53.1275 38.4663C53.3092 38.6479 53.5556 38.75 53.8125 38.75H60.5938C60.8507 38.75 61.0971 38.6479 61.2788 38.4663C61.4604 38.2846 61.5625 38.0382 61.5625 37.7812C61.5603 36.8092 61.2657 35.8603 60.7169 35.058C60.1682 34.2557 59.3908 33.637 58.4858 33.2824L57.6817 26.0497C57.6661 25.9091 57.62 25.7737 57.5466 25.6528C57.4731 25.532 57.3741 25.4287 57.2564 25.3503L51.875 21.763V19.7286L54.2823 21.173C54.468 21.2852 54.6862 21.3313 54.9014 21.3038L60.9842 20.5443C61.3619 20.4989 61.7269 20.3789 62.0578 20.1913C62.3888 20.0036 62.6792 19.7521 62.9122 19.4513C63.1452 19.1505 63.3161 18.8065 63.415 18.4391C63.5139 18.0717 63.5388 17.6883 63.4883 17.3112C63.4378 16.9341 63.3129 16.5708 63.1208 16.2424C62.9287 15.914 62.6733 15.627 62.3694 15.3981C62.0655 15.1692 61.7192 15.003 61.3505 14.909C60.9818 14.8151 60.5981 14.7954 60.2218 14.8509L56.028 15.4496L51.5117 11.8362C51.3397 11.6991 51.1262 11.6246 50.9062 11.625H50.3676C50.7163 11.0386 50.9022 10.3697 50.9062 9.6875H72.2188C72.9895 9.6875 73.7287 9.99369 74.2738 10.5387C74.8188 11.0837 75.125 11.823 75.125 12.5938V43.5938Z" fill="#5C5C5C"/>
<path d="M68.3438 40.6876H41.0405C40.8432 40.1213 40.4746 39.6304 39.9858 39.2831C39.497 38.9358 38.9122 38.7491 38.3125 38.7491C37.7128 38.7491 37.128 38.9358 36.6392 39.2831C36.1504 39.6304 35.7818 40.1213 35.5845 40.6876H29.5938C29.3368 40.6876 29.0904 40.7896 28.9087 40.9713C28.7271 41.153 28.625 41.3994 28.625 41.6563C28.625 41.9132 28.7271 42.1596 28.9087 42.3413C29.0904 42.523 29.3368 42.6251 29.5938 42.6251H35.5845C35.7818 43.1913 36.1504 43.6822 36.6392 44.0295C37.128 44.3769 37.7128 44.5635 38.3125 44.5635C38.9122 44.5635 39.497 44.3769 39.9858 44.0295C40.4746 43.6822 40.8432 43.1913 41.0405 42.6251H68.3438C68.6007 42.6251 68.8471 42.523 69.0288 42.3413C69.2104 42.1596 69.3125 41.9132 69.3125 41.6563C69.3125 41.3994 69.2104 41.153 69.0288 40.9713C68.8471 40.7896 68.6007 40.6876 68.3438 40.6876ZM38.3125 42.6251C38.1209 42.6251 37.9336 42.5682 37.7743 42.4618C37.615 42.3554 37.4908 42.2041 37.4175 42.027C37.3442 41.85 37.325 41.6552 37.3624 41.4673C37.3997 41.2794 37.492 41.1068 37.6275 40.9713C37.763 40.8358 37.9356 40.7436 38.1235 40.7062C38.3114 40.6688 38.5062 40.688 38.6832 40.7613C38.8602 40.8346 39.0115 40.9588 39.118 41.1181C39.2244 41.2774 39.2812 41.4647 39.2812 41.6563C39.2812 41.9132 39.1792 42.1596 38.9975 42.3413C38.8158 42.523 38.5694 42.6251 38.3125 42.6251Z" fill="#5C5C5C"/>
<path d="M72.2188 20.3438H68.3438C68.0868 20.3438 67.8404 20.4458 67.6587 20.6275C67.4771 20.8092 67.375 21.0556 67.375 21.3125V36.8125C67.375 37.0694 67.4771 37.3158 67.6587 37.4975C67.8404 37.6792 68.0868 37.7812 68.3438 37.7812H72.2188C72.4757 37.7812 72.7221 37.6792 72.9038 37.4975C73.0854 37.3158 73.1875 37.0694 73.1875 36.8125V21.3125C73.1875 21.0556 73.0854 20.8092 72.9038 20.6275C72.7221 20.4458 72.4757 20.3438 72.2188 20.3438ZM71.25 28.0938H69.3125V26.1562H71.25V28.0938ZM69.3125 30.0312H71.25V31.9688H69.3125V30.0312ZM69.3125 22.2812H71.25V24.2188H69.3125V22.2812ZM71.25 35.8438H69.3125V33.9062H71.25V35.8438Z" fill="#5C5C5C"/>
<path d="M23.7812 20.3438H27.6562C27.9132 20.3438 28.1596 20.2417 28.3413 20.06C28.5229 19.8783 28.625 19.6319 28.625 19.375C28.625 19.1181 28.5229 18.8717 28.3413 18.69C28.1596 18.5083 27.9132 18.4062 27.6562 18.4062H23.7812C23.5243 18.4062 23.2779 18.5083 23.0962 18.69C22.9146 18.8717 22.8125 19.1181 22.8125 19.375C22.8125 19.6319 22.9146 19.8783 23.0962 20.06C23.2779 20.2417 23.5243 20.3438 23.7812 20.3438Z" fill="#5C5C5C"/>
<path d="M23.7812 24.2188H27.6562C27.9132 24.2188 28.1596 24.1167 28.3413 23.935C28.5229 23.7533 28.625 23.5069 28.625 23.25C28.625 22.9931 28.5229 22.7467 28.3413 22.565C28.1596 22.3833 27.9132 22.2812 27.6562 22.2812H23.7812C23.5243 22.2812 23.2779 22.3833 23.0962 22.565C22.9146 22.7467 22.8125 22.9931 22.8125 23.25C22.8125 23.5069 22.9146 23.7533 23.0962 23.935C23.2779 24.1167 23.5243 24.2188 23.7812 24.2188Z" fill="#5C5C5C"/>
<path d="M27.6562 26.1562H23.7812C23.5243 26.1562 23.2779 26.2583 23.0962 26.44C22.9146 26.6217 22.8125 26.8681 22.8125 27.125C22.8125 27.3819 22.9146 27.6283 23.0962 27.81C23.2779 27.9917 23.5243 28.0938 23.7812 28.0938H27.6562C27.9132 28.0938 28.1596 27.9917 28.3413 27.81C28.5229 27.6283 28.625 27.3819 28.625 27.125C28.625 26.8681 28.5229 26.6217 28.3413 26.44C28.1596 26.2583 27.9132 26.1562 27.6562 26.1562Z" fill="#5C5C5C"/>
<path d="M26.6875 30.0312H23.7812C23.5243 30.0312 23.2779 30.1333 23.0962 30.315C22.9146 30.4967 22.8125 30.7431 22.8125 31C22.8125 31.2569 22.9146 31.5033 23.0962 31.685C23.2779 31.8667 23.5243 31.9688 23.7812 31.9688H26.6875C26.9444 31.9688 27.1908 31.8667 27.3725 31.685C27.5542 31.5033 27.6562 31.2569 27.6562 31C27.6562 30.7431 27.5542 30.4967 27.3725 30.315C27.1908 30.1333 26.9444 30.0312 26.6875 30.0312Z" fill="#5C5C5C"/>
<path d="M25.7188 33.9062H23.7812C23.5243 33.9062 23.2779 34.0083 23.0962 34.19C22.9146 34.3717 22.8125 34.6181 22.8125 34.875C22.8125 35.1319 22.9146 35.3783 23.0962 35.56C23.2779 35.7417 23.5243 35.8438 23.7812 35.8438H25.7188C25.9757 35.8438 26.2221 35.7417 26.4038 35.56C26.5854 35.3783 26.6875 35.1319 26.6875 34.875C26.6875 34.6181 26.5854 34.3717 26.4038 34.19C26.2221 34.0083 25.9757 33.9062 25.7188 33.9062Z" fill="#5C5C5C"/>
</g>
<defs>
<clipPath id="clip0">
<rect width="93" height="49" fill="white"/>
</clipPath>
</defs>
</svg>
