<svg width="93" height="49" viewBox="0 0 93 49" fill="none" xmlns="http://www.w3.org/2000/svg">
<g clip-path="url(#clip0)">
<rect x="-14" y="2" width="50" height="50" rx="25" fill="#7AF3A7" fill-opacity="0.5"/>
<path d="M55.5107 46.1944H17.4007C16.0747 46.1944 15 45.1197 15 43.7937V18.1869C15 16.8609 16.0747 15.7863 17.4007 15.7863H55.5107C56.8367 15.7863 57.9114 16.8609 57.9114 18.1869V43.7937C57.9114 45.1193 56.8367 46.1944 55.5107 46.1944Z" fill="#F5F5F5"/>
<path d="M55.5107 44.8901H17.4007C16.0747 44.8901 15 43.8155 15 42.4895V16.8826C15 15.5567 16.0747 14.482 17.4007 14.482H55.5107C56.8367 14.482 57.9114 15.5567 57.9114 16.8826V42.4895C57.9114 43.8155 56.8367 44.8901 55.5107 44.8901Z" fill="white"/>
<path d="M55.5107 14.482H17.4007C16.0747 14.482 15 15.5571 15 16.8826V21.184H57.9114V16.8826C57.9114 15.5567 56.8367 14.482 55.5107 14.482Z" fill="#323232"/>
<path d="M19.9074 17.3518C19.9074 17.8939 19.4679 18.3334 18.9257 18.3334C18.3836 18.3334 17.9441 17.8939 17.9441 17.3518C17.9441 16.8096 18.3836 16.3701 18.9257 16.3701C19.4679 16.3701 19.9074 16.8096 19.9074 17.3518Z" fill="white"/>
<path d="M15 19.8033H57.9114V21.1836H15V19.8033Z" fill="#5C5C5C"/>
<path d="M55.5107 14.482H35.0886V34.0511C35.0886 35.3771 36.1633 36.4518 37.4893 36.4518H57.9114V16.8826C57.9114 15.5567 56.8367 14.482 55.5107 14.482Z" fill="#F5F5F5"/>
<path d="M75.5998 34.7123H37.4893C36.1633 34.7123 35.0886 33.6377 35.0886 32.3117V6.70485C35.0886 5.37889 36.1633 4.3042 37.4893 4.3042H75.5993C76.9253 4.3042 78 5.37889 78 6.70485V32.3117C78.0004 33.6377 76.9253 34.7123 75.5998 34.7123Z" fill="#868686"/>
<path d="M75.5998 33.4081H37.4893C36.1633 33.4081 35.0886 32.3335 35.0886 31.0075V5.40066C35.0886 4.07469 36.1633 3 37.4893 3H75.5993C76.9253 3 78 4.07469 78 5.40066V31.0075C78.0004 32.3335 76.9253 33.4081 75.5998 33.4081Z" fill="#5C5C5C"/>
<path d="M75.5998 3H37.4893C36.1633 3 35.0886 4.07469 35.0886 5.40066V9.70201H78V5.40066C78.0004 4.07512 76.9253 3 75.5998 3Z" fill="#5C5C5C"/>
<path d="M39.9964 5.8702C39.9964 6.41233 39.5569 6.85185 39.0148 6.85185C38.4727 6.85185 38.0331 6.41233 38.0331 5.8702C38.0331 5.32808 38.4727 4.88855 39.0148 4.88855C39.5569 4.88855 39.9964 5.32808 39.9964 5.8702Z" fill="#323232"/>
<path d="M35.0886 8.32172H78V9.70203H35.0886V8.32172Z" fill="#323232"/>
<path d="M24.1243 41.3905H19.0005C18.417 41.3905 17.9445 40.9175 17.9445 40.3345C17.9445 39.7515 18.4175 39.2785 19.0005 39.2785H24.1239C24.7073 39.2785 25.1799 39.7515 25.1799 40.3345C25.1803 40.9179 24.7073 41.3905 24.1243 41.3905Z" fill="#F5F5F5"/>
<path d="M31.4785 37.1495H19.0005C18.417 37.1495 17.9445 36.6765 17.9445 36.0935C17.9445 35.5101 18.4175 35.0375 19.0005 35.0375H31.4785C32.0619 35.0375 32.5345 35.5105 32.5345 36.0935C32.5345 36.6765 32.0619 37.1495 31.4785 37.1495Z" fill="#F5F5F5"/>
<path d="M25.3199 32.9082H19.0005C18.417 32.9082 17.9445 32.4356 17.9445 31.8522C17.9445 31.2688 18.4175 30.7962 19.0005 30.7962H25.3194C25.9029 30.7962 26.3754 31.2692 26.3754 31.8522C26.3759 32.4356 25.9029 32.9082 25.3199 32.9082Z" fill="#F5F5F5"/>
<path d="M21.5161 28.6672H19.0011C18.4177 28.6672 17.9451 28.1942 17.9451 27.6112C17.9451 27.0282 18.4181 26.5552 19.0011 26.5552H21.5161C22.0995 26.5552 22.5721 27.0282 22.5721 27.6112C22.5721 28.1947 22.0991 28.6672 21.5161 28.6672Z" fill="#F5F5F5"/>
<path d="M31.2794 28.6672H25.8195C25.2361 28.6672 24.7635 28.1942 24.7635 27.6112C24.7635 27.0282 25.2365 26.5552 25.8195 26.5552H31.279C31.862 26.5552 32.335 27.0282 32.335 27.6112C32.3354 28.1947 31.8624 28.6672 31.2794 28.6672Z" fill="#F5F5F5"/>
<path d="M49.3395 41.3905H28.4101C27.8267 41.3905 27.3541 40.9175 27.3541 40.3345C27.3541 39.7515 27.8271 39.2785 28.4101 39.2785H49.3395C49.923 39.2785 50.3955 39.7515 50.3955 40.3345C50.3955 40.9179 49.9225 41.3905 49.3395 41.3905Z" fill="#F5F5F5"/>
<path d="M54.9199 22.6317C54.9299 22.6178 54.9395 22.6039 54.9482 22.5896C54.9499 22.587 54.9516 22.5844 54.9534 22.5817C54.9621 22.5678 54.9703 22.5539 54.9782 22.54C54.9795 22.5374 54.9808 22.5352 54.9821 22.5326C54.989 22.52 54.9956 22.507 55.0021 22.4939C55.0034 22.4918 55.0042 22.4896 55.0055 22.4874C55.0125 22.4731 55.0186 22.4587 55.0247 22.4444C55.026 22.4413 55.0269 22.4387 55.0282 22.4357C55.0342 22.4209 55.0399 22.4061 55.0451 22.3913V22.3909C55.0503 22.3761 55.0551 22.3609 55.0595 22.3461C55.0603 22.3435 55.0612 22.3409 55.0616 22.3379C55.066 22.3231 55.0695 22.3083 55.0729 22.2935C55.0734 22.2913 55.0738 22.2896 55.0742 22.2874C55.0773 22.2735 55.0799 22.2592 55.0825 22.2452C55.0829 22.2435 55.0829 22.2418 55.0834 22.24C55.0855 22.2253 55.0877 22.2109 55.0895 22.1961C55.0899 22.1926 55.0903 22.1896 55.0903 22.1861C55.0934 22.1561 55.0947 22.1261 55.0951 22.0961C55.0951 22.0931 55.0951 22.0905 55.0951 22.0874C55.0951 22.0731 55.0947 22.0583 55.0938 22.044C55.0938 22.0414 55.0934 22.0392 55.0934 22.0366C55.0925 22.0227 55.0912 22.0087 55.0899 21.9948C55.0899 21.9935 55.0895 21.9922 55.0895 21.9909C55.0877 21.9761 55.0855 21.9614 55.0834 21.9466C55.0829 21.944 55.0825 21.9414 55.0821 21.9388C55.0795 21.924 55.0768 21.9092 55.0734 21.8944C55.0703 21.8796 55.0664 21.8653 55.0625 21.8509C55.0616 21.8483 55.0612 21.8462 55.0603 21.8435C55.0564 21.8292 55.0521 21.8153 55.0477 21.8014C55.0473 21.7996 55.0464 21.7979 55.046 21.7962C55.036 21.767 55.0251 21.7388 55.0125 21.7105C55.0116 21.7088 55.0108 21.707 55.0103 21.7053C54.9973 21.677 54.9829 21.6497 54.9677 21.6227C54.9673 21.6218 54.9664 21.6205 54.966 21.6197C54.9582 21.6062 54.9495 21.5927 54.9412 21.5792C54.9412 21.5788 54.9408 21.5788 54.9408 21.5784C54.9234 21.5514 54.9043 21.5253 54.8838 21.5005C54.8834 21.4997 54.883 21.4992 54.8825 21.4988C54.8308 21.4358 54.7712 21.3792 54.7038 21.3314C54.7034 21.3314 54.7034 21.331 54.703 21.331C54.5552 21.2258 54.3721 21.1619 54.1656 21.1619H53.6574V16.431C53.6574 16.0067 54.0022 15.6619 54.4265 15.6619H56.1415C56.5658 15.6619 56.9106 16.0067 56.9106 16.431C56.9106 16.6636 56.9667 16.8836 57.0658 17.077C57.0919 17.1279 57.121 17.177 57.1528 17.2244C57.1654 17.2431 57.1788 17.2618 57.1923 17.28C57.2262 17.3257 57.2632 17.3692 57.3023 17.41C57.318 17.4266 57.334 17.4426 57.3506 17.4583C57.3836 17.4896 57.4179 17.5196 57.4536 17.5474C57.4627 17.5544 57.4714 17.5613 57.4805 17.5683C57.7175 17.7452 58.0114 17.8504 58.3296 17.8504C59.1134 17.8504 59.749 17.2148 59.749 16.431C59.749 14.4416 58.1309 12.8235 56.1415 12.8235H54.4265C52.4371 12.8235 50.819 14.4416 50.819 16.431V21.1619H50.1925C49.8912 21.1619 49.6404 21.2979 49.4752 21.5001L49.4747 21.5005C49.4543 21.5257 49.4347 21.5523 49.4169 21.5792L49.4165 21.5797C49.4078 21.5931 49.3991 21.607 49.3908 21.6205C49.3904 21.621 49.3904 21.6214 49.39 21.6218C49.3739 21.6492 49.3595 21.6775 49.3461 21.7066C49.3456 21.7079 49.3452 21.7088 49.3448 21.7101C49.3317 21.7388 49.32 21.7688 49.31 21.7988C49.3095 21.7992 49.3095 21.7996 49.3095 21.8001C49.3048 21.8149 49.3 21.8301 49.2956 21.8453C49.2952 21.8466 49.2952 21.8475 49.2948 21.8488C49.2865 21.8788 49.28 21.9088 49.2748 21.9392C49.2743 21.9414 49.2739 21.9435 49.2735 21.9457C49.2708 21.9609 49.2687 21.9757 49.2674 21.9909V21.9927C49.2656 22.0074 49.2643 22.0227 49.2635 22.0374C49.2635 22.0392 49.263 22.0409 49.263 22.0427C49.2621 22.0574 49.2617 22.0727 49.2617 22.0874V22.0948C49.2617 22.1248 49.2635 22.1553 49.2665 22.1857L49.2674 22.1948C49.2691 22.2096 49.2708 22.2244 49.2735 22.2396C49.2739 22.2413 49.2739 22.2431 49.2743 22.2448C49.2769 22.2592 49.2795 22.2731 49.2826 22.287C49.283 22.2892 49.2835 22.2913 49.2839 22.2931C49.2874 22.3079 49.2908 22.3226 49.2952 22.3374C49.2961 22.34 49.2969 22.3431 49.2974 22.3457C49.3013 22.36 49.3061 22.3739 49.3108 22.3883C49.3113 22.3892 49.3117 22.3905 49.3117 22.3913C49.3169 22.4057 49.3226 22.4205 49.3282 22.4348C49.3295 22.4378 49.3304 22.4404 49.3317 22.4435C49.3378 22.4578 49.3439 22.4722 49.3508 22.4865C49.3517 22.4887 49.353 22.4904 49.3539 22.4926C49.3604 22.5057 49.3674 22.5187 49.3743 22.5317C49.3756 22.5339 49.3769 22.5361 49.3778 22.5387C49.3856 22.5526 49.3934 22.5661 49.4021 22.58C49.4039 22.583 49.406 22.5861 49.4082 22.5891C49.4174 22.603 49.4265 22.617 49.4361 22.6304L51.4228 25.4076C51.7584 25.8771 52.4223 25.921 52.8197 25.5397L52.8205 25.5389C52.8614 25.4997 52.8992 25.4558 52.9336 25.4076L54.9199 22.6317Z" fill="#868686"/>
<path d="M63.7365 23.3542L63.737 23.3538C63.7531 23.326 63.7678 23.2977 63.7813 23.2686L63.7826 23.266C63.7957 23.2369 63.8074 23.2069 63.8178 23.1764C63.8178 23.176 63.8183 23.1756 63.8183 23.1756C63.8235 23.1604 63.8278 23.1456 63.8322 23.1304C63.8326 23.1295 63.8326 23.1282 63.8331 23.1273C63.8413 23.0973 63.8478 23.0673 63.8531 23.0365C63.8535 23.0343 63.8539 23.0321 63.8544 23.0295C63.857 23.0143 63.8591 22.9995 63.8609 22.9843C63.8609 22.9838 63.8609 22.9834 63.8609 22.983C63.8626 22.9682 63.8639 22.953 63.8648 22.9378C63.8648 22.936 63.8648 22.9343 63.8652 22.9325C63.8661 22.9178 63.8665 22.9025 63.8665 22.8873C63.8665 22.8847 63.8665 22.8826 63.8665 22.8799C63.8665 22.8499 63.8648 22.8195 63.8618 22.7891C63.8613 22.786 63.8613 22.783 63.8609 22.7799C63.8591 22.7652 63.8574 22.7504 63.8548 22.7352C63.8544 22.7334 63.8544 22.7317 63.8539 22.73C63.8513 22.716 63.8487 22.7017 63.8457 22.6878C63.8452 22.6856 63.8448 22.6839 63.8444 22.6817C63.8409 22.6669 63.8374 22.6521 63.8331 22.6374C63.8322 22.6347 63.8313 22.6317 63.8305 22.6291C63.8265 22.6147 63.8218 22.6008 63.817 22.5865C63.8165 22.5856 63.8165 22.5843 63.8161 22.5834C63.8109 22.5691 63.8052 22.5543 63.7996 22.54C63.7983 22.5369 63.7974 22.5343 63.7961 22.5313C63.79 22.5169 63.7835 22.5026 63.777 22.4882C63.7761 22.4861 63.7748 22.4843 63.7739 22.4822C63.7674 22.4691 63.7609 22.4556 63.7535 22.4426C63.7522 22.4404 63.7509 22.4378 63.7496 22.4356C63.7418 22.4217 63.7339 22.4082 63.7252 22.3948C63.7235 22.3917 63.7213 22.3887 63.7192 22.3856C63.71 22.3717 63.7009 22.3578 63.6913 22.3443L61.7046 19.5672C61.3689 19.0977 60.7051 19.0538 60.3077 19.435C60.3073 19.4355 60.3073 19.4355 60.3069 19.4359C60.266 19.475 60.2282 19.5189 60.1938 19.5672L58.207 22.3443C58.197 22.3582 58.1879 22.3726 58.1788 22.3865C58.177 22.3891 58.1753 22.3917 58.1736 22.3943C58.1649 22.4082 58.1566 22.4222 58.1484 22.4365C58.1475 22.4382 58.1462 22.4404 58.1453 22.4422C58.1379 22.4556 58.131 22.4695 58.124 22.483C58.1231 22.4848 58.1223 22.4865 58.1214 22.4878C58.1144 22.5021 58.1079 22.5165 58.1018 22.5313C58.1005 22.5339 58.0997 22.5369 58.0984 22.54C58.0923 22.5548 58.0866 22.5695 58.0814 22.5843V22.5848C58.0762 22.5995 58.0714 22.6147 58.0671 22.6295C58.0662 22.6321 58.0653 22.6352 58.0645 22.6378C58.0605 22.6526 58.0566 22.6674 58.0531 22.6821C58.0527 22.6843 58.0523 22.686 58.0518 22.6882C58.0488 22.7021 58.0462 22.7165 58.0436 22.7304C58.0431 22.7321 58.0431 22.7339 58.0427 22.7356C58.0401 22.7504 58.0384 22.7656 58.0366 22.7804C58.0362 22.7834 58.0362 22.786 58.0358 22.7886C58.034 22.8039 58.0327 22.8186 58.0323 22.8339V22.8356C58.0314 22.8504 58.0314 22.8647 58.031 22.8795V22.8882C58.031 22.903 58.0314 22.9173 58.0323 22.9317C58.0323 22.9343 58.0327 22.9365 58.0327 22.9391C58.0336 22.953 58.0349 22.9669 58.0362 22.9812C58.0362 22.9825 58.0366 22.9838 58.0366 22.9851C58.0384 23.0004 58.0405 23.0156 58.0431 23.0304C58.0436 23.0321 58.0436 23.0343 58.044 23.0365C58.0492 23.0669 58.0558 23.0969 58.064 23.1264C58.0644 23.1282 58.0649 23.1299 58.0653 23.1317C58.0692 23.1464 58.074 23.1608 58.0788 23.1756C58.0792 23.1764 58.0792 23.1777 58.0797 23.1786C58.0897 23.2086 58.1014 23.2382 58.1144 23.2669C58.1149 23.2677 58.1153 23.2686 58.1157 23.2695C58.1288 23.2982 58.1436 23.3264 58.1592 23.3538C58.1597 23.3547 58.1601 23.3555 58.1605 23.356C58.1684 23.3699 58.177 23.3834 58.1857 23.3964C58.1862 23.3969 58.1862 23.3973 58.1866 23.3977C58.2044 23.4247 58.2236 23.4503 58.2436 23.4755C58.244 23.476 58.2444 23.4764 58.2449 23.4768C58.2966 23.5403 58.3566 23.5968 58.424 23.6447C58.4244 23.6447 58.4244 23.6451 58.4249 23.6455C58.5727 23.7507 58.7553 23.8146 58.9622 23.8146H59.4704V28.5455C59.4704 28.9698 59.1257 29.3146 58.7013 29.3146H56.9863C56.562 29.3146 56.2172 28.9698 56.2172 28.5455C56.2172 28.3129 56.1611 28.0934 56.062 27.8995C56.0359 27.8486 56.0068 27.7995 55.9751 27.7521C55.9625 27.7334 55.949 27.7147 55.9355 27.6965C55.9016 27.6508 55.8646 27.6073 55.8255 27.5665C55.8099 27.55 55.7938 27.5339 55.7773 27.5182C55.7442 27.4869 55.7099 27.4574 55.6742 27.4291C55.6655 27.4221 55.6564 27.4152 55.6473 27.4082C55.4103 27.2313 55.1165 27.1261 54.7982 27.1261C54.0144 27.1261 53.3788 27.7617 53.3788 28.5455C53.3788 30.5349 54.9969 32.153 56.9863 32.153H58.7013C60.6907 32.153 62.3089 30.5349 62.3089 28.5455V23.8146H62.9353C63.2366 23.8146 63.4879 23.6786 63.6526 23.4764C63.6839 23.4368 63.7122 23.3969 63.7365 23.3542Z" fill="#868686"/>
<path d="M52.2371 23.8795C51.4532 23.8795 50.8176 23.2439 50.8176 22.46V15.1268C50.8176 13.1374 52.4357 11.5193 54.4251 11.5193H56.1402C58.1296 11.5193 59.7477 13.1374 59.7477 15.1268C59.7477 15.9106 59.1121 16.5462 58.3283 16.5462C57.5444 16.5462 56.9088 15.9106 56.9088 15.1268C56.9088 14.7025 56.5641 14.3577 56.1398 14.3577H54.4247C54.0004 14.3577 53.6556 14.7025 53.6556 15.1268V22.46C53.6565 23.2439 53.0209 23.8795 52.2371 23.8795Z" fill="white"/>
<path d="M56.1402 12.9387H54.4251C53.2165 12.9387 52.2371 13.9181 52.2371 15.1267V23.8794C53.0209 23.8794 53.6565 23.2438 53.6565 22.46V15.1267C53.6565 14.7024 54.0012 14.3577 54.4256 14.3577H56.1406C56.5649 14.3577 56.9097 14.7024 56.9097 15.1267C56.9097 15.9106 57.5453 16.5462 58.3291 16.5462V15.1267C58.3287 13.9181 57.3488 12.9387 56.1402 12.9387Z" fill="#F5F5F5"/>
<path d="M51.4224 24.1046L49.4356 21.3275C48.9957 20.7127 49.4352 19.858 50.1912 19.858H54.1643C54.9204 19.858 55.3599 20.7127 54.9199 21.3275L52.9336 24.1046C52.5628 24.6228 51.7928 24.6228 51.4224 24.1046Z" fill="white"/>
<path d="M54.5726 19.9507L52.9336 22.2418C52.5632 22.7596 51.7928 22.7596 51.4224 22.2418L49.7834 19.9507C49.2957 20.1881 49.0835 20.835 49.4361 21.3275L51.4228 24.1047C51.7933 24.6224 52.5636 24.6224 52.934 24.1047L54.9204 21.3275C55.2725 20.8345 55.0599 20.1876 54.5726 19.9507Z" fill="#F5F5F5"/>
<path d="M60.8894 18.4877C61.6733 18.4877 62.3089 19.1233 62.3089 19.9072V27.2404C62.3089 29.2298 60.6907 30.8479 58.7013 30.8479H56.9863C54.9969 30.8479 53.3788 29.2298 53.3788 27.2404C53.3788 26.4566 54.0144 25.821 54.7982 25.821C55.5821 25.821 56.2177 26.4566 56.2177 27.2404C56.2177 27.6647 56.5624 28.0095 56.9867 28.0095H58.7018C59.1261 28.0095 59.4708 27.6647 59.4708 27.2404V19.9072C59.4704 19.1233 60.106 18.4877 60.8894 18.4877Z" fill="white"/>
<path d="M56.9862 29.4285H58.7013C59.9099 29.4285 60.8894 28.449 60.8894 27.2404V18.4877C60.1055 18.4877 59.4699 19.1233 59.4699 19.9072V27.2404C59.4699 27.6647 59.1252 28.0095 58.7009 28.0095H56.9858C56.5615 28.0095 56.2167 27.6647 56.2167 27.2404C56.2167 26.4566 55.5811 25.821 54.7973 25.821V27.2404C54.7982 28.449 55.7781 29.4285 56.9862 29.4285Z" fill="#F5F5F5"/>
<path d="M61.7045 18.2625L63.6909 21.0397C64.1308 21.6544 63.6913 22.5091 62.9353 22.5091H58.9622C58.2061 22.5091 57.767 21.6544 58.2066 21.0397L60.1933 18.2625C60.5637 17.7448 61.3337 17.7448 61.7045 18.2625Z" fill="white"/>
<path d="M58.5543 22.4169L60.1933 20.1258C60.5637 19.6081 61.3341 19.6081 61.7045 20.1258L63.3435 22.4169C63.8312 22.1796 64.0438 21.5327 63.6912 21.0401L61.7045 18.263C61.3341 17.7452 60.5637 17.7452 60.1933 18.263L58.207 21.0401C57.8539 21.5327 58.0665 22.1796 58.5543 22.4169Z" fill="#F5F5F5"/>
</g>
<defs>
<clipPath id="clip0">
<rect width="93" height="49" fill="white"/>
</clipPath>
</defs>
</svg>
