<svg width="93" height="49" viewBox="0 0 93 49" fill="none" xmlns="http://www.w3.org/2000/svg">
<g clip-path="url(#clip0)">
<rect x="-3" y="-23" width="50" height="50" rx="25" fill="#EC6630" fill-opacity="0.62"/>
<path d="M52.4178 2H31.6878C31.1107 2 30.6428 2.46786 30.6428 3.37571V41.2857C30.6428 41.5321 31.1107 42 31.6878 42H60.3121C60.8892 42 61.3571 41.5321 61.3571 41.2857V11.27C61.3571 10.7729 61.2907 10.6129 61.1735 10.495L52.8621 2.18357C52.7442 2.06643 52.5842 2 52.4178 2Z" fill="#E9E9E0"/>
<path d="M52.7858 2.10791V10.5715H61.2493L52.7858 2.10791Z" fill="#D9D7CA"/>
<path d="M60.3121 42H31.6878C31.1107 42 30.6428 41.5322 30.6428 40.955V29.8572H61.3571V40.955C61.3571 41.5322 60.8892 42 60.3121 42Z" fill="#5C5C5C"/>
<path d="M38.4678 32.6599V39.8571H37.2957V36.6149H34.1807V39.8571H32.9893V32.6599H34.1807V35.8142H37.2957V32.6599H38.4678Z" fill="white"/>
<path d="M45.3621 32.6599V33.4606H43.2143V39.8571H42.0328V33.4606H39.8843V32.6599H45.3621Z" fill="white"/>
<path d="M52.2178 32.6599H53.4093V39.8571H52.2178V34.9056L50.6064 38.9092H49.5714L47.95 34.9056V39.8571H46.7585V32.6599H47.95L50.0885 37.5821L52.2178 32.6599Z" fill="white"/>
<path d="M56.4071 32.6599V38.9685H59.7178V39.8571H55.2157V32.6599H56.4071Z" fill="white"/>
<path d="M42.5765 13.6378C42.2972 13.3585 41.8458 13.3585 41.5665 13.6378L37.2808 17.9235C37.0015 18.2028 37.0015 18.6542 37.2808 18.9335L41.5665 23.2192C41.7058 23.3585 41.8886 23.4285 42.0715 23.4285C42.2543 23.4285 42.4372 23.3585 42.5765 23.2192C42.8558 22.94 42.8558 22.4885 42.5765 22.2092L38.7958 18.4285L42.5765 14.6478C42.8558 14.3685 42.8558 13.9171 42.5765 13.6378Z" fill="#5C5C5C"/>
<path d="M55.4335 17.9235L51.1478 13.6378C50.8685 13.3585 50.4171 13.3585 50.1378 13.6378C49.8585 13.9171 49.8585 14.3685 50.1378 14.6478L53.9185 18.4285L50.1378 22.2092C49.8585 22.4885 49.8585 22.94 50.1378 23.2192C50.2771 23.3585 50.46 23.4285 50.6428 23.4285C50.8257 23.4285 51.0085 23.3585 51.1478 23.2192L55.4335 18.9335C55.7128 18.6542 55.7128 18.2028 55.4335 17.9235Z" fill="#5C5C5C"/>
</g>
<defs>
<clipPath id="clip0">
<rect width="93" height="49" fill="white"/>
</clipPath>
</defs>
</svg>
