<svg width="93" height="49" viewBox="0 0 93 49" fill="none" xmlns="http://www.w3.org/2000/svg">
<g clip-path="url(#clip0)">
<rect x="22" y="25" width="50" height="50" rx="25" fill="#00BDFF" fill-opacity="0.5"/>
<g clip-path="url(#clip1)">
<path d="M61.1859 24.4999C61.6956 23.9632 62.1708 23.4251 62.6069 22.8883C65.543 19.2743 66.4353 16.0288 65.1195 13.7499C63.8037 11.471 60.5468 10.621 55.949 11.3566C55.2662 11.4658 54.5627 11.6083 53.843 11.7814C53.6331 11.0715 53.4047 10.3911 53.158 9.74509C51.496 5.39548 49.1315 3 46.5 3C43.8684 3 41.5039 5.39548 39.8421 9.74526C39.5953 10.3913 39.367 11.0717 39.157 11.7815C38.4373 11.6084 37.7338 11.466 37.051 11.3567C32.4534 10.621 29.1964 11.4708 27.8806 13.75C26.5648 16.0289 27.457 19.2744 30.3932 22.8884C30.8292 23.4252 31.3044 23.9632 31.8141 24.5C31.3044 25.0367 30.8292 25.5748 30.3932 26.1116C27.457 29.7256 26.5648 32.9711 27.8806 35.25C28.8875 36.9941 31.0311 37.9013 34.0428 37.9012C34.9664 37.9012 35.9719 37.8158 37.051 37.6433C37.7338 37.5341 38.4374 37.3916 39.157 37.2185C39.367 37.9284 39.5953 38.6088 39.8421 39.2548C41.5039 43.6046 43.8684 46.0001 46.5 46.0001C49.1316 46.0001 51.496 43.6046 53.1579 39.2548C53.4047 38.6088 53.633 37.9284 53.843 37.2185C54.5627 37.3916 55.2662 37.5341 55.9489 37.6433C57.0283 37.816 58.0333 37.9012 58.9572 37.9012C61.9686 37.9012 64.1126 36.9941 65.1194 35.25C66.4352 32.9711 65.5429 29.7256 62.6068 26.1116C62.1708 25.5747 61.6956 25.0367 61.1859 24.4999ZM30.0967 15.0295C30.8229 13.772 33.2715 13.3437 36.6466 13.8837C37.2554 13.9811 37.8827 14.1071 38.5253 14.2604C38.1722 15.8874 37.9059 17.6264 37.7326 19.438C36.2502 20.4939 34.8774 21.5941 33.6449 22.7133C33.1908 22.2335 32.768 21.7532 32.3793 21.2748C30.2241 18.6218 29.3707 16.287 30.0967 15.0295ZM37.5223 26.2119C36.8046 25.6486 36.1231 25.0766 35.4827 24.4999C36.1231 23.9233 36.8046 23.3513 37.5223 22.7879C37.5046 23.3545 37.4951 23.9254 37.4951 24.4999C37.4951 25.0744 37.5046 25.6452 37.5223 26.2119ZM36.6466 35.1162C33.2717 35.656 30.8228 35.228 30.0967 33.9703C29.3706 32.7127 30.224 30.378 32.3793 27.7249C32.7681 27.2464 33.1909 26.7661 33.645 26.2863C34.8774 27.4057 36.2503 28.5058 37.7326 29.5616C37.906 31.3733 38.1722 33.1123 38.5254 34.7393C37.8827 34.8928 37.2554 35.0187 36.6466 35.1162ZM52.4714 17.581C51.9894 17.2823 51.4998 16.9887 51.0024 16.7015C50.5049 16.4143 50.0058 16.137 49.5062 15.869C50.3529 15.5291 51.189 15.2248 52.0087 14.9586C52.1878 15.8016 52.3423 16.6777 52.4714 17.581ZM42.2327 10.6586C43.4526 7.46543 45.0479 5.55908 46.5 5.55908C47.9521 5.55908 49.5473 7.46543 50.7673 10.6586C50.9873 11.2345 51.1918 11.8407 51.3803 12.4738C49.7947 12.9815 48.1556 13.6204 46.5 14.3761C44.8444 13.6204 43.2052 12.9815 41.6197 12.4738C41.8081 11.8407 42.0127 11.2345 42.2327 10.6586ZM40.9914 14.9586C41.8111 15.2248 42.6471 15.5291 43.4939 15.869C42.9942 16.137 42.4951 16.4143 41.9977 16.7015C41.5003 16.9887 41.0105 17.2823 40.5286 17.581C40.6576 16.6778 40.8122 15.8016 40.9914 14.9586ZM40.5286 31.4189C41.0105 31.7175 41.5002 32.0111 41.9976 32.2983C42.495 32.5856 42.9942 32.8628 43.4938 33.1309C42.6471 33.4708 41.811 33.775 40.9913 34.0413C40.8122 33.1982 40.6576 32.3221 40.5286 31.4189ZM50.7673 38.3412C49.5473 41.5345 47.9521 43.4408 46.5 43.4408C45.0479 43.4408 43.4526 41.5344 42.2327 38.3412C42.0126 37.7654 41.8081 37.1591 41.6197 36.526C43.2053 36.0183 44.8444 35.3795 46.5 34.6237C48.1556 35.3795 49.7948 36.0183 51.3803 36.526C51.1918 37.1591 50.9873 37.7654 50.7673 38.3412ZM52.0086 34.0412C51.1889 33.7749 50.3528 33.4707 49.5061 33.1308C50.0057 32.8628 50.5049 32.5855 51.0023 32.2983C51.4998 32.011 51.9895 31.7174 52.4713 31.4188C52.3424 32.322 52.1878 33.1982 52.0086 34.0412ZM52.8178 28.1474C51.8298 28.8152 50.7954 29.4628 49.7228 30.082C48.6502 30.7013 47.5722 31.2732 46.5 31.795C45.4278 31.2732 44.3497 30.7013 43.2772 30.082C42.2046 29.4627 41.1702 28.8152 40.1822 28.1474C40.0979 26.9579 40.0543 25.7384 40.0543 24.4999C40.0543 23.2614 40.0979 22.0419 40.1822 20.8523C41.1702 20.1846 42.2045 19.537 43.2772 18.9177C44.3497 18.2984 45.4278 17.7265 46.5 17.2047C47.5722 17.7265 48.6502 18.2984 49.7228 18.9177C50.7954 19.537 51.8298 20.1846 52.8178 20.8523C52.902 22.0419 52.9457 23.2614 52.9457 24.4999C52.9457 25.7384 52.9021 26.958 52.8178 28.1474ZM56.3533 13.8837C59.7281 13.3435 62.1771 13.7717 62.9032 15.0295C63.6294 16.2871 62.776 18.6218 60.6206 21.2749C60.2319 21.7534 59.8091 22.2337 59.355 22.7135C58.1225 21.5942 56.7497 20.494 55.2673 19.4382C55.094 17.6265 54.8278 15.8875 54.4746 14.2606C55.1173 14.1071 55.7446 13.9811 56.3533 13.8837ZM55.4777 22.7879C56.1954 23.3513 56.8769 23.9232 57.5173 24.4999C56.8769 25.0765 56.1954 25.6485 55.4777 26.2119C55.4953 25.6453 55.5048 25.0744 55.5048 24.4999C55.5048 23.9254 55.4953 23.3546 55.4777 22.7879ZM62.9032 33.9703C62.1771 35.228 59.7286 35.6559 56.3533 35.1162C55.7446 35.0187 55.1173 34.8928 54.4747 34.7394C54.8278 33.1125 55.0941 31.3734 55.2674 29.5618C56.7497 28.506 58.1225 27.4058 59.3551 26.2865C59.8092 26.7663 60.232 27.2466 60.6207 27.7251C62.7759 30.378 63.6293 32.7128 62.9032 33.9703Z" fill="#5C5C5C"/>
<path d="M46.5 20.2346C44.1481 20.2346 42.2346 22.1481 42.2346 24.4999C42.2346 26.8518 44.1481 28.7653 46.5 28.7653C48.8519 28.7653 50.7654 26.8518 50.7654 24.4999C50.7654 22.1481 48.8519 20.2346 46.5 20.2346Z" fill="#5C5C5C"/>
</g>
</g>
<defs>
<clipPath id="clip0">
<rect width="93" height="49" fill="white"/>
</clipPath>
<clipPath id="clip1">
<rect width="43" height="43" fill="white" transform="translate(25 3)"/>
</clipPath>
</defs>
</svg>
