<?xml version="1.0" ?><!DOCTYPE svg  PUBLIC '-//W3C//DTD SVG 1.1//EN'  'http://www.w3.org/Graphics/SVG/1.1/DTD/svg11.dtd'><svg height="64px" id="Layer_1" style="enable-background:new 0 0 64 64;" version="1.1" viewBox="0 0 64 64" width="64px" xml:space="preserve" xmlns="http://www.w3.org/2000/svg" xmlns:xlink="http://www.w3.org/1999/xlink"><g id="Shape_29_"><g><circle cx="32" cy="32" r="32" style="fill:#48A0DC;"/></g></g><g id="Css_3_Logo"><g><polygon points="47.329,20.604 48,14 31.148,14 14,14 14.819,20.604 31.148,20.604 32.066,20.604     31.148,20.985 15.416,27.508 15.938,33.965 31.148,34.013 39.301,34.039 38.779,42.648 31.148,44.786 31.148,44.779     31.086,44.797 23.717,42.945 23.27,37.601 23.245,37.601 16.409,37.601 16.386,37.601 17.28,47.918 31.148,52.001 31.148,51.993     31.174,52.001 44.968,47.992 46.758,27.508 31.148,27.508 31.11,27.508 31.148,27.491   " style="fill:#FFFFFF;"/></g></g><g/><g/><g/><g/><g/><g/><g/><g/><g/><g/><g/><g/><g/><g/><g/></svg>