<?xml version="1.0" encoding="utf-8"?>
<!-- Generator: Adobe Illustrator 24.1.3, SVG Export Plug-In . SVG Version: 6.00 Build 0)  -->
<svg version="1.1" id="Capa_1" xmlns="http://www.w3.org/2000/svg" xmlns:xlink="http://www.w3.org/1999/xlink" x="0px" y="0px"
	 viewBox="0 0 42 64" style="enable-background:new 0 0 42 64;" xml:space="preserve">
<style type="text/css">
	.st0{fill:#262626;}
</style>
<path class="st0" d="M6.2,62.8c-2.3-1-2.2-3.1-0.6-4.6c8.6-8.5,17.2-17.1,25.8-25.7c0.2-0.2,0.4-0.3,0.8-0.7
	c-0.3-0.2-0.5-0.2-0.7-0.4C22.7,22.8,14,14.2,5.3,5.5C4.6,4.8,4.1,3.9,4.5,2.8C5,1.2,6.9,0.6,8.2,1.7C8.4,1.8,8.5,2,8.7,2.1
	c9.3,9.3,18.7,18.6,28,27.9c0.4,0.4,0.8,1,0.9,1.6c0.2,0.7-0.1,1.4-0.6,1.9c-0.2,0.2-0.3,0.3-0.5,0.5C27.4,43.3,18.2,52.4,9,61.5
	c-0.5,0.5-1.2,0.9-1.8,1.3C6.9,62.8,6.5,62.8,6.2,62.8z"/>
</svg>
