<svg id="Capa_1" enable-background="new 0 0 490 490" height="512" viewBox="0 0 490 490" width="512" xmlns="http://www.w3.org/2000/svg"><g><path d="m336.82 307.327c-7.78 4.97-15.9 10.23-24.41 15.78-72.53 47.39-129.08 25.02-208.96 63.22-62.51 29.89-90.54 68.2-99.77 83.44l-3.68-10.69v-139.864c0-6.565 5.322-11.887 11.887-11.887h324.933z" fill="#0473ce"/><path d="m336.82 307.327c-7.78 4.97-15.9 10.23-24.41 15.78-72.53 47.39-129.08 25.02-208.96 63.22-62.51 29.89-90.54 68.2-99.77 83.44-2.31-2.95-3.68-6.66-3.68-10.69v-139.864c0-6.565 5.322-11.887 11.887-11.887h324.933z" fill="#0473ce"/><path d="m336.819 307.331c-7.782 4.961-15.901 10.227-24.406 15.779-6.672 4.36-13.212 8.129-19.639 11.398h-292.774v-15.29c0-6.565 5.322-11.887 11.887-11.887z" fill="#528fd8"/><path d="m490 261.508v197.568c0 9.599-7.781 17.38-17.38 17.38h-455.24c-5.57 0-10.52-2.62-13.7-6.69 9.23-15.24 37.26-53.55 99.77-83.44 79.88-38.2 136.43-15.83 208.96-63.22 8.51-5.55 16.63-10.81 24.41-15.78 54.743-34.87 93.547-54.934 140.234-58.036 7.022-.466 12.946 5.181 12.946 12.218z" fill="#e9b665"/><path d="m490 261.51v15.827c-52.71 0-93.46 20.42-153.18 58.47-7.78 4.96-15.9 10.22-24.41 15.77-72.53 47.39-129.08 25.02-208.96 63.22-41.67 19.92-68.01 43.59-83.68 61.66h-2.39c-5.57 0-10.52-2.62-13.7-6.69 9.23-15.24 37.26-53.55 99.77-83.44 79.88-38.2 136.43-15.83 208.96-63.22 8.51-5.55 16.63-10.81 24.41-15.78 54.662-34.818 93.431-54.875 140.026-58.022 7.103-.481 13.154 5.085 13.154 12.205z" fill="#d8aa5e"/><path d="m397.367 16.827c8.275 20.503 31.759 30.23 52.108 21.584 4.346-1.847 8.729 2.537 6.883 6.883-8.647 20.349 1.081 43.833 21.584 52.108 4.379 1.767 4.379 7.966 0 9.734-20.503 8.275-30.23 31.759-21.584 52.108 1.847 4.346-2.537 8.729-6.883 6.883-20.349-8.647-43.833 1.081-52.108 21.584-1.767 4.379-7.966 4.379-9.734 0-8.275-20.503-31.759-30.23-52.108-21.584-4.346 1.847-8.729-2.537-6.883-6.883 8.647-20.349-1.081-43.833-21.584-52.108-4.379-1.767-4.379-7.966 0-9.734 20.503-8.275 30.23-31.759 21.584-52.108-1.847-4.346 2.537-8.729 6.883-6.883 20.349 8.647 43.833-1.081 52.108-21.584 1.767-4.378 7.967-4.378 9.734 0z" fill="#fef056"/><circle cx="392.5" cy="102.269" fill="#fee903" r="32.072"/><path d="m165.696 227.269-65.391 249.185h-27.178l67.142-255.857z" fill="#a44f3e"/><path d="m222.146 476.454c-9.788 0-16.615-8.831-13.305-17.212l21.78-55.151h30.046l-25.215 63.849c-2.018 5.108-7.341 8.514-13.306 8.514z" fill="#d7d0d6"/><path d="m381.378 476.454c9.788 0 16.615-8.831 13.305-17.212l-21.78-55.151h-30.046l25.215 63.849c2.018 5.108 7.341 8.514 13.306 8.514z" fill="#d7d0d6"/><path d="m452.27 328.646-44.777 55.138-15.291 18.831c-7.503 9.24-18.772 14.606-30.675 14.606h-142.03c-4.678 0-8.898-1.895-11.96-4.956-3.096-3.095-4.998-7.375-4.956-12.115.084-9.353 7.993-16.761 17.346-16.761h132.098c7.729 0 15.047-3.484 19.919-9.485l54.063-66.583c3.34-4.121 8.225-6.258 13.145-6.258 3.744 0 7.515 1.239 10.649 3.789 7.255 5.89 8.359 16.548 2.469 23.794z" fill="#5de1c4"/><g><path d="m139.53 327.007h63.05c4.14 0 7.5 3.36 7.5 7.5s-3.36 7.5-7.5 7.5h-65.03c-.65 0-1.29-.08-1.89-.25z" fill="#82aee3"/></g><g><path d="m108.41 342.007h-51.12c-4.15 0-7.5-3.36-7.5-7.5s3.35-7.5 7.5-7.5h53.09c.66 0 1.3.08 1.9.25z" fill="#82aee3"/></g><g><path d="m31.94 334.507c0 4.14-3.36 7.5-7.5 7.5h-24.44v-15h24.44c4.14 0 7.5 3.36 7.5 7.5z" fill="#82aee3"/></g><path d="m276.505 266.129c-1.158 8.516-9.499 14.109-17.813 11.929l-10.343-2.712-23.91-6.27c1.91-7.31-2.45-14.8-9.76-16.72-7.32-1.92-14.8 2.46-16.72 9.76l-103.07-27.04c1.92-7.31-2.46-14.79-9.76-16.72-7.31-1.92-14.79 2.46-16.71 9.77l-34.256-8.98c-8.315-2.18-12.839-11.148-9.667-19.137 4.52-11.385 10.515-21.849 17.703-31.222v-.01c7.05-1.46 16.91-4.82 21.42-9.2 4.36-4.23 6.76-9.88 5.02-16.68 0 0 .01 0 .01-.01 12.8-9.4 27.25-16.47 42.63-20.76h.01c13.59 2.19 25.42 2.02 38.46 2.32 10.04.23 19-.5 29.98-2.79 7.52 7.04 13.539 13.207 23.037 18.52 10.597 5.928 20.983 9.77 36.353 15.5l.01.01c11.3 11.29 20.43 24.53 26.95 39.01v.01h.01c-2.84 5.062-7.033 11.546-5.34 17.24 1.829 6.151 8 12.75 15.66 18.29v.01c1.655 11.695 1.746 23.751.096 35.882z" fill="#e41f2d"/><path d="m248.35 275.347-23.91-6.27c1.91-7.31-2.45-14.8-9.76-16.72-7.32-1.92-14.8 2.46-16.72 9.76l-103.07-27.04c1.92-7.31-2.46-14.79-9.76-16.72-7.31-1.92-14.79 2.46-16.71 9.77l-34.256-8.98c-8.315-2.18-12.839-11.148-9.667-19.137 4.52-11.385 10.515-21.849 17.703-31.222v-.01c7.05-1.46 16.91-4.82 21.42-9.2 4.36-4.23 6.76-9.88 5.02-16.68 0 0 .01 0 .01-.01 12.8-9.4 27.25-16.47 42.63-20.76h.01c13.59 2.19 25.42 2.02 38.46 2.32 10.04.23 19-.5 29.98-2.79 0-.001 79.98 45.839 68.62 153.689z" fill="#fd4755"/><path d="m239.12 155.677c-7.74.49-15.27.5-22.54.13-61.83-3.1-105.29-33.68-105.29-33.68 21.65-6.03 45.13-6.59 68.44-.47 23.32 6.11 43.5 18.13 59.39 34.02z" fill="#d7d0d6"/><path d="m216.58 155.807c-61.83-3.1-105.29-33.68-105.29-33.68 21.65-6.03 45.13-6.59 68.44-.47 0 0 18.79 10.77 36.85 34.15z" fill="#e5e1e5"/><path d="m276.41 230.237v.01s-10.56 1-28.58.39c-41.54-1.4-122.73-11.36-205.63-61.86 7.59-9.91 16.52-18.59 26.44-25.88 0 0 .01 0 .01-.01 0 0 73.73 46.96 169.88 51.68 9 .44 18.2.51 27.55.14h.01c5.07 11.23 8.58 23.17 10.32 35.53z" fill="#d7d0d6"/><path d="m247.83 230.637c-41.54-1.4-122.73-11.36-205.63-61.86 7.59-9.91 16.52-18.59 26.44-25.88 0 0 .01 0 .01-.01 0 0 73.73 46.96 169.88 51.68 4.17 10.73 7.46 22.74 9.3 36.07z" fill="#e5e1e5"/></g></svg>