<svg width="2506" height="1024" viewBox="0 0 2506 1024" fill="none" xmlns="http://www.w3.org/2000/svg">
<rect width="2506" height="1024" fill="#FBFFFF"/>
<g clip-path="url(#clip0)">
<rect width="2506" height="1024" fill="#363795"/>
<path d="M487.993 776.515C667.234 815.811 654.217 873.886 652.955 878.283C656.058 868.298 747.122 580.021 906.371 624.887C916.215 627.66 925.484 631.471 934.15 635.981C995.866 659.364 1148.49 710.169 1269.51 692.684C1457 665.594 1409.52 471.314 1597.01 470.491C1731.19 469.903 1715.56 593.686 1850.79 582.443C2024 568.041 1877.05 356.742 2050.16 347.557C2181.42 340.593 2153.31 470.286 2284.51 464.087C2453.44 456.105 2453.53 309.277 2509.69 241.897C2565.85 174.517 2617.92 1031.41 2617.92 1031.41L-104.409 1306.47C-95.3771 1258.86 -39.2481 1079.49 -16.4745 1042.13C6.29911 1004.77 301.602 735.651 487.993 776.515Z" fill="#091540"/>
<ellipse cx="1306" cy="237.5" rx="196" ry="188.5" fill="#FAF3BA" fill-opacity="0.67"/>
</g>
<defs>
<clipPath id="clip0">
<rect width="2506" height="1024" fill="white"/>
</clipPath>
</defs>
</svg>
