<svg id="visual" viewBox="0 0 900 600" width="900" height="600" xmlns="http://www.w3.org/2000/svg" xmlns:xlink="http://www.w3.org/1999/xlink" version="1.1"><rect x="0" y="0" width="900" height="600" fill="#FFFFFF"></rect><defs><linearGradient id="grad1_0" x1="33.3%" y1="0%" x2="100%" y2="100%"><stop offset="20%" stop-color="#ffffff" stop-opacity="1"></stop><stop offset="80%" stop-color="#ffffff" stop-opacity="1"></stop></linearGradient></defs><defs><linearGradient id="grad2_0" x1="0%" y1="0%" x2="66.7%" y2="100%"><stop offset="20%" stop-color="#ffffff" stop-opacity="1"></stop><stop offset="80%" stop-color="#ffffff" stop-opacity="1"></stop></linearGradient></defs><g transform="translate(900, 0)"><path d="M0 486.7C-59 468.1 -118 449.5 -177.6 428.7C-237.1 407.9 -297.3 384.9 -344.2 344.2C-391.1 303.5 -424.7 245.1 -446.2 184.8C-467.8 124.5 -477.3 62.3 -486.7 0L0 0Z" fill="#715DF2"></path></g><g transform="translate(0, 600)"><path d="M0 -486.7C45.9 -427.1 91.8 -367.4 140.8 -340C189.9 -312.5 242.2 -317.3 299.1 -299.1C356 -281 417.6 -239.9 449.7 -186.3C481.7 -132.6 484.2 -66.3 486.7 0L0 0Z" fill="#715DF2"></path></g></svg>