<svg id="Layer_1" data-name="Layer 1" xmlns="http://www.w3.org/2000/svg" viewBox="0 0 74.35 48.76"><defs><style>.cls-1{fill:#5c4484;}</style></defs><path class="cls-1" d="M923.85,533.6,949.68,551l19.82,13.31c.51.34,1,.67,1.62.21,6.5-4.41,13-8.77,19.53-13.22a17.81,17.81,0,0,0,5.63-6,8,8,0,0,0-.92-9.5,14.6,14.6,0,0,0-2.34-2.24c-6-4.45-12.54-5.21-19.56-3.18-1,.3-2,.77-3,1.15-.31.11-.71.51-.95.21s.23-.64.43-.92a6.93,6.93,0,0,0,1.46-4.15,8,8,0,0,0-3-6.34A18.91,18.91,0,0,0,955.72,516a26.07,26.07,0,0,0-15.09,5c-5.58,3.79-11.19,7.54-16.79,11.31C922.83,532.9,922.83,532.91,923.85,533.6Zm45.54,2.76a17.76,17.76,0,0,1,9.08-2.24,13.19,13.19,0,0,1,9,3.93,5.52,5.52,0,0,1,1.71,3.72,6.49,6.49,0,0,1-1.46,3.68,16.76,16.76,0,0,1-4.07,3.72c-3.89,2.65-7.81,5.26-11.7,7.91a1.18,1.18,0,0,1-1.54,0q-7.64-5.16-15.28-10.29c-.4-.27-.92-.56-.19-1C959.75,542.64,964.28,539,969.39,536.36Zm-34.81-4.49c3.94-2.63,7.85-5.32,11.84-7.87a15,15,0,0,1,8.33-2.52,11.92,11.92,0,0,1,8.18,3,5,5,0,0,1,1.11,6.91,12.57,12.57,0,0,1-3.23,3.47c-3.53,2.68-7.3,5-10.94,7.5a1.05,1.05,0,0,1-1.31,0q-7-4.73-14-9.42C933.9,532.55,934,532.24,934.58,531.87Z" transform="translate(-923.09 -515.95)"/></svg>