<svg id="Layer_1" enable-background="new 0 0 256 256" height="512" viewBox="0 0 256 256" width="512" xmlns="http://www.w3.org/2000/svg"><g><g><g><path d="m220.884 132.425-17.963-36.519c-5.137-40.901-30.57-71.906-73.621-71.906-65.779-.653-109.207 72.304-76.974 129.662l-18.498 65.625c-1.798 6.38 2.996 12.713 9.625 12.713h72.955c5.66 0 10.632-3.756 12.18-9.2l6.686-23.541h43.662c11.046 0 20-8.954 20-20v-33.014h12.082c7.829 0 13.059-7.327 9.866-13.82z" fill="#fcc4ae"/></g><g><path d="m221.514 134.093h-18.578c-2.209 0-4 1.791-4 4v8.152h12.082c7.164 0 12.147-6.135 10.496-12.152z" fill="#f2ad97"/></g><g><path d="m197.39 186.983h-62.118c-48.33-3.47-84.697-45.463-81.226-93.793 1.298-18.074 8.16-35.303 19.644-49.32-21.795 17.828-33.691 45.047-31.97 73.153 2.72 46.384 41.908 82.238 88.372 82.238h48.847c8.062-.001 15.337-4.841 18.451-12.278z" fill="#f2ad97"/></g><g><g><path d="m73.177 101.479c.005 25.821 18.023 48.14 43.263 53.588l9.854 15.92c.782 1.263 2.619 1.263 3.401 0l9.854-15.92c30.006-6.469 48.935-36.358 41.755-66.371-6.411-26.799-32.162-44.871-59.533-41.686-27.997 3.258-48.594 26.862-48.594 54.469z" fill="#ffa91a"/></g><g><path d="m79.18 103.48c-1.11 0-2-.9-2-2v-.01c0-1.1.9-1.99 2-1.99s2 .9 2 2-.9 2-2 2zm.65-7.96c-.11 0-.22-.01-.33-.03-1.09-.18-1.83-1.21-1.65-2.3.9-5.43 2.66-10.65 5.25-15.52 2.54-4.77 5.81-9.1 9.73-12.85 3.93-3.77 8.42-6.88 13.33-9.22 5.06-2.41 10.47-3.96 16.08-4.62 1.09-.12 2.09.67 2.21 1.76.13 1.09-.66 2.09-1.75 2.22-20.71 2.4-37.52 18.39-40.9 38.88v.01c-.16.97-.99 1.67-1.97 1.67z" fill="#ffc91d"/></g><g><g><path d="m181.304 88.695c-2.996-12.524-10.217-23.14-19.852-30.573 4.59 5.948 8.017 12.9 9.852 20.573 7.18 30.014-11.749 59.902-41.755 66.371l-9.65 15.589 6.394 10.33c.782 1.263 2.619 1.263 3.401 0l9.854-15.92c30.007-6.467 48.936-36.356 41.756-66.37z" fill="#f79219"/></g></g><g><g><path d="m181.304 88.695c-2.702-11.296-8.85-21.032-17.098-28.288 5.721 6.505 9.975 14.414 12.098 23.288 7.18 30.014-11.749 59.902-41.755 66.371l-9.854 15.92c-.248.4-.605.658-.998.805l2.596 4.195c.782 1.263 2.619 1.263 3.401 0l9.854-15.92c30.007-6.468 48.936-36.357 41.756-66.371z" fill="#ef7816"/></g></g></g></g><g><g><path d="m147.607 85.102c-.639-.57-1.679-.389-2.093.359-2.345 3.982-6.543 8.454-12.315 10.228 5.097-6.501 6.362-15.751 2.715-23.233-3.075-6.3-8.895-10.726-14.83-14.163-2.275-1.348-5.182.863-4.486 3.415 2.279 8.388-.121 17.764-7.426 22.882-29.676 26.294 6.157 70.125 37.828 46.253 14.321-11.476 14.584-33.883.607-45.741z" fill="#e63950"/></g><g><path d="m145.633 89.72c.455-1.583.657-3.225.627-4.871 0-.002 0-.004 0-.006-.306.104-.578.315-.746.619-2.345 3.982-6.543 8.454-12.315 10.228.004-.005.008-.01.012-.015-.009.005-.018.01-.026.015-.343.48-5.038 7.187-7.1 10.127-.229.323-.152.769.17.998 4.264-.078 15.079-4.474 19.378-17.095z" fill="#d10028"/></g><g><path d="m154.023 122.589c-.007-.024-.012-.047-.019-.071-.889.334-1.309 1.06-2.112 1.819-1.816 1.708-4.037 2.926-6.453 3.541-6.652 1.8-14.142-1.554-17.026-7.856-.3-.638-1.318-.44-1.362.261-.544 4.851 1.313 9.663 4.975 12.891.535.444.09 1.375-.593 1.236-14.243-2.278-21.826-19.348-14.09-31.47.386-.575-.305-1.341-.918-1.02-9.205 4.344-13.579 15.042-11.233 24.741 0 .001 0 .003-.001.004 9.232 11.165 26.036 16.068 41.808 4.179 2.935-2.352 5.279-5.163 7.032-8.248-.003-.002-.006-.005-.008-.007z" fill="#b7022d"/></g><g><path d="m117.666 58.585c-.888.709-1.41 1.875-1.069 3.124 2.279 8.388-.121 17.764-7.426 22.882-6.933 6.143-10.29 13.243-10.961 20.213 3.841-5.643 9.37-9.84 14.92-13.465 10.759-7.816 13.378-22.52 4.537-32.749 0-.001-.001-.003-.001-.005z" fill="#d10028"/></g></g></g></svg>