<svg width="21" height="22" fill="none" xmlns="http://www.w3.org/2000/svg"><path d="M8.3 1.53L2.28 5.46C.35 6.72.35 9.54 2.28 10.8l6.02 3.93c1.08.71 2.86.71 3.94 0l5.99-3.93c1.92-1.26 1.92-4.07 0-5.33l-5.99-3.93C11.16.82 9.38.82 8.3 1.53z" stroke="#48575F" stroke-width="1.5" stroke-linecap="round" stroke-linejoin="round"/><path d="M3.88 12.08l-.01 4.69c0 1.27.98 2.63 2.18 3.03l3.19 1.06c.55.18 1.46.18 2.02 0l3.19-1.06c1.2-.4 2.18-1.76 2.18-3.03v-4.64M19.65 14V8" stroke="#48575F" stroke-width="1.5" stroke-linecap="round" stroke-linejoin="round"/></svg>