<svg height="30" viewBox="0 0 30 30" width="30" xmlns="http://www.w3.org/2000/svg"><path d="M4.5 22c-1.614 0-2.597.884-3.04 1.867C1.013 24.85 1 25.915 1 26.5c0 .497-.114 1.14-.285 1.664-.113.418-.305.796-.463.902-.445.256-.263.935.25.934H4c1.415 0 2.457-.728 3.09-1.568.632-.84.91-1.76.91-2.432 0-.525-.01-1.48-.467-2.36C7.076 22.756 6.093 22 4.5 22zm0 1c1.307 0 1.826.485 2.144 1.1.318.614.356 1.408.356 1.9 0 .345-.22 1.175-.71 1.83C5.795 28.485 5.083 29 4 29H1.44c.077-.17.16-.332.224-.525.203-.62.336-1.332.336-1.975 0-.555.04-1.49.37-2.223C2.703 23.545 3.216 23 4.5 23zM29.424.002c-.102-.006-.182.006-.263.02-.162.033-.33.09-.533.167-.404.155-.93.4-1.566.732-1.272.66-2.983 1.658-4.91 2.902-3.857 2.49-8.574 5.962-12.305 9.694-1.31 1.31-1.857 2.706-1.845 3.972.012 1.267.57 2.378 1.35 3.16.783.783 1.883 1.338 3.15 1.35 1.267.012 2.673-.533 3.983-1.844 3.732-3.73 7.204-8.448 9.693-12.304 1.245-1.928 2.24-3.64 2.903-4.913.33-.637.576-1.163.73-1.567.08-.202.135-.37.167-.533.016-.082.027-.162.02-.264-.004-.102-.022-.254-.17-.402-.15-.15-.3-.166-.403-.172zm-.642 1.217c-.138.33-.315.728-.59 1.26-.64 1.232-1.625 2.923-2.855 4.83-2.46 3.81-5.908 8.487-9.56 12.14-1.16 1.16-2.298 1.56-3.277 1.55-.98-.01-1.826-.44-2.442-1.057-.616-.615-1.05-1.484-1.058-2.463-.01-.978.39-2.095 1.552-3.255 3.653-3.653 8.328-7.1 12.14-9.56 1.906-1.23 3.597-2.216 4.83-2.856.53-.277.927-.453 1.26-.59z"/></svg>