<?xml version="1.0" standalone="no"?>
<!DOCTYPE svg PUBLIC "-//W3C//DTD SVG 20010904//EN"
 "http://www.w3.org/TR/2001/REC-SVG-20010904/DTD/svg10.dtd">
<svg version="1.0" xmlns="http://www.w3.org/2000/svg"
 width="321.000000pt" height="250.000000pt" viewBox="0 0 321.000000 250.000000"
 preserveAspectRatio="xMidYMid meet">
<metadata>
Created by potrace 1.16, written by Peter Selinger 2001-2019
</metadata>
<g transform="translate(0.000000,250.000000) scale(0.100000,-0.100000)"
fill="#000000" stroke="none">
<path d="M120 2301 c-32 -9 -81 -81 -104 -155 -23 -72 -18 -219 8 -283 31 -73
145 -113 235 -82 17 6 31 14 30 17 0 4 -33 33 -73 65 l-73 58 54 102 53 102
-6 85 c-4 47 -12 88 -18 92 -13 9 -72 9 -106 -1z"/>
<path d="M897 2029 c-11 -6 -27 -30 -38 -53 l-19 -41 0 39 c0 36 -1 38 -14 21
-12 -17 -14 -17 -37 -2 -33 23 -124 22 -169 -1 -50 -27 -100 -127 -107 -214
l-5 -64 103 12 c57 7 105 13 106 13 1 1 0 8 -3 16 -4 8 -16 15 -28 15 -24 0
-66 26 -66 41 0 8 179 99 194 99 3 0 6 -9 6 -20 0 -11 5 -20 10 -20 6 0 10 6
9 13 -4 29 2 48 14 45 15 -4 91 29 131 56 l29 19 -23 19 c-25 20 -65 23 -93 7z"/>
<path d="M685 1695 c-5 -2 -49 -7 -97 -10 l-88 -7 0 -122 c0 -82 -4 -126 -12
-134 -18 -18 -10 -94 12 -114 24 -22 52 -120 44 -152 -8 -34 23 -95 51 -102
24 -6 75 -72 75 -97 0 -21 53 -86 71 -87 8 0 28 -14 44 -30 41 -42 57 -39 54
10 -2 21 0 42 3 46 4 3 3 17 -2 30 -6 15 -6 34 0 49 8 20 6 27 -5 31 -8 4 -15
10 -15 15 0 4 6 6 13 3 10 -4 12 3 9 26 -2 16 -9 30 -16 30 -7 0 -6 4 2 9 12
7 19 85 12 126 -1 6 -2 105 -2 222 l-1 211 -32 6 c-17 4 -41 15 -53 26 -20 19
-42 24 -67 15z"/>
<path d="M1700 1569 c-30 -10 -61 -22 -69 -24 -10 -4 3 -24 46 -68 33 -34 68
-73 77 -87 9 -13 16 -20 17 -15 1 19 2 170 0 193 -1 26 0 26 -71 1z"/>
<path d="M1240 1350 c0 -133 1 -140 20 -140 13 0 25 12 35 37 l16 37 16 -25
c17 -25 33 -39 45 -39 3 0 14 24 24 53 23 71 23 71 46 41 29 -37 38 -17 38 89
l0 87 -120 0 -120 0 0 -140z"/>
<path d="M1876 988 c-3 -7 -7 -51 -10 -98 -2 -47 -8 -93 -11 -102 -6 -16 0
-18 64 -18 74 0 75 1 71 48 -1 17 4 22 22 23 l23 0 -22 16 c-19 12 -21 19 -12
35 8 15 8 22 -1 28 -6 4 -11 10 -11 14 1 3 1 20 1 36 0 30 -1 30 -55 30 -36 0
-57 -4 -59 -12z"/>
</g>
</svg>
