<svg width="513" height="396" viewBox="0 0 513 396" fill="none" xmlns="http://www.w3.org/2000/svg">
<path d="M209.443 382.921L205.846 376.396L512.347 255.351L474.568 316.324L209.443 382.921Z" fill="#F8CD5B"/>
<path d="M205.172 378.644L199.55 368.52L480.192 233.525L501.105 252.874L205.172 378.644Z" fill="#FD63D5"/>
<path d="M264.763 312.946L246.099 371.22C239.352 371.894 233.281 374.819 233.056 379.093C233.056 385.844 266.787 384.944 266.787 384.944L298.27 319.696L374.276 280.997C372.927 268.623 367.755 250.624 362.358 244.549C353.813 251.524 264.763 312.946 264.763 312.946Z" fill="#5BCC85"/>
<path d="M262.739 385.395C254.644 385.395 237.554 384.946 233.505 381.121C232.831 380.446 232.606 379.771 232.606 379.096C232.606 374.596 239.127 371.447 245.648 370.771L264.314 312.723H264.538C265.438 312.048 353.588 251.301 362.133 244.326L362.358 244.101L362.583 244.326C367.98 250.175 373.152 268.175 374.726 281V281.224L374.502 281.45L298.719 319.923L267.236 385.395H267.012C266.562 385.395 264.988 385.395 262.739 385.395ZM265.213 313.399L246.324 371.671H246.099C240.028 372.121 233.505 375.046 233.505 379.096C233.505 379.546 233.731 379.996 234.18 380.446C238.679 384.946 263.864 384.496 266.562 384.496L298.045 319.248H298.269L374.051 280.775C372.478 268.4 367.53 251.075 362.358 245.226C352.239 253.1 268.811 310.698 265.213 313.399Z" fill="#5BCC85"/>
<path d="M195.052 363.345L185.157 351.42L406.433 167.827L461.976 182.902L195.052 363.345Z" fill="#4DD1FF"/>
<path d="M200 56.9079L238.003 51.7332L146.255 305.524L135.236 301.924L200 56.9079Z" fill="#FD63D5"/>
<path d="M133.212 303.05L106.678 302.374L158.849 10.335L193.929 50.8335L133.212 303.05Z" fill="#F8CD5B"/>
<path d="M112.974 44.5315L151.652 13.0327L104.878 300.572L87.7881 300.797L112.974 44.5315Z" fill="#4DD1FF"/>
<path d="M74.7451 300.797H87.7878L108.926 22.2573L74.7451 51.7313V300.797Z" fill="#FD63D5"/>
<path d="M41.6895 37.1084L68.8992 46.333L73.1717 302.374L62.153 300.574L41.6895 37.1084Z" fill="#F8CD5B"/>
<path d="M60.5787 305.297L47.5361 307.321L9.98242 61.406L34.0438 8.08301L60.5787 305.297Z" fill="#4DD1FF"/>
<path d="M60.5787 305.297L47.5361 307.321L9.98242 61.406L34.0438 8.08301L60.5787 305.297Z" fill="#4DD1FF"/>
<path d="M410.029 334.773C410.703 337.023 412.053 341.298 412.053 343.997C410.479 347.823 408.904 351.647 407.106 355.472C405.756 349.172 403.283 342.197 401.034 337.473C401.034 337.248 401.259 337.022 401.259 336.798L410.029 334.773Z" fill="#F8CD5B"/>
<path d="M406.656 356.824L406.432 355.698C405.307 349.849 402.833 342.874 400.359 337.924V337.698L400.81 336.799L410.029 334.549L410.254 334.999C410.929 337.024 412.278 341.524 412.278 344.449V344.673C410.703 348.498 409.13 352.324 407.331 356.148L406.656 356.824ZM401.26 337.474C403.508 342.198 405.757 348.723 406.88 354.123C408.455 350.748 410.029 347.374 411.378 343.773C411.378 341.298 410.254 337.248 409.58 334.999L401.26 337.024V337.474Z" fill="#F8CD5B"/>
<path d="M379.448 391.471H364.831C367.529 386.745 369.777 380.896 371.576 374.372C373.6 372.571 375.849 370.771 377.873 368.521C379.672 375.496 380.122 385.846 379.448 391.471Z" fill="#F8CD5B"/>
<path d="M379.898 391.92H364.156L364.605 391.245C367.079 386.52 369.553 380.895 371.352 374.145V373.92C373.375 372.12 375.399 370.321 377.648 368.07L378.098 367.62L378.323 368.296C379.896 375.495 380.347 385.845 379.898 391.47V391.92ZM365.505 391.02H378.997C379.448 385.619 378.997 376.17 377.648 369.421C375.625 371.445 373.826 373.02 372.026 374.595C370.227 380.895 367.979 386.52 365.505 391.02Z" fill="#F8CD5B"/>
<path d="M373.375 368.523C375.4 360.649 376.749 351.874 377.648 342.874L396.538 338.15C389.342 350.299 381.246 361.099 373.375 368.523Z" fill="#5BCC85"/>
<path d="M372.477 369.872L372.701 368.522C374.5 360.872 376.075 352.097 376.974 342.873V342.647L397.213 337.473L396.763 338.373C389.341 350.972 381.247 361.547 373.376 368.972L372.477 369.872ZM377.873 343.097C376.974 351.647 375.625 359.747 373.826 367.171C381.021 359.972 388.667 350.298 395.414 338.597L377.873 343.097Z" fill="#5BCC85"/>
<path d="M398.786 340.846C401.26 346.472 403.734 354.346 404.408 360.421C402.16 364.92 399.686 369.196 397.213 373.021C395.863 365.371 392.715 356.821 390.916 352.997C393.614 349.396 396.314 345.122 398.786 340.846Z" fill="#F8CD5B"/>
<path d="M396.762 374.145L396.538 373.02C395.189 365.595 392.04 357.045 390.241 353.22V352.996L390.466 352.771C393.165 348.946 395.863 344.896 398.561 340.621L399.011 339.946L399.236 340.621C401.26 345.571 404.183 353.67 404.858 360.195V360.421C402.61 364.92 400.136 369.195 397.437 373.02L396.762 374.145ZM391.141 353.22C392.939 357.045 395.863 364.92 397.212 372.12C399.462 368.52 401.71 364.47 403.959 360.421C403.284 354.57 400.811 347.146 398.787 341.971C396.313 345.796 393.84 349.621 391.141 353.22Z" fill="#F8CD5B"/>
<path d="M374.274 258.5C374.949 257.374 375.849 255.8 376.298 255.125C376.748 257.6 376.074 265.249 374.274 271.324C373.6 268.174 372.701 265.025 372.026 261.874C372.925 260.974 373.6 259.625 374.274 258.5Z" fill="#157048"/>
<path d="M374.5 273.351L374.051 271.776C373.375 268.626 372.476 265.476 371.802 262.551V262.327V262.101C372.701 260.976 373.375 259.626 374.051 258.501L374.5 258.727L374.051 258.501C374.726 257.377 375.625 255.802 376.299 255.126L376.749 254.676L376.974 255.352C377.424 258.051 376.524 265.926 374.95 271.776L374.5 273.351ZM372.476 262.327C373.151 264.802 373.825 267.277 374.276 269.75C375.4 264.576 376.075 258.951 375.849 256.252C375.4 256.927 374.726 258.051 374.5 258.727L374.051 258.501L374.5 258.727C374.051 259.852 373.375 260.976 372.476 262.327Z" fill="#157048"/>
<path d="M276.007 368.295L374.05 343.772C371.802 364.02 367.305 381.12 361.008 391.47H285.9V383.37C285.9 382.47 285.226 381.794 284.327 381.794H269.484L276.007 368.295Z" fill="#5BCC85"/>
<path d="M361.232 391.918H285.451V383.369C285.451 382.694 285.001 382.244 284.327 382.244H268.81L275.781 368.07H276.006L374.726 343.32V343.996C372.476 364.245 367.754 381.344 361.232 391.918ZM286.575 391.019H361.008C367.08 380.894 371.577 364.245 373.825 344.221L276.231 368.745L270.159 381.344H284.327C285.451 381.344 286.35 382.244 286.35 383.369V391.019H286.575Z" fill="#5BCC85"/>
<path d="M231.031 379.542C231.031 379.768 231.256 380.218 231.256 380.443C231.481 380.893 231.706 381.343 231.93 381.567H222.936L231.031 379.542Z" fill="#5BCC85"/>
<path d="M232.605 382.02H219.562L231.255 379.095V379.545C231.255 379.769 231.481 380.219 231.481 380.445C231.706 380.895 231.93 381.12 232.156 381.57L232.605 382.02ZM226.308 381.12H231.255C231.255 380.895 231.031 380.669 231.031 380.445C231.031 380.219 230.807 379.995 230.807 379.995L226.308 381.12Z" fill="#5BCC85"/>
<path d="M260.265 320.148C260.041 321.048 259.591 321.948 259.366 322.623L254.194 338.597L253.52 340.848L199.326 368.521C197.975 366.947 196.626 365.146 195.053 363.347L260.265 320.148Z" fill="#F8CD5B"/>
<path d="M199.324 369.196L194.603 363.346L260.94 319.248L260.265 321.047C260.04 321.723 259.815 322.397 259.591 323.072L253.744 341.297H253.519L199.324 369.196ZM195.726 363.57L199.549 368.07L253.294 340.621L258.916 322.623C259.141 322.173 259.141 321.723 259.365 321.272L195.726 363.57Z" fill="#F8CD5B"/>
<path d="M178.635 343.548C183.358 342.648 188.98 343.098 192.577 345.123L185.381 351.423C182.908 348.948 180.884 346.248 178.635 343.548Z" fill="#F8CD5B"/>
<path d="M185.158 352.098L177.736 343.324L178.411 343.098C183.583 341.974 189.205 342.648 192.578 344.899L193.028 345.123L185.158 352.098ZM179.31 343.774L185.158 350.973L191.679 345.349C188.755 343.548 183.807 343.098 179.31 343.774Z" fill="#F8CD5B"/>
<path d="M167.616 279.875L173.913 293.149C174.137 293.599 174.587 294.049 175.262 294.049H175.488C175.937 294.049 176.387 293.824 176.837 293.374L185.606 283.024C189.429 283.474 193.251 283.924 197.3 284.149C197.524 284.375 197.975 284.375 198.199 284.149C202.022 284.375 206.07 284.599 210.118 284.599C210.342 284.599 210.342 284.599 210.568 284.599C210.792 284.599 210.792 284.599 211.017 284.599C211.467 284.599 212.141 284.599 212.591 284.599C216.639 284.599 220.461 284.375 224.509 284.149L233.055 294.725C233.279 295.175 233.729 295.399 234.404 295.399C234.854 295.399 235.303 295.175 235.753 294.725L244.299 281.9C252.169 280.325 259.364 277.85 265.661 274.7C264.762 277.624 263.413 281.225 261.838 284.149L240.7 302.598C212.366 311.598 186.506 309.799 167.841 297.424C157.723 290.675 150.751 280.999 148.727 271.775C152.549 274.25 157.048 276.275 162.444 278.3C163.793 278.974 165.593 279.425 167.616 279.875Z" fill="#F8CD5B"/>
<path d="M206.968 308.898C192.127 308.898 178.635 305.298 167.841 297.873C157.721 291.124 150.526 281.448 148.502 271.774L148.276 270.874L149.177 271.324C153.224 273.799 157.721 276.05 162.669 277.849C164.018 278.299 165.817 278.974 167.841 279.424H168.065V279.649L174.362 292.923C174.587 293.373 174.812 293.599 175.262 293.599C175.711 293.599 176.161 293.599 176.385 293.149L185.38 282.574H185.606C189.429 283.024 193.476 283.473 197.299 283.699H197.524C197.749 283.699 197.973 283.699 198.199 283.699C202.246 283.923 206.293 284.149 210.116 284.149H210.342C210.566 284.149 210.791 284.149 211.017 284.149C215.514 284.149 220.011 284.149 224.509 283.699H224.733L233.503 294.273C233.728 294.498 234.178 294.724 234.402 294.724C234.853 294.724 235.303 294.498 235.527 294.273L244.073 281.224H244.297C252.618 279.649 259.813 277.174 265.435 274.025L266.335 273.575L266.11 274.474C265.211 277.174 263.862 280.998 262.062 284.149L240.925 302.599H240.699C229.006 307.098 217.538 308.898 206.968 308.898ZM149.401 272.674C151.65 281.674 158.62 290.898 168.065 297.199C186.505 309.573 212.366 311.373 240.475 302.373L261.388 284.149C262.961 281.448 264.086 278.299 264.985 275.6C259.364 278.525 252.393 280.774 244.522 282.349L236.202 294.948C235.753 295.398 235.303 295.848 234.628 295.848C233.954 295.848 233.503 295.624 233.053 295.174L224.733 284.824C220.461 285.049 215.963 285.274 211.465 285.274C211.017 285.274 210.791 285.274 210.342 285.274C206.519 285.274 202.471 285.049 198.423 284.824C197.973 284.824 197.749 284.824 197.299 284.824C193.476 284.599 189.429 284.149 185.83 283.699L177.06 293.823C176.611 294.273 175.936 294.724 175.262 294.498C174.587 294.498 173.912 294.049 173.687 293.373L167.391 280.324C165.367 279.874 163.793 279.199 162.443 278.749C157.497 276.949 153.224 274.924 149.401 272.674Z" fill="#F8CD5B"/>
<path d="M171.665 280.999C174.589 281.675 177.962 282.35 181.56 282.8L175.712 289.549L171.665 280.999Z" fill="white"/>
<path d="M175.713 290.222L170.99 280.323L171.89 280.548C174.813 281.223 178.186 281.897 181.784 282.347H182.459L175.713 290.222ZM172.339 281.448L175.938 288.648L180.885 282.797C177.961 282.573 175.038 282.123 172.339 281.448Z" fill="white"/>
<path d="M200.897 281.451L204.945 275.376L208.093 281.901C205.845 281.675 203.371 281.451 200.897 281.451Z" fill="white"/>
<path d="M208.769 282.124H208.094C205.62 282.124 203.147 281.9 200.897 281.9H200.223L205.17 274.475L208.769 282.124ZM201.572 281C203.595 281 205.395 281.225 207.418 281.225L204.946 276.05L201.572 281Z" fill="white"/>
<path d="M228.782 284.374C232.605 284.148 236.203 283.698 239.802 283.023L234.404 291.348L228.782 284.374Z" fill="white"/>
<path d="M234.404 292.023L227.883 283.923H228.557C232.38 283.699 236.203 283.023 239.576 282.573L240.476 282.348L234.404 292.023ZM229.682 284.598L234.404 290.448L239.127 283.473C235.979 283.923 232.83 284.373 229.682 284.598Z" fill="white"/>
<path d="M272.632 270.426C272.858 270.426 272.858 270.651 273.082 270.651C273.981 271.326 274.881 271.777 276.006 272.227L267.91 279.202C268.809 276.501 269.484 274.026 269.934 272.451C270.834 271.777 271.733 271.101 272.632 270.426Z" fill="#5BCC85"/>
<path d="M266.786 280.549L267.236 278.975C268.135 276.274 268.81 273.799 269.26 272.224V272H269.484C270.383 271.324 271.284 270.649 272.182 269.975L272.408 269.749L272.857 269.975C272.857 269.975 273.083 269.975 273.083 270.199C273.982 270.874 274.882 271.324 276.005 271.55L276.68 271.774L266.786 280.549ZM270.159 272.674C269.709 274.025 269.26 275.824 268.585 277.849L274.882 272.224C273.982 271.774 273.307 271.324 272.633 270.874C272.633 270.874 272.633 270.874 272.408 270.874C271.958 271.55 271.059 272 270.159 272.674Z" fill="#5BCC85"/>
<path d="M153.674 288.876C157.047 293.15 161.32 296.975 166.041 300.35C177.51 308 191.452 311.825 206.744 311.825C215.738 311.825 225.183 310.475 234.853 308L211.691 328.25C205.619 320.149 196.85 315.199 186.28 314.3C176.387 313.624 166.267 316.549 160.421 321.949C154.799 315.2 150.75 310.475 149.627 308.9C148.502 307.55 147.377 306.425 146.028 305.525C147.377 300.801 150.076 294.05 153.674 288.876Z" fill="#5BCC85"/>
<path d="M211.691 328.698L211.467 328.248C205.62 320.149 196.624 315.423 186.506 314.523C176.835 313.849 166.942 316.774 160.87 322.174L160.645 322.398L160.421 322.174C154.349 314.749 150.526 310.473 149.627 309.124C148.502 307.774 147.377 306.649 146.253 305.749L146.028 305.523V305.299C146.703 303.05 148.952 294.949 153.45 288.424L153.674 287.974L154.124 288.424C157.497 292.7 161.77 296.524 166.492 299.674C177.736 307.324 191.452 311.149 206.969 311.149C215.738 311.149 225.183 309.799 234.853 307.324L236.652 306.874L211.691 328.698ZM183.582 313.849C184.481 313.849 185.606 313.849 186.506 314.074C196.85 314.973 205.845 319.699 211.916 327.798L233.503 308.899C224.284 311.149 215.514 312.274 206.969 312.274C191.228 312.274 177.286 308.449 166.041 300.575C161.32 297.424 157.272 293.824 153.898 289.55C149.627 295.625 147.602 303.05 146.927 305.523C148.052 306.424 149.177 307.55 150.301 308.899C151.425 310.249 155.023 314.299 160.87 321.498C166.041 316.774 174.812 313.849 183.582 313.849Z" fill="#5BCC85"/>
<path d="M186.28 317.673C195.951 318.349 204.046 322.848 209.443 330.498L205.17 334.323C192.353 326.448 176.162 327.798 167.841 330.724C166.043 328.699 164.468 326.674 162.895 324.648C168.066 319.699 177.286 316.998 186.28 317.673Z" fill="#F8CD5B"/>
<path d="M204.945 334.772L204.721 334.546C191.003 325.997 174.587 328.472 167.842 330.946H167.616L162.22 324.422L162.444 324.197C167.842 319.247 177.061 316.322 186.281 317.222C195.951 317.897 204.271 322.621 209.667 330.046L209.893 330.272L204.945 334.772ZM182.683 327.797C189.654 327.797 197.75 329.146 204.945 333.646L208.768 330.272C203.372 323.071 195.501 318.797 186.056 317.897C177.287 317.222 168.516 319.697 163.119 324.422L167.616 329.822C171.214 328.922 176.611 327.797 182.683 327.797Z" fill="#F8CD5B"/>
<path d="M202.473 336.348L195.051 342.873C190.328 339.498 182.234 338.823 176.387 340.622C174.363 338.147 172.114 335.672 170.091 333.197C177.736 330.948 191.229 330.048 202.473 336.348Z" fill="#F8CD5B"/>
<path d="M195.051 343.547L194.827 343.323C190.104 339.723 181.784 339.498 176.387 341.072H176.161L169.416 332.973L170.091 332.747C178.861 330.048 192.353 329.823 202.697 335.898L203.147 336.122L195.051 343.547ZM183.358 339.273C187.406 339.273 191.903 340.172 194.827 342.423L201.572 336.573C191.678 331.172 179.085 331.172 170.541 333.647L176.161 340.398C178.411 339.722 180.885 339.273 183.358 339.273Z" fill="#F8CD5B"/>
<path d="M341.892 200.224C342.118 198.425 342.568 196.4 343.017 195.275C344.591 197.3 346.839 204.5 346.615 209.9L344.816 211.474C343.467 209.9 341.892 208.099 340.543 206.524C341.218 204.5 341.668 202.25 341.892 200.224Z" fill="#157048"/>
<path d="M345.042 212.152L344.818 211.926C343.469 210.351 341.894 208.552 340.545 207.202L340.32 206.977V206.751C340.769 204.502 341.219 202.477 341.669 200.452C341.894 198.652 342.344 196.627 342.794 195.502L343.018 194.827L343.469 195.502C345.042 197.752 347.291 204.952 347.291 210.351V210.577L345.042 212.152ZM341.219 206.527C342.568 207.876 343.917 209.452 345.042 210.801L346.391 209.677C346.391 204.952 344.592 199.102 343.243 196.177C343.018 197.302 342.794 198.876 342.568 200.002C342.12 202.252 341.669 204.502 341.219 206.527Z" fill="#157048"/>
<path d="M326.825 188.754C327.95 190.105 329.749 193.48 330.874 197.98C329.525 197.08 328.174 195.955 326.825 195.055C326.601 191.455 326.825 189.655 326.825 188.754Z" fill="#157048"/>
<path d="M331.548 199.103L330.649 198.427C329.3 197.527 327.951 196.403 326.601 195.502H326.376V195.278C326.152 191.678 326.152 189.878 326.376 188.978L326.601 188.079L327.277 188.753C328.4 190.103 330.199 193.703 331.324 198.203L331.548 199.103ZM327.277 194.828C328.176 195.502 329.3 196.178 330.199 196.853C329.3 193.703 328.176 191.228 327.277 189.878C327.051 190.778 327.051 192.353 327.277 194.828Z" fill="#157048"/>
<path d="M183.584 227.226C187.181 226.776 191.004 226.55 194.602 226.55C198.201 226.55 202.024 226.55 205.621 226.776H205.846C206.97 226.776 207.644 225.651 207.42 224.751C206.745 218 207.196 211.251 209.668 205.177C212.142 199.102 216.865 194.152 222.936 191.677C225.86 190.327 229.232 189.652 232.381 189.427C235.529 189.202 238.902 189.877 242.05 190.777C245.198 191.902 248.122 193.476 250.82 195.277C253.518 197.302 255.768 199.552 257.567 202.476C257.567 202.476 257.567 202.476 257.567 202.702C257.117 204.052 256.892 205.177 256.442 206.526C256.442 206.751 256.442 207.202 256.892 207.426C257.341 207.652 257.791 207.426 257.791 206.976C258.466 205.627 258.916 204.276 259.591 203.152C260.041 202.926 260.265 202.252 260.265 201.801C261.39 199.777 262.739 197.976 264.312 196.401C267.236 193.476 270.609 191.001 274.432 189.652C278.255 188.077 282.528 187.402 286.801 187.177C291.072 186.952 295.345 187.402 299.392 188.302C301.416 188.752 303.441 189.202 305.689 189.877C307.713 190.552 309.738 191.227 311.761 192.127C315.808 193.702 319.631 195.727 323.23 197.976C326.827 200.227 330.201 202.926 333.349 205.851C336.272 208.552 338.97 211.251 341.669 214.401L278.03 270.199C276.681 269.749 275.332 269.073 274.207 268.399C272.858 267.499 271.734 266.374 271.059 264.799C270.385 263.449 269.934 261.65 269.71 260.075C269.484 258.275 269.71 256.474 270.159 254.899C270.159 254.449 270.159 253.999 269.71 253.775C269.26 253.549 268.585 253.775 268.361 254.225C267.236 256.024 266.786 258.049 266.562 260.299C266.562 262.324 266.786 264.575 267.686 266.6C268.135 267.499 268.585 268.175 269.26 269.075C258.241 277.624 238.677 282.349 214.167 282.573C213.042 282.573 212.142 282.573 211.018 282.573L205.846 271.999C205.621 271.548 205.171 271.1 204.496 271.1C203.822 271.1 203.373 271.324 202.923 271.774L196.176 281.898C191.904 281.674 188.081 281.224 184.259 280.774C184.033 280.774 184.033 280.774 183.808 280.774C177.736 279.874 172.564 278.973 168.293 277.849C166.043 277.174 164.244 276.724 162.671 276.048C131.188 264.125 126.69 243.2 126.241 234.875C125.791 225.651 131.638 223.4 133.437 222.95C137.034 222.051 140.182 224.076 141.757 225.875C140.858 228.576 140.633 231.5 141.982 234.201C142.207 234.651 142.656 234.875 142.882 234.651C143.331 234.651 143.556 233.975 143.556 233.525C143.106 231.276 143.331 228.801 144.455 226.776C144.905 226.55 145.13 226.101 145.13 225.651C145.58 224.975 146.255 224.301 146.929 223.851C147.828 223.176 148.953 222.726 150.077 222.726C151.202 222.726 152.325 222.726 153.45 223.176C154.575 223.626 155.474 224.076 156.374 224.975C157.273 225.875 157.948 226.776 158.398 227.9C158.848 229.025 159.072 230.151 159.072 231.276C159.072 231.5 159.072 231.726 159.072 231.726C159.297 232.626 160.197 233.076 161.096 232.85C164.694 231.726 168.293 230.601 171.89 229.925C176.387 228.126 179.986 227.45 183.584 227.226Z" fill="#5BCC85"/>
<path d="M212.591 282.124C212.367 282.124 212.141 282.124 211.917 282.124H211.691L206.519 271.325C206.295 270.875 205.845 270.649 205.396 270.649C204.946 270.649 204.496 270.875 204.271 271.099L197.3 281.449H197.076C193.027 281.225 188.98 280.775 185.157 280.325C184.931 280.325 184.931 280.325 184.931 280.325C179.085 279.649 173.688 278.524 169.191 277.4C166.942 276.724 164.918 276.275 163.345 275.599C131.637 263.674 127.14 242.526 126.69 233.976C126.24 224.526 132.312 222.051 134.111 221.601C138.158 220.476 141.531 222.951 142.88 224.752L143.106 224.976V225.202C142.206 227.901 142.206 230.826 143.33 233.076C143.33 233.301 143.556 233.301 143.78 233.301C144.005 233.301 144.23 233.076 144.005 232.851C143.556 230.601 143.78 227.901 144.905 225.876C145.129 225.651 145.354 225.426 145.354 224.976C145.804 224.302 146.479 223.626 147.153 223.176C148.053 222.501 149.177 222.051 150.526 222.051C151.65 222.051 153 222.051 154.124 222.501C155.249 222.951 156.373 223.626 157.048 224.302C157.947 225.202 158.622 226.101 159.072 227.451C159.522 228.576 159.971 229.926 159.746 230.826C159.746 231.051 159.746 231.051 159.746 231.277C159.746 231.501 159.971 231.951 160.421 231.951C160.645 232.177 161.095 232.177 161.32 231.951L161.77 231.727C165.368 230.601 168.517 229.476 172.114 228.802C175.488 228.126 179.31 227.451 183.133 227.001C186.73 226.551 190.329 226.327 194.152 226.327C197.975 226.327 201.797 226.327 205.17 226.551H205.396C206.295 226.551 206.745 225.651 206.745 224.976C206.07 217.551 206.745 210.802 209.219 205.178C211.691 198.877 216.639 193.927 222.711 191.452C225.859 190.102 229.007 189.428 232.38 189.203C235.753 188.977 238.901 189.428 242.274 190.552C245.422 191.678 248.346 193.253 251.044 195.278C253.968 197.303 256.216 199.778 257.791 202.477L258.015 202.703V202.927C257.565 204.277 257.341 205.402 256.891 206.752C256.891 206.977 256.891 206.977 257.116 207.203H257.341C257.341 207.203 257.565 207.203 257.565 206.977C258.241 205.627 258.69 204.277 259.364 203.152C259.59 202.927 259.814 202.477 259.814 202.253C261.164 200.002 262.513 198.203 264.087 196.627C267.01 193.703 270.608 191.228 274.431 189.652C278.03 188.303 282.301 187.403 286.799 187.178C291.072 186.953 295.345 187.403 299.616 188.303C301.191 188.527 302.765 188.977 304.339 189.428C304.79 189.652 305.238 189.653 305.913 189.878L307.038 190.328C308.612 190.778 310.41 191.452 311.985 192.127C316.032 193.703 319.855 195.728 323.454 197.977C327.052 200.452 330.649 202.927 333.797 205.852C336.496 208.327 339.195 211.027 342.118 214.402L342.343 214.626L342.118 214.852L278.254 270.649H278.03C276.455 270.199 275.106 269.525 273.981 268.624C272.632 267.725 271.283 266.375 270.608 265.025C269.934 263.674 269.259 261.875 269.259 260.075C269.034 258.276 269.259 256.475 269.709 254.675C269.709 254.45 269.709 254 269.484 254C269.259 253.776 268.809 254 268.585 254.226C267.685 256.025 267.01 258.05 267.01 260.075C266.786 262.325 267.236 264.35 268.135 266.149C268.585 267.05 269.034 267.725 269.709 268.4L269.934 268.624L269.709 268.85C258.69 277.4 238.901 282.35 214.391 282.574C214.165 282.124 213.49 282.124 212.591 282.124ZM212.141 281.225C213.041 281.225 213.94 281.225 215.065 281.225C239.351 280.999 258.69 276.275 269.709 267.95C269.259 267.275 268.809 266.6 268.359 265.701C267.46 263.674 267.01 261.425 267.01 259.175C267.236 256.925 267.685 254.9 268.809 253.1C269.259 252.425 270.158 252.2 270.833 252.65C271.283 252.876 271.733 253.55 271.507 254.226C271.059 255.801 270.833 257.6 271.059 259.4C271.283 260.975 271.507 262.775 272.408 263.9C273.082 265.25 274.207 266.375 275.556 267.275C276.455 267.95 277.58 268.4 279.153 269.075L342.343 213.727C339.644 210.577 336.946 207.877 334.248 205.627C331.099 202.927 327.727 200.228 324.128 197.753C320.53 195.502 316.707 193.477 312.884 191.903C311.311 191.228 309.511 190.552 307.938 190.102L306.813 189.652C306.363 189.428 305.913 189.428 305.464 189.203C303.889 188.753 302.316 188.303 300.741 188.077C296.694 187.178 292.421 186.728 288.148 186.953C283.65 187.178 279.603 187.853 276.005 189.203C272.182 190.778 268.809 193.027 265.887 195.952C264.312 197.527 263.187 199.327 261.838 201.352C261.838 202.027 261.388 202.477 260.939 202.927C260.265 204.052 259.59 205.402 259.14 206.752C258.916 206.977 258.69 207.203 258.465 207.427C258.241 207.651 257.791 207.427 257.565 207.427C257.116 207.203 256.891 206.752 256.891 206.077C257.116 204.952 257.341 203.602 257.791 202.477C256.216 200.002 253.968 197.527 251.27 195.502C248.57 193.477 245.648 191.903 242.724 191.002C239.576 189.878 236.427 189.428 233.279 189.652C230.131 189.878 226.982 190.552 223.835 191.903C217.988 194.378 213.266 199.102 210.792 205.178C208.544 210.802 207.644 217.551 208.544 224.526C208.769 225.876 207.868 226.777 206.519 227.001C206.295 227.001 206.295 227.001 206.07 227.001C202.472 226.777 198.874 226.551 195.051 226.777C191.228 226.777 187.631 227.001 184.032 227.451C180.209 227.901 176.611 228.351 173.238 229.252C169.866 229.926 166.493 231.051 162.894 232.176L162.444 232.401C161.994 232.626 161.32 232.626 160.871 232.176C160.421 231.951 159.971 231.501 159.746 231.051C159.746 230.826 159.746 230.601 159.746 230.376C159.746 229.476 159.522 228.126 159.072 227.227C158.622 226.101 157.947 225.202 157.272 224.302C156.598 223.401 155.473 222.951 154.574 222.501C153.674 222.051 152.325 222.051 151.426 222.051C150.301 222.051 149.402 222.501 148.502 223.176C147.828 223.626 147.379 224.076 146.929 224.752C146.929 225.202 146.479 225.876 146.028 226.101C145.129 228.126 144.679 230.376 145.354 232.401C145.58 233.076 145.129 233.752 144.455 233.976C143.78 234.202 143.33 233.752 143.106 233.301C141.981 230.826 141.757 227.901 142.88 224.976C141.531 223.401 138.608 221.377 135.234 222.277C133.436 222.727 127.814 224.976 128.265 233.752C128.713 242.075 133.211 262.775 164.468 274.699C166.043 275.375 167.842 275.825 170.09 276.499C174.363 277.624 179.759 278.524 185.607 279.425C185.832 279.425 185.832 279.425 186.056 279.425C189.879 279.875 193.702 280.325 197.524 280.549L204.045 270.649C204.496 269.975 205.17 269.75 205.845 269.75C206.519 269.75 207.194 270.199 207.644 270.875L212.141 281.225Z" fill="#5BCC85"/>
<path d="M105.777 160.854C106.002 160.629 106.676 160.854 107.351 161.528C109.15 164.003 113.872 169.629 115.221 171.204C115.671 172.103 116.121 173.003 116.571 173.903C116.795 174.353 117.47 174.578 117.92 174.353C118.37 174.128 118.595 173.453 118.37 173.003C118.145 172.779 117.02 172.103 117.02 171.878C117.695 171.204 117.47 170.754 117.02 169.853C117.02 169.853 117.92 169.403 117.47 168.729C117.47 168.503 117.695 168.279 117.695 168.053C117.92 167.603 118.595 167.154 119.494 166.928C119.944 166.928 120.393 166.704 121.068 166.704C121.068 167.154 121.293 167.829 121.293 168.279C121.743 169.403 122.192 170.528 122.867 171.428C123.092 171.878 123.767 172.103 124.217 171.654C124.666 171.428 124.891 170.754 124.666 170.304C124.217 169.403 123.767 168.503 123.767 167.603C123.767 167.154 123.767 166.704 123.767 166.254C123.991 166.028 124.217 165.578 124.217 165.354C124.666 164.904 125.116 164.679 125.79 164.453C126.465 164.229 127.139 164.229 127.814 164.229C128.264 164.904 128.489 165.578 128.939 166.254C129.163 166.704 129.613 166.928 130.063 166.704C130.512 166.478 130.962 166.028 130.738 165.578C130.512 164.904 130.288 164.003 130.063 163.329C130.288 163.103 129.389 162.654 129.389 162.429C129.389 161.754 129.838 161.304 129.389 161.078C129.163 160.404 128.939 159.729 128.714 159.053C128.264 157.929 128.04 156.804 127.59 155.904L126.915 154.329L126.689 153.655C126.689 153.429 126.689 153.204 126.689 153.204C126.689 152.979 126.689 152.754 126.915 152.529C126.915 152.304 127.139 152.304 127.139 152.304C127.365 152.304 128.04 152.304 128.489 152.979L128.714 153.204L128.939 153.429L129.389 154.103L130.288 155.454L132.087 158.379L147.154 181.328L157.948 197.753L152.775 218.452C152.1 218.452 151.426 218.452 150.751 218.452C149.177 218.677 147.378 219.352 146.254 220.252C145.579 220.702 145.129 221.151 144.68 221.827C143.105 220.252 141.082 219.126 138.834 218.676C135.685 213.052 107.801 165.354 106.226 162.204C105.777 161.528 105.552 161.078 105.777 160.854Z" fill="#1B806A"/>
<path d="M144.455 222.501L144.23 222.277C142.655 220.702 140.632 219.577 138.608 219.127H138.384V218.902C133.212 209.902 107.351 165.354 105.777 162.429C105.327 161.528 105.327 160.854 105.777 160.629C106.226 160.404 107.126 160.404 107.801 161.528C109.6 164.003 114.547 170.079 115.671 171.204V171.428C115.896 172.328 116.346 173.229 117.02 174.129C117.245 174.353 117.47 174.579 117.92 174.353C118.145 174.129 118.37 173.903 118.145 173.453C118.145 173.453 117.695 173.229 117.47 173.003C117.02 172.779 116.796 172.554 116.571 172.104L116.346 171.878L116.571 171.654C116.796 171.428 117.02 171.204 116.346 170.304L116.121 170.079V169.629L116.346 169.403C116.795 169.179 116.796 168.953 116.796 168.953L116.571 168.729V168.503C116.571 168.279 116.796 168.054 116.796 167.829C117.02 167.378 117.92 166.928 118.819 166.704C119.269 166.704 119.719 166.478 120.393 166.478H120.843V166.928C120.843 167.378 121.068 167.829 121.068 168.279C121.293 169.179 121.743 170.304 122.642 171.428C122.867 171.654 123.092 171.654 123.317 171.654C123.541 171.654 123.541 171.428 123.541 171.204C123.541 170.978 123.541 170.978 123.541 170.754C123.092 169.853 122.642 168.729 122.417 168.054C122.192 167.604 122.192 166.928 122.417 166.478V166.254C122.642 166.028 122.642 165.804 122.867 165.579V165.354C123.317 164.903 123.767 164.679 124.666 164.453C125.34 164.229 126.015 164.229 126.915 164.229H127.14L127.364 164.453C127.814 165.129 128.039 165.804 128.489 166.478C128.713 166.704 128.939 166.704 129.163 166.704C129.389 166.704 129.389 166.478 129.389 166.478C129.389 166.254 129.389 166.254 129.389 166.028C129.163 165.354 128.939 164.453 128.713 163.779V163.554C128.713 163.554 128.713 163.554 128.489 163.329C128.264 163.104 128.039 162.879 128.039 162.654C128.039 162.429 128.039 162.204 128.264 161.978V161.754H128.039C127.814 161.079 127.59 160.404 127.364 159.729L126.915 158.604C126.69 157.929 126.465 157.03 126.015 156.354L125.116 154.105C125.116 153.879 125.116 153.654 125.116 153.429C125.116 152.979 125.116 152.754 125.34 152.529C125.566 152.304 125.791 152.08 126.015 152.08C126.465 151.854 127.14 152.08 127.814 152.979L128.039 153.204L131.413 158.379L146.478 181.328L157.498 197.753L152.326 218.902H151.876C151.201 218.902 150.527 218.902 150.077 218.902C148.503 219.127 146.928 219.802 145.804 220.702C145.355 221.152 144.679 221.602 144.23 222.277L144.455 222.501ZM138.833 218.452C140.857 218.902 142.881 220.026 144.455 221.377C144.905 220.927 145.355 220.476 145.804 220.026C147.153 218.902 148.728 218.227 150.527 218.001C150.976 218.001 151.65 218.001 152.326 218.001L157.272 197.753L146.478 181.553L128.039 153.429L127.814 153.204C127.364 152.754 126.915 152.529 126.915 152.529C126.915 152.529 126.915 152.754 126.915 152.979C126.915 153.204 126.915 153.204 126.915 153.429L127.14 153.879L127.814 155.454C128.039 156.129 128.264 157.03 128.713 157.704L129.163 158.829C129.389 159.503 129.613 160.179 129.838 160.854C130.288 161.079 130.063 161.754 130.063 161.978C130.063 162.204 130.063 162.204 130.063 162.429C130.063 162.429 130.288 162.429 130.288 162.654C130.512 162.879 130.738 163.104 130.738 163.329C130.962 164.003 131.187 164.679 131.413 165.579C131.413 166.029 131.413 166.254 131.187 166.704C130.962 166.928 130.738 167.154 130.288 167.378C129.613 167.604 129.163 167.154 128.713 166.704C128.264 166.029 128.039 165.354 127.59 164.904C126.915 164.904 126.241 164.904 125.791 165.129C125.116 165.354 124.666 165.579 124.441 165.804C124.441 166.254 124.216 166.478 123.991 166.704C123.991 167.154 123.991 167.378 123.991 167.829C124.216 168.503 124.441 169.403 124.89 170.304C125.116 170.754 125.116 170.978 125.116 171.428C125.116 171.878 124.666 172.104 124.441 172.328C123.767 172.779 123.092 172.554 122.642 171.878C121.968 170.754 121.293 169.629 121.068 168.503C120.843 168.054 120.843 167.829 120.843 167.378C120.393 167.378 120.169 167.378 119.719 167.604C119.044 167.829 118.37 168.054 118.145 168.503C118.145 168.503 117.92 168.729 117.92 168.953C117.92 169.179 117.92 169.403 117.92 169.403C117.92 169.629 117.695 170.079 117.47 170.079C117.92 170.754 117.92 171.428 117.47 171.878C117.695 171.878 117.695 172.104 117.92 172.104C118.37 172.328 118.594 172.554 118.819 172.779C119.269 173.453 119.044 174.353 118.145 174.803C117.47 175.254 116.571 175.028 116.346 174.353C115.671 173.453 115.221 172.554 114.996 171.654C113.872 170.304 109.15 164.453 107.351 161.978C106.901 161.528 106.676 161.304 106.451 161.304C106.451 161.304 106.451 161.754 106.676 161.978C107.801 165.129 135.235 212.153 138.833 218.452Z" fill="#1B806A"/>
<path d="M50.2333 305.075C51.1328 303.274 52.7069 302.6 54.7307 302.6H127.14C135.46 302.6 141.981 305.525 147.153 311.374C151.426 316.549 195.501 369.197 206.07 381.796H198.199C193.253 375.946 150.752 325.773 144.905 318.574C138.383 310.475 132.536 307.774 121.968 307.774H54.9556C52.9317 307.774 50.9078 308.224 49.7836 309.349C49.5586 307.55 49.7836 306.199 50.2333 305.075Z" fill="#F76779"/>
<path d="M206.97 382.021H197.975L197.751 381.797C195.726 379.546 150.527 325.998 144.456 318.573C138.159 310.699 132.087 307.774 121.743 307.774H54.7313C52.7074 307.774 50.9085 308.224 49.784 309.124L49.1094 309.573V308.899C49.1094 307.324 49.3343 305.974 49.784 304.849C50.6835 303.049 52.2577 302.15 54.7313 302.15H127.141C135.685 302.15 142.206 305.073 147.378 311.149C151.877 316.324 197.075 370.772 206.296 381.571L206.97 382.021ZM198.425 381.121H205.171C195.051 368.972 151.201 316.548 146.929 311.374C141.982 305.524 135.461 302.824 127.141 302.824H54.7313C52.7074 302.824 51.3582 303.499 50.4587 305.074C50.009 305.974 49.784 306.874 49.784 307.999C51.1333 307.324 52.7074 306.874 54.7313 306.874H121.743C132.313 306.874 138.383 309.799 145.13 317.899C151.201 325.548 195.277 377.521 198.425 381.121Z" fill="#F76779"/>
<path d="M51.3567 314.299C51.1318 314.073 51.1318 313.849 50.907 313.623C50.682 313.399 50.682 312.948 50.907 312.498C51.3567 311.824 52.4811 310.924 54.9547 310.924H121.967C131.636 310.924 136.584 313.173 142.43 320.598C147.827 327.348 184.481 370.546 193.926 381.795H106.001C89.3603 361.096 53.6054 316.998 51.3567 314.299Z" fill="#F76779"/>
<path d="M194.827 382.021H106.002L105.777 381.795C90.036 362.446 53.3818 316.998 51.1331 314.523C50.9082 314.298 50.9082 314.073 50.6833 313.848C50.4584 313.397 50.4584 312.949 50.6833 312.499C51.1331 311.598 52.4823 310.474 54.9559 310.474H121.968C131.638 310.474 136.81 312.949 142.656 320.372C147.828 326.897 183.358 368.972 194.152 381.571L194.827 382.021ZM106.227 381.121H193.028C181.559 367.621 147.154 327.123 141.982 320.598C136.135 313.397 131.412 311.148 121.968 311.148H54.9559C52.7071 311.148 51.5828 312.048 51.3579 312.499C51.3579 312.723 51.3579 312.947 51.3579 313.173C51.5828 313.397 51.5828 313.623 51.8076 313.848C54.0563 316.773 90.4857 361.771 106.227 381.121Z" fill="#F76779"/>
<path d="M108.7 384.945H266.786H282.752V391.47H113.872C113.198 390.345 111.174 388.094 108.7 384.945Z" fill="#F76779"/>
<path d="M283.202 391.921H113.872L108.025 384.722H283.426V391.921H283.202ZM114.097 391.021H282.302V385.396H109.6L114.097 391.021Z" fill="#F76779"/>
<path d="M383.045 391.472C383.271 384.947 382.821 373.022 380.797 365.599C383.495 362.674 385.969 359.523 388.667 356.149C390.916 361.099 394.065 370.323 394.515 377.298C390.692 382.698 386.868 387.422 383.045 391.472Z" fill="#F8CD5B"/>
<path d="M383.269 391.921H382.37V391.472C382.82 384.722 382.37 373.023 380.347 365.822V365.598L380.571 365.372C383.045 362.448 385.743 359.297 388.217 355.922L388.667 355.248L388.891 355.922C391.365 361.548 394.289 370.548 394.738 377.297V377.522V377.747C390.915 382.921 387.092 387.647 383.269 391.921ZM381.246 365.822C383.045 372.797 383.719 383.821 383.269 390.572C386.868 386.747 390.466 382.247 393.839 377.297C393.389 370.548 390.24 361.772 388.441 357.048C385.969 360.198 383.495 363.123 381.246 365.822Z" fill="#F8CD5B"/>
<path d="M414.301 337.697C413.851 336.348 413.626 334.998 413.177 333.873L415.875 333.197C415.2 334.772 414.75 336.348 414.301 337.697Z" fill="#F8CD5B"/>
<path d="M414.076 339.272L413.852 337.921C413.628 336.572 413.177 335.222 412.727 334.097L412.503 333.647L416.326 332.747L416.101 333.422C415.651 334.998 415.201 336.347 414.527 337.921L414.076 339.272ZM413.628 334.097C413.852 334.772 414.076 335.446 414.302 336.122C414.527 335.222 414.977 334.548 415.201 333.647L413.628 334.097Z" fill="#F8CD5B"/>
<path d="M78.7928 263.448C80.1421 264.348 80.8167 265.698 80.8167 267.273C80.8167 268.848 79.9172 270.198 78.568 271.323C77.2188 272.447 75.4198 273.123 73.3959 273.348C71.372 273.572 69.5731 273.348 68.4487 272.447C67.0995 271.547 66.4248 270.422 66.4248 269.072C66.4248 267.497 66.8745 266.148 68.2239 265.022C69.5731 263.898 71.1472 262.998 73.3959 262.773C75.4198 262.323 77.4436 262.547 78.7928 263.448ZM70.0228 268.622C70.0228 269.298 71.372 269.522 73.3959 269.298C75.4198 269.072 76.769 268.398 76.769 267.723C76.769 267.047 75.4198 266.823 73.3959 267.047C71.372 267.497 70.0228 267.947 70.0228 268.622Z" fill="black"/>
<path d="M71.1478 260.974L68.4494 261.424C68.4494 259.849 67.325 258.725 65.9758 258.5L65.751 255.125L81.2671 252.424L81.0422 257.15L71.1478 258.725V260.974Z" fill="black"/>
<path d="M79.6924 237.574C81.2665 238.699 82.166 240.275 81.9411 242.749C81.9411 244.999 81.0416 247.024 79.2426 248.599C77.6685 250.174 75.6446 251.3 73.171 251.749C70.6975 252.199 68.8984 251.974 67.3244 251.074C65.7502 250.174 65.0756 248.599 64.8508 246.574C64.6258 244.325 65.3005 242.524 66.8745 240.724C68.4487 238.925 70.4726 237.8 72.9462 237.124C75.8695 236.224 78.1182 236.45 79.6924 237.574ZM69.3482 245.45C69.3482 246.35 70.9223 246.574 73.171 246.124C75.6446 245.674 77.2188 244.775 77.2188 243.875C77.2188 242.975 75.6446 242.749 73.171 243.199C70.9223 243.649 69.3482 244.549 69.3482 245.45Z" fill="black"/>
<path d="M80.3678 216.424C82.1668 217.775 83.0662 219.799 82.8414 222.725C82.6165 225.65 81.717 228.125 79.9181 230.15C78.1191 232.174 75.8703 233.525 73.1719 234.199C70.4735 234.874 68.4496 234.649 66.6506 233.525C65.0765 232.399 64.177 230.6 63.9522 228.125C63.7272 225.424 64.6267 222.949 66.2009 220.924C67.775 218.675 70.0237 216.874 72.9471 215.975C76.0952 215.075 78.5689 215.075 80.3678 216.424ZM68.8993 226.774C68.8993 227.899 70.6983 228.125 73.1719 227.449C75.8703 226.774 77.6694 225.424 77.6694 224.299C77.6694 223.175 75.8703 222.949 73.1719 223.849C70.4735 224.525 68.6745 225.65 68.8993 226.774Z" fill="black"/>
<path d="M81.2672 189.424C83.2911 190.999 84.1906 193.474 84.1906 197.299C83.9658 200.899 82.8414 204.048 80.8175 206.973C78.7936 209.673 76.32 211.473 73.1718 212.598C70.2485 213.723 67.7748 213.498 65.9759 212.148C64.1769 210.799 63.0525 208.548 63.0525 205.399C62.8276 202.023 63.7271 198.874 65.5262 195.949C67.3251 192.799 70.0235 190.549 73.1718 189.2C76.32 187.849 79.2434 187.849 81.2672 189.424ZM68.2246 203.374C68.2246 204.723 70.0235 204.949 73.1718 203.824C76.0952 202.698 78.1191 200.899 78.3439 199.548C78.3439 198.198 76.32 197.974 73.1718 199.098C70.0235 200.449 68.2246 202.023 68.2246 203.374Z" fill="black"/>
<path d="M69.7979 186.277L65.7501 188.076C65.5253 184.476 64.176 182.452 61.9273 182.452L61.4775 174.576L85.3142 162.427L84.8643 173.902L69.7979 181.101V186.277Z" fill="black"/>
<path d="M69.3487 165.351L64.8512 167.826C64.6263 163.552 63.0523 161.077 60.5786 161.302L60.1289 151.852L86.439 135.878L85.7643 149.827L69.1238 159.052L69.3487 165.351Z" fill="black"/>
<path d="M84.6402 88.629C87.5636 91.104 88.9128 96.5038 88.688 104.378C88.2383 111.803 86.6641 118.553 83.5158 124.628C80.5926 130.477 76.9946 134.527 72.722 137.228C68.6743 139.927 65.3012 140.153 62.8276 138.128C60.354 136.103 58.7799 132.052 58.555 125.977C58.1053 119.453 59.2297 113.153 61.7032 106.853C64.1768 100.104 67.7749 94.7039 72.722 90.8789C77.4443 86.8291 81.7169 85.9291 84.6402 88.629ZM65.9758 120.803C65.9758 123.502 68.6743 123.502 72.722 120.578C76.9946 117.653 79.9179 113.603 79.9179 110.678C79.9179 107.753 76.9946 107.978 72.722 111.128C68.4494 114.278 65.751 118.103 65.9758 120.803Z" fill="black"/>
<path d="M288.374 290.674C288.148 292.248 287.7 293.373 287.025 294.048C286.349 294.498 285.45 294.273 284.776 293.373C284.101 292.473 283.427 290.898 282.976 288.873C282.526 286.848 282.526 285.274 282.526 283.699C282.752 282.124 282.976 281.224 283.651 280.548C284.326 279.874 285 279.874 285.675 280.774C286.35 281.674 287.025 283.023 287.474 285.048C288.374 287.074 288.599 289.099 288.374 290.674ZM284.551 283.923C284.326 284.149 284.326 285.498 284.776 287.299C285.226 289.099 285.675 290.448 285.9 290.224C286.125 289.998 286.125 288.649 285.675 286.624C285.45 284.824 285 283.699 284.551 283.923Z" fill="black"/>
<path d="M288.148 282.348L287.474 279.873C288.148 279.199 288.598 277.849 288.374 276.499L289.947 275.149L293.77 289.549L291.522 290.898L289.273 281.674L288.148 282.348Z" fill="black"/>
<path d="M300.516 282.35C300.291 284.375 299.617 285.724 298.492 286.4C297.367 287.074 296.468 286.85 295.344 285.949C294.445 284.825 293.545 283.249 292.87 280.999C292.195 278.749 291.971 276.724 292.195 274.925C292.421 273.124 292.87 271.774 293.995 270.875C294.895 269.975 296.018 269.975 296.919 270.649C298.043 271.55 298.942 273.124 299.617 275.375C300.516 278.074 300.741 280.325 300.516 282.35ZM295.119 274.925C294.669 275.149 294.895 276.95 295.344 278.975C296.018 281.224 296.693 282.35 297.143 282.124C297.593 281.9 297.367 280.099 296.693 277.85C296.244 275.825 295.569 274.475 295.119 274.925Z" fill="black"/>
<path d="M310.861 275.149C310.635 277.399 309.736 279.199 308.162 280.099C306.813 280.998 305.463 280.998 304.114 279.874C302.765 278.749 301.866 276.949 300.966 274.699C300.292 272.224 299.841 269.974 300.292 267.949C300.516 265.924 301.191 264.349 302.541 263.225C303.89 262.1 305.013 261.874 306.364 262.55C307.713 263.225 308.837 265.024 309.961 267.499C310.861 270.424 311.085 272.899 310.861 275.149ZM303.89 267.499C303.44 267.949 303.44 269.749 304.339 271.999C305.239 274.474 306.138 275.824 306.588 275.374C307.038 274.924 307.038 273.124 306.138 270.649C305.239 268.399 304.339 267.05 303.89 267.499Z" fill="black"/>
<path d="M324.578 265.925C324.128 268.626 323.004 270.651 320.98 272.001C319.181 273.126 317.382 273.35 315.583 272.225C313.785 271.101 312.435 269.3 311.535 266.601C310.636 263.9 310.186 261.425 310.411 259.176C310.636 256.925 311.535 254.901 313.11 253.551C314.684 251.975 316.483 251.527 318.282 252.201C320.081 252.876 321.655 254.676 323.004 257.376C324.353 260.076 325.027 263.001 324.578 265.925ZM315.134 257.826C314.459 258.501 314.684 260.301 315.808 263.001C316.933 265.701 318.056 267.051 318.731 266.601C319.405 266.151 319.181 263.9 318.056 261.201C316.933 258.501 315.808 257.376 315.134 257.826Z" fill="black"/>
<path d="M343.692 252.649C343.241 256.024 341.442 258.499 338.744 260.298C336.046 262.099 333.572 262.323 331.098 261.198C328.625 260.298 326.827 258.273 325.476 255.124C324.127 252.199 323.678 249.499 323.903 246.574C324.353 243.875 325.476 241.4 327.726 239.375C329.975 237.35 332.223 236.45 334.697 236.9C337.395 237.35 339.644 239.149 341.442 242.074C343.467 245.9 344.142 249.274 343.692 252.649ZM330.199 244.999C329.299 245.674 329.525 248.149 331.098 250.85C332.673 253.773 334.247 255.124 335.371 254.449C336.496 253.773 336.046 251.074 334.247 248.149C332.898 245.45 331.098 244.099 330.199 244.999Z" fill="black"/>
<path d="M342.792 237.123L340.318 233.299C342.792 231.048 343.916 227.899 343.241 225.424L348.863 220.25L365.279 242.297L356.06 248.373L346.389 233.973L342.792 237.123Z" fill="black"/>
<path d="M358.534 224.076L355.386 220.027C358.76 217.101 360.109 213.502 359.209 210.801L366.63 204.052L388.892 227.001L376.299 235.325L363.482 220.027L358.534 224.076Z" fill="black"/>
<path d="M260.265 200.902C260.491 200.678 260.491 200.678 260.715 200.452C258.692 197.303 256.218 194.828 253.294 192.578C250.371 190.328 247.223 188.529 243.625 187.403C240.252 186.278 236.429 185.604 232.606 185.828C228.783 186.054 225.185 186.728 221.812 188.303C218.44 189.653 215.291 191.903 212.593 194.603C209.894 197.303 207.87 200.452 206.521 203.828C205.172 207.203 204.272 210.802 203.823 214.402C203.597 217.327 203.373 220.252 203.597 223.177C200.45 222.952 197.526 222.952 194.378 222.952C190.555 222.952 186.732 223.177 182.909 223.627C179.087 224.076 175.264 224.752 171.665 225.427C168.743 226.101 165.594 227.001 162.671 227.902C162.446 227.001 162.222 226.327 161.772 225.427C161.097 224.076 160.197 222.501 159.073 221.377C157.949 220.252 156.374 219.352 154.801 218.902C153.226 218.452 151.652 218.227 149.853 218.452C148.279 218.677 146.48 219.352 145.356 220.252C144.007 221.377 143.108 222.501 142.432 224.076C141.083 227.001 140.858 230.377 142.207 233.076C142.432 233.526 142.882 233.752 143.106 233.526C143.556 233.526 143.782 232.851 143.782 232.401C143.108 229.926 143.782 227.227 144.906 225.202C145.58 224.076 146.255 223.177 147.155 222.727C148.054 222.051 149.178 221.602 150.303 221.602C151.428 221.602 152.551 221.601 153.676 222.051C154.801 222.501 155.699 222.952 156.6 223.852C157.499 224.752 158.173 225.652 158.623 226.777C159.073 227.902 159.298 229.026 159.298 230.152C159.298 230.377 159.298 230.601 159.298 230.601C159.522 231.501 160.423 231.951 161.322 231.727C164.92 230.601 168.517 229.476 172.115 228.802C175.714 227.902 179.311 227.451 182.909 227.001C186.508 226.551 190.331 226.327 193.928 226.327C197.526 226.327 201.349 226.327 204.947 226.551H205.172C206.297 226.551 206.971 225.427 206.745 224.526C206.071 217.777 206.521 211.027 208.995 204.952C211.469 198.878 216.19 193.928 222.262 191.453C225.185 190.104 228.559 189.428 231.707 189.203C234.854 188.978 238.228 189.653 241.377 190.554C244.525 191.678 247.448 193.253 250.146 195.053C252.845 197.078 255.093 199.328 256.892 202.253C257.117 202.703 257.791 202.927 258.242 202.927C259.591 202.253 259.816 201.578 260.265 200.902Z" fill="black"/>
<path d="M257.116 206.301C258.015 201.801 259.814 197.527 262.963 193.926C265.887 190.327 269.934 187.627 274.207 186.052C278.48 184.252 282.977 183.577 287.699 183.352C292.196 183.127 296.694 183.577 301.191 184.476C302.316 184.702 303.44 184.927 304.564 185.152L307.938 186.052C310.186 186.727 312.209 187.402 314.234 188.302C318.506 190.102 322.329 192.127 326.152 194.602C333.797 199.552 340.32 205.627 345.94 212.601C346.615 213.276 346.391 214.401 345.716 214.851C345.041 215.301 343.917 215.301 343.468 214.626C340.544 211.251 337.62 208.326 334.472 205.401C331.324 202.476 327.951 200.002 324.354 197.527C320.755 195.277 316.933 193.252 312.885 191.677C310.86 190.777 308.837 190.102 306.813 189.426C304.789 188.976 302.766 188.302 300.517 187.852C296.244 186.951 291.972 186.503 287.923 186.727C283.652 186.951 279.603 187.627 275.556 189.202C271.733 190.777 268.135 193.027 265.436 195.951C262.513 198.876 260.489 202.701 258.69 206.527C258.465 206.976 258.015 206.977 257.791 206.977C257.116 206.977 257.116 206.751 257.116 206.301Z" fill="black"/>
<path d="M362.132 394.619C361.908 394.619 361.458 394.619 361.232 394.395C360.558 393.944 360.333 392.819 360.783 392.144C369.103 379.095 374.725 353.896 375.624 325.322C376.525 296.748 372.701 269.299 365.281 252.2C364.83 251.3 365.281 250.399 366.18 249.949C367.08 249.499 367.979 249.949 368.429 250.849C384.619 288.873 382.145 365.145 363.706 393.944C363.031 394.395 362.582 394.619 362.132 394.619Z" fill="black"/>
<path d="M273.758 267.274C273.084 266.6 272.184 266.6 271.509 267.05C260.715 276.274 240.702 281.448 215.067 281.674C193.253 281.898 172.565 278.523 163.571 275.149C132.088 263.225 127.59 242.3 127.142 233.976C126.691 224.751 132.538 222.501 134.337 222.051C138.16 220.925 141.757 223.626 143.107 225.425C143.332 225.651 143.556 225.875 144.006 226.101V225.875C144.006 224.751 144.457 223.851 145.131 222.952C145.131 222.952 145.355 222.952 145.355 222.726C142.882 219.576 138.384 217.326 133.663 218.676C128.715 220.026 123.543 224.751 123.993 233.976C124.442 242.976 129.39 265.474 162.446 278.074C170.991 281.224 191.23 284.599 212.817 284.599C235.53 284.599 260.041 280.774 273.533 269.075C274.433 268.849 274.433 267.949 273.758 267.274Z" fill="black"/>
<path d="M270.834 254.224C270.384 256.023 270.16 257.823 270.384 259.398C270.609 261.199 270.834 262.773 271.733 264.122C272.408 265.473 273.533 266.823 274.882 267.723C276.231 268.622 277.805 269.298 279.603 269.973C280.504 270.198 280.954 271.097 280.728 271.997C280.504 272.898 279.605 273.348 278.929 273.122C276.905 272.672 274.882 271.997 273.082 270.873C271.283 269.748 269.71 267.948 268.811 265.923C267.911 263.898 267.462 261.649 267.686 259.622C267.686 257.598 268.361 255.348 269.485 253.548C269.71 253.098 270.384 252.873 270.834 253.099C270.834 253.099 271.059 253.548 270.834 254.224Z" fill="black"/>
<path d="M151.426 224.976C146.479 226.327 147.603 234.426 153 232.852C157.947 231.501 156.148 223.852 151.426 224.976Z" fill="black"/>
<path d="M134.113 226.551C129.165 227.9 130.29 236 135.686 234.425C140.634 233.076 138.835 225.201 134.113 226.551Z" fill="black"/>
<path d="M177.286 227C172.114 219.351 167.167 211.926 161.995 204.276L146.929 181.552L131.862 158.602L130.063 155.678L129.164 154.328L128.714 153.653L128.489 153.428L128.264 153.203C127.815 152.528 127.139 152.528 126.915 152.528C126.69 152.528 126.69 152.528 126.69 152.753C126.69 152.978 126.465 153.203 126.465 153.428C126.465 153.653 126.465 153.878 126.465 153.878L126.69 154.552L127.365 156.128C127.815 157.253 128.039 158.378 128.489 159.278C129.164 161.527 129.839 163.552 130.513 165.803C130.738 166.253 130.287 166.927 129.839 166.927C129.388 166.927 128.938 166.927 128.714 166.477C127.589 164.452 126.69 162.427 125.566 160.403C125.116 159.278 124.667 158.378 124.217 157.253L123.542 155.678C123.542 155.453 123.317 155.003 123.092 154.778C123.092 154.328 122.867 154.102 122.867 153.653C122.867 152.753 122.867 151.853 123.542 150.953C123.992 150.053 124.891 149.378 126.016 149.154C126.915 148.928 128.039 149.154 128.714 149.378C129.388 149.828 130.063 150.278 130.738 150.728L131.188 151.178L131.412 151.629L131.862 152.528L132.761 153.878L134.56 156.803L149.852 179.527L164.919 202.252C169.866 209.901 175.038 217.55 179.984 225.2C180.434 225.875 180.21 227 179.535 227.45C178.635 227.9 177.736 227.675 177.286 227Z" fill="black"/>
<path d="M138.835 219.351C138.609 218.901 107.577 165.578 106.003 162.203C105.778 161.528 105.553 161.078 106.003 160.853C106.228 160.628 106.903 160.853 107.577 161.528C109.601 164.228 115.448 171.428 115.673 171.653C115.898 171.877 116.122 172.103 116.347 172.103C116.347 172.103 116.347 172.103 116.347 171.877C115.897 170.753 115.673 169.852 115.897 168.728C115.897 168.278 116.347 167.828 116.572 167.377C114.548 164.904 111.625 161.078 110.276 159.278C108.477 157.029 106.003 156.803 104.429 157.703C102.855 158.603 101.955 160.628 103.305 163.328C105.104 166.703 135.012 218.452 136.361 220.701C136.585 221.151 137.26 221.601 137.71 221.601C137.935 221.601 138.385 221.601 138.609 221.376C139.059 221.151 139.285 220.026 138.835 219.351Z" fill="black"/>
<path d="M128.04 161.528C128.04 161.304 128.04 161.304 128.04 161.078C126.915 161.078 125.791 161.304 124.442 161.753C124.217 161.753 123.767 161.979 123.543 162.203C123.317 162.429 122.868 162.653 122.643 162.653C122.418 162.879 121.968 163.103 121.743 163.329C121.518 163.553 121.293 164.003 121.069 164.228C120.394 165.578 120.394 167.153 120.844 168.278C121.293 169.404 121.743 170.528 122.418 171.428C122.643 171.878 123.317 172.103 123.767 171.653C124.217 171.428 124.442 170.753 124.217 170.302C123.767 169.404 123.317 168.503 123.317 167.603C123.092 166.703 123.317 166.028 123.543 165.354C123.767 164.904 124.442 164.454 125.341 164.228C126.241 164.003 127.14 164.003 128.04 164.003C128.04 164.003 128.04 164.003 128.264 164.003C128.489 164.003 128.715 164.003 128.939 163.778C128.489 163.553 128.04 162.653 128.04 161.528Z" fill="black"/>
<path d="M122.418 165.803C122.643 165.128 122.868 164.678 123.318 164.228C123.093 163.778 122.418 163.552 121.968 163.778C120.844 163.778 119.72 164.002 118.37 164.452C118.146 164.452 117.696 164.678 117.471 164.902C117.246 165.128 116.796 165.353 116.571 165.353C116.346 165.577 115.897 165.803 115.672 166.027C115.447 166.253 115.222 166.703 114.997 166.927C114.323 168.278 114.323 169.852 114.772 170.977C115.222 172.103 115.672 173.228 116.346 174.128C116.571 174.578 117.246 174.802 117.696 174.578C118.146 174.352 118.37 173.678 118.146 173.228C117.696 172.327 117.246 171.427 117.246 170.527C117.021 169.628 117.246 168.952 117.471 168.278C117.696 167.828 118.37 167.377 119.27 167.153C120.169 166.927 121.069 166.927 121.968 166.927C121.968 166.927 121.968 166.927 122.193 166.927C122.193 166.703 122.418 166.253 122.418 165.803Z" fill="black"/>
<path d="M206.746 311.824C191.23 311.824 177.288 307.999 166.044 300.349C153.901 292.25 145.805 280.101 144.906 268.626C144.906 267.726 145.581 266.825 146.48 266.825C147.38 266.825 148.279 267.5 148.279 268.4C149.179 278.75 156.599 289.999 167.843 297.65C186.507 310.249 212.368 312.048 240.702 302.824C241.602 302.599 242.501 303.049 242.725 303.949C242.951 304.849 242.501 305.749 241.602 305.974C229.683 309.799 217.765 311.824 206.746 311.824Z" fill="black"/>
<path d="M263.188 287.073C262.964 287.073 262.514 287.073 262.289 286.848C261.615 286.398 261.165 285.274 261.615 284.598C264.537 279.649 266.337 272.899 266.787 270.874C267.011 269.974 267.911 269.524 268.81 269.749C269.711 269.974 270.159 270.874 269.935 271.774C269.26 274.474 267.461 281.224 264.537 286.398C264.313 286.848 263.638 287.073 263.188 287.073Z" fill="black"/>
<path d="M144.455 307.998C144.231 307.998 144.231 307.998 144.006 307.998C143.106 307.773 142.656 306.873 142.882 305.974C144.231 300.123 147.604 291.124 152.551 285.274C153.226 284.599 154.125 284.373 154.8 285.049C155.475 285.724 155.699 286.624 155.025 287.298C150.528 292.924 147.379 301.248 146.03 306.648C145.804 307.323 145.13 307.998 144.455 307.998Z" fill="black"/>
<path d="M175.489 294.272C175.489 294.272 175.264 294.272 175.489 294.272C174.814 294.272 174.14 293.822 173.915 293.372L167.169 279.423C166.718 278.523 167.168 277.623 167.843 277.173C168.742 276.723 169.642 277.173 170.091 277.847L175.713 289.548L183.359 280.548C184.033 279.872 184.934 279.872 185.608 280.322C186.283 280.998 186.283 281.898 185.833 282.573L176.388 293.598C176.388 294.048 175.939 294.272 175.489 294.272Z" fill="black"/>
<path d="M210.794 285.048C210.119 285.048 209.669 284.598 209.219 284.148L204.947 275.374L199.325 283.923C198.875 284.598 197.75 284.824 197.076 284.374C196.401 283.923 196.177 282.799 196.627 282.123L203.823 271.098C204.047 270.648 204.722 270.424 205.396 270.424C206.071 270.424 206.521 270.874 206.745 271.324L212.367 282.799C212.817 283.699 212.367 284.598 211.693 285.048C211.244 285.048 211.018 285.048 210.794 285.048Z" fill="black"/>
<path d="M234.629 295.625C234.18 295.625 233.73 295.399 233.28 294.949L224.285 283.925C223.61 283.25 223.836 282.125 224.511 281.675C225.185 280.999 226.309 281.225 226.759 281.9L234.404 291.349L242.05 279.875C242.5 279.2 243.624 278.975 244.299 279.425C244.974 279.875 245.198 280.999 244.748 281.675L235.979 294.949C235.753 295.399 235.303 295.625 234.629 295.625Z" fill="black"/>
<path d="M211.468 332.297C211.018 332.297 210.343 332.073 210.119 331.622C204.721 323.523 196.176 318.573 186.281 317.673C176.612 316.998 166.718 320.148 161.771 325.772C161.096 326.447 160.196 326.447 159.522 325.998C158.847 325.548 158.847 324.422 159.297 323.747C164.919 317.447 175.938 313.848 186.507 314.748C197.526 315.648 206.97 321.048 213.041 330.048C213.491 330.722 213.267 331.847 212.592 332.297C212.142 332.297 211.918 332.297 211.468 332.297Z" fill="black"/>
<path d="M205.172 337.923C204.946 337.923 204.497 337.923 204.272 337.697C191.68 329.373 175.264 331.172 167.843 334.097C166.944 334.547 166.043 334.097 165.595 333.197C165.144 332.298 165.595 331.398 166.494 330.948C174.589 327.573 192.354 325.548 206.071 334.772C206.746 335.222 206.971 336.348 206.521 337.022C206.297 337.697 205.622 337.923 205.172 337.923Z" fill="#B99727"/>
<path d="M194.827 346.697C194.377 346.697 193.927 346.471 193.703 346.246C190.104 342.647 181.56 342.197 176.163 344.222C175.263 344.446 174.364 343.996 174.138 343.321C173.914 342.421 174.364 341.521 175.039 341.297C181.56 339.046 191.455 339.496 195.952 343.996C196.627 344.672 196.627 345.571 195.952 346.246C195.726 346.471 195.277 346.697 194.827 346.697Z" fill="#B99727"/>
<path d="M267.011 307.547C265.662 312.947 264.088 318.347 262.514 323.746L257.567 339.721L252.619 355.695L247.673 371.67C247.447 372.344 246.773 372.794 246.098 373.02C243.85 373.02 241.601 373.244 239.577 373.92C237.553 374.595 235.754 375.719 234.854 377.294C234.629 377.744 234.629 377.97 234.405 378.42C234.405 378.87 234.405 379.095 234.405 379.319C234.629 379.769 235.08 380.445 235.979 380.669C236.879 381.119 238.002 381.344 239.127 381.344C240.252 381.57 241.376 381.57 242.5 381.57C243.4 381.57 244.074 382.244 244.074 383.144C244.074 384.045 243.4 384.719 242.5 384.719C241.151 384.719 240.027 384.719 238.677 384.495C237.328 384.269 235.979 384.045 234.629 383.594C234.405 383.37 233.955 383.37 233.73 383.144C233.505 382.92 233.056 382.694 232.83 382.47C232.156 382.02 231.706 381.119 231.257 380.445C230.807 379.545 230.807 378.644 230.807 377.744C230.807 376.844 231.257 376.169 231.481 375.495C232.156 374.145 233.28 373.02 234.405 372.12C235.528 371.22 236.879 370.769 238.002 370.319C240.476 369.42 243.174 369.195 245.648 369.195L244.074 370.545L249.022 354.57L254.194 338.596L259.366 322.621C261.165 317.221 262.964 312.047 264.988 306.873C265.212 306.422 265.887 305.972 266.337 306.197C266.787 306.647 267.011 307.097 267.011 307.547Z" fill="black"/>
<path d="M266.787 384.945C266.563 384.945 266.337 384.945 266.113 384.719C265.212 384.269 264.988 383.369 265.438 382.47L296.47 319.022C296.695 318.796 296.92 318.346 297.145 318.346L485.588 222.275C486.488 221.826 487.387 222.276 487.837 222.95C488.287 223.851 487.837 224.75 487.163 225.2L299.394 321.047L268.586 384.045C268.136 384.495 267.462 384.945 266.787 384.945Z" fill="black"/>
<path d="M185.157 355.469C184.707 355.469 184.258 355.245 183.808 354.795C183.133 354.119 183.358 352.995 184.032 352.544L401.934 161.527C402.609 160.851 403.733 161.077 404.183 161.752C404.858 162.427 404.633 163.552 403.959 164.002L186.282 355.019C185.831 355.245 185.607 355.469 185.157 355.469Z" fill="black"/>
<path d="M333.349 203.828C332.45 203.828 331.775 203.152 331.775 202.477C331.1 196.177 328.402 190.552 326.828 188.753C326.603 189.652 326.603 191.678 327.053 195.952C327.053 196.853 326.379 197.753 325.478 197.753C324.579 197.753 323.679 197.077 323.679 196.177C323.005 188.528 323.455 185.378 325.929 184.928C326.603 184.703 327.502 184.928 328.402 185.602C331.325 187.627 334.249 195.052 335.148 201.803C335.148 202.927 334.473 203.828 333.349 203.828C333.349 203.828 333.574 203.828 333.349 203.828Z" fill="black"/>
<path d="M348.416 212.376C347.515 212.376 346.616 211.476 346.841 210.575C347.065 205.175 344.817 197.526 343.242 195.277C342.794 196.401 342.568 198.426 342.119 200.227C341.669 202.476 341.219 204.951 340.544 207.65C340.32 208.551 339.42 209.001 338.521 208.776C337.622 208.551 337.172 207.65 337.396 206.751C338.071 204.276 338.521 201.801 338.971 199.551C339.87 194.827 340.32 192.126 342.568 191.676C343.018 191.451 343.917 191.451 345.042 192.352C347.965 194.601 350.664 204.501 350.439 210.801C349.989 211.7 349.315 212.376 348.416 212.376Z" fill="black"/>
<path d="M374.051 279.425C373.825 279.425 373.601 279.425 373.376 279.2C372.476 278.75 372.252 277.85 372.702 276.95C375.4 271.325 377.199 258.5 376.525 255.125C375.85 255.801 374.95 257.375 374.501 258.5C373.825 259.85 372.926 261.425 371.802 262.775C371.353 263.45 370.228 263.676 369.554 263C368.879 262.55 368.653 261.425 369.328 260.751C370.228 259.625 371.127 258.05 371.802 256.701C373.376 253.776 375.176 250.851 377.874 251.525C378.324 251.751 378.998 251.975 379.447 253.1C381.246 257.151 378.548 272.675 375.624 278.3C375.176 279.2 374.5 279.425 374.051 279.425Z" fill="black"/>
<path d="M300.066 173.003L303.439 163.779L306.363 173.003L315.358 175.253L306.363 177.953L303.215 185.152L300.517 178.403L291.521 174.354L300.066 173.003Z" fill="black"/>
<path d="M303.215 186.727C302.54 186.727 301.866 186.277 301.641 185.602L299.168 179.526L290.847 175.702C290.173 175.477 289.723 174.802 289.948 173.902C289.948 173.227 290.623 172.553 291.298 172.553L298.943 171.202L301.866 162.877C302.092 162.203 302.766 161.753 303.441 161.753C304.115 161.753 304.79 162.203 305.014 162.877L307.712 171.202L315.808 173.227C316.483 173.452 316.933 174.128 316.933 174.802C316.933 175.477 316.483 176.152 315.808 176.377L307.488 178.852L304.565 185.152C304.34 186.277 303.889 186.727 303.215 186.727ZM297.144 175.027L301.191 176.827C301.641 177.053 301.866 177.277 302.092 177.727L303.441 180.877L305.24 177.277C305.464 176.827 305.914 176.603 306.363 176.377L309.737 175.252L306.363 174.352C305.914 174.128 305.464 173.902 305.24 173.227L303.665 168.502L302.092 173.227C301.866 173.902 301.417 174.128 300.742 174.352L297.144 175.027Z" fill="black"/>
<path d="M235.755 163.78L238.228 170.981L244.525 173.456L238.004 175.931L235.755 182.906L232.382 175.481L226.76 173.23L233.056 171.205L235.755 163.78Z" fill="black"/>
<path d="M235.754 184.478C235.079 184.478 234.629 184.029 234.179 183.579L231.031 176.828L226.085 174.804C225.41 174.579 224.96 173.903 224.96 173.229C224.96 172.554 225.41 171.878 226.085 171.654L231.705 169.854L233.955 163.104C234.179 162.429 234.854 161.98 235.528 161.98C236.203 161.98 236.877 162.429 237.103 163.104L239.351 169.629L244.973 171.878C245.648 172.104 246.098 172.779 246.098 173.453C246.098 174.129 245.648 174.804 244.973 175.029L239.127 177.278L237.103 183.353C237.103 184.029 236.428 184.478 235.754 184.478ZM231.705 173.453L233.055 173.903C233.505 174.129 233.73 174.353 233.955 174.804L235.528 178.403L236.653 175.479C236.877 175.029 237.103 174.579 237.553 174.579L240.251 173.453L237.778 172.554C237.327 172.329 237.103 172.104 236.877 171.654L235.978 168.955L235.079 172.104C234.854 172.554 234.405 173.004 233.955 173.229L231.705 173.453Z" fill="black"/>
<path d="M205.172 177.95L208.32 186.724L217.989 189.875L208.546 192.35L205.622 202.925L201.349 192.35L193.929 190.55L202.249 187.85L205.172 177.95Z" fill="black"/>
<path d="M205.622 204.726C204.947 204.726 204.273 204.276 204.047 203.602L200 193.702L193.479 192.127C192.804 191.901 192.354 191.227 192.13 190.552C192.13 189.877 192.579 189.202 193.255 188.978L200.675 186.503L203.373 177.503C203.598 176.827 204.273 176.377 204.948 176.377C205.622 176.377 206.297 176.827 206.521 177.503L209.445 185.377L218.215 188.302C218.89 188.527 219.34 189.202 219.34 189.876C219.34 190.552 218.89 191.227 218.215 191.451L209.895 193.702L207.196 203.602C206.971 204.052 206.297 204.726 205.622 204.726ZM200 190.327L201.575 190.777C202.024 191.002 202.474 191.227 202.698 191.677L205.172 197.977L206.747 191.901C206.971 191.451 207.421 191.002 207.871 190.777L211.693 189.652L207.421 188.302C206.971 188.077 206.521 187.852 206.297 187.402L204.723 183.352L203.148 188.302C202.924 188.752 202.698 189.202 202.024 189.426L200 190.327Z" fill="black"/>
<path d="M406.208 296.075H405.982C405.083 295.849 404.409 294.95 404.633 294.05C405.083 292.025 405.083 288.2 405.308 284.375C405.533 275.601 405.758 273.576 407.331 272.901C408.006 272.676 408.682 272.676 409.356 273.126C412.055 274.7 412.954 283.25 412.954 283.476C412.954 284.375 412.279 285.275 411.38 285.275C410.48 285.275 409.581 284.6 409.581 283.7C409.356 281.901 409.131 280.101 408.682 278.75C408.456 280.551 408.456 282.8 408.456 284.6C408.232 288.426 408.232 292.475 407.782 294.725C407.557 295.625 406.883 296.075 406.208 296.075Z" fill="black"/>
<path d="M392.941 316.322C392.716 316.322 392.49 316.322 392.266 316.322C391.367 316.097 390.917 314.972 391.367 314.298C392.266 311.597 392.941 305.298 393.391 300.122C394.29 290.898 394.515 288.648 396.539 288.423C396.989 288.423 397.664 288.423 398.338 289.098C400.586 291.123 402.61 299.672 402.61 303.722C402.61 304.622 401.935 305.298 401.036 305.298C400.136 305.298 399.462 304.622 399.462 303.722C399.462 301.022 398.563 296.747 397.664 294.048C397.438 295.848 397.214 298.323 396.989 300.348C396.539 306.197 395.864 312.497 394.74 315.422C394.29 315.872 393.615 316.322 392.941 316.322Z" fill="black"/>
<path d="M376.974 330.948C376.749 330.948 376.523 330.948 376.075 330.722C375.174 330.272 374.95 329.373 375.4 328.473C376.523 326.222 378.323 319.473 379.897 313.399C383.27 300.349 383.945 298.999 385.744 298.999C386.418 298.999 386.869 299.223 387.317 299.673C389.567 302.148 390.017 316.098 389.791 319.923C389.791 320.823 388.892 321.498 387.993 321.498C387.093 321.498 386.418 320.598 386.418 319.698C386.643 316.098 386.194 308.899 385.519 304.849C384.619 307.548 383.72 311.148 382.82 314.298C381.022 320.823 379.447 327.573 377.874 330.048C378.098 330.722 377.424 330.948 376.974 330.948Z" fill="black"/>
<path d="M284.327 394.619C283.428 394.619 282.753 393.945 282.753 393.044V384.945H105.328C104.429 384.945 103.754 384.269 103.754 383.37C103.754 382.47 104.429 381.795 105.328 381.795H284.551C285.451 381.795 286.126 382.47 286.126 383.37V393.044C286.126 393.945 285.227 394.619 284.327 394.619Z" fill="black"/>
<path d="M381.022 394.62H380.797C379.897 394.395 379.223 393.72 379.447 392.82C380.347 387.195 379.673 373.246 377.423 365.596C377.199 364.696 377.649 363.796 378.548 363.572C379.447 363.346 380.347 363.796 380.572 364.696C383.045 372.796 383.72 387.42 382.821 393.27C382.595 394.17 381.921 394.62 381.022 394.62Z" fill="#B99727"/>
<path d="M395.864 379.546C394.965 379.546 394.29 378.87 394.29 377.97C394.064 369.42 389.343 357.497 387.319 353.671C386.869 352.771 387.093 351.871 387.994 351.421C388.892 350.972 389.793 351.196 390.242 352.097C392.266 355.921 397.213 368.746 397.438 377.745C397.663 378.646 396.988 379.546 395.864 379.546C395.864 379.546 396.089 379.546 395.864 379.546Z" fill="#B99727"/>
<path d="M405.982 362.446C405.082 362.446 404.408 361.771 404.408 360.871C403.733 353.896 400.36 343.772 397.437 337.921C396.988 337.021 397.437 336.121 398.111 335.672C399.011 335.222 399.91 335.672 400.36 336.347C403.284 342.421 406.881 352.996 407.556 360.421C407.782 361.545 407.107 362.22 405.982 362.446C406.207 362.446 406.207 362.446 405.982 362.446Z" fill="#B99727"/>
<path d="M413.629 346.022C413.629 346.022 413.404 346.022 413.629 346.022C412.73 346.022 412.055 345.122 412.055 344.222C412.055 340.847 410.032 334.548 409.582 333.423C409.131 332.523 409.582 331.622 410.256 331.172C411.156 330.722 412.055 331.172 412.505 331.848C413.18 333.197 415.428 340.172 415.204 344.222C415.204 345.122 414.529 346.022 413.629 346.022Z" fill="#B99727"/>
<path d="M286.801 344.22C286.126 344.22 285.452 343.77 285.226 343.321C284.777 342.421 285.226 341.521 286.126 341.071L503.353 249.949C504.252 249.499 505.152 249.949 505.601 250.849C506.051 251.75 505.601 252.649 504.702 253.099L287.475 343.996C287.251 344.22 287.025 344.22 286.801 344.22Z" fill="black"/>
<path d="M204.498 378.869C203.823 378.869 203.149 378.419 202.923 377.969C202.474 377.07 202.923 376.169 203.823 375.719L249.247 356.595C250.146 356.145 251.046 356.595 251.495 357.494C251.945 358.395 251.497 359.295 250.596 359.745L205.172 378.869C204.947 378.644 204.722 378.869 204.498 378.869Z" fill="black"/>
<path d="M199.101 372.346C198.426 372.346 197.976 372.12 197.526 371.445C197.076 370.545 197.526 369.645 198.2 369.195L253.97 340.621C254.868 340.171 255.767 340.621 256.218 341.297C256.668 342.196 256.218 343.096 255.543 343.546L199.775 372.12C199.55 372.12 199.325 372.346 199.101 372.346Z" fill="black"/>
<path d="M192.803 364.696C192.354 364.696 191.68 364.471 191.454 364.02C191.005 363.346 191.23 362.221 191.904 361.771L262.289 314.972C262.963 314.523 264.088 314.748 264.538 315.422C264.988 316.098 264.763 317.223 264.088 317.673L193.703 364.471C193.253 364.696 193.029 364.696 192.803 364.696Z" fill="black"/>
<path d="M177.288 225.65C177.062 225.65 176.838 225.65 176.838 225.65C175.938 225.424 175.489 224.299 175.938 223.624L241.601 42.5058C241.826 41.6059 242.951 41.156 243.625 41.606C244.524 41.8309 244.974 42.9558 244.524 43.6309L178.862 224.75C178.637 225.424 177.963 225.65 177.288 225.65Z" fill="black"/>
<path d="M133.661 303.047C133.437 303.047 133.437 303.047 133.212 303.047C132.312 302.822 131.863 301.923 132.087 301.022L141.082 265.024C141.307 264.123 142.207 263.673 143.106 263.899C144.006 264.123 144.455 265.024 144.231 265.924L135.236 301.923C135.01 302.597 134.336 303.047 133.661 303.047Z" fill="black"/>
<path d="M153.676 221.826C153.451 221.826 153.451 221.826 153.226 221.826C152.327 221.6 151.877 220.7 152.101 219.801L196.402 41.1569C196.626 40.257 197.526 39.807 198.425 40.0319C199.324 40.257 199.774 41.1568 199.55 42.0568L155.249 220.701C155.249 221.376 154.575 221.826 153.676 221.826Z" fill="black"/>
<path d="M106.677 302.373H106.452C105.553 302.148 104.878 301.474 105.103 300.574L121.519 195.052C121.744 194.152 122.418 193.477 123.318 193.702C124.218 193.928 124.892 194.602 124.667 195.502L108.251 301.024C108.027 301.924 107.352 302.373 106.677 302.373Z" fill="black"/>
<path d="M129.615 153.878H129.39C128.491 153.653 127.816 152.979 128.041 152.079L151.428 1.7837C151.652 0.88374 152.327 0.208751 153.227 0.433743C154.126 0.658735 154.8 1.33375 154.576 2.23372L131.189 152.529C131.189 153.428 130.514 153.878 129.615 153.878Z" fill="black"/>
<path d="M89.3613 302.598C88.237 302.598 87.5623 301.698 87.7872 300.798L107.126 20.9081C107.126 20.0082 108.026 19.3333 108.925 19.3333C109.825 19.3333 110.499 20.2332 110.499 21.1332L91.1603 301.024C90.9354 301.923 90.2607 302.598 89.3613 302.598Z" fill="black"/>
<path d="M60.5776 302.373C59.6782 302.373 59.0035 301.697 59.0035 300.797L32.6934 8.30773C32.6934 7.40776 33.368 6.50781 34.2675 6.50781C35.167 6.50781 36.0665 7.18281 36.0665 8.08278L62.3766 300.572C62.1518 301.473 61.4771 302.373 60.5776 302.373Z" fill="black"/>
<path d="M209.667 384.946C209.219 384.946 208.768 384.72 208.318 384.27C207.869 383.596 152.1 316.998 147.153 311.148C141.981 305.298 135.46 302.374 127.14 302.374H54.7307C52.4819 302.374 51.1327 303.273 50.2332 304.849C48.884 307.773 49.7835 312.048 51.3576 314.073C51.8074 314.748 51.8074 315.874 51.1327 316.324C50.4582 316.772 49.3338 316.773 48.884 316.098C46.6353 313.173 45.5109 307.548 47.5348 303.499C48.884 300.574 51.5824 298.999 54.9555 298.999H127.364C136.809 298.999 144.23 302.148 149.852 308.899C154.574 314.298 204.047 373.696 210.342 381.121L232.38 375.496C233.279 375.27 234.179 375.721 234.404 376.621C234.629 377.521 234.179 378.421 233.279 378.646L210.118 384.496C209.893 384.946 209.667 384.946 209.667 384.946Z" fill="black"/>
<path d="M48.2108 312.048C47.5361 312.048 46.6366 311.599 46.6366 310.699L0.537724 53.7582C0.312851 52.8582 0.987483 51.9583 1.88697 51.7333C2.78646 51.5083 3.68595 52.1833 3.91082 53.0833L50.0097 310.023C50.2347 310.924 49.56 311.824 48.6605 312.048C48.4356 312.048 48.2108 312.048 48.2108 312.048Z" fill="black"/>
<path d="M174.588 179.526L195.501 117.654L208.993 129.128L237.328 95.6045L214.391 161.077L196.176 148.028L174.588 179.526Z" fill="black"/>
<path d="M174.589 181.326C174.363 181.326 174.139 181.326 173.915 181.101C173.24 180.651 172.79 179.975 173.014 179.076L193.928 117.203C194.153 116.753 194.602 116.303 195.052 116.078C195.502 115.853 196.177 116.078 196.626 116.303L208.995 126.653L236.205 94.4792C236.653 93.8041 237.554 93.8041 238.228 94.029C238.903 94.479 239.127 95.1541 238.903 96.054L216.19 161.752C215.966 162.202 215.516 162.652 215.066 162.876C214.617 163.102 213.942 162.876 213.716 162.652L196.852 150.503L176.163 180.651C175.714 180.876 175.039 181.326 174.589 181.326ZM196.177 120.353L179.761 168.726L194.602 146.902C194.828 146.452 195.277 146.227 195.727 146.227C196.177 146.227 196.626 146.227 197.076 146.452L213.492 158.376L232.606 103.254L210.119 130.028C209.894 130.253 209.445 130.478 208.995 130.703C208.545 130.703 208.094 130.703 207.87 130.253L196.177 120.353Z" fill="black"/>
<path d="M302.991 324.873L338.071 307.774L338.297 316.774L366.18 303.274L326.828 334.998L327.727 319.923L302.991 324.873Z" fill="black"/>
<path d="M326.828 336.798C326.603 336.798 326.378 336.798 326.153 336.574C325.479 336.348 325.254 335.673 325.254 334.998L325.929 321.948L303.216 326.448C302.317 326.674 301.643 326.224 301.417 325.323C301.192 324.649 301.417 323.749 302.317 323.299L337.397 306.424C337.846 306.199 338.521 306.199 338.971 306.424C339.421 306.649 339.645 307.324 339.87 307.774L340.095 314.074L365.731 301.7C366.405 301.249 367.305 301.7 367.754 302.374C368.204 303.049 367.98 303.949 367.305 304.625L327.952 336.348C327.727 336.574 327.278 336.798 326.828 336.798ZM327.727 318.124C328.177 318.124 328.401 318.349 328.851 318.574C329.301 318.799 329.526 319.473 329.526 319.923L329.077 331.398L354.486 310.699L339.195 318.124C338.746 318.349 338.072 318.349 337.622 318.124C337.171 317.898 336.947 317.224 336.723 316.774L336.497 310.474L315.359 320.599L327.278 318.124C327.502 318.124 327.502 318.124 327.727 318.124Z" fill="black"/>
<path d="M166.943 243.875C160.646 243.2 156.375 248.375 164.919 249.049C173.464 249.949 175.263 244.775 166.943 243.875Z" fill="#1F936F"/>
<path d="M177.961 252.649C169.866 251.75 163.57 258.275 177.062 259.624C190.779 260.75 189.206 253.775 177.961 252.649Z" fill="#1F936F"/>
<path d="M159.073 255.8C163.345 256.474 163.571 253.325 159.972 252.874C156.374 252.2 154.8 255.124 159.073 255.8Z" fill="#1F936F"/>
<path d="M227.433 246.801C248.572 246.801 248.122 237.351 226.084 238.25C206.52 238.926 202.922 246.801 227.433 246.801Z" fill="#1F936F"/>
<path d="M283.428 246.124C305.915 245.674 307.039 237.35 283.428 238.025C259.816 238.699 259.592 246.799 283.428 246.124Z" fill="#1F936F"/>
<path d="M237.553 197.527C214.616 197.527 210.345 237.35 237.553 237.35C258.242 237.576 260.04 197.527 237.553 197.527Z" fill="white"/>
<path d="M233.731 196.177C210.794 195.051 203.598 236.45 230.808 236.45C252.395 236.45 258.917 197.526 233.731 196.177Z" fill="black"/>
<path d="M233.73 239.152C226.759 239.152 220.913 236.901 217.09 232.851C213.716 229.252 211.692 224.077 211.692 218.452C211.692 206.752 219.788 194.603 233.505 194.603V196.178V194.603C241.825 194.603 248.796 198.653 252.845 205.402C257.116 212.603 257.116 221.827 253.293 228.802C249.471 235.551 242.5 239.152 233.73 239.152ZM233.73 197.977C222.036 197.977 215.065 208.327 215.065 218.452C215.065 231.277 225.185 236.001 233.73 236.001C241.376 236.001 247.223 232.851 250.595 227.451C253.968 221.602 253.744 213.502 250.145 207.427C246.772 201.128 240.926 197.977 233.73 197.977Z" fill="black"/>
<path d="M228.108 200.451L230.806 211.25L242.949 210.8L234.179 217.326L236.878 229.475L228.108 220.025L219.788 227.674L222.936 217.1L216.64 212.376L224.51 211.926L228.108 200.451Z" fill="white"/>
<path d="M236.878 231.05C236.429 231.05 235.979 230.825 235.755 230.6L228.109 222.5L220.912 229.025C220.463 229.475 219.563 229.475 218.888 229.251C218.214 228.8 217.989 228.125 218.214 227.45L221.138 218L215.74 214.175C215.29 213.725 214.841 213.05 215.066 212.376C215.29 211.7 215.74 211.251 216.64 211.251L223.386 210.801L226.534 200.451C226.759 199.777 227.434 199.326 228.109 199.326C228.783 199.326 229.458 199.777 229.682 200.676L231.932 210.125L242.726 209.675C243.4 209.675 244.075 210.125 244.299 210.801C244.524 211.476 244.299 212.15 243.625 212.6L235.755 218.45L238.227 229.475C238.453 230.15 238.003 231.05 237.328 231.275C237.328 231.05 237.104 231.05 236.878 231.05ZM228.109 218.45C228.558 218.45 229.008 218.675 229.232 218.901L233.955 223.851L232.606 217.55C232.381 216.876 232.606 216.2 233.281 215.975L237.778 212.6L230.807 212.826C230.132 212.826 229.232 212.376 229.232 211.476L228.109 206.526L226.31 212.15C226.084 212.826 225.635 213.276 224.961 213.276L221.587 213.501L224.286 215.525C224.961 215.975 225.185 216.65 224.961 217.326L223.386 222.276L227.209 218.675C227.209 218.675 227.659 218.45 228.109 218.45Z" fill="white"/>
<path d="M289.274 197.527C266.337 197.527 262.064 237.35 289.274 237.35C310.187 237.576 311.985 197.527 289.274 197.527Z" fill="white"/>
<path d="M285.675 196.177C262.738 195.051 255.543 236.45 282.753 236.45C304.115 236.45 310.861 197.526 285.675 196.177Z" fill="black"/>
<path d="M285.677 239.152C278.706 239.152 272.859 236.901 269.036 232.851C265.662 229.252 263.639 224.077 263.639 218.452C263.639 206.752 271.734 194.603 285.451 194.603V196.178V194.603C293.771 194.603 300.742 198.653 304.791 205.402C309.063 212.603 309.063 221.827 305.24 228.802C301.417 235.551 294.446 239.152 285.677 239.152ZM285.677 197.977C273.983 197.977 267.011 208.327 267.011 218.452C267.011 231.277 277.131 236.001 285.677 236.001C293.322 236.001 299.169 232.851 302.542 227.451C305.914 221.602 305.69 213.502 302.091 207.427C298.494 201.128 292.648 197.977 285.677 197.977Z" fill="black"/>
<path d="M280.054 200.451L282.528 211.25L294.671 210.8L286.125 217.326L288.824 229.475L279.829 220.025L271.509 227.674L274.883 217.1L268.586 212.376L276.456 211.926L280.054 200.451Z" fill="white"/>
<path d="M288.824 231.05C288.375 231.05 287.925 230.825 287.701 230.6L280.055 222.5L272.858 229.025C272.409 229.475 271.509 229.475 270.835 229.251C270.16 228.8 269.936 228.125 270.16 227.45L273.084 218L267.686 214.175C267.236 213.725 266.787 213.05 267.012 212.376C267.236 211.7 267.686 211.251 268.587 211.251L275.332 210.801L278.48 200.451C278.705 199.777 279.379 199.326 280.055 199.326C280.73 199.326 281.404 199.777 281.629 200.676L283.878 210.125L294.671 209.675C295.346 209.675 296.021 210.125 296.245 210.801C296.47 211.476 296.245 212.15 295.571 212.6L287.701 218.45L290.173 229.475C290.399 230.15 289.949 231.05 289.274 231.275C289.274 231.05 289.05 231.05 288.824 231.05ZM279.829 218.45C280.28 218.45 280.73 218.675 280.954 218.901L285.676 223.851L284.327 217.55C284.102 216.876 284.327 216.2 285.001 215.975L289.499 212.6L282.528 212.826C281.853 212.826 280.954 212.376 280.954 211.476L279.829 206.526L278.03 212.15C277.806 212.826 277.356 213.276 276.681 213.276L273.308 213.501L276.007 215.525C276.681 215.975 276.907 216.65 276.681 217.326L275.108 222.276L278.93 218.675C279.155 218.675 279.605 218.45 279.829 218.45Z" fill="white"/>
<path d="M383.722 394.618H113.2C112.75 394.618 112.3 394.393 111.85 393.943C111.176 393.267 50.9099 318.796 48.886 316.321C47.5368 314.746 47.087 312.72 47.9865 311.146C49.1109 308.896 51.5844 307.546 54.9575 307.546H121.97C132.538 307.546 138.386 310.471 144.907 318.346C150.978 325.995 198.201 381.568 198.651 382.243C199.326 382.919 199.101 384.043 198.427 384.493C197.752 385.168 196.627 384.944 196.177 384.268C195.728 383.818 148.504 328.02 142.433 320.371C136.587 312.946 131.639 310.695 121.97 310.695H54.9575C52.484 310.695 51.3596 311.596 50.9099 312.271C50.6849 312.946 50.9099 313.621 51.3596 314.071C53.6083 316.546 107.803 383.593 114.099 391.243H383.272C406.659 366.494 428.471 316.546 423.299 272.223C422.849 268.622 421.5 267.273 420.826 267.273C420.151 267.273 418.576 268.398 417.677 271.773C417.227 273.572 404.86 313.621 378.1 330.72C377.425 331.17 376.301 330.945 375.851 330.271C375.4 329.595 375.626 328.47 376.301 328.02C402.162 311.596 414.079 272.672 414.529 270.873C415.878 266.373 418.352 263.898 421.275 264.122C423.524 264.348 425.998 266.597 426.672 271.997C432.068 317.67 409.357 368.969 385.295 394.168C384.621 394.618 384.171 394.618 383.722 394.618Z" fill="black"/>
<path d="M370.228 375.045C369.779 375.045 369.329 374.82 368.879 374.37C368.205 373.696 368.429 372.571 369.104 372.121C392.941 352.771 420.825 300.123 419.701 266.15C419.701 265.249 420.375 264.575 421.274 264.349C422.174 264.349 422.849 265.025 423.073 265.924C424.198 301.698 395.639 354.796 371.353 374.596C371.128 374.82 370.678 375.045 370.228 375.045Z" fill="black"/>
<path d="M274.883 368.521C274.208 368.521 273.534 368.071 273.308 367.171C273.084 366.271 273.534 365.372 274.433 365.146L482.441 312.949C483.34 312.724 484.239 313.173 484.464 314.073C484.689 314.973 484.239 315.874 483.34 316.098L275.333 368.297C275.107 368.521 275.107 368.521 274.883 368.521Z" fill="black"/>
<path d="M110.5 330.048C101.505 330.048 98.8067 337.247 104.204 346.247C109.825 355.246 121.519 362.446 130.288 362.446C139.283 362.446 141.983 355.246 136.585 346.247C131.189 337.247 119.495 330.048 110.5 330.048ZM119.72 352.771H118.146C117.246 352.771 116.122 352.097 115.672 351.197C115.222 350.296 115.447 349.622 116.347 349.622H117.921C118.82 349.622 119.945 350.296 120.394 351.197C120.844 352.097 120.619 352.771 119.72 352.771ZM112.524 346.247C112.074 345.346 112.299 344.672 113.199 344.672H118.371C119.27 344.672 120.394 345.346 120.844 346.247C121.294 347.147 121.069 347.821 120.17 347.821H114.998C114.323 347.821 112.974 347.147 112.524 346.247ZM130.963 352.771H124.442C123.543 352.771 122.418 352.097 121.969 351.197C121.519 350.296 121.744 349.622 122.643 349.622H129.165C130.064 349.622 131.189 350.296 131.639 351.197C132.088 352.097 131.863 352.771 130.963 352.771ZM127.815 347.821H124.892C123.992 347.821 122.868 347.147 122.418 346.247C121.969 345.346 122.193 344.672 123.093 344.672H126.017C126.916 344.672 128.04 345.346 128.491 346.247C128.939 347.147 128.715 347.821 127.815 347.821ZM124.892 342.871H112.074C111.175 342.871 110.05 342.197 109.601 341.297C109.151 340.396 109.376 339.722 110.275 339.722H123.093C123.992 339.722 125.117 340.396 125.567 341.297C126.017 342.197 125.791 342.871 124.892 342.871Z" fill="black"/>
</svg>
