<?xml version="1.0" standalone="no"?>
<!DOCTYPE svg PUBLIC "-//W3C//DTD SVG 20010904//EN"
 "http://www.w3.org/TR/2001/REC-SVG-20010904/DTD/svg10.dtd">
<svg version="1.0" xmlns="http://www.w3.org/2000/svg"
 width="1200.000000pt" height="600.000000pt" viewBox="0 0 1200.000000 600.000000"
 preserveAspectRatio="xMidYMid meet">

<g transform="translate(0.000000,600.000000) scale(0.100000,-0.100000)"
fill="#000000" stroke="none">
<path d="M455 5561 c-77 -35 -123 -142 -95 -226 16 -47 66 -104 107 -121 41
-18 105 -18 146 -1 45 19 105 89 113 132 30 162 -122 284 -271 216z m178 -105
c9 -23 -2 -26 -93 -26 -91 0 -107 5 -89 27 16 19 175 18 182 -1z m-95 -63 c-4
-20 -74 -31 -90 -15 -18 18 3 32 48 32 38 0 45 -3 42 -17z m87 -3 c0 -18 -43
-26 -57 -12 -16 16 2 33 30 30 16 -2 27 -9 27 -18z m-127 -57 c-4 -20 -27 -27
-47 -14 -19 12 -4 31 25 31 19 0 25 -5 22 -17z m127 -3 c0 -11 -13 -16 -44
-18 -45 -3 -68 8 -56 28 11 17 100 9 100 -10z"/>
<path d="M1093 5518 c-19 -9 -33 -38 -18 -38 16 0 55 26 55 37 0 15 -7 16 -37
1z"/>
<path d="M1320 5486 c0 -34 0 -34 -30 -23 -62 23 -115 -59 -75 -119 17 -27 71
-34 93 -12 9 9 12 9 12 0 0 -7 7 -12 15 -12 12 0 15 18 15 100 0 82 -3 100
-15 100 -10 0 -15 -10 -15 -34z m-4 -81 c8 -33 -12 -57 -45 -53 -18 2 -27 10
-29 26 -6 37 5 52 37 52 24 0 32 -5 37 -25z"/>
<path d="M1395 5510 c-4 -7 -3 -16 3 -22 14 -14 45 -2 40 15 -6 16 -34 21 -43
7z"/>
<path d="M1837 5483 c-10 -23 -13 -39 -7 -41 6 -2 10 -30 10 -63 0 -52 2 -59
20 -59 18 0 20 7 20 60 0 33 4 60 10 60 14 0 12 27 -2 34 -10 5 -10 7 0 12 21
10 13 34 -11 34 -17 0 -27 -10 -40 -37z"/>
<path d="M2282 5503 c2 -10 10 -18 18 -18 8 0 16 8 18 18 2 12 -3 17 -18 17
-15 0 -20 -5 -18 -17z"/>
<path d="M2360 5420 c0 -82 3 -100 15 -100 12 0 15 18 15 100 0 82 -3 100 -15
100 -12 0 -15 -18 -15 -100z"/>
<path d="M2434 5509 c-7 -12 15 -31 31 -26 6 2 11 11 13 20 4 19 -32 24 -44 6z"/>
<path d="M2518 5483 c-3 -45 5 -139 14 -150 15 -18 58 -16 58 2 0 8 -7 15 -15
15 -11 0 -15 12 -15 45 0 33 4 45 15 45 8 0 15 7 15 15 0 8 -7 15 -15 15 -8 0
-15 7 -15 15 0 21 -40 19 -42 -2z"/>
<path d="M885 5445 c-29 -28 -32 -70 -9 -103 21 -30 98 -32 114 -2 10 19 8 20
-37 17 -47 -2 -48 -1 -51 29 -4 40 21 63 49 46 42 -27 67 -6 27 22 -32 23 -65
20 -93 -9z"/>
<path d="M1062 5463 c-20 -8 -44 -63 -38 -88 9 -37 34 -55 76 -55 63 0 95 52
66 108 -20 39 -61 53 -104 35z m59 -33 c36 -20 21 -80 -21 -80 -40 0 -54 44
-24 74 18 19 20 19 45 6z"/>
<path d="M1400 5395 c0 -60 3 -75 15 -75 12 0 15 15 15 75 0 60 -3 75 -15 75
-12 0 -15 -15 -15 -75z"/>
<path d="M1490 5450 c-13 -13 -20 -33 -20 -59 0 -53 22 -74 72 -69 34 3 38 1
36 -16 -5 -31 -34 -43 -56 -23 -19 18 -52 23 -52 9 0 -21 28 -43 62 -48 30 -5
41 -2 62 19 24 24 26 33 26 117 0 90 -8 108 -37 79 -8 -8 -13 -8 -17 0 -11 18
-54 13 -76 -9z m85 -60 c0 -30 -4 -35 -26 -38 -33 -4 -53 20 -45 53 6 22 11
26 39 23 29 -3 32 -6 32 -38z"/>
<path d="M1683 5455 c-27 -19 -38 -67 -22 -97 16 -31 28 -38 71 -38 61 0 93
52 64 108 -23 44 -71 56 -113 27z m71 -31 c30 -30 16 -74 -24 -74 -41 0 -57
59 -22 79 23 14 28 14 46 -5z"/>
<path d="M1946 5449 c-32 -25 -37 -86 -8 -112 22 -20 73 -22 90 -5 9 9 12 9
12 0 0 -7 7 -12 15 -12 12 0 15 15 15 75 0 60 -3 75 -15 75 -8 0 -15 -5 -15
-10 0 -7 -6 -7 -19 0 -29 15 -45 12 -75 -11z m90 -44 c8 -33 -12 -57 -45 -53
-18 2 -27 10 -29 26 -6 37 5 52 37 52 24 0 32 -5 37 -25z"/>
<path d="M2130 5450 c-25 -25 -27 -91 -4 -114 23 -24 87 -21 110 5 l19 21 -52
-7 c-50 -6 -52 -6 -58 18 -10 37 11 71 38 62 12 -4 33 -9 47 -12 l25 -6 -24
27 c-30 32 -73 34 -101 6z"/>
<path d="M2280 5396 c0 -70 2 -76 20 -76 19 0 21 5 18 72 -2 60 -6 73 -20 76
-16 3 -18 -6 -18 -72z"/>
<path d="M2440 5395 c0 -60 3 -75 15 -75 12 0 15 15 15 75 0 60 -3 75 -15 75
-12 0 -15 -15 -15 -75z"/>
<path d="M2652 5463 c-20 -8 -44 -63 -38 -88 9 -37 34 -55 76 -55 63 0 95 52
66 108 -20 39 -61 53 -104 35z m62 -39 c30 -30 16 -74 -24 -74 -41 0 -57 59
-22 79 23 14 28 14 46 -5z"/>
<path d="M6645 5056 c-104 -26 -186 -79 -264 -170 -71 -83 -121 -214 -121
-317 l0 -47 88 -21 c48 -11 106 -23 128 -27 39 -6 42 -9 48 -45 4 -27 18 -51
46 -79 64 -64 151 -66 219 -5 21 19 42 49 47 67 9 32 12 33 74 41 103 12 330
50 326 54 -2 3 -47 0 -100 -6 -120 -14 -373 -14 -491 -1 -49 6 -138 22 -197
36 -104 25 -108 27 -108 53 0 48 36 159 71 217 89 147 233 216 461 218 122 1
128 6 32 31 -69 18 -189 18 -259 1z"/>
<path d="M11481 4639 c-88 -11 -165 -51 -237 -123 -104 -104 -147 -233 -125
-373 21 -139 122 -272 251 -332 55 -26 57 -26 343 -29 l287 -3 0 436 0 435
-227 -1 c-126 -1 -257 -5 -292 -10z"/>
<path d="M5994 4621 c-92 -56 -117 -174 -53 -255 65 -83 195 -74 263 17 32 43
30 150 -3 194 -46 62 -144 82 -207 44z"/>
<path d="M4245 4613 c-33 -8 -52 -31 -65 -78 -24 -87 13 -185 70 -185 71 0
114 121 75 213 -12 30 -44 61 -57 56 -2 -1 -12 -4 -23 -6z"/>
<path d="M4548 4593 c-28 -33 -38 -61 -38 -113 0 -69 23 -116 63 -130 29 -10
34 -8 59 19 51 57 58 143 17 210 -15 25 -25 31 -52 31 -20 0 -40 -7 -49 -17z"/>
<path d="M8500 4574 c-74 -20 -126 -52 -189 -117 -70 -72 -87 -100 -111 -176
-64 -203 37 -425 239 -527 l56 -29 840 0 840 0 54 24 c67 30 150 101 197 166
76 108 94 268 44 399 -44 115 -187 237 -311 265 -28 7 -332 10 -824 10 -654 0
-789 -3 -835 -15z"/>
<path d="M7101 4355 c-32 -61 -119 -141 -188 -173 -52 -24 -70 -27 -163 -27
-95 0 -110 3 -160 28 -66 32 -122 83 -167 150 -18 27 -33 45 -33 41 0 -24 63
-115 109 -157 157 -147 365 -139 526 20 45 44 113 148 103 158 -2 2 -14 -16
-27 -40z"/>
<path d="M6325 4350 c-24 -54 -110 -139 -171 -170 -65 -32 -171 -39 -243 -15
-63 21 -151 99 -192 169 -36 63 -38 53 -3 -16 37 -72 115 -151 177 -179 39
-17 70 -23 123 -23 90 0 161 33 232 107 45 49 109 153 99 163 -2 2 -12 -14
-22 -36z"/>
<path d="M7488 4338 c-27 -6 -48 -15 -48 -22 0 -20 12 -56 19 -56 4 0 29 20
56 45 52 46 50 49 -27 33z"/>
<path d="M5294 4239 c-15 -26 51 -38 101 -19 14 5 23 14 20 20 -8 14 -112 13
-121 -1z"/>
<path d="M4920 4222 c-44 -21 -48 -59 -10 -80 40 -21 172 -12 207 14 15 12 28
27 28 35 0 24 -66 49 -130 49 -37 0 -73 -7 -95 -18z"/>
<path d="M5165 4094 c-33 -34 36 -63 106 -44 44 12 55 25 39 45 -18 21 -123
20 -145 -1z"/>
<path d="M7610 4078 c-19 -5 -52 -14 -72 -19 -35 -9 -37 -11 -31 -42 11 -62
16 -62 89 7 72 68 72 71 14 54z"/>
<path d="M6488 3905 c-5 -121 -11 -178 -28 -235 -93 -324 -355 -486 -795 -491
l-120 -2 115 -10 c127 -11 299 1 405 29 106 27 220 89 285 154 115 115 162
254 162 475 0 77 -5 163 -9 190 -8 42 -10 26 -15 -110z"/>
<path d="M7705 3750 c-38 -10 -81 -19 -95 -19 -43 -2 -50 -12 -44 -68 10 -84
14 -84 106 -6 88 75 127 114 112 112 -5 -1 -40 -9 -79 -19z"/>
<path d="M4332 3678 c-40 -51 -54 -132 -37 -220 l7 -37 -48 4 c-113 11 -338
24 -342 20 -9 -8 64 -71 105 -90 21 -10 65 -26 98 -36 l60 -16 -35 -15 c-19
-8 -92 -39 -162 -68 -70 -29 -125 -57 -122 -61 2 -4 30 -13 60 -20 44 -10 74
-10 137 -1 44 6 82 10 85 8 2 -3 -30 -44 -72 -93 -53 -61 -72 -89 -61 -91 26
-6 118 26 154 52 l35 26 60 -58 c99 -95 196 -153 331 -199 96 -33 197 -55 206
-46 3 5 17 40 29 78 32 101 102 269 154 374 25 50 46 92 46 94 0 2 -42 7 -92
10 -114 8 -190 28 -287 75 -98 48 -202 150 -254 250 -21 39 -40 72 -41 72 -2
0 -8 -6 -14 -12z"/>
<path d="M6750 3230 c0 -53 54 -160 82 -160 14 0 9 68 -7 107 -27 65 -75 99
-75 53z"/>
<path d="M5478 3183 c7 -3 16 -2 19 1 4 3 -2 6 -13 5 -11 0 -14 -3 -6 -6z"/>
<path d="M6993 3175 c-17 -46 30 -173 74 -202 22 -15 26 -15 41 0 37 37 -33
217 -84 217 -13 0 -27 -7 -31 -15z"/>
<path d="M4964 2883 c-9 -46 6 -108 26 -108 11 0 16 14 18 52 5 83 -30 128
-44 56z"/>
<path d="M7442 2894 c-34 -7 -74 -19 -87 -27 -23 -11 -9 -13 107 -13 91 1 140
-3 156 -12 21 -12 22 -11 22 28 l0 40 -67 -1 c-38 -1 -96 -7 -131 -15z"/>
<path d="M6929 2878 c-16 -30 -6 -131 20 -199 29 -76 93 -149 131 -149 42 0
57 50 40 133 -31 162 -149 294 -191 215z"/>
<path d="M5090 2754 c-22 -56 4 -164 40 -164 32 0 41 94 16 155 -18 41 -43 45
-56 9z"/>
<path d="M7640 2630 l0 -50 87 0 c99 0 99 -2 -19 64 l-68 37 0 -51z"/>
<path d="M7837 2235 l-77 -74 46 -31 c25 -18 47 -30 49 -28 7 7 65 192 63 199
-2 4 -38 -26 -81 -66z"/>
<path d="M8150 2168 c-13 -24 -41 -69 -62 -100 -21 -31 -38 -61 -38 -66 0 -11
103 -43 111 -34 8 8 24 242 17 242 -2 0 -15 -19 -28 -42z"/>
<path d="M8420 2201 c0 -10 -53 -157 -85 -233 -6 -15 -2 -18 21 -18 34 0 101
18 108 28 6 11 -24 216 -35 227 -6 5 -9 4 -9 -4z"/>
<path d="M9581 1834 c-57 -47 -50 -137 13 -175 30 -18 70 -19 1029 -19 914 0
1001 1 1027 17 59 34 69 125 21 174 l-29 29 -1015 0 -1015 0 -31 -26z"/>
<path d="M5038 1465 l-3 -87 -140 -64 -140 -64 93 0 c50 0 92 -2 92 -5 0 -2
-16 -33 -35 -68 -19 -35 -35 -66 -35 -69 0 -3 64 14 143 38 78 24 145 44 149
44 3 0 14 -23 23 -51 l17 -51 64 69 63 68 1 112 0 112 -57 16 c-46 13 -138 47
-225 83 -4 2 -9 -36 -10 -83z"/>
</g>
</svg>
