<?xml version="1.0" standalone="no"?>
<!DOCTYPE svg PUBLIC "-//W3C//DTD SVG 20010904//EN"
 "http://www.w3.org/TR/2001/REC-SVG-20010904/DTD/svg10.dtd">
<svg version="1.0" xmlns="http://www.w3.org/2000/svg"
 width="1300.000000pt" height="1003.000000pt" viewBox="0 0 1300.000000 1003.000000"
 preserveAspectRatio="xMidYMid meet">

<g transform="translate(0.000000,1003.000000) scale(0.100000,-0.100000)"
fill="#000000" stroke="none">
<path d="M3850 10005 c-14 -16 4 91 -334 -2075 l-261 -1675 -30 -3 c-59 -5
-74 -12 -94 -46 -32 -51 -32 -52 55 -252 3 -6 -7 -15 -23 -19 -15 -3 -42 -17
-60 -31 -17 -13 -40 -24 -50 -24 -10 0 -42 -11 -71 -25 -30 -14 -55 -25 -57
-25 -2 0 -35 42 -75 94 -94 124 -140 147 -207 106 -35 -21 -49 -55 -40 -98 3
-16 82 -160 174 -322 93 -162 199 -347 235 -410 l66 -115 -59 -375 c-32 -206
-122 -784 -199 -1285 -77 -500 -143 -923 -146 -940 l-5 -30 -175 3 -174 3 0
27 c0 27 76 1138 341 4980 103 1498 137 2037 129 2052 -6 11 -19 20 -30 20
-36 0 -48 -39 -59 -190 -26 -337 -471 -6807 -471 -6847 l0 -43 -172 -1 c-228
-2 -472 2 -477 7 -5 5 -19 159 -366 4019 -162 1804 -298 3300 -302 3325 -7 41
-11 45 -40 48 -28 3 -33 -1 -39 -23 -5 -21 634 -7215 652 -7336 l5 -36 -80 -6
c-78 -6 -127 -22 -163 -55 -10 -8 -18 -13 -18 -11 0 2 -74 416 -165 919 -91
503 -345 1921 -566 3150 -235 1312 -406 2241 -414 2249 -16 16 -60 8 -68 -13
-8 -21 1168 -6562 1190 -6618 16 -42 435 -565 1455 -1818 l183 -225 3453 -3
3453 -2 51 56 c136 145 334 424 457 641 122 217 264 535 348 781 l38 111 807
202 c444 111 812 207 819 215 6 7 9 21 7 30 -9 46 -8 47 -811 -155 -424 -106
-777 -195 -782 -197 -6 -3 7 64 28 148 70 279 117 614 117 836 l0 99 953 398
c523 219 969 406 990 417 21 10 41 26 44 34 6 16 -23 54 -42 54 -19 0 -244
-92 -1095 -450 -448 -188 -823 -345 -832 -347 -16 -5 -18 2 -18 53 0 109 -20
237 -45 291 -40 88 -117 117 -186 70 -50 -33 -74 -76 -116 -203 l-37 -114 -28
55 c-39 75 -98 90 -127 31 -11 -24 -28 -245 -31 -397 0 -33 -3 -36 -52 -57
-29 -12 -54 -19 -56 -15 -13 37 -53 90 -75 101 -52 25 -80 -14 -94 -126 l-6
-54 -61 -28 c-34 -15 -79 -33 -101 -40 -22 -7 -77 -31 -123 -53 -46 -22 -84
-38 -86 -36 -2 2 -9 67 -16 144 -10 121 -33 315 -42 355 -2 8 518 279 1401
730 772 395 1408 725 1413 734 12 22 -8 56 -33 56 -11 0 -637 -315 -1392 -699
-755 -385 -1381 -703 -1391 -707 -16 -6 -18 -4 -12 12 44 115 96 380 96 494 0
113 -23 160 -79 160 -30 0 -79 -47 -113 -107 -17 -30 -32 -53 -33 -51 -2 2
-18 41 -35 88 -39 102 -46 112 -78 108 -48 -6 -48 -27 -4 -146 53 -140 96
-293 131 -469 16 -76 28 -139 27 -140 0 0 -431 -220 -956 -488 -525 -268 -963
-494 -973 -503 -9 -8 -17 -18 -17 -22 0 -4 -98 -207 -218 -451 -120 -244 -292
-596 -382 -782 l-165 -338 -355 3 c-331 3 -358 4 -395 23 -47 23 -53 47 -26
91 25 42 107 81 196 94 106 16 112 18 123 47 10 25 362 1163 413 1333 47 158
78 290 73 305 -4 9 -15 15 -27 13 -16 -2 -29 -27 -61 -113 l-41 -110 -121 -82
c-67 -45 -457 -305 -868 -577 l-746 -495 -72 85 -71 85 29 28 c16 16 211 188
434 383 656 574 1809 1585 1889 1657 41 36 764 670 1605 1409 1130 991 1532
1349 1534 1367 5 34 -31 52 -61 31 -12 -8 -312 -269 -667 -581 l-644 -566 -13
74 c-14 85 -56 206 -86 253 -45 68 -105 76 -142 20 -9 -13 -28 -81 -42 -151
l-27 -126 -37 37 c-31 31 -40 49 -54 113 -47 214 -152 365 -228 330 -34 -16
-47 -49 -47 -124 0 -36 -4 -65 -9 -65 -4 0 -50 22 -102 49 -100 52 -259 115
-322 126 -20 4 -39 11 -42 14 -2 4 12 42 31 83 l36 75 107 33 c115 35 131 43
131 70 0 28 -23 40 -131 68 l-103 27 -35 109 c-56 170 -84 170 -145 0 -22 -60
-40 -110 -40 -111 -1 -1 -46 -9 -101 -19 -111 -18 -125 -25 -125 -61 0 -21 15
-31 114 -78 62 -29 116 -57 119 -62 3 -5 15 -33 27 -62 l21 -54 -43 7 c-266
43 -509 16 -703 -78 -125 -61 -214 -145 -302 -285 -1 -2 -36 29 -76 68 -249
246 -579 318 -878 192 -53 -23 -75 -28 -80 -19 -4 7 -61 30 -125 53 l-118 40
-39 108 c-34 89 -44 108 -64 113 -14 4 -29 2 -34 -3 -6 -6 -27 -64 -48 -129
l-37 -119 -94 -33 c-98 -34 -120 -46 -120 -68 0 -25 31 -43 108 -59 42 -10 82
-22 88 -29 6 -6 33 -67 60 -135 36 -92 55 -126 72 -134 17 -8 22 -16 17 -31
-39 -135 -48 -183 -52 -302 l-6 -131 -246 -6 c-135 -4 -273 -11 -306 -16 -33
-6 -61 -9 -62 -7 -5 5 622 1726 629 1726 4 0 63 -41 132 -91 128 -92 155 -102
171 -61 4 9 137 392 296 851 229 660 286 837 278 852 -10 19 -36 25 -54 11 -6
-4 -109 -123 -229 -264 -119 -142 -219 -258 -221 -258 -2 0 6 28 19 63 13 34
162 444 331 911 235 646 306 853 298 865 -13 21 -47 26 -60 9 -6 -7 -173 -463
-373 -1013 -199 -550 -367 -1009 -375 -1020 -7 -11 -30 -40 -51 -64 l-39 -43
-157 131 c-157 131 -191 149 -216 118 -13 -15 -542 -1578 -542 -1600 0 -8 9
-22 20 -32 16 -14 25 -16 43 -8 13 6 124 158 262 359 131 192 250 364 263 381
l24 33 52 -37 c28 -20 52 -37 53 -38 3 -1 -573 -1591 -599 -1653 l-13 -34
-195 294 c-107 161 -196 300 -198 308 -1 8 216 895 483 1971 267 1076 482
1964 479 1973 -10 26 -46 31 -63 9 -9 -10 -228 -873 -491 -1936 -261 -1054
-477 -1916 -480 -1916 -7 1 -678 1010 -685 1030 -3 8 127 870 290 1915 275
1768 294 1900 278 1911 -22 17 -38 16 -53 -2z m3702 -4724 c385 -67 700 -235
1007 -536 l124 -122 -244 -215 c-134 -117 -499 -437 -811 -711 l-568 -497 -49
24 c-127 65 -178 187 -148 354 7 39 5 43 -10 40 -10 -2 -29 -25 -43 -53 -36
-73 -35 -187 3 -269 15 -32 27 -59 27 -61 0 -7 -118 -79 -186 -113 -269 -135
-616 -203 -1162 -227 l-122 -5 -63 133 c-66 137 -83 161 -114 155 -10 -2 -54
-57 -99 -126 -45 -68 -86 -128 -91 -133 -13 -13 -259 12 -460 46 -197 34 -353
75 -482 130 -479 202 -780 547 -831 950 -12 102 -3 171 31 243 37 76 140 132
218 117 37 -7 106 -39 115 -54 3 -4 0 -33 -6 -62 -12 -60 -5 -136 17 -165 23
-31 38 -3 39 73 1 84 32 153 84 188 50 34 139 35 197 2 49 -28 96 -101 103
-162 8 -72 28 -80 127 -49 266 83 488 114 822 114 182 0 244 3 250 13 4 6 8
82 9 167 0 123 5 173 22 244 54 218 176 373 360 458 295 135 662 36 867 -234
41 -53 44 -61 39 -102 -6 -43 2 -61 23 -48 6 4 25 36 43 72 84 167 189 274
345 352 164 82 391 107 617 69z m-2142 -160 c-20 -16 -55 -56 -80 -90 -24 -33
-46 -59 -47 -57 -6 5 29 130 39 141 9 10 79 32 108 34 8 1 -1 -12 -20 -28z
m-2126 -388 c70 -122 127 -226 127 -230 0 -4 -17 -12 -39 -18 -99 -30 -188
-127 -217 -240 -38 -147 2 -357 105 -562 60 -119 129 -213 231 -314 l77 -77
-105 -418 c-57 -230 -105 -419 -106 -420 -1 -1 -137 2 -302 5 l-301 6 118 760
c242 1559 268 1730 268 1740 0 17 16 -9 144 -232z m971 -107 c189 -281 195
-295 143 -296 -17 0 -230 -53 -260 -65 -12 -5 -18 -2 -18 7 0 24 -49 110 -82
145 -17 17 -44 37 -59 44 -16 6 -29 17 -29 23 -1 27 105 435 111 428 3 -4 91
-132 194 -286z m-580 -1459 c14 -99 75 -253 143 -362 l19 -30 -34 -53 c-48
-75 -119 -224 -145 -303 l-21 -68 -51 26 c-28 14 -72 33 -98 42 l-46 16 100
403 c80 321 103 400 113 392 7 -6 16 -34 20 -63z m6952 -45 c-7 -108 -34 -298
-47 -322 -8 -14 -138 -75 -145 -68 -2 2 16 48 40 103 23 55 63 160 89 234 66
190 72 195 63 53z m-3713 -50 c-38 -35 -81 -72 -95 -82 l-27 -20 25 83 c17 56
33 89 50 104 l26 21 45 -21 44 -22 -68 -63z m-2767 -98 l91 -29 83 -172 c78
-164 106 -209 127 -202 5 2 64 68 131 147 68 78 126 142 129 142 4 0 68 -8
142 -16 74 -9 167 -17 205 -19 133 -6 584 -6 608 0 21 6 37 -10 142 -139 91
-112 124 -146 142 -146 19 0 44 32 141 176 l117 176 95 24 c132 33 240 70 339
116 46 21 86 36 88 34 5 -5 -25 -91 -60 -170 -30 -67 -38 -75 -297 -303 l-265
-233 -82 -26 c-403 -123 -838 -154 -1188 -83 -483 98 -890 406 -1028 779 -48
130 -56 127 106 45 78 -39 183 -84 234 -101z m6592 -60 c1 -56 -1 -62 -21 -67
-12 -4 -24 -5 -25 -3 -2 2 5 63 14 137 l18 134 6 -70 c4 -38 7 -98 8 -131z
m-5469 -15 c0 -5 -162 0 -168 6 -2 2 18 35 44 75 l48 72 37 -74 c21 -40 38
-76 39 -79z m-775 -5 c55 -9 102 -18 104 -20 4 -4 -137 -174 -145 -174 -6 0
-104 204 -104 216 0 3 10 4 23 0 12 -3 67 -13 122 -22z m5871 -86 c-15 -40
-17 -29 -9 43 7 61 8 62 13 24 3 -22 1 -52 -4 -67z m-4286 57 c0 -3 -32 -53
-70 -111 l-71 -105 -75 93 -75 93 113 12 c62 7 120 15 128 17 24 6 50 6 50 1z
m3386 -52 c14 -127 34 -341 36 -401 l3 -73 -135 -58 c-182 -77 -175 -75 -161
-57 7 9 35 32 62 53 28 21 52 48 56 60 6 28 -12 53 -39 53 -10 0 -159 -68
-331 -151 -172 -83 -318 -153 -324 -156 -10 -4 -13 14 -13 72 0 88 -11 115
-45 115 -14 0 -228 -98 -476 -217 -480 -231 -496 -241 -453 -283 19 -20 22
-20 312 39 l292 58 0 -27 c0 -19 -7 -30 -26 -39 -15 -6 -205 -86 -423 -178
-218 -91 -404 -169 -413 -174 -18 -10 56 155 158 351 l49 95 235 121 c1021
524 1625 832 1629 829 2 -3 5 -17 7 -32z m1278 -140 c-23 -350 -84 -709 -159
-943 l-15 -46 -167 -41 c-92 -23 -169 -40 -170 -39 -2 2 39 90 91 197 146 302
242 554 306 808 16 62 31 115 32 116 5 5 72 33 81 34 4 1 5 -38 1 -86z m-6666
-156 c204 -170 431 -280 703 -341 171 -38 315 -50 533 -43 199 6 326 21 510
62 60 14 110 24 112 22 1 -1 -126 -114 -282 -250 l-284 -249 -68 69 c-220 226
-541 318 -869 249 -126 -27 -266 -89 -329 -148 l-22 -19 -155 183 c-85 101
-168 196 -185 212 l-30 28 15 51 c21 71 81 209 127 291 l38 69 54 -61 c30 -33
89 -89 132 -125z m6482 160 c0 -2 -18 -64 -39 -138 -42 -143 -106 -321 -172
-477 -45 -106 -212 -446 -234 -476 -10 -13 -84 -36 -267 -81 -139 -35 -254
-62 -256 -60 -2 2 -1 51 3 109 l7 105 82 62 c103 80 262 239 347 349 89 115
204 292 275 424 l59 109 90 38 c88 37 105 43 105 36z m-342 -176 c-26 -44 -38
-44 -38 0 0 21 6 30 28 37 15 5 29 8 30 6 2 -1 -7 -21 -20 -43z m-102 -97 c6
-60 5 -64 -31 -119 -21 -31 -38 -55 -39 -53 -1 2 3 56 8 121 8 84 15 120 26
127 20 13 28 -3 36 -76z m-146 19 c0 -26 -32 -257 -41 -303 -6 -30 -19 -65
-29 -77 -17 -22 -17 -19 -24 80 -7 105 -22 214 -32 242 -5 11 8 21 47 40 56
25 79 30 79 18z m-6568 -82 c88 -23 163 -58 232 -110 44 -33 792 -917 1533
-1811 l45 -55 -92 -3 -93 -3 -31 38 c-17 21 -229 272 -471 558 -241 286 -531
630 -644 765 -311 373 -334 396 -456 455 -135 66 -123 65 -1155 65 -805 0
-936 -2 -967 -15 -19 -8 -37 -15 -39 -15 -9 0 -3 53 10 84 30 71 -49 66 1057
66 952 0 999 -1 1071 -19z m6248 -161 l-39 -135 0 80 c-1 44 -4 97 -7 117 -6
37 -5 38 37 57 24 11 44 19 45 18 1 -1 -15 -63 -36 -137z m133 -104 l2 -159
-73 -64 c-41 -36 -76 -62 -78 -60 -3 3 25 116 62 252 79 287 84 289 87 31z
m-267 -178 c-4 -189 -11 -374 -14 -412 l-7 -69 -1213 -305 c-667 -168 -1215
-303 -1217 -300 -3 3 51 119 119 258 l125 253 472 198 471 197 -7 -94 c-7
-102 -1 -124 39 -124 12 0 145 101 326 247 l305 247 290 123 c160 67 296 122
304 123 12 0 13 -51 7 -342z m-6178 223 c34 -12 89 -42 121 -66 65 -48 74 -58
392 -440 128 -154 417 -497 641 -762 224 -265 408 -485 408 -488 0 -3 -496 -4
-1102 -3 l-1102 3 -414 510 c-227 281 -542 669 -700 862 -158 194 -288 359
-290 367 -2 8 9 22 25 30 25 14 140 15 993 13 l965 -2 63 -24z m1527 -166
c147 -41 302 -136 392 -241 l47 -55 -49 -42 c-27 -23 -111 -96 -186 -162 -75
-66 -154 -135 -175 -154 -21 -18 -74 -65 -117 -104 -43 -38 -79 -68 -81 -66
-17 23 -183 223 -238 287 -39 45 -94 111 -122 146 -28 34 -86 104 -128 153
l-78 91 33 24 c83 63 211 116 329 137 78 14 302 6 373 -14z m1691 -147 c-95
-300 -130 -404 -140 -414 -13 -13 -1343 -694 -1354 -694 -9 1 -97 111 -97 122
0 6 1608 1085 1622 1088 0 0 -13 -46 -31 -102z m3984 -224 c0 -29 -153 -401
-230 -561 -167 -344 -309 -567 -523 -820 l-69 -83 -229 0 -229 0 34 67 c34 69
97 231 122 314 12 38 37 69 142 175 204 205 410 478 583 774 l26 45 179 46
c203 53 194 51 194 43z m-521 -161 c-64 -107 -162 -252 -249 -368 -100 -133
-279 -340 -287 -332 -2 3 7 58 21 123 21 100 49 279 72 461 4 36 9 44 32 50
15 3 110 28 212 54 235 60 228 59 199 12z m-539 -127 c0 -85 -84 -548 -119
-656 -10 -30 -24 -77 -31 -105 -20 -76 -96 -269 -136 -346 l-36 -69 -954 0
-954 0 0 109 c0 78 -4 112 -13 120 -9 6 -84 12 -205 13 l-191 3 82 169 82 170
1220 306 c671 169 1228 308 1238 309 12 1 17 -6 17 -23z m-3145 -162 c-24 -75
-47 -140 -52 -145 -4 -4 -249 -109 -543 -233 l-535 -225 -37 42 c-20 23 -36
46 -34 52 2 6 1227 642 1243 645 0 0 -18 -61 -42 -136z m-110 -361 c-15 -48
-28 -89 -29 -90 -1 -2 -38 -9 -82 -17 -101 -17 -167 -51 -224 -113 l-45 -48
-258 -65 -257 -65 -28 35 c-15 19 -27 38 -27 43 0 8 967 418 973 412 2 -2 -8
-43 -23 -92z m-355 -405 c0 -5 -53 -8 -117 -7 l-118 1 105 27 105 28 12 -21
c7 -12 12 -24 13 -28z m1290 -173 l0 -75 -2133 0 -2133 0 -50 63 c-28 34 -54
68 -58 75 -6 9 434 12 2183 12 l2191 0 0 -75z"/>
<path d="M5783 5085 c-273 -74 -458 -374 -413 -673 26 -173 121 -308 270 -380
l80 -39 -106 -12 c-181 -21 -305 -73 -278 -118 32 -53 158 -76 409 -77 209 -1
289 11 359 52 67 39 60 72 -22 112 l-52 26 55 11 c231 49 388 242 402 494 11
181 -39 318 -160 446 -76 80 -162 130 -272 158 -73 19 -202 18 -272 0z m25
-117 c5 -7 23 -67 39 -133 l29 -120 144 0 c80 0 151 -4 158 -8 6 -5 12 -18 12
-31 0 -17 -26 -41 -105 -99 -58 -43 -105 -84 -105 -92 0 -8 14 -76 30 -151 45
-203 25 -210 -130 -47 l-99 105 -96 -86 c-78 -71 -101 -87 -123 -84 -16 2 -28
10 -30 21 -2 10 13 72 33 138 20 67 34 124 30 127 -3 4 -36 30 -73 57 -101 76
-93 114 22 116 119 3 113 -3 158 144 43 139 51 155 78 155 10 0 22 -6 28 -12z
m543 -220 c75 -148 79 -316 11 -456 -31 -64 -120 -150 -191 -187 -44 -22 -158
-54 -195 -55 -5 0 23 16 62 35 127 64 236 209 277 370 24 94 20 245 -9 330
-23 66 -23 68 -4 45 11 -14 33 -51 49 -82z"/>
<path d="M7100 5084 c-150 -40 -276 -146 -349 -294 -154 -315 -50 -658 236
-775 31 -12 52 -24 47 -27 -5 -3 -38 -8 -73 -12 -78 -9 -176 -39 -202 -62 -50
-45 4 -83 149 -104 111 -16 451 -7 546 14 82 19 152 51 161 74 10 26 -36 59
-102 72 -85 18 -92 21 -62 30 15 4 55 23 89 41 262 140 348 509 183 788 -43
73 -138 164 -212 204 -111 61 -290 83 -411 51z m22 -118 c8 -7 27 -69 42 -136
l28 -123 144 6 c121 4 147 2 160 -10 26 -26 12 -46 -76 -111 -47 -35 -95 -71
-107 -80 l-22 -17 30 -135 c16 -74 29 -146 27 -160 -6 -48 -44 -27 -152 85
l-101 105 -95 -85 c-96 -87 -130 -102 -149 -67 -6 12 2 53 30 142 21 68 39
125 39 126 0 0 -34 25 -75 54 -55 39 -75 59 -75 75 0 34 18 42 114 48 49 4 90
8 92 10 2 2 20 57 40 123 48 159 68 188 106 150z m548 -221 c45 -89 65 -201
53 -295 -14 -103 -44 -176 -97 -236 -76 -86 -184 -143 -301 -157 l-50 -7 38
15 c261 99 411 480 296 752 l-20 48 25 -30 c14 -16 39 -57 56 -90z"/>
<path d="M3789 4301 c-23 -24 -29 -38 -29 -75 0 -64 33 -101 90 -100 59 2 100
42 100 100 0 95 -96 140 -161 75z"/>
<path d="M3393 4288 c-104 -27 -95 -202 10 -202 69 0 108 38 109 105 1 72 -52
115 -119 97z"/>
<path d="M4125 3835 c-22 -8 -41 -15 -42 -15 -1 0 -7 -9 -13 -19 -26 -49 28
-76 150 -76 98 0 144 19 138 58 -7 49 -154 82 -233 52z"/>
<path d="M4410 3621 c-83 -19 -127 -54 -115 -91 16 -52 205 -93 330 -72 105
17 134 59 73 106 -60 44 -211 74 -288 57z"/>
<path d="M3980 3605 c-17 -21 2 -43 46 -51 49 -9 84 2 84 26 0 37 -104 56
-130 25z"/>
<path d="M2708 1661 c-91 -30 -138 -96 -138 -194 0 -183 192 -418 445 -545
110 -55 185 -76 280 -76 88 -1 134 13 178 53 81 74 83 175 5 331 -35 69 -60
103 -138 180 -161 160 -339 249 -515 256 -49 2 -102 0 -117 -5z m435 -252 c25
-14 37 -28 37 -46 0 -10 -43 -13 -182 -13 -155 0 -184 2 -200 17 -10 9 -18 24
-18 35 0 17 11 18 171 18 109 0 178 -4 192 -11z m-101 -136 c10 -9 18 -24 18
-35 0 -16 -9 -18 -79 -18 -64 0 -83 4 -105 21 -49 38 -35 49 61 49 66 0 91 -4
105 -17z m197 -7 c13 -14 20 -29 16 -35 -12 -20 -100 -13 -129 10 -44 34 -34
49 32 49 49 0 62 -4 81 -24z m-215 -117 c40 -31 34 -49 -17 -49 -31 0 -49 6
-62 20 -41 45 27 70 79 29z m297 -8 c10 -13 19 -27 19 -32 0 -5 -49 -9 -108
-9 -96 0 -111 2 -127 20 -10 11 -15 26 -11 36 5 13 21 15 107 12 92 -3 103 -5
120 -27z"/>
<path d="M1980 7815 c-57 -18 -202 -134 -264 -212 -54 -66 -143 -242 -179
-354 -42 -127 -61 -266 -54 -398 8 -160 34 -241 97 -303 45 -46 50 -48 103
-48 68 0 89 8 176 64 169 111 301 327 362 595 28 124 36 344 15 441 -38 179
-129 256 -256 215z m34 -561 c21 -54 -22 -141 -113 -226 -125 -118 -231 -142
-231 -51 0 69 128 221 224 268 59 28 111 32 120 9z"/>
<path d="M2045 6503 c-77 -48 -225 -139 -330 -203 -171 -105 -190 -120 -189
-143 0 -15 1 -67 2 -117 l2 -90 34 -14 c39 -16 62 -54 72 -115 4 -23 9 -41 12
-41 2 0 29 14 60 31 l55 32 -7 78 -6 78 87 47 c49 26 145 78 214 116 l127 69
7 162 c4 90 6 170 4 180 -3 13 -33 -1 -144 -70z"/>
<path d="M5947 5919 c-8 -5 -29 -51 -46 -102 l-31 -93 -77 -25 c-123 -39 -125
-74 -7 -121 l69 -28 45 -93 c41 -85 47 -92 74 -92 28 0 31 4 58 87 l29 87 77
29 c129 49 128 87 -4 137 -68 26 -72 29 -84 69 -40 134 -63 167 -103 145z"/>
<path d="M2145 5911 c-6 -5 -139 -75 -297 -156 l-288 -147 0 -61 c0 -100 10
-137 36 -148 30 -11 64 -65 64 -101 0 -33 10 -34 68 -8 l42 19 0 66 0 67 102
46 c57 26 143 67 193 92 l90 45 5 140 c5 140 3 163 -15 146z"/>
<path d="M1833 5225 c-85 -42 -148 -107 -195 -202 -27 -55 -33 -80 -36 -155
-5 -104 12 -163 59 -202 64 -54 135 -53 255 5 214 102 298 456 135 566 -53 36
-128 32 -218 -12z m145 -248 c4 -22 -52 -77 -105 -102 -21 -10 -59 -20 -85
-23 -39 -4 -49 -1 -54 13 -20 51 111 137 201 132 29 -1 41 -7 43 -20z"/>
<path d="M9196 4776 c-88 -81 -89 -84 -91 -132 -2 -55 -30 -117 -69 -153 -14
-14 -26 -28 -26 -33 0 -5 17 -31 37 -58 31 -41 39 -47 52 -37 9 6 37 30 64 51
28 23 51 36 56 30 4 -5 77 -91 161 -191 84 -101 155 -183 158 -183 10 0 312
202 312 209 0 7 -548 575 -558 578 -4 1 -47 -35 -96 -81z"/>
<path d="M1857 4560 c-181 -57 -285 -244 -216 -386 27 -57 72 -84 139 -84 121
0 230 61 285 161 27 49 30 63 30 144 0 104 -13 131 -81 165 -49 24 -80 24
-157 0z m98 -200 c24 -39 -80 -104 -156 -98 -36 2 -45 7 -47 24 -4 27 13 40
79 64 59 21 114 26 124 10z"/>
<path d="M8768 4385 c-59 -56 -68 -70 -68 -100 0 -42 -21 -97 -54 -139 l-23
-31 32 -48 32 -47 45 39 45 40 118 -175 c66 -97 122 -177 127 -180 4 -2 59 29
122 70 l116 75 -208 280 c-114 154 -209 280 -212 280 -3 0 -35 -29 -72 -64z"/>
<path d="M1850 4021 c-79 -25 -112 -45 -152 -89 -44 -49 -62 -101 -54 -154 18
-111 84 -149 219 -124 79 15 137 52 182 116 27 37 30 50 30 115 0 64 -3 77
-25 100 -51 56 -108 66 -200 36z m95 -171 c0 -25 -84 -61 -135 -58 -63 4 -67
31 -8 58 52 24 143 24 143 0z"/>
<path d="M8353 4000 c-108 -62 -162 -183 -142 -315 12 -71 59 -178 97 -218 91
-97 225 -93 327 8 61 62 70 88 70 205 0 99 -2 109 -34 178 -73 156 -197 211
-318 142z m72 -197 c15 -16 41 -55 56 -88 73 -153 -10 -186 -88 -36 -44 84
-44 145 -2 150 4 1 19 -11 34 -26z"/>
<path d="M7975 3634 c-106 -55 -137 -178 -86 -344 19 -61 32 -84 70 -122 57
-57 87 -66 147 -43 52 20 98 75 115 139 34 124 -48 331 -148 372 -42 18 -61
17 -98 -2z m71 -201 c15 -30 29 -77 32 -105 4 -45 3 -50 -14 -46 -21 4 -72
100 -81 152 -13 82 23 82 63 -1z"/>
<path d="M1960 3620 c-47 -9 -131 -25 -187 -35 l-103 -18 0 -42 c0 -34 4 -44
25 -55 14 -8 28 -24 31 -37 5 -18 13 -23 39 -23 31 0 34 3 37 33 3 31 5 32 63
40 33 4 90 13 128 18 l67 11 0 64 c0 35 -3 64 -7 63 -5 0 -46 -9 -93 -19z"/>
<path d="M7671 3364 c-40 -33 -49 -51 -61 -116 -26 -134 61 -328 148 -330 96
-3 145 122 111 284 -20 95 -91 188 -144 188 -13 0 -37 -12 -54 -26z m70 -161
c26 -54 40 -161 19 -148 -35 22 -81 195 -51 195 5 0 19 -21 32 -47z"/>
<path d="M1843 3370 c-120 -24 -192 -123 -147 -201 31 -53 77 -71 159 -64 148
12 236 118 178 216 -31 53 -91 68 -190 49z m85 -116 c15 -5 15 -8 -7 -25 -17
-14 -39 -19 -82 -19 -91 0 -74 33 26 53 20 3 30 2 63 -9z"/>
<path d="M7445 3157 c-25 -25 -35 -46 -41 -82 -14 -100 42 -274 100 -304 32
-18 67 -4 93 36 27 42 24 179 -7 258 -23 58 -76 125 -100 125 -7 0 -27 -15
-45 -33z m71 -162 c8 -30 14 -69 12 -87 l-4 -33 -17 38 c-20 43 -38 127 -30
140 9 15 23 -5 39 -58z"/>
<path d="M7330 3045 c-22 -26 -46 -109 -40 -136 4 -14 13 -23 23 -23 19 2 18
3 48 -126 12 -52 23 -97 25 -99 7 -8 54 30 54 43 0 16 -87 347 -93 353 -2 2
-10 -4 -17 -12z"/>
<path d="M7179 2914 c-24 -29 -24 -154 0 -232 22 -72 59 -119 86 -108 23 9 45
69 45 123 -1 51 -35 164 -64 207 -19 30 -47 34 -67 10z m60 -160 c11 -60 9
-98 -3 -63 -13 38 -26 97 -26 117 0 45 18 11 29 -54z"/>
</g>
</svg>
