<svg id="Capa_1" enable-background="new 0 0 512 512" height="512" viewBox="0 0 512 512" width="512" xmlns="http://www.w3.org/2000/svg"><g><path d="m394.217 196.576c0-75.784-60.991-137.322-136.564-138.207-74.854-.877-137.277 58.631-139.789 133.448-1.566 46.64 19.987 88.322 54.078 114.477 14.82 11.37 23.301 29.157 23.301 47.836 0 14.487 11.744 26.231 26.231 26.231h69.053c14.487 0 26.231-11.744 26.231-26.231v-.002c0-18.963 8.961-36.697 23.939-48.327 32.563-25.284 53.52-64.805 53.52-109.225z" fill="#ffe177"/><path d="m233.307 372.683c4.749 4.739 11.301 7.676 18.541 7.676h-30.379c-7.24 0-13.792-2.937-18.541-7.676-4.749-4.749-7.686-11.311-7.686-18.551 0-18.683-8.476-36.465-23.301-47.837-34.095-26.156-55.644-67.836-54.074-114.478 2.511-74.813 64.93-134.325 139.783-133.444 4.577.051 9.104.334 13.559.82-67.168 7.423-120.645 63.492-122.963 132.624-1.57 46.642 19.979 88.321 54.074 114.478 14.825 11.372 23.301 29.154 23.301 47.837 0 7.24 2.937 13.801 7.686 18.551z" fill="#ffc85e"/><g><g><path d="m278.784 387.956c-4.195 0-7.595-3.4-7.595-7.595v-151.571h-30.379v151.572c0 4.195-3.4 7.595-7.595 7.595s-7.595-3.4-7.595-7.595v-151.572h-16.868c-17.588 0-31.898-14.309-31.898-31.898s14.309-31.898 31.898-31.898h.159c17.588 0 31.898 14.309 31.898 31.898v16.708h30.379v-16.708c0-17.588 14.309-31.898 31.898-31.898h.159c17.588 0 31.898 14.309 31.898 31.898s-14.309 31.898-31.898 31.898h-16.868v151.572c.002 4.194-3.398 7.594-7.593 7.594zm7.595-174.356h16.868c9.213 0 16.708-7.496 16.708-16.708s-7.496-16.708-16.708-16.708h-.159c-9.213 0-16.708 7.496-16.708 16.708v16.708zm-77.625-33.416c-9.213 0-16.708 7.496-16.708 16.708s7.495 16.708 16.708 16.708h16.868v-16.708c0-9.213-7.495-16.708-16.708-16.708z" fill="#d9ecfd"/></g></g><g><path d="m256 36.455c-4.194 0-7.595-3.4-7.595-7.595v-21.265c0-4.195 3.401-7.595 7.595-7.595 4.195 0 7.595 3.4 7.595 7.595v21.265c0 4.195-3.4 7.595-7.595 7.595z" fill="#ffe177"/></g><g><g><path d="m138.57 85.095c-1.944 0-3.887-.742-5.37-2.224l-15.037-15.036c-2.966-2.967-2.966-7.775 0-10.74 2.966-2.967 7.775-2.966 10.74-.001l15.037 15.036c2.966 2.967 2.966 7.775 0 10.74-1.482 1.484-3.426 2.225-5.37 2.225z" fill="#ffe177"/></g><g><path d="m388.466 334.992c-1.943 0-3.887-.742-5.371-2.224l-15.036-15.036c-2.966-2.967-2.966-7.775 0-10.741 2.967-2.965 7.775-2.965 10.741 0l15.036 15.036c2.966 2.967 2.966 7.775 0 10.741-1.482 1.482-3.426 2.224-5.37 2.224z" fill="#ffe177"/></g></g><g><g><path d="m89.929 202.526h-21.265c-4.194 0-7.595-3.4-7.595-7.595s3.4-7.595 7.595-7.595h21.265c4.194 0 7.595 3.4 7.595 7.595s-3.401 7.595-7.595 7.595z" fill="#ffe177"/></g><g><path d="m443.336 202.526h-21.265c-4.195 0-7.595-3.4-7.595-7.595s3.4-7.595 7.595-7.595h21.265c4.195 0 7.595 3.4 7.595 7.595s-3.4 7.595-7.595 7.595z" fill="#ffe177"/></g></g><g><g><path d="m123.534 334.992c-1.944 0-3.887-.742-5.37-2.225-2.966-2.966-2.966-7.774 0-10.74l15.037-15.036c2.966-2.965 7.775-2.966 10.74.001 2.966 2.966 2.966 7.774 0 10.74l-15.037 15.036c-1.483 1.482-3.427 2.224-5.37 2.224z" fill="#ffe177"/></g><g><path d="m373.43 85.095c-1.943 0-3.887-.742-5.371-2.224-2.966-2.967-2.966-7.775 0-10.741l15.036-15.036c2.967-2.965 7.775-2.965 10.741 0 2.966 2.967 2.966 7.775 0 10.741l-15.036 15.036c-1.482 1.483-3.427 2.224-5.37 2.224z" fill="#ffe177"/></g></g><path d="m215.495 471.353v.142c0 22.369 18.136 40.505 40.505 40.505s40.505-18.136 40.505-40.505c0-.051 0-.091 0-.142l-14.505-10h-47.642z" fill="#d9ecfd"/><path d="m316.758 403.43v-.568c0-12.426-10.074-22.5-22.5-22.5h-76.515c-12.426 0-22.5 10.073-22.5 22.5v.568c0 12.427 10.074 22.5 22.5 22.5-12.426 0-22.5 10.074-22.5 22.5v.568c0 12.426 10.074 22.5 22.5 22.5h76.515c12.426 0 22.5-10.074 22.5-22.5v-.568c0-12.426-10.074-22.5-22.5-22.5 12.426 0 22.5-10.074 22.5-22.5z" fill="#618baa"/><g fill="#456b93"><path d="m248.405 471.495h-30.379c-12.587 0-22.784-10.197-22.784-22.784 0-6.288 2.552-11.979 6.673-16.111 4.121-4.121 9.812-6.673 16.111-6.673h30.379c-6.299 0-11.99 2.552-16.111 6.673-4.121 4.131-6.673 9.823-6.673 16.111 0 12.587 10.197 22.784 22.784 22.784z"/><path d="m248.405 425.927h-30.379c-12.587 0-22.784-10.197-22.784-22.784 0-6.288 2.552-11.979 6.673-16.111 4.121-4.121 9.812-6.673 16.111-6.673h30.379c-6.299 0-11.99 2.552-16.111 6.673-4.121 4.131-6.673 9.823-6.673 16.111 0 12.586 10.197 22.784 22.784 22.784z"/></g></g></svg>