<?xml version="1.0" encoding="utf-8"?>
<!-- Generator: Adobe Illustrator 24.1.3, SVG Export Plug-In . SVG Version: 6.00 Build 0)  -->
<svg version="1.1" id="Capa_1" xmlns="http://www.w3.org/2000/svg" xmlns:xlink="http://www.w3.org/1999/xlink" x="0px" y="0px"
	 viewBox="0 0 64 64" style="enable-background:new 0 0 64 64;" xml:space="preserve">
<style type="text/css">
	.st0{fill:#262626;}
</style>
<g>
	<g>
		<path class="st0" d="M32.9,2c2.4,0.3,4.4,1.6,6.4,2.7c4.9,2.8,9.8,5.7,14.7,8.5c3.5,2,5.2,5,5.2,9c0,6.5,0,12.9,0,19.4
			c0,4-1.7,7-5.2,9c-5.6,3.2-11.3,6.5-16.9,9.7c-2.2,1.3-4.6,1.8-7.2,1.2c-1-0.3-2.1-0.7-3-1.2c-5.7-3.3-11.4-6.5-17.1-9.9
			c-3.4-2-5.1-4.9-5.1-8.8c0-6.6,0-13.1,0-19.7c0-3.9,1.7-6.9,5.1-8.9c5.6-3.2,11.1-6.4,16.7-9.6C28,2.9,29.5,2.3,31.1,2
			C31.7,2,32.3,2,32.9,2z M9.4,32c0,3.3,0,6.5,0,9.8c0,2.1,0.9,3.7,2.8,4.8c5.7,3.3,11.4,6.5,17.1,9.8c1.9,1.1,3.7,1.1,5.5,0
			c5.7-3.3,11.4-6.6,17.1-9.8c1.9-1.1,2.8-2.6,2.8-4.8c0-6.5,0-13.1,0-19.6c0-2.1-0.9-3.7-2.8-4.8c-5.7-3.3-11.4-6.5-17.1-9.8
			c-1.9-1.1-3.7-1.1-5.5,0c-5.7,3.3-11.4,6.6-17.1,9.8c-1.9,1.1-2.8,2.6-2.8,4.8C9.4,25.5,9.4,28.7,9.4,32z"/>
		<path class="st0" d="M24.6,32c-2.1-1.8-4.2-3.6-6.3-5.3c-0.6-0.5-1-1-1.1-1.7c-0.1-1,0.3-1.8,1.2-2.3c0.9-0.5,1.8-0.4,2.6,0.2
			c1.2,0.9,2.3,1.9,3.4,2.9c1.7,1.4,3.4,2.9,5.1,4.3c1.4,1.2,1.4,2.8,0,4c-2.8,2.3-5.5,4.7-8.3,7c-1.2,1-2.5,1-3.4,0
			c-1-1-0.8-2.5,0.3-3.5c1.6-1.4,3.2-2.7,4.9-4.1C23.6,32.9,24.1,32.5,24.6,32z"/>
		<path class="st0" d="M39.2,37c1.8,0,3.6,0,5.4,0c1.1,0,2,0.9,2.2,1.9c0.2,1.1-0.4,2.1-1.4,2.5c-0.3,0.1-0.6,0.2-0.9,0.2
			c-3.5,0-7,0-10.5,0c-1.3,0-2.2-0.9-2.4-2.1c-0.1-1.1,0.6-2.2,1.7-2.4c0.3-0.1,0.6-0.1,0.9-0.1C35.8,37,37.5,37,39.2,37
			C39.2,37,39.2,37,39.2,37z"/>
	</g>
</g>
</svg>
