<svg id="Layer_1" data-name="Layer 1" xmlns="http://www.w3.org/2000/svg" viewBox="0 0 1127.48 214.7"><defs><style>.cls-1{fill:#6e57ff;}.cls-2{fill:#00632d;opacity:0.25;}.cls-2,.cls-3{isolation:isolate;}.cls-3{fill:#6edea5;opacity:0.5;}.cls-4{fill:#01a896;}.cls-5{fill:#6e57fc;}</style></defs><path class="cls-1" d="M159,310" transform="translate(2)"/><path class="cls-1" d="M924,593" transform="translate(2)"/><path class="cls-1" d="M1124,264.66" transform="translate(2)"/><path class="cls-2" d="M1125,1.15c.37-.08.86,0,0,0L-2,0V90.35C65.08,133.68,143.39,153.19,219.73,145,318.52,134.46,411,80,509.94,71.81c103.56-8.58,207,33,306.2,68.89,97.25,35.13,194.08,48.59,293.86,25.56,7.85-1.8,7.31-2.07,15-4.37C1125,161.49,1125,1.15,1125,1.15Z" transform="translate(2)"/><path class="cls-3" d="M1124.82.77h0c-.06-.25-.13-.51-.19-.76H0V30.83c18.15,41.18,38.54,80,66.61,109.68,72.2,76.69,163.8,76.1,247,38.24,43.43-19.9,83.92-50.93,125.26-77.66C496,64,557.18,11.32,621.55,4.1c50.69-5.47,99,18.34,137.69,61.66,44.4,49.57,87,121,144.67,142.46,56.41,21.08,113.53-13.07,166.31-47.42,17.45-11.35,36.66-28.76,54.22-40.24C1124.27,121,1125.44,1.15,1124.82.77Z" transform="translate(2)"/><path class="cls-4" d="M1124.62,1.15s.38-.39.38-.39C1124.94.51,0,0,0,0V10.93c209.36,104.21,438.69,128.21,664.53,72.2C724.58,68.3,782.12,43.91,842.74,31.42,925.14,14.64,999.86,55.23,1074,100.5c16.38,10,51.08,32.85,50.59,32.69C1125.11,133.35,1124.62,1.15,1124.62,1.15Z" transform="translate(2)"/><path class="cls-5" d="M1130.32.51" transform="translate(2)"/></svg>