<svg id="Layer_1" data-name="Layer 1" xmlns="http://www.w3.org/2000/svg" viewBox="0 0 1125 99.25"><defs><style>.cls-1{fill:#6e57ff;}.cls-2,.cls-3,.cls-4{fill:#007fff;}.cls-2{opacity:0.25;}.cls-2,.cls-3{isolation:isolate;}.cls-3{opacity:0.5;}.cls-5{fill:#6e57fc;}</style></defs><path class="cls-1" d="M159,143.3"/><path class="cls-1" d="M924,593"/><path class="cls-1" d="M1124,256"/><path class="cls-2" d="M1124.52.53c.37,0,.86,0,0,0L0,0V41.77c66.93,20,145.07,29,221.24,25.26,98.58-4.87,190.85-30,289.57-33.83,103.34-4,206.54,15.24,305.53,31.84,97,16.24,193.66,22.46,293.22,11.82,7.83-.84,7.29-1,15-2C1124.48,74.65,1124.52.53,1124.52.53Z"/><path class="cls-3" d="M1124.82.36h0l-.19-.35H0V14.25c18.15,19,38.54,37,66.61,50.7,72.2,35.45,163.8,35.18,247,17.68,43.43-9.2,83.92-23.54,125.26-35.9C496,29.59,557.18,5.23,621.55,1.89c50.69-2.52,99,8.48,137.69,28.51,44.4,22.91,87,55.93,144.67,65.85,56.41,9.75,113.53-6,166.31-21.92,17.45-5.24,36.66-13.29,54.22-18.6C1124.27,56,1125.44.53,1124.82.36Z"/><path class="cls-4" d="M1124.62.53l.38-.18C1124.94.23,0,0,0,0V5.05C209.36,53.22,438.69,64.32,664.53,38.43c60.05-6.86,117.59-18.13,178.21-23.91,82.4-7.75,157.12,11,231.29,31.94,16.38,4.62,51.08,15.19,50.59,15.11C1125.11,61.65,1124.62.53,1124.62.53Z"/><path class="cls-5" d="M1130.32.49"/></svg>