<svg xmlns="http://www.w3.org/2000/svg" viewBox="0 0 1920 1052.26">
  <defs>
    <style>.cls-1{fill:#e8e5e5;}.cls-2{fill:#58595b;}</style>
  </defs>
  <title>Asset 28</title>
  <g id="Layer_2" data-name="Layer 2">
    <g id="Layer_1-2" data-name="Layer 1">
      <path class="cls-1" d="M1163,610.64c266.74-3.34,566.52-47,757-172.46V7.84c-120.13,63.06-227.2,135.61-346.39,199.71-82.28,44.24-173.1,85.35-279.08,104.94-100.76,18.61-209.19,16.6-313.67,7.82-156.24-13.13-289.79-26.18-431.39-67.54C346.41,193.44,161.67,100.59,0,0V407.27C378.79,528.93,719.69,616.19,1163,610.64Z"/>
      <path class="cls-2" d="M0,407.27v645H1920V438.18c-190.52,125.41-490.3,169.12-757,172.46C719.69,616.19,378.79,528.93,0,407.27Z"/>
    </g>
  </g>
</svg>
