<?xml version="1.0" encoding="utf-8"?>
<!-- Generator: Adobe Illustrator 24.1.3, SVG Export Plug-In . SVG Version: 6.00 Build 0)  -->
<svg version="1.1" id="Capa_1" xmlns="http://www.w3.org/2000/svg" xmlns:xlink="http://www.w3.org/1999/xlink" x="0px" y="0px"
	 viewBox="0 0 36 36" style="enable-background:new 0 0 36 36;" xml:space="preserve">
<style type="text/css">
	.st0{fill:#FFFFFF;}
</style>
<g>
	<path class="st0" d="M33.9,24.1c-0.1,0.6-0.2,1.3-0.4,1.9c-1.1,3.3-4.2,5.6-7.7,5.5c-3.6-0.1-6.6-2.4-7.6-5.8
		c0-0.1-0.1-0.2-0.1-0.3c-0.3,0.3-0.6,0.5-0.9,0.7c-1.2,1-2.7,1-3.9,0c-2.6-2.1-5.1-4.3-7.6-6.5c-1.3-1.1-2.4-2.4-3-4.1
		c-0.2-0.7-0.4-1.4-0.6-2.1c-0.1-0.4,0.1-0.7,0.5-0.8c0.4-0.1,0.7,0.2,0.7,0.6c0.3,1.9,1.1,3.5,2.5,4.8c1.9,1.7,3.8,3.3,5.6,4.9
		c0.9,0.7,1.7,1.4,2.6,2.2c0.8,0.6,1.6,0.6,2.3,0c0.4-0.4,0.9-0.7,1.3-1.1c0.1-0.1,0.2-0.2,0.2-0.4c-0.2-4.2,2.7-7.8,6.9-8.4
		c0.6-0.1,1.1-0.1,1.7-0.1c0.1,0,0.2,0,0.3-0.2c1.7-3.8-0.5-8.3-4.6-9.2c-1.4-0.3-2.8-0.1-4.1,0.6c-0.6,0.3-1.2,0.7-1.7,1.1
		c-0.8,0.6-1.4,0.6-2.2,0c-1.1-0.9-2.2-1.5-3.6-1.8C8.9,5.5,7.3,6,6,7C5.5,7.4,5.1,7.8,4.7,8.2C4.5,8.4,4.2,8.5,3.9,8.4
		C3.7,8.3,3.6,8,3.6,7.7c0-0.1,0.1-0.2,0.1-0.3c1.7-1.9,3.7-3,6.3-2.9c1.6,0.1,3,0.8,4.4,1.8c0.2,0.1,0.3,0.2,0.5,0.4
		c0.2,0.2,0.4,0.2,0.6,0c1.2-1.1,2.7-1.8,4.3-2.1c2.2-0.4,4.1,0.3,5.8,1.7c2.7,2.2,3.6,5.5,2.4,8.8c0,0.1-0.1,0.2-0.1,0.4
		c0.3,0.1,0.5,0.2,0.8,0.3c3,1.2,4.7,3.5,5.2,6.7c0,0.1,0,0.2,0.1,0.2C33.9,23.1,33.9,23.6,33.9,24.1z M19.1,23.4
		c0,3.8,3,6.9,6.8,6.9c3.7,0,6.8-3,6.8-6.8c0-3.8-3-6.9-6.7-6.9C22.2,16.5,19.1,19.5,19.1,23.4z"/>
	<path class="st0" d="M2.8,9.9c0.3,0,0.6,0.3,0.6,0.6c0,0.3-0.3,0.6-0.6,0.6c-0.3,0-0.6-0.3-0.6-0.6C2.2,10.1,2.5,9.9,2.8,9.9z"/>
	<path class="st0" d="M23.8,21.2c0-0.3,0-0.5,0-0.8c0-0.9,0.6-1.5,1.5-1.5c0.5,0,0.9,0,1.4,0c0.8,0,1.4,0.6,1.4,1.4
		c0,0.3,0,0.5,0,0.8c0.3,0,0.6,0,0.8,0c0.8,0,1.4,0.6,1.4,1.4c0,0.5,0,1,0,1.5c0,0.8-0.6,1.4-1.4,1.4c-0.3,0-0.5,0-0.9,0
		c0,0.3,0,0.5,0,0.8c0,0.9-0.6,1.5-1.5,1.5c-0.4,0-0.9,0-1.3,0c-0.9,0-1.5-0.6-1.5-1.5c0-0.2,0-0.5,0-0.8c-0.3,0-0.5,0-0.8,0
		c-0.9,0-1.4-0.6-1.5-1.5c0-0.5,0-1,0-1.4c0-0.8,0.6-1.4,1.4-1.4C23.2,21.2,23.5,21.2,23.8,21.2z M23.7,22.5c-0.2,0-0.4,0-0.6,0
		c-0.2,0-0.3,0.1-0.3,0.3c0,0.4,0,0.8,0,1.2c0,0.2,0.1,0.3,0.3,0.3c0.4,0,0.8,0,1.2,0c0.5,0,0.7,0.2,0.7,0.7c0,0.4,0,0.8,0,1.2
		c0,0.2,0.1,0.3,0.3,0.3c0.4,0,0.8,0,1.2,0c0.2,0,0.3-0.1,0.3-0.3c0-0.4,0-0.8,0-1.2c0-0.5,0.2-0.7,0.7-0.7c0.4,0,0.8,0,1.2,0
		c0.2,0,0.3-0.1,0.3-0.3c0-0.4,0-0.8,0-1.2c0-0.2-0.1-0.3-0.3-0.3c-0.4,0-0.8,0-1.2,0c-0.4,0-0.7-0.3-0.7-0.7c0-0.4,0-0.9,0-1.3
		c0-0.2-0.1-0.3-0.3-0.3c-0.4,0-0.8,0-1.2,0c-0.2,0-0.3,0.1-0.3,0.3c0,0.4,0,0.8,0,1.2c0,0.5-0.2,0.8-0.8,0.8
		C24.1,22.5,23.9,22.5,23.7,22.5z"/>
</g>
</svg>
