<svg width="1444" height="902" viewBox="0 0 1444 902" fill="none" xmlns="http://www.w3.org/2000/svg">
<rect width="1444" height="902" fill="#F1F1F1" fill-opacity="0.26"/>
<path d="M1169.71 304.26C1169.96 303.945 1170.22 303.651 1170.5 303.38L1172.9 300.939C1173.93 299.831 1175.29 298.639 1176.76 296.936L1181.85 291.257C1183.65 288.901 1185.81 286.346 1187.79 283.422C1189.78 280.497 1192.27 277.261 1194.49 273.428C1199.78 265.082 1204.51 256.043 1208.61 246.429C1219.48 221.46 1226.05 193.14 1227.77 163.813C1228.8 146.603 1227.57 129.27 1224.14 112.71C1220.76 94.6624 1213.68 78.4831 1203.82 66.2631C1198.73 60.361 1192.9 55.9002 1186.65 53.1183C1180.52 50.5884 1174.18 49.3545 1167.81 49.4559C1155.72 49.9599 1143.75 52.9232 1132.25 58.257C1112.58 66.5621 1093.69 78.2594 1075.99 93.0921C1064.05 103.067 1052.68 114.393 1042 126.962C1038.25 131.476 1035.34 134.996 1033.44 137.495L1031.24 140.334C1030.75 140.958 1030.47 141.242 1030.47 141.242C1030.47 141.242 1030.71 140.873 1031.18 140.22L1033.3 137.381C1035.16 134.826 1038.04 131.22 1041.74 126.621C1052.36 113.872 1063.69 102.392 1075.61 92.2971C1093.34 77.2374 1112.28 65.3658 1132.03 56.951C1143.61 51.5529 1155.67 48.5418 1167.85 48.008C1174.32 47.8869 1180.77 49.1403 1186.98 51.7272C1193.37 54.5421 1199.32 59.0914 1204.51 65.1275C1214.53 77.4423 1221.74 93.7796 1225.21 112.028C1228.68 128.812 1229.89 146.382 1228.8 163.813C1227.04 193.338 1220.37 221.828 1209.33 246.883C1205.17 256.512 1200.38 265.552 1195.02 273.883C1192.77 277.687 1190.31 280.781 1188.23 283.819C1186.15 286.857 1184.01 289.185 1182.03 291.57L1176.86 297.248C1175.37 298.923 1173.99 300.087 1172.9 301.166L1170.44 303.465L1169.71 304.26Z" fill="#377BFF"/>
<path d="M910.444 527.664C905.329 529.959 900.096 531.677 894.795 532.803C880.321 536.061 865.556 535.532 851.214 531.241C841.296 528.266 831.733 523.236 822.827 516.308C812.621 508.302 803.459 497.822 795.748 485.334C787.157 471.568 780.696 455.352 776.79 437.752C775.769 433.105 774.975 428.361 774.413 423.556C773.779 418.735 773.356 413.861 773.146 408.964C772.967 406.494 773.146 404.024 773.027 401.525C772.967 399.026 773.007 396.523 773.146 394.03C773.284 391.532 773.423 389.034 773.542 386.535C773.661 384.037 774.077 381.539 774.354 379.012C775.519 369.129 777.412 359.45 780 350.139C781.149 345.483 782.713 341.111 784.14 336.682C784.853 334.496 785.744 332.395 786.537 330.294C787.301 328.152 788.141 326.068 789.052 324.048C795.755 308.34 804.153 294.253 813.933 282.314C822.827 271.638 832.575 262.518 842.973 255.144C852.042 248.761 861.472 243.489 871.162 239.388C885.185 233.543 899.555 229.571 914.089 227.52C919.239 226.811 923.241 226.356 925.974 226.186L929.065 225.959H930.115L929.065 226.129L925.994 226.498C923.28 226.754 919.279 227.293 914.109 228.088C899.627 230.363 885.314 234.477 871.34 240.381C861.719 244.538 852.357 249.837 843.35 256.223C833.034 263.648 823.371 272.807 814.567 283.506C804.88 295.376 796.563 309.365 789.924 324.956C788.993 326.915 788.24 329.045 787.428 331.117C786.616 333.19 785.784 335.291 785.071 337.477C783.664 341.849 782.119 346.192 780.97 350.82C778.414 360.043 776.542 369.625 775.384 379.409C775.127 381.879 774.849 384.378 774.592 386.819C774.334 389.261 774.334 391.787 774.195 394.257C774.047 396.721 774.007 399.196 774.077 401.667C774.077 404.137 774.077 406.579 774.077 409.021C774.288 413.861 774.711 418.678 775.344 423.443C775.899 428.152 776.68 432.8 777.682 437.354C781.526 454.77 787.899 470.821 796.382 484.454C803.999 496.861 813.052 507.292 823.144 515.286C831.966 522.162 841.433 527.182 851.254 530.191C865.518 534.531 880.206 535.214 894.636 532.207C899.727 531.071 903.649 529.907 906.304 528.998L909.295 527.948L910.444 527.664Z" fill="#377BFF"/>
<path d="M1220.74 403.286C1218.76 396.983 1218.34 389.999 1217.05 383.413C1216.83 381.592 1216.34 379.858 1215.62 378.323C1214.9 376.788 1213.96 375.485 1212.87 374.498C1211.23 373.812 1209.57 373.271 1207.88 372.88C1201.94 370.353 1200.39 358.684 1194.85 354.965C1193.05 353.996 1191.16 353.431 1189.24 353.29C1181.81 352.041 1174.11 348.35 1169.43 339.975C1168.09 337.062 1166.55 334.342 1164.83 331.856C1162.85 329.669 1159.96 328.704 1158.12 330.975C1159.68 335.461 1161.23 339.975 1162.77 344.433C1163.98 348.666 1165.75 352.523 1167.98 355.789C1169.12 357.376 1170.54 358.472 1172.09 358.949C1173.64 359.426 1175.25 359.266 1176.74 358.486C1177.61 357.609 1178.63 357.098 1179.69 357.009C1180.49 357.197 1181.2 357.83 1181.67 358.77C1185.63 365.186 1184.41 375.804 1180.44 382.447C1176.48 389.091 1170.68 392.384 1165.05 395.592C1163.11 396.98 1160.94 397.588 1158.77 397.352C1154.81 396.302 1152.83 390.226 1151.68 384.775C1149.13 372.709 1147.9 359.621 1142.69 349.429C1140.8 346.478 1139.2 343.162 1137.95 339.578C1136.88 335.518 1137.12 330.805 1135.44 327.228C1133.75 323.651 1129.93 321.351 1129.67 316.837C1129.73 315.239 1130.1 313.698 1130.76 312.403C1131.41 311.107 1132.32 310.112 1133.36 309.541C1135.34 308.149 1137.64 307.752 1139.7 306.531C1140.53 306.02 1141.44 305.169 1141.46 303.919C1141.46 302.017 1139.64 301.251 1139.16 299.49C1138.69 297.73 1140.07 295.686 1140.67 293.812C1141.97 289.412 1138.69 284.954 1135.66 283.166C1132.62 281.377 1128.84 280.043 1127.4 275.728C1126.86 273.654 1126.52 271.486 1126.38 269.283C1126.09 266.527 1125.24 263.956 1123.93 261.891C1122.62 259.826 1120.92 258.359 1119.04 257.671C1115.17 256.763 1110.89 261.674 1111.53 267.182C1111.9 270.191 1113.51 272.519 1114.32 275.33C1115.13 278.141 1114.95 282.257 1112.93 283.166C1109.65 284.585 1106.46 275.955 1103.7 278.936C1104.83 284.614 1105.92 290.008 1107.07 295.573C1102.73 298.724 1097.54 293.017 1095.68 286.544C1093.82 280.071 1093.7 272.718 1091.58 266.501C1089.46 260.283 1083.44 255.599 1079.69 259.999C1079.5 268.034 1086.89 271.355 1090.15 277.743C1092.51 282.428 1092.13 290.036 1088.67 293.017C1085.2 295.998 1079.71 290.803 1081.04 285.352C1081.52 283.478 1082.61 281.888 1082.73 279.873C1082.86 277.346 1081.38 275.33 1080.03 273.712C1077.93 271.128 1075.83 268.602 1073.71 266.103C1072.43 264.321 1070.91 262.939 1069.24 262.043C1064.9 260.226 1060.56 265.28 1058.26 270.816C1055.96 276.352 1054.68 282.939 1051.51 287.566C1046.95 294.323 1038.31 294.721 1034.03 287.566C1029.76 280.412 1031.93 267.267 1038.25 264.712C1040.63 263.747 1043.66 263.832 1044.91 260.823C1047.11 255.457 1040.83 248.615 1042.93 243.221C1044.59 239.076 1048.99 240.978 1052.2 239.587C1055.41 238.195 1057.17 233.596 1059.05 229.622C1060.93 225.647 1063.83 221.757 1067.1 222.779C1066.66 220.055 1066.77 217.207 1067.43 214.575C1067.62 213.942 1067.9 213.373 1068.25 212.9C1068.6 212.428 1069.01 212.064 1069.46 211.829C1069.91 211.595 1070.39 211.496 1070.87 211.539C1071.35 211.581 1071.82 211.764 1072.25 212.076C1070.64 215.852 1072.56 221.104 1075.36 223.007C1078.28 224.528 1081.44 224.852 1084.49 223.943C1087.58 223.404 1091.44 221.786 1091.7 217.385C1091.55 215.955 1091.55 214.5 1091.7 213.07C1093.07 207.789 1099.84 215.029 1102.46 210.799C1103.96 208.613 1102.3 204.695 1100.2 203.957C1098.1 203.218 1095.94 204.326 1093.82 204.411C1091.7 204.496 1089.06 202.935 1088.97 199.868C1088.87 196.802 1091.24 194.673 1091.48 191.72C1091.9 186.667 1085.93 185.361 1083.81 189.477C1081.7 193.594 1082.47 199.187 1083.1 204.184C1083.74 209.18 1084.07 215.086 1081.5 218.606C1080.39 220.991 1077.54 219.713 1076.6 217.187C1075.87 214.477 1075.56 211.57 1075.69 208.669C1075.73 207.224 1075.46 205.797 1074.93 204.568C1074.4 203.34 1073.62 202.366 1072.7 201.771C1071.29 201.592 1069.87 201.824 1068.52 202.452C1063.05 203.389 1059.25 193.282 1060.97 185.787C1062.7 178.292 1067.65 173.465 1072.44 169.633C1075.97 166.793 1080.37 164.238 1083.81 167.077C1085.46 168.355 1086.59 170.626 1088.19 171.961C1090.95 174.317 1094.37 173.465 1097.54 173.55C1102.58 173.747 1107.4 176.436 1111.21 181.159C1112.64 183.004 1113.94 186.071 1112.86 188.257C1111.77 190.443 1108.24 191.096 1108.89 193.935C1109.82 194.304 1110.78 194.389 1111.73 194.184C1112.68 193.98 1113.59 193.49 1114.39 192.747C1115.2 192.004 1115.89 191.025 1116.41 189.875C1116.93 188.724 1117.28 187.428 1117.43 186.071C1118.33 186.661 1119.12 187.579 1119.7 188.734C1120.28 189.889 1120.64 191.242 1120.74 192.657C1121.77 191.293 1123 190.251 1124.33 189.597C1125.66 188.943 1127.07 188.69 1128.47 188.856C1129.87 189.021 1131.23 189.601 1132.47 190.558C1133.7 191.515 1134.79 192.829 1135.66 194.417C1136.37 196.309 1137.32 198.002 1138.45 199.414C1139.72 200.606 1141.92 200.01 1142.07 197.881C1142.1 197.208 1142.01 196.537 1141.82 195.922C1141.06 192.856 1140.27 189.847 1139.52 186.809C1142.45 184.566 1145.9 188.086 1147.88 191.862C1155.23 206.057 1160.48 197.54 1170.86 199.783C1177.85 201.316 1180.94 207.761 1184.88 215.54C1197.03 239.501 1213.03 259.119 1224.06 284.16C1225.23 286.772 1226.3 289.44 1227.29 292.137C1227.12 291.456 1226.96 290.775 1226.76 290.093C1222.46 273.85 1217.1 258.223 1210.75 243.419C1209.39 240.268 1208.02 237.145 1206.59 234.079C1205.72 232.205 1204.81 230.275 1203.9 228.401C1202.73 225.959 1201.5 223.631 1200.29 221.275C1199.3 219.373 1198.31 217.527 1197.32 215.597C1196.65 214.347 1195.92 213.07 1195.2 211.821C1194.49 210.572 1193.62 208.982 1192.75 207.591L1190.11 203.218C1189.84 202.743 1189.56 202.288 1189.26 201.856C1188.35 200.323 1187.38 198.846 1186.41 197.37C1186.34 197.186 1186.23 197.031 1186.11 196.916C1185.87 196.518 1185.58 196.092 1185.3 195.695C1184.51 194.446 1183.67 193.225 1182.84 192.004C1181.49 190.017 1180.11 188.03 1178.7 186.156C1177.29 184.282 1176.34 182.919 1175.12 181.329C1173.89 179.74 1172.98 178.49 1171.89 177.184L1168.66 173.238C1167.33 171.62 1165.98 170.03 1164.6 168.469C1160.79 164.096 1156.88 159.961 1152.85 156.062L1149.88 153.223C1148.87 152.229 1147.9 151.321 1146.83 150.384C1145.76 149.447 1144.85 148.538 1143.74 147.545C1142.63 146.551 1141.76 145.728 1140.63 144.876C1139.5 144.024 1138.96 143.485 1138.11 142.86C1137.7 142.462 1137.27 142.11 1136.82 141.81C1135.04 140.362 1133.22 138.971 1131.4 137.665L1128.64 135.678C1127.47 134.826 1126.29 134.031 1125.08 133.264C1124.91 133.108 1124.73 132.984 1124.54 132.895C1123.47 132.186 1122.4 131.447 1121.31 130.794C1119.77 129.829 1118.24 128.892 1116.7 127.955C1115.15 127.018 1113.17 125.883 1111.39 124.946C1109.61 124.009 1107.43 122.817 1105.45 121.88C1103.47 120.943 1101.39 119.949 1099.35 119.041C1097.3 118.132 1095.26 117.337 1093.18 116.514C1089.1 114.943 1084.97 113.552 1080.78 112.341C1080.7 112.328 1080.63 112.328 1080.55 112.341C1078.96 111.886 1077.36 111.432 1075.75 111.063H1075.44C1074.74 110.893 1074.03 110.694 1073.3 110.58C1070.3 109.842 1067.35 109.274 1064.24 108.763C1063.91 108.763 1063.53 108.763 1063.15 108.593C1062.26 108.423 1061.39 108.309 1060.48 108.196C1058.49 107.912 1056.46 107.685 1054.42 107.514C1052.32 107.287 1050.18 107.145 1048.04 107.06C1045.9 106.975 1043.58 106.89 1041.34 106.89C1035.4 106.89 1029.6 107.23 1023.81 107.997C1022.45 107.997 1021.08 108.309 1019.73 108.536C1018.38 108.763 1016.9 108.991 1015.49 109.274C1014.09 109.558 1012.66 109.814 1011.29 110.126C1009.93 110.438 1008.48 110.751 1007.07 111.12C1005.67 111.489 1004.66 111.688 1003.47 112.057C1000.52 112.88 997.525 113.76 994.693 114.896C993.346 115.35 991.998 115.861 990.731 116.4C989.463 116.94 988.017 117.422 986.769 117.962C984.53 118.87 982.371 119.864 980.192 120.801L974.903 123.356H974.784C972.982 124.265 971.258 125.201 969.495 126.195H969.218C967.613 127.075 966.009 128.041 964.444 129.034C962.463 130.198 960.482 131.476 958.6 132.725C956.718 133.974 955.371 134.883 953.786 136.018C952.202 137.154 950.399 138.46 948.735 139.709H948.557C946.952 140.93 945.348 142.179 943.783 143.485C942.218 144.791 940.534 146.125 938.929 147.573C937.424 148.879 935.938 150.185 934.472 151.548C933.898 152.03 933.363 152.57 932.788 153.109C931.223 154.557 929.718 155.948 928.173 157.567C926.192 159.412 924.468 161.371 922.646 163.245C920.824 165.118 919.477 166.708 917.931 168.469C909.049 178.612 900.792 189.829 893.249 201.998C890.575 206.228 888.059 210.515 885.603 214.972C883.622 218.748 881.522 222.581 879.66 226.555C877.917 229.991 876.253 233.511 874.648 237.06C876.253 233.511 877.917 229.991 879.66 226.555C880.084 226.581 880.507 226.638 880.928 226.726C883.767 226.801 886.593 226.137 889.267 224.767C891.445 222.725 893.505 220.437 895.428 217.925C900.895 212.247 909.849 211.31 911.276 201.941C911.771 198.79 911.176 195.383 911.989 192.373C913.534 186.695 918.783 185.929 922.983 186.014C924.785 186.014 926.945 186.383 927.697 188.626C927.923 189.466 928.023 190.365 927.993 191.265C927.962 192.164 927.801 193.045 927.519 193.85C924.884 204.429 919.793 213.389 913.098 219.231C907.631 224 900.499 227.748 898.994 236.606C899.746 239.643 903.57 239.445 903.887 242.568C904.105 245.094 901.906 246.4 901.034 248.643C899.845 251.936 902.559 255.939 905.174 255.741C907.773 255.103 910.139 253.198 911.87 250.347C917.595 242.738 923.577 234.561 925.736 223.745C926.628 219.287 926.925 214.064 929.441 211.083C930.215 210.327 931.099 209.836 932.026 209.646C932.953 209.456 933.898 209.572 934.789 209.986C935.68 210.4 936.493 211.1 937.166 212.033C937.839 212.966 938.354 214.107 938.672 215.37C941.168 213.382 945.031 211.906 946.318 215.597C946.607 216.974 946.786 218.392 946.853 219.827C947.665 225.505 953.152 228.344 953.727 234.022C954.381 240.751 948.378 244.214 943.703 245.378C939.464 246.344 935.225 247.28 930.986 248.217C929.111 248.404 927.295 249.242 925.697 250.659C924.912 251.404 924.328 252.511 924.043 253.797C923.759 255.084 923.79 256.471 924.132 257.728C924.766 258.936 925.505 260.023 926.331 260.965C929.857 265.99 926.964 276.409 921.992 276.636C920.309 276.636 918.625 275.813 916.941 275.728C911.909 275.415 907.928 281.746 905.531 288.106C903.134 294.465 901.351 301.705 897.33 306.02C890.872 313.004 879.719 311.386 876.57 322.089C875.322 326.433 875.975 331.288 876.471 335.915C876.966 340.543 877.203 345.653 875.322 349.486C873.44 353.319 868.626 354.057 867.239 349.827C866.767 347.9 866.699 345.818 867.041 343.836C867.794 337.193 868.527 330.568 869.24 323.963C869.775 319.023 870.25 313.487 868.21 309.427C865.357 303.749 858.939 304.288 855.235 308.831C851.531 313.373 850.025 320.499 848.995 327.313C848.277 333.46 847.074 339.47 845.409 345.227V345.227C844.736 350.906 844.201 356.584 843.805 362.262C843.409 367.94 843.112 373.902 842.953 379.864C843.514 379.185 844.049 378.465 844.558 377.706C846.539 374.867 850.5 362.375 854.106 368.451C854.549 369.261 854.79 370.26 854.79 371.29C854.79 372.319 854.549 373.319 854.106 374.129C853.016 376.145 850.817 376.599 849.966 378.813C849.114 381.028 850.362 384.662 852.065 386.365C853.946 387.622 855.667 389.32 857.156 391.39C859.434 396.131 857.156 403.286 859.474 408.112C861.455 412.257 865.417 412.513 868.963 413.052L870.151 413.336C871.122 403.428 874.371 395.365 883.8 392.299C896.795 388.069 913.89 403.513 921.2 417.566C929.381 433.266 933.244 455.524 945.744 463.388C954.698 469.067 967.415 466.994 971.793 479.543C975.755 490.899 968.901 503.476 967.831 515.939C967.177 524.172 969.059 532.377 969.495 540.61C969.931 548.844 968.207 558.525 962.978 561.988C960.046 563.891 956.381 563.663 954.024 566.815C949.844 572.493 953.271 584.19 949.092 589.868C947.461 591.55 945.674 592.898 943.783 593.871C934.373 600.685 934.631 620.473 939.009 634.214L939.464 635.662C968.797 660.797 1002.16 674.659 1036.32 675.908C1070.49 677.156 1104.3 665.748 1134.49 642.788V642.788C1140.52 638.16 1146.39 633.09 1152.06 627.599C1166.85 613.38 1180.22 596.341 1191.8 576.95C1195.12 571.471 1198.25 565.594 1201.28 559.916C1202.81 556.907 1204.33 553.897 1205.74 550.774C1210.1 541.668 1214.07 532.187 1217.63 522.384C1222.8 508.16 1227.1 493.311 1230.46 478.01C1233.99 462.278 1236.53 446.126 1238.05 429.746C1238.64 423.358 1239.12 416.885 1239.42 410.355C1237.34 413.477 1234.5 415.302 1231.49 415.437C1226.58 415.323 1222.64 409.589 1220.74 403.286Z" fill="#377BFF"/>
<g opacity="0.8">
<path opacity="0.8" d="M1220.74 403.286C1218.76 396.983 1218.34 389.999 1217.05 383.413C1216.83 381.592 1216.34 379.858 1215.62 378.323C1214.9 376.788 1213.96 375.485 1212.87 374.498C1211.23 373.812 1209.57 373.271 1207.88 372.88C1201.94 370.353 1200.39 358.684 1194.85 354.965C1193.05 353.996 1191.16 353.431 1189.24 353.29C1181.81 352.041 1174.11 348.35 1169.43 339.975C1168.09 337.062 1166.55 334.342 1164.83 331.856C1162.85 329.669 1159.96 328.704 1158.12 330.975C1159.68 335.461 1161.23 339.975 1162.77 344.433C1163.98 348.666 1165.75 352.523 1167.98 355.789C1169.12 357.376 1170.54 358.472 1172.09 358.949C1173.64 359.426 1175.25 359.266 1176.74 358.486C1177.61 357.609 1178.63 357.098 1179.69 357.009C1180.49 357.197 1181.2 357.83 1181.67 358.77C1185.63 365.186 1184.41 375.804 1180.44 382.447C1176.48 389.091 1170.68 392.384 1165.05 395.592C1163.11 396.98 1160.94 397.588 1158.77 397.352C1154.81 396.302 1152.83 390.226 1151.68 384.775C1149.13 372.709 1147.9 359.621 1142.69 349.429C1140.8 346.478 1139.2 343.162 1137.95 339.578C1136.88 335.518 1137.12 330.805 1135.44 327.228C1133.75 323.651 1129.93 321.351 1129.67 316.837C1129.73 315.239 1130.1 313.698 1130.76 312.403C1131.41 311.107 1132.32 310.112 1133.36 309.541C1135.34 308.149 1137.64 307.752 1139.7 306.531C1140.53 306.02 1141.44 305.169 1141.46 303.919C1141.46 302.017 1139.64 301.251 1139.16 299.49C1138.69 297.73 1140.07 295.686 1140.67 293.812C1141.97 289.412 1138.69 284.954 1135.66 283.166C1132.62 281.377 1128.84 280.043 1127.4 275.728C1126.86 273.654 1126.52 271.486 1126.38 269.283C1126.09 266.527 1125.24 263.956 1123.93 261.891C1122.62 259.826 1120.92 258.359 1119.04 257.671C1115.17 256.763 1110.89 261.674 1111.53 267.182C1111.9 270.191 1113.51 272.519 1114.32 275.33C1115.13 278.141 1114.95 282.257 1112.93 283.166C1109.65 284.585 1106.46 275.955 1103.7 278.936C1104.83 284.614 1105.92 290.008 1107.07 295.573C1102.73 298.724 1097.54 293.017 1095.68 286.544C1093.82 280.071 1093.7 272.718 1091.58 266.501C1089.46 260.283 1083.44 255.599 1079.69 259.999C1079.5 268.034 1086.89 271.355 1090.15 277.743C1092.51 282.428 1092.13 290.036 1088.67 293.017C1085.2 295.998 1079.71 290.803 1081.04 285.352C1081.52 283.478 1082.61 281.888 1082.73 279.873C1082.86 277.346 1081.38 275.33 1080.03 273.712C1077.93 271.128 1075.83 268.602 1073.71 266.103C1072.43 264.321 1070.91 262.939 1069.24 262.043C1064.9 260.226 1060.56 265.28 1058.26 270.816C1055.96 276.352 1054.68 282.939 1051.51 287.566C1046.95 294.323 1038.31 294.721 1034.03 287.566C1029.76 280.412 1031.93 267.267 1038.25 264.712C1040.63 263.747 1043.66 263.832 1044.91 260.823C1047.11 255.457 1040.83 248.615 1042.93 243.221C1044.59 239.076 1048.99 240.978 1052.2 239.587C1055.41 238.195 1057.17 233.596 1059.05 229.622C1060.93 225.647 1063.83 221.757 1067.1 222.779C1066.66 220.055 1066.77 217.207 1067.43 214.575C1067.62 213.942 1067.9 213.373 1068.25 212.9C1068.6 212.428 1069.01 212.064 1069.46 211.829C1069.91 211.595 1070.39 211.496 1070.87 211.539C1071.35 211.581 1071.82 211.764 1072.25 212.076C1070.64 215.852 1072.56 221.104 1075.36 223.007C1078.28 224.528 1081.44 224.852 1084.49 223.943C1087.58 223.404 1091.44 221.786 1091.7 217.385C1091.55 215.955 1091.55 214.5 1091.7 213.07C1093.07 207.789 1099.84 215.029 1102.46 210.799C1103.96 208.613 1102.3 204.695 1100.2 203.957C1098.1 203.218 1095.94 204.326 1093.82 204.411C1091.7 204.496 1089.06 202.935 1088.97 199.868C1088.87 196.802 1091.24 194.673 1091.48 191.72C1091.9 186.667 1085.93 185.361 1083.81 189.477C1081.7 193.594 1082.47 199.187 1083.1 204.184C1083.74 209.18 1084.07 215.086 1081.5 218.606C1080.39 220.991 1077.54 219.713 1076.6 217.187C1075.87 214.477 1075.56 211.57 1075.69 208.669C1075.73 207.224 1075.46 205.797 1074.93 204.568C1074.4 203.34 1073.62 202.366 1072.7 201.771C1071.29 201.592 1069.87 201.824 1068.52 202.452C1063.05 203.389 1059.25 193.282 1060.97 185.787C1062.7 178.292 1067.65 173.465 1072.44 169.633C1075.97 166.793 1080.37 164.238 1083.81 167.077C1085.46 168.355 1086.59 170.626 1088.19 171.961C1090.95 174.317 1094.37 173.465 1097.54 173.55C1102.58 173.747 1107.4 176.436 1111.21 181.159C1112.64 183.004 1113.94 186.071 1112.86 188.257C1111.77 190.443 1108.24 191.096 1108.89 193.935C1109.82 194.304 1110.78 194.389 1111.73 194.184C1112.68 193.98 1113.59 193.49 1114.39 192.747C1115.2 192.004 1115.89 191.025 1116.41 189.875C1116.93 188.724 1117.28 187.428 1117.43 186.071C1118.33 186.661 1119.12 187.579 1119.7 188.734C1120.28 189.889 1120.64 191.242 1120.74 192.657C1121.77 191.293 1123 190.251 1124.33 189.597C1125.66 188.943 1127.07 188.69 1128.47 188.856C1129.87 189.021 1131.23 189.601 1132.47 190.558C1133.7 191.515 1134.79 192.829 1135.66 194.417C1136.37 196.309 1137.32 198.002 1138.45 199.414C1139.72 200.606 1141.92 200.01 1142.07 197.881C1142.1 197.208 1142.01 196.537 1141.82 195.922C1141.06 192.856 1140.27 189.847 1139.52 186.809C1142.45 184.566 1145.9 188.086 1147.88 191.862C1155.23 206.057 1160.48 197.54 1170.86 199.783C1177.85 201.316 1180.94 207.761 1184.88 215.54C1197.03 239.501 1213.03 259.119 1224.06 284.16C1225.23 286.772 1226.3 289.44 1227.29 292.137C1227.12 291.456 1226.96 290.775 1226.76 290.093C1222.46 273.85 1217.1 258.223 1210.75 243.419C1209.39 240.268 1208.02 237.145 1206.59 234.079C1205.72 232.205 1204.81 230.275 1203.9 228.401C1202.73 225.959 1201.5 223.631 1200.29 221.275C1199.3 219.373 1198.31 217.527 1197.32 215.597C1196.65 214.347 1195.92 213.07 1195.2 211.821C1194.49 210.572 1193.62 208.982 1192.75 207.591L1190.11 203.218C1189.84 202.743 1189.56 202.288 1189.26 201.856C1188.35 200.323 1187.38 198.846 1186.41 197.37C1186.34 197.186 1186.23 197.031 1186.11 196.916C1185.87 196.518 1185.58 196.092 1185.3 195.695C1184.51 194.446 1183.67 193.225 1182.84 192.004C1181.49 190.017 1180.11 188.03 1178.7 186.156C1177.29 184.282 1176.34 182.919 1175.12 181.329C1173.89 179.74 1172.98 178.49 1171.89 177.184L1168.66 173.238C1167.33 171.62 1165.98 170.03 1164.6 168.469C1160.79 164.096 1156.88 159.961 1152.85 156.062L1149.88 153.223C1148.87 152.229 1147.9 151.321 1146.83 150.384C1145.76 149.447 1144.85 148.538 1143.74 147.545C1142.63 146.551 1141.76 145.728 1140.63 144.876C1139.5 144.024 1138.96 143.485 1138.11 142.86C1137.7 142.462 1137.27 142.11 1136.82 141.81C1135.04 140.362 1133.22 138.971 1131.4 137.665L1128.64 135.678C1127.47 134.826 1126.29 134.031 1125.08 133.264C1124.91 133.108 1124.73 132.984 1124.54 132.895C1123.47 132.186 1122.4 131.447 1121.31 130.794C1119.77 129.829 1118.24 128.892 1116.7 127.955C1115.15 127.018 1113.17 125.883 1111.39 124.946C1109.61 124.009 1107.43 122.817 1105.45 121.88C1103.47 120.943 1101.39 119.949 1099.35 119.041C1097.3 118.132 1095.26 117.337 1093.18 116.514C1089.1 114.943 1084.97 113.552 1080.78 112.341C1080.7 112.328 1080.63 112.328 1080.55 112.341C1078.96 111.886 1077.36 111.432 1075.75 111.063H1075.44C1074.74 110.893 1074.03 110.694 1073.3 110.58C1070.3 109.842 1067.35 109.274 1064.24 108.763C1063.91 108.763 1063.53 108.763 1063.15 108.593C1062.26 108.423 1061.39 108.309 1060.48 108.196C1058.49 107.912 1056.46 107.685 1054.42 107.514C1052.32 107.287 1050.18 107.145 1048.04 107.06C1045.9 106.975 1043.58 106.89 1041.34 106.89C1035.4 106.89 1029.6 107.23 1023.81 107.997C1022.45 107.997 1021.08 108.309 1019.73 108.536C1018.38 108.763 1016.9 108.991 1015.49 109.274C1014.09 109.558 1012.66 109.814 1011.29 110.126C1009.93 110.438 1008.48 110.751 1007.07 111.12C1005.67 111.489 1004.66 111.688 1003.47 112.057C1000.52 112.88 997.525 113.76 994.693 114.896C993.346 115.35 991.998 115.861 990.731 116.4C989.463 116.94 988.017 117.422 986.769 117.962C984.53 118.87 982.371 119.864 980.192 120.801L974.903 123.356H974.784C972.982 124.265 971.258 125.201 969.495 126.195H969.218C967.613 127.075 966.009 128.041 964.444 129.034C962.463 130.198 960.482 131.476 958.6 132.725C956.718 133.974 955.371 134.883 953.786 136.018C952.202 137.154 950.399 138.46 948.735 139.709H948.557C946.952 140.93 945.348 142.179 943.783 143.485C942.218 144.791 940.534 146.125 938.929 147.573C937.424 148.879 935.938 150.185 934.472 151.548C933.898 152.03 933.363 152.57 932.788 153.109C931.223 154.557 929.718 155.948 928.173 157.567C926.192 159.412 924.468 161.371 922.646 163.245C920.824 165.118 919.477 166.708 917.931 168.469C909.049 178.612 900.792 189.829 893.249 201.998C890.575 206.228 888.059 210.515 885.603 214.972C883.622 218.748 881.522 222.581 879.66 226.555C877.917 229.991 876.253 233.511 874.648 237.06C876.253 233.511 877.917 229.991 879.66 226.555C880.084 226.581 880.507 226.638 880.928 226.726C883.767 226.801 886.593 226.137 889.267 224.767C891.445 222.725 893.505 220.437 895.428 217.925C900.895 212.247 909.849 211.31 911.276 201.941C911.771 198.79 911.176 195.383 911.989 192.373C913.534 186.695 918.783 185.929 922.983 186.014C924.785 186.014 926.945 186.383 927.697 188.626C927.923 189.466 928.023 190.365 927.993 191.265C927.962 192.164 927.801 193.045 927.519 193.85C924.884 204.429 919.793 213.389 913.098 219.231C907.631 224 900.499 227.748 898.994 236.606C899.746 239.643 903.57 239.445 903.887 242.568C904.105 245.094 901.906 246.4 901.034 248.643C899.845 251.936 902.559 255.939 905.174 255.741C907.773 255.103 910.139 253.198 911.87 250.347C917.595 242.738 923.577 234.561 925.736 223.745C926.628 219.287 926.925 214.064 929.441 211.083C930.215 210.327 931.099 209.836 932.026 209.646C932.953 209.456 933.898 209.572 934.789 209.986C935.68 210.4 936.493 211.1 937.166 212.033C937.839 212.966 938.354 214.107 938.672 215.37C941.168 213.382 945.031 211.906 946.318 215.597C946.607 216.974 946.786 218.392 946.853 219.827C947.665 225.505 953.152 228.344 953.727 234.022C954.381 240.751 948.378 244.214 943.703 245.378C939.464 246.344 935.225 247.28 930.986 248.217C929.111 248.404 927.295 249.242 925.697 250.659C924.912 251.404 924.328 252.511 924.043 253.797C923.759 255.084 923.79 256.471 924.132 257.728C924.766 258.936 925.505 260.023 926.331 260.965C929.857 265.99 926.964 276.409 921.992 276.636C920.309 276.636 918.625 275.813 916.941 275.728C911.909 275.415 907.928 281.746 905.531 288.106C903.134 294.465 901.351 301.705 897.33 306.02C890.872 313.004 879.719 311.386 876.57 322.089C875.322 326.433 875.975 331.288 876.471 335.915C876.966 340.543 877.203 345.653 875.322 349.486C873.44 353.319 868.626 354.057 867.239 349.827C866.767 347.9 866.699 345.818 867.041 343.836C867.794 337.193 868.527 330.568 869.24 323.963C869.775 319.023 870.25 313.487 868.21 309.427C865.357 303.749 858.939 304.288 855.235 308.831C851.531 313.373 850.025 320.499 848.995 327.313C848.277 333.46 847.074 339.47 845.409 345.227V345.227C844.736 350.906 844.201 356.584 843.805 362.262C843.409 367.94 843.112 373.902 842.953 379.864C843.514 379.185 844.049 378.465 844.558 377.706C846.539 374.867 850.5 362.375 854.106 368.451C854.549 369.261 854.79 370.26 854.79 371.29C854.79 372.319 854.549 373.319 854.106 374.129C853.016 376.145 850.817 376.599 849.966 378.813C849.114 381.028 850.362 384.662 852.065 386.365C853.946 387.622 855.667 389.32 857.156 391.39C859.434 396.131 857.156 403.286 859.474 408.112C861.455 412.257 865.417 412.513 868.963 413.052L870.151 413.336C871.122 403.428 874.371 395.365 883.8 392.299C896.795 388.069 913.89 403.513 921.2 417.566C929.381 433.266 933.244 455.524 945.744 463.388C954.698 469.067 967.415 466.994 971.793 479.543C975.755 490.899 968.901 503.476 967.831 515.939C967.177 524.172 969.059 532.377 969.495 540.61C969.931 548.844 968.207 558.525 962.978 561.988C960.046 563.891 956.381 563.663 954.024 566.815C949.844 572.493 953.271 584.19 949.092 589.868C947.461 591.55 945.674 592.898 943.783 593.871C934.373 600.685 934.631 620.473 939.009 634.214L939.464 635.662C968.797 660.797 1002.16 674.659 1036.32 675.908C1070.49 677.156 1104.3 665.748 1134.49 642.788V642.788C1140.52 638.16 1146.39 633.09 1152.06 627.599C1166.85 613.38 1180.22 596.341 1191.8 576.95C1195.12 571.471 1198.25 565.594 1201.28 559.916C1202.81 556.907 1204.33 553.897 1205.74 550.774C1210.1 541.668 1214.07 532.187 1217.63 522.384C1222.8 508.16 1227.1 493.311 1230.46 478.01C1233.99 462.278 1236.53 446.126 1238.05 429.746C1238.64 423.358 1239.12 416.885 1239.42 410.355C1237.34 413.477 1234.5 415.302 1231.49 415.437C1226.58 415.323 1222.64 409.589 1220.74 403.286Z" fill="white"/>
</g>
<path d="M993.842 181.528C989.881 184.907 987.9 191.266 984.789 196.178C981.679 201.089 976.311 204.695 972.726 200.521C971.899 199.435 971.235 198.121 970.772 196.657C970.309 195.194 970.057 193.611 970.032 192.004C969.765 187.446 970.514 182.883 972.171 178.973C973.894 174.97 976.489 171.819 977.935 167.617C979.382 163.415 979.104 157.283 976.133 155.295C974.528 154.245 972.508 154.671 971.081 153.166C968.526 150.327 970.348 144.053 973.32 142.463C976.291 140.873 979.599 142.094 982.769 142.463C994.278 143.513 1002.74 132.725 1011.39 123.754C1018.13 116.77 1032.45 108.536 1040.24 115.662C1043.35 118.501 1044.55 125.826 1041.62 129.034C1040.32 130.454 1038.51 130.794 1037.3 132.384C1036.1 133.974 1035.62 137.409 1034.79 139.993C1032.61 146.665 1026.33 149.078 1024.31 155.863C1023.08 159.951 1023.64 165.005 1021.75 168.554C1020.03 171.084 1017.76 172.704 1015.32 173.153L1000.3 178.462C998.051 179.005 995.873 180.039 993.842 181.528V181.528Z" fill="#263238"/>
<path d="M1127.99 531.725C1123.02 542.485 1122.05 555.913 1120.74 568.632C1119.43 581.351 1116.98 594.95 1110.14 603.325C1103.31 611.7 1090.75 611.246 1086.98 599.521C1085 593.161 1085.99 585.638 1084.88 578.824C1083.42 569.938 1078.49 563.096 1076.15 554.607C1074.17 547.368 1074.17 539.362 1073.99 531.583C1073.1 488.997 1065.87 444.708 1045.66 413.535C1043.36 409.443 1040.31 406.355 1036.85 404.621C1034.74 403.869 1032.52 404.005 1030.47 405.012C1028.41 406.02 1026.6 407.855 1025.26 410.299C1023.63 413.393 1022.8 417.311 1020.8 419.895C1016.5 425.573 1008.92 421.513 1006.08 414.217C1003.25 406.92 1003.59 398.006 1004.1 389.659L1005.89 358.6C1006.2 353.177 1006.62 347.386 1009.11 343.269C1012.62 337.421 1019.02 337.137 1023.26 332.509C1028.92 326.433 1029.68 314.879 1033.16 306.134C1036.65 297.39 1047.9 293.671 1049.54 303.522C1061.43 267.325 1087.44 321.124 1103.03 317.065C1107.55 315.901 1111.94 312.806 1116.48 313.715C1124.4 315.304 1128.62 327.91 1131.36 338.868C1135.87 356.982 1140.4 375.095 1144.93 393.208C1146.63 400.107 1148.89 407.772 1153.64 410.412C1157.29 412.456 1161.57 410.895 1165.21 412.826C1174.96 417.907 1171.79 439.853 1163.94 449.591C1156.1 459.329 1145.12 465.433 1141.4 479.287C1138.59 489.707 1140.83 502 1137.82 512.277C1135.64 519.744 1131.08 525.053 1127.99 531.725Z" fill="#263238"/>
<path d="M1164.96 543.535C1161.77 544.188 1157.98 541.916 1155.55 544.983C1154.34 547.067 1153.55 549.577 1153.25 552.251C1152.55 555.904 1150.93 559.058 1148.71 561.108C1147.6 562.105 1146.31 562.619 1145 562.589C1143.69 562.558 1142.41 561.985 1141.32 560.938C1140.28 559.804 1139.59 558.126 1139.4 556.266C1139.21 554.407 1139.54 552.516 1140.31 551.001C1141.19 549.846 1142.1 548.765 1143.07 547.765C1147.31 542.087 1144.41 531.355 1147.64 524.513C1149.62 520.482 1152.53 516.365 1154.63 512.305C1156.24 509.154 1156.83 506.627 1159.78 505.832C1172.72 502.113 1178.56 540.809 1164.96 543.535Z" fill="#263238"/>
<path d="M868.685 466.341C868.051 458.193 869.933 450.017 870.032 441.784C870.032 436.106 869.815 430.144 869.755 424.409C866.358 424.18 862.983 423.505 859.672 422.393C858.958 422.27 858.298 421.787 857.81 421.03C857.469 420.108 857.331 419.058 857.414 418.021C857.156 411.633 852.858 407.403 848.995 404.195C847.059 402.452 845.001 401.006 842.854 399.879C842.854 400.561 842.854 401.185 842.854 401.867C843.613 432.734 847.875 463.217 855.473 492.12C858.857 504.968 862.916 517.429 867.616 529.397C869.597 534.592 871.696 539.674 873.915 544.671C876.688 550.831 879.581 556.879 882.691 562.67C885.801 568.462 888.633 573.714 891.882 578.938C896.315 586.175 901.002 593.083 905.927 599.635C910.298 605.502 914.854 611.057 919.595 616.3C908.76 574.623 898.558 532.065 879.977 496.577C875.183 487.322 869.597 477.868 868.685 466.341Z" fill="#377BFF"/>
<path d="M842.839 386.423C842.839 388.126 842.839 389.83 842.839 391.533C842.839 393.237 842.839 394.372 842.839 395.707C842.839 394.315 842.839 392.867 842.839 391.533C842.839 390.199 842.813 388.126 842.839 386.423Z" fill="#263238"/>
<g opacity="0.6">
<path opacity="0.6" d="M930.748 627.826C932.412 629.444 934.115 631.034 935.819 632.567C937.007 633.646 938.216 634.668 939.424 635.718C938.216 634.668 937.007 633.646 935.819 632.567C934.115 631.034 932.431 629.444 930.748 627.826Z" fill="#263238"/>
</g>
<path d="M1163.92 449.676C1171.85 439.938 1174.94 417.992 1165.19 412.91C1161.51 410.979 1157.27 412.541 1153.62 410.497C1148.85 407.856 1146.61 400.191 1144.91 393.292C1140.38 375.179 1135.85 357.066 1131.34 338.953C1128.6 328.051 1124.46 315.389 1116.46 313.799C1111.92 312.89 1107.53 315.985 1103.01 317.149C1087.5 321.209 1061.41 267.409 1049.52 303.607C1047.88 293.755 1036.71 297.474 1033.14 306.219C1029.58 314.963 1028.82 326.518 1023.24 332.593C1018.94 337.221 1012.6 337.505 1009.09 343.353C1006.6 347.47 1006.18 353.262 1005.86 358.684L1004.08 389.743C1003.59 398.09 1003.19 407.005 1006.06 414.301C1008.94 421.597 1016.48 425.657 1020.78 419.979C1022.76 417.396 1023.61 413.478 1025.24 410.383C1026.58 407.939 1028.39 406.104 1030.45 405.097C1032.5 404.09 1034.72 403.954 1036.83 404.705C1040.29 406.44 1043.34 409.528 1045.64 413.62C1065.85 444.849 1073.08 489.167 1073.97 531.667C1074.13 539.446 1074.13 547.452 1076.13 554.692C1078.47 563.209 1083.4 570.023 1084.86 578.909C1085.97 585.723 1084.86 593.246 1086.96 599.605C1090.73 611.331 1103.29 611.813 1110.12 603.41C1116.96 595.006 1119.33 581.464 1120.72 568.717C1122.11 555.969 1123 542.541 1127.97 531.809C1131.06 525.137 1135.62 519.828 1137.78 512.447C1140.79 502.113 1138.55 489.734 1141.36 479.457C1145.1 465.517 1156.1 459.527 1163.92 449.676Z" fill="#377BFF"/>
<g opacity="0.6">
<path opacity="0.6" d="M842.955 379.693C842.935 380.223 842.935 380.754 842.955 381.283C842.955 382.958 842.955 384.69 842.955 386.422C842.955 384.69 842.955 382.958 842.955 381.283C842.935 380.754 842.935 380.223 842.955 379.693Z" fill="#263238"/>
</g>
<g opacity="0.6">
<path opacity="0.6" d="M842.816 395.705C842.816 397.096 842.816 398.544 842.816 399.878C842.837 398.487 842.837 397.068 842.816 395.705Z" fill="#263238"/>
</g>
<path d="M870.093 413.393L868.904 413.109C865.418 412.57 861.337 412.314 859.416 408.169C857.177 403.343 859.416 396.188 857.098 391.447C855.659 389.292 853.978 387.497 852.126 386.138C850.422 384.435 848.996 381.198 850.026 378.586C851.056 375.974 853.077 375.918 854.166 373.902C854.609 373.092 854.85 372.092 854.85 371.063C854.85 370.033 854.609 369.034 854.166 368.224C850.581 362.148 846.599 374.555 844.618 377.479C844.109 378.238 843.574 378.958 843.013 379.637V379.637C842.994 380.166 842.994 380.697 843.013 381.227C843.013 382.902 843.013 384.633 843.013 386.365C843.013 388.097 843.013 389.772 843.013 391.476C843.013 393.179 843.013 394.315 843.013 395.649C843.013 396.983 843.013 398.488 843.013 399.822C845.16 400.949 847.218 402.395 849.154 404.138C853.116 407.346 857.316 411.576 857.573 417.964C857.49 419.001 857.628 420.05 857.969 420.973C858.458 421.73 859.118 422.213 859.832 422.336C863.142 423.448 866.518 424.123 869.914 424.352" fill="#377BFF"/>
<path d="M869.755 424.408C869.755 430.086 870.091 436.105 870.032 441.783C869.933 450.016 868.051 458.193 868.685 466.341C869.596 477.867 875.182 487.322 880.055 496.577C898.597 532.065 908.799 574.622 919.674 616.299C921.655 618.599 923.636 620.757 925.795 622.886C927.439 624.561 929.083 626.236 930.747 627.826C932.411 629.416 934.115 631.034 935.819 632.567C937.007 633.646 938.216 634.668 939.424 635.718C939.265 635.207 939.107 634.753 938.968 634.27C934.59 620.529 934.333 600.741 943.742 593.928C945.634 592.954 947.42 591.607 949.051 589.925C953.231 584.246 949.804 572.55 953.984 566.872C956.341 563.72 959.927 564.033 962.938 562.045C968.167 558.582 969.871 548.957 969.455 540.667C969.039 532.377 967.137 524.229 967.791 515.996C968.841 503.532 975.715 490.87 971.753 479.599C967.375 467.051 954.657 469.066 945.703 463.445C933.204 455.581 929.341 433.323 921.16 417.623C913.85 403.428 896.755 388.125 883.76 392.355C874.33 395.422 871.082 403.485 870.111 413.393" fill="#377BFF"/>
<path d="M855.176 308.689C858.88 304.147 865.298 303.607 868.151 309.285C870.132 313.345 869.716 318.881 869.181 323.821C868.468 330.502 867.735 337.127 866.982 343.695C866.639 345.676 866.708 347.758 867.18 349.685C868.567 353.915 873.4 353.12 875.262 349.344C877.124 345.568 876.926 340.373 876.411 335.774C875.896 331.174 875.262 326.291 876.51 321.947C879.66 311.244 890.813 312.863 897.27 305.878C901.232 301.563 903.094 294.324 905.471 287.964C907.849 281.605 911.85 275.274 916.882 275.586C918.565 275.586 920.249 276.58 921.933 276.494C926.905 276.267 929.857 265.848 926.271 260.823C925.446 259.882 924.707 258.794 924.072 257.586C923.73 256.329 923.699 254.942 923.984 253.656C924.269 252.37 924.852 251.262 925.637 250.517C927.236 249.101 929.051 248.263 930.926 248.076C935.166 247.082 939.405 246.145 943.644 245.236C948.319 244.214 954.321 240.751 953.668 233.88C953.093 228.202 947.606 225.363 946.794 219.685C946.727 218.251 946.547 216.832 946.259 215.455C944.971 211.764 941.108 213.24 938.612 215.228C938.299 213.944 937.781 212.781 937.101 211.832C936.42 210.883 935.596 210.172 934.692 209.757C933.788 209.341 932.828 209.232 931.89 209.438C930.951 209.643 930.059 210.158 929.282 210.941C926.766 213.78 926.469 219.146 925.578 223.603C923.597 234.42 917.516 242.596 911.711 250.205C909.981 253.056 907.615 254.962 905.016 255.599C902.401 255.798 899.687 251.795 900.876 248.501C901.688 246.259 903.946 244.953 903.728 242.426C903.411 239.274 899.588 239.587 898.835 236.464C900.341 227.549 907.472 223.858 912.94 219.089C919.634 213.248 924.726 204.287 927.361 193.708C927.642 192.903 927.804 192.022 927.834 191.123C927.865 190.223 927.765 189.325 927.539 188.484C926.727 186.241 924.627 185.872 922.824 185.872C918.625 185.872 913.375 186.582 911.83 192.232C911.018 195.241 911.612 198.648 911.117 201.799C909.631 211.168 900.678 212.218 895.27 217.783C893.347 220.295 891.286 222.583 889.109 224.625C886.491 226.017 883.72 226.729 880.928 226.726C880.423 226.758 879.92 226.834 879.422 226.953C877.679 230.388 876.015 233.909 874.41 237.458C872.806 241.006 871.261 244.669 869.775 248.331C862.643 265.734 856.844 284.191 852.482 303.38C850.936 310.099 849.576 316.941 848.401 323.906C847.226 330.872 846.228 337.912 845.41 345.029C847.074 339.271 848.277 333.261 848.995 327.115C850.025 320.414 851.57 313.26 855.176 308.689Z" fill="#377BFF"/>
<path d="M1021.75 168.611C1023.64 165.062 1023.08 160.093 1024.31 155.92C1026.29 149.135 1032.61 146.721 1034.79 140.05C1035.62 137.466 1035.84 134.372 1037.3 132.441C1038.77 130.51 1040.32 130.51 1041.62 129.091C1044.55 125.883 1043.35 118.558 1040.24 115.719C1032.45 108.593 1018.13 116.826 1011.39 123.81C1002.74 132.782 994.278 143.684 982.769 142.52C979.599 142.236 976.291 140.987 973.32 142.52C970.348 144.053 968.526 150.497 971.081 153.223C972.508 154.728 974.528 154.302 976.133 155.352C979.104 157.339 979.382 163.472 977.935 167.674C976.489 171.875 973.974 175.027 972.171 179.03C970.516 182.971 969.78 187.565 970.071 192.146C970.097 193.753 970.348 195.335 970.811 196.799C971.274 198.263 971.939 199.577 972.765 200.663C976.351 204.752 981.798 201.26 984.829 196.32C987.86 191.38 989.96 184.963 993.882 181.67C995.894 180.137 998.059 179.055 1000.3 178.462L1015.32 173.352C1017.78 172.865 1020.05 171.193 1021.75 168.611V168.611Z" fill="#377BFF"/>
<g opacity="0.6">
<path opacity="0.6" d="M1227.25 292.166C1228.21 295.762 1229.1 299.396 1229.93 303.067C1229.1 299.396 1228.21 295.762 1227.25 292.166Z" fill="#263238"/>
</g>
<path d="M1239.68 387.615C1239.68 383.526 1239.58 379.467 1239.42 375.435C1239.26 371.404 1239.04 367.372 1238.77 363.369C1238.55 360.104 1238.29 356.925 1237.97 353.717C1237.66 350.508 1237.32 346.988 1236.92 343.638C1235.76 333.679 1234.22 323.822 1232.29 314.112C1231.55 310.393 1230.76 306.702 1229.93 303.068C1229.1 299.434 1228.21 295.772 1227.26 292.166C1226.27 289.327 1225.27 286.8 1224.03 284.188C1212.99 259.148 1196.99 239.53 1184.84 215.569C1180.88 207.79 1177.81 201.373 1170.82 199.812C1160.44 197.512 1155.19 205.973 1147.84 191.891C1145.86 188.115 1142.41 184.595 1139.48 186.837C1140.23 189.875 1141.03 192.885 1141.78 195.951C1141.97 196.566 1142.06 197.237 1142.04 197.91C1141.88 200.039 1139.68 200.749 1138.41 199.443C1137.29 198 1136.35 196.278 1135.66 194.361C1134.79 192.773 1133.71 191.459 1132.47 190.501C1131.23 189.544 1129.87 188.965 1128.47 188.799C1127.07 188.634 1125.66 188.886 1124.33 189.541C1123 190.195 1121.78 191.237 1120.74 192.601C1120.64 191.175 1120.29 189.811 1119.71 188.645C1119.13 187.479 1118.34 186.552 1117.43 185.957C1117.28 187.314 1116.94 188.611 1116.41 189.761C1115.89 190.912 1115.2 191.891 1114.39 192.634C1113.59 193.377 1112.68 193.866 1111.73 194.071C1110.79 194.276 1109.82 194.191 1108.89 193.822C1108.3 190.982 1111.71 190.585 1112.86 188.143C1114.01 185.702 1112.64 182.891 1111.21 181.046C1107.41 176.323 1102.58 173.634 1097.54 173.437C1094.37 173.437 1090.95 174.204 1088.19 171.847C1086.59 170.513 1085.46 168.242 1083.82 166.964C1080.33 164.125 1075.89 166.737 1072.45 169.519C1067.65 173.352 1062.68 178.036 1060.98 185.673C1059.27 193.31 1063.06 203.276 1068.52 202.339C1069.87 201.71 1071.29 201.479 1072.7 201.657C1073.62 202.253 1074.4 203.227 1074.93 204.455C1075.46 205.683 1075.73 207.111 1075.69 208.556C1075.56 211.457 1075.87 214.364 1076.61 217.073C1077.54 219.6 1080.39 220.878 1081.5 218.493C1084.07 214.972 1083.76 209.067 1083.1 204.07C1082.45 199.074 1081.76 193.452 1083.82 189.364C1085.88 185.276 1091.9 186.525 1091.48 191.607C1091.24 194.446 1088.89 196.746 1088.97 199.755C1089.05 202.764 1091.68 204.44 1093.82 204.298C1095.96 204.156 1098.12 203.077 1100.2 203.843C1102.28 204.61 1103.96 208.499 1102.46 210.685C1099.84 214.916 1093.07 207.676 1091.7 212.957C1091.55 214.387 1091.55 215.842 1091.7 217.272C1091.44 221.673 1087.58 223.291 1084.49 223.83C1081.44 224.739 1078.28 224.414 1075.36 222.893C1072.56 220.991 1070.64 215.739 1072.25 211.963C1071.82 211.651 1071.35 211.468 1070.87 211.425C1070.39 211.383 1069.91 211.482 1069.46 211.716C1069.01 211.95 1068.6 212.315 1068.25 212.787C1067.9 213.259 1067.62 213.829 1067.43 214.461C1066.78 217.094 1066.66 219.941 1067.1 222.666C1063.83 221.644 1060.9 225.505 1059.05 229.508C1057.21 233.511 1055.37 238.025 1052.2 239.473C1049.03 240.921 1044.59 238.962 1042.93 243.107C1040.77 248.501 1047.05 255.344 1044.91 260.709C1043.66 263.719 1040.63 263.548 1038.25 264.599C1031.94 267.154 1029.74 280.384 1034.04 287.453C1038.33 294.522 1046.95 294.125 1051.51 287.453C1054.68 282.826 1055.96 276.296 1058.26 270.703C1060.56 265.11 1064.9 260.113 1069.24 261.93C1070.91 262.826 1072.43 264.208 1073.71 265.99C1075.83 268.488 1077.93 271.015 1080.03 273.599C1081.38 275.217 1082.87 277.233 1082.73 279.759C1082.61 281.775 1081.52 283.365 1081.04 285.239C1079.72 290.69 1085.22 295.885 1088.67 292.904C1092.12 289.923 1092.51 282.315 1090.16 277.63C1086.89 271.157 1079.5 267.921 1079.7 259.886C1083.46 255.486 1089.4 260.113 1091.58 266.387C1093.76 272.662 1093.84 279.987 1095.68 286.431C1097.52 292.876 1102.73 298.611 1107.07 295.459C1105.92 289.781 1104.83 284.359 1103.7 278.822C1106.46 275.983 1109.65 284.501 1112.94 283.053C1114.92 282.144 1115.19 277.999 1114.32 275.217C1113.45 272.435 1111.91 270.078 1111.53 267.069C1110.9 261.561 1115.17 256.65 1119.04 257.558C1120.92 258.245 1122.62 259.713 1123.93 261.778C1125.24 263.843 1126.09 266.414 1126.39 269.17C1126.52 271.373 1126.86 273.541 1127.4 275.614C1128.84 279.93 1132.57 281.292 1135.66 283.053C1138.75 284.813 1141.98 289.299 1140.67 293.699C1140.07 295.658 1138.69 297.503 1139.16 299.377C1139.64 301.251 1141.46 301.904 1141.46 303.806C1141.46 305.055 1140.53 305.907 1139.7 306.418C1137.72 307.639 1135.36 308.036 1133.36 309.427C1132.32 309.999 1131.41 310.994 1130.76 312.289C1130.11 313.585 1129.73 315.126 1129.68 316.724C1129.93 321.238 1133.64 323.396 1135.44 327.115C1137.24 330.834 1136.89 335.405 1137.96 339.465C1139.2 343.049 1140.8 346.365 1142.69 349.316C1147.9 359.508 1149.13 372.596 1151.68 384.662C1152.81 390.113 1154.87 396.189 1158.77 397.239C1160.94 397.475 1163.11 396.866 1165.05 395.479C1170.68 392.271 1176.52 388.864 1180.45 382.334C1184.37 375.804 1185.74 365.073 1181.67 358.656C1181.2 357.717 1180.49 357.084 1179.69 356.896C1178.63 356.985 1177.61 357.496 1176.74 358.373C1175.25 359.153 1173.64 359.313 1172.09 358.836C1170.54 358.359 1169.12 357.263 1167.99 355.675C1165.75 352.41 1163.98 348.553 1162.78 344.319C1161.23 339.862 1159.69 335.348 1158.12 330.862C1159.96 328.591 1162.92 329.556 1164.84 331.742C1166.55 334.229 1168.09 336.949 1169.43 339.862C1174.11 348.379 1181.81 351.928 1189.24 353.177C1191.16 353.318 1193.05 353.883 1194.85 354.852C1200.39 358.515 1202 370.24 1207.88 372.767C1209.57 373.158 1211.24 373.699 1212.87 374.385C1213.97 375.372 1214.9 376.675 1215.62 378.21C1216.34 379.745 1216.83 381.478 1217.05 383.299C1218.34 389.914 1218.78 396.898 1220.74 403.173C1222.7 409.447 1226.58 415.21 1231.36 415.295C1234.36 415.161 1237.21 413.335 1239.28 410.214V410.214C1239.54 403.996 1239.7 397.778 1239.7 391.476C1239.74 390.227 1239.74 388.921 1239.68 387.615Z" fill="#377BFF"/>
<path d="M1159.78 505.832C1156.83 506.656 1156.24 509.154 1154.63 512.305C1152.53 516.365 1149.54 520.482 1147.64 524.513C1144.41 531.355 1147.31 542.002 1143.07 547.765C1142.1 548.765 1141.19 549.846 1140.31 551.001C1139.54 552.516 1139.21 554.407 1139.4 556.266C1139.59 558.126 1140.28 559.804 1141.32 560.938C1142.41 561.985 1143.69 562.558 1145 562.589C1146.31 562.619 1147.6 562.105 1148.71 561.108C1150.93 559.058 1152.55 555.904 1153.25 552.251C1153.55 549.577 1154.34 547.067 1155.55 544.983C1157.98 541.916 1161.77 544.188 1164.96 543.535C1178.56 540.809 1172.72 502.113 1159.78 505.832Z" fill="#377BFF"/>
<g opacity="0.6">
<path opacity="0.6" d="M1163.92 449.676C1171.85 439.938 1174.94 417.992 1165.19 412.91C1161.51 410.979 1157.27 412.541 1153.62 410.497C1148.85 407.856 1146.61 400.191 1144.91 393.292C1140.38 375.179 1135.85 357.066 1131.34 338.953C1128.6 328.051 1124.46 315.389 1116.46 313.799C1111.92 312.89 1107.53 315.985 1103.01 317.149C1087.5 321.209 1061.41 267.409 1049.52 303.607C1047.88 293.755 1036.71 297.474 1033.14 306.219C1029.58 314.963 1028.82 326.518 1023.24 332.593C1018.94 337.221 1012.6 337.505 1009.09 343.353C1006.6 347.47 1006.18 353.262 1005.86 358.684L1004.08 389.743C1003.59 398.09 1003.19 407.005 1006.06 414.301C1008.94 421.597 1016.48 425.657 1020.78 419.979C1022.76 417.396 1023.61 413.478 1025.24 410.383C1026.58 407.939 1028.39 406.104 1030.45 405.097C1032.5 404.09 1034.72 403.954 1036.83 404.705C1040.29 406.44 1043.34 409.528 1045.64 413.62C1065.85 444.849 1073.08 489.167 1073.97 531.667C1074.13 539.446 1074.13 547.452 1076.13 554.692C1078.47 563.209 1083.4 570.023 1084.86 578.909C1085.97 585.723 1084.86 593.246 1086.96 599.605C1090.73 611.331 1103.29 611.813 1110.12 603.41C1116.96 595.006 1119.33 581.464 1120.72 568.717C1122.11 555.969 1123 542.541 1127.97 531.809C1131.06 525.137 1135.62 519.828 1137.78 512.447C1140.79 502.113 1138.55 489.734 1141.36 479.457C1145.1 465.517 1156.1 459.527 1163.92 449.676Z" fill="white"/>
</g>
<g opacity="0.6">
<path opacity="0.6" d="M919.635 616.299C921.616 618.599 923.597 620.757 925.756 622.886C927.4 624.561 929.044 626.236 930.708 627.826C932.372 629.416 934.076 631.034 935.779 632.567C936.968 633.646 938.176 634.668 939.385 635.718C939.226 635.207 939.068 634.753 938.929 634.27C934.551 620.53 934.294 600.741 943.703 593.928C945.594 592.955 947.381 591.607 949.012 589.925C953.192 584.247 949.765 572.55 953.944 566.872C956.302 563.72 959.887 564.033 962.898 562.045C968.128 558.582 969.832 548.957 969.416 540.667C969 532.377 967.098 524.229 967.752 515.996C968.801 503.533 975.675 490.87 971.713 479.599C967.336 467.051 954.618 469.067 945.664 463.445C933.164 455.581 929.302 433.323 921.12 417.623C913.811 403.428 896.715 388.125 883.72 392.356C874.291 395.422 871.042 403.485 870.072 413.393L868.883 413.109C865.397 412.57 861.316 412.286 859.394 408.169C857.156 403.343 859.394 396.188 857.077 391.447C855.638 389.292 853.957 387.497 852.105 386.138C850.401 384.435 848.975 381.198 850.005 378.586C851.035 375.974 853.055 375.918 854.145 373.902C854.588 373.092 854.829 372.092 854.829 371.063C854.829 370.033 854.588 369.034 854.145 368.224C850.559 362.148 846.578 374.555 844.597 377.479C844.088 378.238 843.553 378.958 842.992 379.637V379.637C842.973 380.166 842.973 380.697 842.992 381.227C842.992 382.902 842.992 384.633 842.992 386.365C842.992 388.097 842.992 389.772 842.992 391.476C842.992 393.179 842.992 394.315 842.992 395.649C842.992 396.983 842.992 398.488 842.992 399.822C842.992 400.504 842.992 401.128 842.992 401.81C843.751 432.676 848.013 463.16 855.611 492.063C858.995 504.911 863.054 517.372 867.754 529.339C869.735 534.535 871.835 539.617 874.053 544.614C876.827 550.774 879.719 556.821 882.829 562.613C885.939 568.405 888.772 573.657 892.02 578.881C896.453 586.118 901.141 593.026 906.065 599.577C910.437 605.445 914.993 611 919.734 616.243" fill="white"/>
</g>
<g opacity="0.6">
<path opacity="0.6" d="M855.176 308.689C858.88 304.147 865.298 303.607 868.151 309.285C870.132 313.345 869.716 318.881 869.181 323.821C868.468 330.502 867.735 337.127 866.982 343.695C866.639 345.676 866.708 347.758 867.18 349.685C868.567 353.915 873.4 353.12 875.262 349.344C877.124 345.568 876.926 340.373 876.411 335.774C875.896 331.174 875.262 326.291 876.51 321.947C879.66 311.244 890.813 312.863 897.27 305.878C901.232 301.563 903.094 294.324 905.471 287.964C907.849 281.605 911.85 275.274 916.882 275.586C918.565 275.586 920.249 276.58 921.933 276.494C926.905 276.267 929.857 265.848 926.271 260.823C925.446 259.882 924.707 258.794 924.072 257.586C923.73 256.329 923.699 254.942 923.984 253.656C924.269 252.37 924.852 251.262 925.637 250.517C927.236 249.101 929.051 248.263 930.926 248.076C935.166 247.082 939.405 246.145 943.644 245.236C948.319 244.214 954.321 240.751 953.668 233.88C953.093 228.202 947.606 225.363 946.794 219.685C946.727 218.251 946.547 216.832 946.259 215.455C944.971 211.764 941.108 213.24 938.612 215.228C938.299 213.944 937.781 212.781 937.101 211.832C936.42 210.883 935.596 210.172 934.692 209.757C933.788 209.341 932.828 209.232 931.89 209.438C930.951 209.643 930.059 210.158 929.282 210.941C926.766 213.78 926.469 219.146 925.578 223.603C923.597 234.42 917.516 242.596 911.711 250.205C909.981 253.056 907.615 254.962 905.016 255.599C902.401 255.798 899.687 251.795 900.876 248.501C901.688 246.259 903.946 244.953 903.728 242.426C903.411 239.274 899.588 239.587 898.835 236.464C900.341 227.549 907.472 223.858 912.94 219.089C919.634 213.248 924.726 204.287 927.361 193.708C927.642 192.903 927.804 192.022 927.834 191.123C927.865 190.223 927.765 189.325 927.539 188.484C926.727 186.241 924.627 185.872 922.824 185.872C918.625 185.872 913.375 186.582 911.83 192.232C911.018 195.241 911.612 198.648 911.117 201.799C909.631 211.168 900.678 212.218 895.27 217.783C893.347 220.295 891.286 222.583 889.109 224.625C886.491 226.017 883.72 226.729 880.928 226.726C880.423 226.758 879.92 226.834 879.422 226.953C877.679 230.388 876.015 233.909 874.41 237.458C872.806 241.006 871.261 244.669 869.775 248.331C862.643 265.734 856.844 284.191 852.482 303.38C850.936 310.099 849.576 316.941 848.401 323.906C847.226 330.872 846.228 337.912 845.41 345.029C847.074 339.271 848.277 333.261 848.995 327.115C850.025 320.414 851.57 313.26 855.176 308.689Z" fill="white"/>
</g>
<g opacity="0.6">
<path opacity="0.6" d="M1021.75 168.611C1023.64 165.062 1023.08 160.093 1024.31 155.92C1026.29 149.135 1032.61 146.721 1034.79 140.05C1035.62 137.466 1035.84 134.372 1037.3 132.441C1038.77 130.51 1040.32 130.51 1041.62 129.091C1044.55 125.883 1043.35 118.558 1040.24 115.719C1032.45 108.593 1018.13 116.826 1011.39 123.81C1002.74 132.782 994.278 143.684 982.769 142.52C979.599 142.236 976.291 140.987 973.32 142.52C970.348 144.053 968.526 150.497 971.081 153.223C972.508 154.728 974.528 154.302 976.133 155.352C979.104 157.339 979.382 163.472 977.935 167.674C976.489 171.875 973.974 175.027 972.171 179.03C970.516 182.971 969.78 187.565 970.071 192.146C970.097 193.753 970.348 195.335 970.811 196.799C971.274 198.263 971.939 199.577 972.765 200.663C976.351 204.752 981.798 201.26 984.829 196.32C987.86 191.38 989.96 184.963 993.882 181.67C995.894 180.137 998.059 179.055 1000.3 178.462L1015.32 173.352C1017.78 172.865 1020.05 171.193 1021.75 168.611V168.611Z" fill="white"/>
</g>
<g opacity="0.6">
<path opacity="0.6" d="M1239.68 387.615C1239.68 383.526 1239.58 379.467 1239.42 375.435C1239.26 371.404 1239.04 367.372 1238.77 363.369C1238.55 360.104 1238.29 356.925 1237.97 353.717C1237.66 350.508 1237.32 346.988 1236.92 343.638C1235.76 333.679 1234.22 323.822 1232.29 314.112C1231.55 310.393 1230.76 306.702 1229.93 303.068C1229.1 299.434 1228.21 295.772 1227.26 292.166C1226.27 289.327 1225.27 286.8 1224.03 284.188C1212.99 259.148 1196.99 239.53 1184.84 215.569C1180.88 207.79 1177.81 201.373 1170.82 199.812C1160.44 197.512 1155.19 205.973 1147.84 191.891C1145.86 188.115 1142.41 184.595 1139.48 186.837C1140.23 189.875 1141.03 192.885 1141.78 195.951C1141.97 196.566 1142.06 197.237 1142.04 197.91C1141.88 200.039 1139.68 200.749 1138.41 199.443C1137.29 198 1136.35 196.278 1135.66 194.361C1134.79 192.773 1133.71 191.459 1132.47 190.501C1131.23 189.544 1129.87 188.965 1128.47 188.799C1127.07 188.634 1125.66 188.886 1124.33 189.541C1123 190.195 1121.78 191.237 1120.74 192.601C1120.64 191.175 1120.29 189.811 1119.71 188.645C1119.13 187.479 1118.34 186.552 1117.43 185.957C1117.28 187.314 1116.94 188.611 1116.41 189.761C1115.89 190.912 1115.2 191.891 1114.39 192.634C1113.59 193.377 1112.68 193.866 1111.73 194.071C1110.79 194.276 1109.82 194.191 1108.89 193.822C1108.3 190.982 1111.71 190.585 1112.86 188.143C1114.01 185.702 1112.64 182.891 1111.21 181.046C1107.41 176.323 1102.58 173.634 1097.54 173.437C1094.37 173.437 1090.95 174.204 1088.19 171.847C1086.59 170.513 1085.46 168.242 1083.82 166.964C1080.33 164.125 1075.89 166.737 1072.45 169.519C1067.65 173.352 1062.68 178.036 1060.98 185.673C1059.27 193.31 1063.06 203.276 1068.52 202.339C1069.87 201.71 1071.29 201.479 1072.7 201.657C1073.62 202.253 1074.4 203.227 1074.93 204.455C1075.46 205.683 1075.73 207.111 1075.69 208.556C1075.56 211.457 1075.87 214.364 1076.61 217.073C1077.54 219.6 1080.39 220.878 1081.5 218.493C1084.07 214.972 1083.76 209.067 1083.1 204.07C1082.45 199.074 1081.76 193.452 1083.82 189.364C1085.88 185.276 1091.9 186.525 1091.48 191.607C1091.24 194.446 1088.89 196.746 1088.97 199.755C1089.05 202.764 1091.68 204.44 1093.82 204.298C1095.96 204.156 1098.12 203.077 1100.2 203.843C1102.28 204.61 1103.96 208.499 1102.46 210.685C1099.84 214.916 1093.07 207.676 1091.7 212.957C1091.55 214.387 1091.55 215.842 1091.7 217.272C1091.44 221.673 1087.58 223.291 1084.49 223.83C1081.44 224.739 1078.28 224.414 1075.36 222.893C1072.56 220.991 1070.64 215.739 1072.25 211.963C1071.82 211.651 1071.35 211.468 1070.87 211.425C1070.39 211.383 1069.91 211.482 1069.46 211.716C1069.01 211.95 1068.6 212.315 1068.25 212.787C1067.9 213.259 1067.62 213.829 1067.43 214.461C1066.78 217.094 1066.66 219.941 1067.1 222.666C1063.83 221.644 1060.9 225.505 1059.05 229.508C1057.21 233.511 1055.37 238.025 1052.2 239.473C1049.03 240.921 1044.59 238.962 1042.93 243.107C1040.77 248.501 1047.05 255.344 1044.91 260.709C1043.66 263.719 1040.63 263.548 1038.25 264.599C1031.94 267.154 1029.74 280.384 1034.04 287.453C1038.33 294.522 1046.95 294.125 1051.51 287.453C1054.68 282.826 1055.96 276.296 1058.26 270.703C1060.56 265.11 1064.9 260.113 1069.24 261.93C1070.91 262.826 1072.43 264.208 1073.71 265.99C1075.83 268.488 1077.93 271.015 1080.03 273.599C1081.38 275.217 1082.87 277.233 1082.73 279.759C1082.61 281.775 1081.52 283.365 1081.04 285.239C1079.72 290.69 1085.22 295.885 1088.67 292.904C1092.12 289.923 1092.51 282.315 1090.16 277.63C1086.89 271.157 1079.5 267.921 1079.7 259.886C1083.46 255.486 1089.4 260.113 1091.58 266.387C1093.76 272.662 1093.84 279.987 1095.68 286.431C1097.52 292.876 1102.73 298.611 1107.07 295.459C1105.92 289.781 1104.83 284.359 1103.7 278.822C1106.46 275.983 1109.65 284.501 1112.94 283.053C1114.92 282.144 1115.19 277.999 1114.32 275.217C1113.45 272.435 1111.91 270.078 1111.53 267.069C1110.9 261.561 1115.17 256.65 1119.04 257.558C1120.92 258.245 1122.62 259.713 1123.93 261.778C1125.24 263.843 1126.09 266.414 1126.39 269.17C1126.52 271.373 1126.86 273.541 1127.4 275.614C1128.84 279.93 1132.57 281.292 1135.66 283.053C1138.75 284.813 1141.98 289.299 1140.67 293.699C1140.07 295.658 1138.69 297.503 1139.16 299.377C1139.64 301.251 1141.46 301.904 1141.46 303.806C1141.46 305.055 1140.53 305.907 1139.7 306.418C1137.72 307.639 1135.36 308.036 1133.36 309.427C1132.32 309.999 1131.41 310.994 1130.76 312.289C1130.11 313.585 1129.73 315.126 1129.68 316.724C1129.93 321.238 1133.64 323.396 1135.44 327.115C1137.24 330.834 1136.89 335.405 1137.96 339.465C1139.2 343.049 1140.8 346.365 1142.69 349.316C1147.9 359.508 1149.13 372.596 1151.68 384.662C1152.81 390.113 1154.87 396.189 1158.77 397.239C1160.94 397.475 1163.11 396.866 1165.05 395.479C1170.68 392.271 1176.52 388.864 1180.45 382.334C1184.37 375.804 1185.74 365.073 1181.67 358.656C1181.2 357.717 1180.49 357.084 1179.69 356.896C1178.63 356.985 1177.61 357.496 1176.74 358.373C1175.25 359.153 1173.64 359.313 1172.09 358.836C1170.54 358.359 1169.12 357.263 1167.99 355.675C1165.75 352.41 1163.98 348.553 1162.78 344.319C1161.23 339.862 1159.69 335.348 1158.12 330.862C1159.96 328.591 1162.92 329.556 1164.84 331.742C1166.55 334.229 1168.09 336.949 1169.43 339.862C1174.11 348.379 1181.81 351.928 1189.24 353.177C1191.16 353.318 1193.05 353.883 1194.85 354.852C1200.39 358.515 1202 370.24 1207.88 372.767C1209.57 373.158 1211.24 373.699 1212.87 374.385C1213.97 375.372 1214.9 376.675 1215.62 378.21C1216.34 379.745 1216.83 381.478 1217.05 383.299C1218.34 389.914 1218.78 396.898 1220.74 403.173C1222.7 409.447 1226.58 415.21 1231.36 415.295C1234.36 415.161 1237.21 413.335 1239.28 410.214V410.214C1239.54 403.996 1239.7 397.778 1239.7 391.476C1239.74 390.227 1239.74 388.921 1239.68 387.615Z" fill="white"/>
</g>
<g opacity="0.6">
<path opacity="0.6" d="M1159.78 505.832C1156.83 506.656 1156.24 509.154 1154.63 512.305C1152.53 516.365 1149.54 520.482 1147.64 524.513C1144.41 531.355 1147.31 542.002 1143.07 547.765C1142.1 548.765 1141.19 549.846 1140.31 551.001C1139.54 552.516 1139.21 554.407 1139.4 556.266C1139.59 558.126 1140.28 559.804 1141.32 560.938C1142.41 561.985 1143.69 562.558 1145 562.589C1146.31 562.619 1147.6 562.105 1148.71 561.108C1150.93 559.058 1152.55 555.904 1153.25 552.251C1153.55 549.577 1154.34 547.067 1155.55 544.983C1157.98 541.916 1161.77 544.188 1164.96 543.535C1178.56 540.809 1172.72 502.113 1159.78 505.832Z" fill="white"/>
</g>
<path d="M908.76 179.74C908.76 179.74 910.325 178.093 913.495 175.396C918.116 171.467 922.937 168.041 927.916 165.147C935.814 160.603 944.029 157.282 952.42 155.239C957.663 153.938 962.954 153.076 968.267 152.655C971.08 152.343 973.992 152.229 976.964 152.144C979.935 152.059 982.907 152.144 986.116 152.144C999.777 152.733 1013.34 155.591 1026.55 160.661C1041.72 166.497 1056.15 175.703 1069.33 187.945C1083.93 201.527 1096.41 219.282 1106 240.098C1116.41 262.464 1122.98 288.039 1125.18 314.736C1126.18 327.504 1126.04 340.404 1124.76 353.12L1123.93 352.439C1130.73 344.65 1138.38 338.512 1146.57 334.269C1154.52 330.278 1162.84 328.01 1171.25 327.54C1187.18 326.625 1202.9 332.869 1216.22 345.398C1228.13 356.762 1237.73 372.433 1244.05 390.823C1249.56 406.678 1252.28 424.221 1251.98 441.926C1251.4 467.466 1244.91 492.006 1233.53 511.681C1230.48 516.943 1227.09 521.789 1223.41 526.16L1220.46 529.368L1219.43 530.419C1219.43 530.419 1219.75 529.993 1220.4 529.255L1223.29 525.933C1226.89 521.503 1230.21 516.62 1233.2 511.34C1237.96 502.94 1241.89 493.634 1244.87 483.688C1248.81 470.445 1250.99 456.262 1251.3 441.869C1251.57 424.323 1248.85 406.947 1243.38 391.249C1237.05 373.09 1227.51 357.631 1215.71 346.42C1202.53 334.108 1187.01 327.994 1171.29 328.932C1162.98 329.395 1154.76 331.644 1146.91 335.603C1138.83 339.791 1131.29 345.842 1124.58 353.518L1123.55 354.71L1123.75 352.836C1125.02 340.241 1125.15 327.465 1124.15 314.822C1121.94 288.419 1115.42 263.132 1105.13 241.006C1095.62 220.363 1083.25 202.746 1068.78 189.251C1055.69 177.045 1041.35 167.858 1026.27 162.024C1013.15 156.896 999.651 153.961 986.056 153.28C982.946 153.28 979.896 152.996 976.924 153.28C973.953 153.564 970.981 153.45 968.267 153.734C962.955 154.101 957.663 154.926 952.42 156.204C944.052 158.173 935.852 161.399 927.955 165.828C922.976 168.652 918.143 171.982 913.495 175.794C911.89 177.071 910.702 178.15 909.889 178.86L908.76 179.74Z" fill="#377BFF"/>
<path d="M1128.82 347.045C1128.16 345.095 1127.17 343.416 1125.93 342.162C1122.84 338.187 1118.88 338.727 1117.27 341.679C1116.46 343.412 1115.97 345.423 1115.86 347.51C1115.75 349.597 1116.03 351.688 1116.66 353.575C1117.14 355.351 1117.89 356.953 1118.85 358.268C1119.81 359.583 1120.97 360.579 1122.23 361.183C1123.5 361.75 1124.86 361.728 1126.12 361.122C1127.39 360.516 1128.48 359.355 1129.26 357.805C1129.87 356.124 1130.16 354.234 1130.08 352.338C1130.01 350.442 1129.57 348.612 1128.82 347.045V347.045Z" fill="#377BFF"/>
<path d="M1079.4 173.381C1080.13 168.043 1074.72 162.422 1070.17 159.583C1070.17 159.583 1067.16 157.454 1065.89 156.744L1060.54 144.025C1060.1 143.002 1059.46 142.183 1058.7 141.669L1057.83 141.101C1057.73 141.044 1057.62 141.027 1057.52 141.052C1057.41 141.077 1057.31 141.143 1057.23 141.243C1057.15 141.343 1057.09 141.473 1057.06 141.618C1057.03 141.764 1057.03 141.919 1057.05 142.066L1059.19 153.422L1050.72 149.363H1050.58C1048.99 148.588 1047.67 146.972 1046.89 144.848L1044.91 139.71C1044.82 139.451 1044.67 139.234 1044.5 139.085C1044.34 138.963 1044.17 138.899 1044 138.899C1043.82 138.899 1043.65 138.964 1043.5 139.087C1043.35 139.209 1043.22 139.386 1043.13 139.6C1043.04 139.813 1042.99 140.057 1042.99 140.306L1042.81 148.965C1042.8 149.629 1042.92 150.284 1043.16 150.852C1043.4 151.421 1043.74 151.88 1044.16 152.173L1046.28 153.735L1057.23 161.57L1051.55 165.715C1051.49 165.755 1051.45 165.811 1051.41 165.88C1051.37 165.949 1051.35 166.029 1051.34 166.114C1051.33 166.199 1051.33 166.286 1051.34 166.37C1051.36 166.453 1051.39 166.53 1051.43 166.596L1051.77 167.163C1051.98 167.554 1052.27 167.855 1052.6 168.035C1052.93 168.214 1053.28 168.266 1053.63 168.185L1063 165.659L1075.87 174.744C1077.5 175.993 1079.02 175.368 1079.4 173.381Z" fill="#377BFF"/>
<path d="M914.802 153.137C914.081 151.69 913.125 150.516 912.018 149.715C910.91 148.914 909.683 148.51 908.443 148.538C906.776 148.56 905.151 149.296 903.778 150.652C902.404 152.008 901.346 153.922 900.737 156.147C900.136 158.948 900.241 161.963 901.034 164.664C901.332 165.664 901.704 166.616 902.144 167.503C903.669 170.682 908.443 179.341 908.443 179.341H909.473C910.82 176.701 914.168 167.985 915.178 165.146C915.857 163.274 916.18 161.178 916.114 159.069C916.048 156.961 915.595 154.915 914.802 153.137V153.137ZM909.433 167.332C908.437 167.304 907.469 166.857 906.65 166.045C905.83 165.233 905.196 164.094 904.825 162.768C904.455 161.443 904.365 159.991 904.567 158.592C904.769 157.194 905.254 155.913 905.961 154.907C906.668 153.901 907.566 153.216 908.543 152.938C909.52 152.659 910.533 152.799 911.455 153.34C912.376 153.881 913.167 154.799 913.727 155.98C914.287 157.161 914.592 158.552 914.604 159.979C914.604 160.946 914.469 161.903 914.208 162.794C913.947 163.685 913.565 164.493 913.083 165.169C912.602 165.846 912.031 166.378 911.404 166.735C910.778 167.092 910.108 167.266 909.433 167.247V167.332Z" fill="#377BFF"/>
<g opacity="0.4">
<path opacity="0.4" d="M914.802 153.137C914.081 151.69 913.125 150.516 912.018 149.715C910.91 148.914 909.683 148.51 908.443 148.538C906.776 148.56 905.151 149.296 903.778 150.652C902.404 152.008 901.346 153.922 900.737 156.147C900.136 158.948 900.241 161.963 901.034 164.664C901.332 165.664 901.704 166.616 902.144 167.503C903.669 170.682 908.443 179.341 908.443 179.341H909.473C910.82 176.701 914.168 167.985 915.178 165.146C915.857 163.274 916.18 161.178 916.114 159.069C916.048 156.961 915.595 154.915 914.802 153.137V153.137ZM909.433 167.332C908.437 167.304 907.469 166.857 906.65 166.045C905.83 165.233 905.196 164.094 904.825 162.768C904.455 161.443 904.365 159.991 904.567 158.592C904.769 157.194 905.254 155.913 905.961 154.907C906.668 153.901 907.566 153.216 908.543 152.938C909.52 152.659 910.533 152.799 911.455 153.34C912.376 153.881 913.167 154.799 913.727 155.98C914.287 157.161 914.592 158.552 914.604 159.979C914.604 160.946 914.469 161.903 914.208 162.794C913.947 163.685 913.565 164.493 913.083 165.169C912.602 165.846 912.031 166.378 911.404 166.735C910.778 167.092 910.108 167.266 909.433 167.247V167.332Z" fill="black"/>
</g>
<path d="M915.834 153.194C915.117 151.748 914.166 150.574 913.061 149.772C911.957 148.971 910.733 148.567 909.495 148.595C907.828 148.617 906.203 149.354 904.83 150.709C903.457 152.065 902.398 153.979 901.789 156.204C901.18 159.001 901.278 162.017 902.067 164.721C902.371 165.717 902.743 166.667 903.176 167.56C904.721 170.74 909.495 179.399 909.495 179.399C909.495 179.399 915.002 168.525 916.211 165.204C916.9 163.335 917.228 161.237 917.162 159.126C917.096 157.014 916.637 154.967 915.834 153.194V153.194ZM909.436 167.39C908.44 167.362 907.472 166.914 906.652 166.102C905.833 165.291 905.198 164.151 904.828 162.826C904.457 161.5 904.367 160.048 904.569 158.65C904.771 157.252 905.256 155.97 905.963 154.964C906.67 153.958 907.568 153.274 908.545 152.995C909.522 152.716 910.535 152.856 911.457 153.397C912.379 153.938 913.169 154.856 913.729 156.037C914.289 157.218 914.594 158.609 914.606 160.037C914.609 161.004 914.476 161.963 914.216 162.856C913.956 163.749 913.574 164.558 913.092 165.235C912.61 165.913 912.038 166.445 911.41 166.801C910.782 167.156 910.111 167.327 909.436 167.305V167.39Z" fill="#377BFF"/>
<path d="M909.435 152.711C908.389 152.712 907.369 153.176 906.514 154.04C905.659 154.904 905.012 156.126 904.661 157.538C905.054 156.302 905.719 155.286 906.554 154.643C907.389 154.001 908.348 153.768 909.284 153.979C910.22 154.191 911.082 154.837 911.737 155.817C912.393 156.797 912.807 158.058 912.916 159.407C913.025 160.756 912.823 162.119 912.34 163.288C911.857 164.456 911.121 165.367 910.243 165.879C909.366 166.391 908.395 166.477 907.48 166.125C906.565 165.772 905.756 165 905.176 163.925C905.653 164.984 906.314 165.846 907.095 166.427C907.875 167.009 908.747 167.289 909.626 167.242C910.504 167.194 911.359 166.82 912.107 166.156C912.854 165.492 913.468 164.561 913.888 163.454C914.309 162.347 914.521 161.102 914.504 159.842C914.488 158.582 914.243 157.35 913.794 156.267C913.345 155.183 912.707 154.286 911.942 153.663C911.178 153.039 910.314 152.712 909.435 152.711Z" fill="#377BFF"/>
<g opacity="0.4">
<path opacity="0.4" d="M909.435 152.711C908.389 152.712 907.369 153.176 906.514 154.04C905.659 154.904 905.012 156.126 904.661 157.538C905.054 156.302 905.719 155.286 906.554 154.643C907.389 154.001 908.348 153.768 909.284 153.979C910.22 154.191 911.082 154.837 911.737 155.817C912.393 156.797 912.807 158.058 912.916 159.407C913.025 160.756 912.823 162.119 912.34 163.288C911.857 164.456 911.121 165.367 910.243 165.879C909.366 166.391 908.395 166.477 907.48 166.125C906.565 165.772 905.756 165 905.176 163.925C905.653 164.984 906.314 165.846 907.095 166.427C907.875 167.009 908.747 167.289 909.626 167.242C910.504 167.194 911.359 166.82 912.107 166.156C912.854 165.492 913.468 164.561 913.888 163.454C914.309 162.347 914.521 161.102 914.504 159.842C914.488 158.582 914.243 157.35 913.794 156.267C913.345 155.183 912.707 154.286 911.942 153.663C911.178 153.039 910.314 152.712 909.435 152.711Z" fill="black"/>
</g>
<circle cx="667" cy="194" r="36" fill="#75EA8F"/>
<circle cx="944" cy="733" r="36" fill="#FFD037"/>
</svg>
