<?xml version="1.0" ?><svg id="Layer_1" style="enable-background:new 0 0 512 512;" version="1.1" viewBox="0 0 512 512" xml:space="preserve" xmlns="http://www.w3.org/2000/svg" xmlns:xlink="http://www.w3.org/1999/xlink"><style type="text/css">
	.st0{fill:#F47822;}
</style><g id="XMLID_529_"><path class="st0" d="M365.6,285.9H40.3v133.9h276.3L365.6,285.9z M130.5,380.4h-9.2V357H96.8v23.5h-9.2v-55h9.2   v24.2h24.6v-24.2h9.2V380.4z M181.7,332.8h-17v47.6h-9.2v-47.6h-16.7v-7.4h42.9V332.8z M246.7,380.4h-9.2v-39.5l-0.2,0l-15.1,39.6   h-6.3l-15.4-40.3l-0.2,0.1v40.2H191v-55h12.1l15.8,42.3h0.2l15.9-42.3h11.7V380.4z M295.6,380.4h-34.9v-55h9.2v47.7h25.8V380.4z" id="XMLID_533_"/><path class="st0" d="M352.9,6L352.9,6L107.4,6c-7.3,0-13.3,6-13.3,13.3v256.8h26.6V32.6h232.2v92.2h92.2v354.6   H120.7v-49.8H94.1v63.1c0,7.3,6,13.3,13.3,13.3h351c7.3,0,13.3-6,13.3-13.3V124.8L352.9,6z" id="XMLID_532_"/><rect class="st0" height="19.6" id="XMLID_531_" width="253.4" x="156.2" y="171.4"/><rect class="st0" height="19.6" id="XMLID_530_" width="213.3" x="156.2" y="209.5"/></g></svg>