<svg id="Layer_1" data-name="Layer 1" xmlns="http://www.w3.org/2000/svg" viewBox="0 0 63.61 89.78"><defs><style>.cls-1{fill:#e54f26;}</style></defs><path class="cls-1" d="M934.58,495.53h4v4h3.7v-4h4v12.11h-4v-4.06h-3.7v4.06h-4V495.53Z" transform="translate(-928.66 -495.53)"/><path class="cls-1" d="M951.69,499.55h-3.56v-4H959.3v4h-3.56v8.09h-4v-8.09Z" transform="translate(-928.66 -495.53)"/><path class="cls-1" d="M961.08,495.53h4.22l2.59,4.25,2.6-4.25h4.22v12.11h-4v-6l-2.79,4.3h-.07l-2.78-4.3v6h-4Z" transform="translate(-928.66 -495.53)"/><path class="cls-1" d="M976.72,495.53h4v8.11h5.69v4h-9.74Z" transform="translate(-928.66 -495.53)"/><path class="cls-1" d="M928.66,513.18l5.79,64.92,26,7.22,26.05-7.23,5.8-64.91Zm51.53,15.4-.36,4-.16,1.79H949.2l.72,8.16h29l-.19,2.13-1.87,21-.12,1.34-16.3,4.52h0L944.11,567,943,554.51h8l.57,6.35,8.87,2.4h0l8.89-2.39.92-10.33h-27.6l-2-21.95-.19-2.13h39.89Z" transform="translate(-928.66 -495.53)"/></svg>