<svg id="Layer_1" data-name="Layer 1" xmlns="http://www.w3.org/2000/svg" viewBox="0 0 65.42 92.34"><defs><style>.cls-1{fill:#0c73b8;}</style></defs><g id="g3013"><path id="path2999" class="cls-1" d="M943.15,494.25h9.92v4.15H947.3v4.15h5.77v4.15h-9.92Z" transform="translate(-927.75 -494.25)"/><path id="path3001" class="cls-1" d="M955.05,494.25H965v3.61H959.2v.72H965v8.3h-9.92v-3.79h5.77v-.72h-5.77Z" transform="translate(-927.75 -494.25)"/><path id="path3003" class="cls-1" d="M967,494.25h9.92v3.61H971.1v.72h5.77v8.3H967v-3.79h5.78v-.72H967Z" transform="translate(-927.75 -494.25)"/><path class="cls-1" d="M927.75,512.4l6,66.78,26.71,7.41,26.79-7.42,6-66.77Zm51.72,30.23-.2,2.2-1.92,21.56-.13,1.38-16.76,4.65h0l-16.77-4.66-1.15-12.86h8.22l.58,6.53,9.13,2.47h0l9.14-2.46.95-10.62H942.13l-.73-8.19h29.83l.74-8.39h-31.3l-.74-8.19h41Z" transform="translate(-927.75 -494.25)"/></g></svg>