<svg id="Layer_1" data-name="Layer 1" xmlns="http://www.w3.org/2000/svg" viewBox="0 0 65.08 91.61"><defs><style>.cls-1{fill:#e7a020;}</style></defs><path class="cls-1" d="M960.46,512.57H927.92l6.1,66.16,26.44,7.5,26.43-7.5L993,512.57Zm16.66,54.9-16.66,4.73-16.65-4.73-1.18-12.68h8.23l.54,6.35,9.06,2.61,8.93-2.58.91-10.47h-28l-.05.15,2.29-24.77H977.5l1.81,13H971l-.31-4.74H951.24l-.37,8.29h28.54Z" transform="translate(-927.92 -494.62)"/><polygon class="cls-1" points="26.21 8.2 20.42 8.2 20.42 12.35 26.21 12.35 29.31 12.35 30.36 12.35 30.36 0 26.21 0 26.21 8.2"/><path class="cls-1" d="M972.58,494.68H962.49V499c1.35,1.35,2,2,4,3.95h-4v4h10.09v-4l-4-3.95h4Z" transform="translate(-927.92 -494.62)"/></svg>