<svg id="visual" viewBox="0 0 1080 600" width="1080" height="600" xmlns="http://www.w3.org/2000/svg" xmlns:xlink="http://www.w3.org/1999/xlink" version="1.1"><rect x="0" y="0" width="1080" height="600" fill="#ffffff"></rect><path d="M0 193L60 198C120 203 240 213 360 212.2C480 211.3 600 199.7 720 195.7C840 191.7 960 195.3 1020 197.2L1080 199L1080 0L1020 0C960 0 840 0 720 0C600 0 480 0 360 0C240 0 120 0 60 0L0 0Z" fill="#715df2"></path><path d="M0 177L60 169.2C120 161.3 240 145.7 360 138.3C480 131 600 132 720 141.2C840 150.3 960 167.7 1020 176.3L1080 185L1080 0L1020 0C960 0 840 0 720 0C600 0 480 0 360 0C240 0 120 0 60 0L0 0Z" fill="#6c50f6"></path><path d="M0 161L60 148.8C120 136.7 240 112.3 360 104.7C480 97 600 106 720 113.7C840 121.3 960 127.7 1020 130.8L1080 134L1080 0L1020 0C960 0 840 0 720 0C600 0 480 0 360 0C240 0 120 0 60 0L0 0Z" fill="#6940fa"></path><path d="M0 116L60 107.5C120 99 240 82 360 77C480 72 600 79 720 86.8C840 94.7 960 103.3 1020 107.7L1080 112L1080 0L1020 0C960 0 840 0 720 0C600 0 480 0 360 0C240 0 120 0 60 0L0 0Z" fill="#672bfd"></path><path d="M0 53L60 54.7C120 56.3 240 59.7 360 56.2C480 52.7 600 42.3 720 38.2C840 34 960 36 1020 37L1080 38L1080 0L1020 0C960 0 840 0 720 0C600 0 480 0 360 0C240 0 120 0 60 0L0 0Z" fill="#6600ff"></path></svg>