<?xml version="1.0" encoding="utf-8"?>
<!-- Generator: Adobe Illustrator 24.0.2, SVG Export Plug-In . SVG Version: 6.00 Build 0)  -->
<svg version="1.1" id="Capa_1" xmlns="http://www.w3.org/2000/svg" xmlns:xlink="http://www.w3.org/1999/xlink" x="0px" y="0px"
	 viewBox="0 0 1083.8 569.1" style="enable-background:new 0 0 1083.8 569.1;" xml:space="preserve">
<style type="text/css">
	.st0{fill:#31326F;}
</style>
<g>
	<path class="st0" d="M578.6,38.9h102.3v497.9H578.6V38.9z"/>
	<path class="st0" d="M536.7,490.9l-50.9-119.7l0,0l-50.9-119.8l0,0L384,131.6l0,0l-21.9-51.4l0.9-2.1c2.1-4.8,2.1-10.2,0.2-15
		c-1.9-4.9-5.7-8.7-10.5-10.7L232.9,1.6c-4.8-2-10.2-2.1-15-0.2c-4.8,2-8.6,5.7-10.7,10.5L3.5,490.9c-2,4.8-2.1,10.1-0.1,15
		s5.7,8.7,10.5,10.7l119.7,50.9c2.4,1.1,5.1,1.6,7.7,1.6c2.5,0,4.9-0.5,7.4-1.4c4.8-2,8.6-5.7,10.6-10.5l110.9-260.6l9,21.1l0,0
		L330,437.4l0,0l51,119.7c3.1,7.2,10.1,11.9,18,11.9c2.7,0,5.3-0.5,7.7-1.6l119.7-50.9c4.8-2,8.6-5.9,10.5-10.7
		C538.8,501.1,538.8,495.7,536.7,490.9z M409.3,523.8l-35.6-83.7l83.7-35.6l35.6,83.7L409.3,523.8z M399.1,287.9l7.4-3.2l35.6,83.7
		L358.4,404l-35.6-83.7L399.1,287.9z M296,235.7l23.6-55.4l31.9-13.6l4.1-1.8l35.6,83.7l-83.7,35.6l-16.1-37.8L296,235.7z"/>
	<path class="st0" d="M934.7,551.9c-53.6,0-97-16-130.1-48s-49.7-73.6-49.7-124.8v-9c0-35.7,6.6-67.3,19.9-94.6s32.6-48.5,58-63.5
		s55.5-22.4,90.4-22.4c49.1,0,87.8,15.2,116.3,45.7c28.4,30.5,42.6,72.9,42.6,127.4V405H865.6c3.9,19.6,12.4,35,25.5,46.2
		s30.1,16.8,51,16.8c34.4,0,61.4-12,80.7-36.2l49.7,58.8c-13.6,18.7-32.8,33.6-57.6,44.7C990.1,546.4,963.3,551.9,934.7,551.9z
		 M922.4,273.5c-31.9,0-50.8,21.1-56.8,63.3h109.8v-8.4c0.4-17.4-4-30.9-13.2-40.5C952.9,278.3,939.6,273.5,922.4,273.5z"/>
</g>
</svg>
