<?xml version="1.0" encoding="utf-8"?>
<!-- Generator: Adobe Illustrator 24.0.2, SVG Export Plug-In . SVG Version: 6.00 Build 0)  -->
<svg version="1.1" id="Capa_1" xmlns="http://www.w3.org/2000/svg" xmlns:xlink="http://www.w3.org/1999/xlink" x="0px" y="0px"
	 viewBox="0 0 604 95" style="enable-background:new 0 0 604 95;" xml:space="preserve">
<style type="text/css">
	.st0{fill:#272B33;}
	.st1{fill:#282C34;}
	.st2{fill:#292D35;}
	.st3{fill:#2C3038;}
	.st4{fill:#2B2F36;}
	.st5{fill:#2A2D35;}
	.st6{fill:#FBFBFB;}
	.st7{fill:#54B69A;}
	.st8{fill:#FDFDFD;}
	.st9{fill:#54B79C;}
	.st10{fill:#F9F9F9;}
</style>
<path class="st0" d="M57,0.1c8.7,2.3,16.9,5.5,23.8,11.5c16.4,14.3,21.1,38.1,11.1,57C81.5,88.1,59,98,37.4,92.6
	C16,87.1,1.5,67.6,2.1,44.8C2.6,23.9,18.6,5.4,39.8,1c0.8-0.2,1.5-0.6,2.2-0.9C47,0.1,52,0.1,57,0.1z"/>
<path class="st0" d="M164.5,40.6c-4.8-0.3-9.2,1.3-13-3.3c-2.4-3-8-1.6-10.7,1.5c-3.2,3.8-3.3,12.4-0.1,16.2
	c2.5,3.1,8.1,4.6,10.6,1.7c3.8-4.3,8.2-3,12.6-3.3c-1.1,7.7-8.3,12.9-17.3,12.7c-9.9-0.3-17.1-6.9-17.8-16.4
	c-0.9-11.6,4.3-19.4,14.5-21.4C153.2,26.3,161.3,30.8,164.5,40.6z"/>
<path class="st0" d="M473.2,53.5c-2.8,8.6-9.2,12.9-17.8,12.6c-8.6-0.3-15.2-5.2-17.1-13.1c-1.8-7.5-1-14.5,4.7-20.1
	c5.5-5.3,12.3-6.1,19.5-4c4.9,1.4,8.4,4.6,10.3,9.3c0.3,0.8,1,2.4-0.4,2.2c-3.5-0.3-7.6,2-10.5-2c-0.4-0.5-0.9-1-1.5-1.3
	c-3.8-1.9-7.4-1.7-10.5,1.4c-3.7,3.8-3.7,13.1-0.1,17c2.5,2.8,8,3.9,10.3,1.2C463.9,52.2,468.4,53.7,473.2,53.5z"/>
<path class="st1" d="M540.4,47c0-2.3,0-4.6,0-6.9c0-1.7,0.5-3.4-2.4-3.9c-2.1-0.4-2.5-7-0.6-7.2c4.1-0.5,3.1-3.3,2.9-5.4
	c-0.5-4.4,2.1-4.2,5.1-4.2c3-0.1,5.4,0.1,4.6,4.1c-0.8,4.3,0.9,6.1,5.3,5.3c3.4-0.6,3.2,1.7,3.2,3.9c0.1,2.4-0.2,4.4-3.4,3.8
	c-4.7-0.9-5.5,1.4-5.2,5.4c0.3,3.7,0.2,7.5,0,11.3c-0.1,3.1,1.2,4.8,4.4,4.4c3.7-0.5,4.2,1.2,4.4,4.5c0.2,4.2-2.3,3.5-4.8,3.5
	c-10.5,0-13.5-2.9-13.6-13.5C540.4,50.3,540.4,48.6,540.4,47z"/>
<path class="st1" d="M371.6,50.8c0-3.1,0.1-6.2,0-9.3c-0.1-2.2,1.3-5-2.9-5.4c-1.6-0.1-1.6-7.1-0.1-7.2c4.1-0.2,3-3.2,3.4-5.3
	c1.1-5.9,4.2-9,10.2-9.6c1.5-0.1,4.2-1.6,4.2,1.3c0,2.1,2.1,5.4-2,6.5c-2.1,0.5-2.9,1.9-3.1,4c-0.1,1.6,0,3.1,2.2,2.8
	c3.2-0.5,3.9,0.9,3.8,3.8c-0.1,2.8-0.5,4.5-3.8,4c-2.7-0.4-2.3,1.6-2.3,3.2c0,7.5-0.2,15.1,0.1,22.6c0.2,4.4-2.7,3.1-4.9,3.2
	c-2.3,0-5.2,1-4.9-3.3C371.9,58.4,371.6,54.6,371.6,50.8z"/>
<path class="st2" d="M500.1,40.6c0-7.1,0.3-14.2-0.1-21.2c-0.2-4.3,2.4-3.4,4.7-3.4c2.5,0,5.2-0.9,5.1,3.6
	c-0.3,14.1-0.2,28.3,0,42.4c0.1,4.7-3,3.2-5.3,3.4c-2.6,0.2-4.8,0.4-4.5-3.6C500.4,54.8,500.1,47.7,500.1,40.6z"/>
<path class="st2" d="M261.6,46.6c0-4.9,0.2-9.9-0.1-14.8c-0.3-3.9,2.2-3.3,4.4-3.1c2.3,0.2,5.5-1.5,5.4,3.3
	c-0.2,10.2-0.1,20.4,0,30.6c0,4.9-3.7,2.5-5.8,2.9c-2.1,0.4-4.2,0.6-4-3C261.8,57.1,261.6,51.8,261.6,46.6z"/>
<path class="st2" d="M480.4,47c0-4.9,0.3-9.9-0.1-14.8c-0.4-4.5,2.6-3.6,5.1-3.6c2.3,0,4.9-0.9,4.8,3.4c-0.3,10-0.3,20.1,0,30.1
	c0.1,4.3-2.4,3.4-4.7,3.4c-2.5,0-5.5,0.9-5.1-3.6C480.7,56.9,480.4,51.9,480.4,47z"/>
<path class="st0" d="M529.3,47.5c0,4.9-0.2,9.9,0.1,14.8c0.2,4.5-2.9,2.9-5,3.1c-2.2,0.1-4.6,0.8-4.5-3.1c0.2-10.2,0.2-20.4,0-30.6
	c-0.1-4.5,2.9-2.9,5-3.1c2.2-0.1,4.7-0.8,4.5,3.1C529.1,37,529.3,42.2,529.3,47.5z"/>
<path class="st3" d="M180.5,25.8c-0.6-7.1,2.4-9.8,14.8-13.7c1.7,4.9,0.2,7.9-4.9,9.4C187.2,22.5,184.1,24.2,180.5,25.8z"/>
<path class="st4" d="M266.3,13.3c3.6,0.3,5.7,2.2,5.8,5.6c0.1,3.6-2,5.9-5.7,5.9c-3.5,0-5.6-2.1-5.7-5.5
	C260.5,15.6,262.8,13.8,266.3,13.3z"/>
<path class="st5" d="M491.1,18.8c-0.3,3.5-2,5.8-5.5,5.9c-3.8,0.2-6-2.1-6-5.7c0-3.5,2.1-5.6,5.6-5.6
	C488.8,13.4,490.7,15.5,491.1,18.8z"/>
<path class="st2" d="M530.3,19.4c-0.3,3.2-2,5.4-5.6,5.4c-3.8,0-5.8-2.2-5.8-5.9c0.1-3.6,2.4-5.5,5.8-5.4
	C528.1,13.5,530.2,15.5,530.3,19.4z"/>
<path class="st6" d="M49.5,37.4c-5.6,0-11.3,0-16.9,0c-3.3,0-6.3-0.9-6.4-4.7c-0.1-3.7,2.7-4.9,6.1-4.9c11.5,0,22.9,0,34.4,0
	c3.4,0,6.2,1.1,6.1,4.9c-0.1,3.8-3,4.7-6.3,4.6C60.8,37.4,55.1,37.4,49.5,37.4z"/>
<path class="st7" d="M58.7,66.1c-3.1,0-6.3,0.2-9.4-0.1c-2.7-0.2-4.8-1.7-4.9-4.6c0-2.9,2-4.6,4.7-4.7c6.3-0.2,12.6-0.2,18.8,0
	c2.8,0.1,4.8,1.8,4.8,4.6c0,3.1-2.2,4.7-5.2,4.8C64.7,66.2,61.7,66.1,58.7,66.1C58.7,66.1,58.7,66.1,58.7,66.1z"/>
<path class="st8" d="M38.2,51.6c-2.5,0-5,0.1-7.5,0c-3-0.1-4.7-1.8-4.6-4.7c0.1-2.6,1.7-4.3,4.4-4.4c5.3-0.1,10.6-0.1,15.9,0
	c2.8,0.1,4.3,1.8,4.4,4.4c0.1,2.6-1.5,4.4-4.2,4.6C43.9,51.7,41,51.5,38.2,51.6C38.2,51.6,38.2,51.6,38.2,51.6z"/>
<path class="st9" d="M64.3,42.5c1.2,0,2.3,0,3.5,0c3-0.1,4.8,1.5,5,4.3c0.1,3.1-1.7,4.8-4.9,4.8c-2.3,0-4.6,0-6.9,0
	c-3.3,0-5.7-1.4-5.6-4.8c0.1-3.1,2.4-4.4,5.5-4.3C62,42.5,63.2,42.5,64.3,42.5z"/>
<path class="st10" d="M33.2,66.1c-3.5,0-7.1-0.5-7-4.9c0.1-4,3.4-4.6,6.8-4.6c3.6,0,7,0.5,7,4.9C39.9,65.7,36.5,66.1,33.2,66.1z"/>
<path class="st0" d="M582.5,27.9c-11,0-19.2,8.1-19.3,19c-0.1,11,7.9,19.1,18.9,19.3c11.2,0.2,19.6-7.9,19.7-19
	C602,36,593.8,27.8,582.5,27.9z M582.4,58c-5.6-0.1-9.4-4.7-9.4-11.1c0-6.4,4-11,9.5-11c5.8,0,9.6,4.5,9.6,11.4
	C592,53.7,588,58.2,582.4,58z"/>
<path class="st0" d="M188.4,27.9c-11,0-19.2,8-19.3,18.9c-0.1,11.2,8.1,19.4,19.4,19.3c11.1-0.1,19.1-8,19.2-18.9
	C207.8,35.9,199.7,27.8,188.4,27.9z M188.2,58.1c-5.4-0.1-9.4-4.8-9.4-11.2c0.1-6.4,4.1-11,9.6-11c5.6,0,9.5,4.5,9.6,10.9
	C198,53.6,194.1,58.1,188.2,58.1z"/>
<g>
	<path class="st1" d="M316,28.5c-4.1-1-7.5,0.5-8.7,4.2c-7.8-6.5-17.1-6.4-23.6,0.3c-7.1,7.3-7,20.7,0.1,27.9
		c6.6,6.7,15.4,6.7,24.1-0.6c0,2.5,0.1,4.2,0,6c-0.7,7.2-5.4,10.5-12.4,8.8c-2-0.5-3.7-1.5-5-3.1c-2.7-3.4-7.3-2.6-9.4-1.2
		c-2.3,1.5,0.3,5.1,2.1,7c5.5,5.9,12.7,6.7,20.2,5.5c7.8-1.2,13.4-6.9,13.7-14.7c0.4-12.5,0.2-25,0.2-37.5
		C317.5,30,317.7,29,316,28.5z M298.2,57.8c-5.7,0-9.8-4.5-9.8-10.8c0-6.4,4-10.7,9.8-10.7c5.7,0,9.9,4.5,9.9,10.7
		C308.1,53,303.8,57.8,298.2,57.8z"/>
	<path class="st1" d="M251.7,20.7c0.1-3.9-1.1-4.7-4.9-4.9c-4.2-0.1-5,1.5-4.8,5.1c0.3,3.8,0.1,7.7,0.1,12
		c-9.5-6.8-18.8-6.3-24.9,0.9c-6.4,7.4-6,20.2,0.8,27.2c6.5,6.7,15.3,6.8,24.1-0.4c-0.7,6.9,4,4.6,6.9,4.8c4.4,0.4,2.6-3,2.6-4.8
		C251.7,47.3,251.4,34,251.7,20.7z M232.2,57.8c-5.7,0-9.8-4.5-9.8-10.8c0-6.3,4-10.7,9.8-10.7c5.8,0,9.8,4.4,9.8,10.7
		C242,53.2,237.9,57.8,232.2,57.8z"/>
	<path class="st1" d="M430,33.7c0-1.8,1.8-5.3-2.4-5c-3,0.2-7.8-2.6-7.5,4.1c-8.5-6.5-17.1-6.4-23.6,0c-6.7,6.7-7.4,19.2-1.5,26.7
		c3.1,4,7.3,6.1,12.4,6.5c5.1,0.5,9-1.9,13.1-5.9c-1.4,6.9,3.1,4.9,6,5.3c4.2,0.6,3.5-2.2,3.5-4.6C430.1,51.8,430.2,42.7,430,33.7z
		 M410.4,57.8c-5.7-0.1-9.8-4.8-9.7-11c0.1-6.2,4.3-10.6,10.1-10.5c5.8,0.1,9.6,4.5,9.6,10.9C420.3,53.5,416.1,57.9,410.4,57.8z"/>
	<path class="st1" d="M344.2,27.9c-11.2,0-19,7.9-19,19c0,11.2,7.6,19.1,18.8,19.3c11.3,0.2,19.5-7.8,19.6-19
		C363.6,35.7,355.6,27.8,344.2,27.9z M344.4,58c-5.5,0.1-9.6-4.5-9.7-10.9c-0.1-6.4,3.8-11.1,9.3-11.3c5.7-0.2,10,4.7,10,11.1
		C353.9,53.4,350,57.9,344.4,58z"/>
</g>
</svg>
