<svg version="1.1" id="Capa_1" xmlns="http://www.w3.org/2000/svg" xmlns:xlink="http://www.w3.org/1999/xlink" x="0px" y="0px" viewBox="0 0 219 34" style="enable-background:new 0 0 219 34;" xml:space="preserve">
<style type="text/css">
	.st0-white-logo{fill:#FFFFFF;}
	.st1-white-logo{fill:#051626;}
</style>
<path class="st0-white-logo" d="M17.3,0C12.5,0,8.4,1.6,5.1,4.9S0,12,0,16.6s1.7,8.5,5.1,11.7s7.4,4.9,12.2,4.9c4.7,0,8.8-1.6,12.2-4.9
	c3.4-3.2,5.1-7.2,5.1-11.7s-1.7-8.5-5.1-11.7C26.1,1.6,22,0,17.3,0z"></path>
<path class="st0-white-logo" d="M48,11.7c-1.2,1.2-1.8,2.9-1.8,4.9c0,2.1,0.6,3.7,1.8,4.9c1.2,1.2,2.9,1.8,4.9,1.8c1.6,0,3-0.4,4.1-1.2
	c1.1-0.8,1.9-1.9,2.3-3.3h-3.7c-0.5,1.1-1.3,1.6-2.6,1.6c-1,0-1.8-0.3-2.4-1c-0.6-0.7-0.9-1.7-0.9-2.9c0-1.2,0.3-2.2,0.9-2.9
	c0.6-0.7,1.4-1.1,2.4-1.1c1.3,0,2.2,0.5,2.6,1.6h3.7C58.8,12.8,58,11.7,57,11c-1.1-0.8-2.5-1.2-4.1-1.2C50.8,9.8,49.2,10.4,48,11.7z
	"></path>
<path class="st0-white-logo" d="M62.9,11.7c-1.3,1.2-2,2.9-2,4.9c0,2,0.7,3.6,2,4.9c1.3,1.2,3,1.9,5,1.9c2,0,3.7-0.6,5-1.9c1.3-1.2,2-2.9,2-4.9
	c0-2-0.7-3.6-2-4.9c-1.3-1.2-3-1.9-5-1.9C65.9,9.8,64.2,10.4,62.9,11.7z M64.4,16.6c0-1.3,0.3-2.2,1-2.9c0.7-0.7,1.5-1,2.5-1
	c0.9,0,1.8,0.3,2.5,1c0.7,0.7,1,1.6,1,2.9c0,1.2-0.3,2.2-1,2.9c-0.7,0.7-1.5,1-2.5,1c-1,0-1.8-0.3-2.4-1
	C64.7,18.8,64.4,17.8,64.4,16.6z M70.5,6.6V3.9l-5.6,2.8v2.3L70.5,6.6z"></path>
<path class="st0-white-logo" d="M90.8,5.6h-3.4V12c-1-1.5-2.4-2.2-4.3-2.2c-1.9,0-3.4,0.6-4.6,1.9c-1.2,1.3-1.8,2.9-1.8,4.8
	c0,1.9,0.6,3.6,1.8,4.9c1.2,1.3,2.8,1.9,4.6,1.9c1.8,0,3.3-0.8,4.3-2.4v2.2h3.4V5.6z M81.2,19.4c-0.7-0.7-1.1-1.7-1.1-2.8
	s0.4-2.1,1.1-2.8c0.7-0.7,1.5-1,2.5-1c1,0,1.8,0.3,2.6,1c0.7,0.7,1.1,1.6,1.1,2.8c0,1.2-0.4,2.1-1.1,2.8c-0.7,0.7-1.6,1-2.5,1
	C82.8,20.4,82,20.1,81.2,19.4z"></path>
<path class="st0-white-logo" d="M98.3,6.7c0-0.5-0.2-1-0.6-1.4c-0.4-0.4-0.9-0.6-1.5-0.6c-0.5,0-1,0.2-1.5,0.6c-0.4,0.4-0.6,0.9-0.6,1.4
	c0,0.6,0.2,1,0.6,1.4c0.5,0.4,0.9,0.6,1.5,0.6c0.5,0,1-0.2,1.5-0.6C98.1,7.7,98.3,7.2,98.3,6.7z M97.9,10h-3.5v13.1h3.5V10z"></path>
<path class="st0-white-logo" d="M102.4,11.7c-1.2,1.3-1.8,2.9-1.8,4.8c0,1.9,0.6,3.6,1.8,4.9c1.2,1.3,2.8,1.9,4.6,1.9c1.8,0,3.3-0.8,4.3-2.4
	v2.3c0,1.2-0.3,2.1-0.9,2.6c-0.6,0.6-1.4,0.9-2.3,0.9c-0.9,0-1.7-0.2-2.3-0.5c-0.6-0.3-1-0.8-1.2-1.4h-3.4c0.2,1.5,0.9,2.7,2.1,3.5
	c1.2,0.8,2.9,1.2,4.9,1.2c2.1,0,3.7-0.6,4.8-1.8c1.2-1.2,1.7-2.7,1.7-4.6V10h-3.4v2c-1-1.5-2.4-2.2-4.3-2.2
	C105.2,9.8,103.7,10.4,102.4,11.7z M104.2,16.5c0-1.2,0.4-2.1,1.1-2.8c0.7-0.7,1.5-1,2.5-1c1,0,1.8,0.3,2.5,1
	c0.7,0.7,1.1,1.6,1.1,2.8c0,1.2-0.4,2.1-1.1,2.8c-0.7,0.7-1.6,1-2.5,1c-0.9,0-1.8-0.3-2.5-1C104.5,18.7,104.2,17.7,104.2,16.5z"></path>
<path class="st0-white-logo" d="M119.5,11.7c-1.3,1.2-2,2.8-2,4.9s0.7,3.7,2,4.9c1.3,1.2,2.9,1.9,5,1.9c2,0,3.7-0.6,5-1.9c1.3-1.2,2-2.9,2-4.9
	s-0.7-3.6-2-4.9c-1.4-1.2-3.1-1.9-5-1.9C122.6,9.8,120.9,10.4,119.5,11.7z M128,16.5c0,1.2-0.4,2.2-1.1,2.9c-0.7,0.7-1.5,1-2.5,1
	c-1,0-1.8-0.3-2.4-1c-0.7-0.7-1-1.6-1-2.9c0-1.3,0.3-2.2,1-2.9c0.7-0.7,1.5-1,2.5-1c0.9,0,1.8,0.3,2.5,1
	C127.7,14.3,128,15.3,128,16.5z"></path>
<path class="st0-white-logo" d="M139.9,4.7c-1.9,0-3.2,0.4-4.1,1.1c-0.9,0.7-1.3,1.9-1.3,3.4V10H133v2.7h1.5v10.4h3.4V12.7h2.2V10h-2.2V9.3
	c0-0.6,0.2-1.1,0.5-1.3c0.3-0.3,0.8-0.4,1.5-0.4V4.7z"></path>
<path class="st0-white-logo" d="M143.4,11.7c-1.2,1.2-1.8,2.8-1.8,4.8c0,2,0.6,3.6,1.8,4.9c1.2,1.3,2.8,1.9,4.6,1.9c1.8,0,3.3-0.8,4.3-2.4v2.2
	h3.4V10h-3.4v2c-1-1.5-2.4-2.2-4.3-2.2C146.1,9.8,144.5,10.4,143.4,11.7z M148.6,12.7c1,0,1.8,0.3,2.6,1c0.7,0.7,1.1,1.6,1.1,2.8
	c0,1.2-0.4,2.1-1.1,2.8c-0.7,0.7-1.6,1-2.5,1c-0.9,0-1.8-0.3-2.5-1c-0.7-0.7-1.1-1.7-1.1-2.8c0-1.2,0.4-2.1,1.1-2.8
	C146.8,13,147.6,12.7,148.6,12.7z"></path>
<path class="st0-white-logo" d="M162.2,19.2c-0.6-0.7-0.9-1.7-0.9-2.9c0-1.2,0.3-2.2,0.9-2.9c0.6-0.7,1.4-1.1,2.4-1.1c1.3,0,2.2,0.5,2.6,1.6
	h3.7c-0.4-1.4-1.1-2.5-2.2-3.3c-1.1-0.8-2.5-1.2-4.1-1.2c-2,0-3.6,0.6-4.9,1.9c-1.2,1.2-1.8,2.9-1.8,4.9s0.6,3.7,1.8,4.9
	c1.2,1.2,2.9,1.8,4.9,1.8c1.6,0,3-0.4,4.1-1.2c1.1-0.8,1.9-1.9,2.3-3.3h-3.7c-0.5,1.1-1.3,1.6-2.6,1.6
	C163.5,20.2,162.7,19.9,162.2,19.2z"></path>
<path class="st0-white-logo" d="M177.5,10H174v13.1h3.5V10z M177.3,5.2c-0.4-0.4-0.9-0.6-1.5-0.6c-0.5,0-1,0.2-1.5,0.6
	c-0.4,0.4-0.6,0.9-0.6,1.4c0,0.6,0.2,1.1,0.6,1.4c0.5,0.4,0.9,0.6,1.5,0.6c0.5,0,1.1-0.2,1.5-0.6c0.4-0.4,0.6-0.9,0.6-1.4
	C177.9,6.1,177.7,5.6,177.3,5.2z"></path>
<path class="st0-white-logo" d="M184.7,5.6h-3.5v17.5h3.5V5.6z"></path>
<path class="st0-white-logo" d="M191.8,10h-3.5v13.1h3.5V10z M190.1,4.6c-0.6,0-1.1,0.2-1.5,0.6c-0.4,0.4-0.6,0.9-0.6,1.4
	c0,0.6,0.2,1.1,0.6,1.4c0.4,0.4,0.9,0.6,1.5,0.6c0.6,0,1.1-0.2,1.5-0.6c0.4-0.4,0.6-0.9,0.6-1.4c0-0.6-0.2-1-0.6-1.4
	C191.1,4.8,190.7,4.6,190.1,4.6z"></path>
<path class="st0-white-logo" d="M195.9,12.7v6.4c0,1.4,0.4,2.4,1.1,3.1c0.8,0.6,1.9,0.9,3.2,0.9h2.2v-2.8h-1.6c-0.5,0-0.9-0.1-1.1-0.3
	c-0.2-0.2-0.3-0.5-0.3-0.9v-6.4h3.1V10h-3.1V6.8h-3.5V10h-1.4v2.7H195.9z"></path>
<path class="st0-white-logo" d="M206.2,11.7c-1.3,1.2-2,2.8-2,4.9s0.7,3.7,2,4.9c1.3,1.2,3,1.9,5,1.9c2,0,3.7-0.6,5-1.9c1.4-1.3,2-2.9,2-4.9
	s-0.7-3.6-2-4.9c-1.4-1.2-3-1.9-5-1.9C209.2,9.8,207.5,10.4,206.2,11.7z M208.7,19.4c-0.7-0.7-1-1.6-1-2.9c0-1.3,0.3-2.2,1-2.9
	c0.7-0.7,1.5-1,2.5-1c0.9,0,1.8,0.3,2.5,1c0.7,0.7,1,1.7,1,2.9c0,1.3-0.4,2.2-1.1,2.9c-0.7,0.7-1.5,1-2.5,1
	C210.2,20.5,209.4,20.1,208.7,19.4z"></path>
<path class="st1-white-logo" d="M9.9,10h14.7c0.8,0,1.5,0.7,1.5,1.5l0,0c0,0.8-0.7,1.5-1.5,1.5H9.9c-0.8,0-1.5-0.7-1.5-1.5l0,0
	C8.4,10.7,9,10,9.9,10z"></path>
<path class="st1-white-logo" d="M9.9,15h5.3c0.8,0,1.5,0.7,1.5,1.5l0,0c0,0.8-0.7,1.5-1.5,1.5H9.9c-0.8,0-1.5-0.7-1.5-1.5l0,0
	C8.4,15.7,9,15,9.9,15z"></path>
<path class="st1-white-logo" d="M19.3,15h5.3c0.8,0,1.5,0.7,1.5,1.5l0,0c0,0.8-0.7,1.5-1.5,1.5h-5.3c-0.8,0-1.5-0.7-1.5-1.5l0,0
	C17.8,15.7,18.5,15,19.3,15z"></path>
<path class="st1-white-logo" d="M9.9,20h2.9c0.8,0,1.5,0.7,1.5,1.5l0,0c0,0.8-0.7,1.5-1.5,1.5H9.9c-0.8,0-1.5-0.7-1.5-1.5l0,0
	C8.4,20.7,9,20,9.9,20z"></path>
<path class="st1-white-logo" d="M16.9,20h7.6c0.8,0,1.5,0.7,1.5,1.5l0,0c0,0.8-0.7,1.5-1.5,1.5h-7.6c-0.8,0-1.5-0.7-1.5-1.5l0,0
	C15.4,20.7,16.1,20,16.9,20z"></path>
</svg>