<svg height="512" viewBox="0 0 58 58" width="512" xmlns="http://www.w3.org/2000/svg"><g id="032---Improved-Mental-Health" fill="none" transform="translate(-1)"><path id="Shape" d="m46.14 36.71c-1.2717059 2.9241677-1.7477888 6.1325525-1.38 9.3.418 3.442 1.23 7.489 3.18 10.38.1970212.312775.2115154.7070921.0379887 1.0334876-.1735268.3263956-.5085148.534912-.8779887.5465124h-22.61c-.43359.0156841-.8251719-.2576074-.96-.67-.764-2.5-2.316-5.848-4.64-6.96-.03-.01-.05-.03-.08-.04-2.8490329 1.0371788-5.7535125 1.9151997-8.7 2.63-1.42829941.3054033-2.84225874-.5739027-3.2-1.99-.865-2.456.314-3.137-.05-4.61-.26-1.01-1.23-1.26-1.98-1.8-.62-.44.49-1.85.49-1.85s-1.17-.88-1.6-1.25c-.673-.586 1.281-1.858.92-3.77-.2-1.07-1.83-1.48-2.63-2.07-1.239-.937-1.615-1.341.09-3.42 1.73820276-2.2487328 3.22693831-4.6796636 4.44-7.25.16449211-.2694045.26061668-.5749433.28-.89-.01-1.43-2.08-2.02-2.27-3.41-.161-1.071 1.233-3.023 1.69-4.97.23804444-1.185596.55202463-2.3546712.94-3.5.83859812-2.30033243 2.13083757-4.40872311 3.8-6.2 2.44-2.59 6.05-3.87 9.46-4.55 7.9-1.609 13.866-2.442 20.67.98l11.83 18.42c.21 8.79-4.517 10.6-6.85 15.91z" fill="#fdd7ad"/><path id="Shape" d="m28 45.71c.06 2.48-2.08 4.43-6.35 5.79-.19.06-.51.17-.92.32-1.651-1.931-2.414-1.247-1.34-1.65 2.278-.8 6.657-1.984 6.61-4.42-.0110457-.5522847.4277153-1.0089543.98-1.02s1.0089543.4277153 1.02.98z" fill="#f9c795"/><path id="Shape" d="m37.72 7.1c-12.583-6.174-25.72 2.548-25.72 11.4 0 7.706 9.3 8.5 16.99 8.5 2.2114453-.0016591 4.0061374 1.7885575 4.01 4-.0013301 1.0566314.4755731 2.0571094 1.297242 2.7214375.821669.664328 1.8998344.9211396 2.932758.6985625 1.6393628-.3709651 2.7949001-1.8393735 2.77-3.52v-1.47c.0052631-1.9314814 1.1225342-3.687193 2.87-4.51 1.4520776-.6128515 2.6637297-1.6840222 3.45-3.05z" fill="#c03a2b"/><path id="Shape" d="m36.722 7.1c-11.113-6.172-22.722 2.542-22.722 11.4 0 7.428 7.562 8.5 15.01 8.5 2.0784858.13503 3.6594734 1.9204481 3.542 4 0 2.17 1.75 3.89 3.737 3.42 1.5232857-.4777225 2.530276-1.9256824 2.448-3.52v-1.47c-.0413626-1.8533035.9302748-3.5819366 2.535-4.51 1.323272-.6544987 2.3943694-1.7262989 3.048-3.05z" fill="#e64c3c"/><circle id="Oval" cx="48" cy="11" fill="#4fba6f" r="11"/><g fill="#fff"><path id="Shape" d="m33 15v2c0 .5522847-.4477153 1-1 1h-2.5c-.2761424 0-.5.2238576-.5.5v2.5c0 .5522847-.4477153 1-1 1h-2c-.5522847 0-1-.4477153-1-1v-2.5c0-.2761424-.2238576-.5-.5-.5h-2.5c-.5522847 0-1-.4477153-1-1v-2c0-.5522847.4477153-1 1-1h2.5c.2761424 0 .5-.2238576.5-.5v-2.5c0-.5522847.4477153-1 1-1h2c.5522847 0 1 .4477153 1 1v2.5c0 .2761424.2238576.5.5.5h2.5c.5522847 0 1 .4477153 1 1z"/><path id="Shape" d="m46 16c-.543 0-.565-.151-2.707-2.293-.3789722-.3923789-.3735524-1.0160848.0121814-1.4018186s1.0094397-.3911536 1.4018186-.0121814l1.185 1.185 5.308-7.078c.3313708-.4418278.9581722-.53137085 1.4-.2s.5313708.9581722.2 1.4l-6 8c-.1888544.2518058-.4852427.4-.8.4z"/></g></g></svg>