<svg width="35" height="34" fill="none" xmlns="http://www.w3.org/2000/svg"><path d="M32.958 27.45l-2.75.65c-.616.15-1.1.617-1.233 1.233l-.583 2.45c-.317 1.334-2.017 1.75-2.9.7l-4.984-5.733c-.4-.467-.183-1.2.417-1.35 2.95-.717 5.6-2.367 7.55-4.717.317-.383.883-.433 1.233-.083l3.7 3.7c1.267 1.267.817 2.85-.45 3.15zM2.042 27.45l2.75.65c.616.15 1.1.617 1.233 1.233l.583 2.45c.317 1.334 2.017 1.75 2.9.7l4.984-5.733c.4-.467.183-1.2-.417-1.35a14.153 14.153 0 01-7.55-4.717c-.317-.383-.883-.433-1.233-.083l-3.7 3.7c-1.267 1.267-.817 2.85.45 3.15z" fill="#E6646E"/><path d="M17.542 0A11.658 11.658 0 005.875 11.667c0 2.416.717 4.633 1.95 6.483 1.8 2.667 4.65 4.55 7.967 5.033.566.1 1.15.15 1.75.15.6 0 1.183-.05 1.75-.15 3.316-.483 6.166-2.366 7.966-5.033a11.613 11.613 0 001.95-6.483C29.208 5.217 23.992 0 17.542 0zm5.1 11.3l-1.384 1.383c-.233.234-.366.684-.283 1.017l.4 1.717c.317 1.35-.4 1.883-1.6 1.166l-1.667-.983c-.3-.183-.8-.183-1.1 0l-1.666.983c-1.2.7-1.917.184-1.6-1.166l.4-1.717c.066-.317-.05-.783-.284-1.017L12.442 11.3c-.817-.817-.55-1.633.583-1.817l1.783-.3c.3-.05.65-.316.784-.583l.983-1.967c.533-1.066 1.4-1.066 1.933 0l.984 1.967c.133.267.483.533.8.583l1.783.3c1.117.184 1.383 1 .567 1.817z" fill="#D0990C"/></svg>