<svg id="Capa_1" enable-background="new 0 0 512 512" height="512" viewBox="0 0 512 512" width="512" xmlns="http://www.w3.org/2000/svg"><g><g><g><path d="m356.669 512v-48.037h-204.449v48.037h-76.163c-6.651 0-11.558-6.208-10.024-12.679l21.594-91.06c8.921-37.571 39.724-65.993 77.892-71.865l8.705-1.339h160.44l8.705 1.339c38.178 5.872 68.981 34.295 77.892 71.865l21.603 91.059c1.535 6.471-3.373 12.68-10.024 12.68z" fill="#70d9e6"/><path d="m154.128 512-61.636-44.154c-8.55 6.253-16.174 11.847-23.004 16.895l18.141-76.481c.381-1.586.793-3.163 1.257-4.718 4.012-4.035 10.299-5.49 15.102-1.947l73.153 52.271 157.515-118.811 8.715 1.339c22.17 3.41 41.846 14.423 56.196 30.421-63.313 43.681-151.692 112.065-194.012 145.185z" fill="#22c7db"/><path d="m432.833 512h-20.142l-24.601-103.739c-8.921-37.571-39.724-65.993-77.892-71.865l-8.705-1.339h33.172l8.705 1.339c38.168 5.872 68.971 34.295 77.892 71.865l21.594 91.06c1.535 6.471-3.372 12.679-10.023 12.679z" fill="#22c7db"/><path d="m228.648 267.966v22.394c0 13.114-7.19 25.14-18.695 31.434-8.862 4.848-20.813 9.97-35.724 13.259 0 0 29.77 34.634 80.218 34.634s80.218-34.634 80.218-34.634c-15.166-3.345-27.27-8.586-36.176-13.508-11.314-6.252-18.243-18.255-18.243-31.181v-22.398z" fill="#fc9085"/><path d="m287.566 312.114c-10.292 2.998-21.366 4.543-33.12 4.543-11.775 0-22.87-1.545-33.172-4.564 4.698-6.14 7.376-13.732 7.376-21.737v-22.386h51.592v22.396c-.001 7.985 2.647 15.608 7.324 21.748z" fill="#fc7c6a"/><g><g><path d="m143.901 79.055c-8.095 20.766 10.696 108.278 8.455 100.172h204.182c-1.988 7.733 20.234-89.593 3.094-128.421-15.542-35.209-89.639-36.599-113.376-30.34-33.72 8.892-89.689 26.098-102.355 58.589z" fill="#6c3328"/><g fill="#873f30"><path d="m152.36 179.223h.122c.111.689.08.729-.122 0z"/><path d="m356.536 179.223c-.142.537-.162.516-.091 0z"/><path d="m125.695 179.223h.122c.11.689.08.729-.122 0z"/><path d="m329.78 179.223h.091c-.142.537-.162.516-.091 0z"/></g></g><g><g><g fill="#fc9085"><ellipse cx="355.149" cy="163.616" rx="33.275" ry="28.356" transform="matrix(.338 -.941 .941 .338 81.278 442.714)"/><ellipse cx="153.745" cy="163.616" rx="28.356" ry="33.275" transform="matrix(.941 -.338 .338 .941 -46.197 61.483)"/></g></g><path d="m202.19 91.54c-20.194 0-36.564 16.37-36.564 36.564v56.693s0 106.107 88.821 106.107 88.821-106.107 88.821-106.107v-56.693c0-20.194-16.37-36.564-36.564-36.564z" fill="#fda79b"/><path d="m325.198 96.559c-5.439 21.448-22.17 40.146-63.336 40.146-39.27 0-63.49-14.196-93.849-21.613 5.244-13.774 18.564-23.55 34.181-23.55h104.512c6.748 0 13.073 1.823 18.492 5.017z" fill="#fc9085"/></g><path d="m260.809 0c68.019 0 66.62 33.005 66.62 56.557 0 28.035-12.378 59.244-65.566 59.244-46.539 0-71.947-19.934-111.491-24.917-9.503-1.198-14.939-11.457-10.789-20.089 12.665-26.342 45.288-70.795 121.226-70.795z" fill="#ba5d4f"/><path d="m327.431 56.561c0 28.032-12.376 59.245-65.564 59.245-4.81 0-9.398-.213-13.794-.597 43.689-4.476 54.313-33.369 54.313-59.538 0-20.649 1.063-48.479-43.203-55.649.536-.022 1.083-.022 1.63-.022 68.015 0 66.618 33.005 66.618 56.561z" fill="#a34f41"/><g><path d="m254.447 247.739c-13.916 0-25.198-11.281-25.198-25.198v-3.031c0-2.845 2.306-5.151 5.151-5.151h40.094c2.845 0 5.151 2.306 5.151 5.151v3.031c0 13.917-11.281 25.198-25.198 25.198z" fill="#f8f3f1"/></g><g><g><path d="m311.031 170.368c-1.574 0-3.163-.479-4.535-1.476-2.188-1.59-5.115-2.465-8.242-2.465s-6.054.875-8.243 2.465c-3.453 2.508-8.285 1.741-10.792-1.711-2.508-3.453-1.742-8.284 1.71-10.792 4.807-3.492 10.96-5.415 17.324-5.415 6.365 0 12.517 1.923 17.324 5.415 3.452 2.508 4.218 7.34 1.71 10.792-1.51 2.082-3.867 3.187-6.256 3.187z" fill="#fc7c6a"/></g><g><path d="m223.414 170.368c-1.574 0-3.163-.479-4.534-1.475-2.189-1.59-5.116-2.465-8.243-2.465s-6.054.875-8.243 2.465c-3.454 2.508-8.285 1.741-10.792-1.711-2.508-3.453-1.742-8.284 1.711-10.792 4.807-3.492 10.96-5.415 17.324-5.415s12.517 1.923 17.324 5.415c3.453 2.508 4.218 7.34 1.711 10.792-1.512 2.081-3.868 3.186-6.258 3.186z" fill="#fc7c6a"/></g></g></g></g><g><path d="m256.671 196.355h-6.032c-4.267 0-7.726-3.459-7.726-7.726s3.459-7.726 7.726-7.726h6.032c4.267 0 7.726 3.459 7.726 7.726s-3.459 7.726-7.726 7.726z" fill="#fc7c6a"/></g><g><path d="m141.92 453.661h225.053v58.339h-225.053z" fill="#eaf9fa"/><path d="m281.119 453.661c-29.999 22.829-57.145 43.916-75.564 58.339h-51.427l-12.208-8.746v-49.593z" fill="#a8e7ef"/><g><g><path d="m149.644 430.121v81.879h-15.453v-81.879c0-4.275 3.461-7.726 7.726-7.726 4.266 0 7.727 3.451 7.727 7.726z" fill="#18bac6"/></g><g><path d="m374.708 430.121v81.879h-15.453v-81.879c0-4.275 3.451-7.726 7.726-7.726 4.265 0 7.727 3.451 7.727 7.726z" fill="#22c7db"/></g></g></g></g><g><g><g><path d="m70.275 345.429h-13.122c-4.267 0-7.726-3.459-7.726-7.726s3.459-7.726 7.726-7.726h13.121c4.267 0 7.726 3.459 7.726 7.726.001 4.266-3.458 7.726-7.725 7.726z" fill="#64b9fc"/></g><g><path d="m70.275 291.66h-13.122c-4.267 0-7.726-3.459-7.726-7.726s3.459-7.726 7.726-7.726h13.121c4.267 0 7.726 3.459 7.726 7.726.001 4.267-3.458 7.726-7.725 7.726z" fill="#64b9fc"/></g><g><path d="m70.275 237.891h-13.122c-4.267 0-7.726-3.459-7.726-7.726s3.459-7.726 7.726-7.726h13.121c4.267 0 7.726 3.459 7.726 7.726s-3.458 7.726-7.725 7.726z" fill="#64b9fc"/></g><g><path d="m70.275 184.122h-13.122c-4.267 0-7.726-3.459-7.726-7.726s3.459-7.726 7.726-7.726h13.121c4.267 0 7.726 3.459 7.726 7.726s-3.458 7.726-7.725 7.726z" fill="#64b9fc"/></g><g><path d="m70.275 130.354h-13.122c-4.267 0-7.726-3.459-7.726-7.726s3.459-7.726 7.726-7.726h13.121c4.267 0 7.726 3.459 7.726 7.726.001 4.266-3.458 7.726-7.725 7.726z" fill="#64b9fc"/></g><g><path d="m70.275 76.585h-13.122c-4.267 0-7.726-3.459-7.726-7.726s3.459-7.726 7.726-7.726h13.121c4.267 0 7.726 3.459 7.726 7.726.001 4.267-3.458 7.726-7.725 7.726z" fill="#64b9fc"/></g></g><g><path d="m32.008 450.394c-4.267 0-7.726-3.459-7.726-7.726v-419.746c0-4.267 3.459-7.726 7.726-7.726s7.726 3.459 7.726 7.726v419.746c.001 4.267-3.458 7.726-7.726 7.726z" fill="#ba5d4f"/></g><path d="m479.449 227.893c-16.706-4.037-55.386-11.783-100.599-10.071-8.673.328-13.477 10.211-8.4 17.25l14.612 20.26c1.676 2.323 1.138 5.566-1.203 7.217-77.476 54.635-184.416 139.864-203.681 155.28-1.8 1.44-4.332 1.505-6.207.165l-69.979-49.997c-3.969-2.836-9.334-2.675-13.145.37-28.045 22.411-48.074 41.621-62.377 57.507-2.699 2.998-4.188 6.875-4.188 10.908v37.862c0 4.577 5.299 7.109 8.858 4.23 12.579-10.178 29.845-23.032 56.335-42.426 1.796-1.315 4.237-1.331 6.047-.034l78.871 56.497c3.94 2.822 9.272 2.7 13.078-.301 30.613-24.143 163.326-128.206 236.101-175.523 2.303-1.497 5.37-.916 6.977 1.312l15.913 22.063c5.077 7.039 15.971 5.601 19.02-2.525 15.895-42.36 20.754-81.507 22.196-98.634.447-5.317-3.044-10.157-8.229-11.41z" fill="#fb4a59"/><path d="m487.68 239.311c-1.442 17.132-6.305 56.268-22.2 98.63-3.049 8.118-13.938 9.56-19.017 2.524l-11.466-15.896c14.237-40.105 18.718-76.512 20.099-92.861.319-3.74-1.308-7.232-4.09-9.416 12.177 1.906 21.953 4.028 28.433 5.594 5.192 1.257 8.684 6.099 8.241 11.425z" fill="#f82f40"/></g></g></svg>