<?xml version="1.0" encoding="utf-8"?>
<!-- Generator: Adobe Illustrator 24.0.2, SVG Export Plug-In . SVG Version: 6.00 Build 0)  -->
<svg version="1.1" id="Capa_1" xmlns="http://www.w3.org/2000/svg" xmlns:xlink="http://www.w3.org/1999/xlink" x="0px" y="0px"
	 viewBox="0 0 512 512" style="enable-background:new 0 0 512 512;" xml:space="preserve">
<style type="text/css">
	.st0{fill:#AF6E5A;}
	.st1{fill:#965A50;}
	.st2{fill:#AFD755;}
	.st3{fill:#96BE4B;}
</style>
<g>
	<path class="st0" d="M274.4,193.2l-26.8-10.4C198,301.8,211.5,512,211.5,512h49C260.4,512,232.1,317.1,274.4,193.2z"/>
	<path class="st1" d="M238.3,134.1c-3.2,5.7-5.1,12.2-5.1,19.2c0,12.2,5.6,23,14.2,30.3C198.1,302.7,211.5,512,211.5,512h22.9
		c-2.5-38.3-11-205.1,21.7-314.1c1.2-4,5.4-6.1,9.5-5.3c2.5,0.5,5,0.8,7.7,0.8c21.6,0,39.2-17.2,39.9-38.6
		C288.4,147.3,263.5,140.2,238.3,134.1z"/>
	<g>
		<path class="st2" d="M276.7,153c-7-54-32.3-114.7-42.4-137.6c-1.8-4,1.9-8.2,6.1-7c16.4,4.7,48.3,17.8,64.7,52.1
			C312.4,75.9,316.2,104,276.7,153"/>
		<path class="st2" d="M276.7,153c-82.5-11.6-152.6,10.7-177.7,20.3c-3.5,1.3-6.6-2.5-4.7-5.7c10.4-17.6,36.4-53.4,79.5-61.9
			C204.1,99.8,252.3,104,276.7,153"/>
		<path class="st2" d="M276.7,152.9c62.9,23.8,102.9,69.6,119.2,91.3c3,4,9.2,1.9,9.3-3.1c0.5-21.1-1.4-63.7-28.9-86.2
			C316.2,105.7,276.7,152.9,276.7,152.9z"/>
	</g>
	<path class="st3" d="M415.6,80.4c-18.4-10.2-53.9-25.4-87.4-13.6c-28,9.9-41.2,28.2-47.3,45.4c-2.3-21.9-12.7-48.6-44.5-69.9
		c-35-23.4-74.1-19.6-97.8-13.5c-5.6,1.4-6.1,9.2-0.7,11.5c29.3,12.9,101,63.4,138.8,112.8c38.4-27.3,110.5-58.7,137.2-63
		C418.8,89.3,419.9,82.8,415.6,80.4z"/>
</g>
</svg>
