<?xml version="1.0" encoding="utf-8"?>
<!-- Generator: Adobe Illustrator 22.0.0, SVG Export Plug-In . SVG Version: 6.00 Build 0)  -->
<svg version="1.1" id="Layer_1" xmlns="http://www.w3.org/2000/svg" xmlns:xlink="http://www.w3.org/1999/xlink" x="0px" y="0px"
	 viewBox="0 0 512 512" style="enable-background:new 0 0 512 512;" xml:space="preserve">
<style type="text/css">
	.st0{fill:#665E68;}
	.st1{fill:#554E56;}
	.st2{fill:#DFEBFA;}
	.st3{fill:#FFD301;}
	.st4{fill:#FFC20C;}
	.st5{fill:#6C88A3;}
	.st6{fill:#47627C;}
	.st7{fill:#92DFF4;}
	.st8{fill:#8BB9FF;}
	.st9{fill:#FF3939;}
	.st10{fill:#FF7038;}
	.st11{fill:#FFFFFF;}
</style>
<g>
	<g>
		<path class="st0" d="M390.7,226.5C220.1,168.2,335.1,98.4,393,70.8c0.8-0.4,0.5-1.6-0.4-1.6h-41.2c-6.5,0-13,1.5-19,4.4
			c-65.6,32-197.8,110.1-91,175.4c122.5,75-8.8,172.9-77.5,215h269.5C469.4,412.7,544,279,390.7,226.5z"/>
		<path class="st1" d="M163.8,464.2H223c70.7-48.7,178.7-145,63.9-219.9c-95.8-62.5,0.7-135.8,69-174.9h-4.5c-6.5,0-13,1.5-19,4.4
			c-65.6,32-197.8,110.1-91,175.4C363.9,324.2,232.6,422.2,163.8,464.2L163.8,464.2z"/>
		<g>
			<path class="st2" d="M290.8,124.3c-1.9,0-3.9-0.9-5-2.7c-1.8-2.8-1-6.5,1.7-8.3c2.6-1.7,4.3-2.7,4.4-2.7c2.9-1.6,6.5-0.6,8.2,2.2
				c1.6,2.9,0.6,6.5-2.2,8.1c0,0-1.5,0.8-3.7,2.3C293.1,124,291.9,124.3,290.8,124.3z"/>
		</g>
		<g>
			<path class="st2" d="M347.5,410.1c-1.5,0-2.9-0.5-4.1-1.6c-2.4-2.2-2.6-6-0.3-8.4c2.2-2.3,4.3-4.7,6.3-7.1
				c2.1-2.5,5.9-2.8,8.4-0.7s2.8,5.9,0.7,8.4c-2.1,2.5-4.4,5-6.6,7.5C350.7,409.5,349.1,410.1,347.5,410.1L347.5,410.1z"/>
			<path class="st2" d="M372.8,376.6c-1,0-2-0.3-3-0.8c-2.9-1.6-3.8-5.3-2.2-8.2c1.6-2.8,3-5.5,4.3-8.2c1.4-3,5-4.2,8-2.8
				c3,1.4,4.2,5,2.8,8c-1.4,3-3,6-4.8,9C376.9,375.5,374.9,376.6,372.8,376.6z"/>
			<path class="st2" d="M386.3,337c-0.2,0-0.3,0-0.5,0c-3.3-0.3-5.7-3.1-5.5-6.4c0.1-1.6,0.2-3.2,0.2-4.8c0-1.3,0-2.7-0.1-4
				c-0.2-3.3,2.3-6.1,5.5-6.4c3.3-0.2,6.1,2.3,6.4,5.5c0.1,1.6,0.2,3.2,0.2,4.9c0,1.9-0.1,3.8-0.2,5.8
				C392,334.7,389.4,337,386.3,337z"/>
			<path class="st2" d="M375.9,297c-1.9,0-3.8-0.9-5-2.7c-1.6-2.4-3.4-4.8-5.4-7.2c-2.1-2.5-1.9-6.3,0.6-8.4s6.3-1.9,8.4,0.6
				c2.3,2.7,4.4,5.5,6.3,8.3c1.8,2.8,1.1,6.5-1.7,8.3C378.1,296.7,377,297,375.9,297L375.9,297z"/>
			<path class="st2" d="M345.3,268.5c-1.1,0-2.2-0.3-3.2-1c-2.5-1.6-5.2-3.3-8-4.8c-2.9-1.6-3.9-5.3-2.3-8.1
				c1.6-2.9,5.3-3.9,8.1-2.3c3,1.7,5.9,3.4,8.6,5.2c2.8,1.8,3.6,5.5,1.8,8.3C349.2,267.5,347.3,268.5,345.3,268.5L345.3,268.5z"/>
			<path class="st2" d="M308,249.1c-0.9,0-1.8-0.2-2.7-0.6c-3-1.5-6-3.1-8.8-4.7c-2.9-1.6-3.9-5.2-2.3-8.1s5.2-3.9,8.1-2.3
				c2.7,1.5,5.5,3,8.4,4.5c2.9,1.5,4.1,5.1,2.6,8C312.3,247.9,310.2,249.1,308,249.1L308,249.1z"/>
			<path class="st2" d="M272.7,226.5c-1.4,0-2.7-0.5-3.9-1.4c-2.7-2.3-5.2-4.7-7.5-7c-2.3-2.4-2.2-6.2,0.1-8.4
				c2.4-2.3,6.2-2.2,8.4,0.1c2,2.1,4.3,4.2,6.7,6.3c2.5,2.1,2.8,5.9,0.7,8.4C276.1,225.8,274.4,226.5,272.7,226.5L272.7,226.5z"/>
			<path class="st2" d="M249.6,192.2c-2.8,0-5.2-1.9-5.8-4.7c-0.7-3.2-1-6.5-1-9.8c0-0.4,0-0.8,0-1.3c0.1-3.3,2.8-5.9,6.1-5.8
				s5.9,2.8,5.8,6.1c0,0.3,0,0.6,0,0.9c0,2.4,0.3,4.9,0.8,7.3c0.7,3.2-1.4,6.4-4.6,7.1C250.4,192.2,250,192.2,249.6,192.2
				L249.6,192.2z"/>
			<path class="st2" d="M260,152.7c-1.2,0-2.4-0.4-3.5-1.1c-2.7-1.9-3.3-5.7-1.3-8.3c2-2.7,4.2-5.4,6.5-8.1c2.2-2.4,6-2.6,8.4-0.4
				c2.4,2.2,2.6,6,0.4,8.4c-2.1,2.3-4,4.7-5.7,7.1C263.6,151.8,261.8,152.7,260,152.7z"/>
		</g>
		<g>
			<path class="st2" d="M320.2,435.5c-1.8,0-3.6-0.8-4.8-2.4c-2-2.6-1.5-6.4,1.1-8.4c0,0,1.3-1,3.5-2.8c2.5-2.1,6.3-1.7,8.4,0.8
				c2.1,2.5,1.7,6.3-0.8,8.4c-2.4,2-3.9,3.1-3.9,3.1C322.8,435.1,321.5,435.5,320.2,435.5z"/>
		</g>
		<path class="st3" d="M404.3,212.2c-162.6-50.2-68.8-107.5-8.6-136.9c2.8-1.4,1.9-6-1.2-6h-2.2c-56.6,26.3-179.5,97.8-5.7,157.3
			C540,279,465.4,412.8,429.4,464.2h30.5c7.7,0,14.7-4.6,18.3-12.1C512.8,380.8,545.1,255.7,404.3,212.2L404.3,212.2z"/>
		<g>
			<g>
				<path class="st4" d="M243,249.1C164,200.7,214.1,145.6,272.9,107c-65.8,36.9-141.3,97.6-52.8,151.7
					c103.6,63.5-5.1,143.3-84.2,191.8c-5.9,3.6-3.6,13.5,3.2,13.5h26.3C234.2,422.2,365.5,324.2,243,249.1z"/>
			</g>
		</g>
	</g>
</g>
<g>
	<path class="st5" d="M111,58.9v412.3h20.7l13-281.9l-13-151C120.2,38.4,111,47.6,111,58.9L111,58.9z"/>
	<path class="st6" d="M152.2,58.9v412.2h-20.7V38.4C143.1,38.4,152.2,47.7,152.2,58.9L152.2,58.9z"/>
	<path class="st7" d="M139.4,91.7l-14.8,34.6H34.8V56.9h89.7L139.4,91.7z"/>
	<path class="st8" d="M243.2,91.7l-34.6,34.6h-83.8V56.9h83.8L243.2,91.7z"/>
	<path class="st9" d="M110.2,179.8l14.8,34.6h89.7V145H125L110.2,179.8z"/>
	<path class="st10" d="M6.4,179.8l34.7,34.6H125V145H41.2L6.4,179.8z"/>
	<path class="st7" d="M138.5,268.6l-14.8,34.6H33.9v-69.4h89.7L138.5,268.6z"/>
	<path class="st8" d="M242.2,268.6l-34.7,34.6h-83.8v-69.4h83.8L242.2,268.6z"/>
	<path class="st9" d="M108.2,358.4L123,393h89.7v-69.5H123L108.2,358.4z"/>
	<path class="st10" d="M4.4,358.4L39,393h83.8v-69.5H39L4.4,358.4z"/>
</g>
<g>
	<path class="st11" d="M55.9,82.8c0,0.3,0,0.6-0.1,0.9c-0.3,0.8-1.1,1.1-2.4,1.2h-0.1h-0.3c-0.3,0-0.6,0-1.1,0h-0.3
		c-0.8-0.1-1.4-0.1-1.7,0c-1,0.1-1.6,0.6-1.7,1.4c-0.1,0.6,0,1,0.4,1.4c0.3,0.3,0.9,0.5,1.5,0.5h0.1h0.3c0.7,0,1.3,0,1.5,0
		c0.1,0,0.3,0,0.5,0c0.7-0.1,1.2,0,1.5,0.2s0.5,0.4,0.6,0.8c0.1,0.3,0.2,0.5,0.2,0.8l0,0c0,0.1,0,0.2,0,0.3c0,0.5-0.2,0.8-0.5,1.1
		c-0.4,0.4-1.1,0.6-2,0.6h-0.3l0,0c-0.2,0-0.5,0-0.9-0.1c-0.9-0.1-1.5-0.1-1.9,0c-0.5,0.1-0.8,0.3-1,0.6c-0.2,0.4-0.2,1.1-0.1,2.1
		c0,0.4,0.1,0.6,0.1,0.8c0,1.2-0.4,2.1-1.3,2.5c-0.4,0.2-1,0.3-1.8,0.4c-0.1,0-0.2,0-0.3,0c-0.3,0-0.6-0.1-0.8-0.2
		c-0.3-0.2-0.5-0.5-0.5-0.8c-0.1-0.4-0.1-0.7,0-1c0-0.3,0-0.5,0-0.6c0-0.2,0-0.3,0-0.6c0-0.2,0-0.5-0.1-1c0-0.2,0-0.4,0-0.7v-0.2
		v-0.1c0-0.4,0-0.7,0-1c0-0.4,0-1.1,0.1-1.9c0-1,0.1-1.8,0-2.3c0-0.3,0-0.8-0.1-1.5c-0.2-1.2-0.2-2.1,0-2.7c0,0,0-0.1,0-0.2l0,0l0,0
		l0.1-0.3l0,0c0.4-0.9,0.9-1.5,1.7-1.8h0.1l0,0l0.3-0.1l0,0l0,0c0.5-0.2,1.3-0.2,2.4-0.2c0.2,0,0.3,0,0.4,0c0.7,0,1.7,0,3,0h0.3
		c1.1,0,2,0.1,2.7,0.4C55.4,81.8,55.8,82.2,55.9,82.8z"/>
	<path class="st11" d="M62,92.7c0,0.2,0,0.5,0,0.9c0,0.5,0,1,0,1.5s0,1-0.2,1.4c-0.2,0.5-0.4,0.8-0.7,1l0,0l0,0l-0.4,0.3v-0.1
		c-0.2,0.1-0.3,0.1-0.5,0.1c-0.1,0-0.2,0-0.3,0h0c0,0,0,0-0.1,0c0,0,0,0-0.1,0l0,0h-0.3l0,0c-0.9-0.1-1.5-0.4-1.7-1
		s-0.3-1.5-0.2-2.9c0-0.5,0.1-0.8,0.1-1v-4.2c0-0.1,0-0.3,0-0.5v-0.3v-0.1c0-0.8,0-1.3,0-1.8c0-0.9,0-1.9,0-2.9V83v-0.4
		c0-1.1,0.2-1.9,0.6-2.4l0,0l0.2-0.2l0.1-0.1l0,0c0.3-0.3,0.7-0.5,1.1-0.5c0.8-0.1,1.4,0.1,1.9,0.5c0.3,0.3,0.5,0.6,0.6,1.1
		c0.1,0.5,0.2,1,0.2,1.5s0,1-0.1,1.5c0,0.5,0,0.8,0,1v7.7H62z"/>
	<path class="st11" d="M76.7,96.2l-0.2,0.3v0.1l0,0c-0.3,0.3-0.6,0.6-1.1,0.8s-0.9,0.4-1.3,0.5c-0.8,0.2-1.5,0.3-2.3,0.3
		c-1.8,0-3.4-0.4-4.7-1.3c-0.8-0.5-1.4-1-1.9-1.7s-0.8-1.5-1-2.3c0-0.3-0.1-0.5-0.1-0.9v-0.2v-0.1c0-0.6-0.1-1.1,0-1.6V90v-0.3l0,0
		c0.1-0.8,0.3-1.4,0.5-2c0.4-1,1.1-1.9,2-2.5l0,0l0.3-0.2l0,0c0.6-0.4,1.3-0.7,2-0.9l0,0h0.3l0,0c1.3-0.3,2.6-0.2,3.9,0.2
		c1.3,0.4,2.2,1,2.8,1.9c0.6,0.9,0.8,2,0.6,3.3c-0.2,1.5-1.6,2.4-4.3,2.8c-0.2,0-0.4,0.1-0.8,0.1c-0.9,0.1-1.6,0.2-2,0.3
		c-0.3,0.1-0.4,0.2-0.5,0.4s-0.1,0.4,0,0.6c0.1,0.2,0.1,0.3,0.3,0.4c0.2,0.2,0.5,0.4,0.9,0.5c0.7,0.2,1.5,0.2,2.2,0.1
		s1.4-0.3,2.1-0.6c0.1,0,0.1,0,0.3-0.1l0,0l0,0l0.3-0.1l0,0c0.8-0.1,1.3,0.1,1.6,0.6C77,95.1,77,95.7,76.7,96.2z M72.6,87.5
		c-0.4-0.2-0.9-0.3-1.5-0.3c-0.8,0-1.6,0.3-2.1,0.8c-0.3,0.3-0.4,0.6-0.4,0.9c0,0.3,0.3,0.6,0.6,0.8c0.3,0.1,0.6,0.2,1,0.2
		c0.4,0,0.8-0.1,1.2-0.2c0.4-0.1,0.7-0.2,1-0.3c0.2-0.1,0.3-0.2,0.5-0.3c0.3-0.2,0.4-0.4,0.4-0.6c0-0.2,0-0.3-0.2-0.5
		C72.9,87.7,72.8,87.6,72.6,87.5z"/>
	<path class="st11" d="M89,92.3c0.3,0.5,0.6,0.9,0.8,1.1c0.2,0.3,0.4,0.6,0.6,1.1c0.2,0.4,0.4,0.9,0.5,1.3c0,0.3,0,0.5,0,0.7
		c-0.1,0.3-0.3,0.6-0.7,0.8c-0.4,0.3-0.9,0.4-1.4,0.4c-0.3,0-0.6-0.1-1-0.2l0,0l-0.3-0.1l0,0c-0.1-0.1-0.2-0.1-0.3-0.2
		c-0.2-0.2-0.4-0.4-0.6-0.6l0,0l-0.2-0.2l0,0c-0.1-0.2-0.2-0.3-0.3-0.4c0-0.1-0.1-0.2-0.3-0.5c-0.2-0.4-0.4-0.7-0.6-1
		s-0.3-0.4-0.4-0.6s-0.2-0.2-0.2-0.2s-0.1,0.1-0.2,0.2c0,0-0.2,0.2-0.4,0.5c-0.3,0.3-0.5,0.5-0.6,0.7c-0.4,0.5-0.6,0.7-0.7,0.9
		s-0.3,0.4-0.4,0.5l-0.1,0.1l-0.1,0.1c-0.9,0.9-1.7,1.2-2.6,0.8c-0.4-0.1-0.7-0.4-0.9-0.7c-0.2-0.3-0.3-0.7-0.3-1.1
		c0-0.3,0.1-0.5,0.2-0.8c0.1-0.3,0.2-0.5,0.3-0.6s0.3-0.4,0.5-0.6l0.3-0.3c0.6-0.8,1.1-1.4,1.5-2v-0.1l0,0c0.4-0.7,0.4-1.2,0.1-1.7
		c-0.2-0.2-0.5-0.6-0.8-1c-0.8-1-1.4-1.8-1.7-2.4c-0.2-0.3-0.2-0.5-0.2-0.6c0-0.5,0.3-0.9,1-1.3l0,0l0,0l0.3-0.2l0,0
		c0.4-0.2,0.9-0.2,1.3-0.2l0,0l0.3,0.1c0,0,0,0,0.1,0h0.1c0.5,0.2,1,0.6,1.4,1.2c0.1,0.2,0.3,0.5,0.6,0.9c0.1,0.2,0.3,0.4,0.3,0.5
		s0.1,0.2,0.2,0.4c0.2,0.4,0.3,0.6,0.5,0.7c0.1,0.1,0.3,0.2,0.5,0.1c0.2-0.1,0.3-0.3,0.5-0.5c0.6-1,1.3-1.9,2.2-2.7
		c0.3-0.3,0.5-0.4,0.7-0.5c0.4-0.2,0.8-0.2,1.3,0c0.3,0.1,0.5,0.3,0.8,0.5l0,0l0,0l0.3,0.3h-0.1c0.5,0.7,0.5,1.4,0.1,2.2
		c-0.1,0.2-0.3,0.4-0.5,0.7L90.2,88l0,0c-0.1,0.1-0.2,0.3-0.4,0.4c-0.3,0.3-0.7,0.8-1.3,1.5L88,90.4c-0.1,0.1-0.1,0.1-0.1,0.2
		s0,0.1,0,0.1C88,91,88.4,91.6,89,92.3z"/>
	<path class="st11" d="M106.7,90.6c0,0.6,0,1.2-0.1,1.7v0.1v0.1c-0.1,0.4-0.2,0.8-0.3,1.1c-0.4,1-0.9,1.8-1.6,2.5
		c-0.7,0.7-1.5,1.2-2.4,1.5c-1,0.3-2,0.5-3,0.5c-0.7,0-1.4-0.1-2-0.2h-0.1h-0.2c-1-0.3-1.9-0.8-2.5-1.5l0,0l-0.1-0.1l0,0v-0.1
		c-1-1.3-1.5-3.1-1.5-5.5c0-2.2,0-4.6-0.1-7.2v-0.1v-0.1v-0.2c0-1.2,0.2-2.1,0.6-2.7l0,0l0.2-0.2v-0.1c0.3-0.4,0.7-0.6,1.2-0.7
		c1.1-0.2,1.9,0,2.5,0.6c0.2,0.2,0.4,0.5,0.5,0.8s0.2,0.6,0.2,0.8s0,0.5,0,0.9c0,0.2,0,0.4,0,0.5v0.2c0,0.5,0,0.8,0,1
		c0.4-0.1,0.7-0.2,1-0.3c0.5-0.1,1-0.1,1.5-0.1c0.6,0,1.3,0.1,1.9,0.4l0,0h0.1h0.2c0.5,0.2,1,0.5,1.5,0.8l0.1,0.1l0.1,0.1
		c1.2,1,2,2.2,2.4,3.7c0.1,0.5,0.2,0.9,0.3,1.4v0.1L106.7,90.6z M99.8,94.2c0.4,0,0.7-0.1,1-0.2c0.2-0.1,0.5-0.4,0.6-0.7
		c0.3-0.5,0.5-1,0.5-1.7s0-1.3-0.2-1.9s-0.5-1.1-0.9-1.4c-0.4-0.3-0.9-0.5-1.5-0.5c-0.3,0-0.5,0.1-0.7,0.2c-0.2,0.1-0.3,0.2-0.4,0.3
		c-0.3,0.3-0.5,0.6-0.7,1c-0.1,0.5-0.2,1.2-0.1,2.3c0,0.2,0,0.3,0,0.4c0,0.8,0.3,1.4,0.7,1.8C98.5,94.1,99,94.2,99.8,94.2z"/>
	<path class="st11" d="M122.1,88.7c0.2,0.7,0.2,1.4,0.2,2c0,0.3-0.1,0.5-0.1,0.8c-0.3,0.9-0.7,1.8-1.3,2.6l-0.1,0.1l-0.1,0.1
		c-0.4,0.5-0.7,0.9-1.2,1.3l-0.1,0.1l-0.1,0.1c-1.5,1.4-3.2,2-5,2c-0.7,0-1.4-0.1-2.1-0.4c-0.7-0.3-1.4-0.6-2-1.1
		c-0.1-0.1-0.1-0.1-0.2-0.2c-1-0.9-1.6-2-1.9-3.4c-0.3-1.4-0.2-2.7,0.4-4.1c0.4-1.1,1.1-2.1,1.9-2.9c0.8-0.8,1.8-1.4,2.9-1.8h0.1
		h0.2c0.5-0.2,1.1-0.3,1.6-0.3h0.2h0.1c1.1,0,2.3,0.3,3.3,0.8c0.5,0.3,1,0.6,1.4,1c0.1,0.1,0.2,0.2,0.3,0.3l0.1,0.1l0.1,0.2
		c0.6,0.8,1.1,1.6,1.3,2.5L122.1,88.7L122.1,88.7z M113.1,92c0.2,0.4,0.4,0.7,0.7,0.9c0.3,0.2,0.7,0.4,1,0.5
		c0.7,0.1,1.2-0.2,1.6-0.7c0.3-0.4,0.6-0.9,0.7-1.4c0.2-0.5,0.2-1.1,0.2-1.6c0-0.6-0.3-1.1-0.6-1.5c-0.4-0.4-0.9-0.6-1.5-0.5
		c-0.4,0.1-0.8,0.2-1.2,0.5c-0.4,0.3-0.7,0.6-0.9,1.1c-0.1,0.2-0.2,0.4-0.3,0.6c-0.2,0.7-0.2,1.3,0,1.8C113,91.7,113,91.9,113.1,92z
		"/>
	<path class="st11" d="M133.8,92.3c0.3,0.5,0.6,0.9,0.8,1.1c0.2,0.3,0.4,0.6,0.6,1.1c0.2,0.4,0.4,0.9,0.5,1.3c0,0.3,0,0.5,0,0.7
		c-0.1,0.3-0.3,0.6-0.7,0.8c-0.4,0.3-0.9,0.4-1.4,0.4c-0.3,0-0.6-0.1-1-0.2l0,0l-0.3-0.1l0,0c-0.1-0.1-0.2-0.1-0.3-0.2
		c-0.2-0.2-0.4-0.4-0.6-0.6l0,0l-0.2-0.2l0,0c-0.1-0.2-0.2-0.3-0.3-0.4c0-0.1-0.1-0.2-0.3-0.5c-0.2-0.4-0.4-0.7-0.6-1
		c-0.2-0.3-0.3-0.4-0.4-0.6c-0.1-0.2-0.2-0.2-0.2-0.2s-0.1,0.1-0.2,0.2c0,0-0.2,0.2-0.4,0.5c-0.3,0.3-0.5,0.5-0.6,0.7
		c-0.4,0.5-0.6,0.7-0.7,0.9c-0.1,0.2-0.3,0.4-0.4,0.5l-0.1,0.1l-0.1,0.1c-0.9,0.9-1.7,1.2-2.6,0.8c-0.4-0.1-0.7-0.4-0.9-0.7
		s-0.3-0.7-0.3-1.1c0-0.3,0.1-0.5,0.2-0.8s0.2-0.5,0.3-0.6s0.3-0.4,0.5-0.6l0.3-0.3c0.6-0.8,1.1-1.4,1.5-2v-0.1l0,0
		c0.4-0.7,0.4-1.2,0.1-1.7c-0.2-0.2-0.5-0.6-0.8-1c-0.8-1-1.4-1.8-1.7-2.4c-0.2-0.3-0.2-0.5-0.2-0.6c0-0.5,0.3-0.9,1-1.3l0,0l0,0
		l0.3-0.2l0,0c0.4-0.2,0.9-0.2,1.3-0.2l0,0l0.3,0.1c0,0,0,0,0.1,0h0.1c0.5,0.2,1,0.6,1.4,1.2c0.1,0.2,0.3,0.5,0.6,0.9
		c0.1,0.2,0.3,0.4,0.3,0.5s0.1,0.2,0.2,0.4c0.2,0.4,0.3,0.6,0.5,0.7c0.1,0.1,0.3,0.2,0.5,0.1c0.2-0.1,0.3-0.3,0.5-0.5
		c0.6-1,1.3-1.9,2.2-2.7c0.3-0.3,0.5-0.4,0.7-0.5c0.4-0.2,0.8-0.2,1.3,0c0.3,0.1,0.5,0.3,0.8,0.5l0,0l0,0l0.3,0.3h-0.1
		c0.5,0.7,0.5,1.4,0.1,2.2c-0.1,0.2-0.3,0.4-0.5,0.7L135,88l0,0c-0.1,0.1-0.2,0.3-0.4,0.4c-0.3,0.3-0.7,0.8-1.3,1.5l-0.5,0.5
		c-0.1,0.1-0.1,0.1-0.1,0.2s0,0.1,0,0.1C132.8,91,133.2,91.6,133.8,92.3z"/>
	<path class="st11" d="M158,85.2c0.1,0.5,0,1.3-0.3,2.5c-0.1,0.2-0.1,0.4-0.1,0.5c0,0,0,0.1-0.1,0.2l-0.1,0.4l0,0
		c-0.1,0.3-0.2,0.6-0.3,0.9L157,90v0.1l0,0c-0.2,0.8-0.6,1.7-1,2.7c-0.5,1.3-1.1,2.5-1.6,3.5l0,0l-0.1,0.2v0.1
		c-0.3,0.5-0.5,0.9-0.8,1.4v0.1l-0.1,0.2c-0.7,1.1-1.4,2-2.2,2.8c-0.2,0.3-0.5,0.5-0.8,0.7c-0.3,0.2-0.6,0.3-0.9,0.4
		c-0.3,0.1-0.7,0.2-1,0.2c-0.5,0-0.9-0.1-1.3-0.4l0,0l-0.1-0.1l-0.1-0.1l0,0c-0.2-0.3-0.4-0.6-0.5-0.9c-0.1-0.2-0.1-0.3-0.1-0.5l0,0
		V100l0,0c0-0.3,0.1-0.5,0.3-0.6c0.1-0.2,0.4-0.4,0.6-0.6c0.3-0.2,0.5-0.4,0.6-0.5c0.2-0.2,0.3-0.4,0.5-0.8c0.2-0.3,0.3-0.4,0.4-0.5
		c0.1-0.2,0.1-0.5,0-0.8c-0.1-0.3-0.3-0.8-0.7-1.4c-0.3-0.5-0.5-0.8-0.6-1.1c-0.4-0.9-0.9-2.1-1.5-3.6c-0.1-0.2-0.2-0.4-0.3-0.8
		c-0.6-1.6-1-2.8-1-3.7c-0.1-0.7,0.1-1.2,0.4-1.6c0.1-0.2,0.3-0.3,0.4-0.4c0.4-0.3,0.9-0.4,1.6-0.3c0.1,0,0.2,0,0.3,0.1l-0.1-0.1
		l0.6,0.3c0.2,0.1,0.4,0.2,0.5,0.3c0.2,0.2,0.4,0.7,0.6,1.3c0.3,1.1,0.7,2.2,1.1,3.5l0.1,0.4c0,0.2,0.1,0.4,0.2,0.8
		c0.2,0.9,0.5,1.5,0.7,1.9l0,0c0,0.1,0.1,0.1,0.1,0.2c0.1,0.2,0.3,0.2,0.3,0.1c0,0,0-0.1,0.1-0.1c0.4-0.9,0.8-2.4,1.3-4.3
		c0.1-0.3,0.1-0.5,0.2-0.8v-0.2c0.1-0.4,0.2-0.7,0.3-1c0.1-0.3,0.2-0.5,0.4-0.9c0.2-0.3,0.3-0.6,0.5-0.8c0.2-0.2,0.4-0.3,0.8-0.5
		s0.7-0.2,1.1-0.2c0.1,0,0.3,0,0.5,0.1h0.1l0.2,0.1c0.3,0.2,0.6,0.4,0.8,0.7c0.1,0.2,0.2,0.4,0.3,0.7L158,85.2L158,85.2z"/>
	<path class="st11" d="M182.7,89.2c0.1,0.3,0.1,0.8,0.1,1.5v0.2c0,0.2,0,0.3,0,0.4v2.5V94v0.1c0,0.6,0,1.1-0.1,1.4
		c0,0.1-0.1,0.2-0.1,0.3c-0.3,0.9-1.1,1.6-2.3,2c-1,0.4-2.2,0.6-3.6,0.6c-0.1,0-0.2,0-0.4,0l0,0H176c-0.3,0-0.6,0-1-0.1h-0.3l0,0
		c-0.2,0-0.3-0.1-0.4-0.1h-0.2c-0.5-0.1-1-0.2-1.4-0.3c-0.2-0.1-0.4-0.1-0.6-0.2l-0.2-0.1c-0.9-0.3-1.7-0.9-2.5-1.8
		c-0.7-0.9-1.3-1.8-1.7-2.7c-0.5-1.1-0.7-2.2-0.8-3.4c-0.1-1.2,0.1-2.3,0.5-3.5c0.1-0.3,0.2-0.6,0.3-0.9c0.4-0.9,0.9-1.7,1.6-2.4
		s1.5-1.2,2.4-1.6l0,0l0.3-0.1l0,0c0.3-0.1,0.8-0.3,1.2-0.4l0.2-0.1h0.1l0,0c1.8-0.4,3.6-0.4,5.4,0.1c0.1,0,0.1,0,0.2,0
		c1.3,0.3,2.2,1,2.8,2c0.2,0.3,0.3,0.5,0.3,0.8c0,0.2-0.1,0.5-0.3,0.8c-0.3,0.5-0.7,0.8-1,0.8c-0.1,0-0.2,0-0.3,0l0,0l0,0l-0.4-0.1
		h0.1l0,0c-0.1,0-0.1-0.1-0.2-0.1c-0.2-0.1-0.5-0.2-0.8-0.3c-0.1,0-0.2,0-0.3-0.1c-0.8-0.2-1.6-0.3-2.3-0.3
		c-1.3,0.1-2.4,0.4-3.3,1.2c-1,0.8-1.5,1.9-1.7,3.4c-0.1,0.9,0,1.8,0.2,2.6c0.1,0.3,0.2,0.5,0.3,0.8c0.5,0.9,1.1,1.6,2,2
		c0.9,0.4,1.8,0.5,2.8,0.4c0.6-0.1,1-0.3,1.3-0.7c0.2-0.3,0.2-0.6,0.2-0.9c0-0.4-0.1-0.7-0.3-1c-0.3-0.3-0.8-0.5-1.5-0.5
		c-0.1,0-0.2,0-0.4,0c-0.1,0-0.2,0-0.4,0c-0.1,0-0.3,0-0.4,0c-0.1,0-0.2-0.1-0.3-0.2c-0.1-0.1-0.2-0.2-0.2-0.4
		c-0.2-0.7-0.2-1.2-0.2-1.5c0,0,0-0.1,0-0.2l0,0c0.1-0.5,0.4-0.9,0.8-1.1c0.2-0.1,0.5-0.1,1-0.1c0.2,0,0.5,0,1,0l0,0h0.3l0,0l0,0
		c0.5,0,0.9,0,1.2,0c0.2,0,0.4,0,0.8,0c0.6,0,1.1,0,1.4,0c0.3,0.1,0.7,0.2,1,0.5C182.6,88.9,182.6,88.8,182.7,89.2z"/>
	<path class="st11" d="M194.3,85.4v0.2v0.1c-0.1,0.3-0.2,0.5-0.3,0.7c-0.2,0.2-0.4,0.4-0.6,0.5c-0.3,0.1-0.5,0.2-0.6,0.2
		c-0.2,0-0.4,0-0.7,0c-0.5,0-0.9,0-1.1,0.1c-0.3,0.1-0.5,0.2-0.7,0.4s-0.3,0.4-0.4,0.6c-0.1,0.2-0.2,0.4-0.2,0.8s-0.1,0.6-0.1,0.8
		s0,0.5,0,0.8v0.1c0,0.4,0,0.9,0,1.7c0,0.8,0.1,1.5,0,1.8v0.2c0,1.2-0.2,2-0.5,2.5c-0.1,0.2-0.2,0.3-0.3,0.4
		c-0.4,0.4-0.8,0.5-1.4,0.5c-0.1,0-0.3,0-0.4,0h-0.1h-0.2l0,0c-0.2,0-0.4-0.1-0.5-0.2c-0.7-0.4-1.1-1.1-1.1-2.2v-0.1
		c0-0.5,0-1.4-0.1-2.4c0-0.9-0.1-1.5-0.1-2v-0.1v-0.3c0-0.4,0-0.8,0-1.2V89v-0.1c0-0.5,0-1,0.1-1.5c0.2-1.6,1.2-2.7,2.9-3.4
		c2.3-0.9,4.2-0.9,5.5-0.1l0.1,0.1l0.1,0.1l0,0C194.1,84.3,194.3,84.8,194.3,85.4z"/>
	<path class="st11" d="M195.7,81.8c-0.2-0.4-0.3-0.8-0.3-1.2c0.1-0.5,0.3-1,0.7-1.4l0.1-0.1l0.1-0.1c0.3-0.3,0.7-0.5,1.1-0.6
		c0.4-0.1,0.9-0.1,1.3-0.1c0.6,0.1,1.1,0.5,1.3,1.1l0,0l0,0l0.1,0.3l0,0c0,0.1,0,0.2,0,0.2c0.1,0.4,0,0.8-0.1,1.3l0,0l-0.2,0.3v0.1
		c-0.4,0.8-1,1.3-1.8,1.4c-0.2,0.1-0.4,0.1-0.5,0.1c-0.4,0-0.8-0.1-1.2-0.4c-0.1-0.1-0.2-0.2-0.3-0.3c-0.1-0.1-0.2-0.2-0.3-0.3
		l-0.1-0.1L195.7,81.8z M200.1,91c0,1,0.1,1.8,0.1,2.3v0.3v0.1c0,1.2-0.1,2.2-0.4,2.9l-0.1,0.1v0.2c-0.1,0.1-0.1,0.2-0.2,0.3
		c-0.3,0.5-0.6,0.8-1,0.9h-0.2h-0.1c-0.1,0-0.2,0-0.2,0c-0.3,0-0.7-0.1-1.1-0.2c-0.5-0.2-0.9-0.5-1-1c-0.2-0.5-0.3-1-0.3-1.7
		c0-0.5,0-1.2,0-2.2c0-1.5,0-2.6,0-3.3c0-0.1,0-0.3,0-0.5c0-0.3,0-0.6,0-0.8v-0.2v-0.1c0-1.2,0.2-2.1,0.6-2.8l0,0l0,0l0,0l0.1-0.1
		l0.1-0.1c0.6-0.6,1.2-0.9,2.1-0.8c0.8,0.1,1.3,0.5,1.6,1.1c0.2,0.4,0.3,1,0.4,1.5c0,0.6,0,1.1-0.1,1.6c-0.1,0.6-0.1,1.1-0.1,1.4
		c0,0.2,0,0.5,0,0.9L200.1,91z"/>
	<path class="st11" d="M215.9,81c0.2,0.6,0.2,1.4,0.2,2.3c0,0.9,0,1.8,0,2.8c0,1.1,0,2.1,0,3.1v0.1c0,0.5,0,1,0,1.3
		c0,2.5-0.5,4.4-1.5,5.6c-0.2,0.2-0.3,0.4-0.6,0.5l0,0l-0.3,0.3l0,0c-0.2,0.1-0.3,0.2-0.5,0.3l0,0l-0.4,0.2h-0.1
		c-0.9,0.4-2,0.6-3.1,0.6c-1,0-2-0.2-3-0.5c-0.9-0.3-1.7-0.8-2.4-1.5c-0.7-0.7-1.3-1.5-1.7-2.5c-0.6-1.5-0.7-3.1-0.3-4.8
		c0.1-0.4,0.3-0.8,0.5-1.2v-0.1l0.1-0.2l0,0c0.4-0.8,1-1.5,1.6-2.1l0.2-0.1l0,0c1.2-0.9,2.4-1.3,3.8-1.4c0.5,0,1,0,1.5,0.1
		c0.3,0.1,0.6,0.2,1,0.3c0-0.2,0-0.5,0-1v-0.2c0-0.1,0-0.3,0-0.5c0-0.4,0-0.7,0-0.9s0.1-0.5,0.2-0.8c0.1-0.3,0.3-0.6,0.5-0.8
		c0.6-0.6,1.4-0.8,2.5-0.6c0.1,0,0.2,0,0.3,0.1l0,0l0,0l0.3,0.1l0,0c0.5,0.3,0.8,0.7,1,1.3L215.9,81L215.9,81z M209.9,94.1
		c0.9-0.2,1.4-0.9,1.5-2.2c0-0.1,0-0.2,0-0.4c0-0.4,0-0.6,0-0.8s0-0.5,0-0.8s-0.1-0.6-0.2-0.8c-0.1-0.2-0.2-0.4-0.4-0.6
		c-0.1-0.1-0.2-0.2-0.3-0.3c-0.3-0.3-0.7-0.4-1.1-0.4h-0.1h-0.1c-0.5,0-1,0.2-1.3,0.5c-0.6,0.4-0.9,1.1-1.1,2
		c-0.1,0.9,0,1.7,0.3,2.5c0.1,0.2,0.1,0.3,0.2,0.5c0.2,0.3,0.4,0.6,0.6,0.7s0.6,0.2,1,0.2C209.3,94.2,209.6,94.2,209.9,94.1z"/>
</g>
<g>
	<path class="st11" d="M55.2,173.7L55.2,173.7l-0.1,0.2l0,0c-0.1,0.2-0.3,0.3-0.5,0.4c-0.2,0.1-0.5,0.2-0.8,0.2
		c-0.2,0-0.4,0-0.7-0.1c-0.7-0.1-1.1-0.5-1.4-1.2c0-0.1-0.1-0.2-0.1-0.4c-0.1-0.5-0.3-0.8-0.4-0.9c-0.1-0.1-0.1-0.1-0.2-0.1
		c-0.3-0.2-0.9-0.3-1.7-0.3c-0.1,0-0.1,0-0.3,0c-0.4,0-0.8,0-0.9,0.1c-0.1,0-0.3,0.1-0.4,0.2c-0.3,0.2-0.5,0.5-0.7,1.1v0.1l0,0
		c-0.1,0.2-0.2,0.4-0.2,0.6c-0.1,0.1-0.2,0.3-0.3,0.4c-0.1,0.2-0.3,0.3-0.5,0.4c-0.3,0.1-0.6,0.2-1,0.2c-0.3,0-0.7,0-1-0.2
		s-0.6-0.4-0.7-0.8c-0.1-0.2,0-0.5,0.1-0.9c0.4-1.5,1.1-3.8,2.1-6.8l0.2-0.6c0.3-0.7,0.5-1.3,0.6-1.8v-0.1l0.1-0.2v-0.1
		c0.2-0.5,0.4-0.9,0.7-1.2c0.4-0.4,1.1-0.6,2-0.7c1.1,0,1.9,0.2,2.5,0.8c0.3,0.3,0.6,0.8,0.8,1.6c0.2,0.7,0.5,1.5,0.7,2.3l0.1,0.2
		c0.1,0.3,0.2,0.6,0.3,0.9l0.1,0.3l0,0v0.1c0.4,1.3,0.9,3.1,1.5,5.1v0.1l0,0l0,0v0.1l0,0C55.3,173.1,55.3,173.4,55.2,173.7z
		 M49.6,165.3C49.6,165.2,49.5,165.2,49.6,165.3l-0.2-0.1h-0.1l-0.1,0.1c-0.1,0.1-0.1,0.2-0.2,0.3c-0.2,0.5-0.3,1-0.5,1.5
		c0,0.1-0.1,0.2-0.2,0.4c-0.2,0.4-0.3,0.7-0.3,0.8c0,0.2,0.1,0.4,0.3,0.5c0.2,0.1,0.5,0.1,0.7,0.1s0.5-0.1,0.7-0.2
		c0.7-0.4,0.8-1.2,0.3-2.4C50,166,49.8,165.7,49.6,165.3L49.6,165.3z"/>
	<path class="st11" d="M66.3,171.6c0,0.3,0,0.6,0,0.9c0,0.3-0.1,0.6-0.2,0.9c-0.2,0.3-0.4,0.5-0.8,0.6c-0.2,0.1-0.5,0.1-0.8,0.1
		c-0.5,0-1-0.1-1.3-0.4c-0.3-0.2-0.4-0.7-0.4-1.4v-4.6c0-0.5-0.2-0.9-0.5-1.2c-0.1-0.1-0.1-0.1-0.2-0.2c-0.3-0.2-0.7-0.3-1.2-0.3
		h-0.1l0,0c-0.2,0-0.4,0.1-0.5,0.2s-0.2,0.2-0.3,0.4c-0.1,0.1-0.1,0.3-0.2,0.5c0,0.2-0.1,0.4-0.1,0.6s0,0.4,0,0.7v0.3
		c0,1,0,1.7,0,2.1c0,0.1,0,0.3,0,0.5v0.1l0,0v0.1c0,0.3,0,0.6,0,0.8v0.2l0,0c-0.1,0.5-0.2,0.8-0.5,1.1c-0.3,0.3-0.7,0.4-1.3,0.4
		s-1-0.2-1.3-0.4c-0.2-0.2-0.3-0.4-0.4-0.7c-0.1-0.3-0.1-0.6-0.1-0.8s0-0.5,0.1-0.9c0-0.3,0-0.5,0.1-0.6c0-0.5,0-1.3,0-2.3
		c0-0.5,0-0.9,0-1.1c0-0.1,0-0.2,0-0.4c0-0.1,0-0.2,0-0.3l0,0v-0.3l0,0c0-0.5,0.1-0.9,0.2-1.2c0.1-0.2,0.2-0.4,0.4-0.6l0.2-0.2l0,0
		c0.2-0.1,0.4-0.3,0.6-0.3c0.8-0.4,1.9-0.6,3.4-0.6c2.1,0,3.5,0.5,4.3,1.5c0.4,0.6,0.7,1.5,0.8,2.8c0,0.4,0,0.9,0,1.6v0.2
		c0,0.9,0,1.6,0,2L66.3,171.6L66.3,171.6z"/>
	<path class="st11" d="M68.1,162.1c-0.2-0.3-0.2-0.6-0.2-0.9c0-0.4,0.2-0.8,0.5-1.1l0.1-0.1l0.1-0.1c0.3-0.2,0.5-0.4,0.9-0.5
		c0.3-0.1,0.6-0.1,0.9-0.1c0.5,0.1,0.8,0.4,1,0.8l0,0l0,0l0.1,0.2l0,0c0,0.1,0,0.1,0,0.2c0.1,0.3,0,0.6-0.1,1l0,0l-0.1,0.2l0,0
		c-0.3,0.6-0.8,1-1.3,1.1c-0.1,0-0.3,0.1-0.4,0.1c-0.3,0-0.6-0.1-0.9-0.3c-0.1-0.1-0.2-0.1-0.3-0.2
		C68.3,162.3,68.3,162.3,68.1,162.1L68.1,162.1L68.1,162.1z M71.5,169.1c0,0.7,0.1,1.3,0.1,1.8v0.2v0.1c0,0.9-0.1,1.7-0.3,2.2v0.1
		v0.1c-0.1,0.1-0.1,0.2-0.1,0.2c-0.2,0.4-0.5,0.6-0.8,0.7h-0.1h-0.1c-0.1,0-0.1,0-0.2,0c-0.3,0-0.5-0.1-0.8-0.2
		c-0.4-0.2-0.7-0.4-0.8-0.8c-0.1-0.4-0.2-0.8-0.2-1.3c0-0.4,0-0.9,0-1.7c0-1.1,0-2,0-2.5c0-0.1,0-0.2,0-0.3c0-0.2,0-0.4,0-0.6V167
		v-0.1c0-0.9,0.1-1.6,0.5-2.1l0,0l0,0l0,0l0.1-0.1l0.1-0.1c0.4-0.5,0.9-0.7,1.6-0.6c0.6,0.1,1,0.3,1.2,0.8c0.2,0.3,0.3,0.7,0.3,1.2
		c0,0.5,0,0.9-0.1,1.2c-0.1,0.5-0.1,0.8-0.1,1.1c0,0.1,0,0.4,0,0.7L71.5,169.1z"/>
	<path class="st11" d="M88.7,170.3c0.1,0.8,0.1,1.4,0.1,1.8l0,0v0.2v0.1c0,0.4-0.1,0.8-0.3,1.1v0.1c0,0,0,0,0,0.1l-0.1,0.1
		c-0.1,0.1-0.2,0.2-0.2,0.3c-0.2,0.2-0.5,0.3-0.9,0.3c-0.4,0-0.9-0.1-1.4-0.4c-0.2-0.1-0.4-0.3-0.5-0.7c-0.1-0.3-0.2-0.6-0.2-1
		c0-0.3,0-0.7,0-1c0-0.3,0-0.4,0-0.5v-3.4c0-0.3-0.1-0.6-0.4-0.9c-0.2-0.2-0.4-0.3-0.7-0.4c-0.2-0.1-0.5,0-0.7,0.2
		c-0.3,0.2-0.5,0.5-0.6,0.8c-0.1,0.4-0.2,0.7-0.2,1.1c0,0.4,0,0.7,0,1.1c0,0.3,0,0.5,0,0.7c0,0.1,0,0.3,0,0.5c0,0.3,0,0.6,0,1
		c0,0.3,0,0.7-0.1,1c0,0.3-0.1,0.6-0.2,0.9s-0.3,0.5-0.5,0.6c-0.4,0.3-1,0.3-1.7,0.1c-0.5-0.2-0.7-0.5-0.8-1l0,0v-0.2l0,0
		c0-0.2,0-0.3,0-0.4s0-0.3,0-0.6v-0.2c0-0.9,0-1.6,0-2.1c0-0.1,0-0.3,0-0.6c0.1-0.7,0.1-1.2,0-1.5c-0.1-0.4-0.2-0.6-0.4-0.8
		c-0.1-0.1-0.3-0.2-0.4-0.3c-0.3-0.1-0.5-0.1-0.8,0c-0.2,0.1-0.4,0.3-0.6,0.6c-0.2,0.3-0.3,0.6-0.4,0.9c-0.1,0.6-0.1,1.5,0,2.7
		c0,0.6,0.1,1,0.1,1.3c0,0.2,0,0.4,0,0.6v0.1v0.2c-0.1,0.5-0.2,0.9-0.5,1.2l-0.1,0.1l0,0l0,0c-0.2,0.2-0.5,0.3-0.9,0.3
		c-0.7,0-1.2-0.2-1.5-0.5c-0.1-0.1-0.2-0.3-0.3-0.5c-0.1-0.2-0.1-0.4-0.1-0.6c0-0.2,0-0.4,0-0.6c0-0.1,0-0.2,0-0.3
		c0-1,0-2.2-0.1-3.6c0-0.4,0-0.7,0-1.1v-0.1v-0.2l0,0c0.1-0.8,0.4-1.5,0.8-2l0.1-0.2l0,0l0,0c0.3-0.4,0.8-0.7,1.3-0.9
		c0.7-0.3,1.5-0.4,2.3-0.4c0.8,0,1.6,0.2,2.3,0.5c0.1,0,0.2,0.1,0.4,0.2c0.3,0.2,0.6,0.3,0.7,0.3h0.1c0.1,0,0.3-0.1,0.6-0.3
		c0.2-0.1,0.3-0.1,0.4-0.2l0,0l0.2-0.1c0.5-0.2,1.1-0.3,1.7-0.3s1.2,0.1,1.8,0.2c0.6,0.2,1.1,0.5,1.5,0.9c0.3,0.3,0.5,0.6,0.6,0.9
		c0.2,0.4,0.3,0.7,0.3,1.1c0.1,0.3,0.1,0.7,0.1,1.1c0,0.4,0,0.8,0,1.1c0,0.3,0,0.6,0,0.7C88.7,169.5,88.7,169.8,88.7,170.3z"/>
	<path class="st11" d="M99.9,170.2c0,0.4,0,0.8,0,1v0.1v0.2c0,0.5-0.1,0.9-0.2,1.2l-0.1,0.2v0.1c-0.1,0.3-0.3,0.6-0.6,0.7
		c-0.3,0.3-0.9,0.5-1.8,0.6c-0.9,0.1-1.7,0.2-2.4,0.2c-0.9,0-1.7-0.1-2.3-0.3c-0.9-0.3-1.6-0.8-2-1.6v-0.1l-0.1-0.1
		c-0.2-0.4-0.3-0.9-0.3-1.3c0-0.6,0.1-1.1,0.3-1.5l0.1-0.1v-0.1c0.1-0.2,0.3-0.4,0.5-0.6c0.6-0.5,1.5-0.8,2.7-0.9c0.1,0,0.1,0,0.2,0
		c0.3,0,0.6,0,0.8,0c0.2,0,0.4-0.1,0.7-0.2c0.3-0.1,0.4-0.2,0.6-0.4c0.1-0.2,0.2-0.4,0.1-0.5c0-0.1-0.1-0.3-0.3-0.3
		c-0.2-0.1-0.5-0.2-0.8-0.2c-0.2,0-0.4,0-0.7,0c-0.2,0-0.6,0.1-1,0.3c-0.5,0.2-1,0.3-1.3,0.3c-0.4,0-0.7-0.1-1-0.4s-0.4-0.7-0.3-1.2
		c0.1-0.6,0.4-1,0.9-1.3c0.5-0.3,1.2-0.5,2-0.5l0,0c0.4,0,0.9,0,1.3,0c1.6,0.1,2.8,0.6,3.6,1.3h0.1l0.1,0.1l0,0
		c0.3,0.2,0.5,0.5,0.6,0.8c0.3,0.5,0.5,1.1,0.6,1.8l0,0v0.1v0.1c0.1,0.5,0.1,1.1,0.1,1.6C99.9,169.5,99.9,169.8,99.9,170.2z
		 M93.8,170.3c-0.2,0.1-0.4,0.3-0.3,0.6c0,0.3,0.1,0.5,0.3,0.7c0.2,0.2,0.5,0.2,1,0.3c0.1,0,0.1,0,0.2,0l0,0l0,0
		c0.4,0.1,0.7,0,1-0.2c0.3-0.3,0.5-0.6,0.5-0.9c0-0.1,0-0.1,0-0.2c0-0.1-0.1-0.2-0.2-0.3c-0.1-0.1-0.1-0.1-0.2-0.2
		c-0.1,0-0.2-0.1-0.3-0.1c-0.1,0-0.2,0-0.3,0s-0.2,0-0.3,0h-0.1h-0.3C94.4,170,94,170.1,93.8,170.3z"/>
	<path class="st11" d="M110.1,164.2c0.6,0.6,0.9,1.4,0.8,2.3c0,0.3-0.1,0.5-0.3,0.8c-0.2,0.2-0.4,0.3-0.7,0.3c-0.1,0-0.2,0-0.2,0
		l0,0h-0.2l0,0c-0.3-0.1-0.6-0.2-0.9-0.5l-0.1-0.1l0,0l0,0l-0.1-0.1c-0.2-0.2-0.4-0.3-0.5-0.4s-0.3-0.2-0.5-0.2
		c-0.2-0.1-0.4-0.1-0.5-0.1c-0.3,0-0.6,0.1-0.8,0.3c-0.4,0.3-0.7,0.7-0.9,1.3c-0.3,0.7-0.4,1.5-0.2,2.2l0,0c0.1,0.8,0.5,1.3,1,1.6
		c0.2,0.1,0.5,0.2,0.8,0.2c0.4,0,0.9-0.1,1.4-0.3c0.2-0.1,0.4-0.2,0.7-0.3c0.2-0.1,0.3-0.1,0.4-0.2c0.6-0.3,1-0.2,1.3,0.2
		c0.2,0.3,0.3,0.6,0.3,1.1c0,0.5-0.2,0.9-0.4,1.2c-0.6,0.8-1.6,1.2-3,1.2c-0.6,0-1.2-0.1-1.8-0.2h-0.1h-0.2c-0.1,0-0.2-0.1-0.3-0.1
		c-0.2-0.1-0.5-0.2-0.7-0.3l-0.2-0.1c-0.7-0.4-1.3-0.8-1.7-1.4c-0.5-0.6-0.8-1.2-1-2c-0.3-1.3-0.2-2.5,0.4-3.7s1.4-2.1,2.7-2.8
		c0.5-0.3,1.1-0.5,1.7-0.7h0.1h0.1c0.8-0.2,1.6-0.1,2.3,0.1l0,0h0.1h0.1C109.1,163.4,109.7,163.8,110.1,164.2z"/>
	<path class="st11" d="M112.5,162.1c-0.2-0.3-0.2-0.6-0.2-0.9c0-0.4,0.2-0.8,0.5-1.1l0.1-0.1l0.1-0.1c0.3-0.2,0.5-0.4,0.9-0.5
		c0.3-0.1,0.6-0.1,0.9-0.1c0.5,0.1,0.8,0.4,1,0.8l0,0l0,0l0.1,0.2l0,0c0,0.1,0,0.1,0,0.2c0.1,0.3,0,0.6-0.1,1l0,0l-0.1,0.2l0,0
		c-0.3,0.6-0.8,1-1.3,1.1c-0.1,0-0.3,0.1-0.4,0.1c-0.3,0-0.6-0.1-0.9-0.3c-0.1-0.1-0.2-0.1-0.3-0.2
		C112.7,162.3,112.7,162.3,112.5,162.1L112.5,162.1L112.5,162.1z M115.8,169.1c0,0.7,0.1,1.3,0.1,1.8v0.2v0.1c0,0.9-0.1,1.7-0.3,2.2
		v0.1v0.1c-0.1,0.1-0.1,0.2-0.1,0.2c-0.2,0.4-0.5,0.6-0.8,0.7h-0.1h-0.1c-0.1,0-0.1,0-0.2,0c-0.3,0-0.5-0.1-0.8-0.2
		c-0.4-0.2-0.7-0.4-0.8-0.8c-0.1-0.4-0.2-0.8-0.2-1.3c0-0.4,0-0.9,0-1.7c0-1.1,0-2,0-2.5c0-0.1,0-0.2,0-0.3c0-0.2,0-0.4,0-0.6V167
		v-0.1c0-0.9,0.1-1.6,0.5-2.1l0,0l0,0l0,0l0.1-0.1l0.1-0.1c0.4-0.5,0.9-0.7,1.6-0.6c0.6,0.1,1,0.3,1.2,0.8c0.2,0.3,0.3,0.7,0.3,1.2
		c0,0.5,0,0.9-0.1,1.2c-0.1,0.5-0.1,0.8-0.1,1.1c0,0.1,0,0.4,0,0.7L115.8,169.1z"/>
	<path class="st11" d="M127.9,167.3c0.1,0.5,0.2,1,0.1,1.5c0,0.2,0,0.4-0.1,0.6c-0.2,0.7-0.5,1.3-0.9,2l-0.1,0.1l-0.1,0.1
		c-0.3,0.3-0.6,0.7-0.9,1l-0.1,0.1l-0.1,0.1c-1.2,1-2.5,1.5-3.8,1.5c-0.6,0-1.1-0.1-1.6-0.3s-1-0.5-1.5-0.8
		c-0.1-0.1-0.1-0.1-0.1-0.1c-0.7-0.7-1.2-1.5-1.4-2.6c-0.2-1.1-0.1-2.1,0.3-3.1c0.3-0.8,0.8-1.6,1.4-2.2c0.6-0.6,1.4-1.1,2.2-1.4
		h0.1h0.1c0.4-0.1,0.8-0.2,1.2-0.2h0.1h0.1c0.9,0,1.7,0.2,2.5,0.6c0.4,0.2,0.7,0.5,1,0.8c0.1,0.1,0.1,0.1,0.2,0.2l0.1,0.1l0.1,0.1
		c0.5,0.6,0.8,1.2,1,1.9L127.9,167.3L127.9,167.3z M121.1,169.8c0.1,0.3,0.3,0.5,0.6,0.7c0.3,0.2,0.5,0.3,0.8,0.3
		c0.5,0.1,0.9-0.1,1.2-0.5c0.2-0.3,0.4-0.6,0.6-1c0.1-0.4,0.2-0.8,0.2-1.2s-0.2-0.8-0.5-1.1c-0.3-0.3-0.7-0.4-1.1-0.4
		c-0.3,0-0.6,0.2-0.9,0.4c-0.3,0.2-0.5,0.5-0.7,0.8c-0.1,0.2-0.2,0.3-0.2,0.4c-0.1,0.5-0.1,1,0,1.4
		C121.1,169.6,121.1,169.7,121.1,169.8z"/>
	<path class="st11" d="M139.4,171.6c0,0.3,0,0.6,0,0.9c0,0.3-0.1,0.6-0.2,0.9c-0.2,0.3-0.4,0.5-0.8,0.6c-0.2,0.1-0.5,0.1-0.8,0.1
		c-0.5,0-1-0.1-1.3-0.4c-0.3-0.2-0.4-0.7-0.4-1.4v-4.6c0-0.5-0.2-0.9-0.5-1.2c-0.1-0.1-0.1-0.1-0.2-0.2c-0.3-0.2-0.7-0.3-1.2-0.3
		h-0.1l0,0c-0.2,0-0.4,0.1-0.5,0.2c-0.1,0.1-0.2,0.2-0.3,0.4c-0.1,0.1-0.1,0.3-0.2,0.5c0,0.2-0.1,0.4-0.1,0.6s0,0.4,0,0.7v0.3
		c0,1,0,1.7,0,2.1c0,0.1,0,0.3,0,0.5v0.1l0,0v0.1c0,0.3,0,0.6,0,0.8v0.2l0,0c-0.1,0.5-0.2,0.8-0.5,1.1c-0.3,0.3-0.7,0.4-1.3,0.4
		s-1-0.2-1.3-0.4c-0.2-0.2-0.3-0.4-0.4-0.7c-0.1-0.3-0.1-0.6-0.1-0.8s0-0.5,0.1-0.9c0-0.3,0-0.5,0.1-0.6c0-0.5,0-1.3,0-2.3
		c0-0.5,0-0.9,0-1.1c0-0.1,0-0.2,0-0.4c0-0.1,0-0.2,0-0.3l0,0v-0.3l0,0c0-0.5,0.1-0.9,0.2-1.2c0.1-0.2,0.2-0.4,0.4-0.6l0.2-0.2l0,0
		c0.2-0.1,0.4-0.3,0.6-0.3c0.8-0.4,1.9-0.6,3.4-0.6c2.1,0,3.5,0.5,4.3,1.5c0.4,0.6,0.7,1.5,0.8,2.8c0,0.4,0,0.9,0,1.6v0.2
		c0,0.9,0,1.6,0,2L139.4,171.6L139.4,171.6z"/>
	<path class="st11" d="M150.3,173l-0.1,0.2l0,0l0,0c-0.2,0.3-0.5,0.5-0.8,0.6c-0.3,0.2-0.7,0.3-1,0.4c-0.6,0.1-1.2,0.2-1.7,0.2
		c-1.4,0-2.6-0.3-3.6-1c-0.6-0.4-1-0.8-1.4-1.3c-0.4-0.5-0.6-1.1-0.8-1.7c0-0.2-0.1-0.4-0.1-0.7v-0.2l0,0c0-0.4,0-0.8,0-1.2v-0.1
		V168l0,0c0.1-0.6,0.2-1.1,0.4-1.5c0.3-0.8,0.8-1.4,1.5-1.9l0,0l0.2-0.2l0,0c0.5-0.3,1-0.5,1.5-0.7l0,0h0.2l0,0c1-0.2,2-0.2,2.9,0.1
		c1,0.3,1.7,0.8,2.1,1.5c0.4,0.7,0.6,1.5,0.5,2.5c-0.1,1.1-1.2,1.8-3.3,2.1c-0.1,0-0.3,0.1-0.6,0.1c-0.7,0.1-1.2,0.2-1.5,0.3
		c-0.2,0.1-0.3,0.2-0.4,0.3c-0.1,0.1,0,0.3,0,0.4s0.1,0.2,0.2,0.3c0.2,0.2,0.4,0.3,0.7,0.4c0.5,0.2,1.1,0.2,1.7,0.1
		c0.6-0.1,1.1-0.2,1.6-0.5c0.1,0,0.1,0,0.2-0.1l0,0l0,0l0.2-0.1l0,0c0.6-0.1,1,0.1,1.2,0.5C150.6,172.1,150.6,172.6,150.3,173z
		 M147.2,166.4c-0.3-0.2-0.7-0.2-1.1-0.2c-0.6,0-1.2,0.2-1.6,0.6c-0.2,0.2-0.3,0.4-0.3,0.7c0,0.3,0.2,0.4,0.5,0.6
		c0.2,0.1,0.5,0.1,0.8,0.1c0.3,0,0.6-0.1,0.9-0.1c0.3-0.1,0.5-0.1,0.7-0.2c0.1-0.1,0.2-0.1,0.4-0.2c0.2-0.2,0.3-0.3,0.3-0.5
		c0-0.1,0-0.2-0.2-0.4C147.5,166.5,147.4,166.4,147.2,166.4z"/>
	<path class="st11" d="M158.6,167.8c0,0,0.3,0.3,0.8,0.8c0.5,0.5,0.8,1.3,0.8,2.1c0,1.1-0.4,1.9-1.2,2.5s-1.9,0.9-3.5,0.9
		c-0.6,0-1.1,0-1.6-0.1c-0.2,0-0.4-0.1-0.6-0.1h-0.1l-0.2-0.1c-0.4-0.1-0.7-0.3-1-0.5l0,0l-0.1-0.1l0,0c-0.1-0.1-0.2-0.2-0.3-0.3
		c-0.3-0.5-0.3-0.9,0-1.4c0.3-0.5,0.8-0.6,1.3-0.5c0.2,0.1,0.4,0.1,0.8,0.3c0.4,0.1,0.6,0.2,0.8,0.3c0.2,0.1,0.4,0.1,0.7,0.1
		c0.3,0,0.6-0.1,0.8-0.2c0.1-0.1,0.2-0.1,0.3-0.2c0.2-0.1,0.3-0.3,0.3-0.4s-0.1-0.2-0.2-0.4h-0.1c-0.2-0.2-0.7-0.4-1.4-0.5
		c-0.2,0-0.3,0-0.4-0.1c-1.1-0.2-1.9-0.6-2.5-1.1c-0.3-0.3-0.5-0.6-0.7-1l0,0l0,0l-0.1-0.2l0,0c-0.1-0.3-0.1-0.6-0.1-0.9v-0.2v-0.1
		c0.1-0.8,0.4-1.5,1.1-2.1s1.5-0.9,2.6-1l0,0h0.3l0,0c0.2,0,0.4,0,0.6,0l0,0h0.2l0,0c0.5,0,1,0.1,1.4,0.2c0.2,0.1,0.5,0.2,0.7,0.3
		c0.2,0.1,0.5,0.3,0.7,0.5s0.4,0.4,0.5,0.6c0.1,0.3,0.1,0.6,0,0.9c-0.2,0.4-0.6,0.6-1,0.6h-0.1H158c-0.2,0-0.4-0.1-0.8-0.2
		c-0.1,0-0.2,0-0.2-0.1c-0.1,0-0.2-0.1-0.3-0.1c-0.4-0.1-0.8-0.1-1.3-0.1c-0.5,0-0.8,0.1-0.9,0.3c-0.1,0.1-0.1,0.3,0,0.5
		c0,0.1,0.1,0.2,0.2,0.3c0.1,0.1,0.2,0.2,0.3,0.2c0.1,0.1,0.2,0.1,0.4,0.1s0.3,0.1,0.4,0.1c0.1,0,0.2,0,0.4,0.1c0.1,0,0.2,0,0.2,0
		C158.1,167.7,158.6,167.8,158.6,167.8z"/>
	<path class="st11" d="M176.4,164.2c0.6,0.6,0.9,1.4,0.8,2.3c0,0.3-0.1,0.5-0.3,0.8c-0.2,0.2-0.4,0.3-0.7,0.3c-0.1,0-0.2,0-0.2,0
		l0,0h-0.2l0,0c-0.3-0.1-0.6-0.2-0.9-0.5l-0.1-0.1l0,0l0,0l-0.1-0.1c-0.2-0.2-0.4-0.3-0.5-0.4c-0.1-0.1-0.3-0.2-0.5-0.2
		c-0.2-0.1-0.4-0.1-0.5-0.1c-0.3,0-0.6,0.1-0.8,0.3c-0.4,0.3-0.7,0.7-0.9,1.3c-0.3,0.7-0.4,1.5-0.2,2.2l0,0c0.1,0.8,0.5,1.3,1,1.6
		c0.2,0.1,0.5,0.2,0.8,0.2c0.4,0,0.9-0.1,1.4-0.3c0.2-0.1,0.4-0.2,0.7-0.3c0.2-0.1,0.3-0.1,0.4-0.2c0.6-0.3,1-0.2,1.3,0.2
		c0.2,0.3,0.3,0.6,0.3,1.1c0,0.5-0.2,0.9-0.4,1.2c-0.6,0.8-1.6,1.2-3,1.2c-0.6,0-1.2-0.1-1.8-0.2h-0.1h-0.2c-0.1,0-0.2-0.1-0.3-0.1
		c-0.2-0.1-0.5-0.2-0.7-0.3l-0.2-0.1c-0.7-0.4-1.3-0.8-1.7-1.4c-0.5-0.6-0.8-1.2-1-2c-0.3-1.3-0.2-2.5,0.4-3.7
		c0.6-1.2,1.4-2.1,2.7-2.8c0.5-0.3,1.1-0.5,1.7-0.7h0.1h0.1c0.8-0.2,1.6-0.1,2.3,0.1l0,0h0.1h0.1C175.4,163.4,176,163.8,176.4,164.2
		z"/>
	<path class="st11" d="M188.9,167.3c0.1,0.5,0.2,1,0.1,1.5c0,0.2,0,0.4-0.1,0.6c-0.2,0.7-0.5,1.3-0.9,2l-0.1,0.1l-0.1,0.1
		c-0.3,0.3-0.6,0.7-0.9,1l-0.1,0.1l-0.1,0.1c-1.2,1-2.5,1.5-3.8,1.5c-0.6,0-1.1-0.1-1.6-0.3c-0.5-0.2-1-0.5-1.5-0.8
		c-0.1-0.1-0.1-0.1-0.1-0.1c-0.7-0.7-1.2-1.5-1.4-2.6c-0.2-1.1-0.1-2.1,0.3-3.1c0.3-0.8,0.8-1.6,1.4-2.2c0.6-0.6,1.4-1.1,2.2-1.4
		h0.1h0.1c0.4-0.1,0.8-0.2,1.2-0.2h0.1h0.1c0.9,0,1.7,0.2,2.5,0.6c0.4,0.2,0.7,0.5,1,0.8c0.1,0.1,0.1,0.1,0.2,0.2l0.1,0.1l0.1,0.1
		c0.5,0.6,0.8,1.2,1,1.9L188.9,167.3L188.9,167.3z M182.1,169.8c0.1,0.3,0.3,0.5,0.6,0.7c0.3,0.2,0.5,0.3,0.8,0.3
		c0.5,0.1,0.9-0.1,1.2-0.5c0.2-0.3,0.4-0.6,0.6-1c0.1-0.4,0.2-0.8,0.2-1.2s-0.2-0.8-0.5-1.1c-0.3-0.3-0.7-0.4-1.1-0.4
		c-0.3,0-0.6,0.2-0.9,0.4c-0.3,0.2-0.5,0.5-0.7,0.8c-0.1,0.2-0.2,0.3-0.2,0.4c-0.1,0.5-0.1,1,0,1.4
		C182.1,169.6,182.1,169.7,182.1,169.8z"/>
	<path class="st11" d="M200.3,171.6c0,0.3,0,0.6,0,0.9c0,0.3-0.1,0.6-0.2,0.9c-0.2,0.3-0.4,0.5-0.8,0.6c-0.2,0.1-0.5,0.1-0.8,0.1
		c-0.5,0-1-0.1-1.3-0.4c-0.3-0.2-0.4-0.7-0.4-1.4v-4.6c0-0.5-0.2-0.9-0.5-1.2c-0.1-0.1-0.1-0.1-0.2-0.2c-0.3-0.2-0.7-0.3-1.2-0.3
		h-0.1l0,0c-0.2,0-0.4,0.1-0.5,0.2c-0.1,0.1-0.2,0.2-0.3,0.4c-0.1,0.1-0.1,0.3-0.2,0.5c0,0.2-0.1,0.4-0.1,0.6s0,0.4,0,0.7v0.3
		c0,1,0,1.7,0,2.1c0,0.1,0,0.3,0,0.5v0.1l0,0v0.1c0,0.3,0,0.6,0,0.8v0.2l0,0c-0.1,0.5-0.2,0.8-0.5,1.1c-0.3,0.3-0.7,0.4-1.3,0.4
		s-1-0.2-1.3-0.4c-0.2-0.2-0.3-0.4-0.4-0.7c-0.1-0.3-0.1-0.6-0.1-0.8s0-0.5,0.1-0.9c0-0.3,0-0.5,0.1-0.6c0-0.5,0-1.3,0-2.3
		c0-0.5,0-0.9,0-1.1c0-0.1,0-0.2,0-0.4c0-0.1,0-0.2,0-0.3l0,0v-0.3l0,0c0-0.5,0.1-0.9,0.2-1.2c0.1-0.2,0.2-0.4,0.4-0.6l0.2-0.2l0,0
		c0.2-0.1,0.4-0.3,0.6-0.3c0.8-0.4,1.9-0.6,3.4-0.6c2.1,0,3.5,0.5,4.3,1.5c0.4,0.6,0.7,1.5,0.8,2.8c0,0.4,0,0.9,0,1.6v0.2
		c0,0.9,0,1.6,0,2L200.3,171.6L200.3,171.6z"/>
	<path class="st11" d="M60.6,194.3c0.3,0.1,0.5,0.2,0.6,0.5c0.2,0.2,0.2,0.5,0.2,0.8c-0.1,0.5-0.4,0.9-0.9,1.3
		c-0.7,0.4-1.7,0.6-3.1,0.6c-1.7,0-3.1-0.4-4.2-1.2c-0.7-0.5-1.3-1.3-1.8-2.3c-0.2-0.4-0.4-0.8-0.5-1.3l0,0l-0.1-0.3l0,0
		c0-0.2-0.1-0.3-0.1-0.5l0,0l-0.1-0.3l0,0c-0.1-0.6-0.1-1.2-0.1-1.7c0.1-1,0.4-1.9,0.8-2.8c0.4-0.9,1.1-1.5,1.9-2.1
		c0.1,0,0.1-0.1,0.2-0.1c0.3-0.2,0.7-0.4,1.1-0.6c0.8-0.3,1.6-0.4,2.5-0.4c1.3,0,2.3,0.2,3,0.6c0.1,0.1,0.2,0.2,0.4,0.3l0,0l0,0
		l0.2,0.2l0,0c0.4,0.4,0.5,0.8,0.5,1.1c0,0.2-0.1,0.4-0.3,0.6c-0.3,0.3-0.6,0.4-1.1,0.4c0,0,0,0-0.1,0l0,0l-0.3-0.1l0,0
		c-0.2,0-0.4-0.1-0.7-0.2c-0.1,0-0.2,0-0.2-0.1c-0.5-0.1-1.1-0.2-1.6,0c-0.5,0.1-1,0.3-1.4,0.7h-0.1c-0.3,0.2-0.5,0.5-0.7,0.8
		c-0.3,0.5-0.5,1.2-0.6,1.9c-0.1,0.7,0,1.4,0.3,1.9c0.2,0.5,0.5,0.9,0.9,1.3c0.4,0.4,0.8,0.7,1.3,0.9s1.1,0.2,1.7,0.1
		c0.1,0,0.3-0.1,0.6-0.1c0.5-0.1,0.9-0.2,1.2-0.2c0,0,0,0,0.1,0l0,0L60.6,194.3L60.6,194.3z"/>
	<path class="st11" d="M69.4,190.6c0,0,0.3,0.3,0.8,0.8c0.5,0.5,0.8,1.3,0.8,2.1c0,1.1-0.4,1.9-1.2,2.5s-1.9,0.9-3.5,0.9
		c-0.6,0-1.1,0-1.6-0.1c-0.2,0-0.4-0.1-0.6-0.1H64l-0.2-0.1c-0.4-0.1-0.7-0.3-1-0.5l0,0l-0.1-0.1l0,0c-0.1-0.1-0.2-0.2-0.3-0.3
		c-0.3-0.5-0.3-0.9,0-1.4c0.3-0.5,0.8-0.6,1.3-0.5c0.2,0.1,0.4,0.1,0.8,0.3c0.4,0.1,0.6,0.2,0.8,0.3c0.2,0.1,0.4,0.1,0.7,0.1
		c0.3,0,0.6-0.1,0.8-0.2c0.1-0.1,0.2-0.1,0.3-0.2c0.2-0.1,0.3-0.3,0.3-0.4c0-0.1-0.1-0.2-0.2-0.4h-0.1c-0.2-0.2-0.7-0.4-1.4-0.5
		c-0.2,0-0.3,0-0.4-0.1c-1.1-0.2-1.9-0.6-2.5-1.1c-0.3-0.3-0.5-0.6-0.7-1l0,0l0,0l-0.1-0.2l0,0c-0.1-0.3-0.1-0.6-0.1-0.9v-0.2v-0.1
		c0.1-0.8,0.4-1.5,1.1-2.1c0.7-0.6,1.5-0.9,2.6-1l0,0h0.3l0,0c0.2,0,0.4,0,0.6,0l0,0h0.2l0,0c0.5,0,1,0.1,1.4,0.2
		c0.2,0.1,0.5,0.2,0.7,0.3c0.2,0.1,0.5,0.3,0.7,0.5s0.4,0.4,0.5,0.6c0.1,0.3,0.1,0.6,0,0.9c-0.2,0.4-0.6,0.6-1,0.6h-0.1h-0.1
		c-0.2,0-0.4-0.1-0.8-0.2c-0.1,0-0.2,0-0.2-0.1c-0.1,0-0.2-0.1-0.3-0.1c-0.4-0.1-0.8-0.1-1.3-0.1s-0.8,0.1-0.9,0.3
		c-0.1,0.1-0.1,0.3,0,0.5c0,0.1,0.1,0.2,0.2,0.3c0.1,0.1,0.2,0.2,0.3,0.2c0.1,0.1,0.2,0.1,0.4,0.1c0.2,0,0.3,0.1,0.4,0.1
		s0.2,0,0.4,0.1c0.1,0,0.2,0,0.2,0C68.8,190.5,69.4,190.6,69.4,190.6z"/>
	<path class="st11" d="M79.3,190.6c0,0,0.3,0.3,0.8,0.8c0.5,0.5,0.8,1.3,0.8,2.1c0,1.1-0.4,1.9-1.2,2.5c-0.8,0.6-1.9,0.9-3.5,0.9
		c-0.6,0-1.1,0-1.6-0.1c-0.2,0-0.4-0.1-0.6-0.1h-0.1l-0.2-0.1c-0.4-0.1-0.7-0.3-1-0.5l0,0l-0.1-0.1l0,0c-0.1-0.1-0.2-0.2-0.3-0.3
		c-0.3-0.5-0.3-0.9,0-1.4c0.3-0.5,0.8-0.6,1.3-0.5c0.2,0.1,0.4,0.1,0.8,0.3c0.4,0.1,0.6,0.2,0.8,0.3c0.2,0.1,0.4,0.1,0.7,0.1
		c0.3,0,0.6-0.1,0.8-0.2c0.1-0.1,0.2-0.1,0.3-0.2c0.2-0.1,0.3-0.3,0.3-0.4c0-0.1-0.1-0.2-0.2-0.4H77c-0.2-0.2-0.7-0.4-1.4-0.5
		c-0.2,0-0.3,0-0.4-0.1c-1.1-0.2-1.9-0.6-2.5-1.1c-0.3-0.3-0.5-0.6-0.7-1l0,0l0,0l-0.1-0.2l0,0c-0.1-0.3-0.1-0.6-0.1-0.9v-0.2v-0.1
		c0.1-0.8,0.4-1.5,1.1-2.1s1.5-0.9,2.6-1l0,0h0.3l0,0c0.2,0,0.4,0,0.6,0l0,0h0.2l0,0c0.5,0,1,0.1,1.4,0.2c0.2,0.1,0.5,0.2,0.7,0.3
		c0.2,0.1,0.5,0.3,0.7,0.5s0.4,0.4,0.5,0.6c0.1,0.3,0.1,0.6,0,0.9c-0.2,0.4-0.6,0.6-1,0.6h-0.1h-0.1c-0.2,0-0.4-0.1-0.8-0.2
		c-0.1,0-0.2,0-0.2-0.1c-0.1,0-0.2-0.1-0.3-0.1c-0.4-0.1-0.8-0.1-1.3-0.1s-0.8,0.1-0.9,0.3c-0.1,0.1-0.1,0.3,0,0.5
		c0,0.1,0.1,0.2,0.2,0.3c0.1,0.1,0.2,0.2,0.3,0.2c0.1,0.1,0.2,0.1,0.4,0.1c0.2,0,0.3,0.1,0.4,0.1s0.2,0,0.4,0.1c0.1,0,0.2,0,0.2,0
		C78.8,190.5,79.3,190.6,79.3,190.6z"/>
	<path class="st11" d="M98,187.5c0.1,0.4,0,1-0.3,1.9c0,0.2-0.1,0.3-0.1,0.4v0.1l-0.1,0.3l0,0c-0.1,0.2-0.1,0.5-0.2,0.7l-0.1,0.2
		v0.1l0,0c-0.2,0.6-0.4,1.3-0.7,2.1c-0.4,1-0.8,1.9-1.2,2.7l0,0l-0.1,0.2v0.1c-0.2,0.4-0.4,0.7-0.6,1v0.1l-0.1,0.1
		c-0.5,0.8-1.1,1.6-1.7,2.1c-0.2,0.2-0.4,0.4-0.6,0.5c-0.2,0.1-0.5,0.3-0.7,0.3c-0.3,0.1-0.5,0.1-0.7,0.1c-0.4,0-0.7-0.1-1-0.3l0,0
		l-0.1-0.1l-0.1-0.1l0,0c-0.2-0.2-0.3-0.4-0.4-0.7c0-0.1-0.1-0.2-0.1-0.3l0,0v-0.2l0,0c0-0.2,0.1-0.4,0.2-0.5
		c0.1-0.1,0.3-0.3,0.5-0.4c0.2-0.2,0.3-0.3,0.4-0.4c0.1-0.1,0.3-0.3,0.4-0.6c0.1-0.2,0.2-0.3,0.3-0.4c0.1-0.2,0.1-0.4,0-0.6
		c-0.1-0.3-0.3-0.6-0.6-1.1c-0.2-0.4-0.4-0.6-0.5-0.8c-0.3-0.7-0.7-1.6-1.1-2.7c-0.1-0.1-0.1-0.3-0.2-0.6c-0.5-1.2-0.7-2.1-0.8-2.8
		c-0.1-0.5,0-0.9,0.3-1.2c0.1-0.1,0.2-0.2,0.3-0.3c0.3-0.2,0.7-0.3,1.2-0.2c0.1,0,0.2,0,0.3,0.1l-0.1-0.1l0.5,0.2
		c0.2,0.1,0.3,0.2,0.4,0.3c0.2,0.2,0.3,0.5,0.5,1c0.3,0.8,0.5,1.7,0.8,2.6l0.1,0.3c0,0.1,0.1,0.3,0.2,0.6c0.2,0.7,0.3,1.1,0.5,1.4
		l0,0c0,0.1,0.1,0.1,0.1,0.1c0.1,0.1,0.2,0.1,0.2,0.1s0,0,0.1-0.1c0.3-0.7,0.6-1.8,1-3.3c0.1-0.2,0.1-0.4,0.2-0.6v-0.2
		c0.1-0.3,0.1-0.6,0.2-0.7c0.1-0.2,0.1-0.4,0.3-0.6c0.1-0.3,0.3-0.5,0.4-0.6c0.1-0.1,0.3-0.3,0.6-0.4c0.2-0.1,0.5-0.1,0.8-0.1
		c0.1,0,0.2,0,0.4,0.1h0.1l0.1,0.1c0.3,0.1,0.5,0.3,0.6,0.5S98,187.2,98,187.5L98,187.5L98,187.5z"/>
	<path class="st11" d="M111.1,185.6c0.1,1.7,0.1,3.6,0,5.7v0.2c0,0.2,0,0.4,0,0.8v0.1v0.1v0.2v0.1c0,0.8-0.1,1.5-0.2,2.1
		s-0.4,1.1-0.9,1.5l-0.1,0.1l-0.3,0.2l0,0c-0.4,0.3-0.9,0.5-1.4,0.6l0,0l-0.3,0.1l0,0c-0.3,0.1-0.7,0.1-1,0.1l0,0
		c-0.7,0-1.3-0.1-1.7-0.4c-0.3-0.2-0.5-0.4-0.7-0.7c-0.2-0.3-0.3-0.5-0.2-0.8c0-0.2,0-0.3,0.1-0.4c0.1-0.1,0.1-0.2,0.2-0.3
		c0.1-0.1,0.2-0.1,0.3-0.2c0.1,0,0.2-0.1,0.4-0.1c0.2,0,0.3,0,0.4,0s0.2,0,0.4,0c0.2,0,0.3,0,0.4,0c0.3,0,0.5-0.1,0.7-0.2
		c0.2-0.1,0.3-0.3,0.5-0.5s0.2-0.5,0.2-0.8v-5.7c0-0.1,0-0.3,0-0.5c0-0.3,0-0.5,0-0.7l0,0v-0.3c0-0.8,0.2-1.3,0.5-1.5
		c0.1-0.1,0.3-0.1,0.6-0.2c0.1,0,0.2,0,0.4,0h0.4c0.1,0,0.2,0,0.3,0c0.4,0,0.7,0.1,0.9,0.3C110.9,184.7,111.1,185.1,111.1,185.6z"/>
	<path class="st11" d="M122.4,193c0,0.4,0,0.8,0,1v0.1v0.2c0,0.5-0.1,0.9-0.2,1.2l-0.1,0.2v0.1c-0.1,0.3-0.3,0.6-0.6,0.7
		c-0.3,0.3-0.9,0.5-1.8,0.6c-0.9,0.1-1.7,0.2-2.4,0.2c-0.9,0-1.7-0.1-2.3-0.3c-0.9-0.3-1.6-0.8-2-1.6v-0.1l-0.1-0.1
		c-0.2-0.4-0.3-0.9-0.3-1.3c0-0.6,0.1-1.1,0.3-1.5l0.1-0.1v-0.1c0.1-0.2,0.3-0.4,0.5-0.6c0.6-0.5,1.5-0.8,2.7-0.9c0.1,0,0.1,0,0.2,0
		c0.3,0,0.6,0,0.8,0c0.2,0,0.4-0.1,0.7-0.2c0.3-0.1,0.4-0.2,0.6-0.4c0.1-0.2,0.2-0.4,0.1-0.5c0-0.1-0.1-0.3-0.3-0.3
		c-0.2-0.1-0.5-0.2-0.8-0.2c-0.2,0-0.4,0-0.7,0c-0.2,0-0.6,0.1-1,0.3c-0.5,0.2-1,0.3-1.3,0.3c-0.4,0-0.7-0.1-1-0.4s-0.4-0.7-0.3-1.2
		c0.1-0.6,0.4-1,0.9-1.3c0.5-0.3,1.2-0.5,2-0.5l0,0c0.4,0,0.9,0,1.3,0c1.6,0.1,2.8,0.6,3.6,1.3h0.1l0.1,0.1l0,0
		c0.3,0.2,0.5,0.5,0.6,0.8c0.3,0.5,0.5,1.1,0.6,1.8l0,0v0.1v0.1c0.1,0.5,0.1,1.1,0.1,1.6C122.4,192.3,122.4,192.6,122.4,193z
		 M116.3,193.1c-0.2,0.1-0.4,0.3-0.3,0.6c0,0.3,0.1,0.5,0.3,0.7c0.2,0.2,0.5,0.2,1,0.3c0.1,0,0.1,0,0.2,0l0,0l0,0
		c0.4,0.1,0.7,0,1-0.2c0.3-0.3,0.5-0.6,0.5-0.9c0-0.1,0-0.1,0-0.2s-0.1-0.2-0.2-0.3c-0.1-0.1-0.1-0.1-0.2-0.2
		c-0.1,0-0.2-0.1-0.3-0.1c-0.1,0-0.2,0-0.3,0s-0.2,0-0.3,0h-0.1h-0.3C116.9,192.8,116.5,192.9,116.3,193.1z"/>
	<path class="st11" d="M133.3,187c0.1,0.2,0.1,0.3,0.1,0.5s0,0.3,0,0.5s-0.1,0.4-0.1,0.5c0,0.1-0.1,0.3-0.2,0.5
		c-0.1,0.2-0.1,0.3-0.1,0.4c-0.5,1.8-1,3.3-1.5,4.4c-0.3,0.7-0.6,1.3-1,1.8l0,0l-0.1,0.2l0,0c-0.2,0.3-0.4,0.5-0.6,0.7l0,0l-0.2,0.1
		l0,0c-0.4,0.3-0.8,0.4-1.2,0.4s-0.8-0.1-1.1-0.3s-0.6-0.4-0.9-0.7c-0.3-0.3-0.5-0.6-0.7-1s-0.3-0.8-0.4-1c-0.1-0.3-0.2-0.7-0.4-1.1
		c-0.1-0.4-0.2-0.6-0.3-0.8c0-0.1-0.1-0.3-0.2-0.6c-0.4-1.1-0.7-2-0.8-2.6c0-0.1-0.1-0.2-0.1-0.3l0,0l-0.1-0.3l0,0
		c-0.1-0.6,0-1.1,0.3-1.4c0.2-0.3,0.4-0.4,0.8-0.5l0,0c0.1,0,0.3,0,0.5,0c0.4,0,0.7,0.2,1,0.5c0.3,0.3,0.5,0.6,0.6,1
		c0.3,1,0.6,1.9,0.8,2.7c0,0.1,0.1,0.4,0.2,0.7c0.1,0.5,0.2,0.9,0.3,1.1c0.1,0.2,0.2,0.4,0.2,0.5c0.1,0.3,0.3,0.4,0.4,0.4
		s0.2-0.1,0.3-0.3c0.1-0.2,0.2-0.6,0.2-1.2c0-0.2,0-0.4,0.1-0.5c0-0.1,0-0.3,0.1-0.5c0.1-0.5,0.1-0.9,0.2-1.1
		c0.1-0.3,0.1-0.6,0.2-1.1c0.1-0.4,0.3-0.8,0.4-1.1c0.2-0.3,0.4-0.6,0.7-0.8c0.3-0.2,0.6-0.4,1-0.4c0,0,0,0,0.1,0h0.2
		c0.4,0.1,0.8,0.2,1,0.5l0,0L133.3,187C133.3,186.9,133.3,186.9,133.3,187z"/>
	<path class="st11" d="M144.1,193c0,0.4,0,0.8,0,1v0.1v0.2c0,0.5-0.1,0.9-0.2,1.2l-0.1,0.2v0.1c-0.1,0.3-0.3,0.6-0.6,0.7
		c-0.3,0.3-0.9,0.5-1.8,0.6c-0.9,0.1-1.7,0.2-2.4,0.2c-0.9,0-1.7-0.1-2.3-0.3c-0.9-0.3-1.6-0.8-2-1.6v-0.1l-0.1-0.1
		c-0.2-0.4-0.3-0.9-0.3-1.3c0-0.6,0.1-1.1,0.3-1.5l0.1-0.1v-0.1c0.1-0.2,0.3-0.4,0.5-0.6c0.6-0.5,1.5-0.8,2.7-0.9c0.1,0,0.1,0,0.2,0
		c0.3,0,0.6,0,0.8,0s0.4-0.1,0.7-0.2c0.3-0.1,0.4-0.2,0.6-0.4c0.1-0.2,0.2-0.4,0.1-0.5c0-0.1-0.1-0.3-0.3-0.3
		c-0.2-0.1-0.5-0.2-0.8-0.2c-0.2,0-0.4,0-0.7,0c-0.2,0-0.6,0.1-1,0.3c-0.5,0.2-1,0.3-1.3,0.3c-0.4,0-0.7-0.1-1-0.4
		c-0.3-0.3-0.4-0.7-0.3-1.2c0.1-0.6,0.4-1,0.9-1.3c0.5-0.3,1.2-0.5,2-0.5l0,0c0.4,0,0.9,0,1.3,0c1.6,0.1,2.8,0.6,3.6,1.3h0.1
		l0.1,0.1l0,0c0.3,0.2,0.5,0.5,0.6,0.8c0.3,0.5,0.5,1.1,0.6,1.8l0,0v0.1v0.1c0.1,0.5,0.1,1.1,0.1,1.6
		C144.1,192.3,144.1,192.6,144.1,193z M138,193.1c-0.2,0.1-0.4,0.3-0.3,0.6c0,0.3,0.1,0.5,0.3,0.7s0.5,0.2,1,0.3c0.1,0,0.1,0,0.2,0
		l0,0l0,0c0.4,0.1,0.7,0,1-0.2c0.3-0.3,0.5-0.6,0.5-0.9c0-0.1,0-0.1,0-0.2s-0.1-0.2-0.2-0.3c-0.1-0.1-0.1-0.1-0.2-0.2
		c-0.1,0-0.2-0.1-0.3-0.1c-0.1,0-0.2,0-0.3,0c-0.1,0-0.2,0-0.3,0h-0.1H139C138.6,192.8,138.2,192.9,138,193.1z"/>
	<path class="st11" d="M155.1,192c0.2,0.4,0.3,0.9,0.3,1.5s-0.1,1.2-0.4,1.7c-0.2,0.5-0.6,0.9-1.1,1.3c-0.5,0.4-1,0.6-1.7,0.8
		s-1.5,0.3-2.3,0.3c-1,0-1.9-0.2-2.7-0.5c-0.4-0.2-0.8-0.3-1.1-0.6c-0.3-0.2-0.5-0.4-0.6-0.7l-0.1-0.2v-0.1
		c-0.1-0.4-0.1-0.8,0.1-1.2l0,0l0.1-0.2l0,0l0,0c0.1-0.1,0.2-0.2,0.2-0.2c0.2-0.1,0.4-0.2,0.7-0.2c0.2,0,0.6,0.1,1,0.3
		c0.1,0.1,0.2,0.1,0.3,0.1c0.7,0.3,1.3,0.4,2,0.4c0,0,0,0,0.1,0h0.1c0.3,0,0.6-0.1,0.8-0.1c0.1,0,0.3-0.1,0.4-0.2
		c0.2-0.1,0.4-0.3,0.5-0.5c0.1-0.2,0.2-0.5,0.1-0.8c-0.1-0.2-0.2-0.4-0.3-0.5c-0.1-0.1-0.3-0.2-0.5-0.3c-0.1-0.1-0.3-0.1-0.6-0.2
		l-0.2-0.1c-0.1,0-0.2-0.1-0.3-0.1l-0.3-0.1c-0.6-0.2-1.1-0.4-1.4-0.5L148,191c-0.8-0.4-1.5-0.8-1.9-1.4c-0.4-0.5-0.6-1.1-0.6-1.8
		c-0.1-0.9,0.2-1.7,0.7-2.5l0,0l0.2-0.3l0,0c0.1-0.1,0.3-0.3,0.4-0.4c0.1-0.1,0.3-0.2,0.4-0.3l0,0l0.3-0.2l0,0
		c0.8-0.4,1.8-0.6,3-0.6c0.6,0,1.2,0,1.7,0.1c0.2,0,0.4,0.1,0.6,0.1h0.1l0.2,0.1c0.3,0.1,0.6,0.2,0.8,0.3c0,0,0,0,0.1,0.1l0,0
		l0.2,0.1l0,0c0.3,0.2,0.5,0.5,0.6,0.8c0.1,0.3,0.1,0.5,0,0.8c0,0.2-0.1,0.4-0.2,0.5c-0.2,0.2-0.4,0.3-0.8,0.2
		c-0.5,0-1.2-0.1-2.1-0.3c-0.6-0.1-1.2-0.1-1.6,0c-0.4,0.1-0.6,0.2-0.8,0.5c-0.2,0.2-0.2,0.4-0.2,0.7c0.1,0.3,0.3,0.5,0.6,0.6
		c0.3,0.1,0.8,0.3,1.4,0.5c0.9,0.3,1.6,0.6,2.1,0.8c0.2,0.1,0.5,0.3,0.7,0.4l0.1,0.1h0.1l0,0c0.2,0.1,0.3,0.2,0.4,0.3
		c0.2,0.2,0.3,0.4,0.5,0.6l0,0v0.1l0.1,0.1l0,0C155,191.7,155,191.9,155.1,192z"/>
	<path class="st11" d="M165.5,187c0.6,0.6,0.9,1.4,0.8,2.3c0,0.3-0.1,0.5-0.3,0.8c-0.2,0.2-0.4,0.3-0.7,0.3c-0.1,0-0.2,0-0.2,0l0,0
		h-0.2l0,0c-0.3-0.1-0.6-0.2-0.9-0.5l-0.1-0.1l0,0l0,0l-0.1-0.1c-0.2-0.2-0.4-0.3-0.5-0.4c-0.1-0.1-0.3-0.2-0.5-0.2
		c-0.2-0.1-0.4-0.1-0.5-0.1c-0.3,0-0.6,0.1-0.8,0.3c-0.4,0.3-0.7,0.7-0.9,1.3c-0.3,0.7-0.4,1.5-0.2,2.2l0,0c0.1,0.8,0.5,1.3,1,1.6
		c0.2,0.1,0.5,0.2,0.8,0.2c0.4,0,0.9-0.1,1.4-0.3c0.2-0.1,0.4-0.2,0.7-0.3c0.2-0.1,0.3-0.1,0.4-0.2c0.6-0.3,1-0.2,1.3,0.2
		c0.2,0.3,0.3,0.6,0.3,1.1c0,0.5-0.2,0.9-0.4,1.2c-0.6,0.8-1.6,1.2-3,1.2c-0.6,0-1.2-0.1-1.8-0.2H161h-0.2c-0.1,0-0.2,0-0.3-0.1
		c-0.2-0.1-0.5-0.2-0.7-0.3l-0.2-0.1c-0.7-0.4-1.3-0.8-1.7-1.4c-0.5-0.6-0.8-1.2-1-2c-0.3-1.3-0.2-2.5,0.4-3.7
		c0.6-1.2,1.4-2.1,2.7-2.8c0.5-0.3,1.1-0.5,1.7-0.7h0.1h0.1c0.8-0.2,1.6-0.1,2.3,0.1l0,0h0.1h0.1C164.5,186.2,165,186.6,165.5,187z"
		/>
	<path class="st11" d="M174.9,187.6L174.9,187.6v0.2c-0.1,0.2-0.1,0.4-0.2,0.5c-0.1,0.2-0.3,0.3-0.5,0.4c-0.2,0.1-0.4,0.1-0.5,0.1
		c-0.1,0-0.3,0-0.6,0c-0.4,0-0.7,0-0.9,0.1c-0.2,0.1-0.4,0.1-0.5,0.3c-0.1,0.1-0.2,0.3-0.3,0.4c-0.1,0.1-0.1,0.3-0.2,0.6
		c0,0.2-0.1,0.4-0.1,0.6c0,0.1,0,0.3,0,0.6v0.1c0,0.3,0,0.7,0,1.3s0.1,1.1,0,1.4v0.2c0,0.9-0.2,1.5-0.4,1.9
		c-0.1,0.1-0.2,0.2-0.2,0.3c-0.3,0.3-0.6,0.4-1,0.4c-0.1,0-0.2,0-0.3,0h-0.1h-0.2l0,0c-0.2,0-0.3-0.1-0.4-0.2
		c-0.5-0.3-0.8-0.8-0.8-1.7V195c0-0.4,0-1-0.1-1.8c0-0.7-0.1-1.2-0.1-1.5v-0.2v-0.2c0-0.3,0-0.6,0-0.9v-0.2v-0.1
		c0-0.4,0-0.8,0.1-1.1c0.1-1.2,0.9-2.1,2.2-2.6c1.8-0.7,3.2-0.7,4.2-0.1l0.1,0.1l0.1,0.1l0,0C174.7,186.8,174.9,187.1,174.9,187.6z"
		/>
	<path class="st11" d="M176,184.9c-0.2-0.3-0.2-0.6-0.2-0.9c0-0.4,0.2-0.8,0.5-1.1l0.1-0.1l0.1-0.1c0.3-0.2,0.5-0.4,0.9-0.5
		c0.3-0.1,0.6-0.1,0.9-0.1c0.5,0.1,0.8,0.4,1,0.8l0,0l0,0l0.1,0.2l0,0c0,0.1,0,0.1,0,0.2c0.1,0.3,0,0.6-0.1,1l0,0l-0.1,0.2l0,0
		c-0.3,0.6-0.8,1-1.3,1.1c-0.1,0-0.3,0.1-0.4,0.1c-0.3,0-0.6-0.1-0.9-0.3c-0.1-0.1-0.2-0.1-0.3-0.2
		C176.2,185.1,176.2,185.1,176,184.9L176,184.9L176,184.9z M179.4,191.9c0,0.7,0.1,1.3,0.1,1.8v0.2v0.1c0,0.9-0.1,1.7-0.3,2.2v0.1
		v0.1c-0.1,0.1-0.1,0.2-0.1,0.2c-0.2,0.4-0.5,0.6-0.8,0.7h-0.1h-0.1c-0.1,0-0.1,0-0.2,0c-0.3,0-0.5-0.1-0.8-0.2
		c-0.4-0.2-0.7-0.4-0.8-0.8c-0.1-0.4-0.2-0.8-0.2-1.3c0-0.4,0-0.9,0-1.7c0-1.1,0-2,0-2.5c0-0.1,0-0.2,0-0.3c0-0.2,0-0.4,0-0.6v-0.1
		v-0.1c0-0.9,0.1-1.6,0.5-2.1l0,0l0,0l0,0l0.1-0.1l0.1-0.1c0.4-0.5,0.9-0.7,1.6-0.6c0.6,0.1,1,0.3,1.2,0.8c0.2,0.3,0.3,0.7,0.3,1.2
		c0,0.5,0,0.9-0.1,1.2c-0.1,0.5-0.1,0.8-0.1,1.1c0,0.1,0,0.4,0,0.7L179.4,191.9z"/>
	<path class="st11" d="M191.5,189.4c0.4,1.3,0.3,2.6-0.1,3.9c0,0.1-0.1,0.2-0.1,0.3c-0.4,1-1.1,1.8-2,2.4c-0.7,0.4-1.6,0.7-2.8,0.7
		c0,0-0.1,0-0.2,0h-0.1h-0.1c-0.1,0-0.2,0-0.3,0c-0.4,0-0.7,0.1-0.9,0.5c0,0.1-0.1,0.1-0.1,0.2c-0.1,0.2-0.1,0.5-0.1,0.9
		c0,0.5-0.1,0.8-0.2,1s-0.2,0.4-0.3,0.6c-0.2,0.2-0.3,0.3-0.5,0.4c-0.2,0.1-0.4,0.1-0.7,0.1c-0.1,0-0.2,0-0.3,0
		c-0.4-0.1-0.6-0.2-0.9-0.5l0,0l-0.1-0.2l0,0c-0.2-0.3-0.3-0.7-0.4-1.1v-0.2v-0.1c0-0.1,0-0.1,0-0.1c0-0.5,0-1.2,0-2.2
		c0-0.5,0-0.9,0.1-1.2c0-0.2,0-0.3,0-0.4c0-0.4,0-0.9,0-1.6v-0.2c0-1.3,0-2.2,0-2.9c0-0.6,0.1-1.1,0.3-1.6l0,0l0.1-0.2l0,0
		c0.3-0.6,0.7-1,1.2-1.3c0,0,0,0,0.1,0l0,0l0.2-0.1l0,0l0,0c1.1-0.5,2.4-0.7,4-0.4c0.4,0.1,0.7,0.2,1.1,0.3c0.3,0.1,0.7,0.3,1,0.4
		c0.3,0.1,0.6,0.4,0.8,0.6c0.3,0.2,0.5,0.4,0.7,0.7c0.2,0.3,0.4,0.5,0.5,0.8C191.3,189,191.4,189.2,191.5,189.4z M187.7,189.3
		c-0.1-0.1-0.1-0.2-0.2-0.2c-0.4-0.3-0.9-0.5-1.4-0.5c-0.3,0-0.5,0.1-0.7,0.2c-0.3,0.2-0.5,0.4-0.6,0.7c-0.1,0.3-0.2,0.6-0.2,0.9
		s0,0.6,0,1v0.4c0,0.2,0,0.4,0,0.5c0,0.1,0,0.3,0.1,0.5c0,0.2,0.1,0.4,0.1,0.5c0.1,0.1,0.1,0.3,0.2,0.4s0.2,0.2,0.4,0.3
		c0.1,0.1,0.3,0.1,0.5,0.1c0.3,0,0.6,0,0.9-0.2c0.3-0.1,0.6-0.3,0.8-0.5c0.4-0.5,0.6-1.2,0.6-2.1c0-0.1,0-0.2,0-0.3
		c-0.1-0.2-0.2-0.3-0.2-0.5c0-0.1,0-0.2,0.1-0.3c0,0,0-0.1-0.1-0.2c0,0,0,0,0-0.1c0-0.1,0-0.1,0-0.1s0-0.1-0.1-0.2c0,0,0,0,0-0.1
		v-0.1C187.9,189.4,187.8,189.5,187.7,189.3C187.7,189.4,187.7,189.4,187.7,189.3C187.7,189.4,187.7,189.3,187.7,189.3z"/>
	<path class="st11" d="M199.2,194.3c0.2,0.2,0.3,0.4,0.4,0.8v0.1v0.1l0,0c0,0.3-0.1,0.6-0.3,0.8c-0.4,0.5-1.1,0.7-2,0.8
		c-0.1,0-0.3,0-0.4,0c-1.2,0-2.1-0.3-2.8-0.9l-0.2-0.2l0,0c-0.1-0.1-0.2-0.2-0.3-0.3c0-0.1-0.1-0.1-0.1-0.2l0,0l-0.1-0.3l0,0l0,0
		c-0.2-0.5-0.3-1.2-0.3-2.2c0-0.6,0-1.2,0-2.1v-1.1c0-0.2,0-0.5,0-0.8c0-0.6,0-1,0-1.3c0-0.4,0-0.8,0-1.1v-0.2c0-0.3,0-0.6,0-0.8
		s0.1-0.5,0.2-0.8c0.1-0.3,0.3-0.5,0.5-0.7c0.4-0.2,0.8-0.3,1.2-0.2l0,0l0.4,0.1h-0.1c0.1,0,0.2,0.1,0.2,0.1
		c0.1,0.1,0.3,0.2,0.4,0.3v-0.1l0.2,0.4l0,0c0.1,0.2,0.2,0.5,0.2,1v0.1c0,0.2,0.1,0.4,0.1,0.5c0.1,0.1,0.2,0.2,0.3,0.3
		c0.2,0.1,0.3,0.1,0.4,0.1c0.1,0,0.3,0,0.5,0.1c0.5,0.1,0.8,0.2,1.1,0.3c0.2,0.1,0.4,0.3,0.6,0.6c0.1,0.3,0.2,0.6,0.1,0.9
		c0,0.2-0.1,0.4-0.2,0.5c-0.1,0.1-0.2,0.2-0.4,0.3c-0.2,0.1-0.3,0.1-0.4,0.1c-0.1,0-0.3,0-0.5,0h-0.2c-0.3,0-0.5,0-0.7,0.1
		c-0.4,0.1-0.7,0.3-0.8,0.8c-0.1,0.4-0.2,1.1-0.1,2.2c0,0.3,0,0.5,0.1,0.7c0,0.4,0.1,0.7,0.4,0.9s0.7,0.3,1.2,0.3c0.1,0,0.2,0,0.3,0
		C198.7,194.1,198.9,194.1,199.2,194.3z"/>
</g>
<g>
	<path class="st11" d="M109.3,276.8L109.3,276.8l-0.2,0.4v0.1c-0.2,0.3-0.5,0.6-0.8,0.7c-0.4,0.2-0.8,0.3-1.3,0.3
		c-0.4,0-0.7,0-1.1-0.1c-1.1-0.2-1.8-0.9-2.2-1.9c-0.1-0.2-0.1-0.4-0.2-0.7c-0.2-0.7-0.4-1.2-0.7-1.5c-0.1-0.1-0.2-0.2-0.3-0.2
		c-0.5-0.3-1.5-0.5-2.8-0.5c-0.1,0-0.2,0-0.5,0c-0.7,0-1.2,0-1.6,0.1c-0.2,0.1-0.4,0.1-0.6,0.2c-0.4,0.3-0.8,0.9-1.2,1.7v0.1l0,0
		c-0.1,0.4-0.3,0.7-0.4,0.9c-0.1,0.2-0.3,0.5-0.5,0.7c-0.2,0.3-0.5,0.5-0.9,0.6c-0.5,0.2-1,0.4-1.6,0.4s-1.1-0.1-1.7-0.3
		s-0.9-0.7-1.1-1.3c-0.1-0.3-0.1-0.8,0.1-1.5c0.6-2.5,1.8-6.2,3.5-11.1l0.4-1c0.4-1.2,0.8-2.2,1-2.9c0,0,0-0.1,0.1-0.2l0.1-0.3v-0.1
		c0.3-0.9,0.7-1.5,1.1-1.9c0.7-0.7,1.8-1.1,3.3-1.1c1.8,0,3.1,0.4,4,1.3c0.5,0.5,1,1.4,1.4,2.7c0.4,1.2,0.8,2.4,1.2,3.8l0.1,0.2
		c0.1,0.5,0.3,0.9,0.4,1.4l0.1,0.4l0,0v0.1c0.7,2.2,1.5,5,2.5,8.4v0.1v0.1l0,0l0.1,0.1l0,0C109.4,275.8,109.4,276.3,109.3,276.8z
		 M100,263c0-0.1-0.1-0.1-0.1-0.2h-0.1c0,0-0.1,0-0.2,0l-0.1,0.1c-0.1,0.1-0.2,0.3-0.3,0.6c-0.2,0.8-0.5,1.6-0.8,2.4
		c-0.1,0.1-0.2,0.3-0.3,0.6c-0.3,0.6-0.5,1.1-0.5,1.4c0,0.4,0.2,0.6,0.5,0.7c0.4,0.2,0.7,0.2,1.2,0.2c0.4,0,0.8-0.1,1.1-0.3
		c1.1-0.6,1.3-1.9,0.5-3.9C100.6,264.1,100.4,263.6,100,263L100,263z"/>
	<path class="st11" d="M121.2,258.9c0.1,2.9,0.1,6,0,9.3v0.3c0,0.3,0,0.7,0,1.3c0,0,0,0.1,0,0.2s0,0.1,0,0.2v0.3v0.1
		c0,1.3-0.2,2.5-0.4,3.5c-0.2,1-0.7,1.8-1.5,2.5c0,0-0.1,0.1-0.2,0.1l-0.4,0.4l0,0c-0.7,0.5-1.4,0.8-2.3,1.1l0,0l-0.4,0.1h-0.1
		c-0.6,0.1-1.1,0.2-1.6,0.2l0,0c-1.2,0-2.1-0.2-2.8-0.6c-0.5-0.3-0.9-0.6-1.1-1.1c-0.3-0.4-0.4-0.9-0.4-1.4c0-0.3,0.1-0.5,0.2-0.7
		c0.1-0.2,0.2-0.4,0.4-0.5c0.2-0.1,0.3-0.2,0.5-0.3c0.1-0.1,0.3-0.1,0.6-0.1c0.3,0,0.5,0,0.6,0s0.4,0,0.6,0c0.3,0,0.5,0,0.6,0
		c0.5,0,0.8-0.1,1.2-0.3c0.3-0.2,0.6-0.5,0.7-0.9c0.2-0.4,0.3-0.8,0.3-1.3v-9.4c0-0.1,0-0.4-0.1-0.9c0-0.5-0.1-0.9-0.1-1.2v-0.1
		v-0.4c0-1.3,0.3-2.1,0.8-2.4c0.2-0.1,0.5-0.2,1-0.2c0.2,0,0.4,0,0.7,0h0.6c0.2,0,0.4,0,0.5,0c0.7,0.1,1.2,0.2,1.5,0.5
		C120.9,257.4,121.2,258,121.2,258.9z"/>
	<path class="st11" d="M142.7,276.8L142.7,276.8l-0.2,0.4v0.1c-0.2,0.3-0.5,0.6-0.8,0.7c-0.4,0.2-0.8,0.3-1.3,0.3
		c-0.4,0-0.7,0-1.1-0.1c-1.1-0.2-1.8-0.9-2.2-1.9c-0.1-0.2-0.1-0.4-0.2-0.7c-0.2-0.7-0.4-1.2-0.7-1.5c-0.1-0.1-0.2-0.2-0.3-0.2
		c-0.5-0.3-1.5-0.5-2.8-0.5c-0.1,0-0.2,0-0.5,0c-0.7,0-1.2,0-1.6,0.1c-0.2,0.1-0.4,0.1-0.6,0.2c-0.4,0.3-0.8,0.9-1.2,1.7v0.1l0,0
		c-0.1,0.4-0.3,0.7-0.4,0.9c-0.1,0.2-0.3,0.5-0.5,0.7c-0.2,0.3-0.5,0.5-0.9,0.6c-0.5,0.2-1,0.4-1.6,0.4s-1.1-0.1-1.7-0.3
		s-0.9-0.7-1.1-1.3c-0.1-0.3-0.1-0.8,0.1-1.5c0.6-2.5,1.8-6.2,3.5-11.1l0.4-1c0.4-1.2,0.8-2.2,1-2.9c0,0,0-0.1,0.1-0.2l0.1-0.3v-0.1
		c0.3-0.9,0.7-1.5,1.1-1.9c0.7-0.7,1.8-1.1,3.3-1.1c1.8,0,3.1,0.4,4,1.3c0.5,0.5,1,1.4,1.4,2.7c0.4,1.2,0.8,2.4,1.2,3.8l0.1,0.2
		c0.1,0.5,0.3,0.9,0.4,1.4l0.1,0.4l0,0v0.1c0.7,2.2,1.5,5,2.5,8.4v0.1v0.1l0,0l0.1,0.1l0,0C142.8,275.8,142.8,276.3,142.7,276.8z
		 M133.4,263c0-0.1-0.1-0.1-0.1-0.2h-0.1c0,0-0.1,0-0.2,0l-0.1,0.1c-0.1,0.1-0.2,0.3-0.3,0.6c-0.2,0.8-0.5,1.6-0.8,2.4
		c-0.1,0.1-0.2,0.3-0.3,0.6c-0.3,0.6-0.5,1.1-0.5,1.4c0,0.4,0.2,0.6,0.5,0.7c0.4,0.2,0.7,0.2,1.2,0.2c0.4,0,0.8-0.1,1.1-0.3
		c1.1-0.6,1.3-1.9,0.5-3.9C134,264.1,133.7,263.6,133.4,263L133.4,263z"/>
	<path class="st11" d="M161.3,261.3l-1.2,1.5l-1.4,1.9l-0.2,0.3l0,0l-0.1,0.1c-0.1,0.1-0.1,0.1-0.2,0.2c-0.3,0.3-0.5,0.6-0.6,0.7
		c-0.1,0.2-0.2,0.4-0.4,0.7c-0.1,0.3-0.2,0.6-0.1,0.8c0,0.2,0.2,0.6,0.6,1v0.1l0,0c0,0.1,0.1,0.2,0.2,0.4c0.2,0.3,0.5,0.7,1.1,1.3
		l0,0l0.2,0.2l0,0v0.1c0.1,0.1,0.1,0.2,0.2,0.2l0.6,0.8c0.6,0.8,1,1.3,1.3,1.7c0.4,0.5,0.6,1,0.6,1.6c0.1,0.6,0,1.2-0.3,1.6
		c-0.4,0.8-1.1,1.3-2.1,1.3h-0.1c-1.1,0-2-0.5-3-1.5c-0.4-0.5-0.9-1.3-1.6-2.4c-0.3-0.5-0.5-0.8-0.6-1c-0.5-0.9-1-1.3-1.4-1.4
		c-0.1,0-0.3,0-0.5,0.1c-0.3,0.1-0.6,0.4-0.9,0.7c-0.1,0.1-0.2,0.3-0.2,0.4c-0.2,0.4-0.5,0.9-0.8,1.7c-0.2,0.4-0.4,0.8-0.5,1.1
		l-0.2,0.4c-0.4,0.7-0.8,1.2-1.3,1.5c-0.4,0.3-0.9,0.5-1.4,0.5c-0.5,0.1-1,0-1.5-0.2c-0.7-0.3-1.2-0.8-1.5-1.5
		c-0.3-0.7-0.3-1.4-0.1-2.1c0.2-0.5,0.4-1,0.8-1.6c0.4-0.6,0.7-1,1-1.4c0.3-0.4,0.7-0.9,1.3-1.5c0.6-0.7,1-1.2,1.3-1.5
		c0.2-0.3,0.4-0.6,0.4-0.7c0-0.2,0-0.4-0.1-0.7c-0.1-0.2-0.2-0.4-0.3-0.7l0,0c-0.3-0.6-0.6-1.3-1.1-2c-0.2-0.4-0.7-1-1.2-1.8
		c-0.7-1-1.2-1.8-1.6-2.4c-0.2-0.4-0.4-0.7-0.4-1c-0.1-0.7,0.2-1.3,0.9-1.8c0.5-0.4,1-0.6,1.7-0.6c0.6-0.1,1.2,0,1.8,0.3
		c0.3,0.1,0.6,0.3,0.8,0.6l0.1,0.1l0.3,0.2l0,0c0.3,0.3,0.6,0.7,0.9,1.2l0.2,0.3v0.1c0.1,0.1,0.1,0.2,0.2,0.4c0.4,0.6,0.6,1,0.8,1.3
		c0.4,0.6,0.9,1,1.3,1.1c0.2,0.1,0.5,0.1,0.7,0c0.2-0.1,0.4-0.2,0.6-0.3c0.2-0.1,0.4-0.4,0.6-0.7s0.4-0.6,0.5-0.8
		c0.1-0.2,0.3-0.5,0.5-0.9c0.6-1.2,1.2-1.9,1.5-2.2c0.7-0.4,1.4-0.6,2.2-0.6c0.9,0.1,1.6,0.4,2.2,1.2c0.4,0.5,0.5,1.1,0.4,1.8
		C162.1,260.1,161.8,260.7,161.3,261.3z"/>
</g>
<g>
	<path class="st11" d="M42.4,356c0,2.8,0,5,0,6.4c0,1.1-0.3,1.8-0.9,2.1c-0.4,0.2-0.9,0.2-1.6,0.2c-0.6-0.1-1-0.2-1.3-0.5
		c-0.3-0.3-0.4-0.6-0.4-1.1c0-0.3,0-0.8,0-1.3l0,0v-0.4c0,0,0-0.1,0-0.2s0-0.2,0-0.2c0-0.4,0-0.8,0-1l0,0c0-0.3,0-0.4-0.1-0.6
		c-0.2-0.4-0.8-0.7-1.9-0.7c-0.2,0-0.6,0-1,0c0,0,0,0-0.1,0h-0.2h-0.1c-0.1,0-0.1,0-0.1,0c-0.5,0-0.9,0.1-1.1,0.3
		c-0.3,0.2-0.4,0.5-0.5,1c0,0.3,0,0.7,0,1.2c0,0.4,0,0.6,0,0.8c0,0.9-0.1,1.6-0.3,2.2c0,0.2-0.1,0.3-0.2,0.4
		c-0.1,0.1-0.3,0.2-0.4,0.2c-0.1,0-0.1,0-0.2,0c-0.3,0-0.5,0-0.8,0c-0.1,0-0.3,0-0.4,0c-0.5,0-0.8-0.1-1.1-0.3
		c-0.6-0.3-0.9-1.1-0.8-2.2c0-0.8,0.1-1.7,0.1-2.7c0-0.4,0-0.9,0-1.4c0-1.2,0-3,0-5.4c0-0.7,0-1.3,0-1.9c0-0.4,0-0.6,0.1-0.8
		c0.2-0.5,0.6-0.7,1.3-0.8c1.2-0.1,2,0.1,2.4,0.6c0.1,0.1,0.2,0.4,0.2,0.7c0,0.4,0.1,0.8,0.1,1.4v0.1v0.3c0,0.2,0,0.3,0,0.4
		c0,0.5,0,0.9,0,1.2c0,0.1,0,0.2,0,0.3c0.1,0.6,0.3,0.9,0.6,1.1c0.2,0.1,0.6,0.1,1.1,0.1c0.2,0,0.3,0,0.4,0c0.2,0,0.5,0,1,0
		c0.3,0,0.5,0,0.6,0c0.4,0,0.7-0.1,0.9-0.2c0.2-0.1,0.3-0.4,0.4-0.8c0.1-0.5,0.1-1.4,0-2.6c0-0.6,0-1,0-1.2c0-0.3,0-0.5,0.1-0.7
		c0.1-0.2,0.4-0.4,0.8-0.5c0.8-0.2,1.5-0.2,2,0c0.5,0.2,0.9,0.6,1,1.1v0.1l0.1,0.2l0,0c0.1,0.3,0.1,0.7,0,1.2v0.2l0,0
		c0,0.2,0,0.4,0,0.5C42.4,353.6,42.4,354.6,42.4,356z"/>
	<path class="st11" d="M56.3,351.3c0,0.5-0.2,0.9-0.5,1.2c-0.2,0.2-0.4,0.3-0.8,0.3c-0.4,0-0.8,0.1-1.4,0h-0.1c0,0-0.1,0-0.3,0
		c-0.5,0-0.8,0-1,0c0,0-0.1,0-0.1,0.1c-0.1,0.1-0.2,0.2-0.2,0.3c-0.1,0.3-0.1,0.7-0.1,1.3v0.2v0.2c0,0.1,0,0.4,0,0.8v0.4v0.4
		c0,0.4,0,0.6,0,0.8c0,1.2,0,2.3,0,3.4c0,0.1,0,0.2,0,0.4c0,1.3-0.1,2.2-0.4,2.7c-0.1,0.3-0.2,0.5-0.4,0.6s-0.4,0.2-0.7,0.2
		c-0.2,0-0.3,0-0.5,0c-0.6,0-1.1-0.1-1.5-0.4c-0.2-0.1-0.3-0.3-0.4-0.4c-0.1-0.2-0.2-0.3-0.2-0.5c0-0.2-0.1-0.4-0.1-0.5s0-0.3,0-0.5
		v-0.2V362c0-0.4,0-0.9,0-1.3v-0.1v-0.1v-0.2v-4.9c0-0.1,0-0.3,0-0.6c0-0.7,0-1.2-0.1-1.5s-0.4-0.5-0.8-0.7c-0.2-0.1-0.5-0.1-1-0.1
		l0,0c-0.4,0-0.8,0.1-1.2,0.1c-0.3,0-0.5-0.1-0.7-0.2c-0.2-0.1-0.3-0.4-0.4-0.8c-0.1-0.5-0.1-0.9,0-1.1c0.1-0.5,0.4-0.8,0.7-0.9
		c0,0,0.1,0,0.2-0.1h0.1h0.2l0,0c0.1,0,0.2,0,0.3,0h1.9h0.2l0,0h6.6c0.2,0,0.3,0,0.4,0c0.5,0,0.8,0,1.1,0.2l0.2,0.1l0,0l0,0l0,0l0,0
		C56.1,350.2,56.3,350.7,56.3,351.3z"/>
	<path class="st11" d="M74.1,362.9c0,0.6,0,1.1-0.2,1.3c-0.1,0.1-0.3,0.2-0.4,0.3c-0.2,0.1-0.4,0.1-0.6,0.2c-0.2,0-0.3,0-0.5,0
		c-0.5,0-0.9-0.1-1.3-0.2c-0.6-0.2-0.9-0.7-0.9-1.4c0-0.8-0.1-2-0.1-3.6c0-1.9-0.1-3.3-0.2-4.2c0-0.1,0-0.1,0-0.1l0,0l0,0
		c-0.3,0.3-0.6,0.6-0.8,1.2c0,0.1-0.1,0.3-0.1,0.4c-0.1,0.2-0.1,0.6-0.2,1c0,0.1-0.1,0.2-0.1,0.4v0.2v0.1c-0.2,1.1-0.6,1.9-1,2.3
		c-0.2,0.3-0.5,0.4-0.8,0.6c-0.5,0.3-1.1,0.2-1.7,0c-0.4-0.2-0.7-0.4-1.1-0.7c-0.3-0.3-0.5-0.6-0.7-1c-0.1-0.2-0.2-0.6-0.4-1.1
		c-0.2-0.6-0.4-1.1-0.5-1.4c-0.1-0.2-0.1-0.5-0.3-0.9c0-0.2-0.1-0.3-0.1-0.4c0,0,0-0.1,0-0.2c-0.1-0.5-0.3-0.8-0.4-0.9l0,0v0.3
		c-0.1,1.9-0.2,3.4-0.2,4.3v0.7c0,1.6-0.1,2.8-0.2,3.5c0,0.4-0.2,0.7-0.4,0.9c-0.1,0.1-0.3,0.2-0.6,0.2c-0.5,0.1-1.1,0.1-1.6,0
		c-0.1,0-0.2,0-0.4-0.1l0,0l-0.3-0.1l0,0c-0.1-0.1-0.2-0.2-0.3-0.2c-0.2-0.2-0.4-0.6-0.4-1l0,0v-0.2l0,0c0-0.1,0-0.3,0-0.5
		c0-1.1,0.1-2.7,0.3-4.9c0.1-0.9,0.1-1.6,0.2-2V355c0.1-1.1,0.1-1.9,0.2-2.4c0-0.3,0-0.5,0-0.6c0-0.1,0-0.3,0.1-0.6
		c0-0.2,0.1-0.4,0.2-0.6c0.1-0.2,0.2-0.3,0.4-0.5c0.4-0.4,1-0.6,1.9-0.6c0.2,0,0.4,0,0.7,0l0,0l0.8,0.1h-0.2c0.1,0,0.2,0.1,0.3,0.1
		l-0.2-0.2l0.8,0.6h0.1c0.5,0.4,0.8,0.9,1.1,1.7c0.1,0.3,0.3,0.7,0.4,1.3c0.5,1.4,0.9,2.5,1.1,3.2c0.1,0.2,0.2,0.3,0.2,0.4l0.1,0.1
		c0,0,0.1-0.1,0.1-0.2c0.2-0.4,0.4-1.1,0.7-2c0.2-0.5,0.3-1,0.4-1.2c0.3-0.8,0.5-1.5,0.7-2.1l0,0c0,0,0-0.1,0.1-0.2
		c0.2-0.5,0.4-0.9,0.7-1c0.5-0.3,1.1-0.5,1.9-0.5c1.3,0,2.1,0.4,2.5,1.1l0,0l0.2,0.3l0,0c0.1,0.3,0.2,0.7,0.2,1.2l0.1,0.7v0.1
		c0.2,1.9,0.3,3.5,0.4,4.9l0,0v0.2c0,0.6,0.1,1.2,0.1,1.8v0.2l0,0C74,361.2,74,362.1,74.1,362.9z"/>
	<path class="st11" d="M86.3,362.3c0.1,0.9,0,1.5-0.3,1.9c-0.3,0.3-0.8,0.5-1.5,0.5c-0.1,0-0.2,0-0.3,0c-1.8-0.1-3.5-0.1-5.3,0
		c-0.9,0-1.6-0.2-2.1-0.6c-0.2-0.2-0.4-0.5-0.5-0.8c-0.1-0.4-0.2-1.1-0.1-1.9c0-0.3,0-0.5,0-0.7v-4.5V355v-2c0-0.1,0-0.3,0-0.5
		c0-0.4,0-0.7,0-1.1c0-0.3,0.1-0.7,0.2-1c0.1-0.3,0.4-0.6,0.7-0.8c0.3-0.1,0.6-0.2,1-0.2h0.1c0,0,0,0,0.1,0h0.2l0,0
		c0.4,0,0.8,0.1,1.1,0.3c0.5,0.3,0.7,0.8,0.7,1.5v0.1v0.2c0,1.5,0,3.7,0,6.7v1.5v0.1c0,0.4,0.1,0.8,0.2,1c0.1,0.1,0.2,0.3,0.4,0.4
		c0.1,0.1,0.3,0.1,0.5,0.2c0.2,0,0.3,0,0.5,0s0.4,0,0.5,0s0.3,0,0.3,0c0.1,0,0.3,0,0.5,0l0,0h0.3l0,0c0.3,0,0.5,0,0.8,0h0.4
		c0,0,0.1,0,0.3,0c0.8,0,1.2,0.1,1.4,0.4C86.2,361.9,86.3,362.1,86.3,362.3z"/>
	<path class="st11" d="M105.3,358.5c0.2,0.5,0.3,1.1,0.3,1.7c0,0.7-0.1,1.3-0.4,1.9c-0.3,0.6-0.7,1.1-1.2,1.5c-0.5,0.4-1.2,0.7-2,1
		c-0.9,0.3-1.8,0.4-2.7,0.4c-1.1,0-2.2-0.2-3.2-0.5c-0.5-0.2-0.9-0.4-1.2-0.6c-0.3-0.2-0.5-0.5-0.7-0.8l-0.1-0.2v-0.1
		c-0.1-0.5-0.1-0.9,0.1-1.3l0,0l0.1-0.2l0,0l0,0c0.1-0.1,0.2-0.2,0.3-0.3c0.2-0.1,0.5-0.2,0.8-0.2s0.7,0.2,1.1,0.4
		c0.1,0.1,0.3,0.1,0.3,0.1c0.8,0.3,1.5,0.5,2.3,0.5c0,0,0,0,0.1,0h0.1c0.3,0,0.6-0.1,0.9-0.1c0.1,0,0.3-0.1,0.4-0.2
		c0.3-0.1,0.5-0.3,0.6-0.6c0.2-0.3,0.2-0.6,0.1-0.9c-0.1-0.2-0.2-0.4-0.4-0.6c-0.2-0.2-0.4-0.3-0.5-0.3c-0.2-0.1-0.4-0.1-0.7-0.2
		l-0.2-0.1c-0.1,0-0.2-0.1-0.4-0.1l-0.3-0.1c-0.7-0.2-1.3-0.4-1.7-0.6l-0.3-0.1c-1-0.4-1.7-1-2.2-1.6c-0.4-0.6-0.7-1.3-0.7-2.1
		c-0.1-1.1,0.2-2,0.9-2.9l0,0l0.3-0.4l0,0c0.1-0.2,0.3-0.3,0.4-0.4s0.3-0.2,0.5-0.3l0,0l0.4-0.2l0,0c0.9-0.4,2.1-0.7,3.4-0.7
		c0.7,0,1.4,0,1.9,0.1c0.2,0,0.4,0.1,0.7,0.2h0.1l0.2,0.1c0.4,0.1,0.7,0.3,1,0.4c0,0,0.1,0,0.1,0.1l0,0l0.2,0.2l0,0
		c0.3,0.3,0.6,0.6,0.7,1c0.1,0.3,0.1,0.6,0,1c0,0.2-0.1,0.4-0.2,0.5c-0.2,0.2-0.5,0.3-0.9,0.3c-0.5,0-1.3-0.1-2.4-0.3
		c-0.7-0.1-1.4-0.1-1.9,0c-0.4,0.1-0.7,0.3-0.9,0.5c-0.2,0.3-0.3,0.5-0.2,0.8c0.1,0.3,0.3,0.6,0.7,0.7c0.4,0.1,0.9,0.3,1.6,0.6
		c1.1,0.4,1.9,0.7,2.4,1c0.3,0.1,0.5,0.3,0.8,0.5l0.1,0.1h0.1l0,0c0.2,0.1,0.3,0.3,0.5,0.4c0.2,0.2,0.4,0.4,0.5,0.7l0,0v0.1l0.1,0.1
		l0,0C105.1,358.3,105.2,358.4,105.3,358.5z"/>
	<path class="st11" d="M118,363l-0.2,0.2l0,0l0,0c-0.2,0.3-0.6,0.5-1,0.8c-0.4,0.2-0.8,0.4-1.1,0.4c-0.7,0.1-1.4,0.2-2,0.2
		c-1.6,0-3-0.4-4.1-1.1c-0.7-0.4-1.2-0.9-1.6-1.5c-0.4-0.6-0.7-1.3-0.9-2c0-0.2-0.1-0.5-0.1-0.8V359v-0.1c0-0.5-0.1-1,0-1.4v-0.1
		v-0.2l0,0c0.1-0.7,0.2-1.3,0.4-1.8c0.4-0.9,1-1.6,1.8-2.2l0,0l0.2-0.2l0,0c0.5-0.4,1.1-0.6,1.8-0.8l0,0h0.3l0,0
		c1.2-0.3,2.3-0.2,3.4,0.2c1.1,0.4,2,0.9,2.5,1.7c0.5,0.8,0.7,1.8,0.6,2.9c-0.1,1.3-1.4,2.1-3.8,2.5c-0.1,0-0.4,0.1-0.7,0.1
		c-0.8,0.1-1.4,0.2-1.7,0.3c-0.2,0.1-0.4,0.2-0.4,0.4c-0.1,0.1-0.1,0.3,0,0.5c0,0.1,0.1,0.3,0.2,0.4c0.2,0.2,0.5,0.4,0.8,0.5
		c0.6,0.2,1.3,0.2,1.9,0.1c0.7-0.1,1.3-0.3,1.8-0.5c0.1,0,0.1,0,0.2-0.1l0,0l0,0l0.3-0.1l0,0c0.7-0.1,1.1,0.1,1.4,0.5
		C118.2,362,118.2,362.5,118,363z M114.4,355.3c-0.4-0.2-0.8-0.3-1.3-0.3c-0.8,0-1.4,0.2-1.9,0.7c-0.3,0.2-0.4,0.5-0.4,0.8
		s0.2,0.5,0.5,0.7c0.3,0.1,0.6,0.2,0.9,0.1c0.4,0,0.7-0.1,1-0.1c0.3-0.1,0.6-0.2,0.9-0.3c0.1-0.1,0.3-0.2,0.4-0.3
		c0.2-0.2,0.3-0.4,0.3-0.6c0-0.1,0-0.3-0.2-0.4C114.7,355.5,114.5,355.4,114.4,355.3z"/>
	<path class="st11" d="M137.8,359.8c0.1,0.9,0.1,1.6,0.1,2.1l0,0v0.2v0.1c0,0.5-0.1,0.9-0.3,1.3v0.1c0,0,0,0,0,0.1l-0.1,0.1
		c-0.1,0.1-0.2,0.2-0.3,0.3c-0.3,0.2-0.6,0.4-1,0.4c-0.5,0-1-0.1-1.6-0.4c-0.3-0.1-0.5-0.4-0.6-0.8c-0.1-0.4-0.2-0.7-0.2-1.1
		s0-0.8,0-1.2c0-0.3,0-0.5,0-0.6v-3.9c0-0.4-0.2-0.7-0.5-1.1c-0.2-0.2-0.5-0.4-0.8-0.4c-0.3-0.1-0.6,0-0.8,0.2
		c-0.3,0.2-0.6,0.6-0.7,1c-0.1,0.4-0.2,0.8-0.2,1.3c0,0.5,0,0.9,0,1.3s0,0.6,0,0.8c0,0.1,0,0.3,0,0.6c0,0.4,0,0.7,0,1.1
		s0,0.8-0.1,1.1c0,0.4-0.1,0.7-0.3,1c-0.1,0.3-0.3,0.6-0.6,0.7c-0.5,0.4-1.1,0.4-2,0.1c-0.5-0.2-0.9-0.6-1-1.2l0,0v-0.3l0,0
		c0-0.2,0-0.3,0-0.5c0-0.1,0-0.4,0-0.7v-0.4c0-1.1,0-1.9,0-2.4c0-0.1,0-0.4,0-0.7c0.1-0.8,0.1-1.4,0-1.7c-0.1-0.4-0.3-0.7-0.5-1
		c-0.2-0.2-0.3-0.3-0.5-0.4c-0.3-0.1-0.6-0.1-0.9,0c-0.3,0.1-0.5,0.4-0.7,0.7c-0.2,0.3-0.3,0.7-0.4,1c-0.1,0.7-0.2,1.7,0,3.2
		c0,0.7,0.1,1.2,0.1,1.5c0,0.2,0,0.5,0,0.7v0.1v0.2c-0.1,0.6-0.3,1-0.6,1.4l-0.2,0.1l0,0l0,0c-0.3,0.2-0.6,0.3-1,0.4
		c-0.8,0-1.4-0.2-1.8-0.6c-0.2-0.2-0.3-0.4-0.4-0.6c-0.1-0.2-0.1-0.5-0.1-0.7c0-0.2,0-0.5,0-0.7c0-0.1,0-0.3,0-0.3
		c0-1.1,0-2.5-0.1-4.2c0-0.4,0-0.8,0-1.2v-0.1v-0.2l0,0c0.1-0.9,0.4-1.7,0.9-2.3l0.1-0.2l0,0l0,0c0.4-0.4,0.9-0.8,1.5-1
		c0.8-0.3,1.7-0.5,2.7-0.4c1,0,1.9,0.2,2.7,0.5c0.1,0,0.3,0.1,0.5,0.2c0.4,0.2,0.7,0.3,0.8,0.3h0.1c0.1,0,0.4-0.2,0.7-0.3
		c0.2-0.1,0.3-0.2,0.4-0.2l0,0l0.3-0.1c0.6-0.2,1.3-0.3,2-0.4c0.7,0,1.4,0.1,2.1,0.3c0.7,0.2,1.3,0.6,1.8,1.1
		c0.3,0.3,0.5,0.6,0.7,1.1c0.2,0.4,0.3,0.8,0.4,1.2c0.1,0.4,0.1,0.8,0.1,1.3c0,0.5,0,0.9,0,1.3s0,0.6,0,0.8
		C137.8,358.9,137.8,359.2,137.8,359.8z"/>
	<path class="st11" d="M150.8,359.8c0,0.5,0,0.9,0,1.2v0.1v0.2l0,0c0,0.5-0.1,1-0.2,1.4l-0.1,0.2v0.1c-0.2,0.4-0.4,0.6-0.6,0.9
		c-0.4,0.3-1.1,0.6-2.1,0.7c-1.1,0.2-2,0.2-2.7,0.2c-1,0-1.9-0.1-2.7-0.4c-1.1-0.4-1.9-1-2.3-1.8v-0.1l-0.1-0.1
		c-0.2-0.5-0.3-1-0.3-1.5c0-0.7,0.1-1.3,0.4-1.8l0.1-0.1v-0.1l0,0c0.2-0.3,0.3-0.5,0.6-0.7c0.7-0.6,1.8-1,3.2-1c0.1,0,0.1,0,0.2,0
		c0.4,0,0.7,0,0.9-0.1c0.2,0,0.5-0.1,0.8-0.2c0.3-0.1,0.5-0.3,0.6-0.5c0.1-0.2,0.2-0.4,0.1-0.6c0-0.2-0.2-0.3-0.4-0.4
		s-0.5-0.2-0.9-0.2c-0.3,0-0.5,0-0.8,0c-0.3,0-0.7,0.1-1.2,0.3c-0.6,0.2-1.1,0.3-1.5,0.4c-0.5,0-0.9-0.1-1.2-0.4
		c-0.3-0.4-0.5-0.8-0.4-1.4c0.1-0.7,0.5-1.2,1.1-1.6s1.3-0.6,2.3-0.6l0,0c0.5,0,1,0,1.5,0c1.8,0.2,3.2,0.7,4.2,1.5h0.1l0.1,0.1l0,0
		c0.3,0.3,0.5,0.6,0.7,0.9c0.3,0.6,0.5,1.3,0.7,2.1l0,0v0.2v0.1c0.1,0.6,0.1,1.2,0.1,1.9C150.8,359,150.8,359.3,150.8,359.8z
		 M145.2,359.4h-0.3c-0.5,0.1-0.9,0.2-1.2,0.4c-0.3,0.2-0.4,0.4-0.4,0.7c0,0.3,0.1,0.6,0.4,0.8c0.2,0.2,0.6,0.3,1.1,0.3
		c0.1,0,0.1,0,0.2,0l0,0l0,0c0.4,0.1,0.8,0,1.2-0.3s0.5-0.6,0.5-1.1c0-0.1,0-0.1,0-0.2c-0.1-0.1-0.1-0.3-0.2-0.4
		c-0.1-0.1-0.2-0.2-0.4-0.2s-0.3-0.1-0.4-0.1C145.6,359.3,145.5,359.5,145.2,359.4L145.2,359.4z M144.8,351.2
		c-0.3,0-0.5-0.1-0.6-0.3c-0.1-0.2-0.1-0.4,0-0.6c0.2-0.3,0.5-1,1-1.8c0.2-0.4,0.4-0.6,0.5-0.9c0.1-0.2,0.2-0.3,0.2-0.4
		c0,0,0,0,0-0.1c0.2-0.3,0.4-0.4,0.5-0.4l0,0c0.1,0,0.3,0,0.5,0s0.4,0.1,0.5,0.2l0,0l0,0l0.1,0.1l0,0c0,0,0,0.1,0,0.2l0,0
		c-0.1,0.1-0.2,0.4-0.3,0.7v0.1c-0.1,0.2-0.3,0.6-0.5,1l-0.4,0.7c-0.2,0.3-0.3,0.6-0.4,0.8l0,0c-0.1,0.1-0.1,0.2-0.1,0.3
		s-0.1,0.2-0.2,0.3c-0.1,0.1-0.2,0.1-0.4,0.2c-0.1,0-0.2,0-0.2,0L144.8,351.2C145,351.2,144.9,351.2,144.8,351.2L144.8,351.2z"/>
	<path class="st11" d="M164.1,361.4c0,0.4,0,0.7,0,1.1s-0.1,0.7-0.3,1c-0.2,0.3-0.5,0.5-0.9,0.7c-0.3,0.1-0.6,0.1-0.9,0.1
		c-0.6,0-1.1-0.2-1.5-0.5c-0.3-0.3-0.4-0.8-0.4-1.6v-5.4c0-0.6-0.2-1-0.6-1.4c-0.1-0.1-0.1-0.1-0.2-0.2c-0.4-0.3-0.8-0.4-1.3-0.3
		c0,0-0.1,0-0.2,0l0,0c-0.2,0-0.4,0.1-0.6,0.3c-0.2,0.1-0.3,0.3-0.4,0.4c-0.1,0.2-0.2,0.4-0.2,0.6c-0.1,0.3-0.1,0.5-0.1,0.7
		c0,0.2,0,0.5,0,0.8v0.4c0,1.1,0,1.9,0,2.5c0,0.1,0,0.3,0,0.6v0.1l0,0v0.1c0,0.4,0,0.7,0,1v0.3l0,0c-0.1,0.6-0.2,1-0.5,1.3
		c-0.3,0.3-0.8,0.5-1.5,0.4c-0.7,0-1.2-0.2-1.5-0.5c-0.2-0.2-0.4-0.5-0.5-0.8c-0.1-0.3-0.1-0.7-0.1-0.9c0-0.3,0-0.6,0.1-1
		c0-0.3,0.1-0.6,0.1-0.7c0-0.6,0-1.5,0-2.7c0-0.6,0-1,0-1.3c0-0.1,0-0.3,0-0.5c0-0.1,0-0.2,0-0.3l0,0v-0.6l0,0c0-0.6,0.1-1,0.3-1.4
		c0.1-0.3,0.3-0.5,0.5-0.7l0.2-0.2l0,0c0.2-0.2,0.4-0.3,0.7-0.4c0.9-0.5,2.2-0.7,3.9-0.7c2.4,0,4.1,0.6,5,1.8
		c0.5,0.7,0.8,1.8,0.9,3.3c0,0.5,0,1.1,0,1.9v0.2c0,1,0,1.8,0,2.3V361.4z"/>
	<path class="st11" d="M173.1,361.3c0.3,0.2,0.4,0.5,0.4,0.9v0.1v0.1l0,0c0,0.4-0.1,0.7-0.3,0.9c-0.4,0.6-1.2,0.9-2.3,0.9
		c-0.1,0-0.3,0-0.4,0c-1.4,0-2.5-0.3-3.2-1L167,363l0,0c-0.1-0.1-0.2-0.3-0.3-0.4c0-0.1-0.1-0.1-0.1-0.2l0,0l-0.1-0.3l0,0l0,0
		c-0.2-0.5-0.3-1.4-0.3-2.6c0-0.6,0-1.5,0-2.4v-1.3c0-0.2,0-0.5,0-1c0-0.6,0-1.1,0-1.5c0-0.5,0-0.9,0-1.3v-0.3c0-0.4,0-0.7,0-1
		c0-0.3,0.1-0.6,0.2-0.9s0.4-0.6,0.6-0.8c0.4-0.3,0.9-0.4,1.4-0.2l0,0l0.4,0.1h-0.1c0.1,0,0.2,0.1,0.2,0.1c0.2,0.1,0.3,0.2,0.4,0.4
		v-0.1l0.2,0.4l0,0c0.1,0.2,0.2,0.6,0.3,1.2v0.1c0,0.2,0.1,0.4,0.2,0.6c0.1,0.1,0.2,0.3,0.4,0.3s0.3,0.1,0.5,0.2
		c0.1,0,0.3,0,0.6,0.1c0.6,0.1,1,0.2,1.2,0.3c0.3,0.1,0.5,0.4,0.7,0.7c0.2,0.3,0.2,0.7,0.2,1c0,0.2-0.1,0.4-0.2,0.6
		c-0.1,0.1-0.3,0.3-0.4,0.3c-0.1,0-0.3,0.1-0.5,0.1c-0.1,0-0.3,0-0.5,0h-0.3c-0.4,0-0.6,0-0.8,0.1c-0.5,0.1-0.8,0.4-1,0.9
		c-0.2,0.5-0.2,1.3-0.1,2.5c0,0.4,0.1,0.6,0.1,0.8c0,0.5,0.2,0.8,0.5,1.1c0.3,0.3,0.8,0.4,1.4,0.4c0.1,0,0.2,0,0.3,0
		C172.5,361,172.9,361,173.1,361.3z"/>
	<path class="st11" d="M175.2,350.3c-0.2-0.3-0.3-0.7-0.2-1.1c0-0.5,0.2-0.9,0.6-1.3l0.1-0.1l0.1-0.1c0.3-0.3,0.6-0.4,1-0.6
		c0.4-0.1,0.8-0.1,1.1-0.1c0.5,0.1,0.9,0.4,1.2,0.9l0,0l0,0l0.1,0.2l0,0c0,0.1,0,0.1,0,0.2c0.1,0.4,0,0.7-0.1,1.1l0,0l-0.1,0.2l0,0
		c-0.4,0.7-0.9,1.1-1.6,1.3c-0.2,0-0.3,0.1-0.5,0.1c-0.4,0-0.7-0.1-1-0.3c-0.1-0.1-0.2-0.2-0.3-0.3c-0.1-0.1-0.1-0.2-0.2-0.3
		l-0.1-0.1L175.2,350.3z M179.2,358.4c0,0.9,0.1,1.6,0.1,2.1v0.2v0.1c0,1.1-0.1,1.9-0.3,2.6v0.1v0.1c-0.1,0.1-0.1,0.2-0.2,0.3
		c-0.2,0.4-0.5,0.7-0.9,0.8h-0.2h-0.1c-0.1,0-0.1,0-0.2,0c-0.3,0-0.6-0.1-1-0.2c-0.5-0.2-0.8-0.5-0.9-0.9c-0.2-0.4-0.2-0.9-0.3-1.5
		c0-0.4,0-1.1,0-1.9c0-1.3,0-2.3,0-3c0-0.1,0-0.2,0-0.4c0-0.3,0-0.5,0-0.7V356v-0.1c0-1.1,0.2-1.9,0.5-2.5l0,0l0,0l0,0l0.1-0.1
		l0.1-0.1c0.5-0.6,1.1-0.8,1.8-0.7c0.7,0.1,1.1,0.4,1.4,1c0.2,0.4,0.3,0.8,0.3,1.4c0,0.5,0,1-0.1,1.4c-0.1,0.6-0.1,1-0.1,1.2
		C179.2,357.7,179.2,357.9,179.2,358.4L179.2,358.4z"/>
	<path class="st11" d="M191.5,352.8c0.7,0.7,1,1.6,0.9,2.7c0,0.3-0.1,0.6-0.4,0.9c-0.3,0.3-0.5,0.4-0.8,0.4c-0.1,0-0.2,0-0.3,0l0,0
		h-0.3l0,0c-0.3-0.1-0.7-0.3-1.1-0.6l-0.1-0.1l0,0l0,0l-0.2-0.1c-0.3-0.2-0.5-0.3-0.6-0.4c-0.1-0.1-0.3-0.2-0.5-0.3
		c-0.2-0.1-0.4-0.1-0.6-0.1c-0.3,0-0.6,0.1-1,0.4c-0.5,0.3-0.8,0.8-1.1,1.5c-0.3,0.8-0.4,1.7-0.3,2.5l0,0c0.2,0.9,0.6,1.5,1.2,1.8
		c0.3,0.1,0.6,0.2,1,0.2c0.5,0,1-0.1,1.6-0.4c0.2-0.1,0.5-0.2,0.8-0.4c0.2-0.1,0.3-0.2,0.4-0.2c0.7-0.3,1.2-0.3,1.6,0.2
		c0.3,0.3,0.4,0.7,0.3,1.2c0,0.5-0.2,1-0.5,1.4c-0.7,0.9-1.9,1.4-3.5,1.4c-0.7,0-1.4-0.1-2.1-0.3h-0.1h-0.2c-0.1,0-0.2-0.1-0.3-0.1
		c-0.3-0.1-0.5-0.2-0.8-0.3l-0.2-0.1c-0.8-0.4-1.5-1-2-1.7c-0.5-0.7-0.9-1.4-1.1-2.3c-0.4-1.5-0.2-2.9,0.4-4.3s1.7-2.5,3.1-3.3
		c0.6-0.4,1.3-0.6,2-0.8h0.1h0.1c0.9-0.2,1.8-0.2,2.6,0.1l0,0h0.1h0.1C190.3,351.9,191,352.3,191.5,352.8z"/>
	<path class="st11" d="M206,356.3c0.2,0.6,0.2,1.2,0.2,1.7c0,0.2-0.1,0.4-0.1,0.7c-0.2,0.8-0.6,1.6-1.1,2.3l-0.1,0.1l-0.1,0.1
		c-0.3,0.4-0.7,0.8-1,1.1l-0.1,0.1l-0.1,0.1c-1.4,1.2-2.9,1.8-4.5,1.8c-0.6,0-1.3-0.1-1.9-0.3c-0.6-0.2-1.2-0.5-1.7-1
		c-0.1-0.1-0.1-0.1-0.2-0.2c-0.9-0.8-1.4-1.8-1.6-3s-0.1-2.4,0.3-3.6c0.4-1,0.9-1.8,1.7-2.6c0.7-0.7,1.6-1.3,2.5-1.6h0.1h0.2
		c0.5-0.1,1-0.2,1.4-0.2h0.2h0.1c1,0,2,0.3,2.9,0.8c0.5,0.3,0.9,0.5,1.2,0.9c0.1,0.1,0.2,0.2,0.3,0.3l0.1,0.1l0.1,0.1
		C205.3,354.7,205.7,355.4,206,356.3L206,356.3L206,356.3z M198.1,359.3c0.1,0.3,0.4,0.6,0.6,0.8c0.3,0.2,0.6,0.4,0.9,0.4
		c0.6,0.1,1-0.1,1.4-0.6c0.3-0.4,0.5-0.8,0.7-1.2c0.2-0.4,0.2-0.9,0.2-1.4s-0.2-1-0.6-1.3c-0.4-0.4-0.8-0.5-1.3-0.4
		c-0.4,0-0.7,0.2-1,0.4c-0.3,0.3-0.6,0.6-0.8,0.9c-0.1,0.2-0.2,0.3-0.2,0.5c-0.1,0.6-0.2,1.1,0,1.6
		C198.1,359,198.1,359.1,198.1,359.3z"/>
</g>
</svg>
