<?xml version="1.0" encoding="iso-8859-1"?>
<!-- Generator: Adobe Illustrator 19.0.0, SVG Export Plug-In . SVG Version: 6.00 Build 0)  -->
<svg version="1.1" id="Capa_1" xmlns="http://www.w3.org/2000/svg" xmlns:xlink="http://www.w3.org/1999/xlink" x="0px" y="0px"
	 viewBox="0 0 512.019 512.019" style="enable-background:new 0 0 512.019 512.019;" xml:space="preserve">
<path style="fill:#CFD8DC;" d="M178.229,376.467L135.562,333.8c-2.182-2.236-5.25-3.378-8.363-3.115
	c-3.092,0.223-5.935,1.78-7.787,4.267l-117.269,160c-3.535,4.713-2.58,11.399,2.133,14.933c3.793,2.844,9.007,2.844,12.8,0
	l160-117.333c4.752-3.481,5.783-10.156,2.302-14.908c-0.323-0.44-0.678-0.855-1.064-1.241L178.229,376.467z"/>
<path style="fill:#D32F2F;" d="M316.895,301.8L210.229,195.134c-17.945-13.971-40.303-21.048-63.019-19.947
	c-29.736-1.04-58.626,10.003-80.085,30.613c-17.323,17.323-15.531,44.096,5.333,79.595c19.704,30.896,42.975,59.365,69.333,84.821
	c42.432,42.411,96,86.485,135.04,86.485c11.003,0.279,21.632-3.998,29.376-11.819C350.623,400.488,339.551,324.478,316.895,301.8z"
	/>
<path style="fill:#F44336;" d="M402.229,216.467L295.562,109.8c-4.165-4.164-10.917-4.164-15.083,0l-85.333,85.333
	c-13.952,13.952-12.8,44.8,32,89.749c29.248,29.248,52.565,39.893,69.12,39.893c7.662,0.271,15.105-2.577,20.629-7.893
	l85.333-85.333C406.393,227.384,406.393,220.632,402.229,216.467z"/>
<path style="fill:#D32F2F;" d="M511.199,187.944c-1.649-3.989-5.54-6.591-9.856-6.592c-23.125,0-73.899-25.003-109.781-60.885
	s-60.885-86.635-60.885-109.781C330.687,4.795,325.92,0.011,320.029,0c-2.84-0.005-5.565,1.123-7.571,3.134
	c-43.563,43.584-57.173,117.909,10.667,185.749c25.809,28.681,62.137,45.683,100.693,47.125
	c32.07-0.368,62.675-13.486,85.056-36.459C511.921,196.506,512.838,191.928,511.199,187.944z"/>
<path style="fill:#F44336;" d="M444.895,67.134C399.711,21.971,358.858,0.019,320.01,0.019c-5.891,0-10.667,4.776-10.667,10.667
	c0,31.851,30.123,87.872,67.115,124.885s93.056,67.115,124.885,67.115c5.891,0,10.667-4.776,10.667-10.667
	C512.01,153.15,490.058,112.296,444.895,67.134z"/>
<g>
</g>
<g>
</g>
<g>
</g>
<g>
</g>
<g>
</g>
<g>
</g>
<g>
</g>
<g>
</g>
<g>
</g>
<g>
</g>
<g>
</g>
<g>
</g>
<g>
</g>
<g>
</g>
<g>
</g>
</svg>
