<svg width="1366" height="446" viewBox="0 0 1366 446" fill="none" xmlns="http://www.w3.org/2000/svg">
<path fill-rule="evenodd" clip-rule="evenodd" d="M0 69.6313L45.5333 60.9469L45.5335 60.9469L45.5336 60.9469C91.067 52.2625 182.133 34.8938 273.2 20.4018C364.267 6.12691 455.333 -5.81409 546.4 3.0331C591.933 7.29387 637.467 16.7517 683 26.2095C728.533 35.6673 774.067 45.1251 819.6 49.3859C872.446 54.5199 925.293 52.6535 978.139 50.7871C1016.36 49.4373 1054.58 48.0874 1092.8 49.3859C1183.87 52.2626 1274.93 69.6313 1320.47 78.3156L1366 87V336V337V382.481L1320.47 394.102C1274.93 405.722 1183.87 428.963 1092.8 425.113C1053.12 423.309 1013.43 416.499 973.746 409.688C922.364 400.871 870.982 392.053 819.6 394.102C771.463 396.021 723.327 407.884 675.19 419.746C632.26 430.326 589.33 440.906 546.4 444.432C485.641 449.617 424.883 440.997 364.124 432.377C333.816 428.078 303.508 423.778 273.2 421.191C182.133 413.711 91.0667 420.974 45.5333 425.113L0 428.963V337V336V87V69.6313Z" fill="url(#paint0_linear)"/>
<defs>
<linearGradient id="paint0_linear" x1="1358" y1="199" x2="-28" y2="241" gradientUnits="userSpaceOnUse">
<stop stop-color="#CEEAFA"/>
<stop offset="0.322917" stop-color="#9DC9E2"/>
<stop offset="0.666667" stop-color="#CEEAFA"/>
<stop offset="1" stop-color="#9DC9E2"/>
</linearGradient>
</defs>
</svg>
