<svg width="549" height="914" viewBox="0 0 549 914" fill="none" xmlns="http://www.w3.org/2000/svg">
<g clip-path="url(#clip0)">
<rect width="549" height="914" fill="white"/>
<path d="M380.02 147.997C376.111 150.049 372.113 151.585 368.062 152.592C357.003 155.507 345.721 155.034 334.763 151.196C327.184 148.535 319.878 144.036 313.073 137.84C305.274 130.68 298.273 121.307 292.382 110.138C285.817 97.8259 280.881 83.3227 277.896 67.5817C277.116 63.4256 276.509 59.1834 276.08 54.886C275.595 50.5737 275.272 46.2148 275.111 41.8347C274.975 39.6257 275.111 37.4166 275.02 35.1822C274.975 32.9466 275.005 30.7086 275.111 28.4788C275.217 26.2443 275.323 24.0099 275.414 21.7754C275.505 19.541 275.823 17.3065 276.035 15.0467C276.925 6.20764 278.371 -2.44836 280.348 -10.7765C281.226 -14.9407 282.422 -18.851 283.512 -22.812C284.057 -24.7672 284.738 -26.6462 285.343 -28.5251C285.927 -30.4403 286.569 -32.3047 287.266 -34.1112C292.387 -48.1603 298.803 -60.7585 306.277 -71.4367C313.072 -80.9847 320.521 -89.142 328.466 -95.7364C335.396 -101.446 342.601 -106.16 350.005 -109.829C360.72 -115.056 371.7 -118.609 382.805 -120.442C386.74 -121.077 389.798 -121.483 391.887 -121.636L394.248 -121.839H395.05L394.248 -121.687L391.902 -121.356C389.828 -121.128 386.771 -120.645 382.82 -119.935C371.754 -117.9 360.819 -114.221 350.141 -108.94C342.79 -105.222 335.636 -100.483 328.754 -94.7715C320.871 -88.1312 313.488 -79.9398 306.761 -70.3703C299.359 -59.7544 293.005 -47.2428 287.932 -33.2987C287.22 -31.5467 286.645 -29.6423 286.024 -27.7887C285.404 -25.9352 284.768 -24.0562 284.223 -22.1011C283.149 -18.1908 281.968 -14.3059 281.09 -10.167C279.137 -1.91851 277.706 6.65167 276.822 15.4022C276.625 17.6112 276.413 19.8457 276.216 22.0294C276.019 24.213 276.019 26.4729 275.913 28.6819C275.8 30.8856 275.77 33.099 275.823 35.3091C275.823 37.5182 275.823 39.7019 275.823 41.8855C275.984 46.215 276.308 50.5231 276.791 54.7844C277.215 58.9958 277.812 63.1531 278.577 67.2262C281.515 82.8021 286.384 97.1583 292.866 109.351C298.686 120.448 305.604 129.776 313.315 136.926C320.056 143.076 327.289 147.565 334.793 150.256C345.692 154.138 356.915 154.749 367.941 152.059C371.831 151.044 374.828 150.003 376.856 149.19L379.142 148.251L380.02 147.997Z" fill="#377BFF"/>
<path d="M617.113 36.7567C615.599 31.1198 615.281 24.8735 614.297 18.9827C614.125 17.354 613.752 15.8036 613.202 14.4307C612.652 13.0578 611.937 11.8927 611.104 11.0098C609.851 10.3961 608.577 9.9127 607.289 9.56243C602.749 7.30258 601.568 -3.13332 597.33 -6.4596C595.957 -7.3265 594.512 -7.83183 593.046 -7.95769C587.37 -9.07492 581.482 -12.3758 577.91 -19.8663C576.883 -22.472 575.706 -24.9041 574.399 -27.1283C572.885 -29.0834 570.675 -29.9467 569.267 -27.9154C570.463 -23.9036 571.644 -19.8663 572.824 -15.8798C573.746 -12.0933 575.098 -8.64368 576.805 -5.72323C577.671 -4.30335 578.759 -3.3234 579.943 -2.89656C581.126 -2.46972 582.358 -2.6134 583.495 -3.31104C584.159 -4.09484 584.94 -4.55214 585.751 -4.63141C586.359 -4.46342 586.904 -3.8973 587.264 -3.05715C590.291 2.68133 589.353 12.1778 586.326 18.1194C583.299 24.061 578.864 27.0064 574.565 29.8756C573.079 31.1165 571.422 31.6605 569.767 31.4499C566.74 30.5104 565.226 25.0766 564.348 20.2015C562.396 9.41009 561.457 -2.29539 557.476 -11.4109C556.031 -14.0501 554.813 -17.0158 553.859 -20.2218C553.041 -23.8528 553.223 -28.0678 551.936 -31.2671C550.65 -34.4664 547.729 -36.5231 547.532 -40.5604C547.573 -41.9893 547.86 -43.3674 548.36 -44.5262C548.86 -45.6851 549.551 -46.5746 550.347 -47.086C551.861 -48.3302 553.617 -48.6857 555.191 -49.7775C555.826 -50.2346 556.523 -50.9963 556.538 -52.1135C556.538 -53.8148 555.145 -54.5003 554.782 -56.0746C554.419 -57.6489 555.478 -59.4771 555.932 -61.1529C556.931 -65.0886 554.419 -69.0751 552.103 -70.6747C549.787 -72.2744 546.896 -73.4678 545.791 -77.3273C545.381 -79.1819 545.122 -81.1206 545.019 -83.0912C544.795 -85.556 544.142 -87.8553 543.144 -89.7021C542.145 -91.549 540.844 -92.8616 539.404 -93.4763C536.452 -94.2888 533.183 -89.8961 533.667 -84.9701C533.955 -82.2786 535.181 -80.1965 535.801 -77.6828C536.422 -75.169 536.286 -71.4873 534.742 -70.6747C532.229 -69.4051 529.792 -77.1242 527.688 -74.4581C528.551 -69.3798 529.384 -64.5554 530.261 -59.5786C526.947 -56.7602 522.981 -61.8639 521.558 -67.6531C520.135 -73.4424 520.045 -80.0188 518.425 -85.5795C516.805 -91.1403 512.204 -95.3299 509.343 -91.3942C509.192 -84.2084 514.838 -81.2376 517.335 -75.5245C519.136 -71.3349 518.849 -64.53 516.2 -61.8639C513.551 -59.1978 509.358 -63.8444 510.373 -68.7196C510.736 -70.3954 511.568 -71.8173 511.659 -73.6201C511.765 -75.88 510.63 -77.6828 509.601 -79.1301C507.996 -81.4407 506.392 -83.7006 504.772 -85.935C503.794 -87.5289 502.629 -88.7652 501.351 -89.566C498.037 -91.191 494.722 -86.6714 492.966 -81.72C491.21 -76.7687 490.226 -70.8778 487.805 -66.739C484.323 -60.6959 477.724 -60.3404 474.454 -66.739C471.185 -73.1377 472.85 -84.894 477.678 -87.1792C479.495 -88.0425 481.811 -87.9663 482.764 -90.6578C484.444 -95.4568 479.646 -101.576 481.251 -106.401C482.522 -110.108 485.882 -108.406 488.334 -109.651C490.786 -110.895 492.134 -115.008 493.571 -118.563C495.009 -122.118 497.219 -125.597 499.717 -124.682C499.382 -127.119 499.471 -129.666 499.974 -132.021C500.119 -132.586 500.331 -133.096 500.597 -133.518C500.864 -133.94 501.179 -134.266 501.524 -134.476C501.869 -134.685 502.236 -134.774 502.602 -134.736C502.968 -134.698 503.325 -134.534 503.652 -134.255C502.426 -130.878 503.894 -126.181 506.029 -124.479C508.263 -123.119 510.679 -122.829 513.006 -123.641C515.368 -124.124 518.319 -125.571 518.516 -129.507C518.402 -130.786 518.402 -132.087 518.516 -133.366C519.56 -138.089 524.737 -131.614 526.735 -135.398C527.885 -137.353 526.614 -140.857 525.009 -141.517C523.405 -142.177 521.755 -141.187 520.135 -141.111C518.516 -141.035 516.503 -142.431 516.427 -145.173C516.351 -147.916 518.168 -149.82 518.349 -152.461C518.667 -156.98 514.111 -158.148 512.492 -154.467C510.872 -150.785 511.462 -145.783 511.947 -141.314C512.431 -136.845 512.688 -131.564 510.721 -128.415C509.873 -126.282 507.693 -127.425 506.982 -129.685C506.421 -132.108 506.183 -134.708 506.286 -137.302C506.312 -138.595 506.109 -139.871 505.702 -140.97C505.295 -142.069 504.703 -142.939 504 -143.472C502.922 -143.632 501.836 -143.425 500.807 -142.863C496.629 -142.025 493.723 -151.064 495.04 -157.768C496.357 -164.471 500.141 -168.787 503.803 -172.215C506.498 -174.754 509.858 -177.04 512.492 -174.501C513.748 -173.358 514.611 -171.327 515.837 -170.133C517.941 -168.026 520.559 -168.787 522.981 -168.711C526.826 -168.535 530.517 -166.131 533.425 -161.906C534.515 -160.256 535.514 -157.514 534.681 -155.559C533.849 -153.603 531.155 -153.019 531.654 -150.48C532.359 -150.15 533.099 -150.074 533.823 -150.257C534.547 -150.44 535.24 -150.878 535.856 -151.542C536.472 -152.207 536.998 -153.082 537.398 -154.111C537.798 -155.14 538.064 -156.3 538.178 -157.514C538.868 -156.986 539.465 -156.165 539.908 -155.131C540.351 -154.098 540.626 -152.889 540.705 -151.623C541.496 -152.843 542.429 -153.775 543.445 -154.36C544.462 -154.945 545.539 -155.171 546.61 -155.023C547.68 -154.875 548.721 -154.356 549.667 -153.5C550.612 -152.644 551.442 -151.469 552.103 -150.049C552.649 -148.357 553.372 -146.843 554.237 -145.58C555.206 -144.513 556.886 -145.046 557.007 -146.951C557.024 -147.553 556.957 -148.153 556.81 -148.703C556.235 -151.445 555.63 -154.137 555.055 -156.853C557.295 -158.859 559.928 -155.711 561.442 -152.334C567.057 -139.638 571.069 -147.255 579 -145.25C584.343 -143.878 586.704 -138.115 589.716 -131.157C598.995 -109.727 611.225 -92.1813 619.656 -69.786C620.549 -67.45 621.366 -65.0632 622.123 -62.651C621.987 -63.2604 621.865 -63.8698 621.714 -64.4792C618.427 -79.0063 614.332 -92.9825 609.484 -106.223C608.44 -109.041 607.395 -111.834 606.306 -114.577C605.64 -116.252 604.943 -117.979 604.247 -119.655C603.354 -121.839 602.416 -123.921 601.492 -126.028C600.735 -127.729 599.979 -129.38 599.222 -131.106C598.707 -132.224 598.147 -133.366 597.602 -134.484C597.057 -135.601 596.391 -137.023 595.725 -138.267L593.712 -142.177C593.508 -142.602 593.291 -143.009 593.061 -143.396C592.365 -144.767 591.623 -146.087 590.882 -147.408C590.827 -147.572 590.749 -147.711 590.655 -147.814C590.473 -148.17 590.246 -148.55 590.034 -148.906C589.429 -150.023 588.793 -151.115 588.157 -152.207C587.128 -153.984 586.068 -155.762 584.994 -157.437C583.919 -159.113 583.193 -160.332 582.254 -161.754C581.316 -163.176 580.619 -164.293 579.787 -165.461L577.32 -168.991C576.306 -170.438 575.276 -171.86 574.217 -173.256C571.311 -177.167 568.319 -180.865 565.241 -184.352L562.971 -186.892C562.199 -187.78 561.457 -188.593 560.64 -189.431C559.822 -190.269 559.126 -191.081 558.279 -191.97C557.431 -192.859 556.765 -193.595 555.902 -194.357C555.039 -195.118 554.631 -195.601 553.98 -196.16C553.667 -196.516 553.338 -196.83 552.996 -197.099C551.634 -198.394 550.241 -199.638 548.849 -200.806L546.745 -202.584C545.852 -203.345 544.944 -204.056 544.02 -204.742C543.893 -204.882 543.756 -204.993 543.612 -205.072C542.794 -205.707 541.977 -206.367 541.144 -206.951C539.964 -207.814 538.798 -208.652 537.618 -209.49C536.437 -210.328 534.923 -211.344 533.561 -212.182C532.199 -213.019 530.534 -214.086 529.02 -214.924C527.507 -215.762 525.917 -216.65 524.358 -217.463C522.799 -218.276 521.24 -218.986 519.651 -219.723C516.533 -221.128 513.375 -222.372 510.176 -223.455C510.115 -223.467 510.055 -223.467 509.994 -223.455C508.783 -223.862 507.557 -224.268 506.331 -224.598H506.089C505.559 -224.75 505.014 -224.928 504.454 -225.03C502.169 -225.69 499.913 -226.198 497.537 -226.655C497.28 -226.655 496.992 -226.655 496.705 -226.807C496.024 -226.959 495.358 -227.061 494.661 -227.163C493.138 -227.416 491.594 -227.62 490.03 -227.772C488.425 -227.975 486.79 -228.102 485.156 -228.178C483.521 -228.254 481.75 -228.331 480.04 -228.331C475.499 -228.331 471.064 -228.026 466.644 -227.34C465.6 -227.34 464.555 -227.061 463.526 -226.858C462.497 -226.655 461.362 -226.452 460.287 -226.198C459.212 -225.944 458.123 -225.715 457.078 -225.436C456.034 -225.157 454.929 -224.877 453.854 -224.547C452.78 -224.217 452.008 -224.039 451.099 -223.709C448.844 -222.973 446.559 -222.186 444.394 -221.17C443.365 -220.764 442.336 -220.307 441.367 -219.824C440.398 -219.342 439.293 -218.91 438.34 -218.428C436.629 -217.615 434.979 -216.727 433.314 -215.889L429.273 -213.603H429.182C427.805 -212.791 426.488 -211.953 425.141 -211.064H424.929C423.703 -210.277 422.477 -209.414 421.281 -208.525C419.768 -207.484 418.254 -206.342 416.816 -205.224C415.378 -204.107 414.349 -203.295 413.138 -202.279C411.927 -201.263 410.55 -200.095 409.278 -198.978H409.142C407.916 -197.886 406.69 -196.769 405.494 -195.601C404.298 -194.433 403.012 -193.24 401.786 -191.945C400.635 -190.777 399.5 -189.609 398.38 -188.39C397.941 -187.958 397.533 -187.476 397.094 -186.993C395.898 -185.698 394.748 -184.454 393.567 -183.007C392.053 -181.356 390.736 -179.604 389.344 -177.928C387.951 -176.253 386.922 -174.831 385.741 -173.256C378.955 -164.185 372.645 -154.152 366.882 -143.269C364.838 -139.486 362.916 -135.652 361.039 -131.665C359.526 -128.288 357.921 -124.86 356.498 -121.305C355.166 -118.233 353.895 -115.084 352.669 -111.911C353.895 -115.084 355.166 -118.233 356.498 -121.305C356.823 -121.282 357.146 -121.231 357.467 -121.153C359.637 -121.086 361.796 -121.679 363.84 -122.905C365.503 -124.731 367.077 -126.777 368.547 -129.024C372.724 -134.103 379.566 -134.941 380.656 -143.32C381.034 -146.138 380.58 -149.185 381.201 -151.877C382.381 -156.955 386.392 -157.641 389.601 -157.564C390.979 -157.564 392.628 -157.234 393.204 -155.228C393.376 -154.477 393.453 -153.673 393.429 -152.868C393.406 -152.064 393.283 -151.276 393.067 -150.556C391.054 -141.095 387.164 -133.081 382.048 -127.856C377.871 -123.591 372.422 -120.239 371.271 -112.317C371.847 -109.6 374.768 -109.778 375.01 -106.985C375.176 -104.725 373.496 -103.557 372.83 -101.551C371.922 -98.6054 373.996 -95.0252 375.994 -95.2029C377.98 -95.7729 379.787 -97.4773 381.11 -100.027C385.484 -106.832 390.055 -114.145 391.705 -123.819C392.386 -127.806 392.613 -132.478 394.536 -135.144C395.127 -135.819 395.803 -136.259 396.511 -136.429C397.219 -136.599 397.941 -136.495 398.622 -136.125C399.303 -135.755 399.924 -135.128 400.438 -134.294C400.952 -133.459 401.346 -132.439 401.589 -131.31C403.496 -133.087 406.448 -134.407 407.432 -131.106C407.652 -129.875 407.789 -128.606 407.84 -127.323C408.461 -122.245 412.654 -119.706 413.093 -114.627C413.592 -108.61 409.006 -105.512 405.434 -104.471C402.195 -103.607 398.955 -102.77 395.716 -101.932C394.283 -101.764 392.897 -101.015 391.675 -99.748C391.075 -99.0819 390.629 -98.0913 390.412 -96.9409C390.194 -95.7906 390.218 -94.5499 390.479 -93.4255C390.964 -92.3452 391.528 -91.3726 392.159 -90.5309C394.853 -86.0366 392.644 -76.7179 388.844 -76.5148C387.558 -76.5148 386.271 -77.2511 384.985 -77.3273C381.14 -77.6066 378.098 -71.9443 376.266 -66.2566C374.435 -60.5689 373.073 -54.0941 370 -50.2346C365.066 -43.9882 356.544 -45.4356 354.137 -35.863C353.184 -31.9781 353.683 -27.6361 354.062 -23.4973C354.44 -19.3585 354.622 -14.788 353.184 -11.3601C351.746 -7.93229 348.068 -7.27213 347.008 -11.0555C346.647 -12.7784 346.595 -14.6406 346.857 -16.4131C347.432 -22.3547 347.992 -28.2794 348.537 -34.1871C348.946 -38.6052 349.309 -43.5566 347.75 -47.1876C345.57 -52.2659 340.666 -51.7834 337.836 -47.7208C335.005 -43.6582 333.855 -37.2849 333.068 -31.1909C332.519 -25.6935 331.6 -20.3184 330.328 -15.1689V-15.1689C329.813 -10.0906 329.405 -5.01227 329.102 0.0660306C328.799 5.14433 328.572 10.4765 328.451 15.8088C328.879 15.2015 329.289 14.5574 329.677 13.879C331.191 11.3398 334.218 0.167578 336.973 5.60136C337.312 6.32572 337.496 7.2198 337.496 8.14051C337.496 9.06122 337.312 9.9553 336.973 10.6797C336.14 12.4825 334.46 12.8887 333.809 14.8693C333.159 16.8498 334.112 20.0999 335.414 21.6234C336.851 22.7475 338.165 24.2665 339.304 26.1177C341.044 30.3581 339.304 36.7567 341.075 41.0733C342.588 44.7805 345.616 45.009 348.325 45.4914L349.233 45.7453C349.975 36.8837 352.457 29.6725 359.662 26.9302C369.591 23.1469 382.654 36.9599 388.239 49.5287C394.49 63.5702 397.442 83.4771 406.993 90.5106C413.834 95.5889 423.552 93.7353 426.897 104.958C429.924 115.115 424.687 126.363 423.869 137.51C423.37 144.874 424.808 152.212 425.141 159.575C425.474 166.939 424.157 175.597 420.161 178.695C417.921 180.396 415.121 180.193 413.32 183.012C410.126 188.09 412.744 198.551 409.551 203.63C408.305 205.134 406.939 206.34 405.494 207.21C398.305 213.304 398.501 231.002 401.846 243.291L402.195 244.586C424.607 267.066 450.099 279.464 476.204 280.581C502.309 281.697 528.143 271.495 551.21 250.96V250.96C555.821 246.82 560.302 242.286 564.636 237.375C575.936 224.658 586.151 209.419 594.999 192.077C597.542 187.176 599.933 181.92 602.249 176.842C603.415 174.15 604.58 171.459 605.655 168.666C608.989 160.521 612.021 152.041 614.736 143.274C618.692 130.552 621.974 117.272 624.545 103.587C627.24 89.5172 629.18 75.0712 630.342 60.4216C630.796 54.7085 631.159 48.9193 631.386 43.0792C629.803 45.8709 627.628 47.5039 625.332 47.6243C621.578 47.5227 618.566 42.3937 617.113 36.7567Z" fill="#377BFF"/>
<g opacity="0.8">
<path opacity="0.8" d="M617.113 36.932C615.599 31.2914 615.281 25.0409 614.297 19.1462C614.125 17.5165 613.752 15.9651 613.202 14.5913C612.652 13.2174 611.937 12.0515 611.104 11.168C609.851 10.5539 608.577 10.0702 607.289 9.71973C602.749 7.45839 601.568 -2.98441 597.33 -6.3129C595.957 -7.18037 594.512 -7.68604 593.046 -7.81198C587.37 -8.92994 581.482 -12.233 577.91 -19.7285C576.883 -22.3359 575.706 -24.7696 574.399 -26.9952C572.885 -28.9517 570.675 -29.8156 569.267 -27.7829C570.463 -23.7684 571.644 -19.7285 572.824 -15.7394C573.746 -11.9503 575.098 -8.49842 576.805 -5.57604C577.671 -4.15521 578.759 -3.17462 579.943 -2.74749C581.126 -2.32037 582.358 -2.46416 583.495 -3.16226C584.159 -3.94657 584.94 -4.40417 585.751 -4.4835C586.359 -4.31539 586.904 -3.7489 587.264 -2.9082C590.291 2.83408 589.353 12.3368 586.326 18.2824C583.299 24.2279 578.864 27.1752 574.565 30.0464C573.079 31.2881 571.422 31.8324 569.767 31.6217C566.74 30.6816 565.226 25.2442 564.348 20.3658C562.396 9.56729 561.457 -2.14593 557.476 -11.2675C556.031 -13.9084 554.813 -16.8761 553.859 -20.0842C553.041 -23.7176 553.223 -27.9354 551.936 -31.1368C550.65 -34.3383 547.729 -36.3963 547.532 -40.4362C547.573 -41.8661 547.86 -43.2451 548.36 -44.4047C548.86 -45.5644 549.551 -46.4544 550.347 -46.9662C551.861 -48.2112 553.617 -48.5669 555.191 -49.6594C555.826 -50.1168 556.523 -50.879 556.538 -51.997C556.538 -53.6994 555.145 -54.3854 554.782 -55.9607C554.419 -57.536 555.478 -59.3654 555.932 -61.0424C556.931 -64.9807 554.419 -68.9698 552.103 -70.5705C549.787 -72.1712 546.896 -73.3654 545.791 -77.2274C545.381 -79.0833 545.122 -81.0232 545.019 -82.9951C544.795 -85.4616 544.142 -87.7624 543.144 -89.6105C542.145 -91.4585 540.844 -92.772 539.404 -93.3871C536.452 -94.2002 533.183 -89.8045 533.667 -84.8753C533.955 -82.1821 535.181 -80.0986 535.801 -77.5832C536.422 -75.0677 536.286 -71.3835 534.742 -70.5705C532.229 -69.3001 529.792 -77.0242 527.688 -74.3563C528.551 -69.2746 529.384 -64.4471 530.261 -59.467C526.947 -56.6467 522.981 -61.7538 521.558 -67.5469C520.135 -73.34 520.045 -79.9207 518.425 -85.4851C516.805 -91.0495 512.204 -95.2419 509.343 -91.3036C509.192 -84.1131 514.838 -81.1403 517.335 -75.4235C519.136 -71.2311 518.849 -64.4217 516.2 -61.7538C513.551 -59.0859 509.358 -63.7356 510.373 -68.614C510.736 -70.291 511.568 -71.7138 511.659 -73.5178C511.765 -75.7792 510.63 -77.5832 509.601 -79.0314C507.996 -81.3436 506.392 -83.6049 504.772 -85.8408C503.794 -87.4358 502.629 -88.6729 501.351 -89.4742C498.037 -91.1004 494.722 -86.5777 492.966 -81.6231C491.21 -76.6685 490.226 -70.7737 487.805 -66.6322C484.323 -60.585 477.724 -60.2293 474.454 -66.6322C471.185 -73.0351 472.85 -84.7991 477.678 -87.0859C479.495 -87.9498 481.811 -87.8735 482.764 -90.5668C484.444 -95.369 479.646 -101.492 481.251 -106.32C482.522 -110.03 485.882 -108.327 488.334 -109.572C490.786 -110.817 492.134 -114.933 493.571 -118.491C495.009 -122.048 497.219 -125.529 499.717 -124.614C499.382 -127.052 499.471 -129.601 499.974 -131.957C500.119 -132.523 500.331 -133.033 500.597 -133.455C500.864 -133.878 501.179 -134.204 501.524 -134.414C501.869 -134.623 502.236 -134.712 502.602 -134.674C502.968 -134.636 503.325 -134.472 503.652 -134.193C502.426 -130.814 503.894 -126.113 506.029 -124.411C508.263 -123.049 510.679 -122.759 513.006 -123.572C515.368 -124.055 518.319 -125.503 518.516 -129.441C518.402 -130.722 518.402 -132.023 518.516 -133.304C519.56 -138.029 524.737 -131.55 526.735 -135.336C527.885 -137.293 526.614 -140.799 525.009 -141.46C523.405 -142.12 521.755 -141.129 520.135 -141.053C518.516 -140.977 516.503 -142.374 516.427 -145.118C516.351 -147.862 518.168 -149.768 518.349 -152.411C518.667 -156.933 514.111 -158.102 512.492 -154.418C510.872 -150.734 511.462 -145.728 511.947 -141.256C512.431 -136.784 512.688 -131.5 510.721 -128.349C509.873 -126.215 507.693 -127.358 506.982 -129.619C506.421 -132.044 506.183 -134.646 506.286 -137.242C506.312 -138.535 506.109 -139.813 505.702 -140.912C505.295 -142.011 504.703 -142.883 504 -143.416C502.922 -143.576 501.836 -143.368 500.807 -142.806C496.629 -141.968 493.723 -151.013 495.04 -157.721C496.357 -164.429 500.141 -168.748 503.803 -172.178C506.498 -174.719 509.858 -177.006 512.492 -174.465C513.748 -173.322 514.611 -171.289 515.837 -170.095C517.941 -167.986 520.559 -168.748 522.981 -168.672C526.826 -168.496 530.517 -166.089 533.425 -161.862C534.515 -160.211 535.514 -157.467 534.681 -155.51C533.849 -153.554 531.155 -152.97 531.654 -150.429C532.359 -150.098 533.099 -150.022 533.823 -150.205C534.547 -150.389 535.24 -150.827 535.856 -151.492C536.472 -152.156 536.998 -153.032 537.398 -154.062C537.798 -155.092 538.064 -156.252 538.178 -157.467C538.868 -156.939 539.465 -156.117 539.908 -155.083C540.351 -154.049 540.626 -152.839 540.705 -151.572C541.496 -152.793 542.429 -153.725 543.445 -154.311C544.462 -154.896 545.539 -155.122 546.61 -154.974C547.68 -154.826 548.721 -154.308 549.667 -153.451C550.612 -152.594 551.442 -151.418 552.103 -149.997C552.649 -148.304 553.372 -146.789 554.237 -145.525C555.206 -144.458 556.886 -144.991 557.007 -146.897C557.024 -147.499 556.957 -148.1 556.81 -148.65C556.235 -151.394 555.63 -154.088 555.055 -156.806C557.295 -158.813 559.928 -155.663 561.442 -152.284C567.057 -139.579 571.069 -147.202 579 -145.195C584.343 -143.823 586.704 -138.055 589.716 -131.093C598.995 -109.648 611.225 -92.0913 619.656 -69.6812C620.549 -67.3436 621.366 -64.9552 622.123 -62.5414C621.987 -63.1512 621.865 -63.761 621.714 -64.3708C618.427 -78.9076 614.332 -92.893 609.484 -106.142C608.44 -108.962 607.395 -111.757 606.306 -114.501C605.64 -116.178 604.943 -117.906 604.247 -119.583C603.354 -121.768 602.416 -123.852 601.492 -125.961C600.735 -127.663 599.979 -129.314 599.222 -131.042C598.707 -132.16 598.147 -133.304 597.602 -134.422C597.057 -135.539 596.391 -136.962 595.725 -138.207L593.712 -142.12C593.508 -142.545 593.291 -142.953 593.061 -143.34C592.365 -144.712 591.623 -146.033 590.882 -147.354C590.827 -147.519 590.749 -147.658 590.655 -147.761C590.473 -148.117 590.246 -148.498 590.034 -148.853C589.429 -149.971 588.793 -151.064 588.157 -152.157C587.128 -153.935 586.068 -155.714 584.994 -157.391C583.919 -159.068 583.193 -160.287 582.254 -161.71C581.316 -163.133 580.619 -164.251 579.787 -165.42L577.32 -168.951C576.306 -170.4 575.276 -171.823 574.217 -173.22C571.311 -177.133 568.319 -180.834 565.241 -184.323L562.971 -186.864C562.199 -187.754 561.457 -188.567 560.64 -189.405C559.822 -190.244 559.126 -191.057 558.279 -191.946C557.431 -192.835 556.765 -193.572 555.902 -194.334C555.039 -195.097 554.631 -195.579 553.98 -196.138C553.667 -196.495 553.338 -196.809 552.996 -197.078C551.634 -198.374 550.241 -199.619 548.849 -200.788L546.745 -202.567C545.852 -203.329 544.944 -204.04 544.02 -204.726C543.893 -204.866 543.756 -204.977 543.612 -205.057C542.794 -205.692 541.977 -206.352 541.144 -206.937C539.964 -207.801 538.798 -208.639 537.618 -209.478C536.437 -210.316 534.923 -211.332 533.561 -212.171C532.199 -213.009 530.534 -214.077 529.02 -214.915C527.507 -215.753 525.917 -216.643 524.358 -217.456C522.799 -218.269 521.24 -218.98 519.651 -219.717C516.533 -221.123 513.375 -222.368 510.176 -223.452C510.115 -223.464 510.055 -223.464 509.994 -223.452C508.783 -223.859 507.557 -224.265 506.331 -224.596H506.089C505.559 -224.748 505.014 -224.926 504.454 -225.027C502.169 -225.688 499.913 -226.196 497.537 -226.654C497.28 -226.654 496.992 -226.654 496.705 -226.806C496.024 -226.959 495.358 -227.06 494.661 -227.162C493.138 -227.416 491.594 -227.619 490.03 -227.772C488.425 -227.975 486.79 -228.102 485.156 -228.178C483.521 -228.254 481.75 -228.331 480.04 -228.331C475.499 -228.331 471.064 -228.026 466.644 -227.34C465.6 -227.34 464.555 -227.06 463.526 -226.857C462.497 -226.654 461.362 -226.45 460.287 -226.196C459.212 -225.942 458.123 -225.714 457.078 -225.434C456.034 -225.155 454.929 -224.875 453.854 -224.545C452.78 -224.214 452.008 -224.037 451.099 -223.706C448.844 -222.969 446.559 -222.182 444.394 -221.165C443.365 -220.759 442.336 -220.302 441.367 -219.819C440.398 -219.336 439.293 -218.904 438.34 -218.421C436.629 -217.608 434.979 -216.719 433.314 -215.881L429.273 -213.594H429.182C427.805 -212.781 426.488 -211.942 425.141 -211.053H424.929C423.703 -210.265 422.477 -209.401 421.281 -208.512C419.768 -207.47 418.254 -206.327 416.816 -205.209C415.378 -204.091 414.349 -203.278 413.138 -202.262C411.927 -201.245 410.55 -200.077 409.278 -198.959H409.142C407.916 -197.866 406.69 -196.748 405.494 -195.579C404.298 -194.41 403.012 -193.216 401.786 -191.92C400.635 -190.752 399.5 -189.583 398.38 -188.363C397.941 -187.931 397.533 -187.449 397.094 -186.966C395.898 -185.67 394.748 -184.425 393.567 -182.977C392.053 -181.325 390.736 -179.572 389.344 -177.895C387.951 -176.218 386.922 -174.795 385.741 -173.22C378.955 -164.142 372.645 -154.103 366.882 -143.213C364.838 -139.427 362.916 -135.59 361.039 -131.601C359.526 -128.222 357.921 -124.792 356.498 -121.235C355.166 -118.16 353.895 -115.01 352.669 -111.834C353.895 -115.01 355.166 -118.16 356.498 -121.235C356.823 -121.211 357.146 -121.161 357.467 -121.082C359.637 -121.015 361.796 -121.609 363.84 -122.835C365.503 -124.663 367.077 -126.71 368.547 -128.959C372.724 -134.04 379.566 -134.879 380.656 -143.264C381.034 -146.084 380.58 -149.133 381.201 -151.826C382.381 -156.908 386.392 -157.594 389.601 -157.518C390.979 -157.518 392.628 -157.187 393.204 -155.18C393.376 -154.428 393.453 -153.623 393.429 -152.818C393.406 -152.013 393.283 -151.225 393.067 -150.505C391.054 -141.037 387.164 -133.018 382.048 -127.79C377.871 -123.521 372.422 -120.167 371.271 -112.24C371.847 -109.521 374.768 -109.699 375.01 -106.904C375.176 -104.643 373.496 -103.474 372.83 -101.467C371.922 -98.5196 373.996 -94.937 375.994 -95.1149C377.98 -95.6852 379.787 -97.3908 381.11 -99.9425C385.484 -106.752 390.055 -114.069 391.705 -123.75C392.386 -127.739 392.613 -132.414 394.536 -135.082C395.127 -135.758 395.803 -136.198 396.511 -136.368C397.219 -136.538 397.941 -136.434 398.622 -136.064C399.303 -135.693 399.924 -135.067 400.438 -134.232C400.952 -133.397 401.346 -132.375 401.589 -131.245C403.496 -133.024 406.448 -134.345 407.432 -131.042C407.652 -129.81 407.789 -128.54 407.84 -127.256C408.461 -122.175 412.654 -119.634 413.093 -114.552C413.592 -108.53 409.006 -105.431 405.434 -104.389C402.195 -103.525 398.955 -102.687 395.716 -101.848C394.283 -101.681 392.897 -100.931 391.675 -99.663C391.075 -98.9965 390.629 -98.0051 390.412 -96.854C390.194 -95.7029 390.218 -94.4615 390.479 -93.3363C390.964 -92.2553 391.528 -91.282 392.159 -90.4398C394.853 -85.9425 392.644 -76.6176 388.844 -76.4144C387.558 -76.4144 386.271 -77.1512 384.985 -77.2274C381.14 -77.5069 378.098 -71.8409 376.266 -66.1494C374.435 -60.458 373.073 -53.9789 370 -50.1168C365.066 -43.8664 356.544 -45.3146 354.137 -35.7357C353.184 -31.8482 353.683 -27.5034 354.062 -23.3618C354.44 -19.2203 354.622 -14.6468 353.184 -11.2167C351.746 -7.78656 348.068 -7.12596 347.008 -10.9118C346.647 -12.6359 346.595 -14.4993 346.857 -16.2729C347.432 -22.2185 347.992 -28.1471 348.537 -34.0588C348.946 -38.4798 349.309 -43.4344 347.75 -47.0678C345.57 -52.1494 340.666 -51.6667 337.836 -47.6014C335.005 -43.536 333.855 -37.1586 333.068 -31.0606C332.519 -25.5595 331.6 -20.1809 330.328 -15.0279V-15.0279C329.813 -9.94627 329.405 -4.86461 329.102 0.217052C328.799 5.29871 328.572 10.6344 328.451 15.9702C328.879 15.3625 329.289 14.718 329.677 14.0391C331.191 11.4983 334.218 0.318666 336.973 5.75604C337.312 6.48088 337.496 7.37556 337.496 8.29687C337.496 9.21819 337.312 10.1129 336.973 10.8377C336.14 12.6417 334.46 13.0482 333.809 15.0301C333.159 17.0119 334.112 20.2642 335.414 21.7887C336.851 22.9135 338.165 24.4335 339.304 26.2859C341.044 30.5291 339.304 36.932 341.075 41.2514C342.588 44.961 345.616 45.1897 348.325 45.6725L349.233 45.9265C349.975 37.0591 352.457 29.8431 359.662 27.099C369.591 23.3132 382.654 37.1353 388.239 49.7124C394.49 63.7632 397.442 83.6833 406.993 90.7214C413.834 95.803 423.552 93.9483 426.897 105.179C429.924 115.342 424.687 126.598 423.869 137.752C423.37 145.121 424.808 152.464 425.141 159.832C425.474 167.2 424.157 175.865 420.161 178.964C417.921 180.667 415.121 180.463 413.32 183.284C410.126 188.365 412.744 198.834 409.551 203.915C408.305 205.421 406.939 206.627 405.494 207.498C398.305 213.596 398.501 231.305 401.846 243.603L402.195 244.899C424.607 267.394 450.099 279.8 476.204 280.917C502.309 282.035 528.143 271.825 551.21 251.276V251.276C555.821 247.134 560.302 242.597 564.636 237.683C575.936 224.958 586.151 209.708 594.999 192.355C597.542 187.451 599.933 182.191 602.249 177.11C603.415 174.416 604.58 171.723 605.655 168.928C608.989 160.778 612.021 152.293 614.736 143.52C618.692 130.79 621.974 117.501 624.545 103.807C627.24 89.7274 629.18 75.2718 630.342 60.6125C630.796 54.8957 631.159 49.1026 631.386 43.2587C629.803 46.0523 627.628 47.6863 625.332 47.8068C621.578 47.7051 618.566 42.5727 617.113 36.932Z" fill="white"/>
</g>
<path d="M546.245 151.627C542.446 161.251 541.704 173.261 540.705 184.636C539.706 196.012 537.829 208.174 532.608 215.665C527.386 223.155 517.789 222.749 514.913 212.262C513.4 206.575 514.157 199.846 513.309 193.752C512.189 185.804 508.42 179.685 506.634 172.093C505.12 165.618 505.12 158.458 504.984 151.5C504.303 113.413 498.778 73.8025 483.339 45.9227C481.582 42.2629 479.248 39.5012 476.604 37.9498C474.993 37.2777 473.301 37.3993 471.73 38.3001C470.16 39.2008 468.778 40.8424 467.749 43.0281C466.508 45.7957 465.872 49.2997 464.344 51.6104C461.059 56.6887 455.262 53.0577 453.097 46.5321C450.933 40.0064 451.19 32.0335 451.584 24.5684L452.946 -3.20986C453.188 -8.05963 453.506 -13.2395 455.413 -16.9212C458.092 -22.1519 462.981 -22.4058 466.22 -26.5446C470.549 -31.9784 471.125 -42.3127 473.789 -50.1333C476.452 -57.9539 485.05 -61.2802 486.306 -52.4693C495.388 -84.8435 515.262 -36.7266 527.174 -40.3576C530.625 -41.3986 533.985 -44.1663 537.451 -43.3538C543.506 -41.9319 546.73 -30.658 548.818 -20.8569C552.269 -4.65716 555.725 11.5426 559.187 27.7424C560.488 33.9125 562.214 40.7682 565.847 43.1296C568.632 44.9578 571.901 43.5613 574.686 45.2879C582.133 49.833 579.711 69.4606 573.717 78.1699C567.723 86.8792 559.338 92.3383 556.492 104.729C554.343 114.048 556.053 125.043 553.753 134.234C552.088 140.912 548.606 145.66 546.245 151.627Z" fill="#263238"/>
<path d="M348.112 93.1505C347.627 85.8631 349.065 78.5504 349.141 71.1868C349.141 66.1085 348.974 60.7763 348.929 55.6472C346.333 55.4424 343.755 54.8389 341.225 53.8444C340.679 53.7341 340.175 53.3022 339.802 52.6257C339.541 51.8004 339.436 50.862 339.499 49.9342C339.302 44.2211 336.018 40.4377 333.066 37.5685C331.587 36.0099 330.014 34.7163 328.374 33.709C328.374 34.3184 328.374 34.877 328.374 35.4864C328.954 63.0927 332.21 90.3561 338.016 116.206C340.602 127.697 343.703 138.842 347.294 149.545C348.808 154.192 350.412 158.737 352.108 163.206C354.227 168.716 356.436 174.124 358.813 179.304C361.189 184.484 363.354 189.181 365.836 193.853C369.223 200.326 372.805 206.504 376.568 212.364C379.908 217.611 383.389 222.579 387.012 227.268C378.732 189.994 370.937 151.932 356.739 120.192C353.076 111.915 348.808 103.459 348.112 93.1505Z" fill="#377BFF"/>
<path d="M328.364 21.6748C328.364 23.1983 328.364 24.7218 328.364 26.2453C328.364 27.7688 328.364 28.7844 328.364 29.9778C328.364 28.7337 328.364 27.4387 328.364 26.2453C328.364 25.0519 328.342 23.1983 328.364 21.6748Z" fill="#263238"/>
<g opacity="0.6">
<path opacity="0.6" d="M395.534 237.578C396.806 239.025 398.107 240.447 399.409 241.819C400.317 242.783 401.24 243.698 402.164 244.637C401.24 243.698 400.317 242.783 399.409 241.819C398.107 240.447 396.821 239.025 395.534 237.578Z" fill="#263238"/>
</g>
<path d="M573.702 78.2451C579.756 69.5358 582.118 49.9082 574.671 45.3631C571.855 43.6365 568.616 45.033 565.831 43.2048C562.183 40.8434 560.473 33.9877 559.171 27.8176C555.71 11.6178 552.254 -4.58195 548.803 -20.7817C546.714 -30.5321 543.551 -41.8567 537.436 -43.2786C533.969 -44.0911 530.609 -41.3234 527.158 -40.2824C515.306 -36.6514 495.372 -84.7683 486.29 -52.3941C485.034 -61.205 476.497 -57.8787 473.773 -50.0581C471.048 -42.2375 470.473 -31.9032 466.205 -26.4694C462.92 -22.3306 458.077 -22.0767 455.398 -16.846C453.49 -13.1643 453.173 -7.98441 452.93 -3.13464L451.568 24.6437C451.19 32.1088 450.887 40.0817 453.082 46.6073C455.276 53.1329 461.043 56.7639 464.328 51.6856C465.842 49.375 466.492 45.871 467.734 43.1033C468.762 40.9177 470.144 39.2761 471.715 38.3753C473.285 37.4746 474.977 37.3529 476.588 38.025C479.233 39.5764 481.566 42.3382 483.324 45.9979C498.763 73.9286 504.287 113.565 504.969 151.576C505.09 158.533 505.09 165.693 506.618 172.168C508.404 179.786 512.173 185.88 513.293 193.827C514.141 199.921 513.293 206.65 514.898 212.338C517.774 222.824 527.37 223.256 532.592 215.74C537.814 208.224 539.63 196.112 540.69 184.712C541.749 173.311 542.43 161.301 546.23 151.703C548.591 145.736 552.072 140.988 553.722 134.386C556.023 125.143 554.312 114.073 556.462 104.881C559.322 92.4136 567.723 87.056 573.702 78.2451Z" fill="#377BFF"/>
<g opacity="0.6">
<path opacity="0.6" d="M328.452 15.6562C328.437 16.1299 328.437 16.6045 328.452 17.0782C328.452 18.5762 328.452 20.1251 328.452 21.674C328.452 20.1251 328.452 18.5762 328.452 17.0782C328.437 16.6045 328.437 16.1299 328.452 15.6562Z" fill="#263238"/>
</g>
<g opacity="0.6">
<path opacity="0.6" d="M328.346 29.9766C328.346 31.2208 328.346 32.5157 328.346 33.7091C328.361 32.465 328.361 31.1954 328.346 29.9766Z" fill="#263238"/>
</g>
<path d="M349.188 45.7956L348.28 45.5417C345.616 45.0592 342.498 44.8307 341.029 41.1236C339.319 36.807 341.029 30.4084 339.259 26.168C338.159 24.2402 336.875 22.6352 335.459 21.4198C334.158 19.8963 333.068 17.0017 333.855 14.6657C334.642 12.3297 336.186 12.2788 337.018 10.4761C337.357 9.75169 337.541 8.85761 337.541 7.9369C337.541 7.0162 337.357 6.12211 337.018 5.39776C334.279 -0.0360209 331.236 11.0601 329.723 13.6754C329.334 14.3538 328.925 14.9979 328.497 15.6051V15.6051C328.482 16.0788 328.482 16.5534 328.497 17.0271C328.497 18.5252 328.497 20.074 328.497 21.6229C328.497 23.1718 328.497 24.6699 328.497 26.1934C328.497 27.7169 328.497 28.7325 328.497 29.9259C328.497 31.1193 328.497 32.4651 328.497 33.6585C330.137 34.6658 331.71 35.9594 333.189 37.518C336.216 40.3872 339.425 44.1705 339.622 49.8836C339.558 50.8115 339.664 51.7499 339.925 52.5751C340.298 53.2516 340.802 53.6836 341.347 53.7939C343.877 54.7884 346.456 55.3918 349.052 55.5967" fill="#377BFF"/>
<path d="M348.93 55.6471C348.93 60.7254 349.187 66.1084 349.141 71.1867C349.066 78.5502 347.628 85.863 348.112 93.1503C348.808 103.459 353.077 111.915 356.8 120.192C370.968 151.932 378.763 189.994 387.073 227.268C388.586 229.325 390.1 231.255 391.75 233.159C393.006 234.657 394.262 236.155 395.534 237.577C396.805 238.999 398.107 240.447 399.409 241.818C400.317 242.783 401.24 243.697 402.163 244.636C402.042 244.179 401.921 243.773 401.815 243.341C398.47 231.052 398.273 213.354 405.463 207.26C406.908 206.389 408.273 205.184 409.519 203.68C412.713 198.601 410.095 188.14 413.288 183.062C415.09 180.243 417.829 180.523 420.13 178.745C424.126 175.647 425.428 167.04 425.11 159.625C424.792 152.211 423.339 144.924 423.838 137.56C424.641 126.413 429.893 115.089 426.866 105.008C423.52 93.7852 413.803 95.588 406.961 90.5604C397.411 83.527 394.459 63.6201 388.208 49.5785C382.623 36.8828 369.56 23.1967 359.631 26.9801C352.426 29.7224 349.944 36.9336 349.202 45.7952" fill="#377BFF"/>
<path d="M631.584 22.7404C631.584 19.084 631.508 15.453 631.387 11.8474C631.266 8.24184 631.099 4.63625 630.887 1.05604C630.721 -1.86398 630.524 -4.70785 630.282 -7.57709C630.04 -10.4463 629.783 -13.5949 629.48 -16.5911C628.595 -25.4978 627.412 -34.3141 625.938 -42.9982C625.378 -46.3245 624.772 -49.6254 624.137 -52.8755C623.501 -56.1257 622.82 -59.4012 622.093 -62.6259C621.337 -65.165 620.58 -67.4249 619.626 -69.7609C611.195 -92.1562 598.965 -109.702 589.687 -131.132C586.66 -138.089 584.313 -143.828 578.97 -145.224C571.039 -147.281 567.028 -139.714 561.412 -152.309C559.899 -155.686 557.265 -158.834 555.025 -156.828C555.6 -154.111 556.206 -151.42 556.781 -148.678C556.927 -148.127 556.994 -147.527 556.978 -146.926C556.857 -145.021 555.176 -144.387 554.208 -145.555C553.349 -146.845 552.636 -148.385 552.104 -150.1C551.442 -151.52 550.613 -152.695 549.668 -153.551C548.722 -154.408 547.681 -154.926 546.611 -155.074C545.54 -155.222 544.462 -154.996 543.446 -154.411C542.43 -153.826 541.497 -152.894 540.706 -151.674C540.632 -152.949 540.359 -154.169 539.916 -155.212C539.472 -156.254 538.873 -157.083 538.179 -157.616C538.065 -156.402 537.799 -155.242 537.399 -154.213C536.998 -153.184 536.473 -152.309 535.857 -151.644C535.241 -150.98 534.548 -150.542 533.824 -150.359C533.099 -150.176 532.36 -150.252 531.655 -150.582C531.201 -153.121 533.804 -153.477 534.682 -155.66C535.56 -157.844 534.516 -160.358 533.426 -162.008C530.518 -166.232 526.827 -168.637 522.982 -168.813C520.56 -168.813 517.941 -168.128 515.838 -170.235C514.611 -171.428 513.749 -173.46 512.492 -174.602C509.828 -177.142 506.438 -174.806 503.804 -172.317C500.141 -168.889 496.342 -164.7 495.04 -157.869C493.739 -151.039 496.63 -142.127 500.807 -142.965C501.837 -143.526 502.923 -143.734 504.001 -143.574C504.704 -143.041 505.296 -142.17 505.703 -141.072C506.11 -139.973 506.313 -138.697 506.287 -137.404C506.184 -134.81 506.421 -132.21 506.983 -129.786C507.694 -127.527 509.874 -126.384 510.721 -128.517C512.689 -131.665 512.447 -136.947 511.948 -141.416C511.448 -145.885 510.918 -150.912 512.492 -154.569C514.067 -158.225 518.668 -157.108 518.35 -152.563C518.168 -150.023 516.367 -147.967 516.428 -145.275C516.488 -142.584 518.501 -141.086 520.136 -141.213C521.771 -141.34 523.421 -142.304 525.01 -141.619C526.599 -140.933 527.886 -137.455 526.736 -135.5C524.738 -131.716 519.561 -138.191 518.517 -133.468C518.402 -132.189 518.402 -130.888 518.517 -129.609C518.32 -125.673 515.368 -124.226 513.007 -123.743C510.68 -122.931 508.264 -123.221 506.029 -124.581C503.895 -126.282 502.427 -130.98 503.653 -134.357C503.326 -134.636 502.969 -134.8 502.603 -134.838C502.237 -134.876 501.87 -134.787 501.525 -134.578C501.18 -134.368 500.865 -134.042 500.598 -133.62C500.331 -133.198 500.119 -132.688 499.975 -132.122C499.472 -129.768 499.382 -127.221 499.717 -124.784C497.22 -125.698 494.98 -122.245 493.572 -118.665C492.165 -115.085 490.757 -111.047 488.335 -109.753C485.913 -108.458 482.523 -110.21 481.251 -106.502C479.602 -101.678 484.4 -95.5587 482.765 -90.7597C481.811 -88.0682 479.496 -88.2205 477.679 -87.281C472.851 -84.9958 471.171 -73.1634 474.455 -66.8409C477.74 -60.5184 484.324 -60.8739 487.805 -66.8409C490.227 -70.9797 491.211 -76.8197 492.967 -81.8219C494.723 -86.824 498.037 -91.2929 501.352 -89.6678C502.63 -88.867 503.795 -87.6307 504.773 -86.0368C506.393 -83.8024 507.997 -81.5425 509.601 -79.2319C510.631 -77.7846 511.766 -75.9818 511.66 -73.722C511.569 -71.9192 510.737 -70.4972 510.373 -68.8214C509.359 -63.9462 513.567 -59.2996 516.201 -61.9657C518.834 -64.6318 519.137 -71.4367 517.336 -75.6263C514.839 -81.4156 509.193 -84.3102 509.344 -91.496C512.22 -95.4317 516.761 -91.2929 518.426 -85.6814C520.091 -80.0698 520.151 -73.5188 521.559 -67.755C522.967 -61.9911 526.947 -56.862 530.262 -59.6805C529.384 -64.7588 528.552 -69.6085 527.689 -74.5599C529.793 -77.099 532.23 -69.4816 534.743 -70.7766C536.256 -71.5891 536.468 -75.2962 535.802 -77.7846C535.136 -80.273 533.956 -82.3805 533.668 -85.072C533.184 -89.9979 536.453 -94.3907 539.405 -93.5781C540.845 -92.9635 542.146 -91.6508 543.144 -89.804C544.143 -87.9571 544.795 -85.6578 545.02 -83.193C545.122 -81.2224 545.382 -79.2838 545.792 -77.4291C546.897 -73.5696 549.743 -72.3508 552.104 -70.7766C554.465 -69.2023 556.932 -65.1904 555.933 -61.2547C555.479 -59.5027 554.42 -57.8523 554.783 -56.1764C555.146 -54.5006 556.539 -53.9166 556.539 -52.2154C556.539 -51.0981 555.827 -50.3364 555.192 -49.8793C553.678 -48.7875 551.877 -48.432 550.348 -47.1878C549.552 -46.6764 548.861 -45.787 548.361 -44.6281C547.861 -43.4692 547.573 -42.0911 547.533 -40.6622C547.729 -36.625 550.56 -34.6952 551.937 -31.3689C553.315 -28.0426 553.042 -23.9546 553.86 -20.3236C554.814 -17.1177 556.032 -14.1519 557.477 -11.5128C561.458 -2.39723 562.396 9.30828 564.349 20.0997C565.212 24.9748 566.786 30.4086 569.768 31.3481C571.422 31.5587 573.08 31.0147 574.566 29.7738C578.864 26.9046 583.33 23.8576 586.327 18.0176C589.324 12.1775 590.368 2.57952 587.265 -3.15896C586.905 -3.99911 586.36 -4.56522 585.751 -4.73322C584.941 -4.65394 584.16 -4.19668 583.496 -3.41289C582.359 -2.71525 581.127 -2.57152 579.943 -2.99836C578.76 -3.4252 577.672 -4.40519 576.806 -5.82507C575.099 -8.74552 573.747 -12.1951 572.825 -15.9817C571.645 -19.9682 570.464 -24.0054 569.268 -28.0173C570.676 -30.0486 572.931 -29.1853 574.399 -27.2301C575.707 -25.0059 576.883 -22.5738 577.911 -19.9681C581.483 -12.3507 587.371 -9.17676 593.047 -8.05954C594.512 -7.93368 595.957 -7.42831 597.331 -6.56141C601.569 -3.28591 602.795 7.20078 607.29 9.46063C608.578 9.8109 609.852 10.2942 611.105 10.9079C611.938 11.7908 612.653 12.956 613.203 14.3289C613.753 15.7018 614.126 17.2522 614.298 18.8809C615.282 24.7971 615.615 31.0434 617.114 36.6549C618.612 42.2664 621.579 47.4209 625.227 47.4971C627.522 47.3767 629.698 45.7438 631.281 42.952V42.952C631.478 37.3913 631.599 31.8305 631.599 26.1936C631.629 25.0764 631.629 23.9084 631.584 22.7404Z" fill="#377BFF"/>
<g opacity="0.6">
<path opacity="0.6" d="M573.702 78.2451C579.756 69.5358 582.118 49.9082 574.671 45.3631C571.855 43.6365 568.616 45.033 565.831 43.2048C562.183 40.8434 560.473 33.9877 559.171 27.8176C555.71 11.6178 552.254 -4.58195 548.803 -20.7817C546.714 -30.5321 543.551 -41.8567 537.436 -43.2786C533.969 -44.0911 530.609 -41.3234 527.158 -40.2824C515.306 -36.6514 495.372 -84.7683 486.29 -52.3941C485.034 -61.205 476.497 -57.8787 473.773 -50.0581C471.048 -42.2375 470.473 -31.9032 466.205 -26.4694C462.92 -22.3306 458.077 -22.0767 455.398 -16.846C453.49 -13.1643 453.173 -7.98441 452.93 -3.13464L451.568 24.6437C451.19 32.1088 450.887 40.0817 453.082 46.6073C455.276 53.1329 461.043 56.7639 464.328 51.6856C465.842 49.375 466.492 45.871 467.734 43.1033C468.762 40.9177 470.144 39.2761 471.715 38.3753C473.285 37.4746 474.977 37.3529 476.588 38.025C479.233 39.5764 481.566 42.3382 483.324 45.9979C498.763 73.9286 504.287 113.565 504.969 151.576C505.09 158.533 505.09 165.693 506.618 172.168C508.404 179.786 512.173 185.88 513.293 193.827C514.141 199.921 513.293 206.65 514.898 212.338C517.774 222.824 527.37 223.256 532.592 215.74C537.814 208.224 539.63 196.112 540.69 184.712C541.749 173.311 542.43 161.301 546.23 151.703C548.591 145.736 552.072 140.988 553.722 134.386C556.023 125.143 554.312 114.073 556.462 104.881C559.322 92.4136 567.723 87.056 573.702 78.2451Z" fill="white"/>
</g>
<g opacity="0.6">
<path opacity="0.6" d="M387.043 227.269C388.556 229.325 390.07 231.255 391.72 233.159C392.976 234.657 394.233 236.156 395.504 237.578C396.775 238.999 398.077 240.447 399.379 241.818C400.287 242.783 401.21 243.697 402.134 244.636C402.013 244.179 401.891 243.773 401.785 243.341C398.44 231.052 398.244 213.354 405.433 207.26C406.878 206.39 408.244 205.185 409.49 203.68C412.683 198.602 410.065 188.14 413.259 183.062C415.06 180.244 417.8 180.523 420.1 178.745C424.096 175.648 425.398 167.04 425.08 159.626C424.762 152.211 423.309 144.924 423.809 137.56C424.611 126.414 429.863 115.089 426.836 105.009C423.491 93.7855 413.773 95.5883 406.932 90.5608C397.381 83.5274 394.429 63.6205 388.178 49.579C382.593 36.8832 369.53 23.1972 359.601 26.9805C352.396 29.7228 349.914 36.934 349.172 45.7956L348.264 45.5417C345.6 45.0592 342.482 44.8054 341.014 41.1236C339.303 36.807 341.014 30.4084 339.243 26.168C338.144 24.2402 336.859 22.6352 335.444 21.4198C334.142 19.8963 333.052 17.0017 333.839 14.6657C334.626 12.3297 336.17 12.2788 337.003 10.4761C337.341 9.7517 337.526 8.85761 337.526 7.9369C337.526 7.0162 337.341 6.12211 337.003 5.39776C334.263 -0.0360224 331.221 11.0601 329.707 13.6754C329.319 14.3538 328.909 14.9979 328.481 15.6051V15.6051C328.466 16.0788 328.466 16.5534 328.481 17.0271C328.481 18.5252 328.481 20.074 328.481 21.6229C328.481 23.1718 328.481 24.6699 328.481 26.1934C328.481 27.7169 328.481 28.7325 328.481 29.9259C328.481 31.1193 328.481 32.4651 328.481 33.6585C328.481 34.2679 328.481 34.8265 328.481 35.4359C329.061 63.0421 332.318 90.3056 338.123 116.155C340.709 127.646 343.81 138.791 347.401 149.494C348.915 154.141 350.519 158.686 352.215 163.155C354.334 168.665 356.543 174.073 358.92 179.253C361.296 184.433 363.461 189.131 365.943 193.803C369.33 200.275 372.912 206.454 376.675 212.313C380.015 217.561 383.496 222.529 387.119 227.218" fill="white"/>
</g>
<g opacity="0.6">
<path opacity="0.6" d="M631.584 22.7404C631.584 19.084 631.508 15.453 631.387 11.8474C631.266 8.24184 631.099 4.63625 630.887 1.05604C630.721 -1.86398 630.524 -4.70785 630.282 -7.57709C630.04 -10.4463 629.783 -13.5949 629.48 -16.5911C628.595 -25.4978 627.412 -34.3141 625.938 -42.9982C625.378 -46.3245 624.772 -49.6254 624.137 -52.8755C623.501 -56.1257 622.82 -59.4012 622.093 -62.6259C621.337 -65.165 620.58 -67.4249 619.626 -69.7609C611.195 -92.1562 598.965 -109.702 589.687 -131.132C586.66 -138.089 584.313 -143.828 578.97 -145.224C571.039 -147.281 567.028 -139.714 561.412 -152.309C559.899 -155.686 557.265 -158.834 555.025 -156.828C555.6 -154.111 556.206 -151.42 556.781 -148.678C556.927 -148.127 556.994 -147.527 556.978 -146.926C556.857 -145.021 555.176 -144.387 554.208 -145.555C553.349 -146.845 552.636 -148.385 552.104 -150.1C551.442 -151.52 550.613 -152.695 549.668 -153.551C548.722 -154.408 547.681 -154.926 546.611 -155.074C545.54 -155.222 544.462 -154.996 543.446 -154.411C542.43 -153.826 541.497 -152.894 540.706 -151.674C540.632 -152.949 540.359 -154.169 539.916 -155.212C539.472 -156.254 538.873 -157.083 538.179 -157.616C538.065 -156.402 537.799 -155.242 537.399 -154.213C536.998 -153.184 536.473 -152.309 535.857 -151.644C535.241 -150.98 534.548 -150.542 533.824 -150.359C533.099 -150.176 532.36 -150.252 531.655 -150.582C531.201 -153.121 533.804 -153.477 534.682 -155.66C535.56 -157.844 534.516 -160.358 533.426 -162.008C530.518 -166.232 526.827 -168.637 522.982 -168.813C520.56 -168.813 517.941 -168.128 515.838 -170.235C514.611 -171.428 513.749 -173.46 512.492 -174.602C509.828 -177.142 506.438 -174.806 503.804 -172.317C500.141 -168.889 496.342 -164.7 495.04 -157.869C493.739 -151.039 496.63 -142.127 500.807 -142.965C501.837 -143.526 502.923 -143.734 504.001 -143.574C504.704 -143.041 505.296 -142.17 505.703 -141.072C506.11 -139.973 506.313 -138.697 506.287 -137.404C506.184 -134.81 506.421 -132.21 506.983 -129.786C507.694 -127.527 509.874 -126.384 510.721 -128.517C512.689 -131.665 512.447 -136.947 511.948 -141.416C511.448 -145.885 510.918 -150.912 512.492 -154.569C514.067 -158.225 518.668 -157.108 518.35 -152.563C518.168 -150.023 516.367 -147.967 516.428 -145.275C516.488 -142.584 518.501 -141.086 520.136 -141.213C521.771 -141.34 523.421 -142.304 525.01 -141.619C526.599 -140.933 527.886 -137.455 526.736 -135.5C524.738 -131.716 519.561 -138.191 518.517 -133.468C518.402 -132.189 518.402 -130.888 518.517 -129.609C518.32 -125.673 515.368 -124.226 513.007 -123.743C510.68 -122.931 508.264 -123.221 506.029 -124.581C503.895 -126.282 502.427 -130.98 503.653 -134.357C503.326 -134.636 502.969 -134.8 502.603 -134.838C502.237 -134.876 501.87 -134.787 501.525 -134.578C501.18 -134.368 500.865 -134.042 500.598 -133.62C500.331 -133.198 500.119 -132.688 499.975 -132.122C499.472 -129.768 499.382 -127.221 499.717 -124.784C497.22 -125.698 494.98 -122.245 493.572 -118.665C492.165 -115.085 490.757 -111.047 488.335 -109.753C485.913 -108.458 482.523 -110.21 481.251 -106.502C479.602 -101.678 484.4 -95.5587 482.765 -90.7597C481.811 -88.0682 479.496 -88.2205 477.679 -87.281C472.851 -84.9958 471.171 -73.1634 474.455 -66.8409C477.74 -60.5184 484.324 -60.8739 487.805 -66.8409C490.227 -70.9797 491.211 -76.8197 492.967 -81.8219C494.723 -86.824 498.037 -91.2929 501.352 -89.6678C502.63 -88.867 503.795 -87.6307 504.773 -86.0368C506.393 -83.8024 507.997 -81.5425 509.601 -79.2319C510.631 -77.7846 511.766 -75.9818 511.66 -73.722C511.569 -71.9192 510.737 -70.4972 510.373 -68.8214C509.359 -63.9462 513.567 -59.2996 516.201 -61.9657C518.834 -64.6318 519.137 -71.4367 517.336 -75.6263C514.839 -81.4156 509.193 -84.3102 509.344 -91.496C512.22 -95.4317 516.761 -91.2929 518.426 -85.6814C520.091 -80.0698 520.151 -73.5188 521.559 -67.755C522.967 -61.9911 526.947 -56.862 530.262 -59.6805C529.384 -64.7588 528.552 -69.6085 527.689 -74.5599C529.793 -77.099 532.23 -69.4816 534.743 -70.7766C536.256 -71.5891 536.468 -75.2962 535.802 -77.7846C535.136 -80.273 533.956 -82.3805 533.668 -85.072C533.184 -89.9979 536.453 -94.3907 539.405 -93.5781C540.845 -92.9635 542.146 -91.6508 543.144 -89.804C544.143 -87.9571 544.795 -85.6578 545.02 -83.193C545.122 -81.2224 545.382 -79.2838 545.792 -77.4291C546.897 -73.5696 549.743 -72.3508 552.104 -70.7766C554.465 -69.2023 556.932 -65.1904 555.933 -61.2547C555.479 -59.5027 554.42 -57.8523 554.783 -56.1764C555.146 -54.5006 556.539 -53.9166 556.539 -52.2154C556.539 -51.0981 555.827 -50.3364 555.192 -49.8793C553.678 -48.7875 551.877 -48.432 550.348 -47.1878C549.552 -46.6764 548.861 -45.787 548.361 -44.6281C547.861 -43.4692 547.573 -42.0911 547.533 -40.6622C547.729 -36.625 550.56 -34.6952 551.937 -31.3689C553.315 -28.0426 553.042 -23.9546 553.86 -20.3236C554.814 -17.1177 556.032 -14.1519 557.477 -11.5128C561.458 -2.39723 562.396 9.30828 564.349 20.0997C565.212 24.9748 566.786 30.4086 569.768 31.3481C571.422 31.5587 573.08 31.0147 574.566 29.7738C578.864 26.9046 583.33 23.8576 586.327 18.0176C589.324 12.1775 590.368 2.57952 587.265 -3.15896C586.905 -3.99911 586.36 -4.56522 585.751 -4.73322C584.941 -4.65394 584.16 -4.19668 583.496 -3.41289C582.359 -2.71525 581.127 -2.57152 579.943 -2.99836C578.76 -3.4252 577.672 -4.40519 576.806 -5.82507C575.099 -8.74552 573.747 -12.1951 572.825 -15.9817C571.645 -19.9682 570.464 -24.0054 569.268 -28.0173C570.676 -30.0486 572.931 -29.1853 574.399 -27.2301C575.707 -25.0059 576.883 -22.5738 577.911 -19.9681C581.483 -12.3507 587.371 -9.17676 593.047 -8.05954C594.512 -7.93368 595.957 -7.42831 597.331 -6.56141C601.569 -3.28591 602.795 7.20078 607.29 9.46063C608.578 9.8109 609.852 10.2942 611.105 10.9079C611.938 11.7908 612.653 12.956 613.203 14.3289C613.753 15.7018 614.126 17.2522 614.298 18.8809C615.282 24.7971 615.615 31.0434 617.114 36.6549C618.612 42.2664 621.579 47.4209 625.227 47.4971C627.522 47.3767 629.698 45.7438 631.281 42.952V42.952C631.478 37.3913 631.599 31.8305 631.599 26.1936C631.629 25.0764 631.629 23.9084 631.584 22.7404Z" fill="white"/>
</g>
<path d="M378.733 -163.177C378.733 -163.177 379.929 -164.649 382.351 -167.062C385.882 -170.575 389.565 -173.639 393.37 -176.228C399.405 -180.292 405.682 -183.263 412.093 -185.09C416.1 -186.253 420.143 -187.024 424.202 -187.4C426.352 -187.68 428.577 -187.781 430.847 -187.857C433.118 -187.933 435.388 -187.857 437.84 -187.857C448.279 -187.33 458.646 -184.774 468.733 -180.24C480.324 -175.021 491.356 -166.787 501.427 -155.839C512.58 -143.691 522.118 -127.811 529.444 -109.194C537.396 -89.1912 542.417 -66.3178 544.096 -42.4401C544.864 -31.0212 544.757 -19.4842 543.778 -8.11079L543.142 -8.7202C548.341 -15.6863 554.186 -21.1759 560.443 -24.9707C566.516 -28.5405 572.872 -30.5688 579.303 -30.9886C591.468 -31.8071 603.482 -26.2227 613.662 -15.0173C622.759 -4.85332 630.096 9.16147 634.928 25.6091C639.135 39.7896 641.213 55.4791 640.982 71.3138C640.542 94.1564 635.584 116.104 626.891 133.701C624.555 138.407 621.966 142.742 619.156 146.65L616.901 149.52L616.114 150.459C616.114 150.459 616.356 150.078 616.855 149.418L619.065 146.447C621.816 142.486 624.349 138.118 626.633 133.396C630.272 125.883 633.272 117.56 635.548 108.665C638.564 96.821 640.232 84.1357 640.468 71.263C640.675 55.5705 638.597 40.0302 634.413 25.99C629.58 9.74937 622.288 -4.07638 613.268 -14.1032C603.202 -25.1148 591.339 -30.5827 579.333 -29.7444C572.979 -29.3298 566.698 -27.3183 560.7 -23.7773C554.531 -20.0321 548.769 -14.62 543.642 -7.75531L542.855 -6.68887L543.006 -8.36472C543.973 -19.6294 544.075 -31.0558 543.309 -42.3639C541.62 -65.9776 536.642 -88.5932 528.778 -108.382C521.511 -126.845 512.057 -142.601 501.003 -154.671C491.001 -165.587 480.041 -173.803 468.521 -179.021C458.493 -183.608 448.182 -186.232 437.795 -186.842C435.418 -186.842 433.087 -187.096 430.817 -186.842C428.546 -186.588 426.276 -186.689 424.202 -186.435C420.143 -186.107 416.1 -185.37 412.093 -184.226C405.7 -182.465 399.434 -179.58 393.4 -175.619C389.595 -173.093 385.903 -170.115 382.351 -166.706C381.125 -165.564 380.217 -164.599 379.596 -163.964L378.733 -163.177Z" fill="#377BFF"/>
</g>
<defs>
<clipPath id="clip0">
<rect width="549" height="914" fill="white"/>
</clipPath>
</defs>
</svg>
