<svg width="18" height="22" viewBox="0 0 18 22" fill="none" xmlns="http://www.w3.org/2000/svg">
<path d="M10.3 7.10998L11.62 9.74997C11.8 10.11 12.28 10.47 12.68 10.53L15.07 10.93C16.6 11.19 16.96 12.29 15.86 13.39L14 15.25C13.69 15.56 13.51 16.17 13.61 16.61L14.14 18.92C14.56 20.74 13.59 21.45 11.98 20.5L9.73999 19.17C9.32999 18.93 8.67001 18.93 8.26001 19.17L6.01999 20.5C4.40999 21.45 3.43998 20.74 3.85998 18.92L4.39001 16.61C4.49001 16.18 4.31 15.57 4 15.25L2.14001 13.39C1.04001 12.29 1.39999 11.18 2.92999 10.93L5.32 10.53C5.72 10.46 6.2 10.11 6.38 9.74997L7.70001 7.10998C8.41001 5.67998 9.58998 5.67998 10.3 7.10998Z" fill="#D0990C" stroke="#D0990C" stroke-width="1.5" stroke-linecap="round" stroke-linejoin="round"/>
<path d="M3 8V1" stroke="#D0990C" stroke-width="1.5" stroke-linecap="round" stroke-linejoin="round"/>
<path d="M15 8V1" stroke="#D0990C" stroke-width="1.5" stroke-linecap="round" stroke-linejoin="round"/>
<path d="M9 3V1" stroke="#D0990C" stroke-width="1.5" stroke-linecap="round" stroke-linejoin="round"/>
</svg>
