<svg width="22" height="22" viewBox="0 0 22 22" fill="none" xmlns="http://www.w3.org/2000/svg">
<path d="M12.73 2.51001L14.49 6.03001C14.73 6.52001 15.37 6.99001 15.91 7.08001L19.1 7.61001C21.14 7.95001 21.62 9.43001 20.15 10.89L17.67 13.37C17.25 13.79 17.02 14.6 17.15 15.18L17.86 18.25C18.42 20.68 17.13 21.62 14.98 20.35L11.99 18.58C11.45 18.26 10.56 18.26 10.01 18.58L7.02 20.35C4.88 21.62 3.58 20.67 4.14 18.25L4.85 15.18C4.98 14.6 4.75 13.79 4.33 13.37L1.85 10.89C0.390001 9.43001 0.860001 7.95001 2.9 7.61001L6.09 7.08001C6.62 6.99001 7.26 6.52001 7.5 6.03001L9.26 2.51001C10.22 0.600015 11.78 0.600015 12.73 2.51001Z" fill="#D0990C" stroke="#D0990C" stroke-width="1.5" stroke-linecap="round" stroke-linejoin="round"/>
</svg>
