<?xml version="1.0" encoding="iso-8859-1"?>
<!-- Generator: Adobe Illustrator 19.0.0, SVG Export Plug-In . SVG Version: 6.00 Build 0)  -->
<svg version="1.1" id="Capa_1" xmlns="http://www.w3.org/2000/svg" xmlns:xlink="http://www.w3.org/1999/xlink" x="0px" y="0px"
	 viewBox="0 0 512 512" style="enable-background:new 0 0 512 512;" xml:space="preserve">
<circle style="fill:#FFE17D;" cx="256" cy="296" r="112"/>
<path style="fill:#FFCE86;" d="M280,320c-56.073,0-102.385-41.251-110.58-95.034C153.542,244.297,144,269.031,144,296
	c0,61.856,50.144,112,112,112s112-50.144,112-112c0-5.783-0.575-11.419-1.42-16.966C346.039,304.041,314.887,320,280,320z"/>
<g>
	<path style="fill:#E6BEDC;" d="M338.591,336c-41.324,0-41.324,16-82.648,16c-41.337,0-41.337-16-82.674-16
		c-41.323,0-41.323,16-82.645,16C49.312,352,49.312,336,8,336l12.972,14.825C48.315,382.075,87.818,400,129.343,400h253.314
		c41.524,0,81.027-17.925,108.371-49.175L504,336c-41.352,0-41.352,16-82.705,16C379.943,352,379.943,336,338.591,336z"/>
	<path style="fill:#E6BEDC;" d="M421.295,352c-41.352,0-41.352-16-82.705-16c-41.324,0-41.324,16-82.648,16
		c-41.337,0-41.337-16-82.674-16c-41.323,0-41.323,16-82.645,16C49.312,352,49.312,336,8,336l41.297,39.994
		C59.63,379.996,69.958,384,90.624,384c41.322,0,41.322-16,82.645-16c41.337,0,41.337,16,82.674,16c41.324,0,41.324-16,82.648-16
		c41.353,0,41.353,16,82.705,16c20.674,0,31.012-3.999,41.349-7.999L504,336C462.648,336,462.648,352,421.295,352z"/>
</g>
<g>
	<path style="fill:#FFF0BE;" d="M117.143,144c-11.249,0-21.403,4.427-29.049,11.517c-4.231-1.868-8.886-2.945-13.808-2.945
		c-15.352,0-28.347,10.09-32.716,24c-1.602,5.099,2.374,10.286,7.718,10.286h101.745c5.227,0,9.008-4.926,7.792-10.01
		C154.317,158.006,137.365,144,117.143,144z"/>
	<path style="fill:#FFF0BE;" d="M338.857,261.143c11.249,0,21.403,4.427,29.049,11.517c4.231-1.868,8.886-2.945,13.808-2.945
		c15.352,0,28.347,10.09,32.716,24c1.602,5.099-2.374,10.286-7.718,10.286H304.967c-5.227,0-9.008-4.926-7.792-10.01
		C301.683,275.149,318.635,261.143,338.857,261.143z"/>
</g>
<path style="fill:#FF96A0;" d="M421.297,360c-22.172,0-33.391-4.344-44.242-8.539c-9.914-3.836-19.281-7.461-38.461-7.461
	c-19.172,0-28.531,3.625-38.438,7.461c-10.844,4.195-22.055,8.539-44.211,8.539c-22.164,0-33.375-4.344-44.227-8.539
	c-9.914-3.836-19.273-7.461-38.453-7.461c-19.164,0-28.523,3.625-38.43,7.461c-10.843,4.195-22.054,8.539-44.21,8.539
	c-22.148,0-33.359-4.344-44.203-8.539C36.516,347.625,27.164,344,8,344c-4.422,0-8-3.578-8-8s3.578-8,8-8
	c22.148,0,33.359,4.344,44.203,8.539C62.109,340.375,71.461,344,90.625,344s28.523-3.625,38.43-7.461
	c10.844-4.195,22.055-8.539,44.211-8.539c22.164,0,33.383,4.344,44.234,8.539c9.906,3.836,19.274,7.461,38.445,7.461
	c19.164,0,28.523-3.625,38.43-7.461c10.844-4.195,22.062-8.539,44.219-8.539c22.172,0,33.391,4.344,44.242,8.539
	c9.914,3.836,19.281,7.461,38.461,7.461s28.547-3.625,38.461-7.461C470.609,332.344,481.828,328,504,328c4.422,0,8,3.578,8,8
	s-3.578,8-8,8c-19.18,0-28.547,3.625-38.461,7.461C454.688,355.656,443.469,360,421.297,360z"/>
<g>
	<path style="fill:#FFD164;" d="M104,304H56c-4.422,0-8-3.578-8-8s3.578-8,8-8h48c4.422,0,8,3.578,8,8S108.422,304,104,304z"/>
	<path style="fill:#FFD164;" d="M256,152c-4.422,0-8-3.578-8-8V96c0-4.422,3.578-8,8-8s8,3.578,8,8v48
		C264,148.422,260.422,152,256,152z"/>
	<path style="fill:#FFD164;" d="M363.477,196.523c-2.047,0-4.094-0.781-5.656-2.344c-3.125-3.125-3.125-8.188,0-11.312
		l33.945-33.945c3.125-3.125,8.188-3.125,11.312,0s3.125,8.188,0,11.312l-33.945,33.945
		C367.57,195.742,365.523,196.523,363.477,196.523z"/>
</g>
<g>
	<path style="fill:#FFE17D;" d="M197.836,163.57c-3.133,0-6.117-1.859-7.391-4.938l-6.125-14.781
		c-1.688-4.078,0.25-8.758,4.328-10.453c4.062-1.68,8.766,0.25,10.453,4.328l6.125,14.781c1.688,4.078-0.25,8.758-4.328,10.453
		C199.898,163.375,198.859,163.57,197.836,163.57z"/>
	<path style="fill:#FFE17D;" d="M396.43,245.836c-3.133,0-6.117-1.859-7.391-4.938c-1.688-4.078,0.25-8.766,4.328-10.453
		l14.781-6.125c4.07-1.688,8.766,0.25,10.453,4.328s-0.25,8.766-4.328,10.453l-14.781,6.125
		C398.492,245.641,397.453,245.836,396.43,245.836z"/>
	<path style="fill:#FFE17D;" d="M115.57,245.836c-1.023,0-2.062-0.195-3.062-0.609l-14.781-6.125
		c-4.078-1.688-6.016-6.375-4.328-10.453s6.398-6.016,10.453-4.328l14.781,6.125c4.078,1.688,6.016,6.375,4.328,10.453
		C121.688,243.977,118.703,245.836,115.57,245.836z"/>
</g>
<path style="fill:#C4DEFF;" d="M382.657,400c28.065,0,55.106-8.356,78.195-23.312c-9.775,3.757-20.071,7.312-39.557,7.312
	c-41.352,0-41.352-16-82.705-16c-41.324,0-41.324,16-82.648,16c-41.337,0-41.337-16-82.674-16c-41.323,0-41.323,16-82.645,16
	c-19.4,0-29.683-3.531-39.419-7.274C74.281,391.658,101.301,400,129.343,400H200l55.996,16l48.005-16H382.657z"/>
<path style="fill:#8CB4EB;" d="M421.297,392c-22.172,0-33.391-4.344-44.242-8.539c-9.914-3.836-19.281-7.461-38.461-7.461
	c-19.172,0-28.531,3.625-38.438,7.461c-10.844,4.195-22.055,8.539-44.211,8.539c-22.164,0-33.375-4.344-44.227-8.539
	c-9.914-3.836-19.273-7.461-38.453-7.461c-19.164,0-28.523,3.625-38.43,7.461c-10.843,4.195-22.054,8.539-44.21,8.539
	c-22.133,0-33.336-4.336-44.172-8.531c-4.125-1.594-6.188-6.234-4.594-10.359s6.203-6.18,10.328-4.578l0.039,0.016
	C62.133,372.383,71.484,376,90.625,376c19.164,0,28.523-3.625,38.43-7.461c10.844-4.195,22.055-8.539,44.211-8.539
	c22.164,0,33.383,4.344,44.234,8.539c9.906,3.836,19.274,7.461,38.445,7.461c19.164,0,28.523-3.625,38.43-7.461
	c10.844-4.195,22.062-8.539,44.219-8.539c22.172,0,33.391,4.344,44.242,8.539c9.914,3.836,19.281,7.461,38.461,7.461
	c19.188,0,28.547-3.625,38.461-7.461c4.133-1.594,8.75,0.445,10.352,4.57c1.594,4.125-0.453,8.758-4.57,10.352
	C454.688,387.656,443.469,392,421.297,392z"/>
<path style="fill:#A5CDFF;" d="M255.945,424c-22.164,0-33.375-4.344-44.227-8.539c-9.914-3.836-19.273-7.461-38.453-7.461
	c-4.422,0-8-3.578-8-8s3.578-8,8-8c22.164,0,33.383,4.344,44.234,8.539c9.906,3.836,19.274,7.461,38.445,7.461
	c19.164,0,28.523-3.625,38.43-7.461c10.844-4.195,22.062-8.539,44.219-8.539c4.422,0,8,3.578,8,8s-3.578,8-8,8
	c-19.172,0-28.531,3.625-38.438,7.461C289.312,419.656,278.102,424,255.945,424z"/>
<g>
</g>
<g>
</g>
<g>
</g>
<g>
</g>
<g>
</g>
<g>
</g>
<g>
</g>
<g>
</g>
<g>
</g>
<g>
</g>
<g>
</g>
<g>
</g>
<g>
</g>
<g>
</g>
<g>
</g>
</svg>
