<svg width="130" height="130" viewBox="0 0 130 130" fill="none" xmlns="http://www.w3.org/2000/svg">
<path d="M82.8486 31.5232C85.0026 27.4887 86.9369 22.4277 90.819 21.1748C96.1445 19.4624 105.02 17.7836 108.618 21.381C112.215 24.9784 110.536 33.8543 108.824 39.1798C107.571 43.0618 102.501 44.9962 98.4755 47.1501L82.8486 31.5232Z" fill="#14A085"/>
<path d="M43.8908 29.6848C42.8755 24.2337 35.5529 24.7089 30.9581 29.3037C25.4107 34.8512 17.4807 37.9891 13.3341 36.6263C9.18755 35.2636 14.7282 29.678 27.2015 17.2115C39.6748 4.74495 54.6988 11.8322 60.2305 17.3706C61.9765 18.8276 62.9531 21.0083 62.8776 23.2812L43.8908 29.6848Z" fill="#26B99A"/>
<path d="M21.576 63.6977C16.4096 63.3795 9.34026 63.6014 6.17095 66.7707C0.876817 72.0648 -1.61111 85.4884 1.11889 88.2162C3.84889 90.9439 10.4385 81.622 14.4641 80.3534C15.6468 79.9643 16.915 79.9154 18.1242 80.2122L21.576 63.6977Z" fill="#26B99A"/>
<path d="M106.717 67.1203C108.99 67.0447 111.17 68.0214 112.627 69.7674C118.159 75.2991 125.26 90.3231 112.786 102.796C100.313 115.27 94.7658 120.817 93.3716 116.664C91.9775 112.51 95.1468 104.587 100.694 99.0398C105.289 94.445 105.764 87.1224 100.313 86.107L106.717 67.1203Z" fill="#26B99A"/>
<path d="M66.3005 108.422C66.6188 113.577 66.3969 120.658 63.2276 123.827C57.9335 129.121 44.5098 131.609 41.7821 128.883C39.0543 126.158 48.3762 119.564 49.6448 115.538C50.034 114.356 50.0829 113.087 49.786 111.878L66.3005 108.422Z" fill="#26B99A"/>
<path d="M20.7827 99.833C18.0101 103.209 13.7156 109.603 15.1097 114.888C20.4039 116.282 26.7896 111.988 30.1651 109.215L20.7827 99.833Z" fill="#14A085"/>
<path d="M95.9293 91.1119C85.0362 102.003 66.1189 110.693 48.9275 111.957C40.287 112.602 30.9158 111.435 24.6086 105.39C18.5681 99.0868 17.3981 89.6775 18.0413 81.0706C19.2091 65.1568 27.1526 45.8025 38.8862 34.0688C56.1986 16.7564 73.9369 21.5754 91.1776 38.8206C108.492 56.1352 113.188 73.8623 95.9293 91.1119V91.1119Z" fill="#F0C419"/>
<path d="M118.791 58.2761C121.267 58.2761 123.274 56.2691 123.274 53.7933C123.274 51.3175 121.267 49.3105 118.791 49.3105C116.316 49.3105 114.309 51.3175 114.309 53.7933C114.309 56.2691 116.316 58.2761 118.791 58.2761Z" fill="#3B97D3"/>
<path d="M123.274 13.4483C126.988 13.4483 129.998 10.4378 129.998 6.72414C129.998 3.0105 126.988 0 123.274 0C119.56 0 116.55 3.0105 116.55 6.72414C116.55 10.4378 119.56 13.4483 123.274 13.4483Z" fill="#3B97D3"/>
<path d="M103.101 8.96552C105.577 8.96552 107.584 6.95852 107.584 4.48276C107.584 2.007 105.577 0 103.101 0C100.626 0 98.6187 2.007 98.6187 4.48276C98.6187 6.95852 100.626 8.96552 103.101 8.96552Z" fill="#3B97D3"/>
<path d="M127.757 44.8275C128.995 44.8275 129.998 43.824 129.998 42.5861C129.998 41.3482 128.995 40.3447 127.757 40.3447C126.519 40.3447 125.516 41.3482 125.516 42.5861C125.516 43.824 126.519 44.8275 127.757 44.8275Z" fill="#2980BA"/>
<path d="M127.757 24.6556C128.995 24.6556 129.998 23.6521 129.998 22.4142C129.998 21.1764 128.995 20.1729 127.757 20.1729C126.519 20.1729 125.516 21.1764 125.516 22.4142C125.516 23.6521 126.519 24.6556 127.757 24.6556Z" fill="#2980BA"/>
<path d="M104.245 79.6364L95.9518 76.346C99.4842 69.0548 98.7378 59.7441 86.4035 46.7598L92.7466 40.4122C92.2311 39.8743 91.7156 39.3588 91.1777 38.8209C90.6397 38.2829 90.1242 37.7674 89.5863 37.2519L83.2409 43.5972C70.2544 31.2697 60.9437 30.5165 53.6547 34.049L50.3644 25.7559C48.9917 26.3848 47.6659 27.1114 46.3971 27.93L49.7839 36.4159C48.1676 37.6295 46.6437 38.9615 45.2249 40.401C39.9792 45.8863 35.7707 52.2766 32.8032 59.2622L24.3397 56.4157C23.742 57.7829 23.1817 59.1726 22.6587 60.5847L31.1087 63.4066C26.1777 76.5747 25.057 90.3434 29.5532 97.2671L23.1294 103.709C23.6001 104.292 24.0932 104.852 24.6087 105.39C25.1466 105.905 25.707 106.398 26.2897 106.869L32.7225 100.445C39.6461 104.946 53.4149 103.828 66.583 98.8898L69.4049 107.34C70.817 106.824 72.2066 106.264 73.5739 105.659L70.7296 97.1976C77.7152 94.2301 84.1055 90.0215 89.5908 84.7759C91.0309 83.3576 92.363 81.8337 93.5759 80.2169L102.071 83.6036C102.889 82.3349 103.616 81.0091 104.245 79.6364V79.6364Z" fill="#F29C1F"/>
<path d="M77.8437 66.5962L105.679 61.0331C105.285 59.5681 104.776 58.1367 104.155 56.7521L76.6065 62.2749L67.7239 53.3923L73.2467 25.8435C71.8621 25.2233 70.4306 24.7136 68.9656 24.3193L63.4025 52.155L50.8777 55.5731L34.4484 39.1349C33.507 40.3004 32.6105 41.5331 31.7587 42.7883L47.7129 58.7424L44.2948 71.2762L18.557 76.409C18.3105 77.978 18.1536 79.5469 18.0415 81.0711L45.5477 75.5909L54.4079 84.4511L48.9277 111.957C50.4518 111.845 52.0208 111.688 53.5898 111.442L58.7225 85.704L71.2496 82.2859L87.2105 98.24C88.4656 97.3883 89.6984 96.4918 90.8639 95.5504L74.4256 79.1323L77.8437 66.5962Z" fill="#E57E25"/>
</svg>
