<svg id="Layer_1" data-name="Layer 1" xmlns="http://www.w3.org/2000/svg" xmlns:xlink="http://www.w3.org/1999/xlink" viewBox="0 0 358.14 393.32" width="406" height="306" class="illustration styles_illustrationTablet__1DWOa"><defs><linearGradient id="linear-gradient" x1="219.99" y1="214.06" x2="188.31" y2="191.08" gradientUnits="userSpaceOnUse"><stop offset="0.01"></stop><stop offset="0.13" stop-opacity="0.69"></stop><stop offset="1" stop-opacity="0"></stop></linearGradient><linearGradient id="linear-gradient-2" x1="213.91" y1="301.6" x2="187.8" y2="299.25" xlink:href="#linear-gradient"></linearGradient><linearGradient id="linear-gradient-3" x1="241.08" y1="304.5" x2="206.62" y2="308.16" xlink:href="#linear-gradient"></linearGradient><linearGradient id="linear-gradient-4" x1="257.81" y1="222.91" x2="204.02" y2="217.69" xlink:href="#linear-gradient"></linearGradient><linearGradient id="linear-gradient-5" x1="270.72" y1="225.37" x2="231.03" y2="232.16" xlink:href="#linear-gradient"></linearGradient></defs><title>Travel-Planning</title><ellipse cx="194.91" cy="374.52" rx="104.45" ry="18.8" fill="#68e1fd" opacity="0.18" style="isolation: isolate;"></ellipse><path d="M354.47,179.32c.56-21.2-8.7-41.28-17.86-60.41-10.65-22.23-22-45.17-41.3-60.56-23.37-18.68-55.57-23.46-85.14-18.92S153,56.89,126.42,70.63c-15.7,8.12-31.31,16.63-45.25,27.5-8.68,6.77-16.89,14.75-21,25-3.59,8.89-3.78,18.73-3.92,28.31L54.77,251.85c-.08,5.46-.14,11.08,1.78,16.19,2.59,6.87,8.37,11.95,13.94,16.73,11.3,9.7,23.44,19.8,38.17,22,15.52,2.32,30.94-4.6,46.63-5,18.85-.45,36.46,8.46,54.52,13.9a152.23,152.23,0,0,0,69.76,4.18c16.62-2.91,33.34-9,45.08-21.09,6.76-7,11.56-15.61,15.37-24.54a143.41,143.41,0,0,0,10.41-38.52c1.16-9.24,5.76-19,6.08-28.07C356.85,198.39,354.21,188.94,354.47,179.32Z" transform="translate(-30.05 -4.66)" fill="#68e1fd" opacity="0.18" style="isolation: isolate;"></path><path d="M186.59,211a57.87,57.87,0,0,0-12.28-9.64,15.14,15.14,0,0,0-5.51-2.21,8.63,8.63,0,0,0-9.07,11.92,15.77,15.77,0,0,0,4.75,5.6,83.62,83.62,0,0,0,21.73,13.08,11.5,11.5,0,0,0,4.46,1.11c2.34,0,4.45-1.39,6.26-2.88,5.17-4.28,9-10,12.44-15.72,2.64-4.34,5.18-8.81,6.57-13.7.79-2.78,1.2-5.65,1.71-8.49s1.07-5.45,1.75-8.15c.58-2.29,2.6-6.08,2.41-8.39-.45-5.27-7.65.44-9.58,1.82a67.92,67.92,0,0,0-18.64,20.95A92.51,92.51,0,0,0,186.59,211Z" transform="translate(-30.05 -4.66)" fill="#68e1fd"></path><path d="M186.59,211a57.87,57.87,0,0,0-12.28-9.64,15.14,15.14,0,0,0-5.51-2.21,8.63,8.63,0,0,0-9.07,11.92,15.77,15.77,0,0,0,4.75,5.6,83.62,83.62,0,0,0,21.73,13.08,11.5,11.5,0,0,0,4.46,1.11c2.34,0,4.45-1.39,6.26-2.88,5.17-4.28,9-10,12.44-15.72,2.64-4.34,5.18-8.81,6.57-13.7.79-2.78,1.2-5.65,1.71-8.49s1.07-5.45,1.75-8.15c.58-2.29,2.6-6.08,2.41-8.39-.45-5.27-7.65.44-9.58,1.82a67.92,67.92,0,0,0-18.64,20.95A92.51,92.51,0,0,0,186.59,211Z" transform="translate(-30.05 -4.66)" fill="url(#linear-gradient)"></path><path d="M163,198.36a49.38,49.38,0,0,0-3.8-5.28c-.19-.24-.45-.5-.76-.44s-.47.47-.65.77c-.73,1.21-2.63.77-3.73-.12s-2.1-2.15-3.52-2.23a3.19,3.19,0,0,0-3,2.82,7.86,7.86,0,0,0,.89,4.38A34.47,34.47,0,0,0,150.3,202a15.26,15.26,0,0,0,3.42,4.23,12.82,12.82,0,0,0,4.59,2.27,10.16,10.16,0,0,0,5,.33,5.34,5.34,0,0,0,3.83-3C168.55,202.38,164.49,200.81,163,198.36Z" transform="translate(-30.05 -4.66)" fill="#f3c091"></path><path d="M201.88,358.61a4.08,4.08,0,0,0,.22,1.63c.55,1.26,2.26,1.6,3.56,1.17a4.78,4.78,0,0,0,2.92-2.66A8.18,8.18,0,0,0,209,355a27.77,27.77,0,0,0-.49-3.63,3.14,3.14,0,0,0-1.22-2.22c-1.59-.9-4.57,1.06-5.17,2.6C201.36,353.66,201.9,356.58,201.88,358.61Z" transform="translate(-30.05 -4.66)" fill="#ffcd90"></path><path d="M207.45,358.48a7.14,7.14,0,0,1-1.57,1.14,5.07,5.07,0,0,1-2.41.27,4.18,4.18,0,0,0-2,0,4,4,0,0,0-1,.78,13.55,13.55,0,0,1-2.25,1.5L194.9,364a14.48,14.48,0,0,0-2.77,1.87c-.51.48-.95,1-1.46,1.53a2.5,2.5,0,0,0-.61.73,1.45,1.45,0,0,0,.39,1.54,3.1,3.1,0,0,0,1.51.7,7.46,7.46,0,0,0,2,.19,23.09,23.09,0,0,0,2.86-.38,48.06,48.06,0,0,0,6.31-1.19c2.08-.63,4.11-1.4,6.14-2.17a4.55,4.55,0,0,0,1.94-1.15,4.07,4.07,0,0,0,.38-3.57,19.7,19.7,0,0,0-.76-2.48c-.3-.79-.78-1.66-1.61-1.81a2.14,2.14,0,0,0-1.59.51Z" transform="translate(-30.05 -4.66)" fill="#2e2e3f"></path><path d="M188.6,296.35A331.6,331.6,0,0,0,196.75,344c.6,2.42,1.27,4.92,2.83,6.87s4.29,3.18,6.62,2.28a6.15,6.15,0,0,0,3.48-4.87,19.82,19.82,0,0,0-.32-6.23c-2.45-16.85-1.07-34,1.23-50.89A93.27,93.27,0,0,1,213.87,275c1.11-3.49,2.61-6.92,2.85-10.58.69-10.74-9.93-18.63-20.09-16.33-9.41,2.13-8.67,17.79-8.94,25.18A174.26,174.26,0,0,0,188.6,296.35Z" transform="translate(-30.05 -4.66)" fill="#2e2e3f"></path><path d="M188.6,296.35A331.6,331.6,0,0,0,196.75,344c.6,2.42,1.27,4.92,2.83,6.87s4.29,3.18,6.62,2.28a6.15,6.15,0,0,0,3.48-4.87,19.82,19.82,0,0,0-.32-6.23c-2.45-16.85-1.07-34,1.23-50.89A93.27,93.27,0,0,1,213.87,275c1.11-3.49,2.61-6.92,2.85-10.58.69-10.74-9.93-18.63-20.09-16.33-9.41,2.13-8.67,17.79-8.94,25.18A174.26,174.26,0,0,0,188.6,296.35Z" transform="translate(-30.05 -4.66)" fill="url(#linear-gradient-2)"></path><path d="M247,367.14a4.15,4.15,0,0,0,.89,1.38c1,.9,2.72.48,3.73-.45a4.89,4.89,0,0,0,1.51-3.66,8.19,8.19,0,0,0-1.23-3.59,27,27,0,0,0-2-3.08,3.11,3.11,0,0,0-2-1.49c-1.83-.14-3.7,2.9-3.58,4.55C244.4,362.88,246.13,365.29,247,367.14Z" transform="translate(-30.05 -4.66)" fill="#ffcd90"></path><path d="M253.51,365.15c-.45-.25-1-.21-1.72.41a15.43,15.43,0,0,1-1.56,1.47c-.95.61-2.19.57-3.23,1a7.47,7.47,0,0,0-1.7,1.2,29.48,29.48,0,0,0-5.2,5.27c-1,1.41-3.33,3.74-1.66,5.5.81.85,2.19.79,3.33.49a24.77,24.77,0,0,0,3.43-1.27c2.6-1.1,5.19-2.2,7.71-3.46a8,8,0,0,0,2.6-1.78,5.27,5.27,0,0,0,.89-5.05,7.48,7.48,0,0,0-1.06-1.4C254.73,366.78,254.25,365.57,253.51,365.15Z" transform="translate(-30.05 -4.66)" fill="#2e2e3f"></path><path d="M207.2,255.79c-1.45,5-.2,10.32.9,15.4a274.22,274.22,0,0,1,5.67,40.65,30.12,30.12,0,0,0,.84,6.35,26.94,26.94,0,0,0,2.53,5.58q9.6,17.53,20.44,34.34c1.7,2.64,3.92,5.56,7.06,5.62,4,.09,6.48-4.77,5.82-8.7s-3.3-7.19-5.27-10.66c-3-5.25-4.53-11.19-6-17.05s-3-11.86-3.42-17.94c-.9-14,4.15-27.52,7.13-41.18a22.9,22.9,0,0,0,.71-7.71c-.66-5.27-4.78-9.69-9.7-11.69C225.86,245.55,210.14,245.69,207.2,255.79Z" transform="translate(-30.05 -4.66)" fill="#2e2e3f"></path><path d="M207.2,255.79c-1.45,5-.2,10.32.9,15.4a274.22,274.22,0,0,1,5.67,40.65,30.12,30.12,0,0,0,.84,6.35,26.94,26.94,0,0,0,2.53,5.58q9.6,17.53,20.44,34.34c1.7,2.64,3.92,5.56,7.06,5.62,4,.09,6.48-4.77,5.82-8.7s-3.3-7.19-5.27-10.66c-3-5.25-4.53-11.19-6-17.05s-3-11.86-3.42-17.94c-.9-14,4.15-27.52,7.13-41.18a22.9,22.9,0,0,0,.71-7.71c-.66-5.27-4.78-9.69-9.7-11.69C225.86,245.55,210.14,245.69,207.2,255.79Z" transform="translate(-30.05 -4.66)" fill="url(#linear-gradient-3)"></path><path d="M211.24,179.68c-3.05,4.95-4.87,10.54-6.66,16.06-1.38,4.25-2.76,8.51-3.77,12.87-1.84,7.93-2.45,16.13-4.7,23.95-2.06,7.18-5.51,14.61-3.41,21.78a20.1,20.1,0,0,0,4.21,7.33,32.56,32.56,0,0,0,33.68,9.71,23.14,23.14,0,0,0,6.48-3.09c5.26-3.71,8.19-10,9.52-16.28s1.29-12.8,1.88-19.21c1-10.92,3.84-21.66,4-32.62s-3-22.74-11.53-29.58C230.06,161.94,217.46,169.6,211.24,179.68Z" transform="translate(-30.05 -4.66)" fill="#68e1fd"></path><path d="M211.24,179.68c-3.05,4.95-4.87,10.54-6.66,16.06-1.38,4.25-2.76,8.51-3.77,12.87-1.84,7.93-2.45,16.13-4.7,23.95-2.06,7.18-5.51,14.61-3.41,21.78a20.1,20.1,0,0,0,4.21,7.33,32.56,32.56,0,0,0,33.68,9.71,23.14,23.14,0,0,0,6.48-3.09c5.26-3.71,8.19-10,9.52-16.28s1.29-12.8,1.88-19.21c1-10.92,3.84-21.66,4-32.62s-3-22.74-11.53-29.58C230.06,161.94,217.46,169.6,211.24,179.68Z" transform="translate(-30.05 -4.66)" fill="url(#linear-gradient-4)"></path><path d="M214.39,142.84c-.95,3.31-1.68,6.79-1.14,10.2s2.55,6.75,5.75,8c1.32.53,2.86.75,3.79,1.82a5.38,5.38,0,0,1,.84,3.89,40,40,0,0,1-.43,4.08,6.32,6.32,0,0,0-.1,2.29,3.66,3.66,0,0,0,2.77,2.66,6.12,6.12,0,0,0,3.94-.5c3.68-1.63,6-5.44,7-9.34s.93-8,1.25-12a45.41,45.41,0,0,0,.32-6.79,17,17,0,0,0-7-12.5c-2.88-2.07-9.09-4.7-12.53-2.51-1.21.77-1.65,2.19-2.1,3.47C215.9,138,215.08,140.42,214.39,142.84Z" transform="translate(-30.05 -4.66)" fill="#f3c091"></path><path d="M220.82,119.44a5,5,0,0,0-3.42,3.27,9.28,9.28,0,0,0-.18,4.88,17.42,17.42,0,0,0,5.07,9.32c1.63,1.55,3.58,2.82,4.72,4.74a10.59,10.59,0,0,1,1.24,4c.06.43.15.93.54,1.13s1-.16,1.42-.53c.78-.75,1.77-1.54,2.82-1.27s1.62,1.72,1.62,2.92a4.15,4.15,0,0,1-1.66,3.68c-.36.22-.83.4-.94.8-.17.59.49,1,.84,1.54a4.3,4.3,0,0,1,.45,2.26,2.12,2.12,0,0,0,1,1.95,2,2,0,0,0,1.73-.36c2-1.23,3.06-3.47,4.75-5.07,1.09-1,2.43-1.8,3.57-2.79a10.55,10.55,0,0,0,3.71-8.48,8.94,8.94,0,0,0-5.12-7.55c-1.6-.7-3.41-.88-4.9-1.77-2.06-1.23-3.14-3.54-4.37-5.59A8.92,8.92,0,0,0,228,122C225.46,121.34,223.63,118.84,220.82,119.44Z" transform="translate(-30.05 -4.66)" fill="#452d21"></path><path d="M245.55,175.6s13.76,17.88,18.22,55-.83,49.23-.83,49.23-9.5,4.91-11.72-.45-2.73-54.12-11-64.66S238,177.87,245.55,175.6Z" transform="translate(-30.05 -4.66)" fill="#68e1fd"></path><path d="M245.55,175.6s13.76,17.88,18.22,55-.83,49.23-.83,49.23-9.5,4.91-11.72-.45-2.73-54.12-11-64.66S238,177.87,245.55,175.6Z" transform="translate(-30.05 -4.66)" fill="url(#linear-gradient-5)"></path><path d="M250.13,289.45c-.26.75-.32,1.87.46,2s1.44-.58,1.87-.09a.93.93,0,0,1,.17.59,13,13,0,0,1-1.19,6.23,2.45,2.45,0,0,0-.38,1.66c.29,1,1.73,1.11,2.74.79,3.65-1.13,6.29-4.48,7.42-8.13s1-7.56.52-11.35a5.36,5.36,0,0,0-1.22-3.31c-1.8-1.75-5.07-.84-6.2,1.1C252.48,282.11,251.33,286,250.13,289.45Z" transform="translate(-30.05 -4.66)" fill="#f3c091"></path><circle cx="48.1" cy="75.48" r="39.96" fill="#68e1fd"></circle><circle cx="178.33" cy="39.96" r="39.96" fill="#68e1fd"></circle><circle cx="318.18" cy="120.61" r="39.96" fill="#68e1fd"></circle><circle cx="39.96" cy="245.66" r="39.96" fill="#68e1fd"></circle><circle cx="313.98" cy="262.98" r="39.96" fill="#68e1fd"></circle><path d="M335.05,109.23c0-.82-.05-1.74,0-2.65.18-2.47,1.45-4,3.91-4.09,4.74-.15,9.5-.16,14.24,0,2.54.07,3.84,1.64,4,4.2.05.86,0,1.72,0,2.86h7.63c.74,0,1.48,0,2.22,0,1.91.09,2.75.85,2.76,2.71,0,5.62,0,11.23,0,16.85,0,.53-.07,1.29-.41,1.54-1.41,1-1.12,2.47-1.12,3.85,0,2.53,0,5.06,0,7.59,0,2.09-.86,3-2.93,3q-19.17.06-38.32,0c-2.18,0-3-.89-3-3.09,0-3,0-5.92,0-8.88a7,7,0,0,0-.71-1.92,7.7,7.7,0,0,1-.78-2.36c-.07-5.43,0-10.86,0-16.29,0-2.21.79-3,3.06-3,3,0,6,0,9.07-.06C334.66,109.49,334.77,109.38,335.05,109.23Zm14.42,23.35a3.6,3.6,0,0,0,.64.07L367,130.37c1.14-.15,1.32-.87,1.32-1.84,0-5.19,0-10.37,0-15.55,0-1.31-.38-1.88-1.8-1.88q-20.36.06-40.73,0c-1.4,0-1.82.55-1.81,1.86.05,5.19,0,10.37,0,15.55a1.63,1.63,0,0,0,1.69,1.91c3.42.42,6.84,1,10.26,1.41,2.29.31,4.58.59,6.85.88.65-3,1.12-3.44,3.46-3.42C348.41,129.31,348.87,129.77,349.47,132.58Zm17.19-.59c-5.17.72-10,1.47-14.93,2-1.61.19-2.61.44-2.53,2.41.07,1.56-1.09,2.26-2.57,2.31s-3.39.05-3.38-1.7c0-3.05-1.95-3-3.93-3.19-.86-.1-1.71-.23-2.57-.35L325.6,132c0,3.19.1,6.14,0,9.08-.08,1.85.49,2.43,2.39,2.42,10.74-.09,21.48-.05,32.22-.05,1.67,0,3.33,0,5,0,1,0,1.5-.34,1.49-1.38C366.65,138.84,366.66,135.58,366.66,132Zm-20.53-28c-2.16,0-4.32,0-6.48,0a3.56,3.56,0,0,0-2.94,5.07,1,1,0,0,0,.75.39.91.91,0,0,0,.71-.42,3.25,3.25,0,0,0,.08-1.09c.07-2.39.07-2.39,2.51-2.39,3.15,0,6.3,0,9.44,0,1.16,0,2.48-.15,3.39.36.5.28.27,1.8.45,2.75.06.29.34.7.58.75a1,1,0,0,0,.92-.35c1.16-2-.48-5-2.74-5.07S348.36,104,346.13,104Zm6.22,3.22H339.91v2.2h12.44Zm-7.76,26.7h0c0,.42,0,.85,0,1.28-.07,1.17.08,2,1.63,2s1.52-.85,1.49-1.91,0-2.08,0-3.12-.63-1.51-1.51-1.28a2.77,2.77,0,0,0-1.53,1.25C344.38,132.6,344.59,133.32,344.59,133.94Z" transform="translate(-30.05 -4.66)" fill="#fff"></path><path d="M214.93,47.94,199.49,61.53c.62,2.94,1.24,5.73,1.75,8.54a4,4,0,0,1-.19,2.37,4.41,4.41,0,0,1-1.86,1.89c-.27.13-1.25-.76-1.63-1.37-1.42-2.28-2.72-4.63-4-6.93-5.74.93-7.22-.52-5.64-5.66-2.28-1.33-4.62-2.63-6.88-4a9.69,9.69,0,0,1-1.66-1.77c.86-.66,1.77-1.94,2.57-1.87,3,.26,5.9,1,8.85,1.5a6.7,6.7,0,0,1,1.19.46c4.58-5.19,9.15-10.37,13.9-15.77L197,33.74c-2.33-1.35-4.65-2.72-7-4-1.1-.61-1.36-1.53-.42-2.22a8.19,8.19,0,0,1,4-1.9,32.17,32.17,0,0,1,18.83,5.06c1.63-1.54,3.16-3,4.74-4.47a12.72,12.72,0,0,1,10.05-3.27c2.81.23,3.59,1.05,3.78,3.92A13.43,13.43,0,0,1,226.38,38c-1.07,1-2.19,2-2.84,2.56,1.54,4.83,3.15,9.29,4.34,13.86a24,24,0,0,1,.29,6.63,4.57,4.57,0,0,1-1.09,2.52c-1.38,1.67-2.22,1.55-3.31-.33C220.87,58.25,218,53.23,214.93,47.94Zm14.3-19.74c-.14-1.89.2-3.54-2.37-3.63a12,12,0,0,0-10,4.23c-7.31,8.35-14.68,16.66-21.89,25.1a65.89,65.89,0,0,0-5.53,7.91,2.59,2.59,0,0,0,.11,2.46,2.71,2.71,0,0,0,2.49.07A27.71,27.71,0,0,0,197.26,61q14.18-12.15,28.2-24.47A10.74,10.74,0,0,0,229.23,28.2Zm-3.76,34.54c2.52-3.45,0-15.52-4-20.35l-5.17,4.38ZM211.52,32.21a31.8,31.8,0,0,0-18-5,12.33,12.33,0,0,0-2.78.89L207,37.52ZM190.89,56.09a16.06,16.06,0,0,0-9.66-1.61l7.65,4.43Zm8.16,16A12.61,12.61,0,0,0,197.59,63l-2.7,2Z" transform="translate(-30.05 -4.66)" fill="#fff"></path><path d="M226.6,31.62a2.17,2.17,0,0,1-.15,1A9.3,9.3,0,0,1,225.21,34a4.83,4.83,0,0,1-.4-1.67c.36-2.39-.93-3.63-3.39-3.25a4.66,4.66,0,0,1-1.58-.33c.4-.45.71-1.1,1.2-1.29A4.21,4.21,0,0,1,226.6,31.62Z" transform="translate(-30.05 -4.66)" fill="#fff"></path><path d="M97.14,83.26c7.09,1,7.52,1.46,7.52,8.49,0,1.18,0,2.36,0,3.53-.18,3.23-1.94,4.94-5.17,5.07-.66,0-1.31,0-2.13,0-.1.47-.18.88-.27,1.28-.71,3.11-2.18,4.38-5.38,4.39q-14.31,0-28.63,0c-3.5,0-4.73-1.26-5.66-5.46a1.7,1.7,0,0,0-.58-.18c-4.65.42-7.12-1.65-6.79-7,.08-1.24,0-2.49,0-3.74,0-4.35,1.62-6,5.92-6.11.43,0,.86,0,1.58-.08,0-4.82,0-9.56,0-14.3,0-.41-.55-1-1-1.19a4.82,4.82,0,0,1-2.64-4.49c0-1.54,0-3.08,0-4.63.08-3.64,1.74-5.32,5.44-5.41,2.93-.07,5.87,0,8.81,0,1.12,0,2-.08,2.37-1.38a2.24,2.24,0,0,1,.65-.87c2.68-2.87,11.11-2,13.28,1.19a2.66,2.66,0,0,0,1.88,1c3,.11,6,0,9,.07,3.8.08,5.43,1.77,5.49,5.59a21.67,21.67,0,0,1-.14,5,6.4,6.4,0,0,1-2.17,3.55,2.74,2.74,0,0,0-1.4,2.59C97.17,74.49,97.14,78.82,97.14,83.26ZM59.61,68.52c-.06.78-.13,1.35-.13,1.93q0,14.76,0,29.52c0,3.38.88,4.21,4.39,4.21H90.74c3.7,0,4.49-.8,4.49-4.56q0-14.41,0-28.85V68.54H91.46a20,20,0,0,0,.08,4.19c.18.85,1.55,1.56,1.54,2.32S92,76.55,91.4,77.33c-.21.29-.24.7-.43,1a2.75,2.75,0,0,1-4.62.07c-.75-1.18-1.42-2.41-2.2-3.74,3-1.26,1.17-3.88,1.65-6.08H69c.3,2.32-1.25,4.92,1.67,6.21a20.33,20.33,0,0,1-1.91,2.7c-.79.81-1.81,2-2.71,2s-1.84-1.26-2.65-2.07c-.31-.3-.2-1.21-.47-1.31-3.31-1.21-.73-1.69.19-2.32V68.52Zm26-13.1H69v11H85.65Zm-22.51-.17c-2.44.47-5.74-1.35-6.79,1.53a12.54,12.54,0,0,0,.16,8.44c1.06,2.51,4.27,1,6.63,1.24ZM91.56,66.71c2.49-.77,5.81,1.14,6.79-1.69a12.81,12.81,0,0,0-.15-8.45c-1-2.54-4.28-.93-6.64-1.29ZM57.45,85.47c-4.7-.41-5.51.34-5.52,4.87v3.3c0,4.41,1.06,5.32,5.52,4.64Zm39.69,0v13c4.91.3,5.63-.38,5.63-5V90.38C102.77,85.81,102,85.12,97.14,85.44ZM67,55.53l-.59-.42c-.44.45-1.24.89-1.26,1.35-.12,2.93-.1,5.86,0,8.79,0,.41.54.81.84,1.21.34-.43,1-.85,1-1.29C67.05,62,67,58.74,67,55.53Zm22.59-.06L89,55.09c-.42.48-1.18.95-1.2,1.44-.11,2.93-.09,5.86,0,8.79,0,.39.6.77.91,1.15.32-.38.9-.76.91-1.15C89.63,62,89.6,58.75,89.6,55.47ZM72,53.15H82.67C80.6,50.79,74.21,50.77,72,53.15Zm-6.91,18a4.74,4.74,0,0,0,0,1.51A6.1,6.1,0,0,0,66,74,4.56,4.56,0,0,0,67,72.63a4.88,4.88,0,0,0,0-2.15,9.87,9.87,0,0,0-.93-2c-.32.66-.66,1.32-1,2A1.72,1.72,0,0,0,65.1,71.11Zm24.51.24a5.07,5.07,0,0,0,0-1.51,5.93,5.93,0,0,0-.91-1.37c-.32.44-.83.84-.94,1.33a6,6,0,0,0,0,2.38A7.38,7.38,0,0,0,88.64,74c.32-.59.68-1.17,1-1.78A2.29,2.29,0,0,0,89.61,71.35Z" transform="translate(-30.05 -4.66)" fill="#fff"></path><path d="M77.35,102.26c-3.89,0-7.78-.08-11.66,0-2,.06-2.54-.66-2.48-2.56.12-4.1.07-8.21,0-12.32,0-1.49.48-2.11,2-2.11q12.1.08,24.21,0c1.55,0,2,.63,2,2.11-.06,4.26-.08,8.51,0,12.76,0,1.74-.75,2.12-2.26,2.11C85.27,102.23,81.31,102.26,77.35,102.26ZM89.16,87.32H65.54a7.49,7.49,0,0,0,6.54,7.19c1.63.18,3.8,1.3,4.81-1.32a1.32,1.32,0,0,1,.92,0c1,2.63,3.18,1.5,4.81,1.32A7.49,7.49,0,0,0,89.16,87.32Zm.37,5c-2.87,3.37-6.26,4.37-10.08,4.35-.43,0-.8.81-1.3,1a2.44,2.44,0,0,1-1.6,0c-.68-.24-1.28-1-1.94-1-2.77-.17-5.39-.67-7.59-2.5-.57-.47-1.11-1-1.79-1.57v7.53h24.3Z" transform="translate(-30.05 -4.66)" fill="#fff"></path><path d="M71.52,278.22a27.06,27.06,0,0,1-24.59-38,6.56,6.56,0,0,1,.55-1.13,9.13,9.13,0,0,0,1.74-6.53c-.61-6,6.05-10,11.54-7.34a4.41,4.41,0,0,0,2.9.29,26.9,26.9,0,0,1,34.62,23,26.6,26.6,0,0,1-22.17,29.16C74.59,278,73.05,278.05,71.52,278.22Zm2-13.46c-.31,3.09-1,5.85-4.32,7.3-.6.26-.8,2.13-.63,3.17.08.5,1.44,1.1,2.23,1.13A24,24,0,0,0,76,276a24.74,24.74,0,0,0,17.23-12.1l-3-1.34c-1.68,2.55-3.28,4.92-4.84,7.33-.93,1.43-1.75,1.37-2.67,0s-2-3-3.17-4.62c-.66.79-1.16,1.45-1.7,2.06-1.31,1.47-2.74,1.36-3.69-.36a12.38,12.38,0,0,1-.69-2.16,47.83,47.83,0,0,1-.6-4.9c0-1.61-.7-2.62-2.24-2.78a32.9,32.9,0,0,0-6-.19c-2.89.25-4.85-.73-5.58-3.22s.18-3.73,3.16-5.2a35.37,35.37,0,0,0,7.57-4.69c2.38-2.05,2.32-3.79.37-6.24-2.58-3.24-3.09-6.63-1.32-10.37a5.12,5.12,0,0,0,.17-1l-5.54,1.22a7.85,7.85,0,0,1,.5,9.15c-1.66,3-3.48,5.91-5.34,8.79-1.21,1.86-1.75,1.83-3,0-1.71-2.5-3.34-5.06-5.15-7.83-.59,1.15-1.37,2-1.48,3-.62,5.49-.58,11.09,2.06,16,3.31,6.17,6.34,6.67,11.45,4.43.51-.22,1.05-.38,1.56-.61,3.76-1.61,6.45-.65,8.36,2.95A14.36,14.36,0,0,0,73.47,264.76ZM94,262.18a23.18,23.18,0,0,0,2.71-11c-.06-3.49-1.5-5.74-4.87-6.76-1.54-.47-3.31-.12-5-.35A31.68,31.68,0,0,1,80,242.68c-2.41-1-3.45-3.9-2.88-6.61.61-2.91,1.89-3.89,5.11-4.27a16.4,16.4,0,0,0,3.39-1.25,24,24,0,0,0-13.44-4.33c-.45,0-1.08.56-1.34,1a7.61,7.61,0,0,0,.69,9.16c2.59,3.31,2.5,6.13-.69,8.86-2.38,2-5.35,3.44-8.16,4.95-1.18.64-2.42,1-2,2.67a2.71,2.71,0,0,0,3.23,2.27,25.08,25.08,0,0,1,6.06,0c3.78.56,4.58,1.83,4.68,5.67a46.2,46.2,0,0,0,.93,5.89c3.14-2.8,3.13-2.8,1.68-5.78-.27-.57-.53-1.15-.74-1.74a7.83,7.83,0,0,1,4.36-9.92,8.1,8.1,0,0,1,10.37,3.85c1.31,2.61.86,5.13-.24,7.71ZM66.5,275.74c-.22-2.55.15-4.63,2.52-5.89s2.91-3.35,1.72-5.83-3.29-3.27-5.7-2.25c-1,.44-2.05.89-3.1,1.27-4.58,1.67-8.08.79-10.89-3.18a25.35,25.35,0,0,1-3-6.36,41.12,41.12,0,0,1-1.16-5.94C44.34,258.92,52.62,273.28,66.5,275.74Zm20.75-44c-1.74.69-3.22,1.67-4.77,1.79-2.22.18-3.36,1.09-3.69,3.19a4.22,4.22,0,0,0,2.79,4.82,12,12,0,0,0,4.28.81c3.31-.28,6.52-.45,9.43,1.72A22.88,22.88,0,0,0,87.25,231.72Zm-3.6,36.65.85.14c1.84-3.43,3.73-6.83,5.47-10.31a4.59,4.59,0,0,0,.2-2.66,5.93,5.93,0,0,0-4.61-4.89,5.74,5.74,0,0,0-6.1,1.79,5.5,5.5,0,0,0-1,6.61C80,262.22,81.89,265.27,83.65,268.37ZM56.74,244.15h.8c1.76-3.17,3.65-6.27,5.22-9.52a5.75,5.75,0,0,0-1.95-7.28,6.29,6.29,0,0,0-7.62.16,5.75,5.75,0,0,0-1.71,7.35C53.08,238,55,241.06,56.74,244.15Z" transform="translate(-30.05 -4.66)" fill="#fff"></path><path d="M80.49,255.65a3.63,3.63,0,0,1,3.78-3.42,3.51,3.51,0,0,1,3.29,3.64,3.44,3.44,0,0,1-3.72,3.39A3.56,3.56,0,0,1,80.49,255.65Zm3.62-2.4c-.84,1.19-1.71,1.88-1.64,2.47s1,1.19,1.56,1.78c.59-.56,1.56-1.07,1.66-1.71S84.92,254.47,84.11,253.25Z" transform="translate(-30.05 -4.66)" fill="#fff"></path><path d="M57.12,235.06a3.71,3.71,0,0,1-3.6-3.43A3.57,3.57,0,0,1,57.05,228a3.44,3.44,0,0,1,3.54,3.38A3.56,3.56,0,0,1,57.12,235.06Zm.06-6.09c-.85,1.15-1.73,1.83-1.68,2.44s1,1.66,1.53,1.66a2.32,2.32,0,0,0,1.7-1.54C58.82,230.93,58,230.19,57.18,229Z" transform="translate(-30.05 -4.66)" fill="#fff"></path><path d="M346,295a26.33,26.33,0,1,1,26.26-26.35A26.39,26.39,0,0,1,346,295ZM321.3,268.67A24.6,24.6,0,1,0,346,244.08,24.71,24.71,0,0,0,321.3,268.67Z" transform="translate(-30.05 -4.66)" fill="#fff"></path><path d="M346,246.78a21.9,21.9,0,1,1-22,21.89A21.86,21.86,0,0,1,346,246.78Zm20.11,21.93a20.17,20.17,0,1,0-20.17,20.14A20.33,20.33,0,0,0,366.07,268.71Z" transform="translate(-30.05 -4.66)" fill="#fff"></path><path d="M333.08,282.14a7.13,7.13,0,0,1,.21-2.34c2-3.59,4.2-7.06,6-10.72a14.87,14.87,0,0,1,7.06-7c3.6-1.78,7-4,10.54-5.92a6,6,0,0,1,1.84-.32,5.42,5.42,0,0,1-.3,1.84q-3.94,7.07-8,14.06a4,4,0,0,1-1.39,1.44c-4.79,2.78-9.6,5.51-14.41,8.25C334.34,281.57,334,281.69,333.08,282.14Zm3.32-4.29.33.33L347.45,272c-1.65-1.77-3.17-3.39-4.79-5.14C340.52,270.63,338.46,274.24,336.4,277.85Zm19-18.34-.33-.32-10.67,6.1,4.74,5.17Z" transform="translate(-30.05 -4.66)" fill="#fff"></path><path d="M345.05,252.7a2.61,2.61,0,0,1,0-1,8.32,8.32,0,0,1,.9-1.32,4,4,0,0,1,.74,1.25,7.46,7.46,0,0,1,0,2.45c-.08.48-.57.88-.88,1.32a6,6,0,0,1-.74-1.26A5.24,5.24,0,0,1,345.05,252.7Z" transform="translate(-30.05 -4.66)" fill="#fff"></path><path d="M330.16,269.94l-2.57-1.17a8.62,8.62,0,0,1,2.52-.88,8.46,8.46,0,0,1,2.5.7Z" transform="translate(-30.05 -4.66)" fill="#fff"></path><path d="M361.8,269.53a1.12,1.12,0,0,1-.41,0c-.74-.27-1.47-.56-2.21-.85l2.22-.84a.68.68,0,0,1,.4,0l2.41.85L362,269.87Z" transform="translate(-30.05 -4.66)" fill="#fff"></path><path d="M346.74,284.66a2.61,2.61,0,0,1,0,1,8.8,8.8,0,0,1-.9,1.32c-.25-.42-.67-.81-.74-1.26a7.4,7.4,0,0,1,0-2.44c.09-.48.57-.89.88-1.33a6.14,6.14,0,0,1,.75,1.27A5.68,5.68,0,0,1,346.74,284.66Z" transform="translate(-30.05 -4.66)" fill="#fff"></path></svg>