<?xml version="1.0" standalone="no"?><svg xmlns="http://www.w3.org/2000/svg" viewBox="0 0 1440 320"><path fill="#0099ff" fill-opacity="1" d="M0,224L11.4,208C22.9,192,46,160,69,122.7C91.4,85,114,43,137,37.3C160,32,183,64,206,80C228.6,96,251,96,274,90.7C297.1,85,320,75,343,96C365.7,117,389,171,411,165.3C434.3,160,457,96,480,106.7C502.9,117,526,203,549,245.3C571.4,288,594,288,617,272C640,256,663,224,686,208C708.6,192,731,192,754,208C777.1,224,800,256,823,234.7C845.7,213,869,139,891,96C914.3,53,937,43,960,64C982.9,85,1006,139,1029,165.3C1051.4,192,1074,192,1097,192C1120,192,1143,192,1166,192C1188.6,192,1211,192,1234,208C1257.1,224,1280,256,1303,261.3C1325.7,267,1349,245,1371,208C1394.3,171,1417,117,1429,90.7L1440,64L1440,0L1428.6,0C1417.1,0,1394,0,1371,0C1348.6,0,1326,0,1303,0C1280,0,1257,0,1234,0C1211.4,0,1189,0,1166,0C1142.9,0,1120,0,1097,0C1074.3,0,1051,0,1029,0C1005.7,0,983,0,960,0C937.1,0,914,0,891,0C868.6,0,846,0,823,0C800,0,777,0,754,0C731.4,0,709,0,686,0C662.9,0,640,0,617,0C594.3,0,571,0,549,0C525.7,0,503,0,480,0C457.1,0,434,0,411,0C388.6,0,366,0,343,0C320,0,297,0,274,0C251.4,0,229,0,206,0C182.9,0,160,0,137,0C114.3,0,91,0,69,0C45.7,0,23,0,11,0L0,0Z"></path></svg>