<?xml version="1.0" standalone="no"?><svg xmlns="http://www.w3.org/2000/svg" viewBox="0 0 1440 320"><path fill="#002352" fill-opacity="1" d="M0,224L30,213.3C60,203,120,181,180,176C240,171,300,181,360,208C420,235,480,277,540,298.7C600,320,660,320,720,277.3C780,235,840,149,900,112C960,75,1020,85,1080,90.7C1140,96,1200,96,1260,101.3C1320,107,1380,117,1410,122.7L1440,128L1440,0L1410,0C1380,0,1320,0,1260,0C1200,0,1140,0,1080,0C1020,0,960,0,900,0C840,0,780,0,720,0C660,0,600,0,540,0C480,0,420,0,360,0C300,0,240,0,180,0C120,0,60,0,30,0L0,0Z"></path></svg>