<?xml version="1.0" standalone="no"?>
<svg xmlns:xlink="http://www.w3.org/1999/xlink" id="wave" style="transform:rotate(180deg); transition: 0.3s" viewBox="0 0 1440 490" version="1.1" xmlns="http://www.w3.org/2000/svg"><defs><linearGradient id="sw-gradient-0" x1="0" x2="0" y1="1" y2="0"><stop stop-color="rgba(255, 81, 47, 1)" offset="0%"/><stop stop-color="rgba(221, 36, 118, 1)" offset="100%"/></linearGradient></defs><path style="transform:translate(0, 0px); opacity:1" fill="url(#sw-gradient-0)" d="M0,245L26.7,253.2C53.3,261,107,278,160,285.8C213.3,294,267,294,320,277.7C373.3,261,427,229,480,187.8C533.3,147,587,98,640,114.3C693.3,131,747,212,800,228.7C853.3,245,907,196,960,212.3C1013.3,229,1067,310,1120,326.7C1173.3,343,1227,294,1280,285.8C1333.3,278,1387,310,1440,343C1493.3,376,1547,408,1600,424.7C1653.3,441,1707,441,1760,392C1813.3,343,1867,245,1920,236.8C1973.3,229,2027,310,2080,334.8C2133.3,359,2187,327,2240,277.7C2293.3,229,2347,163,2400,179.7C2453.3,196,2507,294,2560,302.2C2613.3,310,2667,229,2720,212.3C2773.3,196,2827,245,2880,294C2933.3,343,2987,392,3040,367.5C3093.3,343,3147,245,3200,196C3253.3,147,3307,147,3360,155.2C3413.3,163,3467,180,3520,171.5C3573.3,163,3627,131,3680,106.2C3733.3,82,3787,65,3813,57.2L3840,49L3840,490L3813.3,490C3786.7,490,3733,490,3680,490C3626.7,490,3573,490,3520,490C3466.7,490,3413,490,3360,490C3306.7,490,3253,490,3200,490C3146.7,490,3093,490,3040,490C2986.7,490,2933,490,2880,490C2826.7,490,2773,490,2720,490C2666.7,490,2613,490,2560,490C2506.7,490,2453,490,2400,490C2346.7,490,2293,490,2240,490C2186.7,490,2133,490,2080,490C2026.7,490,1973,490,1920,490C1866.7,490,1813,490,1760,490C1706.7,490,1653,490,1600,490C1546.7,490,1493,490,1440,490C1386.7,490,1333,490,1280,490C1226.7,490,1173,490,1120,490C1066.7,490,1013,490,960,490C906.7,490,853,490,800,490C746.7,490,693,490,640,490C586.7,490,533,490,480,490C426.7,490,373,490,320,490C266.7,490,213,490,160,490C106.7,490,53,490,27,490L0,490Z"/></svg>