<?xml version="1.0" standalone="no"?><svg xmlns="http://www.w3.org/2000/svg" viewBox="0 0 1440 320"><path fill="#002352" fill-opacity="1" d="M0,160L40,144C80,128,160,96,240,101.3C320,107,400,149,480,186.7C560,224,640,256,720,250.7C800,245,880,203,960,197.3C1040,192,1120,224,1200,229.3C1280,235,1360,213,1400,202.7L1440,192L1440,320L1400,320C1360,320,1280,320,1200,320C1120,320,1040,320,960,320C880,320,800,320,720,320C640,320,560,320,480,320C400,320,320,320,240,320C160,320,80,320,40,320L0,320Z"></path></svg>