<?xml version="1.0" standalone="no"?>
<svg xmlns:xlink="http://www.w3.org/1999/xlink" id="wave" style="transform:rotate(180deg); transition: 0.3s" viewBox="0 0 1440 180" version="1.1" xmlns="http://www.w3.org/2000/svg"><defs><linearGradient id="sw-gradient-0" x1="0" x2="0" y1="1" y2="0"><stop stop-color="rgba(255, 81, 47, 1)" offset="0%"/><stop stop-color="rgba(221, 36, 118, 1)" offset="100%"/></linearGradient></defs><path style="transform:translate(0, 0px); opacity:1" fill="url(#sw-gradient-0)" d="M0,72L48,81C96,90,192,108,288,123C384,138,480,150,576,138C672,126,768,90,864,69C960,48,1056,42,1152,51C1248,60,1344,84,1440,78C1536,72,1632,36,1728,30C1824,24,1920,48,2016,57C2112,66,2208,60,2304,63C2400,66,2496,78,2592,90C2688,102,2784,114,2880,108C2976,102,3072,78,3168,60C3264,42,3360,30,3456,21C3552,12,3648,6,3744,21C3840,36,3936,72,4032,75C4128,78,4224,48,4320,36C4416,24,4512,30,4608,30C4704,30,4800,24,4896,45C4992,66,5088,114,5184,114C5280,114,5376,66,5472,39C5568,12,5664,6,5760,3C5856,0,5952,0,6048,3C6144,6,6240,12,6336,15C6432,18,6528,18,6624,27C6720,36,6816,54,6864,63L6912,72L6912,180L6864,180C6816,180,6720,180,6624,180C6528,180,6432,180,6336,180C6240,180,6144,180,6048,180C5952,180,5856,180,5760,180C5664,180,5568,180,5472,180C5376,180,5280,180,5184,180C5088,180,4992,180,4896,180C4800,180,4704,180,4608,180C4512,180,4416,180,4320,180C4224,180,4128,180,4032,180C3936,180,3840,180,3744,180C3648,180,3552,180,3456,180C3360,180,3264,180,3168,180C3072,180,2976,180,2880,180C2784,180,2688,180,2592,180C2496,180,2400,180,2304,180C2208,180,2112,180,2016,180C1920,180,1824,180,1728,180C1632,180,1536,180,1440,180C1344,180,1248,180,1152,180C1056,180,960,180,864,180C768,180,672,180,576,180C480,180,384,180,288,180C192,180,96,180,48,180L0,180Z"/></svg>