<?xml version="1.0" standalone="no"?>
<svg xmlns:xlink="http://www.w3.org/1999/xlink" id="wave" style="transform:rotate(180deg); transition: 0.3s" viewBox="0 0 1440 180" version="1.1" xmlns="http://www.w3.org/2000/svg"><defs><linearGradient id="sw-gradient-0" x1="0" x2="0" y1="1" y2="0"><stop stop-color="rgba(255, 81, 47, 1)" offset="0%"/><stop stop-color="rgba(221, 36, 118, 1)" offset="100%"/></linearGradient></defs><path style="transform:translate(0, 0px); opacity:1" fill="url(#sw-gradient-0)" d="M0,0L48,21C96,42,192,84,288,84C384,84,480,42,576,33C672,24,768,48,864,72C960,96,1056,120,1152,111C1248,102,1344,60,1440,39C1536,18,1632,18,1728,42C1824,66,1920,114,2016,129C2112,144,2208,126,2304,126C2400,126,2496,144,2592,135C2688,126,2784,90,2880,90C2976,90,3072,126,3168,120C3264,114,3360,66,3456,51C3552,36,3648,54,3744,72C3840,90,3936,108,4032,120C4128,132,4224,138,4320,135C4416,132,4512,120,4608,120C4704,120,4800,132,4896,126C4992,120,5088,96,5184,93C5280,90,5376,108,5472,96C5568,84,5664,42,5760,21C5856,0,5952,0,6048,0C6144,0,6240,0,6336,0C6432,0,6528,0,6624,24C6720,48,6816,96,6864,120L6912,144L6912,180L6864,180C6816,180,6720,180,6624,180C6528,180,6432,180,6336,180C6240,180,6144,180,6048,180C5952,180,5856,180,5760,180C5664,180,5568,180,5472,180C5376,180,5280,180,5184,180C5088,180,4992,180,4896,180C4800,180,4704,180,4608,180C4512,180,4416,180,4320,180C4224,180,4128,180,4032,180C3936,180,3840,180,3744,180C3648,180,3552,180,3456,180C3360,180,3264,180,3168,180C3072,180,2976,180,2880,180C2784,180,2688,180,2592,180C2496,180,2400,180,2304,180C2208,180,2112,180,2016,180C1920,180,1824,180,1728,180C1632,180,1536,180,1440,180C1344,180,1248,180,1152,180C1056,180,960,180,864,180C768,180,672,180,576,180C480,180,384,180,288,180C192,180,96,180,48,180L0,180Z"/></svg>