<?xml version="1.0" standalone="no"?>
<svg xmlns:xlink="http://www.w3.org/1999/xlink" id="wave" style="transform:rotate(180deg); transition: 0.3s" viewBox="0 0 1440 180" version="1.1" xmlns="http://www.w3.org/2000/svg"><defs><linearGradient id="sw-gradient-0" x1="0" x2="0" y1="1" y2="0"><stop stop-color="rgba(255, 81, 47, 1)" offset="0%"/><stop stop-color="rgba(221, 36, 118, 1)" offset="100%"/></linearGradient></defs><path style="transform:translate(0, 0px); opacity:1" fill="url(#sw-gradient-0)" d="M0,0L48,24C96,48,192,96,288,96C384,96,480,48,576,48C672,48,768,96,864,111C960,126,1056,108,1152,108C1248,108,1344,126,1440,135C1536,144,1632,144,1728,123C1824,102,1920,60,2016,39C2112,18,2208,18,2304,36C2400,54,2496,90,2592,114C2688,138,2784,150,2880,138C2976,126,3072,90,3168,90C3264,90,3360,126,3456,141C3552,156,3648,150,3744,144C3840,138,3936,132,4032,123C4128,114,4224,102,4320,99C4416,96,4512,102,4608,93C4704,84,4800,60,4896,63C4992,66,5088,96,5184,117C5280,138,5376,150,5472,150C5568,150,5664,138,5760,120C5856,102,5952,78,6048,72C6144,66,6240,78,6336,69C6432,60,6528,30,6624,42C6720,54,6816,108,6864,135L6912,162L6912,180L6864,180C6816,180,6720,180,6624,180C6528,180,6432,180,6336,180C6240,180,6144,180,6048,180C5952,180,5856,180,5760,180C5664,180,5568,180,5472,180C5376,180,5280,180,5184,180C5088,180,4992,180,4896,180C4800,180,4704,180,4608,180C4512,180,4416,180,4320,180C4224,180,4128,180,4032,180C3936,180,3840,180,3744,180C3648,180,3552,180,3456,180C3360,180,3264,180,3168,180C3072,180,2976,180,2880,180C2784,180,2688,180,2592,180C2496,180,2400,180,2304,180C2208,180,2112,180,2016,180C1920,180,1824,180,1728,180C1632,180,1536,180,1440,180C1344,180,1248,180,1152,180C1056,180,960,180,864,180C768,180,672,180,576,180C480,180,384,180,288,180C192,180,96,180,48,180L0,180Z"/></svg>