<?xml version="1.0" standalone="no"?>
<svg xmlns:xlink="http://www.w3.org/1999/xlink" id="wave" style="transform:rotate(0deg); transition: 0.3s" viewBox="0 0 1440 490" version="1.1" xmlns="http://www.w3.org/2000/svg"><defs><linearGradient id="sw-gradient-0" x1="0" x2="0" y1="1" y2="0"><stop stop-color="rgba(255, 81, 47, 1)" offset="0%"/><stop stop-color="rgba(221, 36, 118, 1)" offset="100%"/></linearGradient></defs><path style="transform:translate(0, 0px); opacity:1" fill="url(#sw-gradient-0)" d="M0,245L240,212.3C480,180,960,114,1440,130.7C1920,147,2400,245,2880,277.7C3360,310,3840,278,4320,285.8C4800,294,5280,343,5760,359.3C6240,376,6720,359,7200,334.8C7680,310,8160,278,8640,261.3C9120,245,9600,245,10080,269.5C10560,294,11040,343,11520,351.2C12000,359,12480,327,12960,269.5C13440,212,13920,131,14400,89.8C14880,49,15360,49,15840,98C16320,147,16800,245,17280,245C17760,245,18240,147,18720,138.8C19200,131,19680,212,20160,253.2C20640,294,21120,294,21600,253.2C22080,212,22560,131,23040,147C23520,163,24000,278,24480,310.3C24960,343,25440,294,25920,269.5C26400,245,26880,245,27360,228.7C27840,212,28320,180,28800,163.3C29280,147,29760,147,30240,155.2C30720,163,31200,180,31680,220.5C32160,261,32640,327,33120,310.3C33600,294,34080,196,34320,147L34560,98L34560,490L34320,490C34080,490,33600,490,33120,490C32640,490,32160,490,31680,490C31200,490,30720,490,30240,490C29760,490,29280,490,28800,490C28320,490,27840,490,27360,490C26880,490,26400,490,25920,490C25440,490,24960,490,24480,490C24000,490,23520,490,23040,490C22560,490,22080,490,21600,490C21120,490,20640,490,20160,490C19680,490,19200,490,18720,490C18240,490,17760,490,17280,490C16800,490,16320,490,15840,490C15360,490,14880,490,14400,490C13920,490,13440,490,12960,490C12480,490,12000,490,11520,490C11040,490,10560,490,10080,490C9600,490,9120,490,8640,490C8160,490,7680,490,7200,490C6720,490,6240,490,5760,490C5280,490,4800,490,4320,490C3840,490,3360,490,2880,490C2400,490,1920,490,1440,490C960,490,480,490,240,490L0,490Z"/></svg>