<?xml version="1.0" encoding="iso-8859-1"?>
<!-- Generator: Adobe Illustrator 19.0.0, SVG Export Plug-In . SVG Version: 6.00 Build 0)  -->
<svg version="1.1" id="Capa_1" xmlns="http://www.w3.org/2000/svg" xmlns:xlink="http://www.w3.org/1999/xlink" x="0px" y="0px"
	 viewBox="0 0 468.293 468.293" style="enable-background:new 0 0 468.293 468.293;" xml:space="preserve">
<path style="fill:#3A556A;" d="M468.293,108.854H0V46.415c0-6.897,5.591-12.488,12.488-12.488h443.317
	c6.897,0,12.488,5.591,12.488,12.488V108.854z"/>
<path style="fill:#D5D6DB;" d="M468.293,108.854h-256l38.11-43.554c3.557-4.065,8.696-6.397,14.097-6.397h203.793V108.854z"/>
<path style="fill:#EBF0F3;" d="M449.561,434.366H18.732C8.386,434.366,0,425.979,0,415.634v-306.78h468.293v306.78
	C468.293,425.979,459.906,434.366,449.561,434.366z"/>
<circle style="fill:#FCD462;" cx="58.137" cy="71.393" r="18.732"/>
<circle style="fill:#E1E6E9;" cx="114.332" cy="71.393" r="18.732"/>
<circle style="fill:#27A2DB;" cx="170.527" cy="71.393" r="18.732"/>
<rect x="39.405" y="153.413" style="fill:#E56353;" width="112.39" height="112.39"/>
<rect x="39.405" y="292.652" style="fill:#44C4A1;" width="112.39" height="35.172"/>
<rect x="39.405" y="354.654" style="fill:#1C75A1;" width="112.39" height="35.172"/>
<g>
	<rect x="190.233" y="172.02" style="fill:#D5D6DB;" width="238.642" height="12.488"/>
	<rect x="190.233" y="203.426" style="fill:#D5D6DB;" width="238.642" height="12.488"/>
	<rect x="190.233" y="234.646" style="fill:#D5D6DB;" width="238.642" height="12.488"/>
	<rect x="190.233" y="303.703" style="fill:#D5D6DB;" width="238.642" height="12.488"/>
	<rect x="190.233" y="335.048" style="fill:#D5D6DB;" width="238.642" height="12.488"/>
	<rect x="190.233" y="366.267" style="fill:#D5D6DB;" width="238.642" height="12.488"/>
</g>
<g>
</g>
<g>
</g>
<g>
</g>
<g>
</g>
<g>
</g>
<g>
</g>
<g>
</g>
<g>
</g>
<g>
</g>
<g>
</g>
<g>
</g>
<g>
</g>
<g>
</g>
<g>
</g>
<g>
</g>
</svg>
