<svg id="Layer_1" data-name="Layer 1" xmlns="http://www.w3.org/2000/svg" viewBox="0 0 80.34 80.33"><defs><style>.cls-1{fill:#585858;}</style></defs><path class="cls-1" d="M960.83,580.5a40.16,40.16,0,1,0-40.37-38.71A40.08,40.08,0,0,0,960.83,580.5ZM971.52,575a33.89,33.89,0,0,1-9.6,1.71,38.41,38.41,0,0,1-11-1.29c-.71-.21-.88-.52-.63-1.2.92-2.55,1.82-5.11,2.72-7.66q2.67-7.68,5.33-15.35c.81-2.34,1.64-4.66,2.47-7,.09-.24.07-.63.36-.65s.39.39.48.64c1,2.78,2,5.56,3,8.33l6,16.65q.81,2.25,1.59,4.51C972.51,574.61,972.44,574.74,971.52,575Zm20.18-41.47a30.41,30.41,0,0,0,.83-6.85,21,21,0,0,0-.13-2.88c0-.22-.16-.55.13-.63s.35.28.45.47a36.48,36.48,0,0,1,3.41,22.76,36.24,36.24,0,0,1-12,21.35,34.77,34.77,0,0,1-5.08,3.71c-.19.11-.39.37-.63.2s0-.45,0-.66c1.84-5.18,3.7-10.36,5.52-15.54,1.58-4.49,3.1-9,4.69-13.47A81.39,81.39,0,0,0,991.7,533.55Zm-60.8-14.11a37.61,37.61,0,0,1,5.23-5.89,36.35,36.35,0,0,1,21.5-9.46c1-.1,2.06-.14,3.1-.14a35.86,35.86,0,0,1,23.81,8.89c.21.18.57.35.46.68s-.46.21-.71.24c-4,.36-6.5,4.36-5.11,8.85a21.26,21.26,0,0,0,2.49,4.89c2.25,3.59,3.74,7.4,3.52,11.72a29.36,29.36,0,0,1-1.82,8.38c-1.34,3.73-2.44,7.53-3.59,11.32-.26.89-.52,1.78-.81,2.66-.08.26-.06.68-.44.66s-.3-.4-.38-.65q-2.11-6.44-4.22-12.87-4-12.22-8.06-24.45c-.34-1-.26-1.11.83-1.18s2.07-.14,3.1-.29a1.27,1.27,0,0,0,1.25-1.37,1.33,1.33,0,0,0-1.43-1.3c-1,0-2,.07-2.94.16a84.85,84.85,0,0,1-15.12-.16,8.24,8.24,0,0,0-1.11,0c-.88,0-1.36.44-1.43,1.19a1.26,1.26,0,0,0,1.21,1.48c1,.15,2.06.24,3.09.32a1,1,0,0,1,1,.75q2.56,7.17,5.15,14.33a1.9,1.9,0,0,1,0,1.31L952,561.67c-.09.29-.08.77-.43.78s-.41-.49-.51-.8c-1.58-4.79-3.13-9.59-4.71-14.39q-3.75-11.43-7.52-22.86c-.39-1.19-.37-1.25.85-1.39.87-.09,1.75-.15,2.62-.23,1.07-.1,1.68-.67,1.61-1.48s-.74-1.31-1.81-1.24c-3.42.22-6.84.45-10.27.36h-.4c-.26,0-.57.06-.73-.2S930.74,519.66,930.9,519.44Zm-6.59,19.43a35,35,0,0,1,2.93-12.82c.08-.19.11-.42.34-.53.3.05.31.33.39.54q1.18,3.26,2.35,6.52,4,11.13,8,22.27,2.75,7.64,5.47,15.3c.18.49.42,1,.57,1.48s.53.86.17,1.17-.74-.15-1.07-.32a36.37,36.37,0,0,1-19.14-33.61Z" transform="translate(-920.44 -500.18)"/></svg>