<?xml version="1.0" encoding="utf-8"?>
<!-- Generator: Adobe Illustrator 22.0.0, SVG Export Plug-In . SVG Version: 6.00 Build 0)  -->
<svg version="1.1" id="Capa_1" xmlns="http://www.w3.org/2000/svg" xmlns:xlink="http://www.w3.org/1999/xlink" x="0px" y="0px"
	 viewBox="0 0 512 512" style="enable-background:new 0 0 512 512;" xml:space="preserve">
<style type="text/css">
	.st0{fill:#CFD8DC;}
	.st1{fill:#948E26;}
	.st2{fill:#E0D72F;}
</style>
<path class="st0" d="M178.2,376.5l-42.7-42.7c-2.2-2.2-5.3-3.4-8.4-3.1c-3.1,0.2-5.9,1.8-7.8,4.3L2.1,495
	c-3.5,4.7-2.6,11.4,2.1,14.9c3.8,2.8,9,2.8,12.8,0l160-117.3c4.8-3.5,5.8-10.2,2.3-14.9C179.1,377.2,178.7,376.8,178.2,376.5
	L178.2,376.5z"/>
<path class="st1" d="M316.9,301.8L210.2,195.1c-17.9-14-40.3-21-63-19.9c-29.7-1-58.6,10-80.1,30.6c-17.3,17.3-15.5,44.1,5.3,79.6
	c19.7,30.9,43,59.4,69.3,84.8c42.4,42.4,96,86.5,135,86.5c11,0.3,21.6-4,29.4-11.8C350.6,400.5,339.6,324.5,316.9,301.8z"/>
<path class="st2" d="M402.2,216.5L295.6,109.8c-4.2-4.2-10.9-4.2-15.1,0l-85.3,85.3c-14,14-12.8,44.8,32,89.7
	c29.2,29.2,52.6,39.9,69.1,39.9c7.7,0.3,15.1-2.6,20.6-7.9l85.3-85.3C406.4,227.4,406.4,220.6,402.2,216.5z"/>
<path class="st1" d="M511.2,187.9c-1.6-4-5.5-6.6-9.9-6.6c-23.1,0-73.9-25-109.8-60.9s-60.9-86.6-60.9-109.8
	C330.7,4.8,325.9,0,320,0c-2.8,0-5.6,1.1-7.6,3.1c-43.6,43.6-57.2,117.9,10.7,185.7c25.8,28.7,62.1,45.7,100.7,47.1
	c32.1-0.4,62.7-13.5,85.1-36.5C511.9,196.5,512.8,191.9,511.2,187.9z"/>
<path class="st2" d="M444.9,67.1C399.7,22,358.9,0,320,0c-5.9,0-10.7,4.8-10.7,10.7c0,31.9,30.1,87.9,67.1,124.9
	s93.1,67.1,124.9,67.1c5.9,0,10.7-4.8,10.7-10.7C512,153.2,490.1,112.3,444.9,67.1z"/>
</svg>
