<svg width="512" height="512" viewBox="0 0 512 512" fill="none" xmlns="http://www.w3.org/2000/svg">
<g clip-path="url(#clip0)">
<path d="M466.006 103.91C466.006 82.8078 450.57 65.2439 430.397 61.9169C424.942 41.6239 406.579 26.5829 385.084 25.8109C373.081 9.54598 354.32 0 333.822 0C307.272 0 283.926 16.245 274.458 40.3959C253.646 41.0489 236.094 54.8259 229.8 73.7059C190.298 79.2678 153.894 98.3818 126.716 127.987C97.848 159.433 81.95 200.015 81.95 242.257C81.95 252.639 72.705 271.718 57.2211 293.292C42.8171 313.362 44.8811 327.489 49.1491 335.807C53.6491 344.575 64.7841 354.854 92.074 356.87V400.624C92.074 430.218 116.367 454.294 146.227 454.294C172.329 454.294 186.702 455.262 192.825 460.554C198.821 465.735 200.712 478.797 202.276 502.657C202.621 507.915 206.985 512.003 212.255 512.003H355.649C358.415 512.003 361.057 510.857 362.948 508.839C364.839 506.821 365.808 504.109 365.628 501.349C364.36 482.019 363.833 467.771 363.918 455.152C363.955 449.629 359.508 445.122 353.985 445.085C353.962 445.085 353.939 445.085 353.917 445.085C348.425 445.085 343.956 449.519 343.919 455.018C343.848 465.672 344.19 477.366 345.019 492.004H221.564C219.822 470.245 216.883 454.912 205.902 445.423C193.893 435.045 175.346 434.296 146.227 434.296C127.395 434.296 112.074 419.192 112.074 400.626V387.227C118.242 387.227 127.822 390.545 137.074 395.887C138.649 396.796 140.368 397.229 142.065 397.229C145.521 397.229 148.882 395.435 150.734 392.227C153.496 387.444 151.857 381.328 147.074 378.567C139.739 374.332 125.437 367.227 112.074 367.227V347.225C112.074 341.703 107.597 337.225 102.074 337.225C83.465 337.225 70.332 333.283 66.9431 326.678C64.5421 321.998 66.9211 314.081 73.469 304.957C86.462 286.853 101.949 261.281 101.949 242.26C101.949 176.051 145.045 119.371 206.324 99.5298C204.578 103.599 203.606 108.075 203.606 112.776C203.606 131.358 218.724 146.475 237.306 146.475H270.497L257.458 201.099C256.793 203.884 257.354 206.822 259 209.165C260.646 211.51 263.217 213.035 266.063 213.356L281.899 215.144L271.655 263.54C270.703 268.04 272.942 272.609 277.083 274.613C278.476 275.287 279.962 275.612 281.435 275.612C284.338 275.611 287.185 274.346 289.134 271.998L356.703 190.584C358.919 187.914 359.593 184.285 358.482 180.998C357.372 177.71 354.636 175.233 351.256 174.453L334.589 170.607L344.332 146.473H370.841C393.544 173.458 406.004 207.299 406.004 242.259C406.004 269.804 398.3 296.792 383.724 320.304C374.337 335.444 366.986 349.489 361.246 363.24C359.119 368.337 361.526 374.193 366.623 376.32C367.882 376.845 369.186 377.094 370.471 377.094C374.385 377.094 378.102 374.781 379.703 370.943C385.027 358.185 391.903 345.068 400.722 330.842C417.262 304.162 426.004 273.531 426.004 242.259C426.004 207.964 415.451 174.637 395.976 146.473H423.444C446.914 146.471 466.006 127.378 466.006 103.91V103.91ZM223.607 112.771C223.607 105.217 229.753 99.0718 237.307 99.0718C242.83 99.0718 247.307 94.5938 247.307 89.0718C247.307 73.2469 260.182 60.3719 276.007 60.3719C277.395 60.3719 278.802 60.4739 280.19 60.6749C285.277 61.4139 290.09 58.1749 291.329 53.1889C296.182 33.6469 313.656 20 333.822 20C349.266 20 363.275 27.8959 371.295 41.1229C373.274 44.3869 376.93 46.2439 380.739 45.8979C381.62 45.8189 382.498 45.7789 383.347 45.7789C398.204 45.7789 410.769 57.3609 411.952 72.1469C412.367 77.3428 416.706 81.3488 421.92 81.3488H423.445C435.884 81.3488 446.006 91.4698 446.006 103.91C446.006 116.35 435.885 126.471 423.445 126.471H237.306C229.753 126.471 223.607 120.325 223.607 112.771V112.771ZM312.066 182.336C313.418 184.931 315.837 186.803 318.687 187.461L330.954 190.291L299.609 228.059L303.747 208.511C304.331 205.752 303.724 202.876 302.074 200.589C300.425 198.303 297.887 196.818 295.086 196.503L279.537 194.747L291.06 146.471H322.765L311.662 173.974C310.567 176.686 310.714 179.742 312.066 182.336V182.336Z" fill="white"/>
<path d="M134.581 255.147C129.058 255.147 124.584 259.625 124.584 265.147C124.584 270.669 129.065 275.147 134.588 275.147C140.111 275.147 144.588 270.669 144.588 265.147C144.588 259.625 140.111 255.147 134.588 255.147H134.581Z" fill="white"/>
<path d="M357.677 400.239H357.67C352.148 400.239 347.674 404.717 347.674 410.239C347.674 415.761 352.154 420.239 357.677 420.239C363.2 420.239 367.677 415.761 367.677 410.239C367.677 404.717 363.2 400.239 357.677 400.239Z" fill="white"/>
<path d="M172.16 230.146C172.16 224.624 167.683 220.146 162.16 220.146C158.348 220.146 153.572 218.107 148.515 215.949C142.142 213.229 134.92 210.146 127.017 210.146C121.494 210.146 117.017 214.624 117.017 220.146C117.017 225.668 121.494 230.146 127.017 230.146C130.83 230.146 135.606 232.185 140.663 234.343C147.035 237.063 154.258 240.146 162.16 240.146C167.683 240.146 172.16 235.668 172.16 230.146V230.146Z" fill="white"/>
</g>
<defs>
<clipPath id="clip0">
<rect width="512" height="512" fill="white"/>
</clipPath>
</defs>
</svg>
