<svg width="25" height="25" viewBox="0 0 25 25" fill="none" xmlns="http://www.w3.org/2000/svg">
<path d="M12.4984 0.260193C5.59688 0.260193 0 5.87894 0 12.8102C0 18.3539 3.58125 23.0571 8.55 24.718C9.175 24.8336 9.40312 24.4461 9.40312 24.1133C9.40312 23.8149 9.39219 23.0258 9.38594 21.9789C5.90938 22.7368 5.175 20.2961 5.175 20.2961C4.60781 18.8461 3.7875 18.4602 3.7875 18.4602C2.65156 17.6821 3.87187 17.6977 3.87187 17.6977C5.12656 17.7868 5.78594 18.9914 5.78594 18.9914C6.90156 20.9086 8.7125 20.3555 9.425 20.0336C9.5375 19.2227 9.86094 18.6696 10.2188 18.3555C7.44375 18.0383 4.525 16.9618 4.525 12.1539C4.525 10.7836 5.0125 9.66332 5.8125 8.78519C5.68281 8.46801 5.25469 7.19144 5.93438 5.46488C5.93438 5.46488 6.98438 5.12738 9.37187 6.75082C10.3688 6.47269 11.4375 6.33363 12.5016 6.32894C13.5625 6.33519 14.6328 6.47269 15.6312 6.75238C18.0172 5.12894 19.0656 5.46644 19.0656 5.46644C19.7469 7.19457 19.3187 8.46957 19.1906 8.78676C19.9922 9.66488 20.475 10.7852 20.475 12.1555C20.475 16.9758 17.5531 18.0368 14.7687 18.3477C15.2172 18.7352 15.6172 19.5008 15.6172 20.6711C15.6172 22.3493 15.6016 23.7024 15.6016 24.1133C15.6016 24.4493 15.8266 24.8399 16.4609 24.7164C21.4219 23.0539 25 18.3524 25 12.8102C25 5.87894 19.4031 0.260193 12.4984 0.260193Z" fill="white"/>
</svg>
