<svg width="100" height="100" viewBox="0 0 100 100" fill="none" xmlns="http://www.w3.org/2000/svg">
<path d="M49.9938 1.04077C22.3875 1.04077 0 23.5158 0 51.2408C0 73.4158 14.325 92.2283 34.2 98.872C36.7 99.3345 37.6125 97.7845 37.6125 96.4533C37.6125 95.2595 37.5687 92.1033 37.5438 87.9158C23.6375 90.947 20.7 81.1845 20.7 81.1845C18.4312 75.3845 15.15 73.8408 15.15 73.8408C10.6062 70.7283 15.4875 70.7908 15.4875 70.7908C20.5062 71.147 23.1438 75.9658 23.1438 75.9658C27.6063 83.6345 34.85 81.422 37.7 80.1345C38.15 76.8908 39.4437 74.6783 40.875 73.422C29.775 72.1533 18.1 67.847 18.1 48.6158C18.1 43.1345 20.05 38.6533 23.25 35.1408C22.7313 33.872 21.0188 28.7658 23.7375 21.8595C23.7375 21.8595 27.9375 20.5095 37.4875 27.0033C41.475 25.8908 45.75 25.3345 50.0063 25.3158C54.25 25.3408 58.5312 25.8908 62.525 27.0095C72.0687 20.5158 76.2625 21.8658 76.2625 21.8658C78.9875 28.7783 77.275 33.8783 76.7625 35.147C79.9688 38.6595 81.9 43.1408 81.9 48.622C81.9 67.9033 70.2125 72.147 59.075 73.3908C60.8687 74.9408 62.4688 78.0033 62.4688 82.6845C62.4688 89.397 62.4062 94.8095 62.4062 96.4533C62.4062 97.797 63.3062 99.3595 65.8438 98.8658C85.6875 92.2158 100 73.4095 100 51.2408C100 23.5158 77.6125 1.04077 49.9938 1.04077Z" fill="black"/>
</svg>
