<svg width="512" height="512" viewBox="0 0 512 512" fill="none" xmlns="http://www.w3.org/2000/svg">
<path d="M211.578 260.716C209.68 259.767 207.484 259.611 205.471 260.282C203.458 260.953 201.794 262.395 200.845 264.293L199.782 266.419C197.742 270.5 194.605 273.933 190.723 276.332C186.842 278.73 182.369 280.001 177.806 280.001C173.244 280.001 168.771 278.73 164.89 276.332C161.008 273.933 157.871 270.5 155.831 266.419L154.769 264.294C153.82 262.396 152.156 260.953 150.143 260.282C148.13 259.611 145.933 259.768 144.036 260.717C142.138 261.665 140.695 263.329 140.024 265.342C139.353 267.355 139.509 269.552 140.458 271.45L141.521 273.574C144.89 280.313 150.07 285.98 156.479 289.941C162.888 293.902 170.273 296 177.807 296C185.341 296 192.726 293.902 199.135 289.941C205.544 285.98 210.724 280.313 214.093 273.574L215.155 271.449C216.104 269.551 216.26 267.355 215.589 265.342C214.918 263.329 213.476 261.665 211.578 260.716Z" fill="white"/>
<path d="M453.351 193.683C450.457 186.209 445.392 179.772 438.809 175.2C438.708 174.909 438.591 174.624 438.458 174.346C432.619 162.31 424.319 151.633 414.094 143.007C403.869 134.38 391.947 127.996 379.1 124.267C386.366 112.405 397.321 103.253 410.287 98.215C412.688 103.316 416.808 107.409 421.924 109.777C427.041 112.144 432.828 112.634 438.27 111.162C443.712 109.69 448.462 106.348 451.687 101.724C454.913 97.1 456.407 91.488 455.908 85.8723C455.409 80.2566 452.95 74.9956 448.96 71.012C444.971 67.0284 439.706 64.5764 434.09 64.0859C428.473 63.5955 422.864 65.098 418.244 68.3298C413.625 71.5617 410.29 76.3167 408.826 81.761C388.825 88.2284 372.195 102.347 362.568 121.033C343.313 118.995 323.893 122.859 306.884 132.111C289.875 141.363 276.08 155.567 267.329 172.839L264.329 157.139L283.153 139.47C284.26 138.431 285.049 137.098 285.427 135.627C285.805 134.157 285.756 132.609 285.287 131.164C284.818 129.72 283.947 128.439 282.777 127.471C281.607 126.504 280.186 125.889 278.679 125.699L270 124.605V86.147C276.108 83.807 281.204 79.4023 284.404 73.6974C287.604 67.9924 288.706 61.3472 287.518 54.9149C286.33 48.4826 282.927 42.6691 277.901 38.4834C272.874 34.2977 266.541 32.0039 260 32H259.7C256.894 27.1365 252.856 23.0977 247.994 20.2896C243.131 17.4815 237.615 16.0032 232 16.0032C226.385 16.0032 220.869 17.4815 216.006 20.2896C211.144 23.0977 207.106 27.1365 204.3 32H204C196.924 32.0049 190.113 34.6884 184.935 39.5109C179.758 44.3334 176.598 50.9373 176.091 57.9947C175.585 65.0522 177.768 72.0397 182.204 77.5525C186.639 83.0652 192.998 86.6943 200 87.71V124.565L191 125.7C189.493 125.89 188.072 126.504 186.901 127.472C185.731 128.44 184.86 129.721 184.391 131.165C183.922 132.609 183.873 134.157 184.251 135.628C184.629 137.099 185.418 138.432 186.525 139.471L205.35 157.14L200.505 182.5C200.22 183.992 200.365 185.533 200.924 186.945C201.483 188.357 202.432 189.581 203.66 190.474C204.889 191.366 206.346 191.891 207.862 191.986C209.377 192.081 210.888 191.743 212.219 191.011L234.841 178.567L257.462 191.011C258.28 191.455 259.171 191.751 260.092 191.887C258.715 197.169 257.795 202.56 257.344 208H123.506C121.585 208 119.727 208.692 118.274 209.948C116.82 211.205 115.868 212.943 115.59 214.844L112.364 236.927L73.4899 291.351C72.3452 292.954 71.8319 294.923 72.0485 296.88C72.2652 298.838 73.1964 300.647 74.6639 301.961L104 328.222V440C104 441.969 104.726 443.868 106.039 445.335C107.352 446.802 109.159 447.733 111.116 447.951L176 455.16V488C176 490.122 176.843 492.157 178.343 493.657C179.843 495.157 181.878 496 184 496H360C362.122 496 364.157 495.157 365.657 493.657C367.157 492.157 368 490.122 368 488V417L377.714 378.812C387.929 338.726 391.69 297.269 388.857 256H448.667C456.57 255.998 464.18 253.011 469.974 247.635C475.767 242.26 479.315 234.894 479.908 227.014C480.5 219.133 478.093 211.319 473.168 205.139C468.243 198.958 461.165 194.866 453.351 193.683V193.683ZM254 88V122.587L253.067 122.47L242.08 99.107C241.434 97.7332 240.41 96.5716 239.128 95.758C237.846 94.9444 236.359 94.5124 234.841 94.5124C233.323 94.5124 231.836 94.9444 230.554 95.758C229.272 96.5716 228.248 97.7332 227.602 99.107L216.614 122.47L216 122.547V88H254ZM192 60C192.003 56.8184 193.269 53.7682 195.518 51.5185C197.768 49.2688 200.818 48.0034 204 48H209.381C211.035 48 212.648 47.4872 213.999 46.5324C215.35 45.5775 216.371 44.2274 216.923 42.668C218.024 39.5485 220.065 36.8473 222.765 34.9366C225.465 33.0258 228.692 31.9998 232 31.9998C235.308 31.9998 238.534 33.0258 241.235 34.9366C243.935 36.8473 245.976 39.5485 247.077 42.668C247.629 44.2274 248.65 45.5775 250.001 46.5324C251.351 47.4872 252.965 48 254.619 48H260C263.183 48 266.235 49.2643 268.485 51.5147C270.736 53.7651 272 56.8174 272 60C272 63.1826 270.736 66.2348 268.485 68.4853C266.235 70.7357 263.183 72 260 72H204C200.818 71.9965 197.768 70.7312 195.518 68.4815C193.269 66.2318 192.003 63.1815 192 60V60ZM250.174 148.485C249.191 149.408 248.457 150.564 248.04 151.846C247.624 153.128 247.538 154.495 247.791 155.819L250.269 168.792L238.7 162.427C237.519 161.777 236.193 161.437 234.844 161.437C233.496 161.437 232.17 161.777 230.989 162.427L219.416 168.792L221.895 155.819C222.147 154.495 222.061 153.128 221.645 151.846C221.228 150.564 220.495 149.408 219.512 148.485L209.882 139.446L222.982 137.794C224.32 137.625 225.593 137.121 226.684 136.329C227.774 135.536 228.647 134.481 229.221 133.261L234.842 121.31L240.463 133.261C241.037 134.481 241.909 135.536 243 136.329C244.09 137.121 245.363 137.625 246.701 137.794L259.801 139.446L250.174 148.485ZM432 80C433.582 80 435.129 80.4692 436.444 81.3482C437.76 82.2273 438.785 83.4767 439.391 84.9385C439.996 86.4003 440.155 88.0089 439.846 89.5607C439.538 91.1126 438.776 92.538 437.657 93.6568C436.538 94.7757 435.113 95.5376 433.561 95.8463C432.009 96.1549 430.4 95.9965 428.938 95.391C427.477 94.7855 426.227 93.7601 425.348 92.4445C424.469 91.129 424 89.5822 424 88C424.002 85.879 424.846 83.8455 426.346 82.3458C427.845 80.846 429.879 80.0024 432 80ZM352.5 136.5C364.794 136.446 376.93 139.265 387.941 144.735C398.952 150.204 408.531 158.171 415.916 168C410.011 168.015 404.184 169.347 398.859 171.9C390.516 163.121 379.853 156.89 368.109 153.933C356.365 150.976 344.022 151.413 332.517 155.195C321.012 158.976 310.816 165.946 303.116 175.294C295.416 184.642 290.529 195.983 289.021 208H273.408C275.414 188.41 284.609 170.259 299.216 157.054C313.824 143.848 332.808 136.525 352.5 136.5ZM356.815 208H338.665C339.745 206.123 341.196 204.485 342.929 203.187C344.662 201.888 346.641 200.956 348.746 200.446C350.85 199.937 353.037 199.861 355.172 200.223C357.307 200.586 359.346 201.379 361.165 202.554C359.519 204.203 358.061 206.03 356.818 208H356.815ZM378.646 193.683C377.726 193.821 376.819 194 375.925 194.219C372.018 190.013 367.052 186.936 361.546 185.311C356.041 183.686 350.2 183.572 344.635 184.981C339.071 186.391 333.988 189.271 329.92 193.322C325.853 197.372 322.95 202.442 321.516 208H305.182C306.639 199.366 310.43 191.295 316.146 184.662C321.861 178.029 329.283 173.086 337.607 170.369C345.93 167.652 354.839 167.264 363.367 169.248C371.896 171.231 379.719 175.51 385.989 181.622C382.844 185.173 380.358 189.258 378.649 193.683H378.646ZM362.208 374.87L352.247 414.027C352.083 414.672 352 415.335 352 416V480H192V448C192 446.031 191.274 444.132 189.961 442.665C188.648 441.198 186.841 440.267 184.884 440.049L120 432.84V370.064H136.218C141.783 370.079 147.297 368.99 152.439 366.861C157.581 364.731 162.249 361.603 166.174 357.657C167.674 356.157 168.517 354.121 168.517 352C168.517 349.878 167.674 347.843 166.173 346.342C164.673 344.842 162.638 343.999 160.516 343.999C158.394 344 156.359 344.842 154.859 346.343C152.417 348.799 149.512 350.745 146.312 352.071C143.112 353.396 139.681 354.074 136.218 354.064H120V324.646C120 323.521 119.763 322.408 119.304 321.381C118.845 320.354 118.174 319.435 117.336 318.685L90.6749 294.818L126.51 244.649C127.25 243.613 127.732 242.416 127.916 241.156L130.422 224H352.015C352.015 224.222 352 224.443 352 224.666C352.008 231.104 353.995 237.384 357.692 242.654C361.389 247.925 366.618 251.931 372.669 254.129C375.779 294.677 372.245 335.461 362.208 374.87V374.87ZM448.667 240H383.333C379.288 239.967 375.419 238.337 372.57 235.465C369.721 232.593 368.123 228.712 368.123 224.666C368.123 220.621 369.721 216.74 372.57 213.868C375.419 210.996 379.288 209.366 383.333 209.333H384.7C386.534 209.333 388.311 208.703 389.736 207.549C391.161 206.394 392.146 204.786 392.526 202.992C393.671 197.615 396.626 192.794 400.899 189.335C405.172 185.876 410.503 183.989 416 183.989C421.497 183.989 426.828 185.876 431.101 189.335C435.374 192.794 438.329 197.615 439.474 202.992C439.854 204.786 440.839 206.394 442.264 207.549C443.688 208.703 445.466 209.333 447.3 209.333H448.667C452.712 209.366 456.581 210.996 459.43 213.868C462.279 216.74 463.877 220.621 463.877 224.666C463.877 228.712 462.279 232.593 459.43 235.465C456.581 238.337 452.712 239.967 448.667 240V240Z" fill="white"/>
<path d="M312 104C314.122 104 316.157 103.157 317.657 101.657C319.157 100.157 320 98.1218 320 96V94.627C319.973 84.0652 323.561 73.812 330.167 65.571C335.332 69.8398 341.857 72.1153 348.557 71.9847C355.256 71.854 361.687 69.3258 366.682 64.8589C371.677 60.3919 374.905 54.2823 375.78 47.6387C376.656 40.9952 375.12 34.2579 371.453 28.6497C367.785 23.0415 362.229 18.9339 355.791 17.0724C349.354 15.2109 342.463 15.7189 336.368 18.5042C330.273 21.2894 325.379 26.1673 322.574 32.2527C319.768 38.3381 319.237 45.2276 321.077 51.671C310.076 63.2631 303.961 78.6459 304 94.627V96C304 98.1218 304.843 100.157 306.343 101.657C307.843 103.157 309.878 104 312 104ZM348 32C350.373 32 352.693 32.7038 354.667 34.0224C356.64 35.341 358.178 37.2151 359.086 39.4078C359.995 41.6005 360.232 44.0133 359.769 46.3411C359.306 48.6689 358.163 50.8071 356.485 52.4853C354.807 54.1635 352.669 55.3064 350.341 55.7695C348.013 56.2325 345.6 55.9948 343.408 55.0866C341.215 54.1783 339.341 52.6403 338.022 50.6669C336.704 48.6935 336 46.3734 336 44C336.003 40.8185 337.269 37.7682 339.518 35.5186C341.768 33.2689 344.818 32.0035 348 32V32Z" fill="white"/>
<path d="M136 120C139.355 120.002 142.673 119.296 145.737 117.928C154.964 130.015 159.974 144.794 160 160C160 162.122 160.843 164.157 162.343 165.657C163.844 167.157 165.878 168 168 168C170.122 168 172.157 167.157 173.657 165.657C175.157 164.157 176 162.122 176 160C175.974 140.772 169.474 122.112 157.548 107.029C157.499 106.968 157.448 106.914 157.394 106.854C159.757 102.193 160.533 96.8872 159.604 91.7443C158.676 86.6014 156.093 81.9023 152.25 78.3612C148.406 74.8202 143.512 72.631 138.31 72.1262C133.109 71.6215 127.884 72.8289 123.432 75.5649C118.979 78.3009 115.542 82.4159 113.642 87.2843C111.742 92.1527 111.483 97.5084 112.906 102.537C114.328 107.566 117.353 111.993 121.522 115.145C125.69 118.297 130.774 120.002 136 120V120ZM136 88.0001C137.582 88.0001 139.129 88.4693 140.445 89.3483C141.76 90.2274 142.786 91.4768 143.391 92.9386C143.997 94.4004 144.155 96.0089 143.846 97.5608C143.538 99.1126 142.776 100.538 141.657 101.657C140.538 102.776 139.113 103.538 137.561 103.846C136.009 104.155 134.4 103.997 132.939 103.391C131.477 102.786 130.227 101.76 129.348 100.445C128.469 99.129 128 97.5823 128 96.0001C128.002 93.8791 128.846 91.8456 130.346 90.3458C131.846 88.8461 133.879 88.0024 136 88.0001V88.0001Z" fill="white"/>
<path d="M111.085 171.1C116.399 172.087 121.461 174.13 125.971 177.108C130.481 180.085 134.349 183.937 137.344 188.436C138.526 190.189 140.354 191.402 142.429 191.811C144.503 192.22 146.655 191.792 148.414 190.619C150.174 189.446 151.397 187.624 151.817 185.552C152.237 183.48 151.82 181.325 150.656 179.56C146.14 172.778 140.207 167.055 133.266 162.786C126.325 158.517 118.541 155.803 110.451 154.831C108.251 148.492 103.846 143.154 98.0401 139.79C92.2339 136.426 85.4123 135.259 78.8183 136.504C72.2243 137.748 66.2967 141.32 62.1157 146.568C57.9346 151.817 55.7783 158.393 56.0396 165.098C56.3009 171.804 58.9624 178.192 63.5393 183.099C68.1161 188.006 74.3037 191.106 80.9745 191.833C87.6453 192.561 94.3555 190.867 99.8823 187.062C105.409 183.256 109.385 177.591 111.085 171.1V171.1ZM72 164C72 161.627 72.7038 159.307 74.0224 157.333C75.341 155.36 77.2151 153.822 79.4078 152.914C81.6005 152.005 84.0133 151.768 86.3411 152.231C88.6689 152.694 90.8071 153.837 92.4853 155.515C94.1635 157.193 95.3064 159.331 95.7695 161.659C96.2325 163.987 95.9948 166.4 95.0866 168.592C94.1783 170.785 92.6403 172.659 90.6669 173.978C88.6935 175.296 86.3734 176 84 176C80.8185 175.997 77.7682 174.731 75.5186 172.482C73.2689 170.232 72.0035 167.182 72 164V164Z" fill="white"/>
<path d="M71.943 100.734C72.0674 99.6906 71.985 98.6328 71.7005 97.6212C71.416 96.6097 70.9349 95.664 70.2849 94.8384C69.6349 94.0127 68.8285 93.3232 67.9119 92.8093C66.9953 92.2953 65.9865 91.967 64.943 91.843C52.763 90.3998 40.4154 92.0254 29.024 96.572C28.0485 96.9622 27.1595 97.5407 26.4076 98.2744C25.6557 99.0082 25.0557 99.8828 24.6418 100.848C24.2279 101.814 24.0083 102.852 23.9955 103.902C23.9826 104.953 24.1768 105.996 24.567 106.971C24.9572 107.946 25.5356 108.836 26.2694 109.587C27.0031 110.339 27.8778 110.939 28.8434 111.353C29.8091 111.767 30.8468 111.987 31.8973 112C32.9478 112.012 33.9905 111.818 34.966 111.428C43.8717 107.874 53.5246 106.602 63.047 107.728C64.0907 107.855 65.1492 107.775 66.1617 107.492C67.1743 107.209 68.121 106.728 68.9475 106.079C69.7741 105.429 70.4642 104.622 70.9782 103.705C71.4922 102.788 71.8201 101.778 71.943 100.734Z" fill="white"/>
<path d="M90.1999 118.448C92.5404 120.169 94.7467 122.065 96.7999 124.12L98.3369 125.657C99.8373 127.157 101.872 128 103.994 128C106.116 128 108.151 127.157 109.651 125.657C111.151 124.157 111.994 122.122 111.994 120C111.994 117.878 111.151 115.843 109.651 114.343L108.114 112.806C105.486 110.178 102.662 107.753 99.6669 105.552C97.9563 104.296 95.8168 103.771 93.7191 104.093C91.6214 104.414 89.7374 105.556 88.4814 107.266C87.2255 108.977 86.7006 111.117 87.0221 113.214C87.3436 115.312 88.4853 117.196 90.1959 118.452L90.1999 118.448Z" fill="white"/>
</svg>
