<svg width="25" height="25" viewBox="0 0 25 25" fill="none" xmlns="http://www.w3.org/2000/svg">
<path d="M18.1008 0H6.89895C3.09487 0 0 3.09502 0 6.8991V18.1009C0 21.9051 3.09487 25 6.89895 25H18.1008C21.9051 25 25 21.905 25 18.1009V6.8991C25.0001 3.09502 21.9051 0 18.1008 0ZM22.782 18.1009C22.782 20.6821 20.6821 22.7819 18.1009 22.7819H6.89895C4.31794 22.782 2.21812 20.6821 2.21812 18.1009V6.8991C2.21812 4.31809 4.31794 2.21812 6.89895 2.21812H18.1008C20.6819 2.21812 22.7819 4.31809 22.7819 6.8991V18.1009H22.782Z" fill="white"/>
<path d="M12.5 6.05841C8.94787 6.05841 6.05811 8.94818 6.05811 12.5003C6.05811 16.0522 8.94787 18.9418 12.5 18.9418C16.0521 18.9418 18.9418 16.0522 18.9418 12.5003C18.9418 8.94818 16.0521 6.05841 12.5 6.05841ZM12.5 16.7236C10.1711 16.7236 8.27623 14.829 8.27623 12.5001C8.27623 10.1711 10.1709 8.27638 12.5 8.27638C14.829 8.27638 16.7237 10.1711 16.7237 12.5001C16.7237 14.829 14.8289 16.7236 12.5 16.7236Z" fill="white"/>
<path d="M19.2119 4.17761C18.7846 4.17761 18.3648 4.35063 18.063 4.65377C17.7597 4.95543 17.5853 5.3754 17.5853 5.80423C17.5853 6.23174 17.7598 6.65156 18.063 6.9547C18.3646 7.25636 18.7846 7.43086 19.2119 7.43086C19.6408 7.43086 20.0593 7.25636 20.3624 6.9547C20.6656 6.65156 20.8386 6.23159 20.8386 5.80423C20.8386 5.3754 20.6656 4.95543 20.3624 4.65377C20.0608 4.35063 19.6408 4.17761 19.2119 4.17761Z" fill="white"/>
</svg>
