<svg width="512" height="512" viewBox="0 0 512 512" fill="none" xmlns="http://www.w3.org/2000/svg">
<g clip-path="url(#clip0)">
<path d="M108.744 182.455H93.1839C89.0419 182.455 85.6839 185.813 85.6839 189.955C85.6839 194.097 89.0419 197.455 93.1839 197.455H101.056C100.18 201.784 96.3449 205.053 91.7609 205.053C86.5319 205.053 82.2779 200.799 82.2779 195.57V179.336C82.2779 174.107 86.5319 169.853 91.7609 169.853C95.2889 169.853 98.5059 171.794 100.156 174.918C102.09 178.581 106.627 179.981 110.29 178.048C113.953 176.114 115.354 171.576 113.42 167.914C109.166 159.857 100.866 154.852 91.7599 154.852C78.2599 154.852 67.2769 165.835 67.2769 179.335V195.569C67.2769 209.069 78.2599 220.052 91.7599 220.052C105.26 220.052 116.243 209.069 116.243 195.569V189.955C116.244 185.813 112.886 182.455 108.744 182.455V182.455Z" fill="white"/>
<path d="M146.247 154.851C132.747 154.851 121.764 165.834 121.764 179.334V195.568C121.764 209.068 132.747 220.051 146.247 220.051C159.747 220.051 170.73 209.068 170.73 195.568V179.334C170.73 165.834 159.747 154.851 146.247 154.851ZM155.73 195.569C155.73 200.798 151.476 205.052 146.247 205.052C141.018 205.052 136.764 200.798 136.764 195.569V179.335C136.764 174.106 141.018 169.852 146.247 169.852C151.476 169.852 155.73 174.106 155.73 179.335V195.569Z" fill="white"/>
<path d="M502.994 502.769L479.107 402.07C475.593 387.256 468.589 373.224 458.854 361.489C456.209 358.301 451.48 357.861 448.293 360.506C445.105 363.151 444.665 367.879 447.31 371.067C455.58 381.034 461.528 392.952 464.512 405.531L488.4 506.231C489.218 509.68 492.295 512.002 495.691 512.002C496.264 512.002 496.847 511.936 497.428 511.798C501.458 510.841 503.95 506.799 502.994 502.769V502.769Z" fill="white"/>
<path d="M419.117 417.515C414.975 417.515 411.617 420.873 411.617 425.015V504.5C411.617 508.642 414.975 512 419.117 512C423.259 512 426.617 508.642 426.617 504.5V425.015C426.617 420.873 423.259 417.515 419.117 417.515Z" fill="white"/>
<path d="M380.888 24.476C379.327 21.945 377.441 19.503 375.146 17.205C363.582 5.62799 344.254 0 316.057 0C238.315 0 204.727 45.7189 191.624 72.9709C188.668 79.1188 188.852 86.3668 192.114 92.3578C192.483 93.0358 192.888 93.6828 193.319 94.3068C193.256 95.6248 193.118 97.9308 193.107 99.4038L173.783 104.867L167.777 81.1858C166.476 76.0558 162.493 72.0189 157.382 70.6519C152.279 69.2859 146.815 70.7919 143.132 74.5789L126.097 92.0848L109.064 74.5809C105.379 70.7909 99.9187 69.2869 94.8118 70.6519C89.7018 72.0189 85.7188 76.0558 84.4168 81.1858L78.4118 104.866L54.9048 98.2208C49.8128 96.7838 44.3259 98.2188 40.5869 101.965C36.8529 105.707 35.4299 111.188 36.8699 116.256L43.5069 139.771L19.8199 145.771C14.6959 147.073 10.6649 151.056 9.29892 156.164C7.93392 161.27 9.43992 166.732 13.2269 170.415L30.7349 187.451L13.2289 204.493C9.43992 208.178 7.93392 213.637 9.29892 218.74C10.6639 223.846 14.6959 227.827 19.8239 229.13L43.5069 235.136L36.8729 258.633C35.4289 263.725 36.8559 269.212 40.5989 272.953C44.3419 276.695 49.8288 278.119 54.9068 276.677L78.4128 270.04L84.4198 293.727C85.7228 298.851 89.7048 302.883 94.8138 304.248C96.0598 304.581 97.3248 304.743 98.5817 304.743C102.478 304.743 106.28 303.183 109.064 300.32L126.099 282.814L143.132 300.318C146.816 304.108 152.278 305.614 157.384 304.248C162.492 302.883 166.475 298.851 167.779 293.723L173.785 270.04L197.283 276.674C202.379 278.121 207.863 276.692 211.602 272.952C215.342 269.212 216.769 263.725 215.327 258.641L208.69 235.136L223.82 231.298C224.897 234.586 226.125 237.928 227.526 241.276C238.15 266.658 255.052 283.76 277.205 291.898C277.004 294.009 276.557 296.093 275.875 298.095L268.062 297.28C260.117 296.445 252.282 299.162 246.557 304.734C241.523 309.633 234.701 317.704 228.787 329.588C225.74 327.759 222.254 326.607 218.515 326.362C215.615 326.161 212.762 326.495 210.053 327.331C205.695 323.601 200.114 321.486 194.246 321.486C191.001 321.486 187.79 322.148 184.818 323.401C180.59 320.263 175.45 318.539 170.039 318.539C165.257 318.539 160.618 319.923 156.653 322.454C152.806 320.407 148.474 319.383 143.999 319.516C130.422 319.925 119.377 331.515 119.377 345.351V347.304L102.863 363.818C95.2738 371.419 91.0028 381.287 90.8358 391.601C90.6548 402.423 94.7728 412.608 102.436 420.282L133.51 451.356V504.499C133.51 508.641 136.868 511.999 141.01 511.999C145.152 511.999 148.51 508.641 148.51 504.499V448.25C148.51 446.261 147.72 444.353 146.313 442.947L113.046 409.68C108.283 404.909 105.721 398.578 105.834 391.848C105.938 385.44 108.652 379.25 113.474 374.421L119.376 368.519V389.717C119.376 393.859 122.734 397.217 126.876 397.217C131.018 397.217 134.376 393.859 134.376 389.717V350.431C134.376 350.424 134.377 345.352 134.377 345.352C134.377 339.541 138.896 334.677 144.446 334.51C147.218 334.437 149.865 335.433 151.884 337.342C153.358 338.735 155.327 339.467 157.36 339.383C159.386 339.295 161.29 338.39 162.638 336.875C164.523 334.755 167.221 333.54 170.038 333.54C173.084 333.54 175.917 334.924 177.812 337.338C179.049 338.914 180.866 339.929 182.856 340.158C184.847 340.387 186.845 339.809 188.408 338.554C189.582 337.611 191.547 336.487 194.244 336.487C197.341 336.487 200.237 338.034 201.99 340.627C204.291 344.032 208.905 344.949 212.334 342.686C213.405 341.979 215.168 341.175 217.513 341.33C221.898 341.617 225.332 345.465 225.332 350.091V401.683C225.332 405.286 224.007 408.739 221.591 411.415L208.9 425.52C207.661 426.897 206.976 428.684 206.976 430.536V448.304C206.976 452.446 210.334 455.804 214.476 455.804C218.618 455.804 221.976 452.446 221.976 448.304V433.414L232.733 421.456C237.633 416.027 240.332 409.004 240.332 401.682V375.012C253.811 368.877 265.427 366.781 273.18 368.995V504.499C273.18 508.641 276.538 511.999 280.68 511.999C284.822 511.999 288.18 508.641 288.18 504.499V367.62C294.841 370.77 302.12 372.409 309.666 372.409C317.369 372.409 324.776 370.71 331.531 367.447V504.499C331.531 508.641 334.889 511.999 339.031 511.999C343.173 511.999 346.531 508.641 346.531 504.499V368.976C355.156 366.476 368.396 369.311 383.792 377.108C385.587 378.017 387.521 378.465 389.444 378.465C392.045 378.465 394.626 377.645 396.818 376.036C400.644 373.227 402.537 368.57 401.758 363.882C400.379 355.582 398.409 348.195 396.072 341.626C404.898 343.092 413.4 345.923 421.349 350.075C422.458 350.654 423.645 350.929 424.815 350.929C427.519 350.929 430.131 349.462 431.469 346.9C433.386 343.228 431.965 338.697 428.293 336.78C418.577 331.706 408.164 328.289 397.345 326.626L388.727 325.309C383.66 316.22 378.062 309.51 373.161 304.738C367.441 299.168 359.602 296.451 351.66 297.279L343.868 298.092C343.196 296.089 342.756 294.009 342.558 291.903C364.713 283.766 381.616 266.663 392.24 241.278C397.313 229.155 400.116 217.119 401.67 207.453C402.696 207.554 403.723 207.622 404.749 207.622C419.874 207.621 434.629 196.803 440.608 180.144C444.12 170.347 444.147 159.905 440.682 150.742C437.457 142.215 431.584 135.694 423.973 132.079C427.622 96.1078 425.902 69.7759 418.85 53.7949C413.159 40.8989 399.588 30.8409 380.888 24.476V24.476ZM388.226 61.0529C388.232 55.6769 388.236 49.4769 387.307 43.1259C396.215 47.6009 402.192 53.2009 405.124 59.8479C410.945 73.0389 412.34 96.9198 409.196 129.063C407.31 129.138 405.419 129.373 403.541 129.778C402.836 114.856 394.553 101.582 381.674 94.3698C385.988 85.3728 388.226 73.3239 388.226 61.0529V61.0529ZM203.756 144.98C207.642 143.589 212 143.756 216.167 145.404V186.88C216.167 187.172 216.178 189.227 216.395 192.564C207.025 193.392 197.288 186.252 193.278 175.078C190.967 168.634 190.909 161.875 193.114 156.045C195.158 150.637 198.939 146.708 203.756 144.98V144.98ZM216.223 129.779C214.224 129.347 212.212 129.108 210.205 129.05C208.973 118.807 208.277 110.149 208.128 103.19C213.892 103.926 219.328 105.001 224.598 106.303C219.576 113.082 216.633 121.228 216.223 129.779V129.779ZM197.533 222.49C195.571 222.988 193.893 224.257 192.882 226.01C191.87 227.763 191.61 229.85 192.159 231.798L200.701 262.054L170.445 253.513C168.497 252.963 166.41 253.222 164.657 254.235C162.904 255.247 161.635 256.924 161.137 258.886L153.406 289.37L131.472 266.829C130.06 265.378 128.121 264.559 126.097 264.559C124.073 264.559 122.134 265.377 120.722 266.829L98.7877 289.369L91.0568 258.885C90.5588 256.923 89.2898 255.246 87.5368 254.235C85.7848 253.222 83.6968 252.962 81.7488 253.511L51.4928 262.053L60.0348 231.797C60.5848 229.849 60.3248 227.762 59.3118 226.009C58.2998 224.256 56.6228 222.987 54.6608 222.489L24.1849 214.76L46.7189 192.823C48.1698 191.411 48.9878 189.472 48.9878 187.448C48.9878 185.424 48.1688 183.486 46.7178 182.074L24.1769 160.14L54.6588 152.419C56.6208 151.922 58.2988 150.653 59.3108 148.9C60.3238 147.147 60.5848 145.06 60.0348 143.111L51.4928 112.843L81.7468 121.395C83.6938 121.945 85.7828 121.686 87.5358 120.673C89.2888 119.661 90.5588 117.984 91.0568 116.021L98.7897 85.5288L120.722 108.068C122.134 109.519 124.073 110.338 126.097 110.338C128.121 110.338 130.06 109.52 131.472 108.068L153.404 85.5288L161.137 116.021C161.635 117.983 162.905 119.661 164.658 120.673C166.412 121.685 168.5 121.944 170.448 121.395L193.713 114.818C194.11 120.075 194.699 125.883 195.479 132.217C188.02 135.86 182.265 142.326 179.083 150.737C175.618 159.9 175.645 170.341 179.158 180.141C185.136 196.799 199.89 207.617 215.015 207.617C216.041 207.617 217.068 207.549 218.094 207.448C218.565 210.377 219.148 213.518 219.877 216.82L197.533 222.49ZM239.202 342.85C244.718 329.492 252.078 320.29 257.017 315.484C259.54 313.029 262.995 311.832 266.499 312.199L273.176 312.895V353.613C262.43 351.871 250.582 354.739 240.331 358.727V350.09C240.331 347.569 239.925 345.14 239.202 342.85ZM346.532 312.893L353.214 312.196C356.722 311.829 360.174 313.029 362.695 315.484C369.333 321.947 380.83 336.282 386.066 361.547C376.148 356.968 364.426 353.055 353.337 353.055C351.034 353.055 348.758 353.223 346.532 353.59V312.893ZM288.176 310.639C290.101 306.784 291.148 300.092 291.815 295.822C297.563 296.85 303.587 297.379 309.886 297.379C316.179 297.379 322.198 296.851 327.941 295.825C328.601 300.087 329.629 306.785 331.532 310.641V349.946C325.275 354.829 317.641 357.409 309.665 357.409C301.841 357.409 294.381 354.91 288.175 350.183C288.161 350.172 288.176 310.639 288.176 310.639V310.639ZM331.138 126.563C348.991 124.289 363.835 117.529 373.335 106.925C382.678 111.685 388.595 121.212 388.595 131.85V186.871C388.595 187.118 388.424 211.78 378.243 235.857C365.19 266.726 342.191 282.378 309.885 282.378C277.574 282.378 254.572 266.726 241.518 235.857C231.336 211.78 231.165 187.118 231.165 186.879V131.849C231.165 123.828 234.595 116.244 240.585 110.936C243.796 111.972 247.008 113.049 250.263 114.142C263.623 118.629 277.439 123.268 293.757 125.689C297.85 126.293 301.668 123.468 302.277 119.371C302.884 115.274 300.056 111.459 295.959 110.851C280.956 108.625 268.367 104.398 255.039 99.9228C241.114 95.2468 226.716 90.4108 209.794 88.2778C207.159 87.9458 205.839 86.1958 205.287 85.1828C204.311 83.3908 204.259 81.3078 205.142 79.4698C216.719 55.3929 246.522 15 316.057 15C339.736 15 356.046 19.309 364.533 27.8059C373.254 36.5369 373.24 48.9919 373.226 61.0359C373.226 90.0598 358.749 107.985 330.2 111.622C326.091 112.145 323.184 115.901 323.708 120.01C324.19 123.797 327.418 126.563 331.138 126.563V126.563ZM426.487 175.077C422.476 186.253 412.738 193.39 403.368 192.564C403.585 189.227 403.596 187.173 403.596 186.88V145.404C407.762 143.756 412.12 143.589 416.005 144.98C420.824 146.708 424.604 150.637 426.65 156.045C428.854 161.875 428.796 168.635 426.487 175.077Z" fill="white"/>
<path d="M334.342 208.079H285.423C281.281 208.079 277.923 211.437 277.923 215.579V223.521C277.923 241.144 292.26 255.48 309.882 255.48C327.504 255.48 341.842 241.143 341.842 223.521V215.579C341.842 211.437 338.484 208.079 334.342 208.079ZM326.842 223.521C326.842 232.873 319.234 240.48 309.882 240.48C300.53 240.48 292.923 232.872 292.923 223.521V223.079H326.842V223.521Z" fill="white"/>
<path d="M369.223 159.309C364.556 155.919 358.584 154.052 352.406 154.052C346.228 154.052 340.255 155.919 335.589 159.309C332.238 161.744 331.495 166.434 333.929 169.785C336.365 173.137 341.055 173.879 344.405 171.445C346.529 169.902 349.37 169.052 352.406 169.052C355.442 169.052 358.283 169.902 360.407 171.445C361.738 172.412 363.281 172.878 364.809 172.878C367.128 172.878 369.415 171.806 370.883 169.786C373.317 166.434 372.574 161.744 369.223 159.309V159.309Z" fill="white"/>
<path d="M285.833 169.785C288.268 166.434 287.524 161.744 284.173 159.309C279.506 155.919 273.534 154.052 267.356 154.052C261.178 154.052 255.205 155.919 250.539 159.309C247.188 161.744 246.445 166.434 248.879 169.785C251.315 173.137 256.004 173.879 259.355 171.445C261.479 169.902 264.32 169.052 267.356 169.052C270.392 169.052 273.233 169.902 275.357 171.445C276.688 172.412 278.231 172.878 279.759 172.878C282.078 172.877 284.365 171.805 285.833 169.785V169.785Z" fill="white"/>
<path d="M306.954 198.103H312.809C316.951 198.103 320.309 194.745 320.309 190.603C320.309 186.461 316.951 183.103 312.809 183.103H306.954C302.812 183.103 299.454 186.461 299.454 190.603C299.454 194.745 302.812 198.103 306.954 198.103Z" fill="white"/>
<path d="M214.475 477.094C210.333 477.094 206.975 480.452 206.975 484.594V504.5C206.975 508.642 210.333 512 214.475 512C218.617 512 221.975 508.642 221.975 504.5V484.594C221.975 480.452 218.617 477.094 214.475 477.094Z" fill="white"/>
</g>
<defs>
<clipPath id="clip0">
<rect width="512" height="512" fill="white"/>
</clipPath>
</defs>
</svg>
