<svg width="443" height="167" viewBox="0 0 443 167" fill="none" xmlns="http://www.w3.org/2000/svg">
<g clip-path="url(#clip0)">
<path d="M184.514 22.0317C183.883 22.0317 183.254 22.0957 182.636 22.2233C182.169 19.8503 180.662 17.826 178.546 16.7303C176.431 15.6347 173.939 15.5887 171.786 16.6054C169.837 11.13 163.906 8.30304 158.538 10.2908C153.17 12.2785 150.398 18.329 152.347 23.8038C147.645 23.9555 143.931 27.9254 144.001 32.7234C144.072 37.5218 147.901 41.3757 152.606 41.3834H184.514C189.753 41.3834 194 37.0515 194 31.7076C194 26.3637 189.753 22.0317 184.514 22.0317V22.0317Z" fill="white" fill-opacity="0.5"/>
</g>
<g clip-path="url(#clip1)">
<path d="M433.514 73.0317C432.883 73.0317 432.254 73.0957 431.636 73.2233C431.169 70.8503 429.662 68.826 427.546 67.7303C425.431 66.6347 422.939 66.5887 420.786 67.6054C418.837 62.13 412.906 59.303 407.538 61.2908C402.17 63.2785 399.398 69.329 401.347 74.8038C396.645 74.9555 392.931 78.9254 393.001 83.7234C393.072 88.5218 396.901 92.3757 401.606 92.3834H433.514C438.753 92.3834 443 88.0515 443 82.7076C443 77.3637 438.753 73.0317 433.514 73.0317V73.0317Z" fill="white" fill-opacity="0.5"/>
</g>
<g clip-path="url(#clip2)">
<path d="M90.514 137.032C89.8832 137.032 89.2537 137.096 88.6356 137.223C88.1694 134.85 86.6624 132.826 84.5464 131.73C82.4309 130.635 79.9394 130.589 77.786 131.605C75.8372 126.13 69.9058 123.303 64.5379 125.291C59.1699 127.279 56.3983 133.329 58.3471 138.804C53.6449 138.955 49.9305 142.925 50.0008 147.723C50.0716 152.522 53.9013 156.376 58.6061 156.383H90.514C95.7527 156.383 100 152.051 100 146.708C100 141.364 95.7527 137.032 90.514 137.032V137.032Z" fill="white" fill-opacity="0.5"/>
</g>
<defs>
<clipPath id="clip0">
<rect width="50" height="51" fill="white" transform="translate(144)"/>
</clipPath>
<clipPath id="clip1">
<rect width="50" height="51" fill="white" transform="translate(393 51)"/>
</clipPath>
<clipPath id="clip2">
<rect width="50" height="51" fill="white" transform="translate(50 115)"/>
</clipPath>
</defs>
</svg>
