<svg width="512" height="512" viewBox="0 0 512 512" fill="none" xmlns="http://www.w3.org/2000/svg">
<g clip-path="url(#clip0)">
<path d="M486 303.799C486 274.382 471.745 247.671 448.062 231.389C458.813 217.834 464.8 200.933 464.8 183.4C464.8 156.342 450.454 131.27 427.631 117.387C428.408 113.456 428.8 109.448 428.8 105.4C428.8 71.434 401.166 43.8 367.2 43.8C362.966 43.8 358.802 44.221 354.733 45.058C350.124 19.472 327.694 0 300.8 0C282.309 0 265.929 9.204 256 23.273C246.071 9.204 229.691 0 211.2 0C184.305 0 161.873 19.476 157.266 45.065C155.523 44.707 153.762 44.423 151.987 44.216C146.497 43.573 141.536 47.506 140.897 52.991C140.257 58.477 144.186 63.442 149.672 64.081C153.98 64.583 158.158 65.754 162.097 67.558C162.137 67.577 162.173 67.6 162.212 67.618C170.066 71.238 176.504 77.11 180.827 84.599C182.68 87.807 186.041 89.601 189.497 89.601C191.193 89.601 192.913 89.168 194.488 88.26C199.271 85.498 200.91 79.383 198.149 74.599C192.865 65.448 185.447 57.933 176.48 52.571C177.633 34.418 192.761 20 211.2 20C230.389 20 246 35.611 246 54.8V166H239.333C226.869 166 216.657 175.823 216.03 188.135C216.01 188.532 216 188.932 216 189.334V216H189.333C188.931 216 188.531 216.01 188.134 216.03C175.823 216.656 166 226.869 166 239.333V272.667C166 285.131 175.823 295.344 188.135 295.97C188.532 295.99 188.932 296 189.334 296H216V322.667C216 335.533 226.468 346 239.333 346H246V443.4C246 470.198 224.198 492 197.4 492C178.92 492 162.408 481.492 154.227 465.715C159.817 465.466 165.371 464.62 170.781 463.17C176.115 461.74 179.281 456.257 177.852 450.922C176.423 445.588 170.94 442.419 165.604 443.851C157.795 445.944 149.536 446.355 141.553 445.047C141.529 445.043 141.504 445.043 141.48 445.039C113.998 440.542 93.997 417.221 93.618 389.402C100.27 390.988 107.085 391.799 114 391.799C121.688 391.799 129.35 390.79 136.776 388.8C142.11 387.371 145.276 381.887 143.847 376.552C142.417 371.218 136.937 368.051 131.599 369.481C125.861 371.018 119.94 371.798 114 371.798C105.224 371.798 96.649 370.131 88.514 366.841C88.448 366.814 88.381 366.797 88.314 366.772C62.603 356.277 46 331.584 46 303.799C46 277.656 60.574 254.279 84.044 242.742C84.097 242.717 84.151 242.701 84.203 242.675C88.105 240.773 92.209 239.239 96.4 238.116C101.735 236.687 104.901 231.203 103.471 225.869C102.042 220.534 96.558 217.368 91.224 218.798C88.115 219.631 85.051 220.658 82.045 221.83C72.549 211.356 67.2 197.66 67.2 183.4C67.2 164.605 76.547 147.105 91.651 136.512C97.018 145.677 104.691 153.373 114 158.747C115.575 159.656 117.294 160.089 118.991 160.089C122.447 160.089 125.808 158.295 127.66 155.087C130.422 150.304 128.783 144.188 124 141.427C115.379 136.45 108.822 128.534 105.534 119.138C105.519 119.096 105.499 119.057 105.484 119.016C104.505 116.187 103.83 113.247 103.483 110.275C102.843 104.789 97.877 100.86 92.392 101.501C86.906 102.141 82.978 107.107 83.618 112.592C83.806 114.198 84.056 115.798 84.371 117.385C61.548 131.27 47.2 156.342 47.2 183.4C47.2 200.933 53.187 217.835 63.938 231.389C40.255 247.671 26 274.383 26 303.799C26 337.21 44.548 367.168 73.87 382.139C73.69 384.289 73.6 386.447 73.6 388.6C73.6 407.037 80.205 424.885 92.2 438.857C102.595 450.966 116.464 459.537 131.775 463.428C140.466 491.938 167.064 512 197.4 512C222.187 512 243.944 498.788 256 479.034C268.056 498.788 289.814 512 314.6 512C344.936 512 371.535 491.938 380.225 463.428C395.536 459.537 409.404 450.966 419.8 438.857C431.795 424.885 438.4 407.037 438.4 388.6C438.4 386.448 438.31 384.29 438.13 382.139C467.451 367.168 486 337.21 486 303.799V303.799ZM239.333 326C237.526 326 236 324.473 236 322.667V286C236 280.477 231.523 276 226 276H189.333C187.526 276 186 274.474 186 272.667V239.334C186 237.527 187.526 236.001 189.333 236.001H226C231.523 236.001 236 231.524 236 226.001V189.334C236 187.527 237.526 186.001 239.333 186.001H272.667C274.474 186.001 276 187.527 276 189.334V226C276 231.523 280.477 236 286 236H322.667C324.474 236 326 237.527 326 239.333V272.666C326 274.473 324.474 275.999 322.667 275.999H286C280.477 275.999 276 280.476 276 285.999V322.666C276 324.473 274.474 325.999 272.667 325.999H239.333V326ZM423.687 366.773C423.62 366.798 423.553 366.816 423.486 366.843C415.351 370.132 406.776 371.8 398 371.8C392.06 371.8 386.139 371.02 380.401 369.483C375.064 368.053 369.582 371.219 368.153 376.554C366.723 381.889 369.889 387.372 375.224 388.802C382.65 390.792 390.312 391.801 398 391.801C404.915 391.801 411.73 390.99 418.382 389.404C418.003 417.223 398.002 440.544 370.519 445.041C370.495 445.045 370.471 445.045 370.447 445.049C362.465 446.358 354.205 445.946 346.396 443.853C341.062 442.424 335.578 445.589 334.148 450.924C332.718 456.258 335.884 461.742 341.219 463.172C346.629 464.622 352.183 465.469 357.773 465.717C349.592 481.492 333.08 492 314.6 492C287.802 492 266 470.198 266 443.4V346H272.667C285.533 346 296 335.533 296 322.667V296H322.667C335.533 296 346 285.533 346 272.667V239.334V239.333C346 227.673 337.403 217.984 326.216 216.27C325.059 216.093 323.874 216.001 322.667 216.001H296V189.334C296 188.932 295.99 188.532 295.97 188.135C295.344 175.823 285.131 166 272.667 166H266V54.8C266 35.611 281.611 20 300.8 20C319.239 20 334.367 34.418 335.521 52.572C326.555 57.933 319.137 65.448 313.853 74.6C311.091 79.383 312.73 85.499 317.513 88.26C319.088 89.169 320.807 89.602 322.504 89.602C325.96 89.602 329.321 87.808 331.173 84.6C335.498 77.11 341.935 71.238 349.789 67.619C349.825 67.602 349.858 67.581 349.894 67.564C355.339 65.068 361.16 63.8 367.199 63.8C390.137 63.8 408.799 82.462 408.799 105.4C408.799 110.061 408.03 114.638 406.519 119.007C406.503 119.052 406.481 119.093 406.465 119.139C403.177 128.535 396.619 136.45 387.999 141.428C383.216 144.189 381.577 150.305 384.339 155.088C386.191 158.296 389.552 160.09 393.008 160.09C394.704 160.09 396.424 159.657 397.999 158.748C407.308 153.373 414.982 145.678 420.349 136.513C435.453 147.106 444.8 164.606 444.8 183.401C444.8 197.661 439.451 211.357 429.955 221.831C426.948 220.659 423.885 219.632 420.776 218.799C415.44 217.368 409.958 220.535 408.529 225.87C407.099 231.204 410.265 236.688 415.6 238.117C419.791 239.24 423.894 240.774 427.797 242.676C427.85 242.702 427.904 242.718 427.957 242.743C451.426 254.279 466 277.656 466 303.799C466 331.583 449.397 356.276 423.687 366.773V366.773Z" fill="white"/>
<path d="M137.596 225.796C137.596 239.755 128.179 252.027 114.697 255.64C109.363 257.069 106.197 262.553 107.626 267.888C108.823 272.356 112.863 275.302 117.279 275.302C118.135 275.302 119.007 275.191 119.874 274.959C142.084 269.008 157.597 248.792 157.597 225.797C157.597 216.874 155.239 208.074 150.778 200.349C148.016 195.567 141.901 193.929 137.117 196.689C132.334 199.451 130.696 205.567 133.457 210.35C136.165 215.038 137.596 220.379 137.596 225.796V225.796Z" fill="white"/>
<path d="M189.198 396.083C190.065 396.315 190.936 396.426 191.793 396.426C196.208 396.426 200.249 393.48 201.446 389.012C202.597 384.718 203.18 380.286 203.18 375.838C203.18 347.774 180.348 324.942 152.284 324.942C146.761 324.942 142.284 329.419 142.284 334.942C142.284 340.465 146.761 344.942 152.284 344.942C169.32 344.942 183.18 358.802 183.18 375.838C183.18 378.538 182.826 381.228 182.127 383.834C180.698 389.169 183.864 394.653 189.198 396.083V396.083Z" fill="white"/>
<path d="M227.46 132.467C231.365 128.562 231.365 122.23 227.46 118.324C223.555 114.418 217.223 114.419 213.317 118.324C207.482 124.159 199.723 127.373 191.47 127.373C183.217 127.373 175.458 124.159 169.623 118.324C165.718 114.419 159.386 114.419 155.48 118.324C151.574 122.229 151.575 128.561 155.48 132.467C165.093 142.08 177.874 147.374 191.469 147.374C205.064 147.374 217.847 142.08 227.46 132.467V132.467Z" fill="white"/>
<path d="M397.303 255.64C383.82 252.027 374.404 239.755 374.404 225.796C374.404 220.38 375.835 215.039 378.543 210.348C381.305 205.565 379.666 199.449 374.883 196.688C370.101 193.928 363.984 195.565 361.223 200.348C356.762 208.074 354.404 216.874 354.404 225.796C354.404 248.791 369.916 269.007 392.127 274.958C392.994 275.19 393.865 275.301 394.722 275.301C399.137 275.301 403.178 272.354 404.375 267.887C405.804 262.552 402.638 257.069 397.303 255.64Z" fill="white"/>
<path d="M359.716 324.942C331.652 324.942 308.82 347.774 308.82 375.838C308.82 380.286 309.403 384.718 310.554 389.012C311.752 393.48 315.792 396.426 320.207 396.426C321.064 396.426 321.935 396.315 322.802 396.083C328.136 394.653 331.302 389.169 329.872 383.835C329.173 381.229 328.819 378.539 328.819 375.839C328.819 358.803 342.679 344.943 359.715 344.943C365.238 344.943 369.715 340.466 369.715 334.943C369.715 329.42 365.239 324.942 359.716 324.942Z" fill="white"/>
<path d="M356.518 118.325C352.613 114.42 346.281 114.42 342.375 118.325C336.54 124.16 328.781 127.374 320.528 127.374C312.275 127.374 304.516 124.16 298.681 118.325C294.776 114.42 288.444 114.42 284.538 118.325C280.632 122.23 280.633 128.562 284.538 132.468C294.151 142.081 306.932 147.375 320.527 147.375C334.122 147.375 346.903 142.081 356.516 132.468C360.424 128.562 360.424 122.23 356.518 118.325V118.325Z" fill="white"/>
<path d="M108.314 78.913C113.837 78.913 118.314 74.436 118.314 68.913C118.314 63.39 113.837 58.913 108.314 58.913H108.307C102.784 58.913 98.311 63.39 98.311 68.913C98.311 74.436 102.791 78.913 108.314 78.913Z" fill="white"/>
</g>
<defs>
<clipPath id="clip0">
<rect width="512" height="512" fill="white"/>
</clipPath>
</defs>
</svg>
