<svg width="141" height="141" viewBox="0 0 141 141" fill="none" xmlns="http://www.w3.org/2000/svg">
<path d="M131.6 0H9.4C4.20856 0 0 4.20856 0 9.4V131.6C0 136.791 4.20856 141 9.4 141H131.6C136.791 141 141 136.791 141 131.6V9.4C141 4.20856 136.791 0 131.6 0ZM101.05 136.3H77.55V131.6H101.05V136.3ZM101.05 126.9H77.55V122.2H101.05V126.9ZM101.05 112.849V117.5H77.55V112.849C77.5503 111.837 76.9026 110.939 75.9426 110.619C62.5497 106.492 53.5803 93.9066 54.05 79.9C54.05 68.7633 58.28 59.4338 65.8 53.6834V56.4V84.6C65.8006 85.4536 66.2638 86.24 67.0102 86.6539L88.1602 98.4039C88.8694 98.7972 89.7306 98.7972 90.4398 98.4039L111.59 86.6539C112.336 86.24 112.8 85.4536 112.8 84.6V53.6834C120.32 59.4338 124.55 68.7633 124.55 79.9C125.02 93.9066 116.05 106.492 102.657 110.619C101.697 110.939 101.05 111.837 101.05 112.849ZM70.5 83.2158V57.7841L89.3 47.3384L108.1 57.7841V83.2158L89.3 93.6616L70.5 83.2158ZM136.3 131.6C136.3 134.196 134.196 136.3 131.6 136.3H105.75V114.506C120.175 109.179 129.618 95.2725 129.25 79.9C129.25 65.3793 122.813 53.4954 111.585 47.2937C110.859 46.8869 109.971 46.8995 109.256 47.3266C108.54 47.7491 108.1 48.5184 108.1 49.35V52.405L90.4398 42.5938C89.7306 42.2004 88.8694 42.2004 88.1602 42.5938L70.5 52.405V49.35C70.4991 48.0522 69.4463 47.0006 68.1485 47.0015C67.752 47.0018 67.3622 47.1022 67.0149 47.2937C55.7866 53.4954 49.35 65.3793 49.35 79.9C48.9816 95.2725 58.4251 109.179 72.85 114.506V136.3H9.4C6.80413 136.3 4.7 134.196 4.7 131.6V23.5H136.3V131.6ZM136.3 18.8H4.7V9.4C4.7 6.80413 6.80413 4.7 9.4 4.7H131.6C134.196 4.7 136.3 6.80413 136.3 9.4V18.8Z" fill="white"/>
<path d="M14.1 9.3999H9.40002V14.0999H14.1V9.3999Z" fill="white"/>
<path d="M23.5 9.3999H18.8V14.0999H23.5V9.3999Z" fill="white"/>
<path d="M32.9 9.3999H28.2V14.0999H32.9V9.3999Z" fill="white"/>
<path d="M99.2658 60.5287C93.7585 55.0232 84.8309 55.0244 79.3254 60.5316C73.82 66.0388 73.8211 74.9665 79.3284 80.472C81.9733 83.116 85.5603 84.6009 89.3 84.6003C93.0415 84.6109 96.6314 83.1231 99.2687 80.469C104.774 74.9618 104.773 66.0341 99.2658 60.5287ZM82.6542 63.8545C85.6701 60.8101 90.376 60.2211 94.0494 62.4281L81.2278 75.2497C79.0208 71.5763 79.6098 66.8705 82.6542 63.8545ZM95.9458 77.1485V77.1461C92.8761 80.0663 88.2593 80.6385 84.5695 78.5561L97.3723 65.7533C99.5792 69.4267 98.9902 74.1325 95.9458 77.1485Z" fill="white"/>
<path d="M20.4614 34.5612L17.1385 31.2383L12.4385 35.9383C11.5211 36.856 11.5211 38.3435 12.4385 39.2612L17.1385 43.9612L20.4614 40.6383L17.4229 37.5997L20.4614 34.5612Z" fill="white"/>
<path d="M39.2614 35.9383L34.5614 31.2383L31.2385 34.5612L34.2771 37.5997L31.2385 40.6383L34.5614 43.9612L39.2614 39.2612C40.1788 38.3435 40.1788 36.856 39.2614 35.9383Z" fill="white"/>
<path d="M25.974 29.8036L21.2697 43.9033L25.7258 45.3901L30.4302 31.2904L25.974 29.8036Z" fill="white"/>
<path d="M49.35 35.25H44.65V39.95H49.35V35.25Z" fill="white"/>
<path d="M16.45 49.3501H11.75V54.0501H16.45V49.3501Z" fill="white"/>
<path d="M49.35 49.3501H21.15V54.0501H49.35V49.3501Z" fill="white"/>
<path d="M58.75 35.25H54.05V39.95H58.75V35.25Z" fill="white"/>
<path d="M68.15 35.25H63.45V39.95H68.15V35.25Z" fill="white"/>
<path d="M39.95 58.75H11.75V63.45H39.95V58.75Z" fill="white"/>
<path d="M16.45 96.3501H11.75V101.05H16.45V96.3501Z" fill="white"/>
<path d="M44.65 96.3501H21.15V101.05H44.65V96.3501Z" fill="white"/>
<path d="M35.25 105.75H11.75V110.45H35.25V105.75Z" fill="white"/>
<path d="M18.8 68.1499H11.75V72.8499H18.8V68.1499Z" fill="white"/>
<path d="M18.8 77.5498H11.75V82.2498H18.8V77.5498Z" fill="white"/>
<path d="M18.8 86.9502H11.75V91.6502H18.8V86.9502Z" fill="white"/>
<path d="M30.55 68.1499H23.5V72.8499H30.55V68.1499Z" fill="white"/>
<path d="M42.3 68.1499H35.25V72.8499H42.3V68.1499Z" fill="white"/>
<path d="M30.55 77.5498H23.5V82.2498H30.55V77.5498Z" fill="white"/>
<path d="M18.8 115.15H11.75V119.85H18.8V115.15Z" fill="white"/>
<path d="M18.8 124.55H11.75V129.25H18.8V124.55Z" fill="white"/>
<path d="M30.55 115.15H23.5V119.85H30.55V115.15Z" fill="white"/>
</svg>
