<svg width="141" height="141" viewBox="0 0 141 141" fill="none" xmlns="http://www.w3.org/2000/svg">
<path d="M131.6 0H9.4C4.20856 0 0 4.20856 0 9.4V131.6C0 136.791 4.20856 141 9.4 141H131.6C136.791 141 141 136.791 141 131.6V9.4C141 4.20856 136.791 0 131.6 0ZM136.3 131.6C136.3 134.196 134.196 136.3 131.6 136.3H9.4C6.80413 136.3 4.7 134.196 4.7 131.6V23.5H136.3V131.6ZM136.3 18.8H4.7V9.4C4.7 6.80413 6.80413 4.7 9.4 4.7H131.6C134.196 4.7 136.3 6.80413 136.3 9.4V18.8Z" fill="white"/>
<path d="M14.1 9.3999H9.40002V14.0999H14.1V9.3999Z" fill="white"/>
<path d="M23.5 9.3999H18.8V14.0999H23.5V9.3999Z" fill="white"/>
<path d="M32.9 9.3999H28.2V14.0999H32.9V9.3999Z" fill="white"/>
<path d="M126.9 30.55H14.1C12.8022 30.55 11.75 31.6023 11.75 32.9V47C11.75 48.2978 12.8022 49.35 14.1 49.35H126.9C128.198 49.35 129.25 48.2978 129.25 47V32.9C129.25 31.6023 128.198 30.55 126.9 30.55ZM124.55 44.65H16.45V35.25H124.55V44.65Z" fill="white"/>
<path d="M126.9 115.15H14.1C12.8022 115.15 11.75 116.202 11.75 117.5V126.9C11.75 128.198 12.8022 129.25 14.1 129.25H126.9C128.198 129.25 129.25 128.198 129.25 126.9V117.5C129.25 116.202 128.198 115.15 126.9 115.15ZM124.55 124.55H16.45V119.85H124.55V124.55Z" fill="white"/>
<path d="M129.25 54.05H11.75V58.75H129.25V54.05Z" fill="white"/>
<path d="M129.25 105.75H11.75V110.45H129.25V105.75Z" fill="white"/>
<path d="M35.25 63.45H14.1C12.8022 63.45 11.75 64.5022 11.75 65.8V98.6999C11.75 99.9977 12.8022 101.05 14.1 101.05H35.25C36.5478 101.05 37.6 99.9977 37.6 98.6999V65.8C37.6 64.5022 36.5478 63.45 35.25 63.45ZM30.9448 68.15L24.675 77.9048L18.4052 68.15H30.9448ZM16.45 73.8134L21.8808 82.2499L16.45 90.7099V73.8134ZM18.4052 96.3499L24.675 86.5951L30.9448 96.3499H18.4052ZM32.9 90.7099L27.4692 82.2499L32.9 73.8017V90.7099Z" fill="white"/>
<path d="M126.9 63.45H44.65C43.3523 63.45 42.3 64.5022 42.3 65.8V98.6999C42.3 99.9977 43.3523 101.05 44.65 101.05H126.9C128.198 101.05 129.25 99.9977 129.25 98.6999V65.8C129.25 64.5022 128.198 63.45 126.9 63.45ZM124.55 96.3499H47V68.15H124.55V96.3499Z" fill="white"/>
<path d="M117.5 75.2H63.45V79.9H117.5V75.2Z" fill="white"/>
<path d="M117.5 84.6001H54.05V89.3001H117.5V84.6001Z" fill="white"/>
<path d="M58.75 75.2H54.05V79.9H58.75V75.2Z" fill="white"/>
</svg>
