<svg width="70" height="70" viewBox="0 0 70 70" fill="none" xmlns="http://www.w3.org/2000/svg">
<g clip-path="url(#clip0)">
<path d="M17.1187 63.8556C17.1187 63.8556 14.5612 68.793 11.1505 68.793C8.59313 68.793 6.03451 64.6787 6.03451 59.7413C6.03451 57.2732 5.92951 51.8965 9.4452 51.8965C12.8559 51.8965 16.8966 56.7241 16.8966 56.7241L17.1187 63.8556Z" fill="#E57E25"/>
<path d="M15.6896 31.3787C15.6896 31.3787 12.0689 38.6201 7.24136 38.6201C3.62067 38.6201 -1.76479e-05 32.5856 -1.76479e-05 25.3442C-1.76479e-05 21.7235 -0.148466 12.0684 4.82757 12.0684C9.65516 12.0684 15.6896 19.3097 15.6896 19.3097V31.3787Z" fill="#E57E25"/>
<path d="M37.2086 10.0895C35.1811 8.08602 34.0345 5.44291 36.0742 2.65498C39.8759 -2.58295 47.0449 1.0136 50.9069 4.22395C52.6749 5.74579 54.1547 7.57315 55.2759 9.61878L37.2086 10.0895Z" fill="#E57E25"/>
<path d="M22.9154 19.3307C20.3218 17.4129 17.9599 14.275 20.2156 10.8981C24.0149 5.15568 31.8018 10.9126 34.2047 13.9153L22.9154 19.3307Z" fill="#E57E25"/>
<path d="M25.5861 31.5225C23.0335 33.0528 20.3602 35.9035 22.5037 38.9944C25.3157 43.0254 30.5899 40.2495 33.4382 37.7875C34.2987 37.0813 34.8822 36.094 35.0856 34.9995L25.5861 31.5225Z" fill="#E57E25"/>
<path d="M31.8619 49.3011C31.1396 48.0571 31.2348 46.5012 32.1033 45.3545C34.6739 41.589 39.5257 44.1718 42.1326 46.4769C42.9079 47.1778 43.5931 47.9724 44.1722 48.8424L31.8619 49.3011Z" fill="#E57E25"/>
<path d="M23.1047 57.5948C20.9009 56.4495 18.0116 53.9355 19.9499 51.1355C21.9051 48.3114 25.3326 49.6028 27.7102 51.2924H27.7223L23.1047 57.5948Z" fill="#E57E25"/>
<path d="M24.5518 63.4824C22.7342 64.5167 20.7392 66.49 22.2792 68.619C24.5168 71.6917 29.0946 69.0317 31.4359 66.4248L24.5518 63.4824Z" fill="#E57E25"/>
<path d="M15.6896 26.5515H4.8275C4.16095 26.5515 3.62061 26.0111 3.62061 25.3446C3.62061 24.678 4.16095 24.1377 4.8275 24.1377H15.6896C16.3561 24.1377 16.8965 24.678 16.8965 25.3446C16.8965 26.0111 16.3561 26.5515 15.6896 26.5515Z" fill="#D25627"/>
<path d="M15.6897 24.15C15.4511 24.1497 15.218 24.0788 15.0198 23.9461C11.6248 21.6771 5.85707 20.5052 5.79914 20.4932C5.3676 20.4171 5.0112 20.1131 4.86802 19.6989C4.72485 19.2848 4.81739 18.8256 5.1098 18.4992C5.40221 18.1729 5.84855 18.0306 6.27587 18.1276C6.53173 18.1783 12.5759 19.4082 16.3655 21.939C16.809 22.2347 17.006 22.7863 16.8502 23.296C16.6944 23.8057 16.2226 24.1528 15.6897 24.15Z" fill="#D25627"/>
<path d="M6.03435 32.5864C5.4143 32.5871 4.89467 32.1177 4.83235 31.5008C4.77004 30.8839 5.18532 30.3202 5.79297 30.1968C5.8509 30.1847 11.6271 29.0068 15.0137 26.7438C15.5679 26.3732 16.3176 26.5221 16.6882 27.0763C17.0588 27.6306 16.91 28.3803 16.3557 28.7509C12.5661 31.2854 6.52194 32.5116 6.26607 32.5623C6.18985 32.5781 6.11221 32.5862 6.03435 32.5864Z" fill="#D25627"/>
<path d="M66.3795 47.0685C68.3791 47.0685 70.0002 45.4475 70.0002 43.4478C70.0002 41.4482 68.3791 39.8271 66.3795 39.8271C64.3798 39.8271 62.7588 41.4482 62.7588 43.4478C62.7588 45.4475 64.3798 47.0685 66.3795 47.0685Z" fill="#3B97D3"/>
<path d="M63.9656 56.7241C65.2987 56.7241 66.3793 55.6434 66.3793 54.3103C66.3793 52.9772 65.2987 51.8965 63.9656 51.8965C62.6325 51.8965 61.5518 52.9772 61.5518 54.3103C61.5518 55.6434 62.6325 56.7241 63.9656 56.7241Z" fill="#3B97D3"/>
<path d="M62.7585 4.82759C64.0916 4.82759 65.1723 3.74689 65.1723 2.41379C65.1723 1.08069 64.0916 0 62.7585 0C61.4254 0 60.3447 1.08069 60.3447 2.41379C60.3447 3.74689 61.4254 4.82759 62.7585 4.82759Z" fill="#3B97D3"/>
<path d="M59.138 49.4831C59.8046 49.4831 60.3449 48.9428 60.3449 48.2762C60.3449 47.6097 59.8046 47.0693 59.138 47.0693C58.4715 47.0693 57.9312 47.6097 57.9312 48.2762C57.9312 48.9428 58.4715 49.4831 59.138 49.4831Z" fill="#2980BA"/>
<path d="M67.5863 8.44797C68.2528 8.44797 68.7932 7.90763 68.7932 7.24108C68.7932 6.57453 68.2528 6.03418 67.5863 6.03418C66.9197 6.03418 66.3794 6.57453 66.3794 7.24108C66.3794 7.90763 66.9197 8.44797 67.5863 8.44797Z" fill="#2980BA"/>
<path d="M10.862 63.9656C10.2412 63.9649 9.7222 63.4935 9.662 62.8757C9.60181 62.2579 10.0201 61.6951 10.6291 61.5747L16.6636 60.3763C17.3169 60.2482 17.9505 60.6734 18.0796 61.3265C18.2088 61.9796 17.7847 62.6139 17.1318 62.7442L11.0973 63.9426C11.0198 63.958 10.941 63.9657 10.862 63.9656Z" fill="#D25627"/>
<path d="M16.8965 60.3451C16.8154 60.3454 16.7346 60.3377 16.6551 60.3222L10.6206 59.1093C10.1877 59.0348 9.82937 58.7311 9.68512 58.3162C9.54086 57.9012 9.63344 57.4407 9.92682 57.1138C10.2202 56.7868 10.6681 56.6451 11.0961 56.7437L17.1306 57.9506C17.7494 58.0622 18.1788 58.6301 18.1177 59.2559C18.0565 59.8816 17.5251 60.3556 16.8965 60.3451Z" fill="#D25627"/>
<path d="M15.6897 19.3103C14.1804 20.9628 13.3226 23.1072 13.2759 25.3448C13.3226 27.5823 14.1804 29.7268 15.6897 31.3793C19.4357 31.4468 23.1297 32.2677 26.5517 33.7931C31.3793 36.2069 37.4138 39.8275 47.069 39.8275C56.7242 39.8275 70 32.5862 70 22.931C70.0483 22.1271 70.0483 21.3211 70 20.5172C68.7931 15.6896 57.5195 8.44824 48.2759 8.44824C40.6423 8.44824 36.2069 9.65514 28.9655 14.4827C20.3266 20.242 19.3104 19.3103 15.6897 19.3103Z" fill="#F29C1F"/>
<path d="M61.552 22.9311C62.8851 22.9311 63.9658 21.8504 63.9658 20.5173C63.9658 19.1842 62.8851 18.1035 61.552 18.1035C60.2189 18.1035 59.1382 19.1842 59.1382 20.5173C59.1382 21.8504 60.2189 22.9311 61.552 22.9311Z" fill="#35495E"/>
<path d="M36.2068 27.7585C35.0723 31.1499 32.8878 31.3671 31.6326 36.3274C29.762 35.4585 28.0964 34.5654 26.5516 33.793C26.1744 33.6005 25.7877 33.4273 25.393 33.274C25.6464 29.7981 26.5516 28.3378 26.5516 24.1378C26.5225 21.6814 25.9496 19.2619 24.874 17.0533C26.0206 16.3895 27.3602 15.5568 28.9654 14.4826C29.5206 14.1085 30.0637 13.7585 30.5826 13.4326C31.2281 15.5955 32.3219 17.5982 33.793 19.3102C36.2068 21.724 37.4137 24.1378 36.2068 27.7585Z" fill="#ECF0F1"/>
<path d="M49.012 34.3721C49.3083 36.1461 49.7855 37.8851 50.4362 39.5618C49.3217 39.7318 48.1963 39.8205 47.0689 39.8273C44.2964 39.8377 41.5328 39.5135 38.8379 38.8618C40.9862 36.967 41.7827 33.829 42.0724 30.9687L42.3862 24.6204C43.1033 22.1088 43.4609 19.5082 43.4482 16.8963C43.4511 14.1022 42.66 11.3649 41.1672 9.00316C43.4383 8.60627 45.7412 8.42042 48.0465 8.44798C49.7645 10.9306 50.6863 13.8772 50.6896 16.8963C50.7193 19.7949 50.1181 22.6653 48.9275 25.3083L49.012 34.3721Z" fill="#ECF0F1"/>
<path d="M53.1036 24.1377C52.0891 24.9768 50.798 25.4072 49.4829 25.3446C47.0691 25.3446 41.0347 22.7353 41.0347 26.5515C41.0347 30.1722 43.4485 34.9998 47.0691 34.9998C49.4829 34.9998 50.6898 32.586 51.8967 30.1722L53.1036 24.1377Z" fill="#F29C1F"/>
<path d="M16.8963 56.7237C15.2872 58.8693 15.2872 61.8194 16.8963 63.965C19.5811 63.7068 22.2887 64.0962 24.7919 65.1007C28.2026 66.7337 31.7991 69.9995 38.6205 69.9995C45.4419 69.9995 55.4869 64.2837 55.4869 57.7519C55.5207 57.2082 55.5207 56.6628 55.4869 56.119C54.6348 52.8531 46.3579 48.2754 39.8274 48.2754C34.435 48.2754 31.6132 48.7714 26.4972 52.0373C20.3963 55.9331 19.4538 56.7237 16.8963 56.7237Z" fill="#F29C1F"/>
<path d="M49.4828 57.9314C50.1493 57.9314 50.6897 57.391 50.6897 56.7245C50.6897 56.0579 50.1493 55.5176 49.4828 55.5176C48.8162 55.5176 48.2759 56.0579 48.2759 56.7245C48.2759 57.391 48.8162 57.9314 49.4828 57.9314Z" fill="#35495E"/>
<path d="M40.9621 58.6307L39.888 65.0997C39.9476 66.7039 40.0967 68.3035 40.3345 69.8911C39.766 69.9622 39.1937 69.9984 38.6207 69.9997C37.3069 70.0058 35.9961 69.8723 34.7104 69.6014C34.6181 67.1847 34.8907 64.7679 35.519 62.4324V62.4204L36.7259 58.4738H36.738C37.3897 54.6359 35.7483 50.6773 34.6621 48.5893C36.3725 48.3442 38.1001 48.2393 39.8276 48.2756C40.3357 48.2743 40.8435 48.3025 41.3483 48.36C42.1121 49.8167 42.4231 51.4684 42.2414 53.1031C42.0325 54.9893 41.6031 56.8445 40.9621 58.6307Z" fill="#ECF0F1"/>
<path d="M27.3721 66.5237C26.479 65.9926 25.6221 65.4978 24.7894 65.0995C24.3331 64.8832 23.861 64.7016 23.3773 64.5564C23.8383 62.7854 24.0935 60.967 24.1377 59.1375C24.1232 57.47 23.6334 55.8414 22.7256 54.4426C23.7273 53.8271 24.9463 53.0306 26.5032 52.0409C26.648 51.9444 26.7808 51.8599 26.9256 51.7754C27.5176 53.4597 28.1985 55.1114 28.9652 56.7237C30.0997 58.9926 31.2342 61.2616 27.3721 66.5237Z" fill="#ECF0F1"/>
<path d="M43.4483 57.9307C42.5896 58.4151 41.6185 58.6648 40.6326 58.6548C38.9429 58.6548 35 57.6688 35 59.9582C35 62.5651 36.6897 65.172 39.2241 65.172C40.2979 65.126 41.31 64.6575 42.0398 63.8686L43.4483 57.9307Z" fill="#F29C1F"/>
<path d="M47.0691 36.2066C42.5819 36.2066 39.8277 30.5825 39.8277 26.5514C39.7732 25.5926 40.1702 24.6634 40.9006 24.0399C42.4225 22.798 44.9739 23.3158 47.2272 23.7816C47.9682 23.961 48.7226 24.0801 49.4829 24.1377C50.482 24.1897 51.4667 23.8823 52.2587 23.2711C52.7403 22.8182 53.4956 22.8338 53.9581 23.3061C54.4206 23.7755 54.4174 24.5303 53.9508 24.9958C52.7144 26.0651 51.1161 26.6216 49.4829 26.5514C48.5588 26.5007 47.6413 26.365 46.742 26.1459C45.3662 25.8647 43.0646 25.3916 42.4262 25.9046C42.2761 26.0845 42.209 26.3194 42.2415 26.5514C42.2415 29.8318 44.3946 33.7928 47.0691 33.7928C48.6248 33.7928 49.5227 32.2239 50.8105 29.6327C51.0032 29.2467 51.3872 28.993 51.8178 28.9669C52.2483 28.9409 52.6601 29.1466 52.8979 29.5064C53.1358 29.8663 53.1636 30.3257 52.9708 30.7116C51.6879 33.2871 50.2287 36.2066 47.0691 36.2066Z" fill="#E57E25"/>
<path d="M39.2241 66.3789C35.8702 66.3789 33.7931 63.0467 33.7931 59.9582C33.7716 59.2434 34.0619 58.5546 34.5884 58.0707C35.7555 57.0098 37.7964 57.2053 39.4426 57.3622C39.8952 57.4056 40.3079 57.4479 40.6326 57.4479C41.3866 57.4534 42.13 57.2705 42.7953 56.9157C43.158 56.6792 43.6196 56.6551 44.0049 56.8525C44.3902 57.0499 44.6403 57.4386 44.6602 57.8711C44.6801 58.3036 44.4668 58.7137 44.1012 58.9457C43.0486 59.5579 41.8502 59.8744 40.6326 59.8617C40.2464 59.8617 39.7516 59.817 39.2121 59.7651C38.4879 59.6951 36.5497 59.5093 36.2105 59.8581C36.2105 61.8929 37.4174 63.9615 39.2278 63.9615C39.954 63.915 40.6359 63.596 41.1371 63.0684C41.5788 62.5832 42.3272 62.5399 42.822 62.9707C43.3169 63.4016 43.3768 64.1488 42.9571 64.6531C42.0013 65.7148 40.6522 66.3386 39.2241 66.3789Z" fill="#E57E25"/>
</g>
<defs>
<clipPath id="clip0">
<rect width="70" height="70" fill="white"/>
</clipPath>
</defs>
</svg>
