<svg width="951" height="197" viewBox="0 0 951 197" fill="none" xmlns="http://www.w3.org/2000/svg">
<path fill-rule="evenodd" clip-rule="evenodd" d="M199.5 48.25V94.5V155C199.5 173.502 184.502 188.5 166 188.5H105.5H45C26.4985 188.5 11.5 173.502 11.5 155V140.75V94.5H14.5V140.75V155C14.5 171.845 28.1553 185.5 45 185.5H105.5H166C182.845 185.5 196.5 171.845 196.5 155V94.5V48.25V34C196.5 15.4985 211.498 0.5 230 0.5H290H290.5H350.5C369.002 0.5 384 15.4985 384 34V48.25V94.5V155C384 171.845 397.655 185.5 414.5 185.5H475H544.375C556.318 185.5 566 175.818 566 163.875V140.75V94.5H566.5V48.25V34C566.5 15.4985 581.498 0.5 600 0.5H660.5H721C739.502 0.5 754.5 15.4985 754.5 34V94.5V140.75V155C754.5 171.845 768.155 185.5 785 185.5H832V185H915.375C927.318 185 937 175.318 937 163.375V140.25V94H940V140.25V163.375C940 176.975 928.975 188 915.375 188H845.5V188.5H785C766.498 188.5 751.5 173.502 751.5 155V140.75V94.5V34C751.5 17.1553 737.845 3.5 721 3.5H660.5H600C583.155 3.5 569.5 17.1553 569.5 34V48.25V94.5H569V140.75V163.875C569 177.475 557.975 188.5 544.375 188.5H475H414.5C395.998 188.5 381 173.502 381 155V94.5V48.25V34C381 17.1553 367.345 3.5 350.5 3.5H290.5H290H230C213.155 3.5 199.5 17.1553 199.5 34V48.25Z" fill="url(#paint0_linear)"/>
<path d="M937.83 78.3634C938.597 78.3634 939.219 77.7416 939.219 76.9747V67.2586C939.219 66.6226 940.008 66.3271 940.425 66.8064L943.157 69.9399C943.738 70.6065 944.774 70.6065 945.355 69.9399C945.834 69.3908 945.834 68.5726 945.355 68.0234L938.952 60.6779C938.359 59.9976 937.301 59.9976 936.708 60.6779L930.305 68.0234C929.826 68.5726 929.826 69.3908 930.305 69.9399C930.886 70.6065 931.922 70.6065 932.503 69.9399L935.235 66.8064C935.653 66.3271 936.441 66.6226 936.441 67.2586V76.9747C936.441 77.7416 937.063 78.3634 937.83 78.3634Z" fill="#1F936F" stroke="#1F936F" stroke-width="0.8"/>
<rect y="77" width="25" height="25" rx="12.5" fill="white"/>
<rect x="4" y="81" width="17" height="17" rx="8.5" fill="#16967D"/>
<rect x="186" y="77" width="25" height="25" rx="12.5" fill="white"/>
<rect x="190" y="81" width="17" height="17" rx="8.5" fill="#7AF3A7"/>
<rect x="371" y="77" width="25" height="25" rx="12.5" fill="white"/>
<rect x="375" y="81" width="17" height="17" rx="8.5" fill="#7AF3A7"/>
<rect x="555" y="77" width="25" height="25" rx="12.5" fill="white"/>
<rect x="559" y="81" width="17" height="17" rx="8.5" fill="#7AF3A7"/>
<rect x="740" y="77" width="25" height="25" rx="12.5" fill="white"/>
<rect x="744" y="81" width="17" height="17" rx="8.5" fill="#7AF3A7"/>
<rect x="926" y="77" width="25" height="25" rx="12.5" fill="white"/>
<rect x="930" y="81" width="17" height="17" rx="8.5" fill="#5BCC85"/>
<g opacity="0.95">
<path d="M859.96 179.788C859.863 179.49 859.607 179.274 859.298 179.229L850.618 177.968L846.736 170.102C846.597 169.822 846.312 169.645 846 169.645C845.688 169.645 845.403 169.822 845.264 170.102L841.382 177.968L832.702 179.229C832.393 179.274 832.137 179.49 832.04 179.787C831.944 180.084 832.024 180.41 832.248 180.628L838.528 186.751L837.046 195.396C836.993 195.704 837.12 196.015 837.372 196.198C837.625 196.382 837.96 196.406 838.236 196.261L846 192.179L853.763 196.261C853.883 196.324 854.015 196.355 854.145 196.355C854.315 196.355 854.484 196.302 854.627 196.198C854.88 196.015 855.006 195.704 854.954 195.396L853.471 186.751L859.752 180.628C859.976 180.41 860.056 180.084 859.96 179.788Z" fill="#FED42D"/>
<path d="M859.96 179.788C859.863 179.49 859.607 179.274 859.298 179.229L850.618 177.968L846.736 170.102C846.597 169.822 846.312 169.645 846 169.645V192.179L853.763 196.261C853.884 196.324 854.015 196.355 854.145 196.355C854.315 196.355 854.485 196.302 854.627 196.198C854.88 196.015 855.007 195.704 854.954 195.396L853.471 186.751L859.752 180.628C859.976 180.41 860.056 180.084 859.96 179.788Z" fill="#FCBF29"/>
</g>
<defs>
<linearGradient id="paint0_linear" x1="945" y1="136" x2="3.00001" y2="33.0001" gradientUnits="userSpaceOnUse">
<stop stop-color="#1F936F"/>
<stop offset="0.369792" stop-color="#51C381"/>
<stop offset="0.640625" stop-color="#33A676"/>
<stop offset="0.993819" stop-color="#5BCC85"/>
</linearGradient>
</defs>
</svg>
