<svg width="150" height="150" viewBox="0 0 150 150" fill="none" xmlns="http://www.w3.org/2000/svg">
<rect width="150" height="150" rx="75" fill="#5BCC85" fill-opacity="0.16"/>
<path d="M116.451 31.9561L139.785 31.9231C139.785 31.9231 138.621 30.4231 137.343 30.2251C137.343 30.2251 134.844 22.8241 130.68 22.7791C126.807 22.7341 125.262 27.3421 125.262 27.3421C125.262 27.3421 123.462 25.2781 121.752 26.2261C120.042 27.1741 119.073 29.8771 119.073 29.8771C119.073 29.8771 117.147 30.9181 116.451 31.9561Z" fill="#EBEBEB"/>
<path d="M66.804 36.1502L37.296 36.1952C37.296 36.1952 37.296 34.3082 41.358 33.9332C41.358 33.9332 45.057 25.6892 50.724 26.7872C54.255 27.4712 56.064 32.3132 56.064 32.3132C56.064 32.3132 58.725 28.4972 60.864 29.2322C63.003 29.9672 64.269 34.0322 64.269 34.0322C64.269 34.0322 66.468 35.1002 66.804 36.1502Z" fill="#EBEBEB"/>
<path d="M111.171 57.7263L91.107 57.7563C91.107 57.7563 93 55.9923 93.84 55.9923C94.68 55.9923 97.14 50.0703 100.269 50.3163C103.398 50.5623 105.069 54.9663 105.069 54.9663C105.069 54.9663 108.9 53.7663 111.171 57.7263Z" fill="#EBEBEB"/>
<path d="M27.375 52.2L10.215 52.227C10.215 52.227 11.067 51.114 12.015 50.976C12.015 50.976 13.833 45.528 16.896 45.483C19.743 45.444 20.889 48.825 20.889 48.825C20.889 48.825 22.206 47.307 23.469 47.997C24.732 48.687 25.446 50.676 25.446 50.676C25.446 50.676 26.859 51.426 27.375 52.2Z" fill="#EBEBEB"/>
<path d="M8.82898 127.188L25.371 127.116L41.916 127.089L75 127.038L108.087 127.089L124.629 127.116L141.171 127.188L124.629 127.26L108.087 127.287L75 127.338L41.916 127.287L25.371 127.26L8.82898 127.188Z" fill="#263238"/>
<path d="M84.141 139.149C114.458 139.149 139.035 136.762 139.035 133.818C139.035 130.874 114.458 128.487 84.141 128.487C53.8239 128.487 29.247 130.874 29.247 133.818C29.247 136.762 53.8239 139.149 84.141 139.149Z" fill="#EBEBEB"/>
<g opacity="0.3">
<path opacity="0.3" d="M42.159 24.2789C42.159 27.6206 40.8315 30.8255 38.4685 33.1885C36.1056 35.5514 32.9007 36.8789 29.559 36.8789C22.596 36.8789 16.638 31.2359 16.638 24.2789C16.638 17.3219 22.59 11.3579 29.553 11.3579C36.516 11.3579 42.159 17.3159 42.159 24.2789Z" fill="#16967D"/>
</g>
<g opacity="0.3">
<path opacity="0.3" d="M29.2651 34.5747C26.5275 34.5739 23.9023 33.4861 21.9665 31.5503C20.0307 29.6145 18.9429 26.9893 18.9421 24.2517C18.9421 18.5517 23.5651 13.6677 29.2651 13.6677C34.9651 13.6677 39.8491 18.5487 39.8491 24.2517C39.8491 29.9547 34.9681 34.5747 29.2651 34.5747Z" fill="#16967D"/>
</g>
<path d="M29.5291 33.0599C34.3919 33.0599 38.3341 29.1178 38.3341 24.255C38.3341 19.3921 34.3919 15.45 29.5291 15.45C24.6662 15.45 20.7241 19.3921 20.7241 24.255C20.7241 29.1178 24.6662 33.0599 29.5291 33.0599Z" fill="#16967D"/>
<path d="M55.005 117.864L53.676 132.927H89.376C89.376 132.927 85.389 102.813 85.389 102.549C85.389 102.285 92.652 93.072 91.059 73.497C89.067 49.134 72 40.728 54.828 40.728C37.656 40.728 25.602 56.601 23.928 67.926L17.628 93.426L25.863 94.578C25.863 94.578 26.217 111.846 30.663 116.274C35.109 120.702 55.005 117.864 55.005 117.864Z" fill="white"/>
<path opacity="0.41" d="M55.005 117.864L53.676 132.927H89.376C89.376 132.927 85.389 102.813 85.389 102.549C85.389 102.285 92.652 93.072 91.059 73.497C89.067 49.134 72 40.728 54.828 40.728C37.656 40.728 25.602 56.601 23.928 67.926L17.628 93.426L25.863 94.578C25.863 94.578 26.217 111.846 30.663 116.274C35.109 120.702 55.005 117.864 55.005 117.864Z" fill="#16967D"/>
<path d="M86.0251 74.181C85.3651 77.205 81.3571 78.681 81.3571 78.681C81.1111 79.227 82.4761 89.892 82.8571 90.501C83.2381 91.11 80.9821 92.682 80.6851 92.331C80.3881 91.98 77.7511 85.041 72.2641 83.793C71.4332 84.7469 70.4101 85.5145 69.2618 86.0455C68.1136 86.5765 66.8661 86.8588 65.6011 86.874C61.1911 86.982 57.9811 83.826 57.9811 83.826C57.9811 83.826 54.8701 88.416 48.3481 87.231C41.8261 86.046 40.4431 80.901 40.4431 80.901C40.4431 80.901 32.0161 83.448 28.7791 76.557C26.3011 71.286 29.0191 67.446 30.4231 65.943C30.6489 65.6937 30.8915 65.4602 31.1491 65.244C31.1491 65.244 30.4531 58.851 34.4041 55.5C38.3551 52.149 43.5721 52.551 43.5721 52.551C43.5721 52.551 45.6721 46.08 51.7111 44.82C57.7501 43.56 61.4071 47.061 61.4071 47.061C63.2009 46.2672 65.1393 45.8522 67.1008 45.8418C69.0624 45.8315 71.005 46.2261 72.8071 47.001C79.0771 49.614 78.8851 55.842 78.8851 55.842C78.8851 55.842 83.4451 57.342 84.9571 61.065C86.4691 64.788 83.9971 68.523 83.9971 68.523C83.9971 68.523 86.6821 71.157 86.0251 74.181Z" fill="#16967D"/>
<g style="mix-blend-mode:multiply" opacity="0.1">
<g style="mix-blend-mode:multiply" opacity="0.1">
<path d="M72.2641 83.7902C71.4332 84.7442 70.4101 85.5118 69.2618 86.0427C68.1136 86.5737 66.8661 86.856 65.6011 86.8712C61.1911 86.9792 57.9811 83.8232 57.9811 83.8232C57.9811 83.8232 54.8701 88.4132 48.3481 87.2282C41.8261 86.0432 40.4431 80.8982 40.4431 80.8982C40.4431 80.8982 32.0161 83.4452 28.7791 76.5542C26.3011 71.2832 29.0191 67.4432 30.4231 65.9402L31.1491 65.2412C31.1101 65.3492 28.8031 71.7752 32.8951 75.7982C36.9871 79.8212 42.9001 77.2022 42.9001 77.2022C42.9001 77.2022 43.6561 83.5622 48.7261 85.0172C54.3571 86.6342 58.0081 82.3532 58.0081 82.3532C58.0081 82.3532 64.5931 89.5262 72.2641 83.7902Z" fill="#222221"/>
</g>
</g>
<g style="mix-blend-mode:multiply" opacity="0.1">
<path d="M80.7 92.3279C80.4 91.9799 77.766 85.0379 72.279 83.7899C72.279 83.7899 76.779 81.1469 78.852 82.9979C80.925 84.8489 80.7 92.3279 80.7 92.3279Z" fill="#222221"/>
</g>
<path d="M74.7 42.1623C75.021 41.9823 75.546 41.7243 75.924 41.7963C75.9874 41.8143 76.046 41.8464 76.0953 41.8901C76.1446 41.9339 76.1834 41.9882 76.2088 42.0491C76.2342 42.1099 76.2455 42.1757 76.2419 42.2416C76.2383 42.3074 76.2199 42.3716 76.188 42.4293C75.9764 42.8075 75.6554 43.1129 75.267 43.3053C75.0664 43.4035 74.8501 43.4654 74.628 43.4883C74.388 43.5799 74.1316 43.6207 73.875 43.6083H73.827C73.8195 43.6111 73.8116 43.6123 73.8036 43.6118C73.7957 43.6113 73.7879 43.6091 73.7809 43.6055C73.7738 43.6018 73.7676 43.5967 73.7626 43.5904C73.7576 43.5842 73.754 43.577 73.752 43.5693L73.71 43.5543C73.095 43.2873 74.466 42.3003 74.7 42.1623Z" fill="#16967D"/>
<g style="mix-blend-mode:multiply" opacity="0.3">
<path d="M74.7 42.1623C75.021 41.9823 75.546 41.7243 75.924 41.7963C75.9874 41.8143 76.046 41.8464 76.0953 41.8901C76.1446 41.9339 76.1834 41.9882 76.2088 42.0491C76.2342 42.1099 76.2455 42.1757 76.2419 42.2416C76.2383 42.3074 76.2199 42.3716 76.188 42.4293C75.9764 42.8075 75.6554 43.1129 75.267 43.3053C75.0664 43.4035 74.8501 43.4654 74.628 43.4883C74.388 43.5799 74.1316 43.6207 73.875 43.6083H73.827C73.8195 43.6111 73.8116 43.6123 73.8036 43.6118C73.7957 43.6113 73.7879 43.6091 73.7809 43.6055C73.7738 43.6018 73.7676 43.5967 73.7626 43.5904C73.7576 43.5842 73.754 43.577 73.752 43.5693L73.71 43.5543C73.095 43.2873 74.466 42.3003 74.7 42.1623Z" fill="#222221"/>
</g>
<path d="M68.127 43.4098C67.977 43.8118 67.734 44.5048 68.025 44.9098C68.0416 44.935 68.0653 44.9546 68.093 44.9664C68.1208 44.9781 68.1514 44.9814 68.181 44.9758C68.3548 44.9224 68.5038 44.8085 68.601 44.6548C68.9705 44.2804 69.2541 43.8299 69.432 43.3348C69.558 42.9898 69.375 42.4738 68.934 42.4768C68.493 42.4798 68.25 43.0708 68.127 43.4098Z" fill="#16967D"/>
<g style="mix-blend-mode:multiply" opacity="0.3">
<path d="M68.127 43.4098C67.977 43.8118 67.734 44.5048 68.025 44.9098C68.0416 44.935 68.0653 44.9546 68.093 44.9664C68.1208 44.9781 68.1514 44.9814 68.181 44.9758C68.3548 44.9224 68.5038 44.8085 68.601 44.6548C68.9705 44.2804 69.2541 43.8299 69.432 43.3348C69.558 42.9898 69.375 42.4738 68.934 42.4768C68.493 42.4798 68.25 43.0708 68.127 43.4098Z" fill="#222221"/>
</g>
<path d="M64.8 46.7431C64.908 47.0791 65.271 47.4871 65.496 46.9831C65.5027 46.9695 65.5061 46.9546 65.5061 46.9396C65.5061 46.9245 65.5027 46.9096 65.496 46.8961C65.796 46.2961 66.096 45.6511 65.796 44.9791C65.607 44.5411 65.145 44.5231 64.836 44.8681C64.395 45.3571 64.623 46.2001 64.8 46.7431Z" fill="#16967D"/>
<g style="mix-blend-mode:multiply" opacity="0.3">
<path d="M64.8 46.7431C64.908 47.0791 65.271 47.4871 65.496 46.9831C65.5027 46.9695 65.5061 46.9546 65.5061 46.9396C65.5061 46.9245 65.5027 46.9096 65.496 46.8961C65.796 46.2961 66.096 45.6511 65.796 44.9791C65.607 44.5411 65.145 44.5231 64.836 44.8681C64.395 45.3571 64.623 46.2001 64.8 46.7431Z" fill="#222221"/>
</g>
<path d="M74.043 43.6107C73.524 43.9797 72.486 44.2107 72.147 44.2587C72.018 44.3457 69.903 45.3927 69.129 46.0377C68.6133 46.4693 68.1384 46.9473 67.71 47.4657C68.5976 46.8984 69.5429 46.4267 70.53 46.0587C71.43 45.7227 72.48 45.5847 73.392 45.9807C73.392 46.0107 72.21 46.5327 71.703 46.7967C71.196 47.0607 70.803 47.3577 70.32 47.5617C69.4104 47.906 68.4247 47.9982 67.467 47.8287C67.455 47.8261 67.4438 47.821 67.434 47.8137C66.8179 48.5951 66.327 49.4675 65.979 50.3997C65.121 52.7997 65.169 55.2387 65.508 57.5127C65.481 57.4707 65.448 57.4347 65.415 57.3927C65.3221 57.2688 65.222 57.1506 65.115 57.0387C65.0143 56.3319 64.9582 55.6195 64.947 54.9057C64.9483 54.8947 64.9483 54.8836 64.947 54.8727C64.1395 54.4513 63.4901 53.7798 63.096 52.9587C62.7128 51.9568 62.4118 50.9254 62.196 49.8747C63.1781 50.4144 63.9497 51.2694 64.386 52.3017C64.6378 52.8832 64.8385 53.4854 64.986 54.1017C65.001 53.7627 65.022 53.4267 65.061 53.0907C64.9465 51.8941 64.9284 50.6902 65.007 49.4907C65.0428 48.9653 65.109 48.4424 65.205 47.9247C65.0768 47.6007 64.9842 47.2637 64.929 46.9197C64.9209 46.7999 64.9436 46.6801 64.995 46.5717C65.041 46.4521 65.1308 46.3546 65.2461 46.2988C65.3615 46.2431 65.4937 46.2334 65.616 46.2717C65.6379 46.2775 65.6574 46.2903 65.6715 46.3082C65.6856 46.326 65.6934 46.348 65.694 46.3707C65.694 46.4337 65.694 46.4997 65.694 46.5657C65.6295 47.0199 65.5292 47.4683 65.394 47.9067C65.2641 48.5909 65.1849 49.2838 65.157 49.9797C65.127 50.7147 65.157 51.4437 65.193 52.1757C65.3035 51.6206 65.457 51.075 65.652 50.5437C65.8183 49.4899 66.1376 48.4661 66.6 47.5047C66.8971 46.9176 67.2287 46.3486 67.593 45.8007C67.6506 45.3854 67.7511 44.9772 67.893 44.5827C68.001 44.3187 68.154 44.1237 68.361 44.1357C68.688 44.1357 68.697 44.3757 68.586 44.6487C68.4192 44.9868 68.216 45.3057 67.98 45.5997C67.3329 46.5167 66.7896 47.5028 66.36 48.5397C66.2423 48.8519 66.1422 49.1703 66.06 49.4937C66.8087 47.9837 67.9072 46.6744 69.264 45.6747C70.1779 45.0541 71.1435 44.5131 72.15 44.0577C72.597 43.7277 73.014 43.3767 73.455 43.0167C73.5887 42.8709 73.7616 42.7667 73.953 42.7167C74.0041 42.7134 74.0552 42.7233 74.1014 42.7453C74.1476 42.7674 74.1874 42.8009 74.217 42.8427C74.457 43.1607 74.328 43.4067 74.043 43.6107Z" fill="#455A64"/>
<g style="mix-blend-mode:multiply" opacity="0.1">
<g style="mix-blend-mode:multiply" opacity="0.1">
<path d="M58.2 56.0822C58.9896 55.732 59.8364 55.5287 60.699 55.4822C61.1361 55.4507 61.5752 55.4628 62.01 55.5181C62.449 55.5769 62.8804 55.6825 63.297 55.8332C63.7132 55.9992 64.1064 56.218 64.467 56.4841C64.818 56.7518 65.1362 57.0599 65.415 57.4021C65.9695 58.0702 66.3782 58.8468 66.615 59.6822C66.1947 58.9569 65.6858 58.2867 65.1 57.6871C64.537 57.1037 63.8571 56.6458 63.105 56.3431C62.3347 56.0654 61.5237 55.9174 60.705 55.9052C59.8662 55.8841 59.0274 55.9434 58.2 56.0822Z" fill="#222221"/>
</g>
<g style="mix-blend-mode:multiply" opacity="0.1">
<path d="M71.778 58.6081C71.3274 58.348 70.8508 58.1358 70.356 57.9751C69.8796 57.8212 69.3857 57.7285 68.886 57.6991C68.7611 57.6915 68.6359 57.6915 68.511 57.6991C68.3872 57.6901 68.2628 57.6901 68.139 57.6991L67.761 57.7261C67.638 57.7501 67.512 57.7711 67.386 57.7891L67.197 57.8161L67.011 57.8641L66.633 57.9511C66.378 58.0141 66.135 58.1041 65.865 58.1641C66.0765 57.9955 66.299 57.8412 66.531 57.7021C66.7712 57.5718 67.0221 57.4624 67.281 57.3751C67.413 57.3331 67.545 57.2911 67.677 57.2551L68.085 57.1861C68.2225 57.1605 68.3621 57.1485 68.502 57.1501C68.6408 57.1411 68.7801 57.1411 68.919 57.1501C69.4759 57.1811 70.0203 57.3272 70.518 57.5791C71.0148 57.8154 71.4471 58.1685 71.778 58.6081Z" fill="#222221"/>
</g>
</g>
<path d="M83.526 57.4172C82.6563 57.9158 81.7543 58.3558 80.826 58.7342C80.3851 58.9477 79.9276 59.1253 79.458 59.2652C79.2001 59.3356 78.9268 59.3251 78.675 59.2352C78.5325 59.2081 78.4046 59.1303 78.315 59.0162C78.2931 58.9921 78.2794 58.9616 78.276 58.9292C77.883 58.5752 77.766 58.0052 77.646 57.4772C77.3986 56.4244 77.2629 55.3484 77.241 54.2672C77.241 53.8742 77.16 53.3672 77.34 52.9892C77.451 52.7642 77.589 52.7432 77.763 52.6172C78.177 52.3172 78.189 51.9302 78.489 51.5582C78.5576 51.4517 78.6539 51.3659 78.7675 51.3098C78.8811 51.2538 79.0078 51.2297 79.134 51.2402C79.764 51.3662 79.698 52.5902 79.734 53.0402C79.812 53.9665 79.812 54.8978 79.734 55.8242C79.682 56.6609 79.5545 57.4913 79.353 58.3052C80.1968 57.0307 81.2193 55.884 82.389 54.9002C82.809 54.5432 83.481 53.9582 84.087 54.1712C84.333 54.2582 84.306 54.4442 84.465 54.5762C84.801 54.8552 85.167 54.5762 85.518 54.7442C86.832 55.4042 83.979 57.1592 83.526 57.4172Z" fill="#16967D"/>
<g style="mix-blend-mode:multiply" opacity="0.3">
<path d="M83.526 57.4172C82.6563 57.9158 81.7543 58.3558 80.826 58.7342C80.3851 58.9477 79.9276 59.1253 79.458 59.2652C79.2001 59.3356 78.9268 59.3251 78.675 59.2352C78.5325 59.2081 78.4046 59.1303 78.315 59.0162C78.2931 58.9921 78.2794 58.9616 78.276 58.9292C77.883 58.5752 77.766 58.0052 77.646 57.4772C77.3986 56.4244 77.2629 55.3484 77.241 54.2672C77.241 53.8742 77.16 53.3672 77.34 52.9892C77.451 52.7642 77.589 52.7432 77.763 52.6172C78.177 52.3172 78.189 51.9302 78.489 51.5582C78.5576 51.4517 78.6539 51.3659 78.7675 51.3098C78.8811 51.2538 79.0078 51.2297 79.134 51.2402C79.764 51.3662 79.698 52.5902 79.734 53.0402C79.812 53.9665 79.812 54.8978 79.734 55.8242C79.682 56.6609 79.5545 57.4913 79.353 58.3052C80.1968 57.0307 81.2193 55.884 82.389 54.9002C82.809 54.5432 83.481 53.9582 84.087 54.1712C84.333 54.2582 84.306 54.4442 84.465 54.5762C84.801 54.8552 85.167 54.5762 85.518 54.7442C86.832 55.4042 83.979 57.1592 83.526 57.4172Z" fill="#222221"/>
</g>
<path d="M82.5959 52.7102C81.6539 54.6122 80.5979 56.4512 79.6889 58.3682C79.6649 58.4162 79.5839 58.3682 79.6049 58.3322C80.3129 56.5772 81.2669 54.9392 82.1309 53.2592C82.5853 52.4352 82.9341 51.5573 83.1689 50.6462C83.3129 50.0252 83.3489 49.4462 83.7689 48.9692C83.7859 48.9478 83.8082 48.9312 83.8336 48.9211C83.859 48.9111 83.8866 48.9078 83.9137 48.9118C83.9407 48.9157 83.9662 48.9267 83.9877 48.9436C84.0091 48.9605 84.0258 48.9828 84.0359 49.0082C84.2879 49.6082 83.5709 50.4812 83.1929 51.0542C83.0506 51.625 82.8506 52.1798 82.5959 52.7102Z" fill="#263238"/>
<path d="M78.867 52.4491C78.186 54.1981 78.033 56.0971 77.811 57.9391C77.811 57.9479 77.8075 57.9563 77.8013 57.9625C77.7951 57.9686 77.7868 57.9721 77.778 57.9721C77.7692 57.9721 77.7609 57.9686 77.7547 57.9625C77.7485 57.9563 77.745 57.9479 77.745 57.9391C77.763 55.4851 78.345 52.7611 79.641 50.6521C79.755 50.4631 80.511 49.3051 80.817 49.6921C80.979 49.8991 80.619 50.2321 80.502 50.3491C80.127 50.7451 79.662 51.0181 79.32 51.4531C79.137 51.7951 78.99 52.1371 78.867 52.4491Z" fill="#263238"/>
<path d="M85.743 53.0548C85.571 53.8896 85.2388 54.6832 84.765 55.3918C83.805 56.9218 82.431 58.1428 80.976 59.1898C80.943 59.2168 80.901 59.1568 80.931 59.1328C82.32 58.0168 83.691 56.8468 84.648 55.3228C84.8981 54.9264 85.1149 54.51 85.296 54.0778L85.338 53.9758C85.3359 53.9721 85.3348 53.968 85.3348 53.9638C85.3348 53.9595 85.3359 53.9554 85.338 53.9518C85.4045 53.4403 85.4125 52.923 85.362 52.4098C85.3164 52.1918 85.3516 51.9647 85.461 51.7708C85.4658 51.7627 85.473 51.7563 85.4816 51.7526C85.4902 51.7488 85.4998 51.7478 85.509 51.7498C85.935 51.8608 85.8 52.7488 85.743 53.0548Z" fill="#263238"/>
<path d="M84.876 58.896C83.028 59.922 80.817 60.261 78.876 61.056C78.432 61.236 77.994 61.437 77.559 61.656C77.4257 61.7286 77.2885 61.7937 77.148 61.851C77.0602 61.885 76.9647 61.8943 76.872 61.878C76.8328 61.8724 76.795 61.8592 76.761 61.839C76.6984 61.8035 76.6454 61.7532 76.6068 61.6925C76.5681 61.6319 76.5448 61.5627 76.539 61.491C76.5039 61.1908 76.5171 60.887 76.578 60.591C76.551 60.273 76.497 59.955 76.464 59.673C76.422 59.259 76.368 58.851 76.305 58.44C76.164 57.57 75.945 56.718 75.729 55.863C75.5174 55.1444 75.4163 54.3979 75.429 53.649C75.429 53.25 75.498 52.506 75.852 52.245C76.206 51.984 76.398 52.224 76.524 52.521C76.65 52.818 76.641 53.121 76.734 53.397C76.878 53.826 77.133 53.868 77.415 54.135C77.5832 54.3246 77.709 54.5479 77.784 54.79C77.859 55.0321 77.8815 55.2875 77.85 55.539C77.826 55.944 77.781 56.352 77.727 56.754C77.847 56.391 77.982 56.031 78.12 55.68C78.369 55.047 78.615 54.258 79.089 53.751C79.2392 53.5808 79.4272 53.4483 79.638 53.364C80.0933 53.2392 80.5073 52.9959 80.838 52.659C81.162 52.299 81.582 51.648 82.155 51.735C82.728 51.822 82.668 52.398 82.704 52.827C82.773 53.625 83.424 54.057 83.277 54.927C83.157 55.635 82.662 56.244 82.224 56.787C81.8829 57.2109 81.5141 57.6118 81.12 57.987C81.6492 57.6666 82.2194 57.4194 82.815 57.252C83.0707 57.1568 83.347 57.1309 83.616 57.177C84.003 57.279 84.024 57.525 84.516 57.477C84.882 57.435 85.683 57.177 85.881 57.684C86.079 58.191 85.239 58.692 84.876 58.896Z" fill="#16967D"/>
<g style="mix-blend-mode:multiply" opacity="0.1">
<path d="M84.876 58.896C83.028 59.922 80.817 60.261 78.876 61.056C78.432 61.236 77.994 61.437 77.559 61.656C77.4257 61.7286 77.2885 61.7937 77.148 61.851C77.0602 61.885 76.9647 61.8943 76.872 61.878C76.8328 61.8724 76.795 61.8592 76.761 61.839C76.6984 61.8035 76.6454 61.7532 76.6068 61.6925C76.5681 61.6319 76.5448 61.5627 76.539 61.491C76.5039 61.1908 76.5171 60.887 76.578 60.591C76.551 60.273 76.497 59.955 76.464 59.673C76.422 59.259 76.368 58.851 76.305 58.44C76.164 57.57 75.945 56.718 75.729 55.863C75.5174 55.1444 75.4163 54.3979 75.429 53.649C75.429 53.25 75.498 52.506 75.852 52.245C76.206 51.984 76.398 52.224 76.524 52.521C76.65 52.818 76.641 53.121 76.734 53.397C76.878 53.826 77.133 53.868 77.415 54.135C77.5832 54.3246 77.709 54.5479 77.784 54.79C77.859 55.0321 77.8815 55.2875 77.85 55.539C77.826 55.944 77.781 56.352 77.727 56.754C77.847 56.391 77.982 56.031 78.12 55.68C78.369 55.047 78.615 54.258 79.089 53.751C79.2392 53.5808 79.4272 53.4483 79.638 53.364C80.0933 53.2392 80.5073 52.9959 80.838 52.659C81.162 52.299 81.582 51.648 82.155 51.735C82.728 51.822 82.668 52.398 82.704 52.827C82.773 53.625 83.424 54.057 83.277 54.927C83.157 55.635 82.662 56.244 82.224 56.787C81.8829 57.2109 81.5141 57.6118 81.12 57.987C81.6492 57.6666 82.2194 57.4194 82.815 57.252C83.0707 57.1568 83.347 57.1309 83.616 57.177C84.003 57.279 84.024 57.525 84.516 57.477C84.882 57.435 85.683 57.177 85.881 57.684C86.079 58.191 85.239 58.692 84.876 58.896Z" fill="#222221"/>
</g>
<path d="M76.368 55.8267V55.8476C76.3859 55.8446 76.3799 55.8237 76.368 55.8267Z" fill="#F1D1C5"/>
<path d="M83.3581 58.8267C81.5341 59.9907 78.3661 59.7657 77.1421 61.7457V61.8417C77.0543 61.8757 76.9588 61.8851 76.8661 61.8687C76.5901 61.1787 76.7221 60.4077 76.7491 59.6697C76.8133 58.5544 76.7357 57.4355 76.5181 56.3397C76.5181 56.3097 76.5541 56.3007 76.5661 56.3397C76.8159 57.1844 76.9462 58.0599 76.9531 58.9407C76.9741 59.8407 76.7311 60.9177 76.9921 61.7937L77.0101 61.7037C77.0101 60.6927 77.4181 59.6757 77.8321 58.7757C78.3661 57.6147 79.0321 56.5317 79.6771 55.4247C79.7011 55.3797 79.7641 55.4247 79.7401 55.4697C79.1881 56.5587 78.6151 57.6447 78.0991 58.7517C77.7648 59.4248 77.4946 60.1279 77.2921 60.8517C78.3001 58.4997 81.0451 57.1527 81.9001 54.7107C81.904 54.6992 81.9124 54.6897 81.9234 54.6843C81.9344 54.679 81.947 54.6782 81.9586 54.6822C81.9701 54.6862 81.9796 54.6946 81.9849 54.7056C81.9903 54.7165 81.991 54.7292 81.9871 54.7407C81.1231 57.3357 78.3451 58.7757 77.3041 61.2507C77.4709 61.049 77.6647 60.8714 77.8801 60.7227C78.3234 60.2842 78.8288 59.9132 79.3801 59.6217C80.2801 59.1507 81.2641 58.9197 82.1341 58.3827C82.1671 58.3647 82.2001 58.4157 82.1731 58.4397C81.5041 59.0127 80.6281 59.2287 79.8391 59.5857C79.3648 59.7981 78.9151 60.0617 78.4981 60.3717C78.7531 60.2516 79.0145 60.1455 79.2811 60.0537C80.6281 59.5767 82.0231 59.3547 83.3251 58.7457C83.335 58.7442 83.3452 58.7461 83.354 58.7511C83.3628 58.7561 83.3696 58.7639 83.3734 58.7732C83.3772 58.7826 83.3778 58.7929 83.375 58.8026C83.3722 58.8123 83.3662 58.8208 83.3581 58.8267Z" fill="white"/>
<path d="M76.2419 54.4167C76.1897 54.6927 76.2072 54.9773 76.2929 55.2447C76.2945 55.2486 76.2972 55.252 76.3007 55.2543C76.3041 55.2567 76.3082 55.2579 76.3124 55.2579C76.3166 55.2579 76.3207 55.2567 76.3242 55.2543C76.3277 55.252 76.3304 55.2486 76.3319 55.2447C76.3019 54.9766 76.3019 54.7059 76.3319 54.4377C76.3199 54.3897 76.2539 54.3717 76.2419 54.4167Z" fill="white"/>
<path d="M82.0531 53.8499C82.0201 53.9999 82.0231 54.1499 81.9961 54.3119C81.9961 54.3629 82.0591 54.3689 82.0771 54.3299C82.148 54.1827 82.1711 54.0169 82.1431 53.8559C82.1311 53.8169 82.0621 53.8019 82.0531 53.8499Z" fill="white"/>
<path d="M84.069 58.2601C83.9911 58.3007 83.9169 58.3479 83.847 58.4011C83.8426 58.4059 83.8395 58.4118 83.8382 58.4182C83.8369 58.4246 83.8373 58.4312 83.8395 58.4374C83.8416 58.4436 83.8454 58.449 83.8505 58.4532C83.8555 58.4574 83.8615 58.4601 83.868 58.4611C83.9658 58.4542 84.0577 58.4114 84.126 58.3411C84.165 58.3051 84.12 58.2301 84.069 58.2601Z" fill="white"/>
<path d="M76.2271 60.6571C76.2901 61.3591 76.4521 62.1121 76.1041 62.8051C76.0741 62.8651 76.1311 62.9191 76.1761 62.8741C76.5211 62.5021 78.7951 61.6111 78.6931 61.2271C78.6301 60.9931 78.0001 61.2841 77.9131 60.9601C77.916 60.7684 77.9558 60.5789 78.0301 60.4021C78.0781 60.2161 78.1201 60.0241 78.1501 59.8351C78.1801 59.6461 78.1741 59.4361 78.0211 59.3701C77.8681 59.3041 77.6461 59.5201 77.5261 59.6701C77.4061 59.8201 77.3341 59.9311 77.2411 60.0631C77.1481 60.1951 76.9951 60.4801 76.8631 60.2431C76.7311 60.0061 76.7101 59.7841 76.5331 59.6281C76.1311 59.2741 76.2001 60.4471 76.2271 60.6571Z" fill="#455A64"/>
<path d="M75.396 69.9329C75.309 69.7319 75.21 69.5309 75.096 69.3329C75.0065 69.1704 74.9063 69.0141 74.796 68.8649C74.796 68.7359 74.817 68.6039 74.829 68.4749C74.895 67.7489 74.988 67.0259 75.114 66.3089C75.147 66.1079 75.186 65.9069 75.225 65.7089C75.315 65.2439 75.417 64.7819 75.525 64.3199C75.6781 63.6409 75.9181 62.9845 76.239 62.3669C76.3527 62.1581 76.481 61.9576 76.623 61.7669L76.746 61.6109L76.881 61.4489L76.995 61.3229L77.013 61.3049C77.0222 61.2946 77.0351 61.2883 77.0488 61.2875C77.0626 61.2866 77.0762 61.2913 77.0865 61.3004C77.0969 61.3096 77.1031 61.3225 77.104 61.3362C77.1048 61.35 77.1002 61.3636 77.091 61.3739L76.983 61.5119C76.9583 61.5447 76.9353 61.5788 76.914 61.6139C76.875 61.6679 76.836 61.7279 76.797 61.7849C76.758 61.8419 76.767 61.8359 76.755 61.8629C76.5863 62.1424 76.4456 62.4378 76.335 62.7449C75.924 63.8489 75.819 65.0969 75.675 66.2309C75.603 66.7929 75.545 67.3539 75.501 67.9139C75.4964 67.9608 75.4964 68.008 75.501 68.0549C75.456 68.6699 75.417 69.2999 75.396 69.9329Z" fill="#455A64"/>
<path d="M75.2401 66.4048C75.2401 66.4048 75.3241 63.9718 74.8621 62.7388C74.4001 61.5058 72.9301 59.9158 72.9301 59.9158C72.6712 61.1052 72.7504 62.3433 73.1586 63.4901C73.5668 64.6369 74.2878 65.6465 75.2401 66.4048Z" fill="#455A64"/>
<path d="M75.4561 68.0579C75.4561 68.0579 76.3411 65.7869 77.2561 64.8389C78.1711 63.8909 80.1421 63.0029 80.1421 63.0029C79.911 64.1991 79.3496 65.3066 78.5214 66.2001C77.6932 67.0935 76.6313 67.7371 75.4561 68.0579Z" fill="#455A64"/>
<g style="mix-blend-mode:multiply" opacity="0.1">
<g style="mix-blend-mode:multiply" opacity="0.1">
<path d="M66.984 66.1771C67.9825 65.9401 69.0173 65.8973 70.032 66.0511C71.0641 66.1985 72.0559 66.5526 72.948 67.0921C73.3943 67.3694 73.8062 67.6987 74.175 68.0731C74.5369 68.4522 74.8494 68.8756 75.105 69.3331C75.6112 70.2334 75.8902 71.2436 75.918 72.2761C75.6835 71.3088 75.2858 70.3887 74.742 69.5551C74.2047 68.744 73.4948 68.0617 72.663 67.5571C72.456 67.4281 72.243 67.3141 72.027 67.1971C71.811 67.0801 71.589 66.9871 71.358 66.8971C70.9018 66.7156 70.4325 66.5692 69.954 66.4591C68.9792 66.2443 67.9818 66.1496 66.984 66.1771Z" fill="#222221"/>
</g>
<g style="mix-blend-mode:multiply" opacity="0.1">
<path d="M81.6 69.126C81.0643 68.9964 80.5198 68.9062 79.971 68.856C79.4395 68.8126 78.9047 68.8327 78.378 68.916C78.1173 68.9551 77.8597 69.0122 77.607 69.087C77.3546 69.1705 77.108 69.2707 76.869 69.387C76.3742 69.629 75.9023 69.9151 75.459 70.242C75.7647 69.7512 76.1744 69.3334 76.659 69.018C76.9035 68.8534 77.165 68.7156 77.439 68.607C77.7154 68.5064 78.0006 68.4321 78.291 68.385C78.8707 68.2946 79.4623 68.316 80.034 68.448C80.5969 68.5644 81.1299 68.7952 81.6 69.126Z" fill="#222221"/>
</g>
</g>
<path d="M32.1 52.8812C33.246 53.8172 34.707 54.1922 36.093 54.6092C36.483 54.7262 36.864 54.8492 37.245 54.9842C37.5078 55.1034 37.7982 55.1491 38.085 55.1162C38.583 55.0142 38.6309 54.5672 38.6369 54.1352C38.6475 53.9974 38.6475 53.859 38.6369 53.7212V53.6282C38.6388 53.6191 38.6384 53.6097 38.6358 53.6008C38.6331 53.5919 38.6284 53.5838 38.622 53.5772C38.622 53.4092 38.595 53.2442 38.583 53.0882C38.511 52.1882 38.43 51.2882 38.352 50.4062C38.3241 49.6796 38.2327 48.9568 38.079 48.2462C38.013 47.9972 37.941 47.6642 37.689 47.5352C37.5414 47.4841 37.3912 47.441 37.239 47.4062C37.109 47.3505 36.9932 47.2664 36.9 47.1602C36.654 46.9022 36.216 46.1222 35.757 46.3712C35.523 46.5002 35.457 46.8002 35.406 47.0342C35.2807 47.3323 35.0959 47.6018 34.863 47.8262C34.518 48.2762 34.605 48.8552 34.794 49.3502C35.0641 49.9921 35.4149 50.5969 35.838 51.1502C36.255 51.7322 36.711 52.2842 37.134 52.8632C37.3692 53.1815 37.5875 53.5119 37.788 53.8532C37.887 54.0212 37.977 54.1892 38.061 54.3632C38.1272 54.4814 38.1786 54.6073 38.214 54.7382C37.704 54.1027 37.1528 53.5014 36.564 52.9382C35.964 52.3382 35.43 51.6272 34.746 51.1052C34.2407 50.6963 33.6164 50.4626 32.967 50.4392C32.6032 50.458 32.239 50.4143 31.89 50.3102C31.5818 50.1811 31.2625 50.0807 30.936 50.0102C30.213 49.9082 30.573 50.7602 30.729 51.1052C31.0392 51.7971 31.5091 52.4058 32.1 52.8812Z" fill="#16967D"/>
<g style="mix-blend-mode:multiply" opacity="0.3">
<path d="M32.1 52.8812C33.246 53.8172 34.707 54.1922 36.093 54.6092C36.483 54.7262 36.864 54.8492 37.245 54.9842C37.5078 55.1034 37.7982 55.1491 38.085 55.1162C38.583 55.0142 38.6309 54.5672 38.6369 54.1352C38.6475 53.9974 38.6475 53.859 38.6369 53.7212V53.6282C38.6388 53.6191 38.6384 53.6097 38.6358 53.6008C38.6331 53.5919 38.6284 53.5838 38.622 53.5772C38.622 53.4092 38.595 53.2442 38.583 53.0882C38.511 52.1882 38.43 51.2882 38.352 50.4062C38.3241 49.6796 38.2327 48.9568 38.079 48.2462C38.013 47.9972 37.941 47.6642 37.689 47.5352C37.5414 47.4841 37.3912 47.441 37.239 47.4062C37.109 47.3505 36.9932 47.2664 36.9 47.1602C36.654 46.9022 36.216 46.1222 35.757 46.3712C35.523 46.5002 35.457 46.8002 35.406 47.0342C35.2807 47.3323 35.0959 47.6018 34.863 47.8262C34.518 48.2762 34.605 48.8552 34.794 49.3502C35.0641 49.9921 35.4149 50.5969 35.838 51.1502C36.255 51.7322 36.711 52.2842 37.134 52.8632C37.3692 53.1815 37.5875 53.5119 37.788 53.8532C37.887 54.0212 37.977 54.1892 38.061 54.3632C38.1272 54.4814 38.1786 54.6073 38.214 54.7382C37.704 54.1027 37.1528 53.5014 36.564 52.9382C35.964 52.3382 35.43 51.6272 34.746 51.1052C34.2407 50.6963 33.6164 50.4626 32.967 50.4392C32.6032 50.458 32.239 50.4143 31.89 50.3102C31.5818 50.1811 31.2625 50.0807 30.936 50.0102C30.213 49.9082 30.573 50.7602 30.729 51.1052C31.0392 51.7971 31.5091 52.4058 32.1 52.8812Z" fill="#222221"/>
</g>
<path d="M37.8331 54.0238C37.9786 53.0412 37.9786 52.0425 37.8331 51.0598C37.5045 49.1686 36.839 47.3518 35.8681 45.6959C35.6814 45.3269 35.443 44.9864 35.1601 44.6848C35.0341 44.5648 34.7521 44.4328 34.7611 44.7268C34.8176 45.0074 34.9812 45.2548 35.2171 45.4168C35.4785 45.6101 35.7224 45.8259 35.9461 46.0618C36.1051 46.3618 36.2461 46.6618 36.4021 46.9618C36.7691 47.7194 37.0809 48.5024 37.3351 49.3049C37.8415 50.8242 38.0054 52.4367 37.8151 54.0268L37.8331 54.0238Z" fill="#263238"/>
<path d="M37.623 54.4621C36.6397 54.3166 35.6834 54.0265 34.785 53.6011C33.069 52.741 31.5222 51.5784 30.219 50.1691C29.9176 49.8863 29.6607 49.5596 29.457 49.2001C29.376 49.0471 29.331 48.7381 29.61 48.8311C29.889 48.9241 30.039 49.2361 30.141 49.4671C30.2481 49.7789 30.3837 50.0801 30.546 50.3671C30.783 50.6041 31.023 50.8351 31.272 51.0631C31.8912 51.6331 32.551 52.1575 33.246 52.6321C34.5534 53.556 36.0492 54.1789 37.626 54.4561C37.626 54.4561 37.638 54.4651 37.623 54.4621Z" fill="#263238"/>
<path d="M32.7 47.8862C33.216 48.5742 33.75 49.2472 34.302 49.9052C35.4031 51.2103 36.5717 52.457 37.803 53.6402C37.803 53.6402 37.827 53.6402 37.803 53.6222C36.603 52.4222 35.466 51.1412 34.38 49.8392C33.836 49.1892 33.31 48.5272 32.802 47.8532C32.7 47.7122 32.595 47.5742 32.502 47.4302C32.331 46.9832 32.202 46.5692 31.998 46.1342C31.896 45.9302 31.653 45.4562 31.422 45.6242C31.131 45.8462 32.196 47.2052 32.7 47.8862Z" fill="#263238"/>
<path d="M30.3961 52.8178C30.7218 53.3186 31.1331 53.7583 31.6111 54.1168C32.6352 54.8878 33.8046 55.4439 35.0491 55.7518C36.2331 56.1059 37.4801 56.197 38.703 56.0188H38.7481C38.7523 56.0222 38.7576 56.0241 38.7631 56.0241C38.7685 56.0241 38.7738 56.0222 38.778 56.0188C38.8102 56.0143 38.8415 56.0052 38.8711 55.9918C38.8711 55.9918 38.988 55.9708 38.961 55.9588C39.012 55.8886 39.0671 55.8215 39.126 55.7578C39.3433 55.5149 39.5381 55.2528 39.708 54.9748C39.8895 54.6093 40.0082 54.2158 40.059 53.8108C40.194 52.8838 40.0591 51.9388 40.1731 51.0088C40.2601 50.1988 40.5661 49.4248 40.5391 48.6088C40.5391 48.4288 40.5091 48.1378 40.2571 48.1858C39.9361 48.2488 39.8911 48.6928 39.6811 48.8788C39.6661 48.9268 39.627 48.9418 39.57 48.9238C39.498 48.9598 39.4531 48.9388 39.432 48.8578C39.4027 48.8106 39.3785 48.7603 39.36 48.7078C39.3133 48.599 39.2723 48.4879 39.237 48.3748C39.171 48.1768 39.12 47.9728 39.066 47.7748C39.0105 47.4089 38.8731 47.0602 38.6641 46.7548C38.6325 46.7113 38.5898 46.677 38.5404 46.6556C38.4911 46.6342 38.4369 46.6265 38.3835 46.6332C38.3301 46.64 38.2796 46.661 38.2371 46.694C38.1946 46.727 38.1618 46.7708 38.142 46.8208C38.0257 47.1526 37.9837 47.506 38.0191 47.8558C38.0191 48.0988 37.968 48.4558 37.638 48.3808C37.503 48.3538 37.3801 48.2728 37.245 48.2458C37.1241 48.2253 36.9998 48.248 36.8939 48.31C36.788 48.372 36.7073 48.4693 36.666 48.5848C36.5251 48.9268 36.645 49.3618 36.717 49.7098C36.817 50.1572 36.9442 50.598 37.0981 51.0298C37.3981 51.8518 38.058 53.4058 38.4 54.2068C38.586 54.6478 36.498 50.0968 35.7 49.1788C35.5046 48.9927 35.2469 48.8857 34.977 48.8788C34.803 48.8788 34.641 48.9478 34.467 48.9448C34.2888 48.9291 34.1154 48.8781 33.9571 48.7948C33.5251 48.6028 32.787 48.3748 32.667 49.0438C32.61 49.3438 32.7511 49.6438 32.7571 49.9438C32.7173 50.2297 32.6214 50.505 32.475 50.7538C32.2261 51.3928 32.8231 51.9538 33.2401 52.3798C33.7588 52.9065 34.323 53.3863 34.926 53.8138C35.298 54.0838 36.726 55.0138 37.113 55.2538C36.618 55.0018 35.085 54.0538 34.602 53.7718C34.284 53.5888 33.9721 53.3968 33.6661 53.1988C33.3601 53.0008 33.117 52.8028 32.826 52.6438C32.5901 52.527 32.326 52.4791 32.064 52.5058C31.7078 52.4731 31.3554 52.4078 31.0111 52.3108C30.8251 52.2808 30.4801 52.1638 30.3451 52.3528C30.2311 52.4728 30.3001 52.6828 30.3961 52.8178Z" fill="#16967D"/>
<g style="mix-blend-mode:multiply" opacity="0.09">
<path d="M30.3961 52.8178C30.7218 53.3186 31.1331 53.7583 31.6111 54.1168C32.6352 54.8878 33.8046 55.4439 35.0491 55.7518C36.2331 56.1059 37.4801 56.197 38.703 56.0188H38.7481C38.7523 56.0222 38.7576 56.0241 38.7631 56.0241C38.7685 56.0241 38.7738 56.0222 38.778 56.0188C38.8102 56.0143 38.8415 56.0052 38.8711 55.9918C38.8711 55.9918 38.988 55.9708 38.961 55.9588C39.012 55.8886 39.0671 55.8215 39.126 55.7578C39.3433 55.5149 39.5381 55.2528 39.708 54.9748C39.8895 54.6093 40.0082 54.2158 40.059 53.8108C40.194 52.8838 40.0591 51.9388 40.1731 51.0088C40.2601 50.1988 40.5661 49.4248 40.5391 48.6088C40.5391 48.4288 40.5091 48.1378 40.2571 48.1858C39.9361 48.2488 39.8911 48.6928 39.6811 48.8788C39.6661 48.9268 39.627 48.9418 39.57 48.9238C39.498 48.9598 39.4531 48.9388 39.432 48.8578C39.4027 48.8106 39.3785 48.7603 39.36 48.7078C39.3133 48.599 39.2723 48.4879 39.237 48.3748C39.171 48.1768 39.12 47.9728 39.066 47.7748C39.0105 47.4089 38.8731 47.0602 38.6641 46.7548C38.6325 46.7113 38.5898 46.677 38.5404 46.6556C38.4911 46.6342 38.4369 46.6265 38.3835 46.6332C38.3301 46.64 38.2796 46.661 38.2371 46.694C38.1946 46.727 38.1618 46.7708 38.142 46.8208C38.0257 47.1526 37.9837 47.506 38.0191 47.8558C38.0191 48.0988 37.968 48.4558 37.638 48.3808C37.503 48.3538 37.3801 48.2728 37.245 48.2458C37.1241 48.2253 36.9998 48.248 36.8939 48.31C36.788 48.372 36.7073 48.4693 36.666 48.5848C36.5251 48.9268 36.645 49.3618 36.717 49.7098C36.817 50.1572 36.9442 50.598 37.0981 51.0298C37.3981 51.8518 38.058 53.4058 38.4 54.2068C38.586 54.6478 36.498 50.0968 35.7 49.1788C35.5046 48.9927 35.2469 48.8857 34.977 48.8788C34.803 48.8788 34.641 48.9478 34.467 48.9448C34.2888 48.9291 34.1154 48.8781 33.9571 48.7948C33.5251 48.6028 32.787 48.3748 32.667 49.0438C32.61 49.3438 32.7511 49.6438 32.7571 49.9438C32.7173 50.2297 32.6214 50.505 32.475 50.7538C32.2261 51.3928 32.8231 51.9538 33.2401 52.3798C33.7588 52.9065 34.323 53.3863 34.926 53.8138C35.298 54.0838 36.726 55.0138 37.113 55.2538C36.618 55.0018 35.085 54.0538 34.602 53.7718C34.284 53.5888 33.9721 53.3968 33.6661 53.1988C33.3601 53.0008 33.117 52.8028 32.826 52.6438C32.5901 52.527 32.326 52.4791 32.064 52.5058C31.7078 52.4731 31.3554 52.4078 31.0111 52.3108C30.8251 52.2808 30.4801 52.1638 30.3451 52.3528C30.2311 52.4728 30.3001 52.6828 30.3961 52.8178Z" fill="#222221"/>
</g>
<path d="M38.526 48.7561C38.526 48.7291 38.571 48.7291 38.568 48.7561C38.541 49.2817 38.541 49.8084 38.568 50.3341C38.566 50.3401 38.5622 50.3453 38.5571 50.349C38.552 50.3527 38.5458 50.3547 38.5395 50.3547C38.5332 50.3547 38.527 50.3527 38.5219 50.349C38.5168 50.3453 38.513 50.3401 38.511 50.3341C38.4255 49.8111 38.4306 49.2773 38.526 48.7561Z" fill="white"/>
<path d="M33.93 50.8828C34.0695 50.9888 34.1991 51.1073 34.317 51.2368C34.317 51.2548 34.317 51.2878 34.287 51.2728C34.1492 51.1615 34.0217 51.038 33.906 50.9038C33.9 50.8888 33.9 50.8678 33.93 50.8828Z" fill="white"/>
<path d="M32.772 53.4001L32.982 53.5441C33.012 53.5621 32.982 53.6071 32.958 53.5861L32.757 53.4301C32.739 53.4241 32.754 53.4001 32.772 53.4001Z" fill="white"/>
<path d="M37.935 56.4002C38.562 56.6312 39.294 56.7842 39.666 57.3992C39.6726 57.4101 39.6829 57.4183 39.6949 57.4223C39.707 57.4264 39.7201 57.426 39.7319 57.4214C39.7438 57.4167 39.7536 57.408 39.7596 57.3968C39.7657 57.3857 39.7676 57.3727 39.765 57.3602C39.663 56.8802 40.281 54.3602 39.894 54.3062C39.66 54.2702 39.528 54.9842 39.201 54.9332C39.063 54.9122 38.901 54.6872 38.802 54.5942C38.6754 54.4681 38.5411 54.3499 38.4 54.2402C38.268 54.1412 38.076 54.0512 37.929 54.1712C37.782 54.2912 37.83 54.5852 37.884 54.7712C37.938 54.9572 37.989 55.0712 38.043 55.2002C38.097 55.3292 38.247 55.6052 37.968 55.6322C37.7273 55.6116 37.4849 55.6319 37.251 55.6922C36.714 55.9172 37.746 56.3222 37.935 56.4002Z" fill="#455A64"/>
<path d="M44.559 64.6798H44.535L44.106 64.6168C44.028 64.6168 43.947 64.6168 43.869 64.6168C43.758 64.3168 43.635 64.0528 43.503 63.7798C43.434 63.6298 43.359 63.4798 43.284 63.3298C43.032 62.8378 42.76 62.3618 42.468 61.9018C41.526 60.4018 40.53 58.9678 39.702 57.4288C39.44 56.9428 39.198 56.4428 38.976 55.9288C38.958 55.8928 38.946 55.8568 38.931 55.8238C38.871 55.6768 38.808 55.5238 38.751 55.3738C38.751 55.3378 38.793 55.3138 38.811 55.3498C38.856 55.4608 38.904 55.5688 38.958 55.6798C38.958 55.7098 38.985 55.7398 38.997 55.7668C39.009 55.7938 38.997 55.7668 38.997 55.7668C38.997 55.7668 39.021 55.8208 39.036 55.8478C39.2495 56.2925 39.4889 56.7242 39.753 57.1408C40.467 58.2928 41.322 59.3698 42.132 60.4708C42.192 60.5518 42.252 60.6328 42.309 60.7168C42.8356 61.4207 43.3157 62.1583 43.746 62.9248C44.0585 63.4897 44.3302 64.0762 44.559 64.6798Z" fill="#455A64"/>
<path d="M43.7551 63.7258C43.7551 63.7258 41.955 62.0758 40.7251 61.6258C39.4951 61.1758 37.326 61.2508 37.326 61.2508C38.0601 62.222 39.0512 62.9685 40.1873 63.4059C41.3234 63.8432 42.5592 63.9541 43.7551 63.7258Z" fill="#455A64"/>
<path d="M42.195 60.8459C42.195 60.8459 41.775 58.4459 42.063 57.1649C42.351 55.8839 43.581 54.0989 43.581 54.0989C44.0033 55.2407 44.0973 56.478 43.8524 57.6705C43.6074 58.863 43.0332 59.963 42.195 60.8459Z" fill="#455A64"/>
<path d="M43.827 45.6781C44.211 45.5851 44.466 46.3921 44.535 46.6411C44.6923 47.3035 44.6116 48.0002 44.307 48.6091C44.295 48.6563 44.2747 48.701 44.247 48.7411C44.247 48.7411 44.247 48.7411 44.247 48.7591C44.247 48.7771 44.247 48.7591 44.247 48.7591L44.208 48.7981C44.1905 48.814 44.1689 48.8249 44.1457 48.8297C44.1225 48.8344 44.0984 48.8328 44.076 48.8251C43.581 48.6091 43.605 47.9011 43.611 47.4631C43.599 47.1931 43.374 45.7891 43.827 45.6781Z" fill="#16967D"/>
<g style="mix-blend-mode:multiply" opacity="0.2">
<path d="M43.827 45.6781C44.211 45.5851 44.466 46.3921 44.535 46.6411C44.6923 47.3035 44.6116 48.0002 44.307 48.6091C44.295 48.6563 44.2747 48.701 44.247 48.7411C44.247 48.7411 44.247 48.7411 44.247 48.7591C44.247 48.7771 44.247 48.7591 44.247 48.7591L44.208 48.7981C44.1905 48.814 44.1689 48.8249 44.1457 48.8297C44.1225 48.8344 44.0984 48.8328 44.076 48.8251C43.581 48.6091 43.605 47.9011 43.611 47.4631C43.599 47.1931 43.374 45.7891 43.827 45.6781Z" fill="#222221"/>
</g>
<path d="M41.265 49.9619C41.031 50.6189 41.469 51.2549 41.865 51.7229C42.018 51.9029 42.483 52.4129 42.681 52.1519C42.6964 52.1547 42.7124 52.1516 42.7257 52.1433C42.739 52.135 42.7488 52.122 42.753 52.1069C42.8129 51.8435 42.7823 51.5676 42.666 51.3239C42.513 50.9099 42.366 50.4809 42.171 50.0789C41.976 49.6769 41.475 49.3859 41.265 49.9619Z" fill="#16967D"/>
<g style="mix-blend-mode:multiply" opacity="0.2">
<path d="M41.265 49.9619C41.031 50.6189 41.469 51.2549 41.865 51.7229C42.018 51.9029 42.483 52.4129 42.681 52.1519C42.6964 52.1547 42.7124 52.1516 42.7257 52.1433C42.739 52.135 42.7488 52.122 42.753 52.1069C42.8129 51.8435 42.7823 51.5676 42.666 51.3239C42.513 50.9099 42.366 50.4809 42.171 50.0789C41.976 49.6769 41.475 49.3859 41.265 49.9619Z" fill="#222221"/>
</g>
<path d="M49.1131 56.898C48.8722 57.8707 48.3111 58.734 47.5201 59.349C47.5585 60.3612 47.4759 61.3744 47.2741 62.367C47.1541 62.454 47.0431 62.55 46.9351 62.646C46.9891 62.388 47.0341 62.133 47.0731 61.872C47.0741 61.8641 47.0741 61.856 47.0731 61.848C45.4501 60.993 44.7241 59.34 44.1151 57.669C44.1631 57.669 46.6831 58.725 47.1481 61.425C47.2906 60.1465 47.2573 58.8545 47.0491 57.585C46.3651 55.587 44.6491 54.162 42.9871 52.848C42.6853 52.648 42.4305 52.3849 42.2401 52.077C42.2276 52.0562 42.2175 52.0341 42.2101 52.011C42.1441 51.852 42.0631 51.507 42.2761 51.411C42.4891 51.315 42.6601 51.582 42.7651 51.729C42.7818 51.7509 42.7968 51.7739 42.8101 51.798C43.1101 52.212 43.3771 52.647 43.6411 53.079C44.2689 53.548 44.8615 54.0624 45.4141 54.618C45.987 55.1952 46.4695 55.8557 46.8451 56.577C46.8181 56.469 46.7971 56.361 46.7701 56.25C46.3521 54.7131 45.7476 53.2331 44.9701 51.843C44.623 51.2469 44.3221 50.6251 44.0701 49.983C43.8924 49.5305 43.7959 49.0501 43.7851 48.564C43.7889 48.4468 43.8091 48.3307 43.8451 48.219C43.9261 47.97 44.1451 47.856 44.3161 48.105C44.3771 48.2072 44.4131 48.3223 44.4211 48.441C44.4451 48.672 44.4211 48.93 44.4211 49.101C44.4481 49.542 44.4691 49.986 44.4841 50.43C44.6281 50.73 44.7841 51.003 44.9461 51.285C45.846 52.7633 46.5518 54.3514 47.0461 56.01C47.2423 56.7262 47.3837 57.4564 47.4691 58.194C47.5334 57.613 47.6447 57.0381 47.8021 56.475C48.0331 55.638 49.0171 54.18 49.0261 54.174C49.292 55.0589 49.322 55.998 49.1131 56.898Z" fill="#455A64"/>
<g style="mix-blend-mode:multiply" opacity="0.1">
<g style="mix-blend-mode:multiply" opacity="0.1">
<path d="M37.89 69.3301C38.1011 68.2237 38.6553 67.2118 39.474 66.4381C40.0782 65.8452 40.7913 65.3746 41.574 65.0521L41.964 64.8901L42.378 64.7671C42.9351 64.613 43.5155 64.5611 44.091 64.6141L44.52 64.6741C44.661 64.6951 44.799 64.7431 44.937 64.7761L45.144 64.8331L45.345 64.9081C45.474 64.9621 45.612 65.0071 45.738 65.0731C46.749 65.5582 47.6126 66.3038 48.24 67.2331C47.4748 66.4737 46.5675 65.8723 45.57 65.4631C44.5997 65.076 43.5296 65.0159 42.522 65.2921C41.503 65.5755 40.5561 66.0725 39.744 66.7501C38.9227 67.4441 38.2858 68.3304 37.89 69.3301Z" fill="#222221"/>
</g>
<g style="mix-blend-mode:multiply" opacity="0.1">
<path d="M53.2919 61.767C52.5204 61.6542 51.739 61.6231 50.9609 61.674C50.2027 61.7199 49.4561 61.8818 48.7469 62.154C48.044 62.4361 47.3976 62.8426 46.8389 63.354C46.2751 63.893 45.7776 64.4972 45.3569 65.154C45.5953 64.3778 45.9973 63.6617 46.5359 63.054C46.8118 62.7487 47.1207 62.4751 47.4569 62.238C47.7997 62.0084 48.1645 61.8134 48.5459 61.656C50.0847 61.0857 51.7839 61.1286 53.2919 61.776V61.767Z" fill="#222221"/>
</g>
<g style="mix-blend-mode:multiply" opacity="0.1">
<path d="M35.1 65.4212C35.4486 65.1654 35.8543 64.9986 36.282 64.9352C36.7183 64.8591 37.166 64.8807 37.593 64.9982C38.0227 65.1114 38.4189 65.3265 38.748 65.6252C38.9122 65.7677 39.0583 65.9299 39.183 66.1082C39.3003 66.2854 39.4008 66.4732 39.483 66.6692C39.3 66.5492 39.153 66.4082 38.985 66.2942C38.8258 66.1765 38.6606 66.0674 38.49 65.9672C38.1636 65.7707 37.8111 65.6213 37.443 65.5232C37.0721 65.4221 36.6903 65.3667 36.306 65.3582C35.903 65.3517 35.5001 65.3728 35.1 65.4212Z" fill="#222221"/>
</g>
</g>
<g style="mix-blend-mode:multiply" opacity="0.1">
<g style="mix-blend-mode:multiply" opacity="0.1">
<path d="M53.577 75.3243C54.2022 74.9399 54.8926 74.6735 55.614 74.5383C56.343 74.3938 57.0906 74.3675 57.828 74.4603C58.1959 74.5119 58.5598 74.5891 58.917 74.6913C59.2702 74.8083 59.6133 74.9538 59.943 75.1263C60.5947 75.4657 61.1768 75.9247 61.659 76.4793C61.0568 76.1036 60.4235 75.7804 59.766 75.5133C59.4426 75.386 59.112 75.2778 58.776 75.1893C58.4412 75.1055 58.1015 75.0424 57.759 75.0003C57.0685 74.9112 56.3704 74.8972 55.677 74.9583C54.9681 75.0221 54.2657 75.1445 53.577 75.3243Z" fill="#222221"/>
</g>
<g style="mix-blend-mode:multiply" opacity="0.1">
<path d="M59.118 79.5C59.5292 78.3307 60.2674 77.304 61.245 76.542C62.2322 75.7647 63.4065 75.2608 64.65 75.081C65.894 74.8755 67.1708 75.0284 68.331 75.522C68.9029 75.7716 69.4307 76.112 69.894 76.53C70.3558 76.9353 70.7427 77.4186 71.037 77.958C70.6586 77.4922 70.2174 77.0813 69.726 76.737C69.2484 76.3926 68.7254 76.116 68.172 75.915C67.6238 75.719 67.0516 75.5979 66.471 75.555C66.3267 75.5375 66.1813 75.5304 66.036 75.534H65.601C65.301 75.567 65.019 75.579 64.731 75.627L64.299 75.702C64.227 75.702 64.155 75.726 64.083 75.744L63.873 75.801L63.453 75.918C63.315 75.966 63.18 76.023 63.042 76.071C62.7691 76.1739 62.5026 76.2931 62.244 76.428C61.995 76.581 61.731 76.713 61.497 76.887C60.5174 77.5678 59.7042 78.461 59.118 79.5Z" fill="#222221"/>
</g>
<g style="mix-blend-mode:multiply" opacity="0.1">
<path d="M71.037 77.9518C70.6586 77.486 70.2174 77.0751 69.726 76.7308C69.249 76.3862 68.7258 76.1105 68.172 75.9118C67.6253 75.7137 67.0539 75.5916 66.474 75.5488C66.3287 75.5314 66.1823 75.5244 66.036 75.5278H65.601C65.301 75.5608 65.019 75.5668 64.731 75.6178L64.299 75.6928C64.227 75.6928 64.155 75.7168 64.083 75.7348L63.873 75.7948L63.45 75.9118C63.315 75.9538 63.18 76.0138 63.042 76.0648C62.807 76.1479 62.5783 76.2482 62.358 76.3648L62.244 76.4188L61.971 76.5748C61.808 76.6667 61.6498 76.7668 61.497 76.8748C60.5167 77.5573 59.7034 78.4526 59.118 79.4938C59.5282 78.3248 60.2667 77.2989 61.245 76.5388C61.4184 76.3936 61.6008 76.2593 61.791 76.1368C61.911 76.0618 62.034 75.9868 62.157 75.9178C62.9331 75.4956 63.7766 75.2114 64.65 75.0778C65.8936 74.8691 67.171 75.0211 68.331 75.5158C68.9018 75.7658 69.4285 76.1062 69.891 76.5238C70.3544 76.9283 70.7424 77.4118 71.037 77.9518Z" fill="#222221"/>
</g>
</g>
<path d="M54.792 67.1191C55.4571 67.6753 56.1587 68.1865 56.892 68.6491C57.2353 68.8961 57.5974 69.1158 57.975 69.3061C58.1849 69.4063 58.4208 69.4388 58.65 69.3991C58.7755 69.3988 58.8964 69.3518 58.989 69.2671C59.0099 69.2498 59.0255 69.2269 59.034 69.2011C59.424 68.9551 59.61 68.4901 59.793 68.0581C60.1602 67.1969 60.4377 66.3002 60.621 65.3821C60.687 65.0491 60.825 64.6201 60.729 64.2781C60.666 64.0711 60.555 64.0321 60.429 63.8971C60.129 63.5821 60.168 63.2491 59.97 62.8861C59.9282 62.7847 59.8594 62.6966 59.7711 62.6316C59.6828 62.5665 59.5783 62.5269 59.469 62.5171C58.914 62.5171 58.785 63.5851 58.686 63.9601C58.4785 64.7366 58.338 65.5295 58.266 66.3301C58.1853 67.0512 58.1693 67.7781 58.218 68.5021C57.6888 67.2889 56.9876 66.1583 56.136 65.1451C55.836 64.7791 55.35 64.1791 54.801 64.2691C54.579 64.3051 54.573 64.4671 54.417 64.5691C54.087 64.7551 53.817 64.4551 53.493 64.5541C52.278 64.9051 54.444 66.8311 54.792 67.1191Z" fill="#16967D"/>
<g style="mix-blend-mode:multiply" opacity="0.3">
<path d="M54.792 67.1191C55.4571 67.6753 56.1587 68.1865 56.892 68.6491C57.2353 68.8961 57.5974 69.1158 57.975 69.3061C58.1849 69.4063 58.4208 69.4388 58.65 69.3991C58.7755 69.3988 58.8964 69.3518 58.989 69.2671C59.0099 69.2498 59.0255 69.2269 59.034 69.2011C59.424 68.9551 59.61 68.4901 59.793 68.0581C60.1602 67.1969 60.4377 66.3002 60.621 65.3821C60.687 65.0491 60.825 64.6201 60.729 64.2781C60.666 64.0711 60.555 64.0321 60.429 63.8971C60.129 63.5821 60.168 63.2491 59.97 62.8861C59.9282 62.7847 59.8594 62.6966 59.7711 62.6316C59.6828 62.5665 59.5783 62.5269 59.469 62.5171C58.914 62.5171 58.785 63.5851 58.686 63.9601C58.4785 64.7366 58.338 65.5295 58.266 66.3301C58.1853 67.0512 58.1693 67.7781 58.218 68.5021C57.6888 67.2889 56.9876 66.1583 56.136 65.1451C55.836 64.7791 55.35 64.1791 54.801 64.2691C54.579 64.3051 54.573 64.4671 54.417 64.5691C54.087 64.7551 53.817 64.4551 53.493 64.5541C52.278 64.9051 54.444 66.8311 54.792 67.1191Z" fill="#222221"/>
</g>
<path d="M56.295 63.2489C56.811 65.0099 57.432 66.7379 57.918 68.5079C57.933 68.5499 58.008 68.5319 57.996 68.4899C57.657 66.8849 57.096 65.3459 56.607 63.7829C56.3446 63.0125 56.1803 62.2122 56.118 61.4009C56.091 60.8489 56.145 60.3539 55.848 59.8799C55.8366 59.8592 55.8198 59.842 55.7995 59.8301C55.7792 59.8181 55.7561 59.8118 55.7325 59.8118C55.7089 59.8118 55.6857 59.8181 55.6654 59.8301C55.6451 59.842 55.6284 59.8592 55.617 59.8799C55.317 60.3659 55.788 61.2059 56.028 61.7489C56.0648 62.2568 56.1543 62.7595 56.295 63.2489Z" fill="#263238"/>
<path d="M59.511 63.5999C59.829 65.1899 59.673 66.8309 59.583 68.4359C59.583 68.4439 59.5861 68.4515 59.5917 68.4572C59.5974 68.4628 59.605 68.4659 59.613 68.4659C59.6209 68.4659 59.6285 68.4628 59.6342 68.4572C59.6398 68.4515 59.643 68.4439 59.643 68.4359C59.997 66.3359 59.904 63.9359 59.124 61.9379C59.055 61.7609 58.584 60.6599 58.266 60.9419C58.098 61.0949 58.353 61.4339 58.434 61.5419C58.7344 61.8999 59.0158 62.2734 59.277 62.6609C59.382 62.9999 59.454 63.2999 59.511 63.5999Z" fill="#263238"/>
<path d="M53.559 63.0658C53.5807 63.8033 53.7447 64.5296 54.042 65.2048C54.6744 66.6341 55.5769 67.9278 56.7 69.0148C56.724 69.0388 56.769 68.9968 56.745 68.9698C55.731 67.8088 54.738 66.6088 54.153 65.1628C53.9978 64.7884 53.8763 64.4008 53.79 64.0048C53.79 63.9778 53.775 63.9448 53.766 63.9118C53.757 63.8788 53.766 63.9118 53.766 63.8908C53.7873 63.4462 53.8588 63.0054 53.979 62.5768C54.03 62.3758 54.102 62.0278 53.952 61.9768C53.577 62.0188 53.562 62.7988 53.559 63.0658Z" fill="#263238"/>
<path d="M53.418 68.1748C54.84 69.3268 56.673 69.9508 58.218 70.9198C58.569 71.1418 58.911 71.3788 59.25 71.6218C59.3523 71.7051 59.4595 71.7823 59.571 71.8528C59.6405 71.8951 59.7206 71.917 59.802 71.9158C59.8367 71.9182 59.8715 71.9131 59.904 71.9008C59.962 71.8788 60.014 71.8435 60.0557 71.7976C60.0974 71.7517 60.1277 71.6966 60.144 71.6368C60.2197 71.3891 60.2541 71.1307 60.246 70.8718C60.318 70.6048 60.411 70.3408 60.48 70.1068C60.58 69.7608 60.688 69.4188 60.804 69.0808C61.053 68.3578 61.368 67.6678 61.683 66.9808C61.974 66.4003 62.1763 65.7793 62.283 65.1388C62.328 64.7968 62.394 64.1548 62.133 63.8788C61.872 63.6028 61.668 63.7798 61.533 64.0108C61.398 64.2418 61.344 64.5028 61.233 64.7278C61.047 65.0728 60.825 65.0698 60.543 65.2558C60.3713 65.3922 60.2306 65.5636 60.1302 65.7586C60.0299 65.9536 59.9722 66.1678 59.961 66.3868C59.919 66.7348 59.898 67.0888 59.883 67.4398C59.835 67.1098 59.775 66.7858 59.709 66.4648C59.592 65.8888 59.502 65.1778 59.175 64.6648C59.0724 64.4982 58.9328 64.3576 58.767 64.2538C58.404 64.0769 58.0937 63.808 57.867 63.4738C57.642 63.1168 57.384 62.4988 56.883 62.4868C56.382 62.4748 56.346 62.9758 56.25 63.3358C56.07 64.0048 55.449 64.2748 55.446 65.0368C55.446 65.6578 55.77 66.2518 56.061 66.7798C56.2881 67.1962 56.5427 67.5971 56.823 67.9798C56.4194 67.6275 55.9704 67.3309 55.488 67.0978C55.2846 66.9769 55.0526 66.9127 54.816 66.9118C54.471 66.9418 54.414 67.1488 54.006 67.0258C53.706 66.9358 53.058 66.5848 52.806 66.9958C52.554 67.4068 53.139 67.9468 53.418 68.1748Z" fill="#16967D"/>
<g style="mix-blend-mode:multiply" opacity="0.1">
<path d="M53.418 68.1748C54.84 69.3268 56.673 69.9508 58.218 70.9198C58.569 71.1418 58.911 71.3788 59.25 71.6218C59.3523 71.7051 59.4595 71.7823 59.571 71.8528C59.6405 71.8951 59.7206 71.917 59.802 71.9158C59.8367 71.9182 59.8715 71.9131 59.904 71.9008C59.962 71.8788 60.014 71.8435 60.0557 71.7976C60.0974 71.7517 60.1277 71.6966 60.144 71.6368C60.2197 71.3891 60.2541 71.1307 60.246 70.8718C60.318 70.6048 60.411 70.3408 60.48 70.1068C60.58 69.7608 60.688 69.4188 60.804 69.0808C61.053 68.3578 61.368 67.6678 61.683 66.9808C61.974 66.4003 62.1763 65.7793 62.283 65.1388C62.328 64.7968 62.394 64.1548 62.133 63.8788C61.872 63.6028 61.668 63.7798 61.533 64.0108C61.398 64.2418 61.344 64.5028 61.233 64.7278C61.047 65.0728 60.825 65.0698 60.543 65.2558C60.3713 65.3922 60.2306 65.5636 60.1302 65.7586C60.0299 65.9536 59.9722 66.1678 59.961 66.3868C59.919 66.7348 59.898 67.0888 59.883 67.4398C59.835 67.1098 59.775 66.7858 59.709 66.4648C59.592 65.8888 59.502 65.1778 59.175 64.6648C59.0724 64.4982 58.9328 64.3576 58.767 64.2538C58.404 64.0769 58.0937 63.808 57.867 63.4738C57.642 63.1168 57.384 62.4988 56.883 62.4868C56.382 62.4748 56.346 62.9758 56.25 63.3358C56.07 64.0048 55.449 64.2748 55.446 65.0368C55.446 65.6578 55.77 66.2518 56.061 66.7798C56.2881 67.1962 56.5427 67.5971 56.823 67.9798C56.4194 67.6275 55.9704 67.3309 55.488 67.0978C55.2846 66.9769 55.0526 66.9127 54.816 66.9118C54.471 66.9418 54.414 67.1488 54.006 67.0258C53.706 66.9358 53.058 66.5848 52.806 66.9958C52.554 67.4068 53.139 67.9468 53.418 68.1748Z" fill="#222221"/>
</g>
<path d="M61.134 66.8426C61.134 66.8426 61.134 66.8635 61.134 66.8605C61.134 66.8575 61.122 66.8367 61.134 66.8426Z" fill="#F1D1C5"/>
<path d="M54.723 68.343C56.1 69.6 58.836 69.9 59.58 71.769V71.853C59.6495 71.8953 59.7296 71.9172 59.811 71.916C60.15 71.37 60.153 70.695 60.243 70.062C60.3565 69.1012 60.5913 68.1587 60.942 67.257C60.942 67.233 60.918 67.218 60.903 67.242C60.5611 67.9242 60.3177 68.6514 60.18 69.402C60.027 70.155 60.072 71.118 59.718 71.826C59.7166 71.8 59.7166 71.774 59.718 71.748C59.874 70.884 59.676 69.948 59.46 69.129C59.181 68.058 58.764 67.029 58.392 65.994C58.392 65.952 58.317 65.994 58.329 66.024C58.629 67.035 58.962 68.046 59.229 69.066C59.4127 69.6889 59.5373 70.3277 59.601 70.974C59.079 68.829 56.955 67.266 56.601 65.058C56.5986 65.0491 56.5933 65.0413 56.586 65.0357C56.5787 65.0301 56.5697 65.0271 56.5605 65.0271C56.5513 65.0271 56.5424 65.0301 56.535 65.0357C56.5277 65.0413 56.5224 65.0491 56.52 65.058C56.868 67.401 59.016 69.048 59.52 71.313C59.4097 71.1151 59.2712 70.9342 59.109 70.776C58.7977 70.335 58.4226 69.9428 57.996 69.612C57.3 69.072 56.496 68.73 55.833 68.142C55.809 68.118 55.773 68.142 55.794 68.184C56.277 68.784 56.994 69.084 57.609 69.51C57.9816 69.7629 58.3256 70.0557 58.635 70.383C58.4358 70.2419 58.2284 70.1127 58.014 69.996C56.94 69.396 55.785 68.988 54.765 68.271C54.7603 68.2682 54.7551 68.2664 54.7496 68.2657C54.7442 68.2649 54.7387 68.2653 54.7334 68.2667C54.7227 68.2695 54.7136 68.2764 54.708 68.286C54.7024 68.2955 54.7009 68.3069 54.7037 68.3176C54.7065 68.3283 54.7135 68.3374 54.723 68.343Z" fill="white"/>
<path d="M61.4521 65.6609C61.4535 65.904 61.3959 66.1439 61.2841 66.3599C61.2841 66.3779 61.2451 66.3599 61.2511 66.3599C61.3209 66.1376 61.3652 65.9082 61.3831 65.6759C61.3891 65.6249 61.4491 65.6189 61.4521 65.6609Z" fill="white"/>
<path d="M56.586 64.3018C56.586 64.4338 56.565 64.5688 56.565 64.7038C56.565 64.7458 56.502 64.7428 56.493 64.7038C56.4558 64.5675 56.4611 64.4231 56.508 64.2898C56.523 64.2598 56.583 64.2568 56.586 64.3018Z" fill="white"/>
<path d="M54.201 67.7548C54.2614 67.8018 54.3186 67.8529 54.372 67.9078C54.3756 67.9124 54.3777 67.918 54.3781 67.9239C54.3785 67.9297 54.3772 67.9356 54.3743 67.9407C54.3714 67.9458 54.3671 67.9499 54.3619 67.9526C54.3567 67.9553 54.3508 67.9564 54.345 67.9558C54.2625 67.9361 54.1906 67.8857 54.144 67.8148C54.114 67.7788 54.165 67.7218 54.201 67.7548Z" fill="white"/>
<path d="M60.528 70.9412C60.369 71.5412 60.117 72.1412 60.309 72.7892C60.327 72.8432 60.27 72.8822 60.24 72.8342C60 72.4652 58.194 71.3642 58.341 71.0522C58.428 70.8632 58.923 71.2082 59.046 70.9412C59.0772 70.7787 59.0772 70.6117 59.046 70.4492C59.046 70.2842 59.025 70.1162 59.028 69.9512C59.031 69.7862 59.067 69.6062 59.208 69.5732C59.349 69.5402 59.508 69.7562 59.586 69.9032C59.664 70.0502 59.709 70.1522 59.769 70.2782C59.829 70.4042 59.916 70.6742 60.069 70.4912C60.222 70.3082 60.27 70.1222 60.444 70.0172C60.819 69.7772 60.576 70.7612 60.528 70.9412Z" fill="#455A64"/>
<path d="M62.157 75.918C62.034 75.987 61.911 76.062 61.791 76.137L61.773 76.092C61.374 75.192 60.894 74.31 60.489 73.392C60.1083 72.516 59.8431 71.5943 59.7 70.65C59.7 70.65 59.7 70.635 59.7 70.65C60 72.327 61.095 73.866 61.866 75.354C61.974 75.534 62.07 75.726 62.157 75.918Z" fill="#455A64"/>
<path d="M61.581 75.5339C61.581 75.5339 61.341 72.9599 61.758 71.6339C62.175 70.3079 63.63 68.5229 63.63 68.5229C63.9758 69.7664 63.9672 71.0818 63.6052 72.3206C63.2431 73.5595 62.542 74.6724 61.581 75.5339Z" fill="#455A64"/>
<path d="M98.6341 116.121C99.1861 116.304 114.891 116.259 115.488 115.878C115.713 115.737 115.842 113.448 115.917 110.679C115.933 110.079 115.946 109.465 115.956 108.837C115.956 108.093 115.977 107.337 115.98 106.611C116.001 103.332 115.956 100.443 115.956 100.443H105.729V106.611V108.837L105.783 110.679C105.783 110.679 99.7831 113.379 99.1651 113.874C98.5471 114.369 98.1001 115.941 98.6341 116.121Z" fill="#F7A9A0"/>
<path d="M115.932 110.076C115.932 110.28 115.932 110.481 115.917 110.676C115.842 113.445 115.713 115.734 115.488 115.875C114.888 116.256 99.186 116.301 98.634 116.118C98.082 115.935 98.568 114.357 99.174 113.871C99.501 113.61 101.373 112.713 103.041 111.936C102.534 112.392 101.841 113.085 102.033 113.331C102.537 113.997 112.707 112.602 115.464 110.385C115.608 110.265 115.765 110.162 115.932 110.076Z" fill="#263238"/>
<path d="M119.364 56.8745C119.364 56.8745 116.601 84.2045 116.538 84.5495C116.538 84.5945 116.508 85.1225 116.481 85.9775C116.331 90.6845 115.965 105.355 115.965 105.355H104.7C104.7 105.355 105.435 87.9785 105.858 83.9255C106.395 78.7535 109.788 56.8745 109.788 56.8745H119.364Z" fill="#37474F"/>
<path d="M115.2 85.5001C115.548 79.5781 116.071 73.6701 116.769 67.7761C117.165 64.4581 117.642 61.1491 118.116 57.8371C118.116 57.8101 118.164 57.8101 118.161 57.8371C117.288 63.7291 116.661 69.6661 116.139 75.5971C115.617 81.5281 115.239 87.4591 114.993 93.3991C114.855 96.7681 114.75 100.137 114.642 103.503C114.642 103.52 114.635 103.536 114.624 103.548C114.612 103.56 114.596 103.566 114.579 103.566C114.562 103.566 114.546 103.56 114.534 103.548C114.523 103.536 114.516 103.52 114.516 103.503C114.666 97.5002 114.84 91.5001 115.2 85.5001Z" fill="#263238"/>
<path d="M105.402 103.536C105.702 103.497 109.128 103.446 110.445 103.446C111.57 103.446 115.101 103.536 115.488 103.533C115.518 103.533 115.515 103.563 115.488 103.569C115.026 103.641 113.016 103.695 110.859 103.695C109.545 103.695 105.573 103.602 105.402 103.581C105.397 103.579 105.394 103.576 105.391 103.572C105.388 103.568 105.386 103.563 105.386 103.559C105.386 103.554 105.388 103.549 105.391 103.545C105.394 103.541 105.397 103.538 105.402 103.536Z" fill="#263238"/>
<path d="M119.364 56.8745C119.364 56.8745 116.601 84.2045 116.538 84.5495C116.538 84.5945 116.508 85.1225 116.481 85.9775L111.165 56.8775L119.364 56.8745Z" fill="#263238"/>
<path d="M120.06 116.226C120.639 116.259 135.795 112.143 136.26 111.621C136.443 111.423 135.96 109.182 135.327 106.488C135.189 105.906 135.066 105.288 134.886 104.688C134.661 103.935 134.427 103.188 134.19 102.459C133.179 99.3183 132.204 96.7173 132.204 96.7173L122.604 99.2943L124.314 104.994L125.013 107.334L125.541 109.101C125.541 109.101 120.441 113.271 119.979 113.901C119.517 114.531 119.484 116.19 120.06 116.226Z" fill="#F7A9A0"/>
<path d="M136.272 111.621C135.795 112.143 120.639 116.259 120.057 116.226C119.475 116.193 119.538 114.54 119.997 113.913C120.279 113.532 122.262 111.846 123.78 110.583C123.342 111.099 122.658 111.978 122.88 112.209C123.462 112.782 132.903 110.109 135.582 107.562C136.098 109.755 136.428 111.45 136.272 111.621Z" fill="#263238"/>
<path d="M109.779 56.8742C109.779 56.8742 110.523 60.8192 113.277 62.8292C113.277 62.8292 117.156 84.1562 117.645 86.5682C118.593 91.2572 122.586 104.64 122.586 104.64L134.1 101.124C134.1 101.124 129.132 84.9722 128.466 83.2772C128.103 82.3532 125.319 64.6772 125.376 64.2602C126.054 59.2112 123.657 56.8472 123.657 56.8472L109.779 56.8742Z" fill="#37474F"/>
<path d="M118.908 57.7532C119.137 58.5471 119.623 59.2431 120.288 59.7332C121.022 60.2554 121.893 60.5535 122.793 60.5912C122.943 60.5912 122.955 60.8342 122.793 60.8342C120.957 60.8342 119.097 59.6702 118.83 57.7652C118.827 57.7202 118.896 57.7112 118.908 57.7532Z" fill="#263238"/>
<path d="M111.513 61.578C112.18 61.8462 112.816 62.184 113.412 62.586C114.042 62.976 114.612 63.432 115.236 63.855C115.239 63.8588 115.241 63.8637 115.242 63.8688C115.242 63.8739 115.241 63.8789 115.238 63.8833C115.236 63.8876 115.232 63.891 115.227 63.893C115.222 63.8949 115.217 63.8952 115.212 63.894C114.576 63.528 113.91 63.207 113.277 62.829C112.642 62.4838 112.04 62.0822 111.477 61.629C111.465 61.608 111.486 61.569 111.513 61.578Z" fill="#263238"/>
<path d="M111.255 57.7472C111.354 58.1672 111.474 58.5812 111.585 59.0012C111.696 59.4212 111.771 59.7932 111.885 60.1802C111.989 60.5556 112.197 60.8937 112.485 61.1552C112.647 61.2902 112.824 61.4102 112.995 61.5362L113.295 61.7342C113.295 61.6802 113.268 61.6232 113.253 61.5662C113.217 61.4072 113.184 61.2452 113.148 61.0862C113.073 60.7322 112.998 60.3752 112.929 60.0182C112.788 59.3192 112.656 58.6112 112.479 57.9182C112.479 57.9127 112.481 57.9073 112.485 57.9034C112.489 57.8994 112.494 57.8972 112.5 57.8972C112.506 57.8972 112.511 57.8994 112.515 57.9034C112.519 57.9073 112.521 57.9127 112.521 57.9182C112.728 58.6022 112.953 59.2772 113.139 59.9672C113.229 60.3032 113.574 61.9802 113.592 62.1002C113.61 62.2202 113.625 62.3462 113.634 62.4692C113.656 62.5939 113.662 62.721 113.652 62.8472C113.652 62.8802 113.61 62.8772 113.595 62.8472C113.539 62.7329 113.498 62.612 113.472 62.4872C113.436 62.3672 113.403 62.2472 113.376 62.1242L113.349 61.9922C113.178 61.8962 113.016 61.7702 112.857 61.6652C112.698 61.5602 112.509 61.4402 112.344 61.3142C112.04 61.0804 111.813 60.7606 111.693 60.3962C111.574 60.0043 111.488 59.6028 111.438 59.1962C111.363 58.7192 111.303 58.2392 111.213 57.7652C111.207 57.7292 111.249 57.7172 111.255 57.7472Z" fill="#263238"/>
<path d="M122.979 102.222C123.252 102.099 126.519 101.052 127.779 100.668C128.859 100.341 132.261 99.396 132.63 99.282C132.657 99.282 132.666 99.303 132.63 99.315C132.21 99.519 130.305 100.155 128.241 100.782C126.981 101.166 123.156 102.237 122.985 102.267C122.98 102.266 122.976 102.264 122.972 102.26C122.969 102.256 122.967 102.252 122.966 102.247C122.965 102.242 122.966 102.237 122.969 102.232C122.971 102.228 122.975 102.224 122.979 102.222Z" fill="#263238"/>
<path d="M129.207 90.3541C128.751 89.0281 128.289 87.7051 127.842 86.3761C127.4 85.0718 127.045 83.7399 126.777 82.3891C126.228 79.6351 125.754 76.8601 125.307 74.0851C125.083 72.6851 124.87 71.2771 124.668 69.8611C124.572 69.1651 124.477 68.4651 124.383 67.7611C124.293 67.0831 124.182 66.4081 124.146 65.7241C124.008 63.1981 124.908 60.5281 123.81 58.1161C123.687 57.8471 123.536 57.5917 123.36 57.3541C123.345 57.3331 123.309 57.3541 123.324 57.3781C124.788 59.6671 123.984 62.4481 123.942 64.9711C123.969 66.3536 124.105 67.7318 124.347 69.0931C124.547 70.4731 124.754 71.8511 124.968 73.2271C125.394 75.9891 125.864 78.7451 126.378 81.4951C126.603 82.8474 126.909 84.1849 127.296 85.5001C127.713 86.8261 128.196 88.1341 128.646 89.4481C129.57 92.1031 131.946 98.7481 132.063 99.0841C132.063 99.1111 132.12 99.0991 132.108 99.0691C131.208 96.4051 130.125 93.0241 129.207 90.3541Z" fill="#263238"/>
<path d="M114.426 42.2162C111.786 45.0032 105.375 48.1022 103.26 48.1022C100.86 48.1022 96.798 44.7572 93.75 41.9372C93.081 41.3192 97.203 35.2532 97.95 35.8892C99.795 37.4822 104.115 41.8322 104.784 41.9372C105.762 42.0902 109.704 41.0372 112.827 40.1552C116.289 39.1682 115.767 40.8002 114.426 42.2162Z" fill="#F7A9A0"/>
<path d="M95.9071 42.5402C96.7681 42.5402 98.9701 37.3142 98.5351 36.5402C98.3645 36.297 98.1628 36.0771 97.9351 35.8862C97.4039 34.7833 97.036 33.609 96.8431 32.4002C96.6601 30.9482 96.5581 28.7732 95.7721 28.8422C94.6291 28.9382 94.4311 31.7072 94.4131 33.3032C93.6631 32.8682 92.9761 32.5652 92.5111 32.5352C90.9661 32.4362 89.6491 39.2762 90.8131 40.3352C91.9771 41.3942 95.0461 42.5432 95.9071 42.5402Z" fill="#F7A9A0"/>
<path d="M89.1271 41.643C89.1271 41.643 90.8341 41.943 91.6741 41.064C94.2961 38.322 91.3231 29.757 89.8741 30.105C88.4251 30.453 87.0271 35.874 87.0271 35.874L89.1271 41.643ZM89.1931 40.806L87.5581 36.306C87.5581 36.306 88.7161 31.587 89.8411 31.317C90.9661 31.047 93.2161 38.217 91.1731 40.35C90.5191 41.043 89.1931 40.8 89.1931 40.8V40.806Z" fill="#37474F"/>
<path d="M74.856 37.377L75.381 40.038L73.107 41.361L74.856 37.377Z" fill="#455A64"/>
<path d="M83.4811 47.88L92.4001 43.932L85.1011 31.374L79.4011 33.957L83.4811 47.88Z" fill="#455A64"/>
<path d="M85.101 31.3741L85.587 30.0061L78.24 33.1681L79.401 33.9571L85.101 31.3741Z" fill="#37474F"/>
<path d="M81.4469 40.935L82.4039 44.205L74.8229 40.356L75.2639 39.429L81.4469 40.935Z" fill="#37474F"/>
<path d="M74.1 38.5894C73.263 37.7794 71.451 37.7104 71.442 38.4784C71.442 38.9014 72.09 39.0214 72.882 38.7214C73.2704 38.5756 73.6893 38.5302 74.1 38.5894Z" fill="#EBEBEB"/>
<path d="M72.8639 41.3132C72.1919 41.6132 71.7119 42.6362 72.1529 42.8132C72.3989 42.9182 72.6269 42.5702 72.6449 42.0392C72.6565 41.7828 72.7318 41.5333 72.8639 41.3132Z" fill="#EBEBEB"/>
<path d="M73.122 39.8999C72.6826 39.8129 72.23 39.8178 71.7927 39.9144C71.3554 40.0109 70.9428 40.197 70.581 40.4609C69.636 41.1449 69.081 42.5609 69.981 42.9119C70.329 43.0589 70.8209 42.7619 71.2019 42.2039C71.7809 41.3429 72.111 40.2359 73.122 39.8999Z" fill="#EBEBEB"/>
<path d="M94.857 33.1562C95.088 33.9272 94.047 33.7562 94.047 33.7562C94.047 33.7562 95.484 34.3562 95.412 35.2562C95.34 36.1562 94.092 35.8562 94.002 35.8562C94.08 35.8892 95.385 36.4832 95.223 37.3562C95.061 38.2292 93.84 37.8062 93.762 37.7762C93.825 37.8302 94.629 38.5502 94.362 39.1922C93.885 40.2962 91.776 38.5112 90.81 38.6342C90.81 38.6342 90.831 40.2932 90.81 40.3412C90.81 40.3412 88.77 38.6852 88.677 37.3712C88.6621 37.179 88.7135 36.9876 88.8227 36.8287C88.9319 36.6698 89.0922 36.5532 89.277 36.4982C89.277 36.4982 88.56 36.0392 88.677 35.3372C88.731 34.9802 89.355 34.7372 89.355 34.7372C89.1984 34.6244 89.0759 34.4707 89.0007 34.2929C88.9256 34.1151 88.9008 33.9201 88.929 33.7292C89.034 33.2372 89.646 33.0812 89.646 33.0812C89.646 33.0812 89.283 32.4542 89.553 31.9862C90.078 31.0412 94.368 31.5002 94.857 33.1562Z" fill="#F7A9A0"/>
<path d="M89.715 33.0422C89.715 33.0422 89.7 33.0212 89.715 33.0212C91.219 32.8157 92.7499 33.0731 94.104 33.7592C94.146 33.7832 94.128 33.8612 94.077 33.8462C92.6698 33.3677 91.2003 33.0969 89.715 33.0422Z" fill="#263238"/>
<path d="M89.3129 34.7252C89.3129 34.7252 89.3129 34.6982 89.3129 34.6952C90.9735 34.4862 92.654 34.8789 94.0499 35.8022C94.0979 35.8352 94.1099 35.9132 94.0499 35.8772C93.0749 35.2952 90.7079 34.7582 89.3129 34.7252Z" fill="#263238"/>
<path d="M93.8369 37.8658C92.4629 36.9658 90.9419 36.6178 89.3369 36.4738C89.3159 36.4738 89.3189 36.4438 89.3369 36.4408C90.1469 36.2968 91.1669 36.4948 91.9469 36.7168C92.6749 36.9093 93.3399 37.2889 93.8759 37.8178C93.8999 37.8388 93.8669 37.8838 93.8369 37.8658Z" fill="#263238"/>
<path d="M94.071 33.7441C94.122 33.7711 94.026 33.8161 94.071 33.8461C94.281 33.9661 95.484 34.8151 95.322 35.3131C95.193 35.7121 94.563 35.8141 94.308 35.7601L93.663 35.6221L94.221 35.9761C94.47 36.1309 94.692 36.3255 94.878 36.5521C94.9698 36.6521 95.0394 36.7703 95.0823 36.899C95.1252 37.0278 95.1405 37.1641 95.127 37.2991C95.1143 37.425 95.0584 37.5426 94.9686 37.6318C94.8789 37.721 94.761 37.7763 94.635 37.7881C94.3532 37.8111 94.0702 37.7615 93.813 37.6441L93.09 37.3441L93.672 37.8601C93.8341 38.0033 93.9772 38.1667 94.098 38.3461C94.2193 38.5122 94.2882 38.7107 94.296 38.9161C94.2966 39.0083 94.2714 39.0988 94.2231 39.1773C94.1748 39.2558 94.1055 39.3191 94.023 39.3601C93.824 39.4251 93.6104 39.4314 93.408 39.3781C92.9687 39.2718 92.5384 39.1314 92.121 38.9581C91.908 38.8771 91.692 38.7961 91.473 38.7241C91.2573 38.6403 91.0259 38.6045 90.795 38.6191C91.0227 38.6306 91.2459 38.6866 91.452 38.7841C91.662 38.8711 91.869 38.9671 92.076 39.0631C92.4899 39.2713 92.9229 39.439 93.369 39.5641C93.6087 39.6363 93.8643 39.6363 94.104 39.5641C94.231 39.5112 94.3396 39.4222 94.4164 39.308C94.4932 39.1939 94.5348 39.0597 94.536 38.9221C94.5325 38.6677 94.4531 38.4202 94.308 38.2111C94.1772 38.0089 94.0209 37.8244 93.843 37.6621L93.702 37.8781C94.0044 38.0229 94.3398 38.085 94.674 38.0581C94.8584 38.0394 95.0304 37.9566 95.16 37.8241C95.2831 37.6899 95.3626 37.5215 95.388 37.3411C95.4066 37.1698 95.3882 36.9964 95.3338 36.8328C95.2795 36.6692 95.1905 36.5193 95.073 36.3931C94.8645 36.1468 94.6172 35.936 94.341 35.7691L94.254 35.9851C94.581 36.0451 95.295 36.0061 95.574 35.4121C95.829 34.5871 94.353 33.8581 94.071 33.7441Z" fill="#263238"/>
<path d="M94.047 33.7563C94.2127 33.7514 94.3766 33.7211 94.533 33.6663C94.5962 33.6458 94.6529 33.6089 94.6971 33.5594C94.7414 33.5098 94.7718 33.4494 94.785 33.3843C94.7917 33.2378 94.7574 33.0923 94.686 32.9643C94.611 32.8173 94.527 32.6643 94.434 32.5203C94.5911 32.6078 94.7281 32.7274 94.836 32.8713C94.9634 33.0244 95.0249 33.2218 95.007 33.4203C94.9849 33.5273 94.9316 33.6254 94.854 33.7023C94.7767 33.7702 94.6823 33.8159 94.581 33.8343C94.3992 33.8657 94.2122 33.8384 94.047 33.7563Z" fill="#263238"/>
<path d="M98.457 36.0571L95.757 45.7351C95.757 45.7351 100.827 48.3031 102.975 48.3481C105.123 48.3931 111.3 45.5341 114.651 42.2041C115.944 40.9171 116.151 39.1591 112.992 39.9331C109.833 40.7071 105.477 41.5951 105.147 41.5291C104.817 41.4631 98.457 36.0571 98.457 36.0571Z" fill="#EBEBEB"/>
<path d="M99.984 37.6711C99.741 38.3491 99.564 39.0571 99.384 39.7501C99.204 40.4431 99.006 41.1421 98.826 41.8501C98.472 43.2481 98.154 44.6581 97.848 46.0681C97.8497 46.0727 97.8528 46.0766 97.8568 46.0794C97.8608 46.0822 97.8656 46.0837 97.8705 46.0837C97.8754 46.0837 97.8802 46.0822 97.8842 46.0794C97.8882 46.0766 97.8913 46.0727 97.893 46.0681C98.304 44.6821 98.7 43.2931 99.06 41.8951C99.24 41.1971 99.411 40.4971 99.573 39.7951C99.735 39.0931 99.921 38.3881 100.032 37.6771C100.032 37.6739 100.032 37.6707 100.031 37.6677C100.031 37.6646 100.029 37.6617 100.027 37.6592C100.025 37.6567 100.023 37.6546 100.02 37.6531C100.017 37.6515 100.014 37.6505 100.011 37.6501C100.008 37.6497 100.005 37.6499 100.002 37.6508C99.9985 37.6516 99.9957 37.653 99.9932 37.655C99.9907 37.6569 99.9886 37.6594 99.987 37.6621C99.9854 37.6649 99.9844 37.6679 99.984 37.6711Z" fill="#A6A6A6"/>
<path d="M109.998 50.949L109.293 58.278C109.293 58.278 121.662 57.849 124.593 57.498C124.593 57.498 121.029 44.037 117.693 40.752C116.025 39.111 114.171 39.33 113.046 40.59C112.746 40.908 109.413 45.81 109.125 47.634C108.882 49.245 109.998 50.949 109.998 50.949Z" fill="#16967D"/>
<path d="M116.49 30.6481C116.88 31.2211 119.82 32.6131 121.356 30.1021C122.892 27.5911 119.712 24.4351 117.237 26.2021C115.572 27.3871 115.665 29.4301 116.49 30.6481Z" fill="#263238"/>
<path d="M116.259 40.2961C116.178 40.5391 114.843 42.0481 113.709 41.8921C113.34 41.8381 113.532 39.8131 113.532 39.8131L113.514 39.6601L113.235 37.5181L115.842 36.1621L116.217 35.9851C116.217 35.9851 116.256 36.5851 116.295 37.3111C116.295 37.3471 116.295 37.3801 116.295 37.4161V37.5361L116.313 37.8691C116.313 37.9561 116.313 38.0371 116.313 38.1271C116.313 38.2171 116.313 38.3041 116.313 38.3941C116.339 39.0286 116.321 39.6641 116.259 40.2961Z" fill="#F7A9A0"/>
<path d="M116.295 37.3111C116.03 37.8811 115.644 38.3865 115.164 38.7921C114.683 39.1978 114.12 39.494 113.514 39.6601L113.235 37.5181L115.842 36.1621L116.217 35.9851C116.217 35.9851 116.256 36.5761 116.295 37.3111Z" fill="#263238"/>
<path d="M110.7 33.9002C110.016 37.6262 112.17 38.4572 112.974 38.6042C113.703 38.7362 116.202 39.0962 117.27 35.4632C118.338 31.8302 116.82 30.3302 115.17 29.9372C113.52 29.5442 111.369 30.1802 110.7 33.9002Z" fill="#F7A9A0"/>
<path d="M111.348 33.3213C111.432 33.3186 111.516 33.3116 111.6 33.3003C111.693 33.3036 111.785 33.2762 111.861 33.2223C111.881 33.201 111.894 33.1736 111.897 33.1443C111.901 33.1151 111.894 33.0856 111.879 33.0603C111.841 33.0144 111.792 32.9796 111.736 32.9595C111.68 32.9395 111.619 32.9349 111.561 32.9463C111.439 32.9497 111.322 32.999 111.234 33.0843C111.216 33.1055 111.205 33.1315 111.201 33.1591C111.198 33.1867 111.202 33.2147 111.214 33.2398C111.226 33.2649 111.245 33.2859 111.269 33.3004C111.293 33.3148 111.32 33.3221 111.348 33.3213Z" fill="#263238"/>
<path d="M113.847 33.6899C113.76 33.6689 113.685 33.6359 113.598 33.6059C113.506 33.5896 113.423 33.5431 113.361 33.4739C113.346 33.4485 113.34 33.4187 113.343 33.3893C113.347 33.3599 113.361 33.3327 113.382 33.3119C113.429 33.2758 113.485 33.2529 113.544 33.2455C113.603 33.2381 113.663 33.2466 113.718 33.2699C113.835 33.3011 113.937 33.3749 114.003 33.4769C114.017 33.5012 114.024 33.529 114.022 33.557C114.021 33.585 114.011 33.6119 113.995 33.6345C113.978 33.6571 113.955 33.6744 113.929 33.6843C113.903 33.6941 113.874 33.6961 113.847 33.6899Z" fill="#263238"/>
<path d="M113.199 34.4729C113.199 34.4729 113.217 34.4729 113.217 34.4969C113.172 34.7519 113.166 35.0519 113.385 35.1689C113.1 35.0999 113.118 34.7069 113.199 34.4729Z" fill="#263238"/>
<path d="M113.463 34.2362C113.88 34.2632 113.799 35.0912 113.415 35.0672C113.031 35.0432 113.115 34.2152 113.463 34.2362Z" fill="#263238"/>
<path d="M113.622 34.2965C113.691 34.3505 113.754 34.4405 113.841 34.4585C113.928 34.4765 114.024 34.3985 114.099 34.3205C114.099 34.4795 114.009 34.6205 113.838 34.6415C113.667 34.6625 113.583 34.4975 113.559 34.3415C113.565 34.3175 113.595 34.2755 113.622 34.2965Z" fill="#263238"/>
<path d="M111.78 34.2393C111.78 34.2393 111.759 34.2393 111.759 34.2603C111.759 34.5183 111.684 34.8123 111.459 34.8603C111.732 34.8753 111.807 34.5003 111.78 34.2393Z" fill="#263238"/>
<path d="M111.576 33.9513C111.165 33.8823 111.057 34.7103 111.438 34.7733C111.819 34.8363 111.918 34.0083 111.576 33.9513Z" fill="#263238"/>
<path d="M111.396 33.9842C111.324 34.0172 111.249 34.0892 111.171 34.0862C111.093 34.0832 111.024 33.9812 110.979 33.8882C110.979 33.8882 110.979 33.8882 110.964 33.8882C110.94 34.0442 110.964 34.2152 111.117 34.2662C111.27 34.3172 111.372 34.1882 111.417 34.0352C111.441 34.0172 111.423 33.9692 111.396 33.9842Z" fill="#263238"/>
<path d="M113.061 36.4681C112.998 36.5251 112.932 36.6061 112.836 36.6091C112.74 36.6026 112.647 36.576 112.563 36.5311C112.598 36.5835 112.646 36.6255 112.702 36.653C112.759 36.6804 112.821 36.6922 112.884 36.6871C112.937 36.6762 112.985 36.6499 113.023 36.6114C113.061 36.573 113.087 36.5242 113.097 36.4711C113.097 36.4711 113.07 36.4621 113.061 36.4681Z" fill="#263238"/>
<path d="M112.089 35.4272C112.089 35.4272 111.996 35.8022 111.975 35.9852C111.975 35.9852 112.017 36.0152 112.077 36.0242C112.229 36.0691 112.39 36.0713 112.543 36.0306C112.696 35.9898 112.835 35.9077 112.944 35.7932C112.959 35.7932 112.944 35.7572 112.92 35.7662C112.673 35.8984 112.39 35.9478 112.113 35.9072C112.113 35.8562 112.296 35.2652 112.266 35.2592C112.124 35.2568 111.983 35.274 111.846 35.3102C112.02 34.5182 112.32 33.7592 112.482 32.9702C112.482 32.9645 112.481 32.9589 112.477 32.9542C112.474 32.9495 112.47 32.9458 112.464 32.9439C112.459 32.9419 112.453 32.9416 112.448 32.9431C112.442 32.9446 112.438 32.9478 112.434 32.9522C112.089 33.7541 111.825 34.5881 111.645 35.4422C111.627 35.5442 112.014 35.4482 112.089 35.4272Z" fill="#263238"/>
<path d="M112.107 35.8864C112.183 36.0521 112.301 36.1949 112.449 36.3004C112.53 36.3553 112.627 36.3836 112.725 36.3814C112.941 36.3814 112.989 36.1894 112.989 36.0184C112.986 35.9294 112.974 35.8409 112.953 35.7544C112.692 35.8868 112.396 35.933 112.107 35.8864Z" fill="#263238"/>
<path d="M112.449 36.3003C112.53 36.3552 112.627 36.3835 112.725 36.3813C112.941 36.3813 112.989 36.1893 112.989 36.0183C112.88 35.9978 112.768 36.0145 112.67 36.0657C112.572 36.1168 112.494 36.1995 112.449 36.3003Z" fill="#FF9ABB"/>
<path d="M117.219 35.4989C116.981 35.3721 116.781 35.1856 116.637 34.9579C116.494 34.7301 116.412 34.4689 116.4 34.1999C115.755 33.8909 115.204 33.4156 114.804 32.8229C114.828 32.9009 114.99 33.4649 115.08 33.7499C114.421 33.6281 113.801 33.349 113.273 32.9364C112.745 32.5238 112.325 31.9898 112.047 31.3799C111.577 31.7822 111.205 32.2858 110.958 32.8529C110.958 32.8529 111.003 31.4039 111.774 30.4529C114.369 27.2219 117.222 30.6779 117.222 30.6779C117.222 30.6779 118.179 31.2209 118.308 32.1779C118.56 34.0829 117.219 35.4989 117.219 35.4989Z" fill="#263238"/>
<path d="M113.286 33.3003C113.66 33.522 114.064 33.6868 114.486 33.7893C113.824 33.5856 113.232 33.1999 112.779 32.6763C112.586 32.4525 112.422 32.2056 112.29 31.9413C112.136 31.6631 112.039 31.3572 112.005 31.0413C112.005 31.0173 111.969 31.0203 111.969 31.0413C111.968 31.3628 112.021 31.6822 112.125 31.9863C112.243 32.2821 112.412 32.5544 112.626 32.7903C112.819 32.9971 113.04 33.1758 113.283 33.3213" fill="#263238"/>
<path d="M116.61 35.3191C116.61 35.3191 117.546 34.2211 118.05 34.5661C118.554 34.9111 117.774 36.5581 117.126 36.7321C117.044 36.7599 116.958 36.7709 116.871 36.7643C116.785 36.7578 116.701 36.7339 116.624 36.6942C116.548 36.6544 116.48 36.5995 116.425 36.5328C116.37 36.4661 116.329 36.389 116.304 36.3061L116.61 35.3191Z" fill="#F7A9A0"/>
<path d="M117.816 35.0312C117.816 35.0312 117.816 35.0313 117.816 35.0493C117.605 35.1308 117.413 35.2557 117.253 35.4158C117.092 35.576 116.968 35.7679 116.886 35.9793C116.916 35.9378 116.954 35.9033 116.999 35.878C117.043 35.8528 117.093 35.8373 117.144 35.8328C117.194 35.8282 117.246 35.8347 117.294 35.8517C117.342 35.8686 117.386 35.8958 117.423 35.9312C117.423 35.9312 117.423 35.9583 117.408 35.9553C117.333 35.9233 117.25 35.9154 117.171 35.9326C117.091 35.9498 117.019 35.9913 116.964 36.0513C116.871 36.1515 116.791 36.2623 116.724 36.3812C116.7 36.4172 116.631 36.3813 116.649 36.3453C116.7 35.7753 117.207 35.0312 117.816 35.0312Z" fill="#263238"/>
<path d="M116.346 39.8221C116.346 39.8221 115.299 44.8981 115.914 51.9121C117.072 65.1391 120.354 84.6811 121.143 85.9771C122.343 87.9661 134.925 89.2441 134.925 89.2441C132.322 78.1779 129.053 67.2791 125.136 56.6071C125.136 56.6071 122.556 49.1611 121.641 47.1751C118.2 39.7351 116.346 39.8221 116.346 39.8221Z" fill="#EBEBEB"/>
<path d="M128.13 67.4556C126.975 67.8108 125.8 68.0953 124.611 68.3076C122.946 68.5776 121.263 68.6826 120.786 68.7516C120.741 68.7516 120.744 68.9016 120.786 68.9016C121.419 68.8806 123.363 68.7636 124.635 68.5596C125.798 68.3599 126.941 68.0587 128.052 67.6596C128.103 68.0136 128.145 68.2896 128.202 68.6406C127.065 69.0576 124.86 69.8166 121.119 69.9366C121.086 69.7896 120.978 69.0006 120.912 68.7906C120.912 68.7576 120.765 68.7756 120.768 68.8266C120.768 69.0426 120.99 70.9446 121.05 71.3286C121.197 72.2766 121.689 74.9286 122.007 75.4206C122.73 76.5066 125.007 76.1406 125.646 76.0446C126.285 75.9486 128.325 75.6816 128.97 74.8146C129.312 74.3496 129.051 72.1686 128.67 70.2636C128.496 69.3636 128.187 67.4646 128.13 67.4556ZM125.778 75.7866C123.759 76.1136 122.814 75.8346 122.436 75.4626C121.992 75.0306 121.836 74.1786 121.644 73.2396C121.503 72.5016 121.155 70.1736 121.143 70.1256C123.562 70.166 125.967 69.7455 128.229 68.8866C128.412 69.9876 128.556 70.8666 128.736 71.9706C128.865 72.7686 129.036 74.1126 128.7 74.6436C128.424 75.0876 127.236 75.5496 125.778 75.7866Z" fill="#A6A6A6"/>
<path d="M124.899 68.1C125.274 69.192 124.863 70.944 125.724 70.917C126.492 70.893 126.657 69.651 126.657 69.651C126.657 69.651 126.921 71.112 127.737 70.851C128.553 70.59 128.46 69.192 128.46 69.192C128.46 69.192 128.625 70.416 129.42 70.092C130.215 69.768 130.353 68.571 130.353 68.571C130.353 68.571 130.653 68.889 131.103 68.412C131.763 67.728 131.481 65.694 131.085 64.665C130.689 63.636 128.466 60.165 128.115 59.646L121.5 62.148C121.5 62.148 121.368 64.302 121.431 65.403C121.494 66.504 122.718 70.071 123.624 69.828C124.53 69.585 123.624 67.08 123.537 66.417C123.45 65.754 123.588 65.622 123.858 65.892C124.035 66.066 124.734 67.608 124.899 68.1Z" fill="#F7A9A0"/>
<path d="M126.636 69.6001C126.747 67.8541 126.492 67.0711 125.667 65.5621C125.652 65.5321 125.691 65.5021 125.712 65.5291C126.654 66.9361 127.113 67.8721 126.72 69.6091C126.702 69.6781 126.63 69.6661 126.636 69.6001Z" fill="#263238"/>
<path d="M128.439 69.2583C128.394 67.4373 128.139 66.5853 127.377 64.9413C127.377 64.9173 127.407 64.8963 127.419 64.9203C128.289 66.4713 128.724 67.4163 128.529 69.2433C128.52 69.3243 128.439 69.3423 128.439 69.2583Z" fill="#263238"/>
<path d="M130.338 68.5534C130.17 66.7924 129.915 65.8534 128.985 64.3534C128.982 64.3499 128.979 64.3457 128.978 64.3411C128.976 64.3366 128.976 64.3317 128.976 64.3269C128.977 64.3221 128.978 64.3174 128.981 64.3133C128.983 64.3091 128.986 64.3056 128.991 64.3029C128.995 64.3002 128.999 64.2985 129.004 64.2977C129.009 64.297 129.014 64.2974 129.018 64.2987C129.023 64.3001 129.027 64.3025 129.031 64.3057C129.034 64.3089 129.037 64.3129 129.039 64.3174C130.137 65.7574 130.461 66.9364 130.392 68.5534C130.386 68.6524 130.35 68.6644 130.338 68.5534Z" fill="#263238"/>
<path d="M118.671 41.9733C122.595 47.2983 127.752 58.5423 128.427 60.3423C128.886 61.5603 121.929 64.0353 121.74 63.1593C121.503 62.0403 117.825 47.9943 116.844 42.7893C116.304 39.9213 117.702 40.6563 118.671 41.9733Z" fill="#F7A9A0"/>
<path d="M120.3 61.2001L128.442 59.1631C128.442 59.1631 120.987 44.6641 118.929 41.9611C116.829 39.2131 116.451 40.7611 116.829 43.7071C117.258 46.8871 120.3 61.2001 120.3 61.2001Z" fill="#EBEBEB"/>
<path d="M127.335 58.2783C126.78 58.3443 126.228 58.4913 125.682 58.6083C125.136 58.7253 124.584 58.8483 124.038 58.9743C122.943 59.2263 121.848 59.4843 120.768 59.7903C120.763 59.792 120.759 59.7951 120.757 59.7991C120.754 59.8031 120.752 59.8079 120.752 59.8128C120.752 59.8177 120.754 59.8225 120.757 59.8265C120.759 59.8305 120.763 59.8336 120.768 59.8353C121.875 59.6433 122.973 59.3973 124.068 59.1453C124.605 59.0223 125.139 58.8933 125.673 58.7643C126.207 58.6353 126.798 58.5183 127.338 58.3353C127.344 58.3331 127.349 58.329 127.352 58.3237C127.356 58.3183 127.357 58.3121 127.357 58.3057C127.357 58.2994 127.354 58.2933 127.35 58.2884C127.346 58.2835 127.341 58.28 127.335 58.2783Z" fill="#A6A6A6"/>
<path d="M121.176 60.9783C121.023 60.9783 120.402 61.0473 120.378 61.0563C120.378 60.9783 119.973 58.3863 119.865 57.8493C119.655 56.7993 119.43 55.7493 119.211 54.7023C118.764 52.5813 118.29 50.4663 117.828 48.3483C117.567 47.1483 117.297 45.9693 117.006 44.7843C117.006 44.7573 116.958 44.7693 116.961 44.7993C117.084 45.4923 117.213 46.1823 117.348 46.8753C117.219 46.5753 117.084 46.2753 116.967 45.9753C116.967 45.9483 116.91 45.9753 116.922 45.9753C117.045 46.2753 117.15 46.6083 117.264 46.9233C117.324 47.0913 117.39 47.2563 117.459 47.4183C117.705 48.6693 117.963 49.9173 118.218 51.1653C118.65 53.2893 119.076 55.4163 119.544 57.5343C119.673 58.1163 120.237 61.2243 120.258 61.2183C120.279 61.2123 121.053 61.0473 121.197 60.9873C121.2 61.0053 121.2 60.9753 121.176 60.9783Z" fill="#A6A6A6"/>
<path d="M113.445 40.2183C113.445 40.2183 111.21 43.1643 110.553 52.4373C109.842 62.4423 108.324 84.1203 108.207 84.8883C108.09 85.6563 104.958 87.4503 104.958 87.4503L109.779 50.9823C109.779 50.9823 108.879 49.1823 109.041 47.8593C109.239 46.0953 112.581 40.6113 113.445 40.2183Z" fill="#EBEBEB"/>
<path d="M111.09 43.4219C110.865 43.7219 110.664 44.0729 110.466 44.4089L110.502 44.2889C110.559 44.1149 110.604 43.9349 110.646 43.7549C110.646 43.7549 110.631 43.7369 110.625 43.7549C110.562 43.9289 110.499 44.1059 110.451 44.2829L110.361 44.5829C110.241 44.7809 109.857 45.6239 109.761 45.8249C109.746 45.8519 109.791 45.8759 109.803 45.8489C109.899 45.6419 110.376 44.8469 110.481 44.6489C110.688 44.2379 110.922 43.8389 111.129 43.4249L111.09 43.4219Z" fill="#A6A6A6"/>
<path d="M113.445 40.2183C112.707 41.1803 111.964 42.1393 111.216 43.0953V43.0173L111.795 43.5363L111.84 43.5783L111.798 43.6263L110.598 44.9883L110.616 44.9433C110.616 46.1913 110.616 47.4423 110.616 48.6903C110.616 49.9383 110.586 51.1893 110.553 52.4373C110.517 51.1893 110.499 49.9383 110.487 48.6903C110.475 47.4423 110.472 46.1913 110.487 44.9433V44.9163L110.502 44.8953L111.702 43.5423V43.6293L111.135 43.1013L111.096 43.0653L111.129 43.0233C111.895 42.0813 112.667 41.1463 113.445 40.2183Z" fill="#A6A6A6"/>
<path d="M116.34 39.813C116.74 40.965 117.134 42.12 117.522 43.278L117.543 43.338H117.48L116.358 43.557L116.4 43.5L117.036 45.069V45.09C116.877 46.29 116.694 47.52 116.52 48.732C116.346 49.944 116.151 51.159 115.947 52.371C116.085 51.151 116.234 49.933 116.394 48.717C116.559 47.499 116.718 46.284 116.898 45.069V45.105L116.274 43.533L116.244 43.458H116.322L117.447 43.251L117.402 43.326C117.048 42.15 116.7 40.98 116.34 39.813Z" fill="#A6A6A6"/>
<path d="M135.513 124.95H100.335V129.429H135.513V124.95Z" fill="#455A64"/>
<path d="M129.105 116.226H98.739V120.705H129.105V116.226Z" fill="#455A64"/>
<path d="M100.425 132.924H97.8449L100.506 120.705H105.75L100.425 132.924Z" fill="#455A64"/>
<path d="M100.509 120.702H105.75L104.418 123.759H99.843L100.509 120.702Z" fill="#37474F"/>
<path d="M127.425 132.924H130.005L127.341 120.705H122.097L127.425 132.924Z" fill="#455A64"/>
<path d="M128.007 123.759H123.429L122.097 120.702H127.341L128.007 123.759Z" fill="#37474F"/>
</svg>
