<svg width="150" height="150" viewBox="0 0 150 150" fill="none" xmlns="http://www.w3.org/2000/svg">
<rect width="150" height="150" rx="75" fill="#F76779" fill-opacity="0.2"/>
<path d="M130.347 30.6029C131.268 23.0388 125.882 16.1606 118.318 15.2399C110.754 14.3192 103.876 19.7046 102.955 27.2687C102.034 34.8327 107.42 41.711 114.984 42.6317C122.548 43.5524 129.426 38.1669 130.347 30.6029Z" fill="#EBEBEB"/>
<path d="M117.285 42.408C124.557 42.408 130.452 36.5129 130.452 29.241C130.452 21.969 124.557 16.074 117.285 16.074C110.013 16.074 104.118 21.969 104.118 29.241C104.118 36.5129 110.013 42.408 117.285 42.408Z" fill="#DBDBDB"/>
<path d="M117.285 41.577C124.098 41.577 129.621 36.054 129.621 29.241C129.621 22.428 124.098 16.905 117.285 16.905C110.472 16.905 104.949 22.428 104.949 29.241C104.949 36.054 110.472 41.577 117.285 41.577Z" fill="white"/>
<path opacity="0.5" d="M129.339 26.625C123.723 30.027 114.492 35.625 109.332 38.67C107.873 37.4411 106.719 35.8905 105.96 34.14L123.027 18.324C124.621 19.1631 126.012 20.341 127.103 21.7751C128.193 23.2091 128.957 24.8645 129.339 26.625Z" fill="#EBEBEB"/>
<path opacity="0.5" d="M129.6 29.6729C129.557 31.0451 129.282 32.4002 128.787 33.6808L113.4 40.9559C112.729 40.7356 112.078 40.4565 111.456 40.1219C116.115 37.4369 124.608 32.5499 129.6 29.6729Z" fill="#EBEBEB"/>
<path d="M117.402 17.802H117.165V19.671H117.402V17.802Z" fill="#C7C7C7"/>
<path d="M111.666 19.2694L111.458 19.3894L112.393 21.008L112.6 20.888L111.666 19.2694Z" fill="#C7C7C7"/>
<path d="M107.431 23.4156L107.313 23.6208L108.931 24.5554L109.05 24.3501L107.431 23.4156Z" fill="#C7C7C7"/>
<path d="M107.715 29.124H105.846V29.361H107.715V29.124Z" fill="#C7C7C7"/>
<path d="M108.938 33.9298L107.32 34.8643L107.438 35.0695L109.057 34.135L108.938 33.9298Z" fill="#C7C7C7"/>
<path d="M112.401 37.4764L111.467 39.0955L111.675 39.2153L112.609 37.5963L112.401 37.4764Z" fill="#C7C7C7"/>
<path d="M117.402 38.811H117.165V40.68H117.402V38.811Z" fill="#C7C7C7"/>
<path d="M122.173 37.4686L121.965 37.5886L122.9 39.2072L123.107 39.0872L122.173 37.4686Z" fill="#C7C7C7"/>
<path d="M125.626 33.92L125.507 34.1252L127.126 35.0597L127.244 34.8545L125.626 33.92Z" fill="#C7C7C7"/>
<path d="M128.724 29.124H126.855V29.361H128.724V29.124Z" fill="#C7C7C7"/>
<path d="M127.645 23.5323L126.019 24.4668L126.138 24.673L127.764 23.7385L127.645 23.5323Z" fill="#C7C7C7"/>
<path d="M122.902 19.2769L121.968 20.896L122.176 21.0159L123.11 19.3968L122.902 19.2769Z" fill="#C7C7C7"/>
<path d="M117.465 18.648L117.87 30.075L116.7 30.06L117.147 18.645L117.465 18.648Z" fill="#C7C7C7"/>
<path d="M124.581 25.257L116.892 30.165L116.334 29.136L124.428 24.978L124.581 25.257Z" fill="#A6A6A6"/>
<path d="M117.285 29.64C117.505 29.64 117.684 29.4614 117.684 29.241C117.684 29.0207 117.505 28.842 117.285 28.842C117.065 28.842 116.886 29.0207 116.886 29.241C116.886 29.4614 117.065 29.64 117.285 29.64Z" fill="#C7C7C7"/>
<path d="M84.168 93.273H15.963V12.771H84.168V93.273ZM17.601 91.632H82.527V14.4H17.601V91.632Z" fill="#EBEBEB"/>
<path d="M50.247 14.8379H48.606V92.4509H50.247V14.8379Z" fill="#EBEBEB"/>
<path d="M85.656 16.0859H14.475V18.3689H85.656V16.0859Z" fill="#EBEBEB"/>
<path d="M85.656 18.657H14.475V20.94H85.656V18.657Z" fill="#EBEBEB"/>
<path d="M85.656 21.2249H14.475V23.5079H85.656V21.2249Z" fill="#EBEBEB"/>
<path d="M85.656 23.7959H14.475V26.0789H85.656V23.7959Z" fill="#EBEBEB"/>
<path d="M85.656 26.364H14.475V28.647H85.656V26.364Z" fill="#EBEBEB"/>
<path d="M85.656 28.9348H14.475V31.2178H85.656V28.9348Z" fill="#EBEBEB"/>
<path d="M85.656 31.5029H14.475V33.7859H85.656V31.5029Z" fill="#EBEBEB"/>
<path d="M85.656 34.074H14.475V36.357H85.656V34.074Z" fill="#EBEBEB"/>
<path d="M85.656 36.645H14.475V38.928H85.656V36.645Z" fill="#EBEBEB"/>
<path d="M80.784 15.624H80.373V60.072H80.784V15.624Z" fill="#263238"/>
<path d="M81.3059 61.9799H79.851L80.217 59.8889H80.9429L81.3059 61.9799Z" fill="#263238"/>
<path d="M82.2629 15.624H81.8519V83.586H82.2629V15.624Z" fill="#263238"/>
<path d="M82.782 85.122H81.327L81.693 83.031H82.419L82.782 85.122Z" fill="#263238"/>
<path d="M88.203 12.45H11.931V17.229H88.203V12.45Z" fill="#DBDBDB"/>
<path d="M128.586 92.772H109.311V111.294H128.586V92.772Z" fill="#EBEBEB"/>
<path d="M135.912 92.772H128.586V111.294H135.912V92.772Z" fill="#C7C7C7"/>
<path d="M109.311 102.033H128.586L113.532 102.51L109.311 102.033Z" fill="#C7C7C7"/>
<path d="M128.586 109.056H109.311L124.365 109.533L128.586 109.056Z" fill="#C7C7C7"/>
<path d="M109.311 96.8579H121.521L110.667 97.2449L109.311 96.8579Z" fill="#C7C7C7"/>
<path d="M128.586 106.329H116.379L127.23 106.719L128.586 106.329Z" fill="#C7C7C7"/>
<path d="M113.937 94.7939H127.707L125.412 95.0279L113.937 94.7939Z" fill="#C7C7C7"/>
<path d="M111.186 104.019H124.956L122.661 104.253L111.186 104.019Z" fill="#C7C7C7"/>
<path d="M119.655 98.6189H128.586L130.182 99.2429L119.655 98.6189Z" fill="#EBEBEB"/>
<path d="M106.851 98.6189H115.785L117.381 99.2429L106.851 98.6189Z" fill="#EBEBEB"/>
<path d="M118.314 106.944H109.38L107.784 107.568L118.314 106.944Z" fill="#EBEBEB"/>
<path d="M128.586 104.832H135.762L137.358 105.453L128.586 104.832Z" fill="#C7C7C7"/>
<path d="M131.091 102.033H136.653L135.912 101.526L131.091 102.033Z" fill="#C7C7C7"/>
<path d="M9.20105 111.216L25.6501 111.144L42.1021 111.117L75.0001 111.066L107.898 111.117L124.35 111.144L140.799 111.216L124.35 111.291L107.898 111.318L75.0001 111.366L42.1021 111.315L25.6501 111.291L9.20105 111.216Z" fill="#263238"/>
<path d="M75.0001 134.403C107.572 134.403 133.977 129.769 133.977 124.053C133.977 118.337 107.572 113.703 75.0001 113.703C42.428 113.703 16.0231 118.337 16.0231 124.053C16.0231 129.769 42.428 134.403 75.0001 134.403Z" fill="#EBEBEB"/>
<path d="M92.9789 59.9311C92.4479 58.7971 89.0789 49.8121 85.0949 46.0381C82.9949 44.0371 76.5689 39.1951 75.1949 40.3381C73.9379 41.3701 75.3689 43.1281 75.3689 43.1281C75.3689 43.1281 72.4769 41.0101 70.7459 42.4651C69.0149 43.9201 71.5859 46.7641 71.5859 46.7641C71.5859 46.7641 68.4569 44.8081 66.8339 46.3831C65.2109 47.9581 68.2769 50.3821 68.2769 50.3821C68.2769 50.3821 65.4989 48.4591 64.7069 50.3191C63.7559 52.5571 69.2789 55.5241 71.1839 58.1191C71.6189 58.7191 79.1129 70.6681 79.1129 70.6681L92.9789 59.9311Z" fill="#EB9481"/>
<path d="M68.25 50.499C72.306 52.692 73.701 54.351 75.924 58.299C75.969 58.377 76.092 58.329 76.053 58.245C74.229 54.171 72.78 51.837 68.346 50.289C68.13 50.223 68.058 50.4 68.25 50.499Z" fill="#263238"/>
<path d="M71.5439 46.881C75.5579 49.524 77.0849 51.312 79.7189 55.281C79.7549 55.338 79.8539 55.281 79.8209 55.221C77.5649 51.108 76.0649 48.813 71.7209 46.695C71.5109 46.602 71.3609 46.758 71.5439 46.881Z" fill="#263238"/>
<path d="M75.4889 43.3111C79.1879 46.1521 80.9489 48.0421 83.0099 52.2241C83.0207 52.242 83.0375 52.2555 83.0573 52.2621C83.0771 52.2686 83.0987 52.2678 83.1179 52.2598C83.1372 52.2518 83.153 52.2371 83.1624 52.2184C83.1717 52.1998 83.1741 52.1784 83.1689 52.1581C81.4829 47.7001 79.3019 45.3151 75.5999 43.2001C75.3329 43.0651 75.2549 43.1341 75.4889 43.3111Z" fill="#263238"/>
<path d="M78.6 74.3371C78.6 74.3371 73.932 70.9411 72.21 69.0001C70.488 67.0591 66.732 57.4441 68.763 56.5171C71.382 55.3171 74.643 60.4381 75.912 63.1561C75.912 63.1561 81.972 60.3751 85.107 63.5431C88.242 66.7111 78.6 74.3371 78.6 74.3371Z" fill="#EB9481"/>
<path d="M69.5999 56.421C72.777 57.051 74.2139 60.723 75.642 63.267C75.6611 63.3057 75.6895 63.3392 75.7245 63.3646C75.7595 63.39 75.8001 63.4065 75.8429 63.4127C75.8857 63.4189 75.9294 63.4146 75.9701 63.4002C76.0109 63.3858 76.0475 63.3617 76.0769 63.33C78.6929 62.334 82.677 61.692 85.116 63.36C85.1301 63.3684 85.1468 63.3715 85.163 63.3687C85.1792 63.3659 85.1939 63.3574 85.2044 63.3447C85.2149 63.3321 85.2205 63.316 85.2203 63.2996C85.22 63.2831 85.2139 63.2673 85.203 63.255C82.827 61.11 78.864 61.422 76.065 62.697C74.643 60.066 73.0409 56.445 69.6029 56.397C69.5996 56.3999 69.5974 56.404 69.5968 56.4084C69.5963 56.4128 69.5974 56.4173 69.5999 56.421Z" fill="#263238"/>
<path d="M61.416 73.755C65.739 83.055 84.183 112.536 95.271 110.742C107.955 108.687 95.049 61.7039 92.178 58.3919C90.63 56.5919 74.943 68.7 76.539 72.516C77.193 74.079 80.187 79.044 79.77 79.191C79.416 79.314 74.712 73.7159 66.705 67.8779C59.028 62.2799 59.484 69.6 61.416 73.755Z" fill="#EB9481"/>
<path d="M61.221 74.2949C66.294 85.7999 84.381 109.095 91.161 110.544C97.941 111.993 99.345 109.914 101.157 103.134C102.969 96.3539 96.657 67.9739 96.657 67.9739L76.557 73.7459L77.19 75.8999C77.19 75.8999 71.856 71.5109 67.143 67.7099C62.43 63.9089 57 64.7309 61.221 74.2949Z" fill="#F76779"/>
<path opacity="0.1" d="M61.062 65.8561V73.9261C60.93 73.6261 60.81 73.3261 60.699 73.0261C60.621 72.8221 60.549 72.6211 60.48 72.4261L60.462 72.3721V66.3001L60.543 66.2191C60.6968 66.0727 60.8718 65.9504 61.062 65.8561ZM62.823 65.6221V77.5381C62.877 77.6431 62.934 77.7481 62.991 77.8531V65.6461C62.934 65.6341 62.877 65.6281 62.823 65.6221ZM65.13 66.3811C65.016 66.3211 64.902 66.2671 64.788 66.2161L64.752 66.1981V81.0001H64.815C64.932 81.1981 65.055 81.3991 65.181 81.6001C65.235 81.6921 65.292 81.7851 65.352 81.8791V66.4981C65.277 66.4561 65.205 66.4171 65.13 66.3811ZM67.143 67.7041L67.113 67.6801V84.6481L67.278 84.8971V67.8001L67.143 67.7041ZM69.042 69.2401V87.4951C69.078 87.5521 69.117 87.6091 69.159 87.6631C69.201 87.7171 69.234 87.7771 69.276 87.8311L69.639 88.3501V69.7231L69.042 69.2401ZM71.403 71.1601V90.7981C71.457 90.8731 71.511 90.9481 71.568 91.0201V71.2951C71.514 71.2471 71.46 71.2051 71.4 71.1601H71.403ZM73.701 73.0321L73.332 72.7321V93.3661C73.464 93.5401 73.596 93.7141 73.734 93.8851L73.929 94.1371V73.2181L73.701 73.0321ZM75.852 74.7931L75.693 74.6641V96.4111H75.735L75.858 96.5641V74.7931H75.852ZM77.622 73.4431V98.7721H77.7C77.874 98.9791 78.051 99.1861 78.228 99.3901V73.2721L77.622 73.4431ZM79.983 72.7651V101.4L80.148 101.583V72.7231L79.983 72.7651ZM81.912 72.2131V103.47L82.512 104.085V72.0391L81.912 72.2131ZM84.273 71.5351V105.819L84.438 105.975V71.4751L84.273 71.5351ZM86.202 70.9801V107.544C86.403 107.715 86.601 107.877 86.802 108.033V70.8001L86.202 70.9801ZM88.563 109.323L88.728 109.428V70.2541L88.563 70.3021V109.323ZM90.492 69.7471V110.343C90.6879 110.417 90.8883 110.478 91.092 110.526V69.5761L90.492 69.7471ZM92.853 69.0691V110.847L93.018 110.871V69.0211L92.853 69.0691ZM94.782 110.982C94.989 110.982 95.187 110.982 95.382 110.949V68.3491L94.782 68.5231V110.982ZM97.245 70.6711C97.245 70.6141 97.221 70.5601 97.212 70.5061C97.188 70.3951 97.164 70.2871 97.143 70.1821V110.493L97.308 110.412V70.9711L97.245 70.6711ZM99.645 83.3731C99.547 82.7731 99.447 82.1861 99.345 81.6121C99.312 81.4111 99.276 81.2101 99.24 81.0121C99.18 80.6791 99.12 80.3491 99.063 80.0221V108.717C99.2884 108.363 99.4889 107.995 99.663 107.613V83.3731H99.645ZM101.463 98.7721C101.463 98.5771 101.463 98.3761 101.445 98.1721C101.427 97.9681 101.43 97.8301 101.421 97.6531V101.313C101.421 101.115 101.448 100.911 101.457 100.713C101.457 100.659 101.457 100.605 101.457 100.548C101.487 99.9921 101.492 99.4001 101.472 98.7721H101.463ZM60.543 66.2161L60.462 66.2971C60.4344 66.3236 60.4084 66.3517 60.384 66.3811H65.13C65.016 66.3211 64.902 66.2671 64.788 66.2161H60.543ZM59.727 68.1451C59.7085 68.3445 59.7024 68.5449 59.709 68.7451H68.43L67.689 68.1451H59.727ZM96.708 68.1451H96.075L95.379 68.3431L94.779 68.5171L93.993 68.7421H96.834C96.78 68.4751 96.735 68.2741 96.708 68.1451ZM70.608 70.5061H59.928L59.964 70.6711H70.8L70.608 70.5061ZM97.218 70.5061H87.858L87.282 70.6711H97.251C97.233 70.6141 97.221 70.5601 97.2 70.5001L97.218 70.5061ZM72.972 72.4321H60.48C60.549 72.6271 60.621 72.8281 60.699 73.0321H73.701L73.332 72.7321L72.972 72.4321ZM97.614 72.4321H81.144L80.148 72.7171L79.983 72.7651L79.056 73.0321H97.728C97.689 72.8281 97.647 72.6271 97.608 72.4321H97.614ZM75.864 74.7931H61.443C61.47 74.8501 61.497 74.9041 61.521 74.9611H76.056L75.858 74.7991L75.864 74.7931ZM98.088 74.7931H76.878L76.926 74.9611H98.1C98.1 74.9041 98.1 74.8501 98.082 74.7931H98.088ZM98.463 76.7221H62.4C62.499 76.9201 62.604 77.1181 62.7 77.3221H98.571C98.532 77.1211 98.493 76.9201 98.457 76.7221H98.463ZM98.904 79.0831H63.678L63.774 79.2511H98.928C98.919 79.2001 98.907 79.1401 98.898 79.0831H98.904ZM64.815 81.0001C64.932 81.1981 65.055 81.3991 65.181 81.6001H99.351C99.318 81.3991 99.282 81.1981 99.246 81.0001H64.815ZM99.669 83.4571V83.3611H66.3C66.333 83.4151 66.369 83.4721 66.408 83.5291H99.708C99.6962 83.5083 99.6832 83.4883 99.669 83.4691V83.4571ZM99.969 85.2901H67.545C67.68 85.4881 67.812 85.6891 67.95 85.8901H100.065C100.035 85.7041 100.002 85.5001 99.969 85.3021V85.2901ZM100.335 87.6511H69.159C69.195 87.7081 69.234 87.7651 69.276 87.8191H100.359C100.353 87.7771 100.344 87.7201 100.335 87.6631V87.6511ZM100.611 89.5801H71.4V90.1801H100.689L100.611 89.5801ZM100.911 91.9411H72.258L72.387 92.1091H100.935C100.929 92.0671 100.923 92.0101 100.914 91.9531L100.911 91.9411ZM101.127 93.8701H73.734L73.929 94.1221C74.016 94.2391 74.106 94.3561 74.199 94.4701H101.199C101.172 94.2841 101.154 94.0831 101.13 93.8821L101.127 93.8701ZM101.34 96.2311H75.6L75.696 96.3481V96.3991H101.355L101.34 96.2311ZM101.451 98.1601H77.187L77.622 98.6791V98.7601H101.472C101.469 98.5771 101.46 98.3761 101.454 98.1721L101.451 98.1601ZM79.212 100.521C79.26 100.575 79.308 100.632 79.359 100.686H101.463C101.463 100.632 101.463 100.578 101.463 100.521H79.212ZM80.958 102.45C81.144 102.651 81.333 102.852 81.519 103.05H101.172C101.223 102.852 101.264 102.652 101.295 102.45H80.958ZM83.241 104.811C83.295 104.865 83.352 104.919 83.406 104.976H100.629C100.647 104.922 100.662 104.868 100.677 104.811H83.241ZM85.284 106.74C85.518 106.947 85.746 107.148 85.971 107.34H99.786C99.87 107.148 99.951 106.95 100.029 106.74H85.284ZM88.245 109.101L88.491 109.266H98.661C98.703 109.215 98.748 109.158 98.79 109.101H88.245Z" fill="black"/>
<path d="M96.798 73.143C95.514 73.668 94.197 74.088 92.877 74.505C90.552 75.24 88.206 75.9 85.863 76.56C84.678 76.893 83.487 77.193 82.293 77.49C81.099 77.787 79.908 78 78.732 78.3C78.705 78.3 78.693 78.267 78.732 78.258C79.404 78.084 80.064 77.853 80.727 77.643C81.39 77.433 82.032 77.232 82.689 77.043C85.023 76.344 87.366 75.681 89.703 74.988C90.882 74.64 92.064 74.304 93.246 73.965C94.428 73.626 95.592 73.302 96.783 73.041C96.7944 73.0428 96.8049 73.0482 96.813 73.0564C96.8211 73.0646 96.8264 73.0751 96.828 73.0865C96.8297 73.0979 96.8277 73.1095 96.8223 73.1197C96.8169 73.1298 96.8084 73.138 96.798 73.143ZM88.281 105C87.285 103.2 86.379 101.385 85.488 99.546C84.597 97.707 83.79 95.871 83.016 94.008C81.4529 90.2635 80.1067 86.4322 78.984 82.533C78.684 81.444 78.384 80.349 78.084 79.254C77.784 78.159 77.538 77.013 77.268 75.888C77.229 75.726 77.157 75.726 77.184 75.888C77.523 77.898 77.82 79.983 78.339 81.951C78.858 83.919 79.449 85.878 80.103 87.81C80.757 89.742 81.483 91.65 82.275 93.528C83.067 95.406 83.901 97.266 84.852 99.066C85.923 101.088 87.045 103.074 88.236 105.03C88.257 105.063 88.296 105.036 88.281 105Z" fill="#263238"/>
<path opacity="0.1" d="M92.763 110.835C92.265 110.766 91.731 110.667 91.161 110.535C84.381 109.08 66.3 85.8001 61.221 74.2951C58.899 69.0271 59.502 66.4081 61.299 65.7571C66.696 73.7371 84.114 98.5411 92.763 110.835Z" fill="black"/>
<path d="M74.454 111.033L30.6 111.15C30.6 111.15 35.58 78.651 51.693 63.177C53.685 61.263 58.359 61.491 61.461 62.877C62.568 63.372 66.687 68.664 68.01 73.773C69.333 78.882 74.571 110.874 74.454 111.033Z" fill="#F76779"/>
<path opacity="0.1" d="M31.032 108.699V111.15H30.6L30.618 111.042C30.654 110.808 30.756 110.199 30.918 109.278C30.918 109.224 30.939 109.17 30.948 109.113C30.978 108.971 31.006 108.833 31.032 108.699ZM32.796 100.533V111.144H32.961V100.272C32.937 100.359 32.916 100.446 32.892 100.533H32.796ZM34.725 93.8821V111.138H35.325V92.2771C35.148 92.8171 34.974 93.3541 34.806 93.8821H34.725ZM37.086 87.3121V111.132H37.251V86.8771L37.086 87.3121ZM39.447 81.6121C39.3 81.9391 39.147 82.2691 39.012 82.5961V111.129H39.612V81.2551C39.558 81.3721 39.504 81.4921 39.447 81.6001V81.6121ZM41.529 77.3221C41.478 77.4211 41.427 77.5231 41.373 77.6221V111.12H41.541V77.3011L41.529 77.3221ZM43.302 74.1151V111.117H43.902V73.1101C43.698 73.4431 43.5 73.7791 43.302 74.1151ZM45.663 111.111H45.831V70.1401L45.663 70.3861V111.111ZM47.592 67.7431V111.105H48.192V67.0051C48 67.2391 47.79 67.5001 47.592 67.7431ZM49.953 64.9501V111.099H50.121V64.7671L49.953 64.9501ZM51.882 63.0031V111.093H52.482V62.5981C52.2698 62.7128 52.0689 62.8474 51.882 63.0001V63.0031ZM54.243 61.9261V111.087H54.411V61.9261H54.243ZM56.172 61.7881V111.081H56.772V61.8001C56.571 61.8001 56.37 61.8001 56.172 61.8001V61.7881ZM58.533 62.0011V111.075H58.701V62.0311L58.533 62.0011ZM60.462 62.4931V111.069H61.062V62.7001C60.867 62.6341 60.666 62.5621 60.462 62.4931ZM62.823 64.1461V111.063H63V64.3441L62.823 64.1461ZM64.752 66.7561V111.06H65.352V67.7221C65.154 67.3891 64.953 67.0651 64.752 66.7561ZM67.113 71.1841V111.054H67.278V71.5891C67.227 71.4541 67.17 71.3191 67.113 71.1841ZM69.561 81.6001C69.525 81.3991 69.486 81.1981 69.45 81.0001C69.338 80.3881 69.23 79.8011 69.126 79.2391C69.126 79.1821 69.105 79.1281 69.093 79.0711C69.081 79.0141 69.06 78.8881 69.042 78.7951V111.048H69.642V82.0471C69.6 81.9001 69.6 81.7561 69.561 81.6001ZM71.4 92.1331V111.033H71.565V93.0991C71.514 92.7781 71.457 92.4541 71.4 92.1331ZM73.914 107.349C73.884 107.157 73.851 106.959 73.821 106.749C73.731 106.203 73.638 105.612 73.521 104.985L73.494 104.82C73.437 104.457 73.377 104.085 73.314 103.701V111.039H73.914V107.349ZM58.071 61.9261H54.243V61.9741C54.075 62.0071 53.91 62.0461 53.751 62.0911H58.995L58.695 62.0311L58.527 62.0011L58.071 61.9261ZM62.991 64.3441L62.823 64.1461C62.733 64.0441 62.649 63.9451 62.565 63.8461H51C50.805 64.0411 50.613 64.2391 50.421 64.4461H63.081L62.991 64.3441ZM64.395 66.2161H48.837C48.789 66.2701 48.741 66.3241 48.696 66.3811H64.5C64.467 66.3271 64.431 66.2701 64.395 66.2161ZM65.595 68.1451H47.283C47.133 68.3401 46.983 68.5411 46.833 68.7451H65.937C65.826 68.5381 65.715 68.3401 65.601 68.1451H65.595ZM45.579 70.5001C45.543 70.5541 45.504 70.6081 45.468 70.6651H66.9L66.828 70.5001H45.579ZM67.593 72.4261H44.322C44.196 72.6241 44.073 72.8251 43.95 73.0261H67.8C67.728 72.8311 67.662 72.6301 67.593 72.4321V72.4261ZM68.238 74.7871H42.9C42.867 74.8411 42.837 74.8981 42.804 74.9551H68.268C68.265 74.9041 68.253 74.8471 68.238 74.7931V74.7871ZM68.64 76.7161H41.844L41.544 77.2951V77.3161H68.772C68.718 77.1151 68.679 76.9141 68.64 76.7221V76.7161ZM69.093 79.0771H40.641L40.557 79.2451H69.126C69.114 79.2001 69.105 79.1401 69.093 79.0831V79.0771ZM69.45 81.0001H39.723L39.612 81.2431C39.558 81.3601 39.504 81.4801 39.447 81.6001H69.561C69.525 81.4111 69.486 81.2101 69.45 81.0001ZM69.879 83.3611H38.679L38.607 83.5291H69.9C69.9 83.4841 69.9 83.4271 69.879 83.3731V83.3611ZM70.221 85.2901H37.875L37.632 85.8901H70.332C70.29 85.7011 70.257 85.5001 70.221 85.3021V85.2901ZM70.632 87.6511H36.951L36.888 87.8191H70.662C70.653 87.7741 70.644 87.7171 70.632 87.6631V87.6511ZM70.968 89.5801H36.243C36.174 89.7811 36.102 89.9821 36.033 90.1801H71.07C71.037 90.0001 71.001 89.7931 70.968 89.5921V89.5801ZM71.373 91.9411H35.43L35.376 92.1091H71.4L71.373 91.9411ZM71.7 93.8701H34.725V94.1251L34.617 94.4701H71.817C71.769 94.2841 71.733 94.0831 71.7 93.8821V93.8701ZM72.096 96.2311H34.083C34.083 96.2881 34.05 96.3451 34.035 96.3991H72.135C72.117 96.3571 72.108 96.3001 72.096 96.2431V96.2311ZM72.42 98.1601H33.528C33.474 98.3611 33.417 98.5621 33.363 98.7601H72.519L72.42 98.1601ZM72.813 100.521H32.796V100.686H72.84L72.813 100.521ZM73.113 102.45H32.4C32.349 102.654 32.301 102.852 32.253 103.05H73.227L73.113 102.45ZM73.497 104.811H31.848L31.8 105H73.539L73.497 104.811ZM73.797 106.74H31.425L31.302 107.34H73.902C73.887 107.157 73.854 106.959 73.824 106.752L73.797 106.74ZM74.163 109.101H30.951C30.951 109.158 30.933 109.212 30.921 109.266H74.217C74.208 109.224 74.202 109.17 74.19 109.113L74.163 109.101ZM30.6 111.042L30.582 111.15H31.02H32.784H32.949H34.713H35.313H37.077H39.6H41.361H50.109H51.87H52.47H54.231H54.399H56.16H56.76H58.521H58.689H60.45H61.05H62.811H30.6V111.042Z" fill="black"/>
<path d="M68.466 75.9001C68.853 77.0371 69.186 78.2191 69.465 79.4101C69.465 79.3621 69.465 79.3171 69.465 79.2691C69.465 78.5971 69.432 77.9071 69.465 77.2351C69.465 77.1991 69.525 77.1871 69.531 77.2351C69.6454 77.9108 69.6926 78.5961 69.672 79.2811C69.672 79.6021 69.672 79.9261 69.645 80.2471C69.759 80.7811 69.864 81.3181 69.945 81.8491C70.116 82.8601 71.1 89.5741 71.145 90.3271C71.145 90.4861 71.064 90.4891 71.013 90.3271C70.776 89.5741 69.513 82.7791 69.285 81.7801C68.8833 79.8377 68.5878 77.8748 68.4 75.9001C68.4 75.8551 68.451 75.8521 68.466 75.9001Z" fill="#263238"/>
<path d="M60.726 73.1761C58.041 73.3321 54.309 68.6161 53.121 65.1181C53.04 64.8781 53.7809 62.6281 54.5519 59.8531C55.0139 58.1701 55.4879 56.2801 55.7939 54.5281L66.324 59.1301C66.324 59.1301 64.599 62.6161 64.08 65.6761C64.0415 65.9191 64.0244 66.1651 64.0289 66.4111C64.0289 66.4441 64.0289 66.4861 64.0289 66.5311C64.0079 67.9381 63.321 73.0231 60.726 73.1761Z" fill="#EB9481"/>
<path d="M64.0289 66.4082C64.0289 66.4442 64.0289 66.4862 64.0289 66.5312C63.6459 66.5157 63.2647 66.4696 62.889 66.3932C56.679 65.1602 56.289 57.2282 56.313 54.7532L66.33 59.1302C66.33 59.1302 64.6049 62.6192 64.0859 65.6792C64.0438 65.9198 64.0247 66.1639 64.0289 66.4082Z" fill="#263238"/>
<path d="M73.5721 42.9419C73.5721 42.9419 76.2571 45.4169 75.6571 48.8459C75.0571 52.2749 73.0861 55.3799 72.7471 55.4459C72.4081 55.5119 73.5721 42.9419 73.5721 42.9419Z" fill="#263238"/>
<path d="M58.011 41.5711C55.707 45.0091 54.39 56.5711 56.346 59.8201C59.181 64.5421 65.478 66.8191 69.906 63.0331C74.199 59.3611 75.648 44.2741 73.308 41.1331C69.864 36.5341 61.413 36.4891 58.011 41.5711Z" fill="#EB9481"/>
<path d="M64.8 48.8309C65.133 48.7079 65.46 48.6479 65.802 48.5579C66.144 48.4679 66.483 48.3359 66.876 48.4739C66.983 48.5237 67.0704 48.6075 67.1247 48.7122C67.1789 48.817 67.197 48.9368 67.176 49.0529C67.056 49.5449 66.615 49.7879 66.156 49.9259C65.6979 50.0836 65.1975 50.0654 64.752 49.8749C64.6535 49.825 64.5715 49.7477 64.5159 49.6524C64.4603 49.557 64.4334 49.4476 64.4385 49.3373C64.4435 49.2271 64.4804 49.1206 64.5445 49.0307C64.6086 48.9409 64.6974 48.8715 64.8 48.8309Z" fill="#263238"/>
<path d="M73.5 50.8531C73.254 50.5981 72.984 50.4031 72.717 50.1721C72.45 49.9411 72.198 49.6801 71.784 49.6321C71.666 49.6319 71.5512 49.6706 71.4574 49.7422C71.3636 49.8137 71.296 49.9142 71.265 50.0281C71.16 50.5231 71.454 50.9281 71.805 51.2551C72.1507 51.5953 72.6104 51.7952 73.095 51.8161C73.2053 51.8133 73.3124 51.7787 73.4035 51.7165C73.4946 51.6543 73.5658 51.5671 73.6086 51.4654C73.6513 51.3637 73.6638 51.2518 73.6446 51.1432C73.6253 51.0346 73.5751 50.9339 73.5 50.8531Z" fill="#263238"/>
<path d="M64.533 58.6649C64.689 58.8779 64.833 59.1569 65.112 59.2229C65.4002 59.2634 65.6937 59.2419 65.973 59.1599C65.9788 59.1581 65.985 59.1583 65.9907 59.1605C65.9963 59.1626 66.0011 59.1666 66.0042 59.1718C66.0073 59.177 66.0086 59.1831 66.0078 59.1891C66.0071 59.1951 66.0043 59.2007 66 59.2049C65.8659 59.3399 65.6976 59.4358 65.5132 59.4823C65.3287 59.5288 65.135 59.5242 64.953 59.4689C64.8012 59.4037 64.6724 59.2946 64.5831 59.1556C64.4938 59.0166 64.4482 58.8541 64.452 58.6889C64.446 58.6439 64.5 58.6349 64.533 58.6649Z" fill="#263238"/>
<path d="M68.9279 56.3099C68.9279 56.3099 68.7629 57.6929 68.6279 58.2419C68.6279 58.2929 66.8999 57.4739 65.3879 57.2639C65.3219 57.2639 65.2919 57.1199 65.4749 57.0959C66.5249 56.9699 68.3309 57.6779 68.3309 57.6779C68.3519 57.5909 68.4719 55.6139 68.5619 55.6289C68.978 55.7712 69.3734 55.9679 69.7379 56.2139C70.0649 53.7179 69.9929 51.1919 70.3559 48.7139C70.3594 48.6962 70.369 48.6803 70.3829 48.6688C70.3969 48.6574 70.4144 48.6511 70.4324 48.6511C70.4505 48.6511 70.468 48.6574 70.4819 48.6688C70.4959 48.6803 70.5054 48.6962 70.5089 48.7139C70.7729 51.3569 70.4579 54.2369 70.1849 56.8139C70.1549 57.1439 69.1259 56.4569 68.9279 56.3099Z" fill="#263238"/>
<path d="M66.675 52.155C66.675 52.125 66.609 52.182 66.606 52.212C66.495 52.995 66.24 53.874 65.493 54.012C65.469 54.012 65.466 54.054 65.493 54.054C66.372 54.081 66.699 52.914 66.675 52.155Z" fill="#263238"/>
<path d="M64.884 51.9961C64.8994 52.3353 64.9735 52.6693 65.103 52.9831C65.1537 53.1139 65.2463 53.2241 65.3662 53.2968C65.4861 53.3695 65.6266 53.4006 65.766 53.3851C66.024 53.3551 66.231 53.0851 66.366 52.7851C66.5099 52.4727 66.6166 52.1445 66.684 51.8071C66.7519 52.166 66.7292 52.5362 66.618 52.8841C66.5624 53.0705 66.4718 53.2447 66.351 53.3971C66.2147 53.5661 66.0218 53.6801 65.808 53.7181C65.5968 53.7442 65.3833 53.6919 65.208 53.5711C65.0381 53.4496 64.9143 53.274 64.857 53.0731C64.7558 52.7198 64.7653 52.344 64.884 51.9961Z" fill="#263238"/>
<path d="M70.929 52.713C70.929 52.686 70.983 52.758 70.98 52.791C70.851 53.571 70.833 54.483 71.508 54.837C71.529 54.837 71.508 54.888 71.508 54.879C70.647 54.645 70.68 53.43 70.929 52.713Z" fill="#263238"/>
<path d="M72.684 53.1001C72.6961 53.4719 72.5912 53.8381 72.384 54.1471C72.2692 54.3217 72.0991 54.4527 71.901 54.5191C71.6928 54.5884 71.4658 54.5736 71.2685 54.4777C71.0711 54.3818 70.9191 54.2126 70.845 54.0061C70.7766 53.8259 70.7421 53.6348 70.743 53.4421C70.7404 53.0761 70.829 52.7152 71.001 52.3921C70.9603 52.7339 70.9603 53.0793 71.001 53.4211C71.0064 53.5676 71.0458 53.7107 71.1161 53.8393C71.1864 53.968 71.2856 54.0784 71.406 54.1621C71.5345 54.2195 71.6784 54.2328 71.8152 54.1996C71.952 54.1665 72.074 54.0889 72.162 53.9791C72.3865 53.7192 72.5633 53.4216 72.684 53.1001Z" fill="#263238"/>
<path d="M57.2369 50.946C59.3639 51.465 61.4189 42 61.4189 42C61.4189 42 63.3389 43.551 65.0939 44.115C66.4678 44.5388 67.8845 44.8085 69.3179 44.919C69.6359 44.919 66.2849 42.558 66.2849 42.558C66.2849 42.558 75.1379 46.554 76.0499 44.958C76.3679 44.394 73.6859 37.008 67.1669 35.889C62.3669 35.064 58.53 39.303 58.53 39.303C58.53 39.303 55.629 41.295 55.371 42.81C55.029 44.829 54.9839 50.4 57.2369 50.946Z" fill="#263238"/>
<path d="M57.837 51.2551C57.837 51.2551 56.337 46.9951 54.483 47.4301C52.629 47.8651 53.037 53.5501 54.738 54.7891C54.944 54.9636 55.1832 55.0946 55.4411 55.1742C55.6991 55.2538 55.9705 55.2804 56.239 55.2524C56.5075 55.2244 56.7676 55.1423 57.0035 55.0111C57.2395 54.8799 57.4465 54.7024 57.612 54.4891L57.837 51.2551Z" fill="#EB9481"/>
<path d="M54.645 49.0559C54.615 49.0559 54.597 49.0859 54.618 49.1039C55.797 50.0039 56.151 51.4469 56.283 52.8629C56.025 52.2629 55.563 51.8399 54.783 52.1249C54.741 52.1399 54.759 52.2029 54.798 52.2059C55.0543 52.1949 55.3076 52.2642 55.5227 52.404C55.7378 52.5438 55.904 52.7472 55.998 52.9859C56.1517 53.3837 56.2613 53.7972 56.325 54.2189C56.355 54.3569 56.586 54.3509 56.58 54.2189C56.5815 54.207 56.5815 54.1949 56.58 54.1829C57.069 52.4819 56.418 49.7369 54.645 49.0559Z" fill="#263238"/>
<path d="M74.01 52.9501C73.617 54.5431 73.248 56.1451 72.789 57.7231C72.3982 59.1388 71.791 60.4857 70.989 61.7161C70.769 62.0348 70.5243 62.3357 70.257 62.6161C69.984 62.9161 69.324 63.4921 69.357 63.4741C69.624 63.2581 69.921 63.0841 70.185 62.8741C70.4522 62.6504 70.7019 62.4067 70.932 62.1451C71.4022 61.6178 71.8052 61.0343 72.132 60.4081C72.876 58.9741 73.248 57.3691 73.563 55.7941C73.749 54.8521 73.908 53.9011 74.082 52.9531C74.0822 52.9483 74.0815 52.9436 74.0799 52.9392C74.0782 52.9347 74.0757 52.9306 74.0725 52.9272C74.0693 52.9237 74.0655 52.9209 74.0612 52.9189C74.0569 52.9169 74.0523 52.9158 74.0475 52.9156C74.0428 52.9154 74.0381 52.9161 74.0336 52.9177C74.0292 52.9194 74.0251 52.9218 74.0216 52.925C74.0181 52.9282 74.0153 52.9321 74.0133 52.9364C74.0114 52.9407 74.0102 52.9453 74.01 52.9501Z" fill="#263238"/>
<path d="M64.11 65.7568L61.281 72.2038L53.43 63.6838L51.045 66.2638C51.045 66.2638 58.566 79.6408 58.635 79.0498L61.5 73.4998L65.262 77.5408V67.7038L64.11 65.7568Z" fill="#F76779"/>
<path d="M65.538 72.681C65.484 71.058 65.472 69.42 65.343 67.8C65.343 67.74 65.25 67.713 65.232 67.779C64.86 69.336 65.103 75.546 65.049 77.034L65.031 77.016C64.875 76.842 61.539 73.455 61.503 73.506C60.903 74.382 58.803 78.417 58.641 78.786C57.441 76.662 52.386 68.286 50.961 66.255C50.9527 66.245 50.9413 66.2381 50.9285 66.2355C50.9158 66.2329 50.9026 66.2347 50.891 66.2407C50.8795 66.2467 50.8703 66.2564 50.865 66.2683C50.8597 66.2802 50.8587 66.2935 50.862 66.306C51.903 68.544 58.44 79.611 58.539 79.584C58.605 79.638 61.218 74.667 61.539 73.722C62.097 74.454 65.439 78.261 65.472 78.021C65.5855 76.2434 65.6076 74.461 65.538 72.681Z" fill="#263238"/>
<path d="M32.451 110.442C29.226 112.344 24.111 111.342 23.607 106.872C21.924 91.8719 34.107 61.7399 36.258 59.1929C37.806 57.3779 52.41 67.2659 51.72 69.7199C50.61 73.6799 39.63 106.215 32.451 110.442Z" fill="#EB9481"/>
<path d="M35.46 61.1999C35.46 61.1999 37.14 53.9759 39.198 50.4569C41.952 45.7409 46.272 42.8039 48.156 41.6819C52.089 39.3419 63.216 36.4019 64.623 39.4589C65.895 42.2279 54.369 44.6579 54.369 44.6579C54.369 44.6579 65.712 40.2419 66.633 43.8539C67.554 47.4659 54 49.5329 54 49.5329C54 49.5329 65.757 45.2549 66.114 49.1309C66.387 52.0619 54.225 54.6179 54.225 54.6179C54.225 54.6179 64.356 51.0179 64.767 54.0179C65.217 57.3179 54.141 60.3959 54.141 60.3959C53.895 68.1959 50.586 71.8169 47.928 74.1089C47.295 74.6579 35.46 61.1999 35.46 61.1999Z" fill="#EB9481"/>
<path d="M62.481 47.4961C63.129 47.2621 67.095 46.3141 66.807 43.9681C66.597 42.2371 64.605 42.4471 63.933 42.4501H64.026C64.167 42.4501 61.902 42.3931 58.479 43.1791C57.084 43.5001 55.707 43.8991 54.348 44.3491C52.989 44.7991 51.648 45.3811 50.349 45.9481C50.316 45.9481 50.328 46.0111 50.349 45.9991C51.705 45.5521 53.085 45.1741 54.441 44.7271C55.797 44.2801 60.459 42.8221 63.768 42.4741C64.3972 42.4613 65.0223 42.5787 65.604 42.8191C65.8543 42.9277 66.0725 43.0986 66.238 43.3155C66.4034 43.5324 66.5105 43.7881 66.549 44.0581C66.654 45.3061 65.328 46.0531 64.395 46.5571C63.7664 46.9077 63.1114 47.2086 62.436 47.4571C62.4329 47.4594 62.4304 47.4623 62.4286 47.4657C62.4269 47.4691 62.426 47.4728 62.426 47.4766C62.426 47.4804 62.4269 47.4842 62.4286 47.4876C62.4304 47.491 62.4329 47.4939 62.436 47.4961H62.235C62.2151 47.4937 62.1949 47.4937 62.175 47.4961C60.408 47.9491 58.719 48.3421 56.988 48.9151C55.257 49.4881 53.577 50.2021 51.87 50.8531C51.843 50.8531 51.855 50.9041 51.87 50.8951C53.58 50.2951 55.347 49.8121 57.081 49.2721C58.815 48.7321 60.381 48.1081 62.136 47.5861C62.1804 47.5781 62.2201 47.5534 62.247 47.5171C62.9982 47.4903 63.7498 47.5558 64.485 47.7121C65.139 47.8681 65.748 48.2581 65.919 48.9511C66.102 49.6891 65.481 50.2681 64.959 50.6731C64.4002 51.0902 63.7964 51.4434 63.159 51.7261C62.763 51.9151 62.355 52.0831 61.959 52.2511C61.563 52.4191 60.825 52.7521 60.402 52.8991C60.372 52.8991 60.402 52.9291 60.438 52.9201C65.622 51.6631 66.459 49.9201 66.309 48.9451C66.048 47.1631 63.3 47.4451 62.481 47.4961Z" fill="#263238"/>
<path d="M52.428 55.3529C54.9992 54.2714 57.6755 53.4591 60.414 52.9289C60.552 52.8989 60.504 53.0039 60.369 53.0429C57.669 53.7779 55.626 54.3959 52.467 55.4429C52.419 55.4579 52.374 55.3769 52.428 55.3529Z" fill="#263238"/>
<path d="M64.539 53.1389C63.516 52.2839 61.176 52.7939 60.426 52.9229C60.387 52.9229 60.396 53.0039 60.426 52.9979C61.0749 52.8985 61.7318 52.8604 62.388 52.8839C62.9536 52.8822 63.5148 52.9839 64.044 53.1839C64.2656 53.2724 64.4543 53.4276 64.584 53.6279C64.6548 53.7614 64.6977 53.9079 64.7101 54.0585C64.7225 54.2091 64.7041 54.3607 64.656 54.5039C64.4904 55.0363 64.1786 55.5113 63.756 55.8749C61.179 58.2479 54.12 60.3449 54.102 60.3509C54.084 60.3569 53.973 62.3429 53.865 63.2399C53.811 63.6749 53.742 64.1069 53.661 64.5359C53.6001 64.9898 53.4997 65.4375 53.361 65.8739C53.361 65.9009 53.397 65.9159 53.406 65.8739C53.541 65.4329 53.724 65.0099 53.856 64.5689C53.987 64.1292 54.0932 63.6825 54.174 63.2309C54.2913 62.3118 54.3425 61.3854 54.327 60.4589C66.678 57.1889 65.451 53.9039 64.539 53.1389Z" fill="#263238"/>
<path d="M34.059 59.7271L52.404 72.2671C52.404 72.2671 38.541 110.328 30.804 111.474C27.264 111.996 25.266 110.925 23.847 108.474C22.428 106.023 20.592 93.4171 34.059 59.7271Z" fill="#F76779"/>
<path opacity="0.1" d="M37.518 62.1001H33.126C33.147 62.0461 33.168 61.9891 33.192 61.9351H37.275L37.518 62.1001ZM40.653 64.2421L40.098 63.8641H32.445C32.367 64.0651 32.292 64.2631 32.217 64.4641H40.971L40.653 64.2421ZM43.551 66.2251H31.476V66.3901H43.8L43.551 66.2251ZM46.872 68.4961L46.704 68.3791L46.374 68.1541H30.846L30.63 68.7541H47.247L46.872 68.4961ZM49.827 70.5151H30C29.979 70.5691 29.961 70.6261 29.943 70.6801H50.07L49.827 70.5151ZM29.34 72.4321C29.271 72.6331 29.202 72.8341 29.136 73.0321H52.122L52.344 72.4321H29.34ZM28.554 74.7931C28.533 74.8501 28.515 74.9071 28.497 74.9611H51.39C51.414 74.9041 51.435 74.8471 51.456 74.7931H28.554ZM27.933 76.7221C27.882 76.8811 27.834 77.0371 27.783 77.1931C27.783 77.2351 27.756 77.2801 27.741 77.3221H50.475L50.712 76.7221H27.933ZM27.204 79.0831L27.186 79.1461C27.186 79.1821 27.165 79.2151 27.156 79.2511H49.713C49.734 79.1941 49.758 79.1371 49.779 79.0831H27.204ZM26.64 81.0001C26.58 81.2011 26.523 81.4021 26.469 81.6001H48.756L49.002 81.0001H26.64ZM25.983 83.3611C25.965 83.4181 25.95 83.4751 25.938 83.5291H47.958L48.027 83.3611H25.983ZM25.476 85.2901L25.422 85.5031C25.389 85.6351 25.359 85.7611 25.326 85.8901H46.959C47.046 85.6891 47.13 85.4881 47.214 85.2901H25.476ZM24.9 87.6631C24.885 87.7201 24.873 87.7771 24.861 87.8311H46.119C46.143 87.7771 46.17 87.7201 46.191 87.6631H24.9ZM24.471 89.5921C24.426 89.7931 24.384 89.9941 24.342 90.1921H45.072L45.339 89.5921H24.471ZM24 91.9531C24 92.0101 23.979 92.0671 23.967 92.1211H44.19C44.217 92.0641 44.244 92.0101 44.268 91.9531H24ZM23.658 93.8821C23.625 94.0861 23.595 94.2841 23.565 94.4821H43.065C43.164 94.2841 43.26 94.0831 43.365 93.8821H23.658ZM23.31 96.2431C23.31 96.3001 23.31 96.3541 23.289 96.4111H42.135L42.219 96.2431H23.31ZM23.1 98.1721C23.082 98.3761 23.061 98.5771 23.043 98.7721H40.944L41.244 98.1721H23.1ZM22.923 100.533C22.923 100.59 22.923 100.644 22.923 100.698H39.9L39.99 100.533H22.923ZM22.875 102.462C22.875 102.666 22.875 102.864 22.875 103.062H38.55C38.667 102.864 38.784 102.666 38.898 102.462H22.875ZM22.974 104.823C22.974 104.88 22.974 104.934 22.974 104.988H37.374L37.479 104.823H22.974ZM23.256 106.752C23.304 106.968 23.352 107.166 23.403 107.352H35.781V107.295C35.913 107.119 36.045 106.939 36.177 106.755L23.256 106.752ZM24.255 109.113C24.291 109.17 24.333 109.224 24.372 109.278H34.134L34.287 109.113H24.255ZM26.436 111.042C26.6829 111.162 26.9386 111.262 27.201 111.342C27.3984 111.4 27.5987 111.448 27.801 111.486C28.3828 111.591 28.9747 111.628 29.565 111.597C29.62 111.6 29.675 111.6 29.73 111.597C30.072 111.579 30.432 111.543 30.81 111.486C31.0445 111.45 31.274 111.386 31.494 111.297C31.6681 111.227 31.8375 111.146 32.001 111.054L26.436 111.042ZM23.307 96.2431C23.307 96.3001 23.307 96.3541 23.286 96.4111C23.208 97.0231 23.141 97.6101 23.085 98.1721C23.067 98.3761 23.046 98.5771 23.028 98.7721C22.977 99.3931 22.935 99.9721 22.908 100.533C22.908 100.59 22.908 100.644 22.908 100.698V103.89C22.923 104.22 22.947 104.532 22.971 104.823C22.971 104.88 22.971 104.934 22.971 104.988C23.0282 105.58 23.1173 106.169 23.238 106.752C23.286 106.968 23.334 107.166 23.385 107.352C23.421 107.472 23.454 107.586 23.49 107.691V94.9231C23.424 95.3761 23.364 95.8171 23.307 96.2431ZM25.326 85.9021C25.302 85.9951 25.281 86.0881 25.257 86.1811V110.268C25.311 110.319 25.365 110.364 25.422 110.409V85.5091C25.389 85.6471 25.359 85.7731 25.326 85.9021ZM27.726 77.3221C27.544 77.9221 27.365 78.5091 27.189 79.0831L27.171 79.1461V111.339C27.3684 111.397 27.5687 111.445 27.771 111.483V77.1931C27.771 77.2351 27.756 77.2801 27.741 77.3221H27.726ZM29.526 71.8291V111.6C29.581 111.603 29.636 111.603 29.691 111.6V71.3491C29.655 71.5111 29.601 71.6701 29.547 71.8291H29.526ZM31.533 66.2161H31.455V111.3C31.6291 111.23 31.7985 111.149 31.962 111.057H32.052V64.8571C31.896 65.2981 31.725 65.7601 31.554 66.2161H31.533ZM33.837 60.3001V109.569L34.002 109.401V60.1621H33.9L33.837 60.3001ZM35.766 60.9001V107.292C35.898 107.116 36.03 106.936 36.162 106.752C36.228 106.659 36.297 106.566 36.363 106.47V61.3021L35.766 60.9001ZM38.127 62.5141V103.764L38.292 103.491V62.6221L38.127 62.5141ZM40.053 63.8311V100.431C40.254 100.065 40.452 99.6931 40.653 99.3181V64.2331L40.098 63.8551L40.053 63.8311ZM42.414 65.4451V95.8471C42.468 95.7331 42.525 95.6191 42.582 95.5051V65.5531L42.414 65.4451ZM44.343 66.7621V91.8001C44.543 91.3641 44.743 90.9281 44.943 90.4921V67.1671L44.343 66.7621ZM46.704 68.3761V86.4991L46.872 86.1121V68.4871L46.704 68.3761ZM48.633 69.6961V81.9001C48.675 81.7981 48.714 81.6991 48.756 81.6001L49.002 81.0001C49.08 80.8081 49.155 80.6191 49.233 80.4331V70.0981L48.633 69.6961ZM50.994 75.9961L51.162 75.5581V71.4181L50.994 71.3041V75.9961Z" fill="black"/>
<path d="M52.7699 72.3C52.7699 72.315 52.4519 73.071 52.3079 73.434C51.1589 76.383 49.9079 79.29 48.6419 82.191C47.3759 85.092 46.1039 87.972 44.7779 90.84C43.4519 93.708 42.1079 96.567 40.7249 99.408C39.5939 101.727 38.4179 104.031 36.9269 106.143C36.1959 107.178 35.3714 108.144 34.4639 109.029C33.5482 109.887 32.5423 110.643 31.4639 111.285C31.4584 111.288 31.4517 111.289 31.4456 111.287C31.4394 111.286 31.4341 111.282 31.4309 111.276C31.4277 111.27 31.4269 111.264 31.4286 111.258C31.4303 111.251 31.4344 111.246 31.4399 111.243C31.7171 111.075 31.9845 110.892 32.2409 110.694C34.1758 109.082 35.825 107.155 37.1189 104.994C38.4727 102.731 39.7015 100.395 40.7999 97.998C42.1639 95.166 43.4969 92.318 44.7989 89.454C46.1009 86.592 47.3969 83.727 48.6509 80.847C49.9049 77.967 51.1109 75.114 52.3529 72.255C52.2959 72.222 51.3749 71.586 51.1529 71.421C51.1349 71.421 51.1529 71.37 51.1709 71.379C51.4349 71.451 52.7999 72.219 52.7699 72.3ZM50.0699 74.973C49.0499 74.187 47.9699 73.473 46.9109 72.741C45.8519 72.009 44.7509 71.289 43.6649 70.575C41.5109 69.162 39.3779 67.719 37.2209 66.309C36.6209 65.913 36.0029 65.526 35.3909 65.142C34.7789 64.758 34.1339 64.374 33.5339 63.942C33.5284 63.9384 33.5216 63.9372 33.5151 63.9386C33.5086 63.94 33.503 63.9439 33.4994 63.9495C33.4958 63.955 33.4946 63.9618 33.496 63.9683C33.4974 63.9747 33.5014 63.9804 33.5069 63.984C34.5689 64.716 35.5559 65.556 36.6029 66.312C37.6499 67.068 38.7029 67.836 39.7889 68.568C41.9219 70.014 44.0549 71.46 46.2359 72.834C47.4719 73.617 48.7109 74.391 50.0069 75.066C50.0202 75.071 50.0348 75.0712 50.0482 75.0665C50.0616 75.0618 50.0729 75.0526 50.0801 75.0403C50.0873 75.0281 50.0899 75.0137 50.0875 74.9997C50.0851 74.9858 50.0778 74.9731 50.0669 74.964L50.0699 74.973Z" fill="#263238"/>
<path d="M101.925 119.043L110.976 113.697L122.475 117.546L113.034 123.285L101.925 119.043Z" fill="white"/>
<path d="M112.674 121.8C113.229 121.389 113.805 121.005 114.381 120.627C114.957 120.249 115.542 119.886 116.127 119.526C116.712 119.166 117.309 118.815 117.927 118.482L118.827 117.981C119.127 117.822 119.427 117.657 119.748 117.507C119.469 117.714 119.184 117.906 118.902 118.107L118.041 118.68C117.465 119.061 116.88 119.424 116.292 119.784C115.704 120.144 115.11 120.492 114.507 120.828C113.904 121.164 113.295 121.5 112.674 121.8Z" fill="#DBDBDB"/>
<path d="M114.168 119.625C114.81 119.11 115.487 118.64 116.193 118.218C116.893 117.785 117.621 117.401 118.374 117.069C117.732 117.584 117.056 118.054 116.349 118.476C115.649 118.907 114.92 119.291 114.168 119.625Z" fill="#DBDBDB"/>
<path d="M109.947 120.927C110.502 120.516 111.078 120.135 111.654 119.757C112.23 119.379 112.815 119.013 113.4 118.653C113.985 118.293 114.582 117.942 115.185 117.609L116.085 117.108C116.385 116.949 116.685 116.784 117.006 116.634C116.73 116.841 116.442 117.033 116.16 117.234L115.299 117.807C114.723 118.188 114.138 118.548 113.55 118.908C112.962 119.268 112.368 119.619 111.765 119.952C111.162 120.285 110.568 120.624 109.947 120.927Z" fill="#DBDBDB"/>
<path d="M109.599 119.877C110.544 119.163 111.54 118.527 112.545 117.909C113.55 117.291 114.579 116.709 115.647 116.199C114.702 116.913 113.706 117.549 112.701 118.167C111.696 118.785 110.667 119.364 109.599 119.877Z" fill="#DBDBDB"/>
<path d="M110.781 117.9C111.84 117.025 113.02 116.307 114.285 115.77C113.762 116.216 113.202 116.618 112.611 116.97C112.028 117.33 111.416 117.641 110.781 117.9Z" fill="#DBDBDB"/>
<path d="M86.6641 124.077L100.965 118.491L114.762 126.81L100.536 132.594L86.6641 124.077Z" fill="white"/>
<path d="M100.335 130.899C101.265 130.455 102.21 130.041 103.155 129.63C104.1 129.219 105.054 128.823 106.005 128.43C106.956 128.037 107.919 127.659 108.882 127.296L110.331 126.753C110.817 126.582 111.3 126.402 111.792 126.24C111.327 126.465 110.853 126.672 110.385 126.891L108.969 127.512C108.024 127.923 107.073 128.316 106.119 128.712C105.165 129.108 104.205 129.483 103.242 129.846C102.279 130.209 101.313 130.569 100.335 130.899Z" fill="#DBDBDB"/>
<path d="M103.998 127.938C105.018 127.398 106.071 126.939 107.133 126.501C108.195 126.063 109.272 125.667 110.382 125.343C109.362 125.874 108.315 126.354 107.247 126.78C106.182 127.2 105.108 127.614 103.998 127.938Z" fill="#DBDBDB"/>
<path d="M98.925 128.529C99.738 128.133 100.566 127.764 101.394 127.401C102.222 127.038 103.056 126.693 103.893 126.348C104.73 126.003 105.57 125.673 106.416 125.358L107.688 124.887C108.117 124.74 108.54 124.587 108.972 124.446C108.567 124.647 108.153 124.83 107.745 125.022L106.5 125.574C105.672 125.937 104.838 126.282 104.001 126.627C103.164 126.972 102.324 127.299 101.478 127.614C100.632 127.929 99.786 128.247 98.925 128.529Z" fill="#DBDBDB"/>
<path d="M98.259 127.329C99.012 126.957 99.774 126.615 100.542 126.276C101.31 125.937 102.081 125.616 102.855 125.298C103.629 124.98 104.409 124.674 105.192 124.383L106.371 123.951C106.77 123.816 107.163 123.672 107.571 123.546C107.196 123.735 106.815 123.906 106.437 124.086L105.288 124.599C104.523 124.938 103.749 125.259 102.975 125.577C102.201 125.895 101.424 126.198 100.638 126.477C99.852 126.756 99.057 127.071 98.259 127.329Z" fill="#DBDBDB"/>
<path d="M94.6951 127.305C95.6281 126.858 96.5731 126.444 97.5181 126.033C98.4631 125.622 99.4141 125.229 100.368 124.833C101.322 124.437 102.279 124.065 103.245 123.702L104.694 123.159C105.18 122.988 105.663 122.805 106.152 122.643C105.687 122.868 105.216 123.078 104.748 123.294L103.332 123.915C102.387 124.329 101.436 124.719 100.482 125.115C99.5281 125.511 98.5681 125.883 97.6051 126.246C96.6421 126.609 95.6761 126.975 94.6951 127.305Z" fill="#DBDBDB"/>
<path d="M94.578 125.88C95.403 125.478 96.237 125.109 97.077 124.74C97.917 124.371 98.76 124.023 99.606 123.675C100.452 123.327 101.301 122.994 102.159 122.673L103.446 122.196C103.878 122.046 104.307 121.896 104.745 121.749C104.334 121.953 103.914 122.136 103.5 122.334L102.246 122.889C101.409 123.258 100.563 123.606 99.717 123.954C98.871 124.302 98.019 124.635 97.164 124.953C96.309 125.271 95.448 125.595 94.578 125.88Z" fill="#DBDBDB"/>
<path d="M91.8781 125.508C92.8081 125.061 93.753 124.647 94.6981 124.236C95.6431 123.825 96.5971 123.432 97.5511 123.036C98.5051 122.64 99.4621 122.265 100.428 121.905L101.874 121.359C102.36 121.188 102.843 121.008 103.335 120.846C102.87 121.071 102.399 121.278 101.931 121.497L100.515 122.118C99.57 122.532 98.6161 122.922 97.6621 123.318C96.7081 123.714 95.7511 124.086 94.7851 124.449C93.8191 124.812 92.8561 125.175 91.8781 125.508Z" fill="#DBDBDB"/>
<path d="M95.1541 122.7C96.2371 122.133 97.3561 121.647 98.4841 121.185C99.6121 120.723 100.752 120.285 101.925 119.946C100.842 120.516 99.7231 120.999 98.5951 121.461C97.4671 121.923 96.3271 122.352 95.1541 122.7Z" fill="#DBDBDB"/>
<path d="M38.712 119.733L80.793 114.222L98.433 126.798L56.916 134.97L38.712 119.733Z" fill="#455A64"/>
<path d="M41.2621 119.874L57.9211 133.866L96.8281 126.234L79.7641 114.168C79.7641 114.168 68.4061 114.207 67.8661 114.303C67.3261 114.399 62.1391 115.803 62.1391 115.803C62.1391 115.803 55.0741 116.121 54.5851 116.22C54.0961 116.319 41.2621 119.874 41.2621 119.874Z" fill="white"/>
<path d="M62.139 115.812L64.17 117.534L66.189 119.271L70.197 122.775L74.172 126.318L76.146 128.103L78.108 129.906L76.074 128.187L74.058 126.447L70.05 122.943L66.075 119.4L64.098 117.615L62.139 115.812Z" fill="#DBDBDB"/>
<path d="M64.515 124.761C65.007 124.668 65.502 124.599 65.997 124.533C66.492 124.467 66.99 124.413 67.497 124.362C68.004 124.311 68.493 124.272 68.997 124.245C69.501 124.218 69.996 124.191 70.497 124.188C70.005 124.284 69.51 124.353 69.015 124.419C68.52 124.485 68.025 124.536 67.515 124.587C67.005 124.638 66.522 124.677 66.015 124.704C65.508 124.731 65.022 124.758 64.515 124.761Z" fill="#DBDBDB"/>
<path d="M55.569 128.553C56.874 128.127 58.185 127.722 59.496 127.323C60.807 126.924 62.13 126.543 63.447 126.159C64.107 125.964 64.767 125.787 65.436 125.616C65.6071 125.572 65.7818 125.544 65.958 125.532L66.471 125.478L67.5 125.4C68.868 125.292 70.236 125.187 71.607 125.115C70.245 125.289 68.88 125.433 67.518 125.586L66.495 125.694C66.1571 125.717 65.8212 125.764 65.49 125.835C64.83 126.006 64.173 126.204 63.51 126.384L59.547 127.494C58.221 127.848 56.898 128.211 55.569 128.553Z" fill="#DBDBDB"/>
<path d="M56.733 129.552C57.999 129.126 59.268 128.718 60.543 128.319C61.818 127.92 63.096 127.539 64.374 127.155C65.012 126.955 65.654 126.772 66.3 126.606C66.462 126.561 66.621 126.516 66.795 126.48C66.969 126.444 67.131 126.438 67.299 126.42L68.295 126.324C69.627 126.216 70.956 126.117 72.291 126.051C70.965 126.225 69.639 126.366 68.313 126.516L67.32 126.621C67.155 126.642 66.987 126.657 66.831 126.687C66.675 126.717 66.516 126.768 66.357 126.81L64.434 127.362C63.15 127.728 61.875 128.115 60.588 128.475C59.301 128.835 58.023 129.204 56.733 129.552Z" fill="#DBDBDB"/>
<path d="M57.9 130.404C59.184 130.026 60.471 129.669 61.761 129.321C63.051 128.973 64.347 128.64 65.64 128.304C66.291 128.139 66.93 127.971 67.602 127.839L69.585 127.539C70.911 127.359 72.234 127.176 73.563 127.026C72.252 127.281 70.932 127.503 69.615 127.728L67.635 128.028C66.996 128.157 66.342 128.328 65.694 128.49C64.395 128.805 63.102 129.144 61.794 129.453C60.486 129.762 59.211 130.107 57.9 130.404Z" fill="#DBDBDB"/>
<path d="M76.959 126.699C78.159 126.299 79.37 125.934 80.592 125.604C80.892 125.523 81.192 125.439 81.513 125.367C81.669 125.331 81.813 125.295 81.987 125.271L82.458 125.208L84.336 124.956C85.59 124.785 86.844 124.635 88.098 124.476C89.352 124.317 90.606 124.176 91.863 124.026C90.615 124.226 89.366 124.419 88.116 124.605C86.865 124.788 85.614 124.98 84.363 125.154L82.485 125.415L82.017 125.484C81.87 125.508 81.717 125.547 81.564 125.583L80.646 125.808C79.422 126.12 78.198 126.429 76.959 126.699Z" fill="#DBDBDB"/>
<path d="M75.855 125.583C77.037 125.253 78.226 124.959 79.422 124.701C80.022 124.569 80.622 124.428 81.222 124.347L83.04 124.092C84.24 123.918 85.464 123.765 86.676 123.603C87.888 123.441 89.103 123.303 90.318 123.144C89.118 123.348 87.903 123.549 86.694 123.744C85.485 123.939 84.276 124.125 83.067 124.299L81.252 124.569C80.952 124.608 80.652 124.674 80.352 124.734L79.452 124.911C78.267 125.151 77.064 125.382 75.855 125.583Z" fill="#DBDBDB"/>
<path d="M74.781 124.575C75.957 124.257 77.136 123.975 78.324 123.711C78.924 123.585 79.506 123.444 80.124 123.348L81.924 123.144C83.124 123.006 84.342 122.886 85.548 122.76C86.754 122.634 87.966 122.523 89.178 122.415C87.978 122.583 86.778 122.743 85.578 122.895C84.378 123.048 83.178 123.195 81.963 123.342C81.363 123.414 80.763 123.48 80.163 123.561L78.366 123.9C77.176 124.152 75.981 124.377 74.781 124.575Z" fill="#DBDBDB"/>
<path d="M73.8511 123.813C74.9941 123.375 76.1581 123.009 77.3401 122.679C77.4871 122.64 77.6401 122.601 77.7871 122.571C77.9402 122.537 78.0956 122.515 78.2521 122.505L79.1671 122.424L80.9911 122.271C83.4271 122.082 85.8631 121.902 88.3021 121.755C85.8721 122.013 83.4391 122.238 81.0091 122.463L79.1851 122.628L78.2851 122.715C77.9873 122.749 77.6932 122.809 77.4061 122.895C76.2151 123.198 75.0451 123.543 73.8511 123.813Z" fill="#DBDBDB"/>
<path d="M72.8401 122.901C73.9831 122.46 75.1471 122.097 76.3291 121.767C76.4761 121.725 76.6291 121.689 76.7761 121.656C76.9292 121.623 77.0847 121.6 77.2411 121.59L78.1411 121.509L79.9651 121.359C82.4011 121.167 84.8371 120.987 87.2761 120.84C84.8461 121.098 82.4131 121.326 79.9831 121.551L78.1591 121.716L77.2591 121.8C76.9614 121.834 76.6672 121.894 76.3801 121.98C75.2041 122.286 74.0341 122.628 72.8401 122.901Z" fill="#DBDBDB"/>
<path d="M71.829 121.986C72.972 121.548 74.136 121.182 75.315 120.852C75.465 120.813 75.615 120.774 75.765 120.744C75.9181 120.71 76.0736 120.688 76.23 120.678L77.13 120.597L78.954 120.444C81.39 120.255 83.826 120.075 86.265 119.928C83.835 120.183 81.402 120.411 78.972 120.636L77.148 120.801L76.248 120.888C75.9502 120.922 75.6561 120.982 75.369 121.068C74.193 121.371 73.023 121.716 71.829 121.986Z" fill="#DBDBDB"/>
<path d="M70.818 121.074C71.961 120.633 73.125 120.27 74.304 119.94C74.454 119.898 74.604 119.862 74.754 119.829C74.9071 119.795 75.0626 119.773 75.219 119.763L76.134 119.682L77.958 119.532C80.394 119.34 82.83 119.16 85.269 119.013C82.839 119.271 80.406 119.499 77.976 119.724L76.152 119.889L75.252 119.976C74.9541 120.007 74.6598 120.067 74.373 120.153C73.182 120.459 72 120.801 70.818 121.074Z" fill="#DBDBDB"/>
<path d="M69.465 120.27C70.608 119.832 71.772 119.466 72.954 119.136C73.101 119.094 73.254 119.058 73.401 119.028C73.555 118.993 73.7115 118.97 73.869 118.959L74.769 118.881L76.596 118.728C79.029 118.539 81.465 118.359 83.904 118.212C81.474 118.467 79.044 118.695 76.611 118.92L74.787 119.085L73.887 119.172C73.5889 119.204 73.2946 119.264 73.008 119.352C71.832 119.655 70.659 120 69.465 120.27Z" fill="#DBDBDB"/>
<path d="M68.151 119.478C69.294 119.04 70.458 118.674 71.64 118.344C71.787 118.305 71.94 118.266 72.087 118.236C72.2411 118.202 72.3976 118.18 72.555 118.17L73.455 118.089L75.282 117.936C77.715 117.747 80.151 117.567 82.59 117.42C80.16 117.675 77.73 117.903 75.297 118.128L73.473 118.293L72.573 118.38C72.2742 118.414 71.9791 118.474 71.691 118.56C70.518 118.863 69.345 119.208 68.151 119.478Z" fill="#DBDBDB"/>
<path d="M67.14 118.566C68.28 118.128 69.444 117.762 70.623 117.432C70.77 117.393 70.923 117.354 71.07 117.324C71.2239 117.289 71.3804 117.267 71.538 117.258L72.438 117.192L74.262 117.072C76.698 116.925 79.131 116.79 81.57 116.691C79.14 116.901 76.707 117.081 74.277 117.264L72.453 117.396L71.553 117.468C71.256 117.501 70.9628 117.561 70.677 117.648C69.501 117.951 68.331 118.293 67.14 118.566Z" fill="#DBDBDB"/>
<path d="M66.129 117.651C67.269 117.213 68.43 116.85 69.606 116.52C69.753 116.481 69.906 116.442 70.053 116.412C70.2068 116.377 70.3634 116.354 70.521 116.346L71.421 116.298L73.245 116.211C75.678 116.115 78.111 116.034 80.547 115.983C78.117 116.142 75.684 116.283 73.254 116.406L71.433 116.502L70.533 116.559C70.2367 116.588 69.9441 116.647 69.66 116.736C68.487 117.039 67.317 117.381 66.129 117.651Z" fill="#DBDBDB"/>
<path d="M65.118 116.739C66.255 116.301 67.413 115.938 68.586 115.611C68.736 115.569 68.886 115.53 69.033 115.5C69.1874 115.462 69.3453 115.441 69.504 115.437L70.404 115.413L72.228 115.389C73.428 115.374 74.658 115.389 75.873 115.389C77.088 115.389 78.3 115.389 79.515 115.422C77.088 115.494 74.658 115.542 72.231 115.593L70.41 115.632L69.51 115.662C69.2146 115.689 68.923 115.747 68.64 115.836C67.47 116.127 66.3 116.469 65.118 116.739Z" fill="#DBDBDB"/>
<path d="M59.058 131.64C60.363 131.295 61.674 130.971 62.988 130.653C64.302 130.335 65.619 130.035 66.936 129.732C67.596 129.579 68.25 129.432 68.922 129.306L70.923 128.973C72.255 128.763 73.59 128.553 74.931 128.373C73.608 128.652 72.279 128.904 70.95 129.153L68.955 129.513C68.304 129.642 67.641 129.813 66.984 129.945L63.024 130.815C61.704 131.1 60.384 131.379 59.058 131.64Z" fill="#DBDBDB"/>
<path d="M77.754 127.758C79.071 127.44 80.394 127.143 81.72 126.858C83.046 126.573 84.372 126.294 85.698 126.018C86.364 125.88 87.024 125.751 87.702 125.634L89.712 125.334C91.056 125.151 92.412 124.968 93.747 124.815C92.415 125.07 91.077 125.292 89.739 125.514L87.729 125.832C87.072 125.949 86.406 126.099 85.743 126.225L81.753 127.011C80.421 127.272 79.089 127.527 77.754 127.758Z" fill="#DBDBDB"/>
<path d="M87.57 109.731H45.027V111.639H87.57V109.731Z" fill="#455A64"/>
<path d="M87.5731 109.731H66.1591V111.639H87.5731V109.731Z" fill="#37474F"/>
<path d="M68.463 111.636H109.923L115.344 83.478H73.884L68.463 111.636Z" fill="#455A64"/>
<path d="M89.379 97.5571C89.344 97.8784 89.3778 98.2034 89.4782 98.5106C89.5786 98.8179 89.7432 99.1002 89.9612 99.3389C90.1791 99.5775 90.4454 99.7671 90.7423 99.8948C91.0391 100.023 91.3598 100.086 91.683 100.08C92.37 100.068 93.0287 99.8048 93.5346 99.3399C94.0405 98.8749 94.3583 98.2406 94.428 97.5571C94.4629 97.2357 94.4291 96.9107 94.3287 96.6034C94.2283 96.2962 94.0637 96.0139 93.8457 95.7752C93.6278 95.5366 93.3615 95.347 93.0647 95.2193C92.7678 95.0915 92.4471 95.0283 92.124 95.034C91.4372 95.0466 90.7787 95.3101 90.273 95.775C89.7673 96.2398 89.4492 96.8737 89.379 97.5571Z" fill="#A6A6A6"/>
<path d="M111.87 101.526L109.923 111.636H77.772L111.87 101.526Z" fill="#37474F"/>
<path d="M120.369 80.7001C125.403 85.6291 126.249 93.2491 125.187 99.9271C125.16 100.077 124.926 100.035 124.926 99.8941C124.926 98.3731 124.971 96.8671 124.968 95.3671C124.938 95.2981 124.917 95.2321 124.887 95.1631C123.576 94.2091 122.367 93.1291 121.62 91.6531C120.78 90.0001 120.45 88.1341 119.82 86.4091C119.76 86.2441 119.937 86.2921 120.054 86.3761C123.114 88.6351 124.089 91.0651 124.968 94.3111C124.949 92.6131 124.771 90.9206 124.434 89.2561C123.774 86.1751 122.466 83.1211 120.252 80.8351C120.156 80.7511 120.282 80.6161 120.369 80.7001Z" fill="#263238"/>
<path d="M119.424 81.2789C118.56 81.3089 118.017 82.6919 117.342 83.0939C117.271 83.152 117.189 83.1946 117.101 83.2187C117.013 83.2428 116.92 83.2479 116.83 83.2338C116.739 83.2196 116.653 83.1864 116.576 83.1365C116.5 83.0865 116.434 83.0209 116.385 82.9439C115.719 82.0109 116.634 80.8439 117.498 80.2169C116.88 80.4689 116.37 80.9159 115.698 81.0419C115.613 81.0699 115.523 81.0793 115.434 81.0693C115.344 81.0594 115.259 81.0304 115.182 80.9843C115.105 80.9381 115.039 80.876 114.988 80.8021C114.937 80.7282 114.903 80.6442 114.888 80.5559C114.588 79.2839 116.19 78.7199 117.288 78.6929C116.757 78.3239 115.236 77.3189 116.046 76.8269C116.856 76.3349 118.65 77.7659 119.232 78.2399C120.087 78.9329 121.107 79.9709 121.146 81.0569C121.2 82.3229 120.09 81.5429 119.424 81.2789Z" fill="#F76779"/>
<path opacity="0.1" d="M119.424 81.2789C118.56 81.3089 118.017 82.6919 117.342 83.0939C117.271 83.152 117.189 83.1946 117.101 83.2187C117.013 83.2428 116.92 83.2479 116.83 83.2338C116.739 83.2196 116.653 83.1864 116.576 83.1365C116.5 83.0865 116.434 83.0209 116.385 82.9439C115.719 82.0109 116.634 80.8439 117.498 80.2169C116.88 80.4689 116.37 80.9159 115.698 81.0419C115.613 81.0699 115.523 81.0793 115.434 81.0693C115.344 81.0594 115.259 81.0304 115.182 80.9843C115.105 80.9381 115.039 80.876 114.988 80.8021C114.937 80.7282 114.903 80.6442 114.888 80.5559C114.588 79.2839 116.19 78.7199 117.288 78.6929C116.757 78.3239 115.236 77.3189 116.046 76.8269C116.856 76.3349 118.65 77.7659 119.232 78.2399C120.087 78.9329 121.107 79.9709 121.146 81.0569C121.2 82.3229 120.09 81.5429 119.424 81.2789Z" fill="black"/>
<path d="M119.676 81.492C118.569 80.988 116.442 81.714 116.262 81.294C115.896 80.442 117.594 79.857 118.512 79.743C117.666 79.515 116.049 79.143 116.097 78.336C116.157 77.34 118.581 78.195 119.805 79.137C121.35 80.319 121.341 81.462 121.086 81.69C120.735 82.005 119.859 81.576 119.676 81.492Z" fill="#F76779"/>
<path d="M131.832 80.2171C126.615 84.9481 125.481 92.5321 126.288 99.2431C126.309 99.3961 126.543 99.3631 126.549 99.2221C126.606 97.7041 126.618 96.1951 126.681 94.6951C126.711 94.6291 126.735 94.5661 126.765 94.4971C128.115 93.5971 129.363 92.5621 130.167 91.1101C131.067 89.4931 131.469 87.6421 132.177 85.9411C132.243 85.7791 132.066 85.8211 131.949 85.8991C128.802 88.0411 127.749 90.4321 126.735 93.6421C126.817 91.946 127.059 90.2616 127.458 88.6111C128.238 85.5571 129.66 82.5541 131.958 80.3551C132.045 80.2711 131.922 80.1331 131.832 80.2171Z" fill="#263238"/>
<path d="M132.753 80.8259C133.617 80.8889 134.109 82.2929 134.766 82.7219C134.834 82.7824 134.915 82.8277 135.002 82.8549C135.089 82.8821 135.181 82.8906 135.272 82.8798C135.362 82.8691 135.449 82.8393 135.528 82.7924C135.606 82.7456 135.674 82.6827 135.726 82.6079C136.431 81.7079 135.558 80.5079 134.721 79.8389C135.321 80.1149 135.822 80.5799 136.482 80.7389C136.566 80.7697 136.656 80.782 136.745 80.7752C136.834 80.7684 136.921 80.7425 137 80.6992C137.078 80.656 137.146 80.5965 137.2 80.5247C137.253 80.4529 137.291 80.3705 137.31 80.2829C137.649 79.0229 136.077 78.3989 134.985 78.3299C135.528 77.9819 137.085 77.0369 136.299 76.5119C135.513 75.9869 133.659 77.3519 133.059 77.8019C132.18 78.4619 131.121 79.4609 131.04 80.5439C130.941 81.8039 132.078 81.0659 132.753 80.8259Z" fill="#F76779"/>
<path opacity="0.1" d="M132.753 80.8259C133.617 80.8889 134.109 82.2929 134.766 82.7219C134.834 82.7824 134.915 82.8277 135.002 82.8549C135.089 82.8821 135.181 82.8906 135.272 82.8798C135.362 82.8691 135.449 82.8393 135.528 82.7924C135.606 82.7456 135.674 82.6827 135.726 82.6079C136.431 81.7079 135.558 80.5079 134.721 79.8389C135.321 80.1149 135.822 80.5799 136.482 80.7389C136.566 80.7697 136.656 80.782 136.745 80.7752C136.834 80.7684 136.921 80.7425 137 80.6992C137.078 80.656 137.146 80.5965 137.2 80.5247C137.253 80.4529 137.291 80.3705 137.31 80.2829C137.649 79.0229 136.077 78.3989 134.985 78.3299C135.528 77.9819 137.085 77.0369 136.299 76.5119C135.513 75.9869 133.659 77.3519 133.059 77.8019C132.18 78.4619 131.121 79.4609 131.04 80.5439C130.941 81.8039 132.078 81.0659 132.753 80.8259Z" fill="black"/>
<path d="M132.495 81.0301C133.62 80.5681 135.717 81.3751 135.915 80.9611C136.314 80.1241 134.637 79.4761 133.725 79.3261C134.58 79.1311 136.209 78.8281 136.191 78.0121C136.167 77.0161 133.716 77.7781 132.456 78.6691C130.866 79.7941 130.833 80.9371 131.079 81.1741C131.418 81.5011 132.3 81.1051 132.495 81.0301Z" fill="#F76779"/>
<path d="M126.498 92.7C126.144 95.2307 125.603 97.7316 124.878 100.182C124.868 100.231 124.84 100.273 124.799 100.301C124.758 100.328 124.708 100.339 124.659 100.329C124.61 100.319 124.568 100.291 124.54 100.25C124.513 100.209 124.502 100.159 124.512 100.11C124.857 97.803 125.481 95.541 125.823 93.234C126.197 90.9019 126.331 88.5375 126.222 86.178C126.003 82.293 124.95 78.159 122.415 75.12C122.358 75.048 122.475 74.946 122.535 75.012C127.608 80.931 126.801 88.188 126.798 88.836C127.515 86.388 128.256 83.58 130.974 81.084C131.091 80.976 131.184 81.027 131.163 81.21C130.677 85.755 129.414 88.128 126.78 90.555C126.706 91.287 126.612 92.002 126.498 92.7Z" fill="#263238"/>
<path d="M122.367 75.813C121.467 75.408 120.195 76.569 119.292 76.65C118.815 76.692 118.461 76.503 118.377 76.011C118.152 74.706 119.682 73.974 120.903 73.74C120.135 73.692 119.379 73.899 118.626 73.695C118.525 73.681 118.428 73.6456 118.341 73.5913C118.254 73.537 118.18 73.465 118.124 73.3799C118.067 73.2949 118.029 73.1988 118.012 73.0979C117.995 72.9971 118 72.8939 118.026 72.795C118.362 71.328 120.303 71.544 121.452 72.069C121.089 71.418 120.015 69.612 121.101 69.507C122.187 69.402 123.33 71.79 123.696 72.576C124.236 73.725 124.773 75.315 124.266 76.476C123.681 77.79 122.925 76.425 122.367 75.813Z" fill="#F76779"/>
<path opacity="0.1" d="M122.367 75.813C121.467 75.408 120.195 76.569 119.292 76.65C118.815 76.692 118.461 76.503 118.377 76.011C118.152 74.706 119.682 73.974 120.903 73.74C120.135 73.692 119.379 73.899 118.626 73.695C118.525 73.681 118.428 73.6456 118.341 73.5913C118.254 73.537 118.18 73.465 118.124 73.3799C118.067 73.2949 118.029 73.1988 118.012 73.0979C117.995 72.9971 118 72.8939 118.026 72.795C118.362 71.328 120.303 71.544 121.452 72.069C121.089 71.418 120.015 69.612 121.101 69.507C122.187 69.402 123.33 71.79 123.696 72.576C124.236 73.725 124.773 75.315 124.266 76.476C123.681 77.79 122.925 76.425 122.367 75.813Z" fill="black"/>
<path d="M122.52 76.161C121.62 75.081 119.055 74.763 119.079 74.235C119.127 73.167 121.179 73.416 122.193 73.761C121.431 73.098 119.937 71.904 120.393 71.085C120.957 70.083 123.039 72.189 123.84 73.785C124.845 75.789 124.26 76.971 123.879 77.085C123.36 77.226 122.667 76.338 122.52 76.161Z" fill="#F76779"/>
<path d="M129.837 94.0801L132.075 111.18H118.452C118.734 109.665 121.269 94.0591 121.269 94.0591L129.837 94.0801Z" fill="#F76779"/>
<path d="M29.517 123.006H21.975V124.182H29.517V123.006Z" fill="#455A64"/>
<path d="M29.517 123.006H21.975V123.783H29.517V123.006Z" fill="#263238"/>
<path d="M38.4719 119.841C38.0114 120.516 37.3664 121.045 36.6138 121.364C35.8611 121.683 35.0326 121.779 34.2269 121.641C33.9656 121.592 33.7094 121.519 33.4619 121.422C33.0855 121.277 32.7271 121.088 32.3939 120.861L33.3539 119.439C33.531 119.565 33.7199 119.673 33.9179 119.763C35.7179 120.576 36.8519 119.163 37.0769 118.836C38.1089 117.384 38.4809 114.063 37.4309 112.788C37.3619 112.692 37.0619 112.542 35.8439 112.803C35.6219 112.851 35.3669 112.908 35.0789 112.989C34.8555 113.065 34.6239 113.114 34.3889 113.136L34.3589 112.284L34.2749 111.432C34.3529 111.417 34.4759 111.384 34.6349 111.339C35.1966 111.175 35.7704 111.055 36.3509 110.982C37.2509 110.889 38.1809 110.997 38.7509 111.702C40.4579 113.802 39.7679 118.017 38.4719 119.841Z" fill="#455A64"/>
<path d="M33.3539 119.454C33.531 119.58 33.7199 119.689 33.9179 119.778L33.4619 121.437C33.0855 121.292 32.7271 121.104 32.3939 120.876L33.3539 119.454Z" fill="#263238"/>
<path d="M36.351 111L35.844 112.821C35.622 112.869 35.367 112.926 35.079 113.007C34.8556 113.083 34.624 113.132 34.389 113.154L34.359 112.302L34.275 111.45C34.353 111.435 34.476 111.402 34.635 111.357C35.1967 111.193 35.7705 111.073 36.351 111Z" fill="#263238"/>
<path d="M15.714 108.774C15.714 108.774 16.614 116.46 18.183 119.697C19.752 122.934 21.927 123.297 23.283 123.297H28.215C29.568 123.297 31.752 122.934 33.315 119.697C34.878 116.46 35.781 108.774 35.781 108.774H15.714Z" fill="#455A64"/>
<path d="M16.704 113.325C16.7034 113.229 16.7314 113.134 16.7844 113.054C16.8375 112.974 16.9132 112.911 17.0019 112.874C17.0907 112.837 17.1885 112.827 17.2829 112.845C17.3774 112.863 17.4643 112.909 17.5326 112.977C17.6008 113.045 17.6474 113.132 17.6664 113.226C17.6854 113.32 17.676 113.418 17.6393 113.507C17.6026 113.596 17.5403 113.672 17.4603 113.726C17.3803 113.779 17.2862 113.808 17.19 113.808C17.0616 113.808 16.9384 113.757 16.8474 113.667C16.7563 113.576 16.7048 113.453 16.704 113.325ZM16.794 113.325C16.794 113.403 16.8172 113.48 16.8607 113.545C16.9042 113.61 16.9661 113.661 17.0384 113.691C17.1108 113.721 17.1904 113.729 17.2672 113.713C17.3441 113.698 17.4146 113.66 17.47 113.605C17.5254 113.55 17.5631 113.479 17.5784 113.402C17.5937 113.325 17.5858 113.246 17.5558 113.173C17.5259 113.101 17.4751 113.039 17.41 112.996C17.3449 112.952 17.2683 112.929 17.19 112.929C17.086 112.931 16.9868 112.973 16.9138 113.047C16.8409 113.121 16.8 113.221 16.8 113.325H16.794ZM31.005 110.841C31.005 110.745 31.0333 110.652 31.0864 110.573C31.1395 110.493 31.2149 110.431 31.3032 110.395C31.3914 110.358 31.4885 110.349 31.5822 110.367C31.6759 110.386 31.762 110.432 31.8295 110.499C31.8971 110.567 31.9431 110.653 31.9617 110.747C31.9803 110.84 31.9708 110.938 31.9342 111.026C31.8977 111.114 31.8358 111.189 31.7563 111.243C31.6769 111.296 31.5835 111.324 31.488 111.324C31.3599 111.324 31.237 111.273 31.1465 111.182C31.0559 111.092 31.005 110.969 31.005 110.841ZM31.095 110.841C31.095 110.919 31.1183 110.996 31.1619 111.061C31.2056 111.126 31.2676 111.177 31.3401 111.207C31.4127 111.237 31.4925 111.245 31.5694 111.229C31.6463 111.214 31.7168 111.176 31.7721 111.12C31.8273 111.064 31.8648 110.993 31.8797 110.916C31.8947 110.839 31.8864 110.76 31.856 110.687C31.8255 110.615 31.7743 110.553 31.7088 110.51C31.6433 110.467 31.5664 110.444 31.488 110.445C31.4361 110.445 31.3848 110.455 31.3369 110.475C31.289 110.495 31.2456 110.524 31.209 110.561C31.1725 110.598 31.1436 110.642 31.124 110.69C31.1045 110.738 31.0946 110.789 31.095 110.841ZM30.3 117.924C30.2994 117.828 30.3275 117.733 30.3806 117.653C30.4338 117.572 30.5097 117.51 30.5986 117.473C30.6875 117.435 30.7855 117.425 30.8801 117.444C30.9746 117.463 31.0615 117.509 31.1296 117.577C31.1978 117.645 31.2441 117.732 31.2628 117.827C31.2814 117.921 31.2716 118.019 31.2344 118.108C31.1973 118.197 31.1345 118.273 31.0541 118.326C30.9737 118.379 30.8794 118.408 30.783 118.407C30.6551 118.406 30.5327 118.355 30.4423 118.265C30.3519 118.174 30.3008 118.052 30.3 117.924ZM30.39 117.924C30.39 118.002 30.4133 118.079 30.4569 118.144C30.5006 118.209 30.5626 118.26 30.6351 118.29C30.7077 118.32 30.7875 118.328 30.8644 118.312C30.9413 118.297 31.0118 118.259 31.0671 118.203C31.1223 118.147 31.1598 118.076 31.1747 117.999C31.1897 117.922 31.1814 117.843 31.151 117.77C31.1205 117.698 31.0693 117.636 31.0038 117.593C30.9383 117.55 30.8614 117.527 30.783 117.528C30.7305 117.527 30.6783 117.537 30.6296 117.556C30.5809 117.576 30.5365 117.605 30.4991 117.642C30.4617 117.679 30.432 117.723 30.4117 117.771C30.3914 117.819 30.381 117.871 30.381 117.924H30.39ZM34.239 109.575C34.2384 109.479 34.2664 109.384 34.3194 109.304C34.3725 109.224 34.4482 109.161 34.5369 109.124C34.6257 109.087 34.7235 109.077 34.818 109.095C34.9124 109.113 34.9993 109.159 35.0676 109.227C35.1358 109.295 35.1824 109.382 35.2014 109.476C35.2204 109.57 35.211 109.668 35.1743 109.757C35.1376 109.846 35.0753 109.922 34.9953 109.976C34.9153 110.029 34.8212 110.058 34.725 110.058C34.6607 110.059 34.5967 110.048 34.5369 110.024C34.4771 110 34.4226 109.965 34.3766 109.92C34.3305 109.875 34.2939 109.821 34.2687 109.762C34.2435 109.703 34.2304 109.639 34.23 109.575H34.239ZM34.329 109.575C34.329 109.653 34.3522 109.73 34.3957 109.795C34.4392 109.86 34.5011 109.911 34.5734 109.941C34.6458 109.971 34.7254 109.979 34.8022 109.963C34.8791 109.948 34.9496 109.91 35.005 109.855C35.0604 109.8 35.0981 109.729 35.1134 109.652C35.1287 109.575 35.1208 109.496 35.0908 109.423C35.0609 109.351 35.0101 109.289 34.945 109.246C34.8799 109.202 34.8033 109.179 34.725 109.179C34.6722 109.178 34.6198 109.187 34.5707 109.206C34.5216 109.226 34.4769 109.255 34.4391 109.292C34.4014 109.329 34.3714 109.373 34.351 109.421C34.3305 109.47 34.32 109.522 34.32 109.575H34.329ZM27.51 112.575C27.5094 112.479 27.5375 112.384 27.5906 112.304C27.6438 112.223 27.7197 112.161 27.8086 112.124C27.8975 112.086 27.9955 112.076 28.0901 112.095C28.1846 112.114 28.2715 112.16 28.3396 112.228C28.4078 112.296 28.4541 112.383 28.4728 112.478C28.4914 112.572 28.4816 112.67 28.4444 112.759C28.4073 112.848 28.3445 112.924 28.2641 112.977C28.1837 113.03 28.0894 113.059 27.993 113.058C27.8651 113.06 27.7417 113.011 27.6496 112.922C27.5575 112.833 27.5041 112.712 27.501 112.584L27.51 112.575ZM27.6 112.575C27.5958 112.655 27.6157 112.734 27.6571 112.802C27.6986 112.87 27.7596 112.924 27.8322 112.957C27.9048 112.989 27.9856 113 28.0641 112.986C28.1426 112.972 28.2151 112.935 28.2721 112.879C28.3291 112.823 28.368 112.752 28.3837 112.674C28.3994 112.596 28.3911 112.514 28.36 112.441C28.3289 112.368 28.2763 112.305 28.2092 112.262C28.1422 112.219 28.0637 112.198 27.984 112.2C27.8829 112.202 27.7865 112.243 27.715 112.315C27.6435 112.386 27.6023 112.483 27.6 112.584V112.575ZM22.248 117.723C22.2462 117.626 22.2732 117.532 22.3255 117.451C22.3778 117.369 22.4531 117.306 22.5417 117.268C22.6303 117.229 22.7283 117.218 22.8232 117.236C22.918 117.254 23.0055 117.299 23.0743 117.367C23.1432 117.435 23.1904 117.521 23.2099 117.616C23.2294 117.71 23.2203 117.808 23.1838 117.898C23.1473 117.987 23.085 118.064 23.0049 118.117C22.9248 118.171 22.8305 118.2 22.734 118.2C22.6066 118.2 22.4844 118.15 22.3935 118.061C22.3026 117.972 22.2503 117.85 22.248 117.723ZM22.338 117.723C22.338 117.801 22.3612 117.878 22.4047 117.943C22.4482 118.008 22.5101 118.059 22.5824 118.089C22.6548 118.119 22.7344 118.127 22.8112 118.111C22.8881 118.096 22.9586 118.058 23.014 118.003C23.0694 117.948 23.1071 117.877 23.1224 117.8C23.1377 117.723 23.1298 117.644 23.0998 117.571C23.0699 117.499 23.0191 117.437 22.954 117.394C22.8889 117.35 22.8123 117.327 22.734 117.327C22.629 117.327 22.5282 117.369 22.454 117.443C22.3797 117.517 22.338 117.618 22.338 117.723ZM25.461 109.575C25.461 109.479 25.4893 109.386 25.5424 109.307C25.5955 109.227 25.6709 109.165 25.7592 109.129C25.8474 109.092 25.9445 109.083 26.0382 109.101C26.1319 109.12 26.218 109.166 26.2855 109.233C26.3531 109.301 26.3991 109.387 26.4177 109.481C26.4363 109.574 26.4268 109.672 26.3902 109.76C26.3537 109.848 26.2918 109.923 26.2123 109.977C26.1329 110.03 26.0395 110.058 25.944 110.058C25.8159 110.058 25.693 110.007 25.6025 109.916C25.5119 109.826 25.461 109.703 25.461 109.575ZM25.548 109.575C25.548 109.653 25.5712 109.73 25.6147 109.795C25.6582 109.86 25.7201 109.911 25.7924 109.941C25.8648 109.971 25.9444 109.979 26.0212 109.963C26.0981 109.948 26.1686 109.91 26.224 109.855C26.2794 109.8 26.3171 109.729 26.3324 109.652C26.3477 109.575 26.3398 109.496 26.3098 109.423C26.2799 109.351 26.2291 109.289 26.164 109.246C26.0989 109.202 26.0223 109.179 25.944 109.179C25.839 109.179 25.7382 109.221 25.664 109.295C25.5897 109.369 25.548 109.47 25.548 109.575ZM26.058 115.8C26.0574 115.704 26.0854 115.609 26.1384 115.529C26.1915 115.449 26.2672 115.386 26.3559 115.349C26.4447 115.312 26.5425 115.302 26.637 115.32C26.7314 115.338 26.8183 115.384 26.8866 115.452C26.9548 115.52 27.0014 115.607 27.0204 115.701C27.0394 115.795 27.03 115.893 26.9933 115.982C26.9566 116.071 26.8943 116.147 26.8143 116.201C26.7343 116.254 26.6402 116.283 26.544 116.283C26.4159 116.282 26.2931 116.231 26.2022 116.141C26.1114 116.05 26.0596 115.928 26.058 115.8ZM26.148 115.8C26.148 115.878 26.1712 115.955 26.2147 116.02C26.2582 116.085 26.3201 116.136 26.3924 116.166C26.4648 116.196 26.5444 116.204 26.6212 116.188C26.6981 116.173 26.7686 116.135 26.824 116.08C26.8794 116.025 26.9171 115.954 26.9324 115.877C26.9477 115.8 26.9398 115.721 26.9098 115.648C26.8799 115.576 26.8291 115.514 26.764 115.471C26.6989 115.427 26.6223 115.404 26.544 115.404C26.439 115.404 26.3382 115.446 26.264 115.52C26.1897 115.594 26.148 115.695 26.148 115.8ZM30.849 121.581C30.849 121.485 30.8773 121.392 30.9304 121.313C30.9835 121.233 31.0589 121.171 31.1472 121.135C31.2354 121.098 31.3325 121.089 31.4262 121.107C31.5199 121.126 31.606 121.172 31.6735 121.239C31.7411 121.307 31.7871 121.393 31.8057 121.487C31.8243 121.58 31.8148 121.678 31.7782 121.766C31.7417 121.854 31.6798 121.929 31.6003 121.983C31.5209 122.036 31.4275 122.064 31.332 122.064C31.2677 122.064 31.204 122.05 31.1448 122.025C31.0856 122 31.032 121.963 30.9871 121.917C30.9421 121.871 30.9068 121.817 30.8831 121.757C30.8594 121.697 30.8478 121.633 30.849 121.569V121.581ZM30.939 121.581C30.939 121.659 30.9623 121.736 31.0059 121.801C31.0496 121.866 31.1116 121.917 31.1841 121.947C31.2567 121.977 31.3365 121.985 31.4134 121.969C31.4903 121.954 31.5608 121.916 31.6161 121.86C31.6713 121.804 31.7088 121.733 31.7237 121.656C31.7387 121.579 31.7304 121.5 31.7 121.427C31.6695 121.355 31.6183 121.293 31.5528 121.25C31.4873 121.207 31.4104 121.184 31.332 121.185C31.2293 121.185 31.1307 121.225 31.0572 121.297C30.9838 121.369 30.9413 121.466 30.939 121.569V121.581ZM19.101 110.298C19.1016 110.203 19.1304 110.109 19.1838 110.03C19.2373 109.951 19.3129 109.89 19.4012 109.854C19.4895 109.818 19.5865 109.809 19.68 109.828C19.7735 109.847 19.8593 109.893 19.9266 109.96C19.9938 110.028 20.0395 110.114 20.0579 110.208C20.0763 110.301 20.0666 110.398 20.0299 110.486C19.9933 110.575 19.9314 110.65 19.852 110.703C19.7727 110.756 19.6794 110.784 19.584 110.784C19.4556 110.783 19.3328 110.732 19.2423 110.641C19.1518 110.549 19.101 110.426 19.101 110.298ZM19.191 110.298C19.1904 110.377 19.2132 110.453 19.2565 110.519C19.2998 110.585 19.3616 110.636 19.4341 110.666C19.5065 110.697 19.5864 110.705 19.6635 110.689C19.7406 110.674 19.8114 110.636 19.867 110.581C19.9226 110.525 19.9603 110.455 19.9755 110.377C19.9907 110.3 19.9826 110.22 19.9523 110.148C19.9219 110.076 19.8707 110.014 19.8051 109.97C19.7395 109.927 19.6626 109.904 19.584 109.905C19.4816 109.908 19.3843 109.951 19.3127 110.024C19.2411 110.097 19.2007 110.195 19.2 110.298H19.191ZM32.58 114.471C32.5794 114.375 32.6074 114.28 32.6604 114.2C32.7135 114.12 32.7892 114.057 32.8779 114.02C32.9667 113.983 33.0645 113.972 33.159 113.991C33.2534 114.009 33.3403 114.055 33.4086 114.123C33.4768 114.191 33.5234 114.278 33.5424 114.372C33.5614 114.466 33.552 114.564 33.5153 114.653C33.4786 114.742 33.4163 114.818 33.3363 114.872C33.2563 114.925 33.1622 114.954 33.066 114.954C32.9379 114.953 32.8151 114.902 32.7242 114.812C32.6334 114.721 32.5816 114.599 32.58 114.471ZM32.67 114.471C32.67 114.549 32.6932 114.626 32.7367 114.691C32.7802 114.756 32.8421 114.807 32.9144 114.837C32.9868 114.867 33.0664 114.875 33.1432 114.859C33.2201 114.844 33.2906 114.806 33.346 114.751C33.4014 114.696 33.4391 114.625 33.4544 114.548C33.4697 114.471 33.4618 114.392 33.4318 114.319C33.4019 114.247 33.3511 114.185 33.286 114.142C33.2209 114.098 33.1443 114.075 33.066 114.075C32.961 114.075 32.8602 114.117 32.786 114.191C32.7117 114.265 32.67 114.366 32.67 114.471ZM22.689 113.022C22.689 112.926 22.7173 112.833 22.7704 112.754C22.8235 112.674 22.8989 112.612 22.9872 112.576C23.0754 112.539 23.1725 112.53 23.2662 112.548C23.3599 112.567 23.446 112.613 23.5135 112.68C23.5811 112.748 23.6271 112.834 23.6457 112.928C23.6643 113.021 23.6548 113.119 23.6182 113.207C23.5817 113.295 23.5198 113.37 23.4403 113.424C23.3609 113.477 23.2675 113.505 23.172 113.505C23.0439 113.505 22.921 113.454 22.8305 113.363C22.7399 113.273 22.689 113.15 22.689 113.022ZM22.776 113.022C22.7754 113.1 22.7981 113.177 22.8413 113.243C22.8844 113.308 22.9461 113.359 23.0184 113.39C23.0907 113.42 23.1704 113.429 23.2474 113.414C23.3244 113.399 23.3952 113.361 23.4509 113.306C23.5066 113.251 23.5446 113.18 23.5601 113.103C23.5757 113.026 23.568 112.947 23.5381 112.874C23.5082 112.802 23.4575 112.74 23.3923 112.696C23.3271 112.652 23.2504 112.629 23.172 112.629C23.0675 112.629 22.9672 112.67 22.893 112.744C22.8189 112.817 22.7768 112.917 22.776 113.022ZM26.058 120.84C26.0574 120.744 26.0854 120.649 26.1384 120.569C26.1915 120.489 26.2672 120.426 26.3559 120.389C26.4447 120.352 26.5425 120.341 26.637 120.36C26.7314 120.378 26.8183 120.424 26.8866 120.492C26.9548 120.56 27.0014 120.647 27.0204 120.741C27.0394 120.835 27.03 120.933 26.9933 121.022C26.9566 121.111 26.8943 121.187 26.8143 121.241C26.7343 121.294 26.6402 121.323 26.544 121.323C26.4156 121.323 26.2924 121.272 26.2014 121.182C26.1103 121.091 26.0588 120.968 26.058 120.84ZM26.148 120.84C26.148 120.918 26.1712 120.995 26.2147 121.06C26.2582 121.125 26.3201 121.176 26.3924 121.206C26.4648 121.236 26.5444 121.244 26.6212 121.228C26.6981 121.213 26.7686 121.175 26.824 121.12C26.8794 121.065 26.9171 120.994 26.9324 120.917C26.9477 120.84 26.9398 120.761 26.9098 120.688C26.8799 120.616 26.8291 120.554 26.764 120.511C26.6989 120.467 26.6223 120.444 26.544 120.444C26.439 120.444 26.3382 120.486 26.264 120.56C26.1897 120.634 26.148 120.735 26.148 120.84ZM21.993 122.586C21.993 122.49 22.0213 122.397 22.0744 122.318C22.1275 122.238 22.2029 122.176 22.2912 122.14C22.3794 122.103 22.4765 122.094 22.5702 122.112C22.6639 122.131 22.75 122.177 22.8175 122.244C22.8851 122.312 22.9311 122.398 22.9497 122.492C22.9683 122.585 22.9588 122.683 22.9222 122.771C22.8857 122.859 22.8238 122.934 22.7443 122.988C22.6649 123.041 22.5715 123.069 22.476 123.069C22.3481 123.068 22.2257 123.017 22.1353 122.927C22.0449 122.836 21.9938 122.714 21.993 122.586ZM22.083 122.586C22.083 122.664 22.1063 122.741 22.1499 122.806C22.1936 122.871 22.2556 122.922 22.3281 122.952C22.4007 122.982 22.4805 122.99 22.5574 122.974C22.6343 122.959 22.7048 122.921 22.7601 122.865C22.8153 122.809 22.8528 122.738 22.8677 122.661C22.8827 122.584 22.8744 122.505 22.844 122.432C22.8135 122.36 22.7623 122.298 22.6968 122.255C22.6313 122.212 22.5544 122.189 22.476 122.19C22.4241 122.19 22.3728 122.2 22.3249 122.22C22.277 122.24 22.2336 122.269 22.197 122.306C22.1605 122.343 22.1316 122.387 22.112 122.435C22.0925 122.483 22.0826 122.534 22.083 122.586ZM19.101 115.347C19.101 115.251 19.1293 115.158 19.1824 115.079C19.2355 114.999 19.3109 114.937 19.3992 114.901C19.4874 114.864 19.5845 114.855 19.6782 114.873C19.7719 114.892 19.858 114.938 19.9255 115.005C19.9931 115.073 20.0391 115.159 20.0577 115.253C20.0763 115.346 20.0668 115.444 20.0302 115.532C19.9937 115.62 19.9318 115.695 19.8523 115.749C19.7729 115.802 19.6795 115.83 19.584 115.83C19.4559 115.83 19.333 115.779 19.2425 115.688C19.1519 115.598 19.101 115.475 19.101 115.347ZM19.191 115.347C19.1904 115.426 19.2132 115.502 19.2565 115.568C19.2998 115.634 19.3616 115.685 19.4341 115.715C19.5065 115.746 19.5864 115.754 19.6635 115.738C19.7406 115.723 19.8114 115.685 19.867 115.63C19.9226 115.574 19.9603 115.504 19.9755 115.426C19.9907 115.349 19.9826 115.269 19.9523 115.197C19.9219 115.125 19.8707 115.063 19.8051 115.019C19.7395 114.976 19.6626 114.953 19.584 114.954C19.4816 114.957 19.3843 115 19.3127 115.073C19.2411 115.146 19.2007 115.244 19.2 115.347H19.191ZM18.663 119.7C18.663 119.604 18.6913 119.511 18.7444 119.432C18.7975 119.352 18.8729 119.29 18.9612 119.254C19.0494 119.217 19.1465 119.208 19.2402 119.226C19.3339 119.245 19.42 119.291 19.4875 119.358C19.5551 119.426 19.6011 119.512 19.6197 119.606C19.6383 119.699 19.6288 119.797 19.5922 119.885C19.5557 119.973 19.4938 120.048 19.4143 120.102C19.3349 120.155 19.2415 120.183 19.146 120.183C19.0179 120.183 18.895 120.132 18.8045 120.041C18.7139 119.951 18.663 119.828 18.663 119.7ZM18.75 119.7C18.75 119.778 18.7732 119.855 18.8167 119.92C18.8602 119.985 18.9221 120.036 18.9944 120.066C19.0668 120.096 19.1464 120.104 19.2232 120.088C19.3001 120.073 19.3706 120.035 19.426 119.98C19.4814 119.925 19.5191 119.854 19.5344 119.777C19.5497 119.7 19.5418 119.621 19.5118 119.548C19.4819 119.476 19.4311 119.414 19.366 119.371C19.3009 119.327 19.2243 119.304 19.146 119.304C19.041 119.304 18.9402 119.346 18.866 119.42C18.7917 119.494 18.75 119.595 18.75 119.7Z" fill="white"/>
<path d="M74.952 22.314C75.1822 21.5204 75.127 20.6712 74.796 19.914C74.304 18.855 73.239 18.414 72.156 18.189C70.9201 17.94 69.6603 17.8304 68.4 17.862C65.8873 17.92 63.4168 18.5207 61.158 19.623C60.0774 20.1281 59.08 20.7947 58.2 21.6L58.104 21.693C57.858 21.855 57.618 22.023 57.387 22.197C56.4857 22.847 55.7067 23.6514 55.086 24.573C54.9037 24.8564 54.7413 25.1521 54.6 25.458C54.3595 25.893 54.1779 26.3581 54.06 26.841C53.9258 27.3793 53.9427 27.9442 54.1089 28.4735C54.2751 29.0028 54.5842 29.476 55.002 29.841C55.902 30.645 57.102 30.924 58.284 30.978C59.2991 31.0134 60.3155 30.9662 61.323 30.837C61.908 30.804 62.487 30.744 63.048 30.666C63.417 30.615 63.783 30.555 64.152 30.495C64.323 31.974 64.914 33.438 65.463 34.797C65.463 34.83 65.532 34.815 65.517 34.779C64.974 33.405 64.428 31.941 64.317 30.465C66.1923 30.1785 68.02 29.6386 69.75 28.86C70.7899 28.375 71.7475 27.7302 72.588 26.949C73.296 26.277 74.013 25.326 73.965 24.297C74.2972 23.9234 74.5658 23.4977 74.76 23.037C74.8539 22.805 74.9184 22.5621 74.952 22.314ZM61.554 30.36C59.928 30.474 58.029 30.36 56.538 29.562C57.5731 29.8259 58.6327 29.9818 59.7 30.027C60.8945 30.0777 62.091 30.0033 63.27 29.805C63.402 29.805 63.534 29.805 63.66 29.781C63.786 29.757 63.96 29.745 64.086 29.724V29.955C63.456 30.093 62.82 30.207 62.184 30.3C61.98 30.321 61.767 30.345 61.554 30.36ZM67.638 19.428C68.7178 19.4845 69.7791 19.7313 70.773 20.157C71.646 20.562 72.48 21.264 72.477 22.308C72.477 22.353 72.477 22.395 72.462 22.44C72.1304 22.306 71.7839 22.2124 71.43 22.161C71.337 22.146 71.241 22.14 71.148 22.131C70.7441 21.9006 70.3127 21.7222 69.864 21.6C69.2716 20.8703 68.4792 20.3293 67.584 20.043C66.773 19.7689 65.9231 19.6271 65.067 19.623C65.397 19.545 65.724 19.476 66.057 19.41C66.5839 19.383 67.1119 19.389 67.638 19.428ZM72.138 24.828C72.0498 24.7169 71.9491 24.6162 71.838 24.528C71.949 24.408 72.051 24.279 72.153 24.144C72.1881 24.3686 72.1881 24.5974 72.153 24.822L72.138 24.828ZM65.304 29.496C65.844 29.392 66.382 29.273 66.918 29.139C66.0603 29.4476 65.1847 29.704 64.296 29.907C64.296 29.835 64.296 29.76 64.296 29.688C64.635 29.631 64.968 29.562 65.304 29.496ZM64.632 27.978C64.6377 27.9605 64.6447 27.9435 64.653 27.927C64.6755 27.9538 64.7057 27.9731 64.7395 27.9822C64.7733 27.9913 64.8091 27.9899 64.842 27.978C66.0639 27.6271 67.2657 27.2094 68.442 26.727C69.5563 26.2819 70.5893 25.6555 71.499 24.873C71.6795 25.013 71.8151 25.2028 71.889 25.419C71.634 25.584 71.37 25.737 71.106 25.884C69.0497 26.9983 66.8366 27.7954 64.542 28.248C64.572 28.158 64.599 28.068 64.632 27.978ZM64.8 27.6C65.1923 26.7866 65.8304 26.1171 66.624 25.686C67.6075 25.1857 68.66 24.8349 69.747 24.645C70.2082 24.5261 70.6935 24.5386 71.148 24.681C71.046 24.768 70.944 24.852 70.848 24.93C69.06 26.262 66.9 26.94 64.8 27.6ZM65.199 28.572C66.4835 28.2856 67.7427 27.8953 68.964 27.405C67.8772 27.9777 66.738 28.4448 65.562 28.8C65.334 28.869 65.103 28.932 64.872 28.995L64.377 29.097H64.353C64.374 28.968 64.395 28.836 64.422 28.704C64.68 28.665 64.938 28.617 65.193 28.56L65.199 28.572ZM64.113 29.172C63.7531 29.2415 63.3875 29.2767 63.021 29.277C62.6869 29.2817 62.3562 29.2088 62.055 29.064C62.76 29.001 63.462 28.911 64.155 28.788C64.131 28.893 64.119 29.022 64.107 29.151L64.113 29.172ZM71.352 26.472C71.316 26.517 71.28 26.565 71.244 26.607C71.208 26.649 71.118 26.742 71.052 26.808C70.911 26.901 70.767 26.988 70.635 27.072C70.1814 27.3598 69.7047 27.6097 69.21 27.819L69.042 27.882C69.8414 27.4564 70.6111 26.9773 71.346 26.448L71.352 26.472ZM71.529 24.324L71.49 24.303C70.8911 24.0689 70.2312 24.0414 69.615 24.225C68.4749 24.4525 67.3776 24.8574 66.363 25.425C65.4123 25.9765 64.6962 26.8569 64.35 27.9C64.308 28.035 64.272 28.17 64.239 28.305C63.3752 28.4712 62.5029 28.5894 61.626 28.659C61.4569 28.3614 61.4086 28.0102 61.491 27.678C61.6162 27.1691 61.8552 26.6952 62.19 26.292C64.3237 26.0089 66.3774 25.2944 68.226 24.192C68.732 23.8895 69.218 23.5548 69.681 23.19C69.89 23.0392 70.0506 22.8307 70.143 22.59C70.4833 22.56 70.8257 22.56 71.166 22.59C71.5555 22.8469 71.8603 23.2132 72.042 23.643C71.8913 23.8787 71.7174 24.0988 71.523 24.3L71.529 24.324ZM57.378 23.259L57.432 23.172C58.9222 21.978 60.6013 21.0411 62.4 20.4C62.442 20.382 62.487 20.37 62.529 20.355C64.269 19.971 66.207 19.908 67.845 20.625C68.272 20.809 68.6685 21.0568 69.021 21.36L69.099 21.429C68.133 21.2413 67.1461 21.1848 66.165 21.261C63.9919 21.4326 61.9117 22.2157 60.165 23.52C59.2758 24.1416 58.5225 24.9378 57.951 25.86C57.7296 25.8102 57.5237 25.7072 57.351 25.56C56.676 24.996 57 23.889 57.372 23.235L57.378 23.259ZM69.711 22.182C69.0091 22.275 68.3158 22.4244 67.638 22.629C65.523 23.229 63.342 24.156 61.905 25.893L61.869 25.935C61.443 25.986 61.014 26.025 60.585 26.037C60.0197 26.0555 59.4538 26.0425 58.89 25.998C58.731 25.998 58.557 25.974 58.38 25.956C58.5483 25.6848 58.74 25.4288 58.953 25.191C59.6291 24.4394 60.4113 23.7905 61.275 23.265C62.9922 22.2131 64.9614 21.6441 66.975 21.618C67.8544 21.6022 68.7321 21.7031 69.585 21.918C69.635 21.9926 69.6753 22.0733 69.705 22.158L69.711 22.182ZM69.645 22.653C69.4685 22.8274 69.2698 22.9777 69.054 23.1C68.817 23.274 68.571 23.442 68.322 23.601C67.869 23.8925 67.4003 24.1589 66.918 24.399C65.567 25.0749 64.1233 25.5471 62.634 25.8C62.8371 25.5887 63.0514 25.3884 63.276 25.2C64.0918 24.5479 65.0023 24.0239 65.976 23.646C66.9816 23.2327 68.0243 22.9163 69.09 22.701C69.267 22.683 69.453 22.656 69.639 22.629L69.645 22.653ZM58.173 26.343C59.2808 26.5064 60.4049 26.5275 61.518 26.406C61.056 27.099 60.72 27.954 61.035 28.722L60.69 28.74C59.895 28.761 58.875 28.695 58.29 28.053C57.849 27.513 57.9 26.892 58.167 26.319L58.173 26.343ZM72.069 22.941C72.018 22.875 71.961 22.818 71.907 22.758C72.0696 22.8067 72.2289 22.8659 72.384 22.935C72.3526 23.0374 72.3145 23.1376 72.27 23.235C72.2105 23.1231 72.1412 23.0167 72.063 22.917L72.069 22.941ZM55.386 28.701C55.039 28.361 54.7938 27.9308 54.678 27.459C54.5767 26.9059 54.6756 26.3348 54.957 25.848C55.4158 25.0655 56.0053 24.3674 56.7 23.784C56.653 23.933 56.6179 24.0855 56.595 24.24C56.5146 24.6678 56.5757 25.11 56.769 25.5C56.8793 25.6861 57.0268 25.8474 57.2023 25.9739C57.3778 26.1004 57.5776 26.1893 57.789 26.235C57.6099 26.6346 57.5545 27.0787 57.63 27.51C57.6822 27.7413 57.7795 27.96 57.9164 28.1536C58.0534 28.3472 58.2272 28.5118 58.428 28.638C59.247 29.175 60.324 29.157 61.263 29.106H61.299C61.4467 29.2839 61.6282 29.4307 61.833 29.538C61.0028 29.6085 60.1685 29.6175 59.337 29.565C58.2919 29.4936 57.2572 29.3126 56.25 29.025C55.9808 28.958 55.7171 28.8707 55.461 28.764C55.428 28.74 55.404 28.722 55.386 28.701ZM72.486 24.999C72.5798 24.5694 72.5664 24.1232 72.447 23.7C72.5577 23.5096 72.6491 23.3086 72.72 23.1C72.9015 23.2061 73.0599 23.3477 73.1856 23.5162C73.3113 23.6847 73.4019 23.8768 73.452 24.081C73.2067 24.3592 72.9442 24.6218 72.666 24.867L72.486 24.999ZM73.8 23.646C73.5981 23.2068 73.2563 22.8471 72.828 22.623C72.861 22.3992 72.861 22.1718 72.828 21.948C72.666 20.901 71.802 20.193 70.887 19.782C70.0671 19.4216 69.1989 19.183 68.31 19.074L68.493 19.053C69.66 18.933 70.878 18.825 72.027 19.128C72.5094 19.237 72.9626 19.4489 73.3556 19.7492C73.7486 20.0495 74.0721 20.4311 74.304 20.868C74.5568 21.4286 74.5816 22.0655 74.373 22.644C74.2285 22.9995 74.0411 23.336 73.815 23.646H73.8ZM62.568 19.446C64.7299 18.6026 67.0407 18.2076 69.36 18.285C70.5195 18.2948 71.6722 18.4634 72.786 18.786C73.3039 18.9317 73.7672 19.2271 74.118 19.635C74.2544 19.8117 74.3655 20.0066 74.448 20.214C74.4 20.148 74.358 20.082 74.307 20.016C72.717 18.084 69.888 18.405 67.683 18.696C67.033 18.784 66.382 18.893 65.73 19.023C65.1255 19.0713 64.5245 19.1554 63.93 19.275C62.9031 19.4876 61.8986 19.797 60.93 20.199C61.4665 19.9165 62.0184 19.6641 62.583 19.443L62.568 19.446ZM54.831 29.046C54.7739 28.9638 54.7227 28.8776 54.678 28.788C54.702 28.815 54.72 28.842 54.744 28.866C54.8759 28.9865 55.0244 29.0876 55.185 29.166C55.429 29.3989 55.6964 29.606 55.983 29.784C56.5314 30.1178 57.1243 30.3723 57.744 30.54L57.549 30.519C56.523 30.345 55.467 29.922 54.846 29.028L54.831 29.046ZM70.803 27.753C70.25 28.0988 69.6701 28.3998 69.069 28.653C69.321 28.524 69.57 28.389 69.813 28.239C70.011 28.119 70.206 27.987 70.413 27.849C70.946 27.5674 71.4426 27.2218 71.892 26.82C72.0696 26.6744 72.2129 26.4913 72.3114 26.2838C72.4099 26.0764 72.4614 25.8497 72.462 25.62H72.477L72.537 25.569C72.8521 25.3507 73.1527 25.1122 73.437 24.855C73.3611 25.1263 73.248 25.3857 73.101 25.626C72.564 26.49 71.679 27.183 70.818 27.735L70.803 27.753Z" fill="#263238"/>
</svg>
