<svg width="150" height="150" viewBox="0 0 150 150" fill="none" xmlns="http://www.w3.org/2000/svg">
<rect width="150" height="150" rx="75" fill="#6E57FC" fill-opacity="0.2"/>
<path d="M74.8049 110.157H136.8V48.0571L74.8049 110.157ZM125.4 98.8051H102.831L125.439 76.2001L125.4 98.8051Z" fill="#DBDBDB"/>
<path d="M134.901 49.9771L134.625 50.2531L74.8049 110.157H136.8V48.0571L134.901 49.9771ZM125.4 98.8081H102.831L125.442 76.2001L125.4 98.8081Z" fill="#EBEBEB"/>
<path d="M136.809 50.6851H134.679V50.9821H136.809V50.6851Z" fill="#C7C7C7"/>
<path d="M136.809 52.0649H135.552V52.3619H136.809V52.0649Z" fill="#C7C7C7"/>
<path d="M136.809 53.4421H135.552V53.7391H136.809V53.4421Z" fill="#C7C7C7"/>
<path d="M136.809 54.822H135.552V55.119H136.809V54.822Z" fill="#C7C7C7"/>
<path d="M136.809 56.2019H135.552V56.4989H136.809V56.2019Z" fill="#C7C7C7"/>
<path d="M136.809 57.5791H135.552V57.8791H136.809V57.5791Z" fill="#C7C7C7"/>
<path d="M136.809 58.959H135.552V59.256H136.809V58.959Z" fill="#C7C7C7"/>
<path d="M136.809 60.3391H134.679V60.6361H136.809V60.3391Z" fill="#C7C7C7"/>
<path d="M136.809 61.7219H135.552V62.0189H136.809V61.7219Z" fill="#C7C7C7"/>
<path d="M136.809 63.0959H135.552V63.3929H136.809V63.0959Z" fill="#C7C7C7"/>
<path d="M136.809 64.479H135.552V64.776H136.809V64.479Z" fill="#C7C7C7"/>
<path d="M136.809 65.8589H135.552V66.1559H136.809V65.8589Z" fill="#C7C7C7"/>
<path d="M136.809 67.2361H135.552V67.5331H136.809V67.2361Z" fill="#C7C7C7"/>
<path d="M136.809 68.616H135.552V68.913H136.809V68.616Z" fill="#C7C7C7"/>
<path d="M136.809 69.9958H134.679V70.2928H136.809V69.9958Z" fill="#C7C7C7"/>
<path d="M136.809 71.373H135.552V71.67H136.809V71.373Z" fill="#C7C7C7"/>
<path d="M136.809 72.7532H135.552V73.0502H136.809V72.7532Z" fill="#C7C7C7"/>
<path d="M136.809 74.1331H135.552V74.4301H136.809V74.1331Z" fill="#C7C7C7"/>
<path d="M136.809 75.51H135.552V75.81H136.809V75.51Z" fill="#C7C7C7"/>
<path d="M136.809 76.8901H135.552V77.1871H136.809V76.8901Z" fill="#C7C7C7"/>
<path d="M136.809 78.2729H135.552V78.5699H136.809V78.2729Z" fill="#C7C7C7"/>
<path d="M136.809 79.6531H134.679V79.9501H136.809V79.6531Z" fill="#C7C7C7"/>
<path d="M136.809 81.0271H135.552V81.3241H136.809V81.0271Z" fill="#C7C7C7"/>
<path d="M136.809 82.4099H135.552V82.7069H136.809V82.4099Z" fill="#C7C7C7"/>
<path d="M136.809 83.79H135.552V84.087H136.809V83.79Z" fill="#C7C7C7"/>
<path d="M136.809 85.167H135.552V85.464H136.809V85.167Z" fill="#C7C7C7"/>
<path d="M136.809 86.5471H135.552V86.8441H136.809V86.5471Z" fill="#C7C7C7"/>
<path d="M136.809 87.927H135.552V88.224H136.809V87.927Z" fill="#C7C7C7"/>
<path d="M136.809 89.304H134.679V89.604H136.809V89.304Z" fill="#C7C7C7"/>
<path d="M136.809 90.6841H135.552V90.9811H136.809V90.6841Z" fill="#C7C7C7"/>
<path d="M136.809 92.064H135.552V92.361H136.809V92.064Z" fill="#C7C7C7"/>
<path d="M136.809 93.447H135.552V93.744H136.809V93.447Z" fill="#C7C7C7"/>
<path d="M136.809 94.821H135.552V95.118H136.809V94.821Z" fill="#C7C7C7"/>
<path d="M136.809 96.2039H135.552V96.5009H136.809V96.2039Z" fill="#C7C7C7"/>
<path d="M136.809 97.584H135.552V97.881H136.809V97.584Z" fill="#C7C7C7"/>
<path d="M136.809 98.9609H134.679V99.2579H136.809V98.9609Z" fill="#C7C7C7"/>
<path d="M136.809 100.341H135.552V100.638H136.809V100.341Z" fill="#C7C7C7"/>
<path d="M136.809 101.721H135.552V102.018H136.809V101.721Z" fill="#C7C7C7"/>
<path d="M136.809 103.098H135.552V103.395H136.809V103.098Z" fill="#C7C7C7"/>
<path d="M136.809 104.478H135.552V104.775H136.809V104.478Z" fill="#C7C7C7"/>
<path d="M136.809 105.858H135.552V106.155H136.809V105.858Z" fill="#C7C7C7"/>
<path d="M136.809 107.235H135.552V107.535H136.809V107.235Z" fill="#C7C7C7"/>
<path d="M130.143 61.611L131.796 58.95L130.98 58.446C130.863 58.3723 130.769 58.2676 130.708 58.1437C130.647 58.0198 130.622 57.8814 130.635 57.7439C130.644 57.5881 130.644 57.4318 130.635 57.276C130.631 57.1383 130.665 57.0022 130.734 56.883C130.803 56.7638 130.904 56.6661 131.025 56.601L131.871 56.148L130.401 53.4L129.555 53.8529C129.433 53.9174 129.296 53.9467 129.159 53.9377C129.022 53.9287 128.89 53.8817 128.778 53.802C128.65 53.7126 128.516 53.6305 128.379 53.556C128.258 53.4907 128.157 53.393 128.087 53.2739C128.018 53.1548 127.983 53.0188 127.986 52.881L128.016 51.921L124.887 51.825L124.857 52.788C124.851 52.9256 124.808 53.0589 124.731 53.1733C124.654 53.2876 124.547 53.3785 124.422 53.4359C124.35 53.4659 124.284 53.502 124.215 53.538C124.146 53.574 124.08 53.613 124.014 53.652C123.897 53.7239 123.763 53.762 123.625 53.762C123.488 53.762 123.354 53.7239 123.237 53.652L122.415 53.1449L120.765 55.806L121.581 56.313C121.698 56.3866 121.792 56.4913 121.853 56.6152C121.914 56.7391 121.939 56.8775 121.926 57.015C121.912 57.1695 121.907 57.3248 121.911 57.48C121.915 57.6176 121.881 57.7537 121.812 57.8729C121.743 57.9921 121.642 58.0898 121.521 58.155L120.675 58.608L122.157 61.371L123 60.9C123.121 60.8355 123.258 60.8062 123.396 60.8152C123.533 60.8242 123.665 60.8712 123.777 60.951C123.905 61.039 124.037 61.12 124.173 61.194C124.295 61.2587 124.396 61.3562 124.466 61.4755C124.535 61.5947 124.57 61.731 124.566 61.8689L124.539 62.832L127.668 62.9279L127.698 61.968C127.704 61.8304 127.748 61.6972 127.824 61.5829C127.901 61.4686 128.008 61.3776 128.133 61.32L128.343 61.218C128.409 61.179 128.478 61.143 128.544 61.101C128.661 61.0288 128.796 60.9905 128.934 60.9905C129.072 60.9905 129.207 61.0288 129.324 61.101L130.143 61.611ZM127.5 59.634C127.053 59.8733 126.545 59.9747 126.04 59.9253C125.535 59.8759 125.056 59.6779 124.664 59.3565C124.272 59.035 123.983 58.6045 123.836 58.1192C123.688 57.634 123.688 57.1159 123.834 56.6304C123.981 56.1448 124.268 55.7137 124.66 55.3915C125.052 55.0693 125.53 54.8705 126.035 54.8201C126.54 54.7698 127.048 54.8702 127.496 55.1087C127.943 55.3472 128.31 55.713 128.55 56.16C128.71 56.4569 128.809 56.7824 128.843 57.1179C128.877 57.4534 128.844 57.7922 128.746 58.1149C128.649 58.4377 128.488 58.738 128.274 58.9986C128.061 59.2593 127.797 59.4752 127.5 59.634Z" fill="#DBDBDB"/>
<path d="M47.643 36.663L46.545 34.761L45.963 35.1C45.8793 35.1481 45.7839 35.1719 45.6874 35.1687C45.591 35.1655 45.4973 35.1355 45.417 35.082C45.3258 35.0216 45.2306 34.9675 45.132 34.92C45.0436 34.8781 44.9688 34.8124 44.9157 34.7303C44.8627 34.6481 44.8337 34.5528 44.832 34.455V33.78H42.636V34.452C42.6349 34.5499 42.6062 34.6456 42.5531 34.7278C42.5 34.8101 42.4248 34.8757 42.336 34.917C42.2378 34.9652 42.1426 35.0193 42.051 35.079C41.9706 35.1325 41.877 35.1625 41.7805 35.1657C41.6841 35.1689 41.5887 35.1451 41.505 35.097L40.923 34.761L39.825 36.663L40.41 36.999C40.4934 37.0484 40.5615 37.12 40.6065 37.2058C40.6516 37.2916 40.6718 37.3883 40.665 37.485C40.665 37.539 40.665 37.59 40.665 37.647C40.665 37.704 40.665 37.755 40.665 37.806C40.6722 37.902 40.6525 37.9981 40.6079 38.0835C40.5634 38.1689 40.4959 38.24 40.413 38.289L39.813 38.628L40.911 40.53L41.496 40.191C41.5802 40.1441 41.6756 40.1212 41.7719 40.1249C41.8682 40.1286 41.9617 40.1587 42.042 40.212C42.1326 40.2718 42.2267 40.3259 42.324 40.374C42.4128 40.4153 42.488 40.4809 42.5411 40.5632C42.5942 40.6455 42.6229 40.7411 42.624 40.839V41.511H44.82V40.839C44.8217 40.7413 44.8507 40.646 44.9037 40.5638C44.9567 40.4816 45.0316 40.4159 45.12 40.374C45.2176 40.3266 45.3118 40.2724 45.402 40.212C45.4829 40.1588 45.5768 40.1287 45.6736 40.125C45.7703 40.1213 45.8663 40.1441 45.951 40.191L46.533 40.53L47.631 38.628L47.046 38.292C46.9632 38.2411 46.8964 38.168 46.8529 38.0811C46.8095 37.9941 46.7911 37.8968 46.8 37.8C46.8 37.746 46.8 37.692 46.8 37.638C46.8 37.584 46.8 37.53 46.8 37.476C46.7932 37.3793 46.8134 37.2826 46.8585 37.1968C46.9035 37.111 46.9715 37.0394 47.055 36.99L47.643 36.663ZM45.543 37.647C45.543 38.003 45.4374 38.351 45.2396 38.6471C45.0418 38.9431 44.7607 39.1738 44.4318 39.31C44.1029 39.4463 43.741 39.4819 43.3918 39.4124C43.0427 39.343 42.7219 39.1716 42.4702 38.9198C42.2185 38.6681 42.047 38.3474 41.9776 37.9982C41.9081 37.649 41.9438 37.2871 42.08 36.9582C42.2162 36.6293 42.447 36.3482 42.743 36.1504C43.039 35.9526 43.387 35.847 43.743 35.847C44.2204 35.847 44.6782 36.0367 45.0158 36.3742C45.3533 36.7118 45.543 37.1696 45.543 37.647Z" fill="#DBDBDB"/>
<path d="M30.3239 75.4771C28.6326 75.4765 26.9791 75.9775 25.5726 76.9167C24.1661 77.856 23.0698 79.1913 22.4223 80.7537C21.7748 82.3162 21.6052 84.0355 21.935 85.6943C22.2648 87.3532 23.0792 88.8769 24.2751 90.0728C25.471 91.2687 26.9948 92.0831 28.6536 92.4129C30.3124 92.7427 32.0318 92.5731 33.5942 91.9256C35.1566 91.2781 36.4919 90.1818 37.4312 88.7753C38.3705 87.3688 38.8715 85.7153 38.8709 84.024C38.8709 81.7572 37.9704 79.5833 36.3675 77.9804C34.7646 76.3775 32.5907 75.4771 30.3239 75.4771ZM30.3239 88.0171C29.5341 88.0171 28.7621 87.7829 28.1055 87.3441C27.4488 86.9053 26.937 86.2817 26.6348 85.5521C26.3326 84.8225 26.2535 84.0196 26.4076 83.2451C26.5617 82.4705 26.942 81.759 27.5004 81.2006C28.0588 80.6421 28.7703 80.2618 29.5449 80.1078C30.3194 79.9537 31.1223 80.0328 31.8519 80.335C32.5816 80.6372 33.2052 81.149 33.6439 81.8057C34.0827 82.4623 34.3169 83.2343 34.3169 84.024C34.3173 84.5485 34.2143 85.0679 34.0137 85.5526C33.8132 86.0372 33.5191 86.4775 33.1482 86.8484C32.7774 87.2193 32.337 87.5134 31.8524 87.7139C31.3678 87.9144 30.8484 88.0175 30.3239 88.0171Z" fill="#EBEBEB"/>
<path d="M31.9679 75.8311H28.6799L28.8629 73.5061H31.7849L31.9679 75.8311Z" fill="#EBEBEB"/>
<path d="M25.71 76.9411L23.385 79.2631L21.87 77.4901L23.937 75.4231L25.71 76.9411Z" fill="#EBEBEB"/>
<path d="M22.0709 82.146V85.434L19.7429 85.251V82.329L22.0709 82.146Z" fill="#EBEBEB"/>
<path d="M23.1779 88.4041L25.5029 90.7291L23.7269 92.2441L21.6599 90.1771L23.1779 88.4041Z" fill="#EBEBEB"/>
<path d="M28.3829 92.043H31.6709L31.4909 94.371H28.5659L28.3829 92.043Z" fill="#EBEBEB"/>
<path d="M34.641 90.9358L36.966 88.6138L38.481 90.3868L36.414 92.4538L34.641 90.9358Z" fill="#EBEBEB"/>
<path d="M38.283 85.7281V82.4431L40.608 82.6231V85.5481L38.283 85.7281Z" fill="#EBEBEB"/>
<path d="M37.176 79.4731L34.851 77.1481L36.624 75.6331L38.691 77.7001L37.176 79.4731Z" fill="#EBEBEB"/>
<path d="M111.693 20.187C110.003 20.187 108.35 20.6883 106.945 21.6274C105.539 22.5666 104.444 23.9015 103.797 25.4632C103.15 27.025 102.98 28.7435 103.31 30.4014C103.64 32.0594 104.454 33.5823 105.649 34.7777C106.845 35.973 108.368 36.787 110.026 37.1168C111.684 37.4466 113.402 37.2773 114.964 36.6304C116.526 35.9835 117.86 34.888 118.8 33.4825C119.739 32.0769 120.24 30.4244 120.24 28.734C120.24 27.6115 120.02 26.4999 119.59 25.4627C119.161 24.4256 118.531 23.4832 117.738 22.6895C116.944 21.8958 116.001 21.2662 114.964 20.8368C113.927 20.4074 112.816 20.1866 111.693 20.187ZM111.693 32.724C110.903 32.724 110.131 32.4897 109.474 32.0509C108.818 31.612 108.306 30.9882 108.004 30.2584C107.702 29.5286 107.623 28.7256 107.777 27.9509C107.931 27.1763 108.312 26.4648 108.871 25.9065C109.429 25.3482 110.141 24.9681 110.916 24.8144C111.691 24.6606 112.494 24.7401 113.223 25.0428C113.953 25.3455 114.576 25.8578 115.015 26.5148C115.453 27.1718 115.687 27.9441 115.686 28.734C115.686 29.2582 115.583 29.7773 115.382 30.2616C115.181 30.7459 114.887 31.1859 114.516 31.5564C114.145 31.927 113.705 32.2208 113.221 32.4212C112.736 32.6215 112.217 32.7244 111.693 32.724Z" fill="#EBEBEB"/>
<path d="M113.337 20.5411H110.049L110.232 18.2131H113.154L113.337 20.5411Z" fill="#EBEBEB"/>
<path d="M107.079 21.6481L104.757 23.9731L103.239 22.1971L105.306 20.1301L107.079 21.6481Z" fill="#EBEBEB"/>
<path d="M103.44 26.856V30.141L101.112 29.961V27.036L103.44 26.856Z" fill="#EBEBEB"/>
<path d="M104.547 33.1111L106.872 35.4361L105.096 36.9511L103.029 34.8841L104.547 33.1111Z" fill="#EBEBEB"/>
<path d="M109.755 36.7529H113.04L112.86 39.0779H109.935L109.755 36.7529Z" fill="#EBEBEB"/>
<path d="M116.01 35.643L118.335 33.321L119.85 35.094L117.783 37.161L116.01 35.643Z" fill="#EBEBEB"/>
<path d="M119.652 30.4379V27.1499L121.977 27.3329V30.2549L119.652 30.4379Z" fill="#EBEBEB"/>
<path d="M118.542 24.1798L116.22 21.8578L117.993 20.3398L120.06 22.4068L118.542 24.1798Z" fill="#EBEBEB"/>
<path d="M18.2939 0H17.9939V27.561H18.2939V0Z" fill="#C7C7C7"/>
<path d="M19.5539 25.968H16.7369V29.016H19.5539V25.968Z" fill="#DBDBDB"/>
<path d="M23.907 38.7479H12.381C12.612 34.3619 14.703 27.3479 18.144 27.3479C21.585 27.3479 23.679 34.3619 23.907 38.7479Z" fill="#DBDBDB"/>
<path d="M33.8249 0H33.5249V20.031H33.8249V0Z" fill="#C7C7C7"/>
<path d="M35.0849 18.4409H32.2679V21.4889H35.0849V18.4409Z" fill="#DBDBDB"/>
<path d="M39.4409 31.2179H27.8999C28.1339 26.8349 30.2249 19.8179 33.6629 19.8179C37.1009 19.8179 39.2099 26.8349 39.4409 31.2179Z" fill="#DBDBDB"/>
<path d="M75.0001 137.667C107.471 137.667 133.794 134.829 133.794 131.328C133.794 127.827 107.471 124.989 75.0001 124.989C42.529 124.989 16.2061 127.827 16.2061 131.328C16.2061 134.829 42.529 137.667 75.0001 137.667Z" fill="#EBEBEB"/>
<path d="M11.511 110.142L27.384 110.07L43.254 110.043L75 109.992L106.746 110.043L122.619 110.07L138.489 110.142L122.619 110.217L106.746 110.244L75 110.292L43.254 110.241L27.384 110.214L11.511 110.142Z" fill="#263238"/>
<path d="M86.433 101.67L86.451 105.513L86.433 105.495H90.138H90.171V105.528L90.192 110.247V110.301H90.135L86.43 110.319L86.502 110.247V114.093L86.424 114.012H88.386V114.096V118.812V118.902H85.578L85.662 118.848C84.7484 120.799 83.1792 122.367 81.228 123.279C80.2592 123.731 79.2201 124.013 78.156 124.113C77.625 124.164 77.091 124.161 76.566 124.161H73.419C72.8876 124.173 72.3559 124.158 71.826 124.116C70.7605 124.019 69.7195 123.74 68.748 123.291C67.7789 122.834 66.8935 122.218 66.129 121.467C65.3709 120.71 64.7479 119.828 64.287 118.86L64.407 118.935H61.689H61.551V118.8V114.084V113.94H63.576L63.429 114.087V110.232L63.576 110.379H59.871H59.73V110.238V105.519V105.384H59.865H63.57L63.444 105.513V101.67L63.564 101.793H59.859H59.742V101.676V96.9572V96.8462H59.853L74.991 96.8702L90.129 96.9182H90.168V96.9572L90.147 101.676V101.7H90.129L86.433 101.67ZM86.433 101.67L90.138 101.652V101.67L90.117 96.9512L90.153 96.9872L75.015 97.0352L59.877 97.0592L59.985 96.9512V101.67L59.871 101.553H63.576H63.699V101.676V105.519V105.645H63.57H59.865L59.997 105.513V110.232L59.856 110.091H63.561H63.708V114.231H61.683L61.827 114.087V118.803L61.692 118.665H64.41H64.5L64.536 118.74C64.9827 119.681 65.5851 120.541 66.318 121.281C67.0621 122.011 67.9216 122.613 68.862 123.063C69.8087 123.502 70.8231 123.777 71.862 123.876C72.378 123.927 72.9 123.924 73.431 123.924H76.593C77.124 123.924 77.646 123.924 78.165 123.882C79.2036 123.786 80.2181 123.513 81.165 123.075C83.0713 122.187 84.6055 120.658 85.5 118.755L85.524 118.701H88.302L88.212 118.791V114.075L88.293 114.156H86.334V114.078V110.232V110.16H86.406L90.111 110.178L90.057 110.232L90.078 105.513L90.111 105.546L86.406 105.531H86.388V105.516L86.433 101.67Z" fill="#263238"/>
<path d="M98.862 88.8322C112.041 75.6532 112.041 54.2858 98.862 41.1067C85.683 27.9277 64.3156 27.9277 51.1365 41.1067C37.9575 54.2858 37.9575 75.6532 51.1365 88.8322C64.3156 102.011 85.683 102.011 98.862 88.8322Z" fill="white"/>
<path d="M74.9999 98.865C68.2951 98.865 61.7409 96.8768 56.166 93.1518C50.5912 89.4268 46.2462 84.1323 43.6804 77.9379C41.1145 71.7435 40.4432 64.9273 41.7512 58.3514C43.0593 51.7754 46.288 45.735 51.0289 40.994C55.7699 36.253 61.8103 33.0244 68.3863 31.7163C74.9623 30.4083 81.7784 31.0796 87.9728 33.6454C94.1672 36.2113 99.4617 40.5563 103.187 46.1311C106.912 51.706 108.9 58.2602 108.9 64.965C108.89 73.9529 105.316 82.5699 98.9603 88.9253C92.6048 95.2808 83.9878 98.8554 74.9999 98.865ZM74.9999 31.365C68.3544 31.365 61.8582 33.3356 56.3327 37.0276C50.8072 40.7196 46.5006 45.9672 43.9575 52.1068C41.4144 58.2464 40.749 65.0022 42.0455 71.52C43.3419 78.0378 46.542 84.0247 51.2411 88.7237C55.9401 93.4228 61.9271 96.6229 68.4448 97.9193C74.9626 99.2158 81.7184 98.5504 87.858 96.0073C93.9976 93.4642 99.2452 89.1576 102.937 83.6321C106.629 78.1066 108.6 71.6104 108.6 64.965C108.588 56.0576 105.044 47.5185 98.7453 41.2204C92.4466 34.9222 83.9072 31.3791 74.9999 31.368V31.365Z" fill="#263238"/>
<path d="M108.747 64.968C108.75 70.9251 107.175 76.7767 104.182 81.9276C101.19 87.0785 96.8864 91.3449 91.7099 94.293C89.2109 93.489 87.3509 91.608 85.4879 89.727C84.1469 88.371 87.4169 87.816 85.4339 87.099C87.3629 85.188 89.9099 81.327 86.6339 81.882C84.6509 81.162 83.4179 85.065 80.7659 83.682C78.1139 82.299 77.3999 78.966 74.7329 77.571L72.1589 80.118C70.1729 79.395 68.7749 75.414 68.1329 76.05C64.8629 76.602 62.9609 79.827 60.3899 82.371C59.0459 81.018 57.0629 80.301 57.6899 78.348C69.7979 64.83 81.6899 50.661 94.2239 37.218C98.7093 40.3232 102.374 44.4705 104.904 49.304C107.433 54.1375 108.752 59.5126 108.747 64.968Z" fill="#6E57FC"/>
<path d="M78.4949 100.8H77.8949V79.3832C77.0849 79.3832 75.7229 79.3982 75.1139 79.3982H74.8859C74.2859 79.3982 72.9179 79.3982 72.1049 79.3832V100.8H71.5049V78.7742H71.8049C72.4649 78.7742 74.0429 78.7922 74.8799 78.7922H75.1079C75.9449 78.7922 77.5229 78.7922 78.1829 78.7742H78.4829L78.4949 100.8Z" fill="#263238"/>
<path d="M77.8949 79.3861V72.3601C77.8949 69.7651 79.3289 67.8991 81.5489 67.6051C83.6489 67.3291 86.3489 68.6761 87.3119 72.2821C87.9359 74.5981 87.8459 76.1821 87.0359 77.2531C85.7669 78.9331 82.8359 79.3051 78.1979 79.3801L77.8949 79.3861ZM82.0949 68.1721C81.9404 68.1715 81.786 68.1815 81.6329 68.2021C79.7309 68.4511 78.5009 70.0831 78.5009 72.3601V78.7741C82.6709 78.6931 85.4729 78.3331 86.5619 76.8931C87.2519 75.9751 87.3089 74.5621 86.7389 72.4381C85.9319 69.4471 83.8529 68.1721 82.0889 68.1721H82.0949Z" fill="#263238"/>
<path d="M72.1049 79.3861H71.8049C67.1699 79.3111 64.2389 78.9391 62.9729 77.2591C62.1599 76.1851 62.0729 74.6041 62.6909 72.2881C63.6599 68.6881 66.3599 67.3351 68.4599 67.6111C70.6769 67.9111 72.1109 69.7711 72.1109 72.3661L72.1049 79.3861ZM67.9049 68.1721C66.1409 68.1721 64.0619 69.4471 63.2579 72.4381C62.6909 74.5621 62.7479 75.9751 63.4379 76.8931C64.5269 78.3331 67.3379 78.6931 71.4989 78.7741V72.3601C71.4989 70.0831 70.2689 68.4601 68.3669 68.2021C68.2158 68.1818 68.0634 68.1717 67.9109 68.1721H67.9049Z" fill="#263238"/>
<path d="M79.251 91.938H70.749C69.1882 91.938 67.923 93.2032 67.923 94.764V96.519C67.923 98.0798 69.1882 99.345 70.749 99.345H79.251C80.8117 99.345 82.077 98.0798 82.077 96.519V94.764C82.077 93.2032 80.8117 91.938 79.251 91.938Z" fill="#A6A6A6"/>
<path d="M50.775 41.0432C53.9443 37.8719 57.711 35.3605 61.857 33.6542C66.0046 31.9483 70.4405 31.0522 74.925 31.0142C79.4131 30.9727 83.8665 31.803 88.038 33.4592C92.2123 35.1193 96.0068 37.6084 99.192 40.7762C102.367 43.9543 104.872 47.7369 106.56 51.9002C109.953 60.3148 109.993 69.7094 106.674 78.1532C105.031 82.3443 102.55 86.1558 99.3817 89.3541C96.2138 92.5524 92.4262 95.0702 88.251 96.7532C84.0825 98.4449 79.6247 99.3099 75.126 99.3002C70.6314 99.2928 66.1799 98.423 62.013 96.7382C57.846 95.056 54.0569 92.5586 50.8681 89.3924C47.6792 86.2262 45.1548 82.4551 43.443 78.3002C40.0056 69.9197 39.9905 60.5256 43.401 52.1342C45.0948 47.9824 47.602 44.2114 50.775 41.0432ZM50.775 41.0432C47.6129 44.2171 45.1171 47.9911 43.434 52.1432C40.0578 60.5234 40.0987 69.8928 43.548 78.2432C45.2652 82.3727 47.7888 86.1182 50.9713 89.2605C54.1537 92.4028 57.931 94.8786 62.082 96.5432C66.2296 98.2059 70.6575 99.0583 75.126 99.0542C79.5918 99.0578 84.0158 98.1938 88.152 96.5102C92.2826 94.8188 96.0298 92.3122 99.1699 89.1401C102.31 85.9681 104.779 82.1956 106.428 78.0482C109.754 69.6632 109.739 60.3224 106.386 51.9482C104.727 47.7936 102.242 44.0192 99.0808 40.8539C95.9196 37.6886 92.1485 35.1983 87.996 33.5342C83.8412 31.8716 79.403 31.032 74.928 31.0622C70.45 31.0861 66.0181 31.968 61.872 33.6602C57.7213 35.3634 53.9496 37.8728 50.775 41.0432Z" fill="#263238"/>
<path d="M109.047 65.2679C109.036 60.7867 108.137 56.3521 106.401 52.2209C104.665 48.0915 102.152 44.3336 99 41.1509C95.8567 37.9634 92.1247 35.4163 88.011 33.6509C83.8977 31.8961 79.4719 30.992 75 30.9929C70.5284 31.0092 66.1053 31.9212 61.992 33.6749C53.7068 37.2277 47.0964 43.8178 43.518 52.0919C41.751 56.1906 40.8286 60.6036 40.8059 65.0669C40.7832 69.5303 41.6607 73.9524 43.386 78.0689C45.1196 82.1842 47.6362 85.9234 50.796 89.0789C53.9544 92.2413 57.6898 94.7689 61.8 96.5249C65.9114 98.286 70.3333 99.2081 74.806 99.2369C79.2787 99.2658 83.7121 98.4008 87.846 96.6929C96.1957 93.2257 102.852 86.6218 106.386 78.2999C108.132 74.1764 109.037 69.7458 109.047 65.2679ZM109.047 65.2679C109.051 69.7516 108.157 74.1908 106.419 78.3239C102.898 86.666 96.2506 93.2976 87.9 96.7979C83.752 98.5238 79.3011 99.404 74.8085 99.387C70.3158 99.37 65.8718 98.4561 61.737 96.6989C57.593 94.9463 53.8246 92.4133 50.637 89.2379C47.4435 86.0697 44.8963 82.311 43.137 78.1709C41.3742 74.0276 40.4769 69.5676 40.5001 65.065C40.5233 60.5623 41.4666 56.1118 43.272 51.9869C46.8947 43.6693 53.5656 37.0552 61.914 33.5039C66.0477 31.7413 70.4964 30.837 74.9902 30.8458C79.484 30.8545 83.9291 31.7762 88.056 33.5549C92.1783 35.3329 95.9157 37.8954 99.06 41.0999C102.205 44.2948 104.709 48.0627 106.437 52.1999C108.161 56.3408 109.049 60.7823 109.047 65.2679Z" fill="#263238"/>
<path d="M74.6999 99.8012C79.2447 99.7892 83.7421 98.8777 87.9329 97.1192C92.1199 95.3596 95.9306 92.8136 99.1589 89.6192C102.392 86.431 104.973 82.6448 106.761 78.4712C108.544 74.2989 109.462 69.8084 109.461 65.2712C109.446 60.7334 108.521 56.2448 106.74 52.0712C103.139 43.6668 96.4547 36.9614 88.0619 33.3332C83.9045 31.5409 79.4284 30.6053 74.9012 30.5821C70.3739 30.5589 65.8885 31.4486 61.7129 33.1982C57.5398 34.9586 53.7478 37.5118 50.5469 40.7162C47.3396 43.9187 44.7754 47.7059 42.9929 51.8732C41.208 56.0432 40.2736 60.5278 40.2448 65.0637C40.2159 69.5997 41.0931 74.0957 42.8249 78.2882C46.3399 86.7552 53.0336 93.5071 61.4699 97.0952C65.6552 98.8709 70.1535 99.791 74.6999 99.8012ZM74.6999 99.8012C70.1526 99.8036 65.6506 98.8979 61.4579 97.1372C52.996 93.5618 46.2715 86.8136 42.7259 78.3392C40.9738 74.1327 40.08 69.6184 40.097 65.0617C40.114 60.5049 41.0415 55.9975 42.8249 51.8042C44.6079 47.6072 47.1793 43.7913 50.3999 40.5632C53.6133 37.3262 57.4249 34.7444 61.6229 32.9612C65.8254 31.1741 70.3486 30.2646 74.9152 30.2883C79.4817 30.312 83.9953 31.2685 88.1789 33.0992C96.6121 36.7731 103.319 43.5358 106.923 51.9992C108.711 56.191 109.629 60.7026 109.62 65.2599C109.611 69.8172 108.676 74.3252 106.872 78.5102C105.068 82.689 102.47 86.478 99.2219 89.6672C95.9791 92.8568 92.1552 95.3956 87.9569 97.1462C83.7571 98.8995 79.251 99.8019 74.6999 99.8012Z" fill="#263238"/>
<path d="M63.924 97.1611H86.076V114.9C86.076 117.249 85.1429 119.501 83.4821 121.162C81.8213 122.823 79.5687 123.756 77.2199 123.756H72.78C70.4312 123.756 68.1786 122.823 66.5178 121.162C64.857 119.501 63.924 117.249 63.924 114.9V97.1611Z" fill="#455A64"/>
<path d="M89.6699 97.1611H60.3329V101.796H89.6699V97.1611Z" fill="#37474F"/>
<path d="M89.6699 105.57H60.3329V110.205H89.6699V105.57Z" fill="#37474F"/>
<path d="M87.8969 113.982H62.1029V118.617H87.8969V113.982Z" fill="#37474F"/>
<path d="M103.029 65.6731C102.631 65.6731 102.25 65.515 101.968 65.2337C101.687 64.9524 101.529 64.5709 101.529 64.1731C101.529 48.4111 86.028 39.3061 85.872 39.2161C85.5271 39.0172 85.2753 38.6894 85.1721 38.3048C85.0688 37.9203 85.1226 37.5105 85.3215 37.1656C85.5204 36.8207 85.8482 36.5689 86.2327 36.4657C86.6173 36.3624 87.0271 36.4162 87.372 36.6151C90.5452 38.5661 93.4284 40.9535 95.937 43.7071C101.565 49.8211 104.538 56.9071 104.538 64.1731C104.538 64.3708 104.499 64.5666 104.423 64.7492C104.347 64.9318 104.236 65.0975 104.095 65.2369C103.955 65.3763 103.789 65.4866 103.606 65.5615C103.423 65.6363 103.227 65.6743 103.029 65.6731Z" fill="white"/>
<path d="M102.663 73.2182C103.652 73.2182 104.454 72.4164 104.454 71.4272C104.454 70.4381 103.652 69.6362 102.663 69.6362C101.674 69.6362 100.872 70.4381 100.872 71.4272C100.872 72.4164 101.674 73.2182 102.663 73.2182Z" fill="white"/>
<path d="M60.657 126.156L64.242 126.087L67.842 126.048L75.012 126.015L82.182 126.048C84.582 126.072 86.964 126.099 89.355 126.156V126.174C86.955 126.231 84.573 126.258 82.182 126.282L75.012 126.315L67.842 126.282L64.242 126.24L60.657 126.174V126.156Z" fill="#263238"/>
<path d="M61.65 127.392L61.857 127.173L60.771 126.165L61.857 125.157L61.65 124.938L60.333 126.165L61.65 127.392Z" fill="#263238"/>
<path d="M88.3499 127.392L88.1429 127.173L89.2289 126.165L88.1429 125.157L88.3499 124.938L89.6669 126.165L88.3499 127.392Z" fill="#263238"/>
<path d="M41.577 26.76L49.932 26.688L58.287 26.649L75 26.613L91.71 26.649L100.068 26.688L108.423 26.76V26.766L100.068 26.838L91.71 26.88L75 26.913L58.287 26.88L49.932 26.838L41.577 26.766V26.76Z" fill="#263238"/>
<path d="M42.57 27.9899L42.777 27.7709L41.691 26.7629L42.777 25.7579L42.57 25.5359L41.25 26.7629L42.57 27.9899Z" fill="#263238"/>
<path d="M107.43 27.9899L107.226 27.7709L108.309 26.7629L107.226 25.7579L107.43 25.5359L108.75 26.7629L107.43 27.9899Z" fill="#263238"/>
<path d="M53.553 123.435C53.496 121.275 53.469 119.112 53.445 116.949L53.4 110.46L53.433 103.974C53.457 101.811 53.484 99.6481 53.541 97.4851H53.559C53.616 99.6481 53.643 101.811 53.667 103.974L53.7 110.46L53.667 116.949C53.643 119.112 53.616 121.275 53.559 123.435H53.553Z" fill="#263238"/>
<path d="M54.789 122.442L54.57 122.238L53.562 123.321L52.554 122.238L52.335 122.442L53.562 123.762L54.789 122.442Z" fill="#263238"/>
<path d="M54.789 98.4811L54.57 98.6851L53.562 97.6021L52.554 98.6851L52.335 98.4811L53.562 97.1611L54.789 98.4811Z" fill="#263238"/>
<path d="M110.649 123.435L110.577 111.951L110.55 100.464L110.502 77.4899L110.55 54.5159L110.577 43.0319L110.649 31.5449H110.652L110.727 43.0319L110.751 54.5159L110.799 77.4899L110.751 100.464L110.724 111.951L110.652 123.435H110.649Z" fill="#263238"/>
<path d="M111.879 122.442L111.657 122.238L110.652 123.321L109.644 122.238L109.425 122.442L110.652 123.762L111.879 122.442Z" fill="#263238"/>
<path d="M111.879 32.538L111.657 32.742L110.652 31.659L109.644 32.742L109.425 32.538L110.652 31.218L111.879 32.538Z" fill="#263238"/>
<path d="M66.795 97.1611C65.238 97.2211 63.681 97.2511 62.124 97.2751C60.567 97.2991 59.01 97.2991 57.453 97.3111C55.896 97.3231 54.336 97.3111 52.779 97.2751L50.445 97.2331C49.665 97.2091 48.888 97.1941 48.108 97.1611C48.888 97.1251 49.665 97.1131 50.445 97.0861L52.779 97.0441C54.336 97.0201 55.896 97.0231 57.453 97.0111C59.01 96.9991 60.567 97.0111 62.124 97.0471C63.681 97.0831 65.238 97.0981 66.795 97.1611Z" fill="#263238"/>
<path d="M72.555 123.762C70.518 123.825 68.481 123.852 66.444 123.876C64.407 123.9 62.37 123.9 60.333 123.912L54.219 123.876L51.165 123.834C50.145 123.81 49.128 123.795 48.108 123.762C49.128 123.729 50.145 123.714 51.165 123.687L54.219 123.645L60.333 123.612C62.37 123.612 64.407 123.612 66.444 123.648C68.481 123.684 70.518 123.699 72.555 123.762Z" fill="#263238"/>
<path d="M60.333 97.1611C60.393 99.9241 60.423 102.69 60.447 105.453L60.483 113.748L60.447 122.04L60.405 126.189L60.333 130.335L60.258 126.189L60.216 122.04L60.183 113.748L60.216 105.453C60.24 102.69 60.27 99.9241 60.333 97.1611Z" fill="#263238"/>
<path d="M89.667 97.1611C89.73 99.9241 89.76 102.69 89.784 105.453L89.817 113.748L89.784 122.04L89.742 126.189L89.667 130.335L89.595 126.189L89.553 122.04L89.517 113.748L89.553 105.453C89.577 102.69 89.607 99.9241 89.667 97.1611Z" fill="#263238"/>
<path d="M76.5 123.762C79.842 123.699 83.184 123.672 86.526 123.648L96.555 123.612L106.581 123.645L111.597 123.687L116.61 123.762L111.597 123.834L106.581 123.876L96.555 123.912L86.526 123.876C83.193 123.852 79.851 123.825 76.5 123.762Z" fill="#263238"/>
<path d="M76.5 31.218C79.842 31.158 83.184 31.128 86.526 31.104L96.555 31.071L106.581 31.104L111.597 31.146L116.61 31.218L111.597 31.293L106.581 31.335L96.555 31.368L86.526 31.335C83.193 31.311 79.851 31.281 76.5 31.218Z" fill="#263238"/>
<path d="M41.25 123.762L41.178 111.231L41.151 98.7029L41.103 73.6409L41.151 48.5819L41.178 36.0509L41.25 23.5229L41.325 36.0509L41.352 48.5819L41.4 73.6409L41.352 98.7029L41.325 111.231L41.25 123.762Z" fill="#263238"/>
<path d="M108.75 123.762L108.675 111.231L108.648 98.7029L108.6 73.6409L108.648 48.5819L108.675 36.0509L108.75 23.5229L108.822 36.0509L108.849 48.5819L108.897 73.6409L108.849 98.7029L108.822 111.231L108.75 123.762Z" fill="#263238"/>
<path d="M14.247 114.918C14.247 114.918 13.947 126.801 13.947 126.81C13.947 129.006 13.998 130.932 14.115 131.925C14.1136 131.931 14.1136 131.937 14.115 131.943C14.1173 132.179 14.1737 132.411 14.28 132.621C14.934 133.062 32.49 133.521 33.108 133.329C33.726 133.137 33.234 131.361 32.565 130.8C31.896 130.239 25.251 127.059 25.251 127.059L25.458 115.2L14.247 114.918Z" fill="#EB9481"/>
<path d="M13.926 124.452C13.926 124.452 13.947 126.801 13.947 126.81C13.947 129.006 13.998 130.932 14.115 131.925C14.1136 131.931 14.1136 131.937 14.115 131.943C14.1432 132.175 14.1986 132.402 14.28 132.621C14.934 133.062 32.49 133.521 33.108 133.329C33.726 133.137 33.234 131.361 32.565 130.8C31.896 130.239 25.251 127.059 25.251 127.059V124.659L13.926 124.452Z" fill="white"/>
<path d="M26.343 127.077C25.173 126.885 23.754 127.095 22.881 127.944C22.848 127.977 22.8811 128.022 22.9321 128.01C24.0376 127.627 25.1812 127.363 26.343 127.224C26.36 127.221 26.3752 127.211 26.3862 127.198C26.3971 127.185 26.4031 127.168 26.4031 127.151C26.4031 127.133 26.3971 127.117 26.3862 127.103C26.3752 127.09 26.36 127.081 26.343 127.077Z" fill="#263238"/>
<path d="M27.195 127.566C26.025 127.374 24.606 127.584 23.733 128.43C23.7 128.463 23.733 128.511 23.784 128.499C24.8886 128.116 26.0311 127.852 27.192 127.713C27.209 127.71 27.2245 127.701 27.2357 127.688C27.2469 127.675 27.2533 127.658 27.2536 127.641C27.254 127.624 27.2483 127.607 27.2376 127.593C27.2269 127.579 27.2119 127.57 27.195 127.566Z" fill="#263238"/>
<path d="M28.047 128.055C26.877 127.863 25.455 128.055 24.585 128.919C24.549 128.952 24.585 129 24.636 128.988C25.7406 128.605 26.8831 128.341 28.044 128.202C28.061 128.199 28.0765 128.19 28.0877 128.177C28.0989 128.164 28.1053 128.147 28.1056 128.13C28.106 128.113 28.1003 128.096 28.0896 128.082C28.079 128.068 28.0639 128.059 28.047 128.055Z" fill="#263238"/>
<path d="M33.123 133.341C32.505 133.53 14.952 133.074 14.295 132.633C14.043 132.468 13.959 129.909 13.947 126.81C13.947 126.777 13.947 126.744 13.947 126.711L25.275 126.879V127.071C25.275 127.071 31.914 130.251 32.586 130.815C33.258 131.379 33.744 133.152 33.123 133.341Z" fill="#37474F"/>
<path d="M13.947 126.711V126.81C13.947 129.909 14.04 132.471 14.295 132.633C14.55 132.795 18.396 133.038 22.5 133.2C27.42 133.374 32.778 133.461 33.117 133.356C33.735 133.167 33.237 131.388 32.571 130.827C31.905 130.266 25.26 127.086 25.26 127.086V126.897L21.483 126.84L13.947 126.711Z" fill="#6E57FC"/>
<path d="M32.9431 132.654C29.9851 132.504 18.0451 132.18 15.1111 132.258C15.0871 132.258 15.0841 132.276 15.1111 132.276C18.0391 132.489 29.9851 132.717 32.9461 132.702C33.0001 132.702 33.0001 132.657 32.9431 132.654Z" fill="#263238"/>
<path opacity="0.1" d="M21.5011 126.825C21.7771 128.721 22.2001 131.517 22.5001 133.2C27.4201 133.374 32.7781 133.461 33.1171 133.356C33.7351 133.167 33.2371 131.388 32.5711 130.827C31.9051 130.266 25.2601 127.086 25.2601 127.086V126.897L21.5011 126.825Z" fill="black"/>
<path d="M12.927 126.873L25.629 126.996C25.629 126.996 26.352 106.311 26.406 99.4141C26.469 91.5331 26.022 67.9141 26.022 67.9141H16.524C16.524 67.9141 13.974 73.1221 15.432 78.9841L15.834 100.071L12.927 126.873Z" fill="#37474F"/>
<path d="M13.8691 124.65C14.2044 124.605 14.5419 124.578 14.8801 124.569C15.2551 124.542 15.6301 124.515 16.0051 124.497C16.7281 124.467 17.4511 124.455 18.1741 124.452C19.6321 124.452 21.0931 124.452 22.5511 124.503C23.3791 124.53 24.2101 124.563 25.0381 124.611C25.0711 124.611 25.0681 124.662 25.0381 124.662C23.5921 124.716 22.1461 124.737 20.7001 124.764C19.2541 124.791 17.8051 124.821 16.3621 124.794C15.9481 124.794 15.5341 124.794 15.1201 124.758C14.7061 124.722 14.2801 124.758 13.8751 124.698C13.8481 124.695 13.8391 124.656 13.8691 124.65Z" fill="#263238"/>
<path d="M24.7141 113.232C24.8641 109.812 24.9721 106.389 25.0651 102.969C25.2551 96.1231 25.3051 89.2761 25.2151 82.4281C25.1671 78.5881 25.0621 74.7481 24.9481 70.9081C24.9481 70.8631 25.0141 70.8661 25.0171 70.9081C25.3801 77.7811 25.5181 84.6691 25.5271 91.5511C25.5361 98.4331 25.3921 105.246 25.0531 112.086C24.8641 115.923 24.6301 119.766 24.2671 123.591C24.2652 123.596 24.2618 123.601 24.2572 123.604C24.2526 123.607 24.2472 123.609 24.2416 123.609C24.236 123.609 24.2305 123.607 24.2259 123.604C24.2214 123.601 24.2179 123.596 24.2161 123.591C24.3721 120.138 24.5671 116.7 24.7141 113.232Z" fill="#263238"/>
<path d="M40.332 128.568C39.162 128.376 37.74 128.583 36.87 129.432C36.834 129.465 36.87 129.513 36.921 129.501C38.0256 129.118 39.1682 128.854 40.329 128.715C40.3461 128.712 40.3615 128.703 40.3727 128.69C40.384 128.677 40.3903 128.66 40.3907 128.643C40.391 128.626 40.3854 128.609 40.3747 128.595C40.364 128.581 40.3489 128.572 40.332 128.568Z" fill="#263238"/>
<path d="M41.1811 129.057C40.0141 128.865 38.5921 129.072 37.7191 129.921C37.6861 129.954 37.7191 130.002 37.7701 129.99C38.8758 129.607 40.0193 129.344 41.1811 129.204C41.198 129.201 41.2133 129.191 41.2242 129.178C41.2352 129.165 41.2411 129.148 41.2411 129.13C41.2411 129.113 41.2352 129.096 41.2242 129.083C41.2133 129.07 41.198 129.06 41.1811 129.057Z" fill="#263238"/>
<path d="M42.033 129.546C40.866 129.351 39.444 129.561 38.571 130.41C38.538 130.443 38.586 130.491 38.622 130.479C39.7277 130.096 40.8712 129.833 42.033 129.693C42.0499 129.69 42.0652 129.681 42.0761 129.667C42.0871 129.654 42.0931 129.637 42.0931 129.62C42.0931 129.602 42.0871 129.586 42.0761 129.572C42.0652 129.559 42.0499 129.55 42.033 129.546Z" fill="#263238"/>
<path d="M47.1001 134.829C46.4821 135.021 28.9261 134.565 28.2691 134.124C28.0171 133.959 27.9361 131.397 27.9241 128.301V128.202L39.2521 128.37V128.562C39.2521 128.562 45.9001 131.742 46.5691 132.3C47.2381 132.858 47.7301 134.643 47.1001 134.829Z" fill="#6E57FC"/>
<path d="M46.932 134.145C43.974 133.995 32.031 133.671 29.097 133.749C29.073 133.749 29.073 133.764 29.097 133.767C32.025 133.98 43.968 134.205 46.929 134.193C46.992 134.193 46.995 134.148 46.932 134.145Z" fill="#263238"/>
<path d="M22.035 80.0582C22.035 80.0582 27.246 96.4862 27.339 99.5042C27.42 102.078 27.09 128.49 27.09 128.49L40.29 128.568C40.29 128.568 39.174 101.634 38.97 98.9522C38.583 93.9362 34.191 80.1662 31.047 67.8992H16.818C16.818 67.8992 16.941 74.3252 19.863 78.9692C19.863 78.9692 21.186 79.5812 22.035 80.0582Z" fill="#37474F"/>
<path d="M27.792 126.057C29.316 126.012 30.897 125.967 32.421 126.006C33.945 126.045 35.448 126.066 36.957 126.156C37.815 126.207 38.67 126.237 39.525 126.321C39.5296 126.323 39.5335 126.326 39.5363 126.33C39.5391 126.334 39.5406 126.339 39.5406 126.344C39.5406 126.348 39.5391 126.353 39.5363 126.357C39.5335 126.361 39.5296 126.364 39.525 126.366C38.004 126.456 36.474 126.438 34.947 126.423C33.42 126.408 31.923 126.393 30.411 126.324C29.553 126.285 28.698 126.243 27.843 126.183C27.747 126.177 27.699 126.06 27.792 126.057Z" fill="#263238"/>
<path d="M30.678 75.6392C31.146 77.2082 31.545 78.8012 31.965 80.3852C32.385 81.9692 32.811 83.5772 33.231 85.1852C34.044 88.2752 34.848 91.3682 35.46 94.5062C36.0817 97.6555 36.434 100.852 36.513 104.061C36.585 107.331 36.513 110.607 36.492 113.877C36.471 117.147 36.444 120.456 36.387 123.744C36.387 124.152 36.369 124.56 36.354 124.971C36.354 125.01 36.294 125.007 36.294 124.971C36.207 121.701 36.252 118.422 36.264 115.152C36.276 111.882 36.318 108.606 36.291 105.336C36.2771 102.088 35.9961 98.8457 35.451 95.6432C34.899 92.4962 34.125 89.3942 33.321 86.3012C32.862 84.5372 32.397 82.7762 31.941 81.0122C31.485 79.2482 30.987 77.4632 30.582 75.6752C30.5772 75.6625 30.5777 75.6484 30.5833 75.636C30.589 75.6236 30.5993 75.614 30.612 75.6092C30.6247 75.6044 30.6388 75.6049 30.6512 75.6106C30.6636 75.6162 30.6732 75.6265 30.678 75.6392Z" fill="#263238"/>
<path d="M25.296 80.3761C24.6392 80.3712 23.984 80.312 23.337 80.1991C22.6952 80.0562 22.0614 79.88 21.438 79.6711C20.825 79.5318 20.2037 79.4316 19.578 79.3711C18.9468 79.2798 18.3323 79.0969 17.754 78.8281C17.727 78.8131 17.703 78.8551 17.73 78.8671C18.2908 79.1685 18.8758 79.4224 19.479 79.6261C20.106 79.8241 20.76 79.8511 21.393 80.0071C22.0338 80.1975 22.6861 80.3468 23.346 80.4541C23.9972 80.5364 24.6569 80.5253 25.305 80.4211C25.329 80.4151 25.32 80.3761 25.296 80.3761Z" fill="#263238"/>
<path d="M26.13 93.4442C26.004 92.9552 25.887 92.4692 25.755 91.9832C25.488 91.0022 25.215 90.0212 24.921 89.0492C24.321 87.1172 23.775 85.1732 23.151 83.2532C22.8 82.1612 22.482 81.0572 22.068 79.9892C22.066 79.9836 22.0618 79.979 22.0565 79.9765C22.0512 79.974 22.045 79.9737 22.0395 79.9757C22.0339 79.9777 22.0293 79.9818 22.0268 79.9871C22.0243 79.9925 22.024 79.9986 22.026 80.0042C22.233 81.0002 22.53 81.9752 22.794 82.9562C23.058 83.9372 23.34 84.9152 23.622 85.8932C24.186 87.8312 24.735 89.7752 25.35 91.7012C25.524 92.2412 25.701 92.7782 25.887 93.3152C26.073 93.8522 26.226 94.4252 26.454 94.9562C26.454 94.9625 26.4565 94.9686 26.461 94.9731C26.4655 94.9776 26.4716 94.9802 26.478 94.9802C26.4843 94.9802 26.4904 94.9776 26.4949 94.9731C26.4994 94.9686 26.502 94.9625 26.502 94.9562C26.4 94.4372 26.256 93.9422 26.13 93.4442Z" fill="#263238"/>
<path d="M27.279 53.3162C30.123 57.5162 34.407 63.1982 35.868 62.3672C39.606 60.2432 43.914 53.8562 44.673 52.2482C45.114 51.3152 39.006 46.7132 38.403 47.6402C37.698 48.7232 34.752 54.4592 34.266 54.5942C33.897 54.6962 30.336 51.6812 29.166 51.0572C26.256 49.5182 25.959 51.3722 27.279 53.3162Z" fill="#EB9481"/>
<path d="M37.26 49.0623L44.547 53.7333C44.547 53.7333 38.217 62.5173 35.442 62.5293C33.822 62.5293 29.187 57.1293 27.171 53.6403C24.972 49.8213 27.552 49.7703 29.649 51.2073C31.317 52.3503 34.029 54.4353 34.149 54.3303C34.269 54.2253 37.26 49.0623 37.26 49.0623Z" fill="#6E57FC"/>
<path opacity="0.1" d="M35.742 54.2462C35.6261 54.486 35.5472 54.7419 35.508 55.0052C35.679 54.801 35.8203 54.5738 35.928 54.3302C36.0414 54.0893 36.1212 53.8339 36.165 53.5712C35.9932 53.7754 35.8508 54.0026 35.742 54.2462ZM33.828 61.6982L33.987 61.8182C34.0704 61.6265 34.1289 61.4248 34.161 61.2182C34.0318 61.3648 33.92 61.5259 33.828 61.6982ZM38.733 52.5662C38.4934 52.4529 38.2388 52.3741 37.977 52.3322C38.389 52.671 38.8823 52.8964 39.408 52.9862C39.2031 52.8164 38.976 52.6751 38.733 52.5662ZM32.682 57.6482C32.4434 57.5317 32.1885 57.4518 31.926 57.4112C32.128 57.5846 32.3544 57.7271 32.598 57.8342C32.8388 57.9476 33.0943 58.0264 33.357 58.0682C33.154 57.8957 32.9265 57.7542 32.682 57.6482ZM27.534 51.5462C27.4454 51.2957 27.3212 51.0593 27.165 50.8442C27.1866 51.1084 27.2462 51.3681 27.342 51.6152C27.4306 51.8667 27.5549 52.1041 27.711 52.3202C27.6895 52.0551 27.6299 51.7944 27.534 51.5462ZM42.435 54.8042C42.3453 54.5533 42.2211 54.316 42.066 54.0992C42.0873 54.3644 42.1469 54.6252 42.243 54.8732C42.3328 55.1242 42.457 55.3614 42.612 55.5782C42.5908 55.313 42.5312 55.0523 42.435 54.8042ZM36.867 59.4002C36.7766 59.1496 36.6525 58.9124 36.498 58.6952C36.548 59.2274 36.7362 59.7373 37.044 60.1742C37.0225 59.9091 36.9629 59.6484 36.867 59.4002ZM39.372 56.6852C39.1211 56.775 38.8838 56.8992 38.667 57.0542C39.1997 57.0066 39.7102 56.8182 40.146 56.5082C39.8801 56.5346 39.6194 56.5993 39.372 56.7002V56.6852ZM30.972 53.9102C30.7223 54.0007 30.4861 54.1248 30.27 54.2792C30.8027 54.2316 31.3132 54.0432 31.749 53.7332C31.4796 53.7559 31.2148 53.8175 30.963 53.9162L30.972 53.9102Z" fill="black"/>
<path d="M39.9001 52.9232C39.3751 52.5782 38.8381 52.2512 38.3041 51.9212C38.0491 51.7622 37.7941 51.6002 37.5301 51.4502C37.2661 51.3002 36.9721 51.1022 36.6811 50.9612C36.6601 50.9612 36.6451 50.9612 36.6631 50.9882C36.9091 51.1982 37.1941 51.3722 37.4581 51.5612C37.7221 51.7502 37.9531 51.9062 38.2021 52.0742C38.7211 52.4282 39.2431 52.7792 39.7711 53.1182C40.8271 53.7992 41.9011 54.4502 42.9871 55.0862C42.992 55.0874 42.9972 55.0871 43.002 55.0851C43.0067 55.0832 43.0107 55.0798 43.0134 55.0755C43.0161 55.0711 43.0173 55.0661 43.0169 55.061C43.0164 55.0559 43.0144 55.051 43.0111 55.0472C42.0001 54.3182 40.9681 53.6072 39.9001 52.9232Z" fill="#263238"/>
<path opacity="0.1" d="M40.5 58.7372C38.7 60.7142 36.711 62.5232 35.454 62.5292C33.834 62.5292 29.199 57.1292 27.183 53.6402C26.04 51.6572 26.187 50.6912 26.883 50.4182L40.5 58.7372Z" fill="black"/>
<path d="M62.0311 60.9C62.0311 60.9 53.9311 56.7 45.7351 51.999C37.5391 47.298 17.9251 40.8 17.3011 41.28C16.6771 41.76 35.0011 52.239 43.5601 55.875C52.1191 59.511 61.0441 62.64 61.0441 62.64L62.0311 60.9Z" fill="#455A64"/>
<path d="M62.256 60.903L56.805 57.759L55.422 60.882L61.242 62.988L62.256 60.903Z" fill="#DBDBDB"/>
<path d="M62.2561 60.9C63.5521 60.777 65.0281 60.999 66.4891 62.493C68.2531 64.293 69.9031 64.173 69.9031 64.173C69.9031 64.173 64.5571 66.978 61.2421 62.973L62.2561 60.9Z" fill="#263238"/>
<path d="M70.143 64.2002C69.879 63.9572 68.343 64.0652 67.317 63.1592C66.351 62.3102 63.957 65.3132 65.736 65.3612C67.758 65.4002 70.623 64.6292 70.143 64.2002Z" fill="#6E57FC"/>
<path d="M29.949 53.2742C28.989 53.2922 27.549 51.3932 27.171 50.1242C27.147 50.0372 27.444 49.2452 27.771 48.2642C27.96 47.6642 28.158 47.0012 28.293 46.3772L31.989 48.1772C31.5968 48.9069 31.2946 49.6816 31.089 50.4842C31.0715 50.5701 31.0624 50.6575 31.062 50.7452C31.0604 50.7592 31.0604 50.7732 31.062 50.7872C31.023 51.3002 30.879 53.2562 29.949 53.2742Z" fill="#EB9481"/>
<path d="M31.0529 50.7451C31.0511 50.7601 31.0511 50.7752 31.0529 50.7902C30.9152 50.7789 30.7787 50.7558 30.6449 50.7212C28.3679 50.1212 28.3259 47.4212 28.3919 46.4312L31.9919 48.1772C31.5991 48.9066 31.2969 49.6814 31.0919 50.4842C31.0718 50.5699 31.0588 50.6572 31.0529 50.7451Z" fill="#263238"/>
<path d="M28.236 41.6731C27.597 43.0111 27.732 47.1691 28.593 48.2191C29.844 49.7431 32.193 50.2231 33.561 48.6511C34.89 47.1301 34.617 41.7151 33.627 40.7281C32.169 39.2761 29.175 39.6991 28.236 41.6731Z" fill="#EB9481"/>
<path d="M31.971 44.73C31.971 44.73 31.947 44.745 31.947 44.754C31.962 45.036 31.929 45.354 31.677 45.456C31.989 45.423 32.028 45 31.971 44.73Z" fill="#263238"/>
<path d="M31.716 44.4421C31.263 44.4121 31.242 45.3181 31.659 45.3421C32.076 45.3661 32.1 44.4631 31.716 44.4421Z" fill="#263238"/>
<path d="M33.543 44.7661C33.543 44.7661 33.564 44.7661 33.564 44.7901C33.564 45.0691 33.564 45.3901 33.828 45.4921C33.828 45.4921 33.828 45.5101 33.828 45.5071C33.516 45.4561 33.483 45.0271 33.543 44.7661Z" fill="#263238"/>
<path d="M33.8011 44.4781C34.2511 44.4571 34.2631 45.3601 33.8461 45.3781C33.4291 45.3961 33.4231 44.4991 33.8011 44.4781Z" fill="#263238"/>
<path d="M31.368 44.0192C31.488 43.9875 31.6062 43.9495 31.722 43.9052C31.8525 43.8823 31.9717 43.8169 32.061 43.7192C32.0827 43.6826 32.0917 43.6399 32.0869 43.5976C32.082 43.5554 32.0634 43.5159 32.034 43.4852C31.967 43.4338 31.8875 43.4012 31.8036 43.3907C31.7198 43.3802 31.6347 43.3921 31.557 43.4252C31.3887 43.4715 31.2434 43.5783 31.149 43.7252C31.1315 43.7591 31.1239 43.7973 31.127 43.8354C31.1302 43.8735 31.1439 43.9099 31.1667 43.9406C31.1896 43.9712 31.2205 43.9948 31.2561 44.0087C31.2917 44.0226 31.3305 44.0262 31.368 44.0192Z" fill="#263238"/>
<path d="M34.161 44.0313C34.0399 44.0051 33.9206 43.971 33.804 43.9293C33.6729 43.911 33.5516 43.8498 33.459 43.7553C33.4359 43.7203 33.4252 43.6786 33.4284 43.6368C33.4317 43.5949 33.4488 43.5554 33.477 43.5243C33.5419 43.4703 33.62 43.4346 33.7034 43.4208C33.7867 43.4071 33.8722 43.4159 33.951 43.4463C34.1206 43.4825 34.2704 43.581 34.371 43.7223C34.392 43.7559 34.4029 43.7949 34.4021 43.8345C34.4014 43.8741 34.3892 43.9127 34.3669 43.9454C34.3446 43.9782 34.3133 44.0038 34.2767 44.019C34.2402 44.0343 34.1999 44.0386 34.161 44.0313Z" fill="#263238"/>
<path d="M31.9261 46.4374C31.9946 46.5494 32.0853 46.6464 32.1926 46.7222C32.2999 46.798 32.4216 46.8512 32.5501 46.8784C32.6635 46.9015 32.7795 46.9095 32.8951 46.9024H32.9611H33.0211C33.036 46.9004 33.0498 46.8933 33.0602 46.8824C33.0705 46.8715 33.0769 46.8574 33.0781 46.8424V46.8004V46.7764C33.0781 46.5604 33.0781 46.2304 33.0781 46.2304C33.1561 46.2724 33.5551 46.4644 33.5491 46.3504C33.5494 45.3776 33.4489 44.4074 33.2491 43.4554C33.2491 43.4254 33.1951 43.4314 33.1981 43.4554C33.1981 44.3554 33.3481 45.2554 33.3571 46.1554C33.2158 46.0853 33.0653 46.0358 32.9101 46.0084C32.8801 46.0084 32.9461 46.6444 32.9341 46.7404C32.7573 46.7537 32.5796 46.7314 32.4116 46.6747C32.2436 46.618 32.0887 46.5281 31.9561 46.4104C31.9321 46.3954 31.9081 46.4134 31.9261 46.4374Z" fill="#263238"/>
<path d="M32.769 46.8002C32.6472 46.9516 32.4879 47.0685 32.307 47.1392C32.2094 47.1705 32.1046 47.1705 32.007 47.1392C31.785 47.0762 31.785 46.8692 31.83 46.6952C31.8547 46.602 31.8909 46.5123 31.938 46.4282C32.1681 46.6379 32.4593 46.7683 32.769 46.8002Z" fill="#263238"/>
<path d="M32.307 47.1271C32.2094 47.1583 32.1046 47.1583 32.007 47.1271C31.785 47.0641 31.785 46.8571 31.83 46.6831C31.9479 46.6926 32.0592 46.7416 32.1457 46.8221C32.2323 46.9027 32.2891 47.0102 32.307 47.1271Z" fill="#FF97B8"/>
<path opacity="0.2" d="M29.226 40.5212C29.226 41.0762 29.154 42.7922 28.902 43.1522C28.65 43.5122 28.119 44.3522 27.837 44.4812C27.837 43.3382 27.963 42.2462 28.236 41.6732C28.4582 41.2084 28.7999 40.8108 29.226 40.5212Z" fill="#263238"/>
<path d="M31.2 38.6042C30.8406 38.6064 30.4875 38.6987 30.173 38.8727C29.8585 39.0467 29.5928 39.2969 29.4 39.6002C29.2376 39.9064 29.1847 40.2588 29.25 40.5992H29.28C29.2637 40.2976 29.3285 39.9971 29.4678 39.729C29.6071 39.461 29.8158 39.2352 30.072 39.0752C30.353 38.891 30.6728 38.7743 31.0064 38.7342C31.34 38.6941 31.6784 38.7318 31.995 38.8442C32.3051 38.949 32.5671 39.162 32.733 39.4442C32.733 39.4712 32.808 39.4442 32.793 39.4232C32.565 38.9192 31.911 38.5862 31.2 38.6042Z" fill="#263238"/>
<path d="M35.7991 40.3172C35.6681 39.9261 35.4037 39.5937 35.0521 39.3782C34.5661 39.0782 34.0171 39.1232 33.4711 39.1802C33.4711 39.1802 33.4711 39.2042 33.4711 39.2012C33.9313 39.1181 34.4057 39.1713 34.8361 39.3542C35.1899 39.5328 35.4709 39.8286 35.6311 40.1912C35.7857 40.5627 35.801 40.9776 35.6742 41.3595C35.5475 41.7415 35.2871 42.0648 34.9411 42.2702C34.7382 42.3833 34.5143 42.4538 34.2833 42.4775C34.0522 42.5013 33.8187 42.4777 33.5971 42.4082C33.5971 42.4082 33.5671 42.4292 33.5971 42.4352C33.8964 42.5428 34.2199 42.5648 34.531 42.4986C34.8422 42.4325 35.1287 42.2809 35.3584 42.0608C35.5881 41.8408 35.7519 41.561 35.8314 41.253C35.9108 40.945 35.9027 40.6209 35.8081 40.3172H35.7991Z" fill="#263238"/>
<path d="M27.939 42.4772C27.939 42.4772 27.192 41.0552 27.822 40.2362C28.182 39.7742 29.364 39.8372 29.364 39.8372C29.6819 39.3683 30.1728 39.0446 30.729 38.9372C31.719 38.7152 32.895 39.2972 32.895 39.2972C32.895 39.2972 33.837 38.7632 34.716 39.2702C35.943 39.9752 35.781 41.8472 34.545 42.4442C33.675 42.8612 32.499 42.0902 32.499 42.0902C32.385 42.0902 31.221 42.8012 30.348 41.7602C30.348 41.7602 29.631 42.3932 28.992 41.9462C28.8918 42.1317 28.7371 42.282 28.5489 42.3769C28.3606 42.4719 28.1478 42.5069 27.939 42.4772Z" fill="#263238"/>
<path d="M28.608 45.1022C28.608 45.1022 27.858 43.6712 27.222 43.9202C26.586 44.1692 27.027 46.1642 27.693 46.5122C27.7752 46.5631 27.8669 46.5968 27.9624 46.6113C28.0579 46.6258 28.1554 46.6209 28.249 46.5968C28.3426 46.5727 28.4304 46.5299 28.507 46.4711C28.5837 46.4122 28.6476 46.3384 28.695 46.2542L28.608 45.1022Z" fill="#EB9481"/>
<path d="M27.363 44.4902C27.363 44.4902 27.363 44.4902 27.363 44.5082C27.5735 44.6486 27.752 44.8318 27.8869 45.0458C28.0218 45.2598 28.1101 45.4998 28.146 45.7502C28.1234 45.6979 28.0899 45.651 28.0476 45.6128C28.0054 45.5745 27.9555 45.5458 27.9012 45.5284C27.8469 45.5111 27.7895 45.5056 27.7329 45.5123C27.6763 45.519 27.6218 45.5377 27.573 45.5672C27.5691 45.5672 27.5652 45.5688 27.5624 45.5716C27.5596 45.5744 27.558 45.5783 27.558 45.5822C27.558 45.5862 27.5596 45.59 27.5624 45.5928C27.5652 45.5957 27.5691 45.5972 27.573 45.5972C27.6626 45.5807 27.7551 45.5923 27.8378 45.6304C27.9206 45.6685 27.9895 45.7314 28.035 45.8102C28.1101 45.9433 28.1705 46.0841 28.215 46.2302C28.233 46.2752 28.314 46.2632 28.305 46.2122C28.398 45.5762 28.026 44.6372 27.363 44.4902Z" fill="#263238"/>
<path d="M14.5291 70.8392C14.5621 70.8932 32.5291 74.5742 32.7301 74.4212C33.0091 74.2082 33.9661 55.9292 31.1461 51.8552C30.4501 50.8532 27.7591 49.4372 26.7661 49.9052C24.1921 51.1052 22.3321 54.2972 21.1621 56.1392C20.2951 57.5012 19.1071 59.8832 17.9821 62.3402C16.1221 66.3902 14.4151 70.6382 14.5291 70.8392Z" fill="#6E57FC"/>
<path opacity="0.1" d="M27.018 57.0002C26.902 57.2402 26.8221 57.4959 26.781 57.7592C26.9535 57.5573 27.0951 57.3308 27.201 57.0872C27.3162 56.847 27.396 56.5914 27.438 56.3282C27.2654 56.5302 27.1239 56.7567 27.018 57.0002ZM19.2 60.8822C19.0866 61.123 19.0079 61.3785 18.966 61.6412C19.1385 61.4393 19.2801 61.2128 19.386 60.9692C19.5006 60.729 19.5795 60.4733 19.62 60.2102C19.4495 60.4137 19.3081 60.6398 19.2 60.8822ZM28.599 72.7472C28.4852 72.9878 28.4064 73.2434 28.365 73.5062C28.5374 73.3036 28.6799 73.0773 28.788 72.8342C28.8996 72.5928 28.9783 72.3376 29.022 72.0752C28.8453 72.2771 28.6988 72.5034 28.587 72.7472H28.599ZM19.53 71.8472V71.8802L19.737 71.9192C19.8474 71.6831 19.9241 71.4327 19.965 71.1752C19.7824 71.3772 19.6317 71.6058 19.518 71.8532L19.53 71.8472ZM14.967 69.8432C14.8536 70.0842 14.7738 70.3396 14.73 70.6022C14.9045 70.4001 15.0471 70.1724 15.153 69.9272C15.268 69.6872 15.3468 69.4314 15.387 69.1682C15.2124 69.3743 15.067 69.6035 14.955 69.8492L14.967 69.8432ZM24.747 66.3002C24.6336 66.5412 24.5538 66.7966 24.51 67.0592C24.6845 66.8582 24.8271 66.6315 24.933 66.3872C25.0472 66.1469 25.1261 65.8912 25.167 65.6282C24.9965 65.8317 24.8551 66.0578 24.747 66.3002ZM23.445 53.3282C23.33 53.5683 23.2511 53.8241 23.211 54.0872C23.3815 53.8827 23.5229 53.6556 23.631 53.4122C23.7461 53.173 23.826 52.9184 23.868 52.6562C23.6958 52.8579 23.5534 53.0832 23.445 53.3252V53.3282ZM32.7 57.6542C32.4613 57.5377 32.2064 57.4578 31.944 57.4172C32.1459 57.5906 32.3724 57.7331 32.616 57.8402L32.742 57.8912C32.715 57.8072 32.7 57.7292 32.7 57.6542ZM19.653 66.5132C19.412 66.3998 19.1566 66.3201 18.894 66.2762C19.0957 66.4514 19.3234 66.5941 19.569 66.6992C19.8082 66.8144 20.0628 66.8942 20.325 66.9362C20.1231 66.7629 19.8966 66.6204 19.653 66.5132ZM32.811 73.5482C32.5707 73.4337 32.315 73.3548 32.052 73.3142C32.2555 73.4862 32.4828 73.6277 32.727 73.7342L32.835 73.7822C32.835 73.7162 32.835 73.6472 32.856 73.5722L32.811 73.5482ZM26.373 70.1252C26.1324 70.0115 25.8768 69.9327 25.614 69.8912C25.8175 70.0632 26.0448 70.2047 26.289 70.3112C26.5289 70.4273 26.7847 70.5071 27.048 70.5482C26.8438 70.3764 26.6166 70.234 26.373 70.1252ZM31.911 65.2022C31.6716 65.0881 31.417 65.0093 31.155 64.9682C31.3577 65.1397 31.584 65.2812 31.827 65.3882C32.0676 65.5025 32.3231 65.5823 32.586 65.6252C32.3823 65.4528 32.155 65.3103 31.911 65.2022ZM25.032 60.2792C24.7917 60.1647 24.536 60.0858 24.273 60.0452C24.4765 60.2172 24.7038 60.3587 24.948 60.4652C25.1879 60.5813 25.4437 60.6611 25.707 60.7022C25.5033 60.5298 25.276 60.3873 25.032 60.2792ZM17.745 69.5642C17.6572 69.3134 17.5329 69.0768 17.376 68.8622C17.3979 69.1273 17.4575 69.388 17.553 69.6362C17.6434 69.886 17.7676 70.1221 17.922 70.3382C17.9008 70.073 17.8411 69.8123 17.745 69.5642ZM27.534 51.5462C27.4454 51.2957 27.3211 51.0593 27.165 50.8442C27.1865 51.1084 27.2461 51.3681 27.342 51.6152C27.4306 51.8667 27.5548 52.1041 27.711 52.3202C27.6894 52.0551 27.6298 51.7944 27.534 51.5462ZM30.399 60.4952C30.3097 60.245 30.1855 60.0086 30.03 59.7932C30.0515 60.0584 30.1111 60.3191 30.207 60.5672C30.296 60.8182 30.4213 61.0547 30.579 61.2692C30.5561 61.004 30.4955 60.7434 30.399 60.4952ZM23.913 72.3842C23.8237 72.134 23.6995 71.8976 23.544 71.6822C23.5659 71.9473 23.6255 72.208 23.721 72.4562C23.763 72.5612 23.805 72.6662 23.856 72.7562L24.039 72.7922C24.0056 72.6537 23.9635 72.5175 23.913 72.3842ZM28.923 67.4642C28.8325 67.2145 28.7084 66.9783 28.554 66.7622C28.5759 67.0273 28.6355 67.288 28.731 67.5362C28.8208 67.7872 28.945 68.0244 29.1 68.2412C29.0784 67.9751 29.0188 67.7134 28.923 67.4642ZM22.272 63.4202C22.1818 63.1689 22.0566 62.9315 21.9 62.7152C21.9215 62.9814 21.9811 63.243 22.077 63.4922C22.1677 63.7449 22.294 63.9833 22.452 64.2002C22.43 63.9329 22.3694 63.6702 22.272 63.4202ZM17.079 64.3472L16.968 64.5992L17.043 64.5752C17.2936 64.4842 17.53 64.3579 17.745 64.2002C17.5172 64.2181 17.2931 64.2676 17.079 64.3472ZM22.143 68.9552C21.892 69.045 21.6548 69.1692 21.438 69.3242C21.7041 69.3027 21.9658 69.2431 22.215 69.1472C22.4646 69.0586 22.7 68.9343 22.914 68.7782C22.6498 68.7998 22.3901 68.8594 22.143 68.9552ZM21.987 57.6452C21.7416 57.7349 21.5103 57.8592 21.3 58.0142C21.5651 57.9924 21.8257 57.9328 22.074 57.8372C22.3243 57.7469 22.5607 57.6217 22.776 57.4652C22.5056 57.4867 22.2399 57.5473 21.987 57.6452ZM31.137 70.4522C30.886 70.542 30.6488 70.6662 30.432 70.8212C30.6971 70.7997 30.9578 70.7401 31.206 70.6442C31.457 70.5569 31.6937 70.4325 31.908 70.2752C31.6438 70.2968 31.3841 70.3564 31.137 70.4522ZM28.056 63.3932C27.805 63.483 27.5678 63.6072 27.351 63.7622C27.6161 63.7407 27.8768 63.6811 28.125 63.5852C28.376 63.4979 28.6127 63.3735 28.827 63.2162C28.5628 63.2378 28.3031 63.2974 28.056 63.3932ZM30.963 53.9162C30.7133 54.0067 30.4771 54.1308 30.261 54.2852C30.7937 54.2376 31.3041 54.0492 31.74 53.7392C31.4739 53.7608 31.2122 53.8204 30.963 53.9162Z" fill="black"/>
<path d="M29.442 55.2901C31.689 59.5471 36.261 67.2901 39.642 67.8901C43.218 68.5141 48.366 65.0791 50.529 64.0741C51.429 63.6481 47.142 57.6481 46.08 57.8551C45.018 58.0621 41.655 60.3841 40.848 60.3871C40.041 60.3901 35.481 55.4371 32.247 52.7461C28.44 49.5691 27.618 51.8341 29.442 55.2901Z" fill="#EB9481"/>
<path d="M51.102 52.2002C51.3305 52.2799 51.5296 52.4269 51.6731 52.6218C51.8165 52.8166 51.8977 53.0504 51.906 53.2922C52.305 53.183 52.7295 53.217 53.106 53.3882C53.751 53.7212 53.514 54.8882 53.514 54.8882C53.9488 54.8612 54.3815 54.9658 54.756 55.1882C55.341 55.5662 55.269 56.7692 55.269 56.7692C55.6822 56.9666 56.0103 57.3064 56.193 57.7262C56.64 58.8632 55.524 60.3632 54.828 61.3262C54.132 62.2892 50.4 64.3982 49.848 64.3982L44.598 59.1542C44.598 59.1542 45.447 56.2472 47.418 54.1622C48.234 53.2982 50.211 51.9392 51.102 52.2002Z" fill="#EB9481"/>
<path d="M51.7741 53.2683C50.6761 53.9643 49.8451 54.9483 48.9601 55.8813C48.9391 55.9023 48.9601 55.9323 48.9931 55.9113C49.8631 54.9723 50.9071 54.2193 51.8131 53.3163C51.8401 53.2923 51.8041 53.2503 51.7741 53.2683Z" fill="#263238"/>
<path d="M53.4 54.8462C53.1666 55.0285 52.9579 55.2403 52.779 55.4762C52.572 55.7162 52.374 55.9562 52.179 56.2022C51.779 56.6902 51.398 57.1902 51.036 57.7022C51.021 57.7232 51.036 57.7562 51.069 57.7322C51.462 57.2432 51.861 56.7632 52.269 56.2922C52.476 56.0552 52.686 55.8212 52.896 55.5902C53.1082 55.3833 53.2973 55.1539 53.46 54.9062C53.464 54.8978 53.4653 54.8884 53.4637 54.8792C53.4622 54.87 53.4578 54.8616 53.4512 54.855C53.4446 54.8484 53.4362 54.844 53.427 54.8424C53.4178 54.8409 53.4084 54.8422 53.4 54.8462Z" fill="#263238"/>
<path d="M55.245 56.7901C55.0367 56.9592 54.8582 57.162 54.717 57.3901L54.189 58.0681C53.835 58.5181 53.481 58.9681 53.109 59.4061C53.091 59.4271 53.124 59.4601 53.142 59.4361C53.52 58.9951 53.904 58.5571 54.279 58.1101C54.462 57.8911 54.645 57.6721 54.825 57.4501C55.0103 57.2657 55.1608 57.0492 55.269 56.8111C55.2718 56.8079 55.2732 56.8038 55.2729 56.7996C55.2726 56.7953 55.2707 56.7914 55.2675 56.7886C55.2643 56.7858 55.2601 56.7844 55.2559 56.7847C55.2517 56.785 55.2478 56.7869 55.245 56.7901Z" fill="#263238"/>
<path d="M44.463 58.3353L48.594 66.1353C48.594 66.1353 41.817 69.4983 38.448 67.8843C35.079 66.2703 30.381 58.2573 28.926 54.6663C27.471 51.0753 29.118 49.8993 32.13 52.4523C35.142 55.0053 40.446 59.9043 40.662 60.0123C40.878 60.1203 44.463 58.3353 44.463 58.3353Z" fill="#6E57FC"/>
<path opacity="0.1" d="M30.963 53.9163C30.7133 54.0067 30.4771 54.1309 30.261 54.2853C30.7937 54.2377 31.3041 54.0492 31.74 53.7393C31.4739 53.7608 31.2122 53.8204 30.963 53.9163ZM40.581 65.0763C40.3295 65.1648 40.0921 65.2891 39.876 65.4453C40.4088 65.3961 40.9191 65.2066 41.355 64.8963C41.0897 64.9188 40.829 64.9794 40.581 65.0763ZM44.874 59.1003C44.766 59.1273 44.664 59.1633 44.574 59.1993C44.3225 59.2878 44.0851 59.4121 43.869 59.5683C44.1351 59.5467 44.3968 59.4871 44.646 59.3913C44.7554 59.3499 44.8625 59.3028 44.967 59.2503L44.874 59.1003ZM36.867 59.4003C36.7766 59.1496 36.6524 58.9124 36.498 58.6953C36.548 59.2274 36.7362 59.7373 37.044 60.1743C37.0224 59.9091 36.9628 59.6484 36.867 59.4003ZM38.151 67.4583C38.0605 67.2085 37.9364 66.9724 37.782 66.7563C37.8039 67.0214 37.8635 67.282 37.959 67.5303L38.004 67.6413C38.088 67.6923 38.172 67.7403 38.253 67.7823C38.223 67.6773 38.187 67.5723 38.151 67.4643V67.4583ZM43.851 62.8383C43.7612 62.5883 43.637 62.352 43.482 62.1363C43.5039 62.4014 43.5635 62.662 43.659 62.9103C43.7488 63.1602 43.873 63.3965 44.028 63.6123C44.003 63.3487 43.9403 63.0901 43.842 62.8443L43.851 62.8383ZM36.651 63.6843C36.4104 63.5705 36.1548 63.4917 35.892 63.4503C36.0962 63.6212 36.3234 63.7625 36.567 63.8703C36.8074 63.985 37.063 64.0648 37.326 64.1073C37.1141 63.9356 36.8787 63.7952 36.627 63.6903L36.651 63.6843ZM48.051 65.0463C47.943 64.9803 47.832 64.9233 47.718 64.8663C47.4773 64.7535 47.2217 64.6757 46.959 64.6353C47.164 64.8051 47.391 64.9464 47.634 65.0553C47.8025 65.1325 47.9771 65.1957 48.156 65.2443L48.051 65.0463ZM32.715 57.6423C32.4763 57.5258 32.2215 57.4459 31.959 57.4053C32.1609 57.5786 32.3874 57.7211 32.631 57.8283C32.8717 57.9416 33.1272 58.0204 33.39 58.0623C33.1764 57.889 32.9377 57.7494 32.682 57.6483L32.715 57.6423ZM33.771 61.8753C33.6572 62.1158 33.5784 62.3714 33.537 62.6343C33.7094 62.4316 33.8519 62.2053 33.96 61.9623C34.0729 61.7214 34.1517 61.4659 34.194 61.2033C34.0094 61.4056 33.8558 61.634 33.738 61.8813L33.771 61.8753ZM40.593 61.5933C40.477 61.8332 40.3971 62.0889 40.356 62.3523C40.6973 61.9415 40.9239 61.4478 41.013 60.9213C40.8283 61.1228 40.6755 61.3515 40.56 61.5993L40.593 61.5933ZM43.413 66.8223C43.3004 67.0635 43.2207 67.3188 43.176 67.5813C43.3505 67.3802 43.4931 67.1535 43.599 66.9093C43.714 66.6692 43.7928 66.4134 43.833 66.1503C43.6518 66.3546 43.4994 66.5827 43.38 66.8283L43.413 66.8223Z" fill="black"/>
<path d="M44.79 62.8262C44.514 62.2622 44.223 61.7042 43.935 61.1492C43.794 60.8792 43.659 60.6122 43.509 60.3482C43.359 60.0842 43.209 59.7632 43.032 59.4932C43.032 59.4722 42.993 59.4932 42.999 59.5082C43.107 59.8082 43.263 60.1082 43.389 60.4082C43.515 60.7082 43.638 60.9572 43.767 61.2302C44.031 61.7972 44.298 62.3672 44.577 62.9282C45.138 64.0562 45.726 65.1632 46.332 66.2642C46.3329 66.2677 46.3346 66.2709 46.3369 66.2736C46.3392 66.2764 46.3421 66.2786 46.3453 66.28C46.3486 66.2815 46.3521 66.2822 46.3557 66.2822C46.3593 66.2821 46.3628 66.2812 46.366 66.2796C46.3692 66.278 46.372 66.2758 46.3742 66.2729C46.3764 66.2701 46.3779 66.2668 46.3787 66.2634C46.3795 66.2599 46.3795 66.2562 46.3786 66.2528C46.3778 66.2493 46.3763 66.246 46.374 66.2432C45.867 65.1002 45.345 63.9542 44.79 62.8262Z" fill="#263238"/>
<path d="M33.033 62.1C32.64 61.449 31.17 58.836 30.906 58.35C30.375 57.366 29.853 56.376 29.322 55.395H29.304C29.547 56.022 29.817 56.637 30.108 57.243L30.027 57.129C29.856 56.898 29.676 56.673 29.496 56.448C29.496 56.433 29.463 56.448 29.472 56.466C29.634 56.712 29.79 56.958 29.961 57.198C30.069 57.348 30.186 57.498 30.297 57.639C30.429 57.903 30.564 58.161 30.702 58.422C30.969 58.92 32.421 61.536 32.994 62.115C33.015 62.148 33.048 62.127 33.033 62.1Z" fill="#263238"/>
<path d="M37.26 47.0791C38.46 46.8691 40.122 45.9631 41.016 46.0981C41.237 46.1237 41.4439 46.2198 41.606 46.3721C41.7682 46.5245 41.8769 46.7251 41.916 46.9441C41.916 46.9441 42.585 46.1971 43.377 46.4551C43.785 46.5871 43.932 47.3551 43.932 47.3551C44.0931 47.1954 44.2949 47.0829 44.5155 47.03C44.7361 46.9771 44.967 46.9858 45.183 47.0551C45.732 47.2711 45.783 48.0061 45.783 48.0061C45.783 48.0061 46.578 47.7061 47.067 48.1051C48.06 48.9151 46.716 53.8051 44.709 54.0631C43.773 54.1831 44.166 53.0071 44.166 53.0071C44.166 53.0071 43.191 54.5611 42.177 54.3091C41.163 54.0571 41.766 52.5601 41.766 52.5601C41.766 52.5601 40.809 54.0601 39.783 53.6911C38.757 53.3221 39.6 51.9001 39.6 51.9001C39.6 51.9001 38.565 52.7821 37.842 52.3231C36.642 51.5611 38.856 49.9531 38.895 48.8101L37.287 47.7301L37.26 47.0791Z" fill="#EB9481"/>
<path d="M39.069 46.524C37.917 46.623 36.969 44.976 35.865 44.913C34.365 44.829 35.313 46.818 37.281 47.742L38.937 48.192L39.069 46.524Z" fill="#EB9481"/>
<path d="M43.95 47.3312C43.95 47.3102 43.986 47.3162 43.986 47.3312C43.9149 49.2963 43.1434 51.1711 41.811 52.6172C41.763 52.6652 41.673 52.6622 41.724 52.6172C42.582 51.6002 43.653 48.9422 43.95 47.3312Z" fill="#263238"/>
<path d="M39.459 51.9843C40.749 50.5563 41.451 48.8613 41.922 47.0163C41.922 46.9923 41.961 47.0163 41.961 47.0163C41.961 47.9823 41.553 49.1163 41.148 49.9893C40.7888 50.7977 40.224 51.498 39.51 52.0203C39.48 52.0503 39.432 52.0143 39.459 51.9843Z" fill="#263238"/>
<path d="M30.177 50.9762C28.929 49.8422 25.053 48.5162 23.19 49.1762C20.838 50.0252 17.031 57.3932 17.736 58.0622C18.996 59.2622 25.206 55.9622 26.778 54.3782C28.35 52.7942 30.177 50.9762 30.177 50.9762Z" fill="#6E57FC"/>
<path opacity="0.1" d="M24.444 49.0051C24.324 49.0647 24.2095 49.135 24.102 49.2151C24.3662 49.1936 24.6259 49.134 24.873 49.0381H24.906C24.75 49.0111 24.6 49.0051 24.444 49.0051ZM21.615 50.8051C21.579 50.7151 21.543 50.6251 21.501 50.5381L21.363 50.6971C21.381 50.7571 21.402 50.8171 21.423 50.8771C21.5123 51.1274 21.6365 51.3637 21.792 51.5791C21.7702 51.315 21.7106 51.0553 21.615 50.8081V50.8051ZM27.534 51.5431C27.4454 51.2926 27.3212 51.0562 27.165 50.8411C27.1866 51.1053 27.2462 51.365 27.342 51.6121C27.4306 51.8636 27.5549 52.101 27.711 52.3171C27.6892 52.053 27.6296 51.7933 27.534 51.5461V51.5431ZM19.653 54.9001C19.4125 54.7864 19.1569 54.7076 18.894 54.6661C19.0967 54.8385 19.323 54.981 19.566 55.0891C19.8069 55.2021 20.0624 55.2808 20.325 55.3231C20.1224 55.1507 19.8961 55.0083 19.653 54.9001ZM23.445 53.3371C23.3301 53.5772 23.2512 53.833 23.211 54.0961C23.3816 53.8916 23.5229 53.6645 23.631 53.4211C23.7462 53.1819 23.826 52.9273 23.868 52.6651C23.6966 52.864 23.5542 53.0863 23.445 53.3251V53.3371Z" fill="black"/>
<path d="M28.5661 53.0613C28.2391 53.2683 27.9061 53.4693 27.5821 53.6793C28.0591 53.2233 28.5391 52.7793 29.0011 52.2993C29.0011 52.2813 29.0011 52.2543 28.9741 52.2693C28.3842 52.718 27.8194 53.1988 27.2821 53.7093C26.7121 54.2073 26.1421 54.7083 25.5511 55.1793C24.967 55.6556 24.3483 56.0878 23.7001 56.4723C23.0076 56.8611 22.2877 57.199 21.5461 57.4833C21.1261 57.6453 20.7061 57.8013 20.2831 57.9483C19.8282 58.1044 19.3617 58.2248 18.8881 58.3083C18.7981 58.3083 18.8461 58.3593 18.8881 58.3563C19.2865 58.3135 19.6802 58.2341 20.0641 58.1193C20.4631 58.0053 20.8651 57.8913 21.2641 57.7713C22.0284 57.5533 22.7731 57.2713 23.4901 56.9283C24.8851 56.2353 26.0371 55.2123 27.1381 54.1263L27.2011 54.0633C27.3961 53.9373 27.5881 53.8053 27.7741 53.6673C28.0471 53.4663 28.3231 53.2803 28.6111 53.1003C28.6171 53.1003 28.5931 53.0463 28.5661 53.0613Z" fill="#263238"/>
<path d="M116.7 105.33C116.7 105.33 118.023 109.74 119.592 114.243C121.161 118.746 122.559 129.09 122.265 129.357C121.971 129.624 118.5 119.568 117.48 114.975C116.46 110.382 115.755 105.675 115.755 105.675L116.7 105.33Z" fill="#6E57FC"/>
<path d="M116.721 105.219L117.771 108.213L116.103 108.618L115.602 105.534L116.721 105.219Z" fill="#DBDBDB"/>
<path d="M116.724 105.219C116.841 104.839 116.866 104.437 116.797 104.046C116.729 103.655 116.568 103.286 116.328 102.969C115.599 101.928 115.812 101.118 115.812 101.118C115.812 101.118 113.934 103.518 115.602 105.534L116.724 105.219Z" fill="#455A64"/>
<path d="M115.827 100.998C115.923 101.151 115.728 101.898 116.079 102.498C116.43 103.098 114.708 103.974 114.849 103.083C115.011 102.075 115.653 100.719 115.827 100.998Z" fill="#6E57FC"/>
<path d="M124.926 107.91C124.926 107.91 123.648 111.48 122.163 115.11C120.678 118.74 119.082 127.191 119.31 127.41C119.538 127.629 122.841 119.523 123.867 115.788C124.893 112.053 125.7 108.225 125.7 108.225L124.926 107.91Z" fill="#A6A6A6"/>
<path d="M124.914 107.817L123.921 110.235L125.274 110.643L125.82 108.126L124.914 107.817Z" fill="#DBDBDB"/>
<path d="M124.911 107.82C125.055 105.828 126.636 104.22 126.636 104.22C126.636 104.22 127.278 106.557 125.82 108.138L124.911 107.82Z" fill="#455A64"/>
<path d="M120.996 103.23C120.996 103.23 121.5 106.989 122.196 110.853C122.892 114.717 122.685 123.312 122.412 123.492C122.139 123.672 120.612 115.041 120.384 111.174C120.156 107.307 120.186 103.374 120.186 103.374L120.996 103.23Z" fill="#37474F"/>
<path d="M121.026 103.143L121.494 105.714L120.084 105.828L120.075 103.254L121.026 103.143Z" fill="#DBDBDB"/>
<path d="M120.075 103.254C120.075 103.254 120.975 103.164 121.026 103.143C121.306 102.264 121.53 101.368 121.695 100.461C121.641 100.389 118.659 100.809 118.674 101.088C118.689 101.367 120.075 103.254 120.075 103.254Z" fill="#455A64"/>
<path d="M124.293 117.462H116.406C115.68 117.462 115.092 118.05 115.092 118.776V129.387C115.092 130.113 115.68 130.701 116.406 130.701H124.293C125.019 130.701 125.607 130.113 125.607 129.387V118.776C125.607 118.05 125.019 117.462 124.293 117.462Z" fill="#455A64"/>
<path d="M124.278 115.371H116.418V117.462H124.278V115.371Z" fill="#455A64"/>
</svg>
