<svg author="Cristian Gavilan" width="1136" height="815" viewBox="0 0 1136 815" fill="none" xmlns="http://www.w3.org/2000/svg">
<style>
@-webkit-keyframes move1 {
  0% {
    -webkit-transform: translateY(-110%);
    transform: translateY(-110%);
  }
  100% {
    -webkit-transform: translateY(110%);
    transform: translateY(110%);
  }
}
@keyframes move1 {
  0% {
    -webkit-transform: translateY(-110%);
    transform: translateY(-110%);
    opacity: 0;
  }
  30% {
      opacity: 1;
  }
  70% {
      opacity: 1;
  }
  100% {
    -webkit-transform: translateY(110%);
    transform: translateY(110%);
    opacity: 0;
  }
}

.move1 {
    -webkit-animation-name: move1;
    animation-name: move1;

    -webkit-transform-origin: center center;
    transform-origin: center center;
    
    -webkit-animation-duration: 3s;
    animation-duration: 3s;

    -webkit-animation-delay: 1.5s;
    animation-delay: 1.5s;
    
    -webkit-animation-timing-function: linear;
    animation-timing-function: linear;

    -webkit-animation-iteration-count: infinite;
    animation-iteration-count: infinite;
    opacity: 0;
}    
.move2 {
     -webkit-animation-name: move1;
    animation-name: move1;

    -webkit-transform-origin: center center;
    transform-origin: center center;
    
    -webkit-animation-duration: 3s;
    animation-duration: 3s;

    -webkit-animation-timing-function: linear;
    animation-timing-function: linear;

    -webkit-animation-iteration-count: infinite;
    animation-iteration-count: infinite;
}    
</style>
<g id="undraw_Outer_space_drqu" clip-path="url(#clip0)">
<path id="space" d="M991 708.36C981.777 709.153 972.498 709.029 963.3 707.99C862.18 696.81 724.48 699.99 612.23 769.54C456.99 865.71 213.7 783.38 106.38 738.59C24.38 704.38 -18.19 620.59 7.38004 541.94C7.74004 540.83 8.11004 539.72 8.50004 538.61C24.59 491.87 56.35 455.29 95.68 435.9C129.96 419 180.01 383.71 202.28 315.9C211.48 287.9 224.1 261.56 240.49 238.6C284.38 177.11 376.26 85.54 534.28 86.11C561.986 86.2442 589.484 90.8987 615.69 99.89C673.42 119.56 725.56 159.55 765.32 214.99C790.69 250.35 828.71 283.22 883.14 285.9C958.68 289.64 1030.77 324.81 1084.85 387.4C1086.41 389.2 1087.95 391.01 1089.49 392.84C1185.78 507.55 1118.9 697.18 991 708.36Z" fill="#6E57FC"/>
<g id="planeta" opacity="0.7">
<path id="Vector" opacity="0.7" d="M278.46 697.11C286.082 697.11 292.26 690.932 292.26 683.31C292.26 675.688 286.082 669.51 278.46 669.51C270.838 669.51 264.66 675.688 264.66 683.31C264.66 690.932 270.838 697.11 278.46 697.11Z" fill="url(#paint0_linear)"/>
</g>
<path id="planeta_2" opacity="0.2" d="M277.46 696.49C284.739 696.49 290.64 690.589 290.64 683.31C290.64 676.031 284.739 670.13 277.46 670.13C270.181 670.13 264.28 676.031 264.28 683.31C264.28 690.589 270.181 696.49 277.46 696.49Z" fill="black"/>
<path id="star" class="move1" d="M203.11 419.24C205.927 419.24 208.21 416.957 208.21 414.14C208.21 411.323 205.927 409.04 203.11 409.04C200.293 409.04 198.01 411.323 198.01 414.14C198.01 416.957 200.293 419.24 203.11 419.24Z" fill="white"/>
<path id="star_2" class="move2" d="M567.11 715.24C569.927 715.24 572.21 712.957 572.21 710.14C572.21 707.323 569.927 705.04 567.11 705.04C564.293 705.04 562.01 707.323 562.01 710.14C562.01 712.957 564.293 715.24 567.11 715.24Z" fill="white"/>
<path id="star_3" class="move1" d="M352.11 738.99C353.684 738.99 354.96 737.714 354.96 736.14C354.96 734.566 353.684 733.29 352.11 733.29C350.536 733.29 349.26 734.566 349.26 736.14C349.26 737.714 350.536 738.99 352.11 738.99Z" fill="white"/>
<path id="star_4" class="move2" d="M983.11 600.99C984.684 600.99 985.96 599.714 985.96 598.14C985.96 596.566 984.684 595.29 983.11 595.29C981.536 595.29 980.26 596.566 980.26 598.14C980.26 599.714 981.536 600.99 983.11 600.99Z" fill="white"/>
<path id="star_5" class="move1" d="M820.11 344.99C821.684 344.99 822.96 343.714 822.96 342.14C822.96 340.566 821.684 339.29 820.11 339.29C818.536 339.29 817.26 340.566 817.26 342.14C817.26 343.714 818.536 344.99 820.11 344.99Z" fill="white"/>
<path id="star_6" class="move2" d="M1051.11 469.99C1052.68 469.99 1053.96 468.714 1053.96 467.14C1053.96 465.566 1052.68 464.29 1051.11 464.29C1049.54 464.29 1048.26 465.566 1048.26 467.14C1048.26 468.714 1049.54 469.99 1051.11 469.99Z" fill="white"/>
<path id="star_7" class="move1" d="M293.11 252.24C295.927 252.24 298.21 249.957 298.21 247.14C298.21 244.323 295.927 242.04 293.11 242.04C290.293 242.04 288.01 244.323 288.01 247.14C288.01 249.957 290.293 252.24 293.11 252.24Z" fill="white"/>
<path id="star_8" class="move2" d="M152.94 592.21H148.4V587.67H146.55V592.21H142.01V594.06H146.55V598.59H148.4V594.06H152.94V592.21Z" fill="white"/>
<path id="star_9" class="move1" d="M266.94 590.21H262.4V585.67H260.55V590.21H256.01V592.06H260.55V596.59H262.4V592.06H266.94V590.21Z" fill="white"/>
<path id="star_10" class="move2" d="M429.94 682.21H425.4V677.67H423.55V682.21H419.01V684.06H423.55V688.59H425.4V684.06H429.94V682.21Z" fill="white"/>
<path id="star_11" class="move1" d="M656.97 130.71H654.9V128.64H654.06V130.71H651.99V131.55H654.06V133.62H654.9V131.55H656.97V130.71Z" fill="white"/>
<path id="star_12" class="move2" d="M951.97 320.71H949.9V318.64H949.06V320.71H946.99V321.55H949.06V323.62H949.9V321.55H951.97V320.71Z" fill="white"/>
<path id="star_13" class="move1" d="M777.97 444.71H775.9V442.64H775.06V444.71H772.99V445.55H775.06V447.62H775.9V445.55H777.97V444.71Z" fill="white"/>
<path id="star_14" class="move2" d="M69.97 522.71H67.9V520.64H67.06V522.71H64.99V523.55H67.06V525.62H67.9V523.55H69.97V522.71Z" fill="white"/>
<path id="star_15" class="move1" d="M154.97 692.71H152.9V690.64H152.06V692.71H149.99V693.55H152.06V695.62H152.9V693.55H154.97V692.71Z" fill="white"/>
<path id="star_16" class="move2" d="M421.97 155.71H419.9V153.64H419.06V155.71H416.99V156.55H419.06V158.62H419.9V156.55H421.97V155.71Z" fill="white"/>
<path id="star_17" class="move1" d="M295.97 454.71H293.9V452.64H293.06V454.71H290.99V455.55H293.06V457.62H293.9V455.55H295.97V454.71Z" fill="white"/>
<path id="star_18" class="move2" d="M322.97 368.71H320.9V366.64H320.06V368.71H317.99V369.55H320.06V371.62H320.9V369.55H322.97V368.71Z" fill="white"/>
<g id="planeta_3" opacity="0.7">
<path id="Vector_2" opacity="0.7" d="M748.15 567.17C754.512 567.17 759.67 562.012 759.67 555.65C759.67 549.288 754.512 544.13 748.15 544.13C741.788 544.13 736.63 549.288 736.63 555.65C736.63 562.012 741.788 567.17 748.15 567.17Z" fill="url(#paint1_linear)"/>
<path id="planeta_4" opacity="0.2" d="M748.15 566.32C754.043 566.32 758.82 561.543 758.82 555.65C758.82 549.757 754.043 544.98 748.15 544.98C742.257 544.98 737.48 549.757 737.48 555.65C737.48 561.543 742.257 566.32 748.15 566.32Z" fill="black"/>
</g>
<path id="planeta_5" opacity="0.2" d="M776.88 642.69C783.469 642.69 788.81 637.349 788.81 630.76C788.81 624.171 783.469 618.83 776.88 618.83C770.291 618.83 764.95 624.171 764.95 630.76C764.95 637.349 770.291 642.69 776.88 642.69Z" fill="black"/>
<g id="planeta_6">
<path id="Vector_3" d="M761.04 311.33C758.263 307.683 754.789 304.624 750.82 302.33V302.33C746.26 299.7 741.156 298.155 735.903 297.813C730.65 297.47 725.389 298.341 720.526 300.357C715.663 302.372 711.329 305.479 707.858 309.437C704.388 313.396 701.874 318.099 700.511 323.184C699.149 328.268 698.974 333.598 700 338.761C701.026 343.924 703.225 348.783 706.429 352.96C709.632 357.137 713.753 360.522 718.473 362.852C723.193 365.183 728.386 366.397 733.65 366.4C734.38 366.4 735.11 366.4 735.82 366.32C742.007 365.93 747.973 363.871 753.083 360.362C758.194 356.854 762.259 352.026 764.846 346.393C767.434 340.76 768.447 334.531 767.779 328.368C767.11 322.205 764.785 316.338 761.05 311.39L761.04 311.33Z" fill="url(#paint2_linear)"/>
<path id="Vector_4" opacity="0.2" d="M766.09 332.01C766.089 340.261 762.945 348.201 757.298 354.216C751.65 360.231 743.924 363.869 735.69 364.39C735.02 364.39 734.33 364.46 733.64 364.46C728.659 364.463 723.745 363.32 719.277 361.119C714.809 358.918 710.907 355.718 707.874 351.767C704.841 347.817 702.757 343.221 701.785 338.336C700.813 333.451 700.978 328.408 702.267 323.597C703.556 318.786 705.936 314.337 709.22 310.593C712.505 306.849 716.607 303.911 721.21 302.006C725.812 300.102 730.791 299.282 735.761 299.611C740.731 299.939 745.558 301.407 749.87 303.9V303.9C753.629 306.081 756.913 308.991 759.53 312.46V312.46C763.794 318.085 766.098 324.952 766.09 332.01Z" fill="black"/>
<path id="Vector_5" opacity="0.1" d="M725.65 311.42C723.972 312.142 722.354 312.995 720.81 313.97C719.779 314.533 718.893 315.327 718.22 316.29C717.886 316.775 717.703 317.347 717.692 317.936C717.681 318.525 717.844 319.103 718.16 319.6C718.95 320.68 720.47 320.84 721.81 320.92C723.217 321.099 724.647 320.956 725.99 320.5C726.897 320.051 727.722 319.453 728.43 318.73L731.22 316.2C732.22 315.32 733.22 314.11 732.83 312.87C732.599 312.427 732.262 312.049 731.848 311.769C731.434 311.49 730.957 311.318 730.46 311.27C728.055 310.801 725.561 311.24 723.46 312.5" fill="black"/>
<g id="Group" opacity="0.1">
<path id="Vector_6" opacity="0.1" d="M714 346.53C714.944 346.53 715.71 345.764 715.71 344.82C715.71 343.876 714.944 343.11 714 343.11C713.056 343.11 712.29 343.876 712.29 344.82C712.29 345.764 713.056 346.53 714 346.53Z" fill="black"/>
</g>
<g id="Group_2" opacity="0.1">
<path id="Vector_7" opacity="0.1" d="M748.72 340.26C752.177 340.26 754.98 337.457 754.98 334C754.98 330.543 752.177 327.74 748.72 327.74C745.263 327.74 742.46 330.543 742.46 334C742.46 337.457 745.263 340.26 748.72 340.26Z" fill="black"/>
</g>
<g id="Group_3" opacity="0.1">
<path id="Vector_8" opacity="0.1" d="M759.59 312.46C759.572 314.097 759.084 315.694 758.184 317.061C757.284 318.428 756.01 319.507 754.514 320.171C753.017 320.835 751.362 321.055 749.745 320.804C748.127 320.554 746.616 319.844 745.39 318.759C744.164 317.675 743.276 316.26 742.832 314.685C742.387 313.11 742.404 311.44 742.882 309.875C743.359 308.309 744.276 306.913 745.524 305.854C746.772 304.795 748.298 304.117 749.92 303.9V303.9C753.682 306.08 756.97 308.99 759.59 312.46Z" fill="black"/>
</g>
<g id="Group_4" opacity="0.1">
<path id="Vector_9" opacity="0.1" d="M760.17 350.69C757.379 354.664 753.729 357.958 749.491 360.33C745.254 362.701 740.537 364.089 735.69 364.39C735.69 363.94 735.63 363.49 735.63 363.03C735.633 360.182 736.426 357.391 737.922 354.968C739.417 352.544 741.556 350.583 744.101 349.304C746.645 348.025 749.494 347.477 752.332 347.722C755.169 347.966 757.882 348.994 760.17 350.69V350.69Z" fill="black"/>
</g>
</g>
<g id="planeta_7">
<path id="Vector_10" d="M317.76 496.58C315.824 494.02 313.396 491.871 310.62 490.26V490.26C307.433 488.391 303.858 487.282 300.173 487.021C296.488 486.759 292.792 487.352 289.374 488.753C285.955 490.154 282.906 492.326 280.464 495.098C278.023 497.871 276.254 501.17 275.296 504.738C274.338 508.306 274.217 512.047 274.942 515.67C275.667 519.292 277.218 522.699 279.476 525.624C281.733 528.548 284.635 530.912 287.955 532.532C291.276 534.151 294.926 534.982 298.62 534.96C299.13 534.96 299.62 534.96 300.14 534.91C304.449 534.62 308.599 533.173 312.154 530.721C315.709 528.269 318.537 524.903 320.339 520.979C322.141 517.054 322.851 512.716 322.393 508.422C321.936 504.128 320.328 500.037 317.74 496.58H317.76Z" fill="url(#paint3_linear)"/>
<path id="Vector_11" opacity="0.2" d="M321.28 511.01C321.279 516.766 319.085 522.306 315.145 526.502C311.205 530.698 305.815 533.236 300.07 533.6C299.6 533.6 299.07 533.6 298.64 533.6C295.168 533.599 291.742 532.8 288.628 531.263C285.515 529.727 282.796 527.495 280.682 524.74C278.569 521.985 277.118 518.781 276.44 515.376C275.763 511.97 275.878 508.455 276.777 505.101C277.675 501.747 279.333 498.645 281.623 496.034C283.912 493.423 286.771 491.374 289.978 490.045C293.186 488.716 296.657 488.142 300.121 488.368C303.586 488.595 306.952 489.615 309.96 491.35V491.35C312.586 492.878 314.878 494.919 316.7 497.35C319.681 501.279 321.29 506.078 321.28 511.01V511.01Z" fill="black"/>
<path id="Vector_12" opacity="0.1" d="M293.06 496.65C291.891 497.148 290.764 497.74 289.69 498.42C288.974 498.819 288.356 499.373 287.88 500.04C287.658 500.384 287.54 500.785 287.54 501.195C287.54 501.605 287.658 502.006 287.88 502.35C288.212 502.678 288.611 502.929 289.049 503.088C289.488 503.247 289.955 503.309 290.42 503.27C291.403 503.397 292.401 503.298 293.34 502.98C293.976 502.666 294.554 502.247 295.05 501.74L296.99 499.98C297.67 499.36 298.41 498.52 298.11 497.66C297.957 497.345 297.724 497.076 297.435 496.88C297.145 496.683 296.809 496.566 296.46 496.54C294.786 496.212 293.05 496.519 291.59 497.4" fill="black"/>
<g id="Group_5" opacity="0.1">
<path id="Vector_13" opacity="0.1" d="M284.93 521.13C285.587 521.13 286.12 520.597 286.12 519.94C286.12 519.283 285.587 518.75 284.93 518.75C284.273 518.75 283.74 519.283 283.74 519.94C283.74 520.597 284.273 521.13 284.93 521.13Z" fill="black"/>
</g>
<g id="Group_6" opacity="0.1">
<path id="Vector_14" opacity="0.1" d="M309.16 516.77C311.574 516.77 313.53 514.814 313.53 512.4C313.53 509.987 311.574 508.03 309.16 508.03C306.747 508.03 304.79 509.987 304.79 512.4C304.79 514.814 306.747 516.77 309.16 516.77Z" fill="black"/>
</g>
<g id="Group_7" opacity="0.1">
<path id="Vector_15" opacity="0.1" d="M316.71 497.37C316.701 498.523 316.36 499.648 315.728 500.612C315.096 501.576 314.2 502.338 313.147 502.806C312.093 503.274 310.927 503.429 309.788 503.252C308.649 503.075 307.586 502.573 306.724 501.807C305.862 501.042 305.24 500.044 304.93 498.933C304.621 497.823 304.638 496.647 304.979 495.546C305.321 494.445 305.972 493.466 306.855 492.725C307.738 491.985 308.816 491.514 309.96 491.37C312.59 492.897 314.885 494.938 316.71 497.37V497.37Z" fill="black"/>
</g>
<g id="Group_8" opacity="0.1">
<path id="Vector_16" opacity="0.1" d="M317.15 524.04C315.202 526.812 312.656 529.111 309.699 530.766C306.743 532.421 303.452 533.389 300.07 533.6C300.07 533.29 300.07 532.97 300.07 532.6C300.072 530.613 300.625 528.666 301.669 526.975C302.712 525.284 304.204 523.916 305.979 523.024C307.754 522.131 309.742 521.749 311.721 521.919C313.701 522.09 315.594 522.807 317.19 523.99L317.15 524.04Z" fill="black"/>
</g>
</g>
<path id="star_19" class="move1" d="M954.9 430.07C955.916 430.07 956.74 429.246 956.74 428.23C956.74 427.214 955.916 426.39 954.9 426.39C953.884 426.39 953.06 427.214 953.06 428.23C953.06 429.246 953.884 430.07 954.9 430.07Z" fill="white"/>
<g id="nave">
<g id="Group_9" opacity="0.7">
<path id="Vector_17" opacity="0.7" d="M669.97 307.03C670.052 281.967 664.047 257.259 652.47 235.03C646.98 224.59 641.97 218.11 638.11 214.12C636.636 212.562 634.71 211.506 632.604 211.101C630.497 210.696 628.317 210.961 626.37 211.86C624.813 212.412 623.406 213.32 622.26 214.51C617.05 219.91 612.34 227.05 608.26 234.64C596.088 257.399 589.774 282.831 589.89 308.64V324.12H579.96V144.11C579.96 106.39 571.52 69.18 554.96 36.18C547.12 20.54 539.96 10.82 534.47 4.84999C533.137 3.33067 531.496 2.11334 529.655 1.27936C527.814 0.445386 525.816 0.0139771 523.795 0.0139771C521.774 0.0139771 519.776 0.445386 517.935 1.27936C516.094 2.11334 514.453 3.33067 513.12 4.84999C505.68 12.94 498.96 23.64 493.12 35.01C475.73 68.73 466.9 107.01 466.9 145.83V324.05H458.32V307.82C458.429 282.027 452.116 256.613 439.95 233.87C435.84 226.28 431.13 219.14 425.95 213.74C424.445 212.142 422.468 211.068 420.309 210.676C418.149 210.283 415.921 210.593 413.95 211.56L414.31 211.75C413.054 212.309 411.917 213.103 410.96 214.09C407.11 218.09 402.1 224.56 396.61 235C385.033 257.229 379.028 281.937 379.11 307V576H409.75L406.37 598.11V664.24H431.43V598.11L428.08 575.99H458.28V330.99H466.86V574.93H491.33L487.82 598.11V664.24H512.88V598.11L509.37 574.9H542.37L538.84 598.11V664.24H563.9V598.11L560.39 574.9H579.93V331.02H589.86V576.39H597.91V576.02H624.53L621.19 598.11V664.24H646.25V598.11L642.9 575.99H669.97V307.03Z" fill="url(#paint4_linear)"/>
</g>
<path id="Vector_18" d="M436.4 585.25H412.67L416.91 556.44H432.16L436.4 585.25Z" fill="#535461"/>
<g id="Group_10" opacity="0.1">
<path id="Vector_19" opacity="0.1" d="M415.73 567.88H433.34L432.16 559.83H416.91L415.73 567.88Z" fill="black"/>
</g>
<path id="Vector_20" d="M639.75 585.25H616.03L620.26 556.44H635.52L639.75 585.25Z" fill="#535461"/>
<g id="Group_11" opacity="0.1">
<path id="Vector_21" opacity="0.1" d="M619.08 567.88H636.7L635.52 559.83H620.26L619.08 567.88Z" fill="black"/>
</g>
<path id="Vector_22" d="M513.5 585.25H489.78L494.01 556.44H509.27L513.5 585.25Z" fill="#535461"/>
<g id="Group_12" opacity="0.1">
<path id="Vector_23" opacity="0.1" d="M492.83 567.88H510.45L509.27 559.83H494.01L492.83 567.88Z" fill="black"/>
</g>
<path id="Vector_24" d="M561.8 585.25H538.08L542.31 556.44H557.56L561.8 585.25Z" fill="#535461"/>
<g id="Group_13" opacity="0.1">
<path id="Vector_25" opacity="0.1" d="M541.13 567.88H558.75L557.56 559.83H542.31L541.13 567.88Z" fill="black"/>
</g>
<path id="Vector_26" d="M605.86 318.35H436.4V325.13H605.86V318.35Z" fill="#535461"/>
<path id="Vector_27" d="M632.05 211.27C631.155 210.281 630.062 209.49 628.843 208.95C627.623 208.409 626.304 208.129 624.97 208.129C623.636 208.129 622.317 208.409 621.097 208.95C619.878 209.49 618.785 210.281 617.89 211.27C612.96 216.53 608.5 223.48 604.61 230.87C593.071 253.109 587.104 277.816 587.22 302.87V563.71H662.22V301.77C662.314 277.409 656.636 253.373 645.65 231.63C640.44 221.47 635.7 215.11 632.05 211.27Z" fill="#E0E0E0"/>
<path id="Vector_28" d="M416.98 211.27C417.875 210.281 418.968 209.49 420.187 208.95C421.407 208.409 422.726 208.129 424.06 208.129C425.394 208.129 426.713 208.409 427.933 208.95C429.152 209.49 430.245 210.281 431.14 211.27C436.08 216.53 440.53 223.48 444.43 230.87C455.964 253.11 461.932 277.817 461.82 302.87V563.71H386.82V301.77C386.726 277.409 392.404 253.373 403.39 231.63C408.59 221.47 413.33 215.11 416.98 211.27Z" fill="#E0E0E0"/>
<path id="Vector_29" d="M387.25 307.33L405.05 307.42V329.36H387.25V307.33Z" fill="#535461"/>
<path id="Vector_30" d="M444.02 307.33L461.82 307.42V329.36H444.02V307.33Z" fill="#535461"/>
<path id="Vector_31" d="M587.22 307.33L605.01 307.42V329.36H587.22V307.33Z" fill="#535461"/>
<path id="Vector_32" d="M643.99 307.33L661.78 307.42V329.36H643.99V307.33Z" fill="#535461"/>
<g id="Group_14" opacity="0.1">
<path id="Vector_33" opacity="0.1" d="M444.43 230.53C440.53 223.14 436.08 216.19 431.14 210.93C429.745 209.383 427.881 208.337 425.835 207.952C423.788 207.568 421.671 207.865 419.81 208.8C420.882 209.335 421.85 210.056 422.67 210.93C427.6 216.19 432.06 223.14 435.95 230.53C447.49 252.768 453.457 277.476 453.34 302.53V563.35H461.82V302.54C461.934 277.483 455.966 252.773 444.43 230.53V230.53Z" fill="black"/>
</g>
<g id="Group_15" opacity="0.1">
<path id="Vector_34" opacity="0.1" d="M611.39 231.25C615.28 223.86 619.74 216.91 624.67 211.65C625.592 210.654 626.708 209.857 627.95 209.31C626.117 208.508 624.079 208.302 622.123 208.722C620.167 209.142 618.392 210.166 617.05 211.65C612.11 216.91 607.65 223.86 603.76 231.25C592.226 253.49 586.258 278.197 586.37 303.25V564.11H594V303.27C593.88 278.209 599.848 253.495 611.39 231.25V231.25Z" fill="black"/>
</g>
<path id="Vector_35" d="M424.86 649.65H424.21C421.149 649.65 418.214 648.434 416.05 646.27C413.886 644.106 412.67 641.171 412.67 638.11V585.25H436.4V638.11C436.4 641.171 435.184 644.106 433.02 646.27C430.856 648.434 427.921 649.65 424.86 649.65Z" fill="url(#paint5_linear)"/>
<path id="Vector_36" d="M501.97 649.65H501.31C498.251 649.647 495.319 648.43 493.156 646.266C490.994 644.103 489.78 641.169 489.78 638.11V585.25H513.5V638.11C513.5 641.169 512.286 644.103 510.124 646.266C507.962 648.43 505.029 649.647 501.97 649.65Z" fill="url(#paint6_linear)"/>
<path id="Vector_37" d="M550.26 649.65H549.59C546.535 649.642 543.607 648.423 541.449 646.259C539.292 644.096 538.08 641.165 538.08 638.11V585.25H561.8V638.11C561.8 641.171 560.584 644.106 558.42 646.27C556.256 648.434 553.321 649.65 550.26 649.65Z" fill="url(#paint7_linear)"/>
<path id="Vector_38" d="M628.22 649.65H627.59C626.073 649.653 624.57 649.356 623.168 648.777C621.765 648.199 620.491 647.349 619.417 646.277C618.343 645.205 617.492 643.932 616.91 642.531C616.329 641.129 616.03 639.627 616.03 638.11V585.25H639.75V638.11C639.75 641.169 638.536 644.103 636.374 646.266C634.212 648.43 631.279 649.647 628.22 649.65Z" fill="url(#paint8_linear)"/>
<path id="Vector_39" d="M533.93 6.74997C532.691 5.27576 531.144 4.09051 529.399 3.27736C527.653 2.4642 525.751 2.04285 523.825 2.04285C521.899 2.04285 519.997 2.4642 518.251 3.27736C516.506 4.09051 514.959 5.27576 513.72 6.74997C506.72 14.63 500.32 25.04 494.72 36.12C478.26 68.96 469.9 106.24 469.9 144.04V562.65H576.9V142.36C576.9 105.63 568.9 69.36 553.26 37.26C545.91 22.03 539.14 12.56 533.93 6.74997Z" fill="#EEEEEE"/>
<path id="Vector_40" d="M539.63 53.25H505.79C499.715 53.25 494.79 58.1749 494.79 64.25V67.84C494.79 73.9151 499.715 78.84 505.79 78.84H539.63C545.705 78.84 550.63 73.9151 550.63 67.84V64.25C550.63 58.1749 545.705 53.25 539.63 53.25Z" fill="#535461"/>
<g id="Group_16" opacity="0.1">
<path id="Vector_41" opacity="0.1" d="M576.39 158.35H470.48V162.46H576.39V158.35Z" fill="black"/>
</g>
</g>
</g>
<defs>
<linearGradient id="paint0_linear" x1="278.46" y1="697.11" x2="278.46" y2="669.52" gradientUnits="userSpaceOnUse">
<stop stop-color="#808080" stop-opacity="0.25"/>
<stop offset="0.54" stop-color="#808080" stop-opacity="0.12"/>
<stop offset="1" stop-color="#808080" stop-opacity="0.1"/>
</linearGradient>
<linearGradient id="paint1_linear" x1="17974" y1="13611.5" x2="17974" y2="13080.9" gradientUnits="userSpaceOnUse">
<stop stop-color="#808080" stop-opacity="0.25"/>
<stop offset="0.54" stop-color="#808080" stop-opacity="0.12"/>
<stop offset="1" stop-color="#808080" stop-opacity="0.1"/>
</linearGradient>
<linearGradient id="paint2_linear" x1="53279.2" y1="28395.5" x2="53279.2" y2="23681.3" gradientUnits="userSpaceOnUse">
<stop stop-color="#808080" stop-opacity="0.25"/>
<stop offset="0.54" stop-color="#808080" stop-opacity="0.12"/>
<stop offset="1" stop-color="#808080" stop-opacity="0.1"/>
</linearGradient>
<linearGradient id="paint3_linear" x1="16182.4" y1="28223.7" x2="16182.4" y2="25924.1" gradientUnits="userSpaceOnUse">
<stop stop-color="#808080" stop-opacity="0.25"/>
<stop offset="0.54" stop-color="#808080" stop-opacity="0.12"/>
<stop offset="1" stop-color="#808080" stop-opacity="0.1"/>
</linearGradient>
<linearGradient id="paint4_linear" x1="162369" y1="469714" x2="162369" y2="28488.7" gradientUnits="userSpaceOnUse">
<stop stop-color="#808080" stop-opacity="0.25"/>
<stop offset="0.54" stop-color="#808080" stop-opacity="0.12"/>
<stop offset="1" stop-color="#808080" stop-opacity="0.1"/>
</linearGradient>
<linearGradient id="paint5_linear" x1="424.54" y1="585.25" x2="424.54" y2="649.65" gradientUnits="userSpaceOnUse">
<stop stop-color="#E0E0E0"/>
<stop offset="0.31" stop-color="#FCCC63"/>
<stop offset="0.77" stop-color="#F55F44"/>
</linearGradient>
<linearGradient id="paint6_linear" x1="13157.4" y1="41037.4" x2="13157.4" y2="45184.8" gradientUnits="userSpaceOnUse">
<stop stop-color="#E0E0E0"/>
<stop offset="0.31" stop-color="#FCCC63"/>
<stop offset="0.77" stop-color="#F55F44"/>
</linearGradient>
<linearGradient id="paint7_linear" x1="14351.4" y1="41037.4" x2="14351.4" y2="45184.8" gradientUnits="userSpaceOnUse">
<stop stop-color="#E0E0E0"/>
<stop offset="0.31" stop-color="#FCCC63"/>
<stop offset="0.77" stop-color="#F55F44"/>
</linearGradient>
<linearGradient id="paint8_linear" x1="16278.3" y1="41037.5" x2="16278.3" y2="45184.8" gradientUnits="userSpaceOnUse">
<stop stop-color="#E0E0E0"/>
<stop offset="0.31" stop-color="#FCCC63"/>
<stop offset="0.77" stop-color="#F55F44"/>
</linearGradient>
<clipPath id="clip0">
<rect width="1135.18" height="814.22" fill="white"/>
</clipPath>
</defs>
</svg>
