<svg author="Cristian Gavilan" width="1064" height="673" viewBox="0 0 1064 673" fill="none" xmlns="http://www.w3.org/2000/svg">
<style>
@-webkit-keyframes move1 {
  0% {
    -webkit-transform: translateX(-110%);
    transform: translateX(-110%);
  }
  100% {
    -webkit-transform: translateX(110%);
    transform: translateX(110%);
  }
}
@keyframes move1 {
  0% {
    -webkit-transform: translateX(-110%);
    transform: translateX(-110%);
    opacity: 0;
  }
  30% {
      opacity: 1;
  }
  70% {
      opacity: 1;
  }
  100% {
    -webkit-transform: translateX(110%);
    transform: translateX(110%);
    opacity: 0;
  }
}

.move1 {
    -webkit-animation-name: move1;
    animation-name: move1;

    -webkit-transform-origin: center center;
    transform-origin: center center;
    
    -webkit-animation-duration: 3s;
    animation-duration: 3s;

    -webkit-animation-delay: 1.5s;
    animation-delay: 1.5s;
    
    -webkit-animation-timing-function: linear;
    animation-timing-function: linear;

    -webkit-animation-iteration-count: infinite;
    animation-iteration-count: infinite;
    opacity: 0;
}    
.move2 {
     -webkit-animation-name: move1;
    animation-name: move1;

    -webkit-transform-origin: center center;
    transform-origin: center center;
    
    -webkit-animation-duration: 3s;
    animation-duration: 3s;

    -webkit-animation-timing-function: linear;
    animation-timing-function: linear;

    -webkit-animation-iteration-count: infinite;
    animation-iteration-count: infinite;
}    
</style>
<g id="undraw_aircraft" clip-path="url(#clip0)">
<g id="avion">
<path id="Vector" d="M859.64 396.66C849.87 400.26 832.71 403.22 812.85 405.6C758.85 412.08 684.85 414.38 684.85 414.38C684.85 414.38 304.44 445.93 19.33 328.59C19.33 328.59 -22.14 306.85 16.33 277.59C22.2539 273.218 28.5516 269.376 35.15 266.11L35.62 265.64C39.9958 261.596 44.7247 257.951 49.75 254.75C64.52 245.2 89.46 233.88 119.82 239.01L868.64 360.12C868.64 360.12 895.99 383.23 859.64 396.66Z" fill="#3F3D56"/>
<path id="Vector_2" d="M710.44 341.77L867.2 230.55L936.29 242.5L868.64 360.12C868.64 360.12 712.24 361.37 710.44 341.77Z" fill="#3F3D56"/>
<path id="Vector_3" d="M315.78 274.2L628.03 186.63L678.36 197.15L537.31 260.6L493.23 309.92L315.78 274.2Z" fill="#3F3D56"/>
<path id="Vector_4" d="M812.85 405.6C758.85 412.08 684.85 414.38 684.85 414.38C684.85 414.38 304.44 445.93 19.33 328.59C19.33 328.59 -22.14 306.85 16.33 277.59L16.46 278.13C16.46 278.13 77.98 319.71 371.92 354.42L812.85 405.6Z" fill="#6E57FC"/>
<path id="Vector_5" d="M762.66 403.2L902.26 460.2L937.33 456.31L853.83 393.55C853.83 393.55 752.83 372 762.66 403.2Z" fill="#3F3D56"/>
<path id="Vector_6" d="M67.08 284.22C60.42 284.33 45.16 273.16 35.67 265.64C40.0458 261.596 44.7746 257.951 49.8 254.75C57.45 260.62 71.06 270.12 78.63 269.75C89.56 269.3 77.11 284.04 67.08 284.22Z" fill="#6E57FC"/>
<path id="Vector_7" d="M701.29 600.23L611.66 604.92L359.66 435L312.88 403.45L290.16 388.12C332.79 352.12 506.72 401.77 506.72 401.77C510.05 404.58 511.11 409.25 510.96 414.41C510.67 424.07 506.13 435.41 504.38 439.49C503.96 440.49 503.7 441.02 503.7 441.02L701.29 600.23Z" fill="#3F3D56"/>
</g>
<g id="nube08" class="move2">
<path id="Vector_8" d="M406.11 512.13L390.56 521.97L399.98 504.84C397.313 502.712 394.012 501.533 390.6 501.49H390.35C389.272 501.511 388.193 501.431 387.13 501.25L381.87 504.59L384.12 500.49C380.394 499.182 377.174 496.733 374.92 493.49L365.51 499.49L371.45 488.67C365.95 482.06 358.53 478.01 350.36 478.01C340.57 478.01 331.85 483.83 326.22 492.91C324.55 495.629 322.19 497.857 319.38 499.368C316.569 500.879 313.409 501.618 310.22 501.51H309.7C298.89 501.51 290.13 513.76 290.13 528.88C290.13 544 298.89 556.25 309.7 556.25C312.075 556.242 314.413 555.655 316.51 554.54C320.191 552.754 324.215 551.789 328.305 551.709C332.394 551.63 336.453 552.439 340.2 554.08C343.369 555.494 346.8 556.225 350.27 556.225C353.74 556.225 357.171 555.494 360.34 554.08C364.056 552.469 368.075 551.676 372.124 551.754C376.173 551.831 380.158 552.778 383.81 554.53C385.894 555.618 388.209 556.19 390.56 556.2C401.37 556.2 410.13 543.95 410.13 528.83C410.208 523.015 408.826 517.273 406.11 512.13Z" fill="#F2F2F2"/>
<path id="Vector_9" opacity="0.03" d="M376.86 552.18C371.213 551.112 365.376 551.745 360.09 554C356.924 555.418 353.494 556.15 350.025 556.15C346.556 556.15 343.126 555.418 339.96 554C336.214 552.354 332.155 551.543 328.064 551.622C323.974 551.702 319.949 552.67 316.27 554.46C314.168 555.572 311.828 556.159 309.45 556.17C299.85 556.17 291.86 546.49 290.2 533.73C292.121 532.335 293.751 530.579 295 528.56C300.63 519.49 309.35 513.67 319.14 513.67C328.93 513.67 337.56 519.37 343.18 528.37C344.857 531.083 347.207 533.316 350.002 534.852C352.796 536.389 355.941 537.177 359.13 537.14H359.38C367.02 537.12 373.64 543.24 376.86 552.18Z" fill="black"/>
</g>
<g id="nube07" class="move1">
<path id="Vector_10" d="M845.11 499.13L829.56 508.97L838.98 491.84C836.313 489.712 833.012 488.533 829.6 488.49H829.35C828.271 488.511 827.193 488.431 826.13 488.25L820.87 491.59L823.12 487.49C819.394 486.182 816.174 483.733 813.92 480.49L804.51 486.49L810.45 475.67C804.95 469.06 797.53 465.01 789.36 465.01C779.57 465.01 770.85 470.83 765.22 479.91C763.55 482.629 761.19 484.857 758.38 486.368C755.569 487.879 752.409 488.618 749.22 488.51H748.7C737.89 488.51 729.13 500.76 729.13 515.88C729.13 531 737.89 543.25 748.7 543.25C751.075 543.242 753.413 542.655 755.51 541.54C759.191 539.754 763.215 538.789 767.305 538.709C771.394 538.63 775.453 539.439 779.2 541.08C782.369 542.494 785.8 543.225 789.27 543.225C792.74 543.225 796.171 542.494 799.34 541.08C803.056 539.469 807.075 538.676 811.124 538.754C815.173 538.831 819.158 539.778 822.81 541.53C824.894 542.618 827.209 543.19 829.56 543.2C840.37 543.2 849.13 530.95 849.13 515.83C849.208 510.015 847.826 504.273 845.11 499.13V499.13Z" fill="#F2F2F2"/>
<path id="Vector_11" opacity="0.03" d="M815.86 539.18C810.213 538.112 804.376 538.745 799.09 541C795.924 542.418 792.494 543.15 789.025 543.15C785.556 543.15 782.126 542.418 778.96 541C775.214 539.354 771.155 538.543 767.064 538.622C762.974 538.702 758.949 539.67 755.27 541.46C753.168 542.572 750.828 543.159 748.45 543.17C738.85 543.17 730.86 533.49 729.2 520.73C731.121 519.335 732.751 517.579 734 515.56C739.63 506.49 748.35 500.67 758.14 500.67C767.93 500.67 776.56 506.37 782.18 515.37C783.862 518.09 786.219 520.328 789.024 521.865C791.828 523.402 794.983 524.186 798.18 524.14H798.43C806.02 524.12 812.64 530.24 815.86 539.18Z" fill="black"/>
</g>
<g id="nube06" class="move2">
<path id="Vector_12" d="M845.11 171.13L829.56 180.97L838.98 163.84C836.313 161.712 833.012 160.533 829.6 160.49H829.35C828.271 160.511 827.193 160.431 826.13 160.25L820.87 163.59L823.12 159.49C819.394 158.182 816.174 155.733 813.92 152.49L804.51 158.49L810.45 147.67C804.95 141.06 797.53 137.01 789.36 137.01C779.57 137.01 770.85 142.83 765.22 151.91C763.55 154.629 761.19 156.857 758.38 158.368C755.569 159.879 752.409 160.618 749.22 160.51H748.7C737.89 160.51 729.13 172.76 729.13 187.88C729.13 203 737.89 215.25 748.7 215.25C751.075 215.242 753.413 214.656 755.51 213.54C759.191 211.755 763.215 210.789 767.305 210.709C771.394 210.63 775.453 211.439 779.2 213.08C782.365 214.502 785.795 215.241 789.265 215.25C792.735 215.259 796.168 214.536 799.34 213.13C803.056 211.519 807.075 210.726 811.124 210.804C815.173 210.881 819.158 211.828 822.81 213.58C824.894 214.668 827.209 215.24 829.56 215.25C840.37 215.25 849.13 203 849.13 187.88C849.216 182.048 847.834 176.288 845.11 171.13V171.13Z" fill="#F2F2F2"/>
<path id="Vector_13" opacity="0.03" d="M815.86 211.18C810.213 210.112 804.376 210.745 799.09 213C795.924 214.418 792.494 215.15 789.025 215.15C785.556 215.15 782.126 214.418 778.96 213C775.214 211.354 771.155 210.543 767.064 210.622C762.974 210.702 758.949 211.67 755.27 213.46C753.168 214.572 750.828 215.159 748.45 215.17C738.85 215.17 730.86 205.49 729.2 192.73C731.121 191.335 732.751 189.579 734 187.56C739.63 178.49 748.35 172.67 758.14 172.67C767.93 172.67 776.56 178.37 782.18 187.37C783.862 190.09 786.219 192.328 789.024 193.865C791.828 195.402 794.983 196.186 798.18 196.14H798.43C806.02 196.12 812.64 202.24 815.86 211.18Z" fill="black"/>
</g>
<g id="nube05" class="move1">
<path id="Vector_14" d="M203.09 135.74L195.34 140.65L200.04 132.11C198.712 131.042 197.064 130.451 195.36 130.43H195.24C194.701 130.436 194.162 130.395 193.63 130.31L191.01 131.97L192.13 129.97C190.271 129.319 188.665 128.097 187.54 126.48L182.85 129.48L185.85 124.09C184.603 122.477 183.011 121.162 181.191 120.242C179.371 119.321 177.369 118.818 175.33 118.77C170.45 118.77 166.1 121.67 163.33 126.2C162.496 127.56 161.316 128.674 159.91 129.427C158.505 130.181 156.924 130.548 155.33 130.49H155.07C149.68 130.49 145.31 136.61 145.31 144.15C145.31 151.69 149.68 157.8 155.07 157.8C156.255 157.796 157.422 157.504 158.47 156.95C160.306 156.056 162.314 155.573 164.355 155.533C166.396 155.494 168.421 155.899 170.29 156.72C171.864 157.42 173.567 157.781 175.29 157.781C177.013 157.781 178.716 157.42 180.29 156.72C182.144 155.916 184.149 155.52 186.17 155.56C188.191 155.599 190.179 156.073 192 156.95C193.039 157.488 194.19 157.772 195.36 157.78C200.75 157.78 205.12 151.67 205.12 144.13C205.158 141.207 204.46 138.322 203.09 135.74Z" fill="#F2F2F2"/>
<path id="Vector_15" opacity="0.03" d="M188.5 155.72C185.682 155.18 182.766 155.497 180.13 156.63C178.555 157.326 176.852 157.687 175.13 157.69C173.388 157.689 171.667 157.318 170.08 156.6C168.21 155.782 166.184 155.38 164.144 155.421C162.103 155.463 160.095 155.947 158.26 156.84C157.216 157.394 156.052 157.686 154.87 157.69C150.08 157.69 146.09 152.86 145.26 146.5C146.215 145.799 147.03 144.924 147.66 143.92C150.46 139.39 154.81 136.49 159.66 136.49C164.51 136.49 168.84 139.36 171.66 143.83C172.5 145.189 173.68 146.307 175.082 147.073C176.485 147.839 178.062 148.227 179.66 148.2H179.79C183.56 148.2 186.89 151.26 188.5 155.72Z" fill="black"/>
</g>
<g id="nube04" class="move2">
<path id="Vector_16" d="M893.09 624.74L885.34 629.65L890.04 621.11C888.712 620.042 887.064 619.451 885.36 619.43H885.24C884.701 619.436 884.162 619.395 883.63 619.31L881.01 620.97L882.13 618.97C880.271 618.319 878.665 617.097 877.54 615.48L872.85 618.48L875.85 613.09C874.603 611.477 873.011 610.162 871.191 609.242C869.371 608.321 867.369 607.819 865.33 607.77C860.45 607.77 856.1 610.67 853.33 615.2C852.496 616.56 851.316 617.674 849.91 618.427C848.505 619.181 846.924 619.548 845.33 619.49H845.07C839.68 619.49 835.31 625.61 835.31 633.15C835.31 640.69 839.68 646.8 845.07 646.8C846.255 646.796 847.422 646.504 848.47 645.95C850.306 645.056 852.314 644.573 854.355 644.533C856.396 644.494 858.421 644.898 860.29 645.72C861.864 646.42 863.567 646.781 865.29 646.781C867.013 646.781 868.716 646.42 870.29 645.72C872.144 644.916 874.149 644.52 876.17 644.56C878.191 644.599 880.179 645.074 882 645.95C883.039 646.488 884.19 646.772 885.36 646.78C890.75 646.78 895.12 640.67 895.12 633.13C895.158 630.207 894.46 627.322 893.09 624.74V624.74Z" fill="#F2F2F2"/>
<path id="Vector_17" opacity="0.03" d="M878.5 644.72C875.682 644.18 872.766 644.497 870.13 645.63C868.555 646.326 866.852 646.687 865.13 646.69C863.388 646.689 861.667 646.318 860.08 645.6C858.21 644.782 856.184 644.38 854.144 644.421C852.103 644.463 850.095 644.947 848.26 645.84C847.216 646.394 846.052 646.686 844.87 646.69C840.08 646.69 836.09 641.86 835.26 635.5C836.215 634.799 837.03 633.924 837.66 632.92C840.46 628.39 844.81 625.49 849.66 625.49C854.51 625.49 858.84 628.36 861.66 632.83C862.5 634.189 863.68 635.307 865.082 636.073C866.485 636.839 868.062 637.227 869.66 637.2H869.79C873.56 637.2 876.89 640.26 878.5 644.72Z" fill="black"/>
</g>
<g id="nube03" class="move1">
<path id="Vector_18" d="M173.09 650.74L165.34 655.65L170.04 647.11C168.712 646.042 167.064 645.451 165.36 645.43H165.24C164.701 645.436 164.162 645.395 163.63 645.31L161.01 646.97L162.13 644.97C160.271 644.319 158.665 643.097 157.54 641.48L152.85 644.48L155.85 639.09C154.603 637.477 153.011 636.162 151.191 635.242C149.371 634.321 147.369 633.819 145.33 633.77C140.45 633.77 136.1 636.67 133.33 641.2C132.496 642.56 131.316 643.674 129.91 644.427C128.505 645.181 126.924 645.548 125.33 645.49H125.07C119.68 645.49 115.31 651.61 115.31 659.15C115.31 666.69 119.68 672.8 125.07 672.8C126.255 672.796 127.422 672.504 128.47 671.95C130.306 671.056 132.314 670.573 134.355 670.533C136.396 670.494 138.421 670.898 140.29 671.72C141.864 672.42 143.567 672.781 145.29 672.781C147.013 672.781 148.716 672.42 150.29 671.72C152.144 670.916 154.149 670.52 156.17 670.56C158.191 670.599 160.179 671.074 162 671.95C163.039 672.488 164.19 672.772 165.36 672.78C170.75 672.78 175.12 666.67 175.12 659.13C175.158 656.207 174.46 653.322 173.09 650.74V650.74Z" fill="#F2F2F2"/>
<path id="Vector_19" opacity="0.03" d="M158.5 670.72C155.682 670.18 152.766 670.497 150.13 671.63C148.555 672.326 146.852 672.687 145.13 672.69C143.388 672.689 141.667 672.318 140.08 671.6C138.21 670.782 136.184 670.38 134.144 670.421C132.103 670.463 130.095 670.947 128.26 671.84C127.216 672.394 126.052 672.686 124.87 672.69C120.08 672.69 116.09 667.86 115.26 661.5C116.215 660.799 117.03 659.924 117.66 658.92C120.46 654.39 124.81 651.49 129.66 651.49C134.51 651.49 138.84 654.36 141.66 658.83C142.5 660.189 143.68 661.307 145.082 662.073C146.485 662.839 148.062 663.227 149.66 663.2H149.79C153.56 663.2 156.89 666.26 158.5 670.72Z" fill="black"/>
</g>
<g id="nube02" class="move2">
<path id="Vector_20" d="M531.11 34.13L515.56 43.97L524.98 26.84C522.313 24.7118 519.012 23.533 515.6 23.49H515.35C514.271 23.5111 513.193 23.4308 512.13 23.25L506.87 26.59L509.12 22.49C505.394 21.1821 502.174 18.7326 499.92 15.49L490.51 21.49L496.45 10.67C490.95 4.06001 483.53 0.0100098 475.36 0.0100098C465.57 0.0100098 456.85 5.83 451.22 14.91C449.55 17.6291 447.19 19.8574 444.38 21.368C441.569 22.8786 438.409 23.6177 435.22 23.51H434.7C423.89 23.51 415.13 35.76 415.13 50.88C415.13 66 423.89 78.25 434.7 78.25C437.075 78.2425 439.413 77.6555 441.51 76.54C445.191 74.7545 449.215 73.7887 453.305 73.7093C457.394 73.6299 461.453 74.4387 465.2 76.08C468.365 77.502 471.795 78.2414 475.265 78.25C478.735 78.2586 482.168 77.5363 485.34 76.13C489.056 74.5195 493.075 73.7262 497.124 73.8038C501.173 73.8814 505.158 74.8282 508.81 76.58C510.894 77.6678 513.209 78.2404 515.56 78.25C526.37 78.25 535.13 66 535.13 50.88C535.216 45.0479 533.834 39.2878 531.11 34.13V34.13Z" fill="#F2F2F2"/>
<path id="Vector_21" opacity="0.03" d="M501.86 74.18C496.213 73.1116 490.376 73.7451 485.09 76C481.924 77.4176 478.494 78.1504 475.025 78.1504C471.556 78.1504 468.126 77.4176 464.96 76C461.214 74.3541 457.155 73.5428 453.064 73.6222C448.974 73.7016 444.949 74.67 441.27 76.46C439.168 77.5722 436.828 78.1589 434.45 78.17C424.85 78.17 416.86 68.49 415.2 55.73C417.121 54.3351 418.751 52.579 420 50.56C425.63 41.49 434.35 35.67 444.14 35.67C453.93 35.67 462.56 41.37 468.18 50.37C469.862 53.09 472.219 55.3277 475.024 56.8647C477.828 58.4018 480.983 59.1857 484.18 59.14H484.43C492.02 59.12 498.64 65.24 501.86 74.18Z" fill="black"/>
</g>
<g id="nube01" class="move1">
<path id="Vector_22" d="M1061.09 205.74L1053.34 210.65L1058.04 202.11C1056.71 201.042 1055.06 200.451 1053.36 200.43H1053.24C1052.7 200.436 1052.16 200.395 1051.63 200.31L1049.01 201.97L1050.13 199.97C1048.27 199.319 1046.66 198.097 1045.54 196.48L1040.85 199.48L1043.85 194.09C1042.6 192.477 1041.01 191.162 1039.19 190.242C1037.37 189.321 1035.37 188.818 1033.33 188.77C1028.45 188.77 1024.1 191.67 1021.33 196.2C1020.5 197.56 1019.32 198.674 1017.91 199.427C1016.5 200.181 1014.92 200.548 1013.33 200.49H1013.07C1007.68 200.49 1003.31 206.61 1003.31 214.15C1003.31 221.69 1007.68 227.8 1013.07 227.8C1014.26 227.796 1015.42 227.504 1016.47 226.95C1018.31 226.056 1020.31 225.573 1022.35 225.533C1024.4 225.494 1026.42 225.899 1028.29 226.72C1029.86 227.42 1031.57 227.781 1033.29 227.781C1035.01 227.781 1036.72 227.42 1038.29 226.72C1040.14 225.916 1042.15 225.52 1044.17 225.56C1046.19 225.599 1048.18 226.073 1050 226.95C1051.04 227.488 1052.19 227.772 1053.36 227.78C1058.75 227.78 1063.12 221.67 1063.12 214.13C1063.16 211.207 1062.46 208.322 1061.09 205.74V205.74Z" fill="#F2F2F2"/>
<path id="Vector_23" opacity="0.03" d="M1046.5 225.72C1043.68 225.18 1040.77 225.497 1038.13 226.63C1036.55 227.326 1034.85 227.687 1033.13 227.69C1031.41 227.682 1029.7 227.311 1028.13 226.6C1026.26 225.782 1024.23 225.38 1022.19 225.421C1020.15 225.463 1018.15 225.947 1016.31 226.84C1015.27 227.394 1014.1 227.686 1012.92 227.69C1008.13 227.69 1004.14 222.86 1003.31 216.5C1004.27 215.799 1005.08 214.924 1005.71 213.92C1008.51 209.39 1012.86 206.49 1017.71 206.49C1022.56 206.49 1026.89 209.36 1029.71 213.83C1030.55 215.182 1031.72 216.295 1033.11 217.06C1034.5 217.826 1036.07 218.219 1037.66 218.2H1037.79C1041.56 218.2 1044.89 221.26 1046.5 225.72Z" fill="black"/>
</g>
</g>
<defs>
<clipPath id="clip0">
<rect width="1063.13" height="672.74" fill="white"/>
</clipPath>
</defs>
</svg>
