<?xml version="1.0" encoding="iso-8859-1"?>
<!-- Generator: Adobe Illustrator 19.0.0, SVG Export Plug-In . SVG Version: 6.00 Build 0)  -->
<svg version="1.1" id="Capa_1" xmlns="http://www.w3.org/2000/svg" xmlns:xlink="http://www.w3.org/1999/xlink" x="0px" y="0px"
	 viewBox="0 0 512 512" style="enable-background:new 0 0 512 512;" xml:space="preserve">
<path style="fill:#36569C;" d="M41.837,215.408c-5.768,0-11.143-3.283-13.718-8.615c-0.424-0.877-10.401-21.802-12.725-49.568
	c-3.102-37.048,8.628-69.138,33.941-92.981c0.383-0.502,0.801-0.983,1.251-1.44c3.74-3.795,9.19-5.361,14.375-4.131
	c34.594,8.213,55.802,31.212,56.731,61.524c0.199,6.487-3.732,12.388-9.795,14.705c-23.663,9.038-52.026,38.7-54.894,66.812
	c-0.692,6.784-5.805,12.281-12.521,13.463C43.597,215.333,42.713,215.408,41.837,215.408z"/>
<path style="fill:#FF87B4;" d="M15.243,434.516c-2.602,0-5.204-0.664-7.543-1.997c-4.759-2.711-7.697-7.767-7.697-13.243
	c0-72.951,43.685-126.869,82.227-174.44c27.988-34.545,52.159-64.379,52.159-92.564c0-9.341-1.972-16.276-5.277-18.551
	c-3.156-2.173-9.59-1.731-17.213,1.18c-4.609,1.759-9.783,1.182-13.888-1.551c-4.106-2.734-6.633-7.287-6.785-12.216
	c-0.669-21.821-21.154-29.918-33.305-32.803c-5.517-1.31-9.851-5.575-11.249-11.07c-4.094-16.091,1.181-32.12,14.853-45.134
	c23.748-22.603,67.049-30.988,102.96-19.94c36.585,11.258,61.691,40.372,70.692,81.979c18.676,86.336-32.962,158.764-74.455,216.961
	c-15.27,21.418-29.695,41.649-37.676,58.839c-1.294,2.79-3.405,5.123-6.05,6.691l-93.98,55.727
	C20.622,433.805,17.933,434.516,15.243,434.516z"/>
<path style="fill:#36569C;" d="M137.498,88.997c7.972,0,15.609-7.009,15.24-15.24c-0.37-8.257-6.696-15.24-15.24-15.24
	c-7.972,0-15.609,7.009-15.24,15.24C122.629,82.014,128.955,88.997,137.498,88.997L137.498,88.997z"/>
<path style="fill:#FA649A;" d="M433.831,504.651H78.169C35.067,504.651,0,469.584,0,426.481s35.067-78.169,78.169-78.169h355.662
	c43.103,0,78.169,35.067,78.169,78.169S476.934,504.651,433.831,504.651z"/>
<path style="fill:#F54286;" d="M433.831,348.312H256.37v156.339h177.461c43.103,0,78.169-35.067,78.169-78.169
	S476.934,348.312,433.831,348.312z"/>
<g>
</g>
<g>
</g>
<g>
</g>
<g>
</g>
<g>
</g>
<g>
</g>
<g>
</g>
<g>
</g>
<g>
</g>
<g>
</g>
<g>
</g>
<g>
</g>
<g>
</g>
<g>
</g>
<g>
</g>
</svg>
