<svg height="44" viewBox="0 0 53 58" width="44" xmlns="http://www.w3.org/2000/svg"><g id="Page-1" fill="none" fill-rule="evenodd"><g id="008---Parasol" fill-rule="nonzero"><path id="Shape" d="m18.57 39.25c1.76-.16 3.59-.25 5.48-.25 13.26 0 24 4.25 24 9.5s-10.74 9.5-24 9.5-24-4.25-24-9.5c0-3.69 5.3-6.88 13.05-8.46z" fill="#f29c1f"/><path id="Shape" d="m28.2 25.94-9.63 13.31-7.12 9.99c-.4144281.5823429-1.1080517.8993552-1.81958948.8316214-.71153781-.0677337-1.33289031-.5099233-1.63000002-1.16s-.2248386-1.4092785.1895895-1.9916214l4.91-6.88 11.85-16.42z" fill="#a56a43"/><g fill="#e57e25"><circle id="Oval" cx="37" cy="47" r="1"/><circle id="Oval" cx="34" cy="45" r="1"/><circle id="Oval" cx="32" cy="48" r="1"/></g><circle id="Oval" cx="22.5" cy="50.5" fill="#d25627" r="2.5"/><path id="Shape" d="m43.38 4.46-2.85 3.79c-.52-.41-1.05-.81-1.6-1.2s-1.11-.77-1.67-1.11l2.86-3.81c.6460807-.89315847 1.8913914-1.09847851 2.79-.46.4367911.30397493.7296228.77395179.81 1.3.0916717.52218048-.0308865 1.05927385-.34 1.49z" fill="#cb8252"/><path id="Shape" d="m41.03 7.75c-.52-.41-1.05-.81-1.6-1.2s-1.11-.77-1.67-1.11c-11.79-7.53-25.54-7.24-31.35.91l-.59 3.81c-.0620753.3731023.09297667.7491033.4.97l2.76 1.96 2.75 1.96c.3084299.2204951.7150303.2476018 1.05.07l3.4-1.8-.59 3.8c-.0591903.3727691.0952579.7473061.4.97l8.46 6.03 3.25 2.32 8.46 6.03c.3097862.2166736.7141933.2436341 1.05.07l3.4-1.81-.6 3.81c-.0534882.3743081.1042648.7475286.41.97l2.76 1.96 2.75 1.96c.3084299.2204951.7150303.2476018 1.05.07l3.4-1.8c5.81-8.16 1.61-21.24-9.35-29.95z" fill="#ff5364"/><path id="Shape" d="m50.38 37.7-9.77-6.97c6.09-8.54 5.56-19.37-1.18-24.18.55.39 1.08.79 1.6 1.2 10.96 8.71 15.16 21.79 9.35 29.95z" fill="#f3d55b"/><path id="Shape" d="m40.61 30.73-24.43-17.41c6.1-8.55 16.5-11.58 23.25-6.77s7.27 15.64 1.18 24.18z" fill="#3b97d3"/><path id="Shape" d="m16.18 13.32-3.4 1.8c-.3349697.1776018-.7415701.1504951-1.05-.07l-2.75-1.96-2.76-1.96c-.30702333-.2208967-.4620753-.5968977-.4-.97l.59-3.81z" fill="#df4d60"/><path id="Shape" d="m50.38 37.7-3.4 1.8c-.3349697.1776018-.7415701.1504951-1.05-.07l-2.75-1.96-2.76-1.96c-.3057352-.2224714-.4634882-.5956919-.41-.97l.6-3.81z" fill="#f0c419"/><path id="Shape" d="m40.61 30.73-3.4 1.81c-.3358067.1736341-.7402138.1466736-1.05-.07l-8.46-6.03-3.25-2.32-8.46-6.03c-.3047421-.2226939-.4591903-.5972309-.4-.97l.59-3.8z" fill="#2980ba"/><path id="Shape" d="m41.03 7.75-.01.01" fill="#cb8252"/></g></g></svg>