<svg id="Capa_1" enable-background="new 0 0 497 497" height="44" viewBox="0 0 497 497" width="44" xmlns="http://www.w3.org/2000/svg"><g><path d="m275.49 364.45v105.56c0 7.45-3.02 14.2-7.9 19.08-4.89 4.89-11.63 7.91-19.09 7.91-4.92 0-9.53-1.31-13.5-3.62-8.07-4.66-13.49-13.39-13.49-23.37v-105.56l26.99-10.99 13.56 5.52z" fill="#ffe5c2"/><path d="m275.49 364.45v105.56c0 7.45-3.02 14.2-7.9 19.08-4.89 4.89-11.63 7.91-19.09 7.91-4.92 0-9.53-1.31-13.5-3.62 2.05-1.18 3.93-2.62 5.59-4.29 4.89-4.88 7.91-11.63 7.91-19.08v-105.56l13.56-5.47z" fill="#fed2a4"/><path d="m361.4 112.9v134l-22.52 3.73-21.96 3.64-41.9 6.95-26.52 4.4-26.52-4.4-41.9-6.94-44.48-7.38v-134c0-58.55 44.57-106.69 101.64-112.34 3.7-.37 7.46-.56 11.26-.56 31.17 0 59.4 12.63 79.83 33.07 20.43 20.43 33.07 48.65 33.07 79.83z" fill="#6ed5a1"/><path d="m361.4 112.9v134l-22.52 3.73v-137.73c0-31.18-12.64-59.4-33.07-79.83-17.94-17.95-41.89-29.87-68.57-32.51 3.7-.37 7.46-.56 11.26-.56 31.17 0 59.4 12.63 79.83 33.07 20.43 20.43 33.07 48.65 33.07 79.83z" fill="#46cc8d"/><path d="m316.92 94.44v159.83l-20.95 3.48-20.95 3.47v-166.78c0-7.76 4.21-14.53 10.48-18.15 3.08-1.79 6.65-2.81 10.47-2.81 5.79 0 11.02 2.34 14.81 6.14 3.8 3.79 6.14 9.03 6.14 14.82z" fill="#00c27a"/><path d="m316.92 94.44v159.83l-20.95 3.48v-163.31c0-5.79-2.34-11.03-6.14-14.82-1.28-1.29-2.74-2.42-4.33-3.33 3.08-1.79 6.65-2.81 10.47-2.81 5.79 0 11.02 2.34 14.81 6.14 3.8 3.79 6.14 9.03 6.14 14.82z" fill="#08b865"/><path d="m221.98 94.44v166.78l-20.95-3.47-20.95-3.47v-159.84c0-7.76 4.21-14.53 10.48-18.15 3.08-1.79 6.65-2.81 10.47-2.81 5.79 0 11.02 2.34 14.81 6.14 3.8 3.79 6.14 9.03 6.14 14.82z" fill="#00c27a"/><path d="m221.98 94.44v166.78l-20.95-3.47v-163.31c0-5.79-2.34-11.03-6.14-14.82-1.28-1.29-2.74-2.42-4.33-3.33 3.08-1.79 6.65-2.81 10.47-2.81 5.79 0 11.02 2.34 14.81 6.14 3.8 3.79 6.14 9.03 6.14 14.82z" fill="#08b865"/><path d="m361.403 246.902v86.813c0 16.979-13.756 30.735-30.725 30.735h-164.356c-16.969 0-30.725-13.756-30.725-30.735v-86.813l44.483-.002 20.95 6.046 20.95-6.046h53.04l20.95 3.73 20.95-3.73z" fill="#ffd15b"/><path d="m361.4 246.9v86.81c0 16.98-13.75 30.74-30.72 30.74h-22.53c16.97 0 30.73-13.76 30.73-30.74v-86.81z" fill="#ffc344"/><path d="m180.08 246.9h41.9v59.25c0 11.57-9.38 20.96-20.95 20.96s-20.95-9.39-20.95-20.96z" fill="#fea613"/><path d="m221.98 246.9v59.25c0 11.57-9.38 20.96-20.95 20.96-3.82 0-7.4-1.02-10.48-2.82 6.27-3.61 10.48-10.39 10.48-18.14v-59.25z" fill="#fe9901"/><path d="m316.92 246.9v59.25c0 11.57-9.38 20.96-20.95 20.96s-20.95-9.39-20.95-20.96v-59.25z" fill="#fea613"/><path d="m316.92 246.9v59.25c0 11.57-9.38 20.96-20.95 20.96-3.82 0-7.4-1.02-10.48-2.82 6.27-3.61 10.48-10.39 10.48-18.14v-59.25z" fill="#fe9901"/></g></svg>