<?xml version="1.0" standalone="no"?><svg xmlns="http://www.w3.org/2000/svg" viewBox="0 0 1440 320"><path fill="#e4be00" fill-opacity="1" d="M0,192L30,170.7C60,149,120,107,180,117.3C240,128,300,192,360,224C420,256,480,256,540,234.7C600,213,660,171,720,160C780,149,840,171,900,202.7C960,235,1020,277,1080,272C1140,267,1200,213,1260,160C1320,107,1380,53,1410,26.7L1440,0L1440,320L1410,320C1380,320,1320,320,1260,320C1200,320,1140,320,1080,320C1020,320,960,320,900,320C840,320,780,320,720,320C660,320,600,320,540,320C480,320,420,320,360,320C300,320,240,320,180,320C120,320,60,320,30,320L0,320Z" data-darkreader-inline-fill="" style="--darkreader-inline-fill:#b69800;"></path></svg>