<svg id="Capa_1" enable-background="new 0 0 511.995 511.995" height="512" viewBox="0 0 511.995 511.995" width="512" xmlns="http://www.w3.org/2000/svg"><g><path d="m507.214 112.448c-.048-1.924-.834-3.757-2.194-5.117-33.552-33.551-85.511-61.803-154.436-83.972-51.034-16.415-91.7-22.993-93.406-23.265-.781-.125-1.58-.125-2.361 0-1.706.272-42.372 6.85-93.406 23.265-68.925 22.168-120.884 50.42-154.436 83.971-1.36 1.361-2.146 3.193-2.194 5.117-.074 3.007-1.484 74.622 28.19 160.049 17.465 50.279 42.14 94.765 73.34 132.225 39.066 46.906 88.473 82.81 146.844 106.714.911.373 1.877.56 2.843.56s1.932-.187 2.843-.56c58.371-23.905 107.777-59.809 146.844-106.714 31.2-37.46 55.875-81.947 73.34-132.225 29.674-85.426 28.264-157.042 28.189-160.048zm-42.526 155.604c-16.896 48.475-40.691 91.306-70.723 127.302-36.815 44.127-83.222 78.104-137.968 101.024-54.746-22.92-101.152-56.897-137.968-101.024-30.031-35.996-53.826-78.826-70.723-127.302-25.58-73.384-27.46-137.897-27.542-152.263 73.536-71.139 221.478-98.143 236.234-100.684 14.756 2.541 162.697 29.545 236.232 100.684-.083 14.374-1.964 78.884-27.542 152.263z"/><path d="m254.576 54.276c-12.684 2.361-125.839 24.544-192.642 75.772-2.004 1.537-3.101 3.979-2.917 6.497 2.097 28.756 8.221 73.208 25.486 121.672 32.24 90.487 88.835 155.961 168.211 194.606 1.036.504 2.16.757 3.283.757s2.247-.252 3.283-.757c79.376-38.645 135.971-104.12 168.211-194.606 17.258-48.433 23.385-92.887 25.486-121.651.184-2.522-.915-4.967-2.924-6.503-12.473-9.541-27.555-18.766-44.827-27.419-3.703-1.855-8.209-.356-10.065 3.347-1.854 3.703-.356 8.21 3.347 10.065 14.946 7.487 28.11 15.38 39.191 23.496-2.305 27.865-8.438 69.011-24.338 113.631-30.428 85.399-83.363 147.466-157.364 184.533-74.001-37.067-126.937-99.134-157.364-184.532-16.591-46.569-22.346-89.79-24.337-113.66 23.365-17.177 55.025-32.82 94.189-46.531 39.554-13.848 73.428-21.046 87.456-23.71 15.897 3.046 64.98 13.477 115.79 34.574 3.824 1.588 8.214-.225 9.803-4.05 1.588-3.826-.226-8.214-4.051-9.803-53.72-22.307-105.547-32.984-120.151-35.726-.911-.17-1.846-.171-2.756-.002z"/><path d="m336.641 271.497c-9.391.409-19.309.758-29.475 1.036-9.942.266-17.939 8.259-18.206 18.192-.272 9.965-.617 19.885-1.026 29.483-.072 1.672-1.271 3.112-2.85 3.424-19.303 3.811-38.876 3.81-58.173 0-1.58-.312-2.778-1.752-2.851-3.421-.409-9.601-.754-19.521-1.026-29.482-.267-9.937-8.264-17.929-18.207-18.196-4.85-.13-9.709-.279-14.559-.448-4.158-.148-7.612 3.094-7.757 7.234s3.094 7.613 7.233 7.757c4.891.171 9.791.321 14.681.452 1.974.053 3.562 1.636 3.614 3.607.274 10.04.622 20.038 1.034 29.718.371 8.637 6.511 15.832 14.93 17.496 10.615 2.096 21.304 3.144 31.993 3.144s21.379-1.048 31.994-3.144c8.418-1.664 14.558-8.858 14.929-17.499.412-9.677.76-19.674 1.034-29.718.053-1.968 1.641-3.551 3.618-3.604 10.25-.281 20.25-.632 29.718-1.044 8.639-.372 15.832-6.512 17.494-14.93 4.192-21.226 4.192-42.75.001-63.976-1.663-8.418-8.856-14.557-17.492-14.93-9.68-.422-19.682-.77-29.712-1.034-1.98-.056-3.574-1.644-3.627-3.618-.274-10.041-.622-20.038-1.034-29.717-.371-8.637-6.511-15.832-14.93-17.496-21.23-4.191-42.757-4.191-63.987 0-8.418 1.664-14.558 8.858-14.929 17.499-.412 9.676-.76 19.673-1.034 29.718-.053 1.97-1.646 3.558-3.61 3.614-10.047.265-20.049.613-29.726 1.034-8.639.373-15.832 6.512-17.494 14.929-4.087 20.685-4.193 41.661-.314 62.346.762 4.072 4.687 6.752 8.753 5.99 4.071-.763 6.753-4.682 5.989-8.754-3.524-18.801-3.428-37.869.288-56.675.312-1.579 1.752-2.778 3.428-2.85 9.595-.418 19.51-.763 29.487-1.026 9.936-.283 17.927-8.28 18.193-18.202.272-9.965.617-19.885 1.026-29.482.072-1.672 1.271-3.113 2.85-3.425 19.301-3.811 38.874-3.81 58.173 0 1.58.312 2.778 1.752 2.851 3.422.409 9.6.754 19.52 1.026 29.482.267 9.926 8.258 17.923 18.21 18.206 9.961.262 19.876.607 29.474 1.025 1.673.072 3.113 1.271 3.426 2.85 3.811 19.297 3.811 38.867-.001 58.164-.311 1.578-1.751 2.777-3.427 2.849z"/></g></svg>