<svg enable-background="new 0 0 24 24" height="512" viewBox="0 0 24 24" width="512" xmlns="http://www.w3.org/2000/svg"><g id="color_1_"><g><path d="m21.948 11.835-2.819 10.303c-.304 1.111-1.482 1.761-2.624 1.449l-14.275-3.907c-.092-.025-.182-.059-.262-.091-.935-.381-1.48-1.358-1.293-2.328.005-.056.02-.11.035-.164l2.819-10.302c.303-1.111 1.481-1.762 2.623-1.449l14.275 3.906c1.143.312 1.825 1.472 1.521 2.583z" fill="#b0bec5"/></g><g><path d="m24 4.25v11.5c0 1.24-1.01 2.25-2.25 2.25h-15.5c-.1 0-.2-.01-.29-.02-1.05-.13-1.87-.99-1.95-2.05-.01-.06-.01-.12-.01-.18v-11.5c0-1.24 1.01-2.25 2.25-2.25h15.5c1.24 0 2.25 1.01 2.25 2.25z" fill="#eceff1"/></g><g><circle cx="9" cy="7" fill="#ffc107" r="1.5"/></g><g><path d="m22.625 13.111v2.53c0 1.116-.774 2.026-1.725 2.026h-11.886c-.077 0-.153-.009-.222-.018l7.898-9.273c.521-.612 1.38-.612 1.902 0z" fill="#388e3c"/></g><g><path d="m16.132 16.994-9.569.25c-.073 0-.145-.007-.21-.015-.762-.094-1.357-.718-1.415-1.487l4.446-3.696c.493-.493 1.306-.493 1.799 0z" fill="#4caf50"/></g></g><g id="regular_1.5"><g><path d="m17.703 24c-.189 0-.382-.024-.573-.074l-15.464-4.141c-1.193-.329-1.904-1.563-1.592-2.755l1.7-6.519c.104-.4.513-.643.915-.536.4.104.641.514.536.915l-1.7 6.52c-.105.402.134.817.534.927l15.455 4.139c.397.105.807-.131.911-.526l.528-2.13c.1-.402.506-.646.908-.548.402.1.647.506.548.908l-.53 2.14c-.267 1.013-1.179 1.68-2.176 1.68z"/></g><g><path d="m21.75 18h-15.5c-1.241 0-2.25-1.009-2.25-2.25v-11.5c0-1.241 1.009-2.25 2.25-2.25h15.5c1.241 0 2.25 1.009 2.25 2.25v11.5c0 1.241-1.009 2.25-2.25 2.25zm-15.5-14.5c-.414 0-.75.336-.75.75v11.5c0 .414.336.75.75.75h15.5c.414 0 .75-.336.75-.75v-11.5c0-.414-.336-.75-.75-.75z"/></g><g><path d="m9 9c-1.103 0-2-.897-2-2s.897-2 2-2 2 .897 2 2-.897 2-2 2zm0-2.5c-.276 0-.5.224-.5.5s.224.5.5.5.5-.224.5-.5-.224-.5-.5-.5z"/></g><g><path d="m4.77 16.98c-.192 0-.384-.073-.53-.22-.293-.293-.293-.768 0-1.061l4.52-4.52c.684-.684 1.797-.684 2.48 0l1.209 1.209 3.714-4.458c.332-.398.819-.628 1.336-.631.556-.031 1.006.222 1.341.615l4.978 5.808c.27.314.233.788-.081 1.058-.315.27-.788.233-1.058-.081l-4.98-5.81c-.066-.079-.147-.075-.192-.089-.043 0-.126.013-.192.091l-4.24 5.09c-.135.162-.332.26-.542.269-.214.012-.416-.07-.564-.219l-1.79-1.79c-.127-.127-.232-.127-.359 0l-4.52 4.519c-.146.147-.338.22-.53.22z"/></g></g></svg>