<!--?xml version="1.0" standalone="no"?-->
              <svg id="sw-js-blob-svg" viewBox="0 0 100 100" xmlns="http://www.w3.org/2000/svg" version="1.1">
                    <defs> 
                        <linearGradient id="sw-gradient" x1="0" x2="1" y1="1" y2="0">
                            <stop id="stop1" stop-color="rgba(214.132, 182.043, 166.856, 1)" offset="0%"></stop>
                            <stop id="stop2" stop-color="rgba(41.096, 34.092, 22.532, 1)" offset="100%"></stop>
                        </linearGradient>
                    </defs>
                <path fill="url(#sw-gradient)" d="M25.2,-30.1C32.7,-23.6,39.2,-15.8,40.4,-7.3C41.6,1.1,37.7,10.3,32.4,17.9C27.1,25.5,20.4,31.5,12.2,35.2C4,38.9,-5.6,40.3,-12.2,36.6C-18.9,32.9,-22.6,24,-26.2,16C-29.8,7.9,-33.3,0.7,-33.9,-7.8C-34.6,-16.3,-32.3,-26,-26.2,-32.8C-20,-39.5,-10,-43.1,-0.6,-42.4C8.8,-41.6,17.6,-36.5,25.2,-30.1Z" width="100%" height="100%" transform="translate(50 50)" style="transition: all 0.3s ease 0s;" stroke-width="0"></path>
              </svg>