<!--?xml version="1.0" standalone="no"?-->
              <svg id="sw-js-blob-svg" viewBox="0 0 100 100" xmlns="http://www.w3.org/2000/svg" version="1.1">
                    <defs> 
                        <linearGradient id="sw-gradient" x1="0" x2="1" y1="1" y2="0">
                            <stop id="stop1" stop-color="rgba(248, 117, 55, 1)" offset="0%"></stop>
                            <stop id="stop2" stop-color="rgba(251, 168, 31, 1)" offset="100%"></stop>
                        </linearGradient>
                    </defs>
                <path fill="url(#sw-gradient)" d="M25.4,-29.4C32.6,-24.1,38.1,-15.9,40.3,-6.7C42.4,2.6,41.2,12.8,36.7,21.5C32.1,30.2,24.1,37.4,15,40.3C5.9,43.3,-4.5,42,-14.3,38.8C-24.2,35.5,-33.5,30.1,-39.2,21.9C-44.8,13.6,-46.8,2.5,-44.7,-7.6C-42.5,-17.7,-36.4,-26.8,-28.2,-32C-20.1,-37.1,-10.1,-38.1,-0.5,-37.5C9,-36.9,18.1,-34.6,25.4,-29.4Z" width="100%" height="100%" transform="translate(50 50)" style="transition: all 0.3s ease 0s;" stroke-width="0"></path>
              </svg>