<?xml version="1.0" encoding="UTF-8"?>
<svg xmlns="http://www.w3.org/2000/svg" xmlns:xlink="http://www.w3.org/1999/xlink" viewBox="0 0 100 100" width="100px" height="100px">
<g id="surface60574432">
<path style=" stroke:none;fill-rule:nonzero;fill:rgb(100%,100%,100%);fill-opacity:1;" d="M 90.546875 4.648438 C 90.171875 4.234375 89.632812 4 89.070312 4 L 10.929688 4 C 10.367188 4 9.828125 4.234375 9.453125 4.648438 C 9.070312 5.0625 8.882812 5.617188 8.9375 6.179688 L 15.976562 85.03125 C 16.046875 85.859375 16.625 86.546875 17.421875 86.78125 L 49.445312 95.921875 C 49.617188 95.976562 49.804688 96 49.992188 96 C 50.179688 96 50.359375 95.976562 50.539062 95.921875 L 82.585938 86.78125 C 83.382812 86.546875 83.953125 85.859375 84.03125 85.03125 L 91.0625 6.179688 C 91.117188 5.617188 90.929688 5.0625 90.546875 4.648438 Z M 73.695312 31.835938 L 36.070312 31.835938 L 36.96875 42.015625 L 72.789062 42.015625 L 70.101562 72.101562 L 49.984375 78.179688 L 49.789062 78.117188 L 29.90625 72.09375 L 28.820312 59.835938 L 38.5625 59.835938 L 38.984375 64.59375 L 50.101562 66.921875 L 61.015625 64.59375 L 62.179688 51.71875 L 28.09375 51.71875 L 25.445312 22.109375 L 74.5625 22.109375 Z M 73.695312 31.835938 "/>
</g>
</svg>
