<?xml version="1.0" encoding="UTF-8"?>
<svg xmlns="http://www.w3.org/2000/svg" xmlns:xlink="http://www.w3.org/1999/xlink" viewBox="0 0 100 100" width="100px" height="100px">
<g id="surface60571957">
<path style=" stroke:none;fill-rule:nonzero;fill:rgb(100%,100%,100%);fill-opacity:1;" d="M 86.671875 8 L 13.335938 8 C 10.390625 8 8 10.390625 8 13.335938 L 8 86.664062 C 8 89.609375 10.390625 92 13.335938 92 L 86.664062 92 C 89.609375 92 92 89.609375 92 86.671875 L 92 13.335938 C 92 10.390625 89.609375 8 86.671875 8 Z M 54 72.367188 C 54 80.359375 49.3125 84 42.46875 84 C 36.28125 84 31.820312 79.851562 30 76 L 36.289062 72.195312 C 37.5 74.34375 39.34375 76 42 76 C 44.539062 76 46 75.007812 46 71.148438 L 46 46 L 54 46 Z M 71.351562 84 C 64.265625 84 60.242188 80.429688 58 76 L 64 72 C 65.632812 74.671875 67.414062 77.226562 71.179688 77.226562 C 74.34375 77.226562 76 75.648438 76 73.460938 C 76 70.851562 74.28125 69.921875 70.804688 68.398438 L 68.898438 67.578125 C 63.390625 65.234375 59.726562 62.296875 59.726562 56.078125 C 59.726562 50.359375 64.09375 46 70.90625 46 C 75.757812 46 79.242188 47.6875 81.757812 52.109375 L 75.820312 55.929688 C 74.507812 53.578125 73.101562 52.65625 70.90625 52.65625 C 68.671875 52.65625 67.257812 54.078125 67.257812 55.929688 C 67.257812 58.21875 68.671875 59.140625 71.945312 60.5625 L 73.851562 61.382812 C 80.34375 64.15625 84 66.992188 84 73.367188 C 84 80.234375 78.601562 84 71.351562 84 Z M 71.351562 84 "/>
</g>
</svg>
