<?xml version="1.0" standalone="no"?>
<!DOCTYPE svg PUBLIC "-//W3C//DTD SVG 20010904//EN"
 "http://www.w3.org/TR/2001/REC-SVG-20010904/DTD/svg10.dtd">
<svg version="1.0" xmlns="http://www.w3.org/2000/svg"
 width="1024.000000pt" height="1024.000000pt" viewBox="0 0 1024.000000 1024.000000"
 preserveAspectRatio="xMidYMid meet">
<metadata>
Created by potrace 1.14, written by Peter Selinger 2001-2017
</metadata>
<g transform="translate(0.000000,1024.000000) scale(0.100000,-0.100000)"
fill="#000000" stroke="none">
<path d="M0 5120 l0 -5120 2010 0 c1165 0 2010 4 2010 9 0 5 -11 46 -24 92
-29 102 -71 303 -86 419 -6 46 -13 87 -15 90 -2 3 -13 95 -24 205 -12 110 -23
216 -26 235 -5 42 -22 362 -30 580 -7 162 6 472 30 745 34 390 74 653 156
1037 16 75 29 138 29 141 0 3 -16 8 -36 12 -59 11 -300 93 -370 125 -133 62
-296 172 -341 230 -9 12 -14 3 -28 -45 -30 -109 -67 -215 -74 -215 -11 0 -285
223 -406 331 -60 53 -164 152 -229 218 l-119 121 -91 0 c-50 0 -130 5 -176 10
-624 74 -1096 333 -1435 785 -290 388 -405 765 -334 1100 27 125 70 216 134
280 77 79 130 100 245 100 82 0 103 -4 152 -27 64 -30 112 -64 173 -123 45
-44 145 -173 145 -187 0 -5 4 -6 10 -3 5 3 10 40 10 81 0 230 96 428 244 504
63 32 76 35 150 34 132 -2 225 -49 345 -173 122 -127 217 -314 255 -501 9 -46
18 -66 30 -68 9 -2 62 11 119 28 56 18 143 45 192 60 50 16 144 45 210 65 66
20 154 47 195 60 160 51 299 94 400 125 58 17 170 52 250 77 80 25 174 54 210
65 36 11 90 28 120 38 30 9 207 64 392 121 186 57 338 107 338 111 0 4 -22 38
-49 75 -126 174 -212 398 -251 652 -25 161 -25 266 0 416 44 260 149 490 313
686 138 165 378 304 620 360 137 32 351 30 485 -5 96 -25 174 -54 262 -97 48
-23 195 -122 248 -167 l32 -27 -19 -85 c-37 -160 -44 -225 -44 -375 0 -161 23
-315 66 -447 l22 -68 45 1 c118 1 486 39 613 64 129 25 129 25 161 -47 34 -75
120 -164 197 -203 193 -99 427 -61 570 92 92 98 128 185 137 328 l7 99 55 19
c112 39 390 161 564 248 136 69 181 87 187 77 7 -10 9 -10 9 2 0 12 95 77 143
98 29 13 119 72 109 72 -7 0 -54 -18 -104 -41 -151 -66 -170 -74 -243 -104
-38 -15 -83 -33 -100 -40 -345 -146 -1015 -342 -1333 -390 -51 -8 -118 -19
-150 -24 -163 -28 -491 -59 -617 -57 l-69 1 -13 55 c-8 30 -16 141 -20 245 -5
156 -3 210 11 295 75 446 329 769 791 1003 142 72 415 167 608 213 77 18 78
18 175 -5 144 -35 297 -95 408 -161 55 -32 147 -86 206 -120 131 -74 226 -149
382 -300 196 -190 453 -501 648 -785 30 -44 76 -111 102 -149 49 -71 255 -410
320 -528 21 -38 40 -68 42 -68 2 0 4 572 4 1270 l0 1270 -5120 0 -5120 0 0
-5120z"/>
<path d="M8938 8355 c-37 -289 -54 -357 -135 -520 -188 -376 -518 -607 -938
-656 -417 -49 -865 170 -1080 526 l-32 55 -5 -143 c-10 -261 -85 -483 -229
-677 -161 -216 -329 -322 -619 -387 -46 -11 -102 -14 -195 -10 -174 6 -285 40
-470 146 -136 77 -296 234 -385 376 -53 83 -65 93 -29 22 142 -278 420 -515
714 -608 109 -34 315 -38 441 -9 53 12 126 34 164 50 387 160 646 622 624
1115 l-4 90 28 -50 c53 -94 112 -171 190 -248 109 -109 180 -159 317 -226 210
-103 313 -126 529 -118 109 4 163 11 241 32 390 104 669 366 810 759 46 130
77 316 73 442 -3 97 -3 98 -10 39z"/>
<path d="M5840 7994 c-78 -16 -186 -69 -247 -122 -45 -39 -109 -135 -134 -201
-46 -124 -32 -292 36 -407 65 -109 186 -195 313 -223 191 -41 401 54 507 229
37 61 75 183 75 242 0 64 -29 179 -61 238 -51 96 -149 181 -259 224 -45 18
-180 29 -230 20z"/>
<path d="M4780 7160 c0 -5 5 -10 11 -10 5 0 7 5 4 10 -3 6 -8 10 -11 10 -2 0
-4 -4 -4 -10z"/>
<path d="M7430 6802 c0 -7 15 -52 34 -100 19 -48 44 -118 56 -157 12 -38 25
-80 31 -93 29 -71 97 -385 119 -546 83 -618 -96 -1171 -506 -1566 -413 -397
-1022 -676 -1869 -855 -121 -26 -107 -33 20 -10 145 26 284 55 362 74 43 10
112 27 153 36 201 45 574 167 738 241 29 13 55 24 58 24 8 0 211 102 289 145
39 21 123 75 189 119 403 273 628 602 707 1033 27 149 29 403 4 568 -38 257
-125 540 -248 815 -51 114 -137 284 -137 272z"/>
<path d="M1675 6610 c-160 -34 -222 -255 -136 -487 62 -171 179 -273 295 -259
58 7 90 27 128 82 37 55 48 99 48 195 0 150 -46 284 -127 370 -82 88 -137 114
-208 99z"/>
<path d="M730 6321 c-112 -36 -161 -113 -168 -268 -4 -81 -1 -105 23 -180 34
-111 65 -166 126 -224 69 -65 114 -83 186 -74 51 6 63 12 98 49 81 85 101 224
55 386 -27 96 -65 167 -118 224 -70 73 -144 105 -202 87z"/>
<path d="M4117 6309 c-70 -16 -187 -90 -201 -125 -15 -40 50 -49 168 -22 105
23 223 111 195 144 -13 16 -100 18 -162 3z"/>
<path d="M3335 6003 c-115 -10 -275 -65 -370 -128 -68 -45 -141 -125 -148
-162 -7 -40 18 -82 61 -100 46 -19 215 -13 307 12 176 47 349 163 376 253 16
55 3 85 -50 112 -39 19 -73 22 -176 13z"/>
<path d="M3955 5829 c-107 -23 -168 -52 -223 -103 -38 -36 -68 -89 -52 -94 5
-2 10 -10 10 -17 0 -14 36 -27 85 -31 87 -8 280 65 338 127 22 23 38 74 31 94
-12 31 -104 43 -189 24z"/>
<path d="M9648 4857 c-36 -14 -46 -62 -28 -131 28 -110 86 -204 189 -306 185
-184 351 -174 296 18 -70 240 -325 474 -457 419z"/>
<path d="M8885 4789 c-35 -110 211 -430 330 -429 38 0 48 15 43 62 -10 84 -65
174 -171 279 -101 101 -186 138 -202 88z"/>
<path d="M9745 4012 c-56 -35 -68 -66 -62 -151 8 -121 82 -289 185 -421 95
-121 281 -283 350 -304 l22 -7 0 311 0 312 -52 52 c-102 101 -206 175 -281
202 -71 25 -128 27 -162 6z"/>
<path d="M5133 3453 c9 -2 23 -2 30 0 6 3 -1 5 -18 5 -16 0 -22 -2 -12 -5z"/>
<path d="M4169 2314 c-19 -23 -13 -93 16 -182 42 -128 104 -222 147 -222 22 0
38 37 38 86 0 78 -80 265 -131 309 -35 29 -51 31 -70 9z"/>
<path d="M4639 2044 c-7 -9 -15 -41 -17 -72 -7 -116 61 -284 154 -376 48 -48
79 -62 113 -51 55 17 60 136 12 266 -36 97 -113 217 -151 236 -35 18 -95 16
-111 -3z"/>
<path d="M5750 153 c0 -12 5 -25 10 -28 13 -8 13 15 0 35 -8 12 -10 11 -10 -7z"/>
</g>
</svg>
