<svg width="38" height="51" viewBox="0 0 38 51" fill="none" xmlns="http://www.w3.org/2000/svg">
<path d="M37.5541 22.9102L35.4733 25.0518C35.176 25.3506 34.8209 25.5 34.4081 25.5C33.9952 25.5 33.6402 25.3506 33.3429 25.0518L31.708 23.4082V41.4375C31.708 44.0937 30.7749 46.3516 28.9087 48.2109C27.0426 50.0703 24.8049 51 22.1956 51H15.854C13.2116 51 10.9657 50.0703 9.11604 48.2109C7.26641 46.3516 6.34159 44.0937 6.34159 41.4375H12.6832C12.6832 42.334 12.9887 43.0894 13.5997 43.7036C14.2108 44.3179 14.9622 44.625 15.854 44.625H22.1956C23.0543 44.625 23.7975 44.3179 24.425 43.7036C25.0526 43.0894 25.3664 42.334 25.3664 41.4375V23.4082L23.7314 25.0518C23.4342 25.3506 23.0791 25.5 22.6662 25.5C22.2534 25.5 21.8983 25.3506 21.601 25.0518L19.4707 22.9102C19.1734 22.6113 19.0248 22.2544 19.0248 21.8394C19.0248 21.4243 19.1734 21.0674 19.4707 20.7686L27.0013 13.1982C27.2986 12.8994 27.8105 12.75 28.5372 12.75C29.2308 12.75 29.7427 12.916 30.073 13.248L37.6036 20.7686C37.8679 21.0674 38 21.4243 38 21.8394C38 22.2544 37.8514 22.6113 37.5541 22.9102ZM22.1956 6.375H15.854C14.9622 6.375 14.2108 6.69043 13.5997 7.32129C12.9887 7.95215 12.6832 8.69922 12.6832 9.5625V27.5918L14.2686 25.9482C14.5658 25.6494 14.9209 25.5 15.3338 25.5C15.7466 25.5 16.1017 25.6494 16.399 25.9482L18.5293 28.0898C18.8266 28.3887 18.9752 28.7456 18.9752 29.1606C18.9752 29.5757 18.8266 29.9326 18.5293 30.2314L11.0482 37.8018C10.751 38.1006 10.239 38.25 9.51239 38.25C8.78575 38.25 8.25728 38.084 7.92699 37.752L0.445893 30.2314C0.148631 29.9326 0 29.5757 0 29.1606C0 28.7456 0.148631 28.3887 0.445893 28.0898L2.57627 25.9482C2.87353 25.6494 3.2286 25.5 3.64146 25.5C4.05432 25.5 4.40939 25.6494 4.70665 25.9482L6.34159 27.5918V9.5625C6.34159 6.90625 7.26641 4.64844 9.11604 2.78906C10.9657 0.929688 13.2116 0 15.854 0H22.1956C24.8049 0 27.0426 0.929688 28.9087 2.78906C30.7749 4.64844 31.708 6.90625 31.708 9.5625H25.3664C25.3664 8.69922 25.0526 7.95215 24.425 7.32129C23.7975 6.69043 23.0543 6.375 22.1956 6.375Z" fill="#000C37"/>
</svg>
