<svg width="24" height="25" viewBox="0 0 24 25" fill="none" xmlns="http://www.w3.org/2000/svg">
<path d="M4.02528 13.0917C3.47927 13.0917 3.03664 12.6491 3.03664 12.1031C3.03664 11.5571 3.47927 11.1145 4.02528 11.1145L13.7414 11.1145C14.7471 11.1145 15.2144 9.8671 14.4564 9.20626L11.3229 6.47457C10.8392 6.05282 10.8392 5.301 11.3229 4.87926C11.7214 4.53185 12.3152 4.53185 12.7137 4.87926L20.0592 11.283C20.5566 11.7166 20.5566 12.4896 20.0592 12.9232L12.7137 19.3269C12.3152 19.6744 11.7214 19.6744 11.3229 19.3269C10.8392 18.9052 10.8392 18.1534 11.3229 17.7316L14.4564 14.9999C15.2144 14.3391 14.7471 13.0917 13.7414 13.0917L4.02528 13.0917Z" fill="white"/>
</svg>
