<svg width="24" height="25" viewBox="0 0 24 25" fill="none" xmlns="http://www.w3.org/2000/svg">
<path d="M4.02528 13.0917C3.47927 13.0917 3.03664 12.6491 3.03664 12.103C3.03664 11.557 3.47927 11.1144 4.02528 11.1144L13.7414 11.1144C14.7471 11.1144 15.2144 9.86704 14.4564 9.2062L11.3229 6.4745C10.8392 6.05276 10.8392 5.30094 11.3229 4.87919C11.7214 4.53179 12.3152 4.53179 12.7137 4.87919L20.0592 11.2829C20.5566 11.7165 20.5566 12.4896 20.0592 12.9232L12.7137 19.3269C12.3152 19.6743 11.7214 19.6743 11.3229 19.3269C10.8392 18.9051 10.8392 18.1533 11.3229 17.7316L14.4564 14.9999C15.2144 14.339 14.7471 13.0917 13.7414 13.0917L4.02528 13.0917Z" fill="#16967D"/>
</svg>
