<svg width="71" height="65" viewBox="0 0 71 65" fill="none" xmlns="http://www.w3.org/2000/svg">
<path d="M9.75963 47.6559C11.0376 51.2634 14.9219 53.5655 19.0665 53.5655H19.2292C19.6095 55.2645 20.6187 56.7912 22.0865 57.8877C23.5542 58.9842 25.3904 59.5831 27.2848 59.5834C28.6367 59.5834 29.9 59.2719 31.0182 58.7357C31.4849 58.5014 31.8732 58.1554 32.1416 57.7346C32.41 57.3138 32.5483 56.8342 32.5418 56.3469V8.19818C32.5477 7.5777 32.3201 6.97427 31.8971 6.4894C31.4742 6.00453 30.8817 5.66781 30.2195 5.53589C28.7353 5.27198 27.1975 5.46331 25.8441 6.08026C23.6431 7.04443 22.3532 9.19756 22.3532 11.4373V11.5863C20.7061 11.2785 18.9954 11.4406 17.452 12.0507C15.9086 12.6608 14.6067 13.6895 13.7219 14.9982C12.8371 16.3068 12.412 17.8324 12.5038 19.3691C12.5957 20.9059 13.2001 22.3799 14.2356 23.5924C11.9165 23.925 9.80363 25.0055 8.27821 26.6389C6.75279 28.2723 5.91527 30.3511 5.91675 32.5001C5.91675 35.6905 7.72429 38.4882 10.4519 40.1159C9.17979 42.204 8.76267 44.8446 9.75963 47.6559ZM56.7646 23.5924C57.8001 22.3799 58.4045 20.9059 58.4964 19.3691C58.5882 17.8324 58.163 16.3068 57.2782 14.9982C56.3934 13.6895 55.0915 12.6608 53.5481 12.0507C52.0047 11.4406 50.2941 11.2785 48.6469 11.5863V11.4373C48.6469 9.20026 47.3541 7.04443 45.1531 6.08026C43.8008 5.46312 42.2639 5.27177 40.7807 5.53589C40.1187 5.66827 39.5265 6.00512 39.1037 6.48988C38.6808 6.97465 38.453 7.57783 38.4584 8.19818V56.3442C38.4584 57.3328 39.0264 58.2726 39.9849 58.733C41.1032 59.2719 42.3634 59.5834 43.7154 59.5834C45.6102 59.583 47.4467 58.9836 48.9145 57.8866C50.3823 56.7896 51.3913 55.2623 51.7709 53.5628H51.9366C56.0782 53.5628 59.9655 51.2607 61.2435 47.6532C62.2405 44.8419 61.8233 42.2013 60.5512 40.1132C61.9407 39.2913 63.0833 38.1641 63.875 36.8343C64.6666 35.5045 65.082 34.0145 65.0834 32.5001C65.0849 30.3511 64.2474 28.2723 62.722 26.6389C61.1965 25.0055 59.0837 23.925 56.7646 23.5924V23.5924Z" fill="#000C37"/>
</svg>
