<svg width="42" height="59" viewBox="0 0 42 59" fill="none" xmlns="http://www.w3.org/2000/svg">
<g clip-path="url(#clip0)">
<path d="M25.8105 3.84508H25.8676H25.8105ZM25.8105 3.84508L21.6953 25.5959L36.6699 25.6533L16.3227 55.1518L20.4379 31.2201L5.46328 31.1627L25.8105 3.84508ZM25.8105 0.172119H25.5247C25.2199 0.210379 24.9531 0.277334 24.7245 0.372984C24.4959 0.468634 24.2387 0.612109 23.9529 0.803409C23.6672 0.994709 23.41 1.22427 23.1813 1.49209C23.1432 1.53035 23.1147 1.56861 23.0956 1.60687C23.0766 1.64513 23.048 1.68339 23.0099 1.72165L2.49122 28.9245C1.61485 30.1488 1.51959 31.4306 2.20545 32.7697C2.31976 32.9992 2.46265 33.2192 2.63411 33.4296C2.80558 33.6401 2.99609 33.8314 3.20566 34.0035C3.41523 34.1757 3.64385 34.3192 3.89152 34.434C4.13919 34.5487 4.39639 34.6348 4.66311 34.6922C4.92984 34.7496 5.19656 34.7783 5.46328 34.7783L16.037 34.8357L12.6648 54.5205C12.5124 55.3622 12.6458 56.1561 13.0649 56.9022C13.484 57.6482 14.0746 58.1934 14.8367 58.5378C15.0653 58.6526 15.3035 58.7291 15.5511 58.7673C15.7988 58.8056 16.056 58.8247 16.3227 58.8247C17.4277 58.8247 18.3613 58.3273 19.1233 57.3326L39.642 27.8341C40.5184 26.6098 40.6136 25.3281 39.9278 23.989C39.2419 22.6499 38.156 21.9803 36.6699 21.9803H26.0962L29.4112 4.70593C29.4493 4.55289 29.4779 4.40942 29.497 4.27551C29.516 4.1416 29.5255 3.99812 29.5255 3.84508C29.5255 3.50074 29.4779 3.17553 29.3827 2.86945C29.2874 2.56337 29.1636 2.27642 29.0112 2.0086C28.8587 1.74078 28.6777 1.49209 28.4682 1.26253C28.2586 1.03297 28.0205 0.841669 27.7537 0.688629C27.487 0.535589 27.2012 0.411244 26.8964 0.315594C26.5916 0.219944 26.2868 0.172119 25.9819 0.172119H25.8105Z" fill="#000C37"/>
<path d="M4.65405 29.7632L23.449 3.8208H26.3609V11.2329V23.4099L38.0085 24.7335V27.116L17.6252 56.7644H14.4486L17.6252 33.2045H6.7718L4.65405 29.7632Z" fill="#000C37"/>
</g>
<defs>
<clipPath id="clip0">
<rect width="40.2371" height="58.7674" fill="white" transform="translate(0.947998 0.114746)"/>
</clipPath>
</defs>
</svg>
