<?xml version="1.0" encoding="UTF-8"?>
<svg xmlns="http://www.w3.org/2000/svg" xmlns:xlink="http://www.w3.org/1999/xlink" viewBox="0 0 30 30" width="30px" height="30px">
<g id="surface32883847">
<path style=" stroke:none;fill-rule:nonzero;fill:rgb(100%,100%,100%);fill-opacity:1;" d="M 4 5 C 2.894531 5 2 5.894531 2 7 L 2 23 C 2 24.105469 2.894531 25 4 25 L 26 25 C 27.105469 25 28 24.105469 28 23 L 28 7 C 28 5.894531 27.105469 5 26 5 Z M 23 8 C 24.105469 8 25 8.894531 25 10 C 25 11.105469 24.105469 12 23 12 C 21.894531 12 21 11.105469 21 10 C 21 8.894531 21.894531 8 23 8 Z M 9 12 C 9.621094 12 10.238281 12.238281 10.710938 12.710938 L 16.15625 18.15625 C 16.578125 18.578125 17.257812 18.574219 17.683594 18.152344 C 18.105469 17.730469 18.105469 17.042969 17.683594 16.621094 L 16.53125 15.46875 L 17.289062 14.710938 C 18.234375 13.765625 19.765625 13.765625 20.710938 14.710938 L 25 19 L 25 22 L 5 22 L 5 15 L 7.289062 12.710938 C 7.761719 12.238281 8.378906 12 9 12 Z M 9 12 "/>
</g>
</svg>
