<svg width="229" height="272" viewBox="0 0 229 272" fill="none" xmlns="http://www.w3.org/2000/svg">
<rect y="119" width="153" height="153" rx="12.24" fill="#F8F8F8" fill-opacity="0.79"/>
<path d="M130.201 181.969C125.693 181.969 122.337 184.182 122.337 189.509C122.337 193.521 124.549 196.308 129.957 196.308C134.542 196.308 137.656 193.606 137.656 189.342C137.656 184.51 134.87 181.969 130.201 181.969ZM121.189 219.578C120.122 220.887 119.059 222.279 119.059 223.919C119.059 227.194 123.235 228.18 128.972 228.18C133.724 228.18 140.197 227.846 140.197 223.428C140.197 220.802 137.083 220.64 133.148 220.394L121.189 219.578ZM145.44 182.216C146.912 184.101 148.471 186.724 148.471 190.492C148.471 199.585 141.343 204.91 131.022 204.91C128.397 204.91 126.022 204.583 124.549 204.174L121.844 208.515L129.872 209.006C144.047 209.91 152.401 210.32 152.401 221.212C152.401 230.636 144.129 235.958 129.872 235.958C115.044 235.958 109.39 232.19 109.39 225.718C109.39 222.031 111.029 220.069 113.897 217.36C111.193 216.218 110.292 214.171 110.292 211.957C110.292 210.153 111.193 208.516 112.67 206.957C114.143 205.403 115.781 203.845 117.748 202.042C113.734 200.076 110.701 195.816 110.701 189.752C110.701 180.332 116.929 173.862 129.461 173.862C132.985 173.862 135.116 174.186 137.001 174.681H152.978V181.642L145.44 182.216ZM167.392 167.329C162.721 167.329 160.017 164.623 160.017 159.951C160.017 155.286 162.72 152.743 167.392 152.743C172.143 152.743 174.847 155.286 174.847 159.951C174.847 164.623 172.144 167.329 167.392 167.329ZM156.821 216.563V210.094L161.001 209.522C162.148 209.357 162.311 209.112 162.311 207.881V183.794C162.311 182.895 162.066 182.319 161.244 182.075L156.821 180.517L157.721 173.883H174.682V207.881C174.682 209.194 174.761 209.357 175.994 209.523L180.172 210.095V216.563H156.821ZM212.571 213.387C209.047 215.106 203.885 216.663 199.214 216.663C189.465 216.663 185.78 212.735 185.78 203.472V182.009C185.78 181.518 185.78 181.19 185.122 181.19H179.388V173.897C186.599 173.075 189.465 169.471 190.366 160.54H198.15V172.177C198.15 172.749 198.15 172.996 198.806 172.996H210.357V181.189H198.15V200.768C198.15 205.602 199.298 207.485 203.72 207.485C206.017 207.485 208.39 206.913 210.356 206.175L212.571 213.386" fill="#2F2707"/>
<path d="M91.179 191.887L53.7189 154.43C53.2058 153.916 52.5968 153.509 51.9264 153.232C51.256 152.954 50.5375 152.811 49.8119 152.811C49.0862 152.811 48.3677 152.954 47.6973 153.232C47.027 153.509 46.4179 153.916 45.9049 154.43L38.1263 162.209L47.9939 172.076C49.1537 171.681 50.4009 171.62 51.5941 171.897C52.7872 172.175 53.8787 172.782 54.7448 173.648C55.6156 174.52 56.2236 175.62 56.4993 176.821C56.775 178.022 56.7073 179.276 56.3039 180.441L65.8123 189.951C68.1131 189.158 70.7682 189.671 72.6052 191.511C73.2159 192.122 73.7003 192.846 74.0309 193.644C74.3614 194.442 74.5316 195.296 74.5316 196.16C74.5316 197.023 74.3614 197.878 74.0309 198.676C73.7003 199.474 73.2159 200.198 72.6052 200.809C71.5307 201.884 70.1167 202.554 68.6039 202.704C67.091 202.855 65.5729 202.476 64.3079 201.633C63.0428 200.79 62.109 199.534 61.6655 198.08C61.2219 196.626 61.296 195.063 61.8751 193.657L53.007 184.789L53.0062 208.127C53.649 208.445 54.2362 208.865 54.7448 209.371C55.3555 209.981 55.8399 210.706 56.1704 211.504C56.5009 212.302 56.671 213.157 56.671 214.02C56.671 214.884 56.5009 215.739 56.1704 216.537C55.8399 217.334 55.3555 218.059 54.7448 218.67C52.1759 221.239 48.0124 221.239 45.4475 218.67C44.6812 217.904 44.116 216.961 43.8021 215.924C43.4882 214.887 43.4354 213.789 43.6484 212.727C43.8613 211.665 44.3334 210.671 45.0227 209.836C45.7119 209 46.597 208.348 47.5993 207.936V184.381C46.793 184.052 46.0612 183.564 45.4475 182.946C43.5018 181.003 43.0339 178.148 44.0309 175.758L34.3043 166.03L8.6195 191.713C8.10625 192.227 7.69912 192.836 7.42135 193.506C7.14358 194.177 7.00061 194.896 7.00061 195.622C7.00061 196.347 7.14358 197.066 7.42135 197.737C7.69912 198.407 8.10625 199.017 8.6195 199.53L46.0796 236.988C47.1159 238.024 48.5213 238.606 49.9866 238.606C51.452 238.606 52.8573 238.024 53.8936 236.988L91.179 199.705C92.2152 198.668 92.7973 197.262 92.7973 195.796C92.7973 194.33 92.2152 192.924 91.179 191.887Z" fill="#DE4C36"/>
<rect x="76" width="153" height="153" rx="12.24" fill="#F8F8F8"/>
<path d="M201.937 49.1658C196.818 40.395 189.874 33.451 181.104 28.3325C172.332 23.2138 162.757 20.655 152.37 20.655C141.984 20.655 132.405 23.2145 123.636 28.3325C114.865 33.4508 107.922 40.395 102.803 49.1658C97.6843 57.9364 95.125 67.514 95.125 77.8983C95.125 90.3721 98.7643 101.589 106.045 111.552C113.324 121.515 122.729 128.409 134.257 132.235C135.598 132.484 136.592 132.309 137.238 131.714C137.884 131.118 138.207 130.372 138.207 129.479C138.207 129.33 138.194 127.989 138.169 125.454C138.143 122.919 138.131 120.708 138.131 118.821L136.417 119.118C135.324 119.318 133.945 119.403 132.28 119.379C130.616 119.356 128.888 119.181 127.1 118.857C125.311 118.536 123.646 117.79 122.106 116.623C120.566 115.455 119.473 113.926 118.827 112.039L118.081 110.324C117.584 109.182 116.802 107.914 115.734 106.523C114.665 105.131 113.585 104.188 112.492 103.691L111.97 103.317C111.622 103.069 111.299 102.77 111.001 102.422C110.703 102.075 110.479 101.727 110.33 101.379C110.181 101.03 110.305 100.744 110.703 100.52C111.101 100.296 111.821 100.187 112.865 100.187L114.355 100.41C115.349 100.609 116.578 101.204 118.044 102.198C119.51 103.192 120.715 104.484 121.659 106.073C122.803 108.111 124.18 109.664 125.796 110.732C127.411 111.801 129.038 112.334 130.678 112.334C132.317 112.334 133.733 112.21 134.926 111.963C136.118 111.714 137.236 111.341 138.28 110.844C138.728 107.513 139.945 104.955 141.932 103.166C139.1 102.868 136.554 102.42 134.292 101.824C132.032 101.227 129.696 100.259 127.287 98.9158C124.876 97.5747 122.876 95.9094 121.286 93.9227C119.696 91.9349 118.391 89.3252 117.373 86.0961C116.355 82.8656 115.845 79.1391 115.845 74.9155C115.845 68.9018 117.809 63.7844 121.734 59.5603C119.895 55.0391 120.069 49.9707 122.256 44.3556C123.697 43.9079 125.834 44.2439 128.666 45.3615C131.499 46.4797 133.573 47.4375 134.89 48.2317C136.207 49.0256 137.263 49.6984 138.058 50.244C142.68 48.9525 147.45 48.3066 152.369 48.3066C157.288 48.3066 162.059 48.9525 166.682 50.244L169.514 48.456C171.451 47.2629 173.738 46.1695 176.37 45.1756C179.004 44.1823 181.018 43.9087 182.41 44.3564C184.645 49.9717 184.844 55.0399 183.005 59.5611C186.93 63.7851 188.894 68.9039 188.894 74.9163C188.894 79.1399 188.383 82.8781 187.366 86.1334C186.348 89.3892 185.032 91.9962 183.418 93.96C181.801 95.9235 179.789 97.5758 177.379 98.9166C174.969 100.259 172.632 101.227 170.372 101.824C168.11 102.421 165.564 102.869 162.732 103.167C165.315 105.403 166.607 108.931 166.607 113.751V129.477C166.607 130.37 166.918 131.116 167.539 131.712C168.161 132.307 169.141 132.482 170.483 132.233C182.013 128.407 191.417 121.513 198.696 111.549C205.975 101.587 209.616 90.37 209.616 77.8962C209.613 67.5132 207.052 57.9364 201.937 49.1658Z" fill="#4A4A4A"/>
</svg>
