<svg width="44" height="44" viewBox="0 0 44 44" fill="none" xmlns="http://www.w3.org/2000/svg">
<path d="M0 2.75C0 2.02065 0.289731 1.32118 0.805456 0.805456C1.32118 0.289731 2.02065 0 2.75 0L16.5 0C17.2293 0 17.9288 0.289731 18.4445 0.805456C18.9603 1.32118 19.25 2.02065 19.25 2.75V41.25C19.25 41.9793 18.9603 42.6788 18.4445 43.1945C17.9288 43.7103 17.2293 44 16.5 44H2.75C2.02065 44 1.32118 43.7103 0.805456 43.1945C0.289731 42.6788 0 41.9793 0 41.25V2.75ZM24.75 2.75C24.75 2.02065 25.0397 1.32118 25.5555 0.805456C26.0712 0.289731 26.7707 0 27.5 0L41.25 0C41.9793 0 42.6788 0.289731 43.1945 0.805456C43.7103 1.32118 44 2.02065 44 2.75V16.5C44 17.2293 43.7103 17.9288 43.1945 18.4445C42.6788 18.9603 41.9793 19.25 41.25 19.25H27.5C26.7707 19.25 26.0712 18.9603 25.5555 18.4445C25.0397 17.9288 24.75 17.2293 24.75 16.5V2.75ZM24.75 27.5C24.75 26.7707 25.0397 26.0712 25.5555 25.5555C26.0712 25.0397 26.7707 24.75 27.5 24.75H41.25C41.9793 24.75 42.6788 25.0397 43.1945 25.5555C43.7103 26.0712 44 26.7707 44 27.5V41.25C44 41.9793 43.7103 42.6788 43.1945 43.1945C42.6788 43.7103 41.9793 44 41.25 44H27.5C26.7707 44 26.0712 43.7103 25.5555 43.1945C25.0397 42.6788 24.75 41.9793 24.75 41.25V27.5Z" fill="#000C37"/>
</svg>
