<svg width="66" height="66" viewBox="0 0 66 66" fill="none" xmlns="http://www.w3.org/2000/svg">
<path d="M33 5.5C17.8365 5.5 5.5 17.8365 5.5 33C5.5 48.1635 17.8365 60.5 33 60.5C48.1635 60.5 60.5 48.1635 60.5 33C60.5 17.8365 48.1635 5.5 33 5.5ZM42.6058 24.75C43.1541 24.736 43.6996 24.8319 44.2102 25.0321C44.7209 25.2323 45.1863 25.5327 45.579 25.9156C45.9717 26.2986 46.2837 26.7562 46.4967 27.2617C46.7097 27.7671 46.8193 28.3101 46.8192 28.8585C46.819 29.407 46.709 29.9499 46.4956 30.4552C46.2823 30.9605 45.9699 31.4179 45.577 31.8006C45.184 32.1833 44.7185 32.4834 44.2077 32.6832C43.6969 32.8831 43.1513 32.9786 42.603 32.9643C41.5321 32.9362 40.5146 32.491 39.7672 31.7235C39.0198 30.956 38.6018 29.927 38.6022 28.8558C38.6025 27.7845 39.0213 26.7558 39.7691 25.9888C40.517 25.2219 41.5349 24.7774 42.6058 24.75V24.75ZM23.375 24.75C23.9169 24.7502 24.4534 24.8571 24.954 25.0646C25.4546 25.2722 25.9093 25.5763 26.2924 25.9596C26.6754 26.3429 26.9792 26.7978 27.1864 27.2985C27.3936 27.7993 27.5002 28.3359 27.5 28.8778C27.4998 29.4196 27.3929 29.9562 27.1854 30.4567C26.9778 30.9573 26.6737 31.4121 26.2904 31.7951C25.9071 32.1782 25.4522 32.482 24.9515 32.6892C24.4507 32.8964 23.9141 33.0029 23.3722 33.0028C22.2779 33.0024 21.2285 32.5673 20.4549 31.7932C19.6813 31.0191 19.2469 29.9694 19.2473 28.875C19.2476 27.7806 19.6827 26.7312 20.4568 25.9576C21.2309 25.184 22.2806 24.7496 23.375 24.75ZM33 49.5C22 49.5 19.25 38.5 19.25 38.5H46.75C46.75 38.5 44 49.5 33 49.5Z" fill="#000C37"/>
</svg>
