<?xml version="1.0" encoding="UTF-8"?>
<svg xmlns="http://www.w3.org/2000/svg" xmlns:xlink="http://www.w3.org/1999/xlink" viewBox="0 0 30 30" width="30px" height="30px">
<g id="surface32882791">
<path style=" stroke:none;fill-rule:nonzero;fill:rgb(86.666667%,86.666667%,86.666667%);fill-opacity:1;" d="M 15 2 C 14.738281 2 14.488281 2.101562 14.300781 2.285156 L 3.390625 11.207031 C 3.378906 11.214844 3.367188 11.226562 3.355469 11.234375 L 3.320312 11.269531 C 3.117188 11.457031 3 11.722656 3 12 C 3 12.550781 3.449219 13 4 13 L 5 13 L 5 24 C 5 25.105469 5.894531 26 7 26 L 23 26 C 24.105469 26 25 25.105469 25 24 L 25 13 L 26 13 C 26.550781 13 27 12.550781 27 12 C 27 11.722656 26.886719 11.457031 26.679688 11.265625 L 26.667969 11.253906 C 26.644531 11.234375 26.621094 11.21875 26.597656 11.199219 L 25 9.890625 L 25 6 C 25 5.449219 24.550781 5 24 5 L 23 5 C 22.449219 5 22 5.449219 22 6 L 22 7.4375 L 15.675781 2.265625 C 15.492188 2.097656 15.25 2 15 2 Z M 18 15 L 22 15 L 22 23 L 18 23 Z M 18 15 "/>
</g>
</svg>
