<svg width="32" height="32" viewBox="0 0 32 32" fill="none" xmlns="http://www.w3.org/2000/svg">
<path d="M27.2561 9.4746C26.0936 7.4828 24.5168 5.90588 22.5252 4.74351C20.5332 3.58107 18.3587 3 15.9999 3C13.6414 3 11.4661 3.58125 9.4746 4.74351C7.4828 5.90583 5.906 7.4828 4.74351 9.4746C3.58119 11.4663 3 13.6413 3 15.9995C3 18.8323 3.82646 21.3795 5.47979 23.642C7.13294 25.9046 9.26857 27.4702 11.8865 28.3391C12.1912 28.3956 12.4168 28.3558 12.5635 28.2207C12.7102 28.0854 12.7835 27.916 12.7835 27.7131C12.7835 27.6793 12.7806 27.3747 12.775 26.7991C12.7692 26.2235 12.7664 25.7213 12.7664 25.2929L12.3771 25.3602C12.1289 25.4057 11.8157 25.4249 11.4376 25.4195C11.0597 25.4142 10.6674 25.3746 10.2613 25.301C9.85492 25.228 9.47697 25.0587 9.12712 24.7935C8.77744 24.5284 8.52921 24.1812 8.38247 23.7527L8.21321 23.3632C8.10039 23.1039 7.92276 22.8158 7.6801 22.5C7.43744 22.184 7.19205 21.9697 6.94382 21.8569L6.8253 21.772C6.74633 21.7157 6.67306 21.6477 6.60529 21.5688C6.53759 21.4898 6.4869 21.4109 6.45304 21.3318C6.41913 21.2526 6.44723 21.1877 6.53764 21.1368C6.62806 21.0859 6.79145 21.0611 7.02854 21.0611L7.36695 21.1117C7.59265 21.1569 7.87184 21.2921 8.20485 21.5179C8.53769 21.7435 8.81129 22.0369 9.02573 22.3978C9.28541 22.8606 9.59827 23.2133 9.96519 23.4559C10.3318 23.6986 10.7015 23.8197 11.0738 23.8197C11.4461 23.8197 11.7677 23.7915 12.0386 23.7353C12.3093 23.6789 12.5632 23.594 12.8003 23.4813C12.9018 22.7249 13.1784 22.1438 13.6296 21.7377C12.9865 21.6701 12.4082 21.5683 11.8946 21.4329C11.3813 21.2974 10.8509 21.0774 10.3037 20.7725C9.75615 20.4679 9.30195 20.0897 8.94096 19.6386C8.5799 19.1871 8.28358 18.5945 8.05242 17.8612C7.82115 17.1276 7.70548 16.2813 7.70548 15.3222C7.70548 13.9565 8.15131 12.7944 9.04281 11.8351C8.62519 10.8084 8.66462 9.65738 9.16121 8.38224C9.48847 8.28056 9.97379 8.35686 10.6169 8.61067C11.2602 8.86459 11.7312 9.08212 12.0303 9.26247C12.3295 9.44276 12.5692 9.59554 12.7498 9.71945C13.7995 9.42616 14.8827 9.27948 15.9998 9.27948C17.1168 9.27948 18.2003 9.42616 19.25 9.71945L19.8932 9.31339C20.3331 9.04245 20.8525 8.79416 21.4502 8.56846C22.0483 8.34287 22.5057 8.28074 22.8218 8.38241C23.3294 9.65761 23.3746 10.8085 22.9569 11.8353C23.8483 12.7945 24.2943 13.957 24.2943 15.3224C24.2943 16.2815 24.1783 17.1304 23.9473 17.8697C23.7161 18.609 23.4173 19.2011 23.0506 19.647C22.6836 20.0929 22.2265 20.4682 21.6793 20.7726C21.1319 21.0774 20.6013 21.2973 20.088 21.4329C19.5745 21.5684 18.9962 21.6703 18.3531 21.738C18.9397 22.2456 19.233 23.0468 19.233 24.1414V27.7126C19.233 27.9155 19.3036 28.0849 19.4448 28.2203C19.5858 28.3554 19.8086 28.3952 20.1133 28.3385C22.7316 27.4698 24.8672 25.9041 26.5203 23.6415C28.1732 21.379 29 18.8318 29 15.9991C28.9994 13.6412 28.4179 11.4663 27.2561 9.4746Z" fill="white"/>
</svg>
