<svg width="66" height="66" viewBox="0 0 66 66" fill="none" xmlns="http://www.w3.org/2000/svg">
<path d="M36.3 9.89998C36.3 9.02476 35.9523 8.18539 35.3334 7.56652C34.7145 6.94765 33.8752 6.59998 33 6.59998C32.1247 6.59998 31.2854 6.94765 30.6665 7.56652C30.0476 8.18539 29.7 9.02476 29.7 9.89998V13.2C29.7 14.0752 30.0476 14.9146 30.6665 15.5334C31.2854 16.1523 32.1247 16.5 33 16.5C33.8752 16.5 34.7145 16.1523 35.3334 15.5334C35.9523 14.9146 36.3 14.0752 36.3 13.2V9.89998Z" fill="#000C37"/>
<path d="M51.668 18.9979C52.2691 18.3756 52.6017 17.542 52.5942 16.6767C52.5867 15.8115 52.2396 14.9838 51.6278 14.3719C51.0159 13.7601 50.1882 13.413 49.323 13.4055C48.4577 13.398 47.6241 13.7306 47.0018 14.3317L44.6687 16.6648C44.0675 17.2872 43.7349 18.1208 43.7424 18.9861C43.75 19.8513 44.097 20.679 44.7089 21.2908C45.3207 21.9027 46.1484 22.2498 47.0136 22.2573C47.8789 22.2648 48.7125 21.9322 49.3349 21.331L51.668 18.9979Z" fill="#000C37"/>
<path d="M59.4 33C59.4 33.8752 59.0523 34.7145 58.4335 35.3334C57.8146 35.9523 56.9752 36.3 56.1 36.3H52.8C51.9248 36.3 51.0854 35.9523 50.4665 35.3334C49.8477 34.7145 49.5 33.8752 49.5 33C49.5 32.1247 49.8477 31.2854 50.4665 30.6665C51.0854 30.0476 51.9248 29.7 52.8 29.7H56.1C56.9752 29.7 57.8146 30.0476 58.4335 30.6665C59.0523 31.2854 59.4 32.1247 59.4 33Z" fill="#000C37"/>
<path d="M16.6648 21.331C16.9693 21.6462 17.3334 21.8976 17.736 22.0706C18.1386 22.2435 18.5716 22.3346 19.0098 22.3384C19.448 22.3422 19.8825 22.2587 20.2881 22.0928C20.6937 21.9268 21.0621 21.6818 21.3719 21.3719C21.6818 21.0621 21.9268 20.6936 22.0928 20.2881C22.2587 19.8825 22.3422 19.448 22.3384 19.0098C22.3346 18.5716 22.2435 18.1386 22.0706 17.736C21.8976 17.3334 21.6462 16.9693 21.331 16.6648L18.9979 14.3317C18.3756 13.7306 17.542 13.398 16.6767 13.4055C15.8115 13.413 14.9838 13.7601 14.3719 14.3719C13.7601 14.9838 13.413 15.8115 13.4055 16.6767C13.398 17.542 13.7306 18.3756 14.3317 18.9979L16.6648 21.331V21.331Z" fill="#000C37"/>
<path d="M16.5 33C16.5 33.8752 16.1523 34.7145 15.5334 35.3334C14.9146 35.9523 14.0752 36.3 13.2 36.3H9.89998C9.02476 36.3 8.18539 35.9523 7.56652 35.3334C6.94765 34.7145 6.59998 33.8752 6.59998 33C6.59998 32.1247 6.94765 31.2854 7.56652 30.6665C8.18539 30.0476 9.02476 29.7 9.89998 29.7H13.2C14.0752 29.7 14.9146 30.0476 15.5334 30.6665C16.1523 31.2854 16.5 32.1247 16.5 33Z" fill="#000C37"/>
<path d="M26.4 52.8V49.5H39.6V52.8C39.6 54.5504 38.9047 56.2292 37.6669 57.4669C36.4292 58.7046 34.7505 59.4 33 59.4C31.2496 59.4 29.5709 58.7046 28.3331 57.4669C27.0954 56.2292 26.4 54.5504 26.4 52.8V52.8Z" fill="#000C37"/>
<path d="M39.5999 46.2001C39.6494 45.0781 40.2863 44.0682 41.174 43.3653C43.3279 41.6667 44.899 39.3392 45.6691 36.7065C46.4392 34.0737 46.3699 31.2664 45.4709 28.6748C44.572 26.0832 42.8879 23.8361 40.6529 22.2457C38.4179 20.6554 35.743 19.8008 32.9999 19.8008C30.2568 19.8008 27.5819 20.6554 25.3469 22.2457C23.1119 23.8361 21.4279 26.0832 20.5289 28.6748C19.6299 31.2664 19.5607 34.0737 20.3308 36.7065C21.1008 39.3392 22.672 41.6667 24.8258 43.3653C25.7168 44.0682 26.3504 45.0781 26.3966 46.2001H39.6032H39.5999Z" fill="#000C37"/>
</svg>
