<?xml version="1.0" encoding="utf-8"?>
<!-- Generator: Adobe Illustrator 24.2.1, SVG Export Plug-In . SVG Version: 6.00 Build 0)  -->
<svg version="1.1" id="Слой_1" xmlns="http://www.w3.org/2000/svg" xmlns:xlink="http://www.w3.org/1999/xlink" x="0px" y="0px"
	 viewBox="0 0 5000 3500" style="enable-background:new 0 0 5000 3500;" xml:space="preserve">
<style type="text/css">
	.st0{fill:none;stroke:#FFCF2D;stroke-width:6;stroke-linecap:round;stroke-miterlimit:10;}
	.st1{fill:none;stroke:#66B0F0;stroke-width:6;stroke-linecap:round;stroke-linejoin:round;stroke-miterlimit:10;}
	.st2{fill:#FFFFFF;stroke:#66B0F0;stroke-width:6;stroke-miterlimit:10;}
	.st3{fill:#FFFFFF;stroke:#FFCF2D;stroke-width:6;stroke-miterlimit:10;}
	.st4{fill:#31A1A9;}
	.st5{fill:#E57281;}
	.st6{fill:#FFFFFF;stroke:#FE5244;stroke-width:6;stroke-miterlimit:10;}
	.st7{fill:none;stroke:#FE5244;stroke-width:6;stroke-miterlimit:10;}
	.st8{fill:#3FB1B5;}
	.st9{fill:none;stroke:#FFFFFF;stroke-width:6;stroke-miterlimit:10;}
	.st10{fill:#73325A;}
	.st11{fill:none;stroke:#FE5244;stroke-width:6;stroke-linecap:round;stroke-miterlimit:10;}
	.st12{fill:#9A3B82;}
	.st13{fill:#FFCF2D;}
	.st14{fill:none;stroke:#FFCF2D;stroke-width:6;stroke-miterlimit:10;}
	.st15{fill:#FE5244;}
	.st16{fill:#FFCF2D;stroke:#FFCF2D;stroke-width:6;stroke-miterlimit:10;}
	.st17{fill:#FFFFFF;}
	.st18{fill:none;stroke:#FE5244;stroke-width:5;stroke-miterlimit:10;}
	.st19{fill:#66B0F0;}
	.st20{fill:none;stroke:#FFFFFF;stroke-width:5;stroke-linecap:round;stroke-miterlimit:10;}
	.st21{fill:none;stroke:#FFFFFF;stroke-width:5;stroke-miterlimit:10;}
	.st22{fill:#FFFFFF;stroke:#66B0F0;stroke-width:6;stroke-linejoin:round;stroke-miterlimit:10;}
	.st23{fill:none;stroke:#66B0F0;stroke-width:6;stroke-miterlimit:10;}
	.st24{fill:none;stroke:#9A3B82;stroke-width:5;stroke-linecap:round;stroke-miterlimit:10;}
	.st25{fill:none;stroke:#FFCF2D;stroke-width:5;stroke-linecap:round;stroke-miterlimit:10;}
	.st26{fill:#3FB1B5;stroke:#FFFFFF;stroke-width:5;stroke-miterlimit:10;}
</style>
<g id="CHARACTER_x27_S_LEGS">
	<line id="SHADOW" class="st0" x1="2027.7" y1="3055.3" x2="3163.7" y2="3055.3"/>
	<g id="CHAIR">
		<path class="st1" d="M2595.3,2050.4v445c0,137,71,264.2,187.6,336.1l164.1,101.2"/>
		<path class="st1" d="M2506.4,2050.4v445c0,137-71,264.2-187.6,336.1l-164.1,101.2"/>
		<path class="st2" d="M2446.7,2050.4h200.1c17.7,0,32-14.3,32-32v-50.5h-264.1v50.5C2414.7,2036.1,2429,2050.4,2446.7,2050.4z"/>
		<path class="st3" d="M2954.4,3055.3c-40.6,0-73.5-32.9-73.5-73.5c0-40.6,32.9-73.5,73.5-73.5c40.6,0,73.5,32.9,73.5,73.5
			C3027.9,3022.4,2995,3055.3,2954.4,3055.3"/>
		<path class="st3" d="M2153.1,3055.3c-40.6,0-73.5-32.9-73.5-73.5c0-40.6,32.9-73.5,73.5-73.5c40.6,0,73.5,32.9,73.5,73.5
			C2226.6,3022.4,2193.7,3055.3,2153.1,3055.3"/>
		<path class="st3" d="M2153.1,3039.8c-32,0-58-26-58-58s26-58,58-58c32,0,58,26,58,58S2185.1,3039.8,2153.1,3039.8"/>
		<path class="st3" d="M2954.1,3039.8c-32,0-58-26-58-58s26-58,58-58c32,0,58,26,58,58S2986.1,3039.8,2954.1,3039.8"/>
		<path class="st1" d="M2442.8,2710.4c0,0,95.2-69.8,216.3,0"/>
	</g>
	<g id="RIGHT_LEG">
		<path class="st4" d="M2593,1928l-92,941.3h283.5l233.1-847c42.9-138.2-49.4-278.8-193.1-279.1h-20
			C2698.1,1742.9,2607.9,1821.8,2593,1928z"/>
		<path class="st5" d="M2556.4,2869.3h149.4l-23.5,76.9c-29.5-29.4-70.6-50.6-115.5-53.3c-4.2-0.3-8.3-0.4-12.4-0.4L2556.4,2869.3z"
			/>
		<path class="st6" d="M2727.8,3054.7c7.8-72.4-68.6-156.2-161.1-161.9c-92.5-5.7-149.6,55.4-154.1,128c-0.7,11-1.7,24.4,0.7,34.2
			L2727.8,3054.7z"/>
		<polyline class="st7" points="2415.3,3028.4 2415.3,3028.4 2727.8,3032.1 		"/>
	</g>
	<g id="LEFT_LEG">
		<path class="st8" d="M2673.6,2869.3l236.5-144l-528.8-885.9c-66.9-106.1-236.7-138.9-343.8-73.7l0,0
			c-123.5,75.2-147.7,244.3-50.3,351.1L2673.6,2869.3z"/>
		<path class="st9" d="M2674.6,2865.3l237.5-142l-529.8-883.9c-66.9-106.1-236.7-138.9-343.8-73.7l0,0
			c-123.5,75.2-147.7,244.3-50.3,351.1L2674.6,2865.3z"/>
		<path class="st10" d="M2906.4,2719c-10.5-17.4-72,0.3-137.4,39.7c-65.4,39.3-109.7,86.7-99.2,104.1s71.8-1.7,137.2-41
			C2872.3,2782.5,2916.8,2736.5,2906.4,2719z"/>
		<path class="st5" d="M2892,2831.6l-110.4,69.4l-31.2-35l-9.5-10.7l-39.6-44.4c17-17.4,40.3-35.8,67.8-52.2
			c22.2-13.3,44.1-23.9,63.9-31.1l30.9,54.3l6.8,11.9L2892,2831.6z"/>
		<path class="st6" d="M3066.2,2906.9l-275,148.3h0c-6.9-7.4-12.8-16.1-17.5-26c-4-8.3-7.1-17-9.5-25.8
			c-16.2-60.8,6.7-130.5,79.8-165.3c64.5-30.7,144.8-13.1,191.2,27.3C3048.9,2877.5,3059.7,2891.6,3066.2,2906.9z"/>
		<line class="st11" x1="3051.5" y1="2884.4" x2="2776.4" y2="3032.7"/>
		<path class="st12" d="M2863.7,2781.8c-15.8,13.2-35.2,27-56.9,40c-23.2,14-46,25.4-66.1,33.5l-41.6-44.4
			c17-17.4,42.3-35.8,69.8-52.2c22.2-13.3,44.1-24.9,63.9-32.1L2863.7,2781.8z"/>
		<path class="st9" d="M2900.3,2703.6c-10.5-17.4-76.9-0.1-143.4,39.9c-66.5,40-108.7,86.9-98.2,104.3"/>
	</g>
</g>
<g id="TABLE">
	<path class="st12" d="M3820.9,1967.9c26.1,0,47.3-21.2,47.3-47.3v-181c0-26.1-21.2-47.3-47.3-47.3H1190.5
		c-26.1,0-47.3,21.2-47.3,47.3v181c0,26.1,21.2,47.3,47.3,47.3H3820.9z"/>
	<path class="st3" d="M3820.1,1651.3H1191.2c-26.1,0-47.3,21.2-47.3,47.3v181c0,26.1,21.2,47.3,47.3,47.3h2628.9
		c26.1,0,47.3-21.2,47.3-47.3v-181C3867.4,1672.5,3846.2,1651.3,3820.1,1651.3z"/>
	<line class="st0" x1="3683.2" y1="1927.1" x2="3683.2" y2="3055.7"/>
	<line class="st0" x1="1388.3" y1="1927.1" x2="1388.3" y2="3055.7"/>
</g>
<g id="PLANT">
	<g>
		<g>
			<path class="st12" d="M1301.9,2774.8l-4.2,2.7l-152.6-235.1l-45.9,3.5c-9.8,0.8-17.6-8.1-15.6-17.8c2.1-9.6,12.8-14.6,21.5-9.8
				l37.7,20.7l-27.7-42.8l-45.9,3.6c-9.8,0.8-17.6-8.2-15.5-17.8c2.1-9.6,12.8-14.6,21.5-9.8l37.7,20.6l-27.7-42.8l-45.9,3.6
				c-9.8,0.8-17.6-8.2-15.5-17.8c2.1-9.6,12.8-14.6,21.5-9.8l37.7,20.7l-16.7-25.7l-31-26.5c-7.5-6.4-6.7-18.2,1.5-23.6
				c8.3-5.4,19.4-1.3,22.2,8.2l11.5,39.1l17.2,26.5l-3.6-44c-0.8-9.8,8.1-17.6,17.7-15.6c9.6,2,14.6,12.8,9.9,21.4l-22.2,41
				l28.1,43.3l-3.6-43.9c-0.8-9.8,8.1-17.6,17.7-15.6c9.6,2,14.6,12.8,9.9,21.4l-22.2,41l28.1,43.3l-3.6-43.9
				c-0.8-9.8,8.1-17.7,17.7-15.6c9.6,2,14.6,12.8,9.9,21.4l-22.2,41L1301.9,2774.8z"/>
		</g>
	</g>
	<g>
		<path class="st12" d="M1558.3,2691.7c-73.3,147.7-172.3,250.4-230.8,243.3c-4.8-0.6-9.3-1.9-13.5-4
			c-55.6-27.6-36.4-179.5,43-339.3c34-68.5,73.5-127.2,111.9-169.9c51.3-56.9,100.6-85.2,132.4-69.4
			C1656.9,2380,1637.6,2531.9,1558.3,2691.7z"/>
		<path class="st13" d="M1466.5,2575c-16.3,187.2-76.2,338.2-138.9,360c-4.8-0.6-9.3-1.9-13.5-4c-55.6-27.6-36.4-179.5,43-339.3
			c34-68.5,73.5-127.2,111.9-169.9C1471.8,2468.9,1471.2,2520.8,1466.5,2575z"/>
		<line class="st14" x1="1601.3" y1="2352.4" x2="1327.6" y2="2935"/>
	</g>
	<g>
		<g>
			<path class="st13" d="M1596.1,2784.4l-38.7,13l-25.8,18.1l43.8-5.2c9.8-1.2,17.9,7.4,16.3,17.1v0c-1.7,9.7-12.2,15.1-21.1,10.7
				l-41.8-20.7l-42.3,29.7l43.8-5.2c9.8-1.2,17.9,7.4,16.3,17.1c-1.7,9.7-12.2,15.1-21.1,10.7l-41.8-20.7l-42.2,29.7l43.8-5.2
				c9.8-1.2,17.9,7.4,16.2,17.1c-1.7,9.7-12.2,15.1-21.1,10.7l-41.8-20.7l-77.3,54.3h-8.7l83.3-58.5l-5.2-45.7
				c-1.1-9.8,7.5-17.9,17.2-16.2c9.7,1.7,15,12.3,10.6,21.1l-19.3,38.5l41.7-29.3l-5.2-45.7c-1.1-9.8,7.5-17.9,17.2-16.2
				c9.7,1.7,15,12.3,10.6,21.1l-19.2,38.4l41.7-29.3l-5.2-45.7c-1.1-9.8,7.5-17.9,17.2-16.2c9.7,1.7,15,12.3,10.6,21.1l-19.3,38.5
				l25.1-17.6l25.3-32c6.1-7.7,18-7.4,23.6,0.7C1609.2,2770,1605.5,2781.3,1596.1,2784.4z"/>
		</g>
	</g>
	<g>
		<path class="st3" d="M1282.4,2927.2c-5,1.7-10.3,2.9-15.7,3.6c-63,8.2-150-50.6-202.6-139.9c-57.1-97-51.9-193.2,11.6-215
			c20.6-7.1,44.9-5.4,70.1,3.4c52.6,18.3,109.6,67.3,148.2,132.8C1351,2809.2,1345.8,2905.4,1282.4,2927.2z"/>
		<path class="st13" d="M1282.4,2927.2c-5,1.7-10.3,2.9-15.7,3.6c-58.2-26.4-108.8-138.2-119.5-274c-2.1-26.8-2.5-52.8-1.4-77.5
			c52.6,18.3,109.6,67.3,148.2,132.8C1351,2809.2,1345.8,2905.4,1282.4,2927.2z"/>
		<line class="st14" x1="1051.6" y1="2590" x2="1266.6" y2="2930.8"/>
	</g>
	<g>
		<ellipse class="st3" cx="1308" cy="2564.1" rx="126" ry="374.9"/>
		<line class="st14" x1="1308" y1="2189.1" x2="1308" y2="2939"/>
		<polyline class="st0" points="1388.3,2279 1308,2386.6 1239.9,2251.8 		"/>
		<polyline class="st0" points="1414.4,2370.2 1307.2,2517.6 1210.8,2331.1 		"/>
		<polyline class="st0" points="1431.1,2475.4 1306.2,2647.6 1192.1,2427.6 		"/>
		<polyline class="st0" points="1438.9,2615.8 1306.8,2800.6 1182.3,2564.4 		"/>
	</g>
	<path class="st2" d="M1494.8,3055.7h-373.9c-28.8,0-52.2-23.4-52.2-52.2v-16.3c0-28.8,23.4-52.2,52.2-52.2h373.9
		c28.8,0,52.2,23.4,52.2,52.2v16.3C1547,3032.4,1523.6,3055.7,1494.8,3055.7z"/>
</g>
<g id="BOOKS">
	<path class="st15" d="M3696,1756.4L3696,1756.4c0,14.9-11.9,27-26.5,27h-407.3c-14.7,0-26.5-12.1-26.5-27l0,0
		c0-14.9,11.9-27,26.5-27h407.3C3684.1,1729.4,3696,1741.5,3696,1756.4z"/>
	<g>
		<path class="st3" d="M3524.1,1475.2h-166.7v116h322v0C3659,1522.4,3595.8,1475.2,3524.1,1475.2z"/>
		<polygon class="st16" points="3387.4,1475.2 3387.4,1591.2 3318.4,1591.3 3318.4,1475.2 		"/>
		<path class="st14" d="M3934.7,1588.9l-255.3,2.3c0,0,63.9-86.6,239.3-63.7c0,0-137.2-28.6-276.4,0"/>
		<path class="st14" d="M3679.4,1591.2c0,0,111.9-61.5,248.3-31.7"/>
	</g>
	<g>
		<path class="st13" d="M3707.9,1686.1c0,10.9,1.7,20.8,4.4,28.1h-122.5c-6.3,0-11.5-5.5-11.5-12.2v-31.7c0-6.8,5.1-12.2,11.5-12.2
			h122.5C3709.6,1665.3,3707.9,1675.2,3707.9,1686.1z"/>
		<path class="st17" d="M3578.4,1670.3v31.7c0,6.8,5.5,12.2,12.2,12.2h131.6v2.3c0,5.6-4.5,10.1-10.1,10.1h-460.3
			c-5.6,0-10.1-4.5-10.1-10.1v-60.8c0-5.6,4.5-10.1,10.1-10.1h460.3c5.6,0,10.1,4.5,10.1,10.1v2.3h-131.6
			C3583.9,1658.1,3578.4,1663.5,3578.4,1670.3z"/>
		<path class="st14" d="M3578.4,1670.3v31.7c0,6.8,5.5,12.2,12.2,12.2h131.6v2.3c0,5.6-4.5,10.1-10.1,10.1h-460.3
			c-5.6,0-10.1-4.5-10.1-10.1v-60.8c0-5.6,4.5-10.1,10.1-10.1h460.3c5.6,0,10.1,4.5,10.1,10.1v2.3h-131.6
			C3583.9,1658.1,3578.4,1663.5,3578.4,1670.3z"/>
	</g>
	<g>
		<path class="st13" d="M3406.9,1805.1c-4.8,4.5-7.8,12.7-7.8,19.6c0,13.7,12,27.8,26.8,27.8h368.8l0,0c0,6.4-5.2,11.7-11.7,11.7
			h-445.1c-11.9,0-22.7-4.5-30.5-11.7c-7.8-7.2-12.7-17.2-12.7-28.3c0-22.1,19.3-40,43.2-40H3783c6.4,0,11.7,5.2,11.7,11.7v2.1
			h-368.8C3418.4,1797.9,3411.7,1800.7,3406.9,1805.1z"/>
		<path class="st15" d="M3768,1797.9v53.6h26.6v4.5h-370c-4.1,0-8.1-0.8-11.7-2.3c0,0,0,0,0,0c-3.9-1.6-7.5-3.9-10.4-6.9
			c-5.7-5.7-9.2-13.5-9.2-22.1c0-17.3,14-31.3,31.3-31.3h370v4.5H3768z"/>
		<path class="st17" d="M3778.3,1797.9v53.6h-352.4c-14.8,0-26.8-12-26.8-26.8c0-7.4,3-14.1,7.8-19c4.8-4.8,11.5-7.8,18.9-7.8
			H3778.3z"/>
		<line class="st18" x1="3778.3" y1="1797.9" x2="3778.3" y2="1851.5"/>
		<path class="st15" d="M3475,1835.9v44.7h-30.9v-39c0-9.3-7.5-16.9-16.9-16.9h-13.8v-5.7h44.7C3467.5,1819,3475,1826.6,3475,1835.9
			z"/>
	</g>
	<g>
		<path class="st19" d="M3796.1,1593.7h-525.4c-13.6,0-24.6,11-24.6,24.6l0,0c0.1,13.5,11,24.5,24.6,24.5h525.4
			c13.6,0,24.6-11,24.6-24.6v0C3820.6,1604.7,3809.6,1593.7,3796.1,1593.7z"/>
		<g>
			<g>
				<path class="st12" d="M3676.9,1642.9h-5.3c0.6,1.6,2.1,5.6,5.4,5.6c2,0,11.8-1.5,11.8-30.2c0-10.2-1.2-18-3.6-23.3
					c-2.9-6.3-6.7-7-8.1-7c-3.4,0-4.9,4.1-5.5,5.7h5.3c0.2-0.4,0.4-0.6,0.5-0.7c1.8,0.5,6.6,5.5,6.6,25.3s-4.8,24.7-6.6,25.3
					C3677.2,1643.4,3677,1643.2,3676.9,1642.9z"/>
			</g>
			<g>
				<path class="st12" d="M3720.3,1642.9h-5.3c0.6,1.6,2.1,5.6,5.4,5.6c2,0,11.8-1.5,11.8-30.2c0-10.2-1.2-18-3.6-23.3
					c-2.9-6.3-6.7-7-8.1-7c-3.4,0-4.9,4.1-5.5,5.7h5.3c0.2-0.4,0.4-0.6,0.5-0.7c1.8,0.5,6.6,5.5,6.6,25.3s-4.8,24.7-6.6,25.3
					C3720.7,1643.4,3720.5,1643.2,3720.3,1642.9z"/>
			</g>
			<g>
				<path class="st12" d="M3763.8,1642.9h-5.3c0.6,1.6,2.1,5.6,5.4,5.6c2.8,0,11.8-2.2,11.8-30.2c0-28.1-9-30.2-11.8-30.2
					c-3.4,0-4.9,4.1-5.5,5.7h5.3c0.2-0.4,0.4-0.6,0.5-0.7c2,0.5,6.6,5.7,6.6,25.3c0,12-1.7,18.2-3.2,21.4c-1.2,2.6-2.5,3.7-3.4,3.9
					C3764.1,1643.4,3764,1643.2,3763.8,1642.9z"/>
			</g>
			<g>
				<path class="st12" d="M3546.4,1642.9h-5.3c0.6,1.6,2.1,5.6,5.4,5.6c2,0,11.8-1.5,11.8-30.2c0-28.1-9-30.2-11.8-30.2
					c-3.4,0-4.9,4.1-5.5,5.7h5.3c0.2-0.4,0.4-0.6,0.5-0.7c2,0.5,6.6,5.7,6.6,25.3c0,19.8-4.8,24.7-6.6,25.3
					C3546.8,1643.4,3546.6,1643.2,3546.4,1642.9z"/>
			</g>
			<g>
				<path class="st12" d="M3589.9,1642.9h-5.3c0.6,1.6,2.1,5.6,5.4,5.6c1.9,0,5.4-0.8,8.1-6.4c2.4-5.1,3.7-13.1,3.7-23.8
					c0-10.7-1.2-18.7-3.7-23.8c-2.7-5.6-6.2-6.4-8.1-6.4c-3.4,0-4.9,4.1-5.5,5.7h5.3c0.2-0.4,0.4-0.6,0.5-0.7
					c1.2,0.2,2.4,1.5,3.4,3.6c1.4,3,3.2,9.2,3.2,21.7c0,12.4-1.7,18.6-3.2,21.7c-1,2.1-2.3,3.4-3.4,3.6
					C3590.2,1643.4,3590.1,1643.2,3589.9,1642.9z"/>
			</g>
			<g>
				<path class="st12" d="M3633.4,1642.9h-5.3c0.6,1.6,2.1,5.6,5.4,5.6c2.8,0,11.8-2.2,11.8-30.2c0-28.8-9.8-30.2-11.8-30.2
					c-3.4,0-4.9,4.1-5.5,5.7h5.3c0.2-0.4,0.4-0.6,0.5-0.7c1.8,0.5,6.6,5.5,6.6,25.3c0,19.6-4.6,24.8-6.6,25.3
					C3633.7,1643.4,3633.6,1643.2,3633.4,1642.9z"/>
			</g>
			<g>
				<path class="st12" d="M3416,1642.9h-5.3c0.6,1.6,2.1,5.6,5.4,5.6c1.5,0,5.3-0.7,8.1-7c2.4-5.2,3.6-13.1,3.6-23.3
					c0-9.4-1.3-17.3-3.6-22.7c-2.1-4.8-5.1-7.6-8.2-7.6c-3.4,0-4.9,4.1-5.5,5.7h5.3c0.2-0.3,0.3-0.6,0.4-0.7c0.6,0.3,2,1.4,3.4,4.6
					c1.5,3.3,3.2,9.6,3.2,20.6c0,19.8-4.8,24.7-6.6,25.3C3416.3,1643.4,3416.2,1643.2,3416,1642.9z"/>
			</g>
			<g>
				<path class="st12" d="M3459.5,1642.9h-5.3c0.6,1.6,2.1,5.6,5.4,5.6c1.5,0,5.3-0.7,8.1-7c2.4-5.2,3.6-13.1,3.6-23.3
					c0-28.1-9-30.2-11.8-30.2c-3.4,0-4.9,4.1-5.5,5.7h5.3c0.2-0.4,0.4-0.6,0.5-0.7c2,0.5,6.6,5.7,6.6,25.3c0,19.8-4.8,24.7-6.6,25.3
					C3459.8,1643.4,3459.7,1643.2,3459.5,1642.9z"/>
			</g>
			<g>
				<path class="st12" d="M3503,1642.9h-5.3c0.6,1.6,2.1,5.6,5.4,5.6c2.8,0,11.8-2.2,11.8-30.2c0-10.7-1.2-18.7-3.7-23.8
					c-2.7-5.6-6.2-6.4-8.1-6.4c-3.4,0-4.9,4.1-5.5,5.7h5.3c0.2-0.4,0.4-0.6,0.5-0.7c1.2,0.2,2.4,1.5,3.4,3.6c1.4,3,3.2,9.2,3.2,21.7
					c0,19.6-4.6,24.8-6.6,25.3C3503.3,1643.4,3503.1,1643.2,3503,1642.9z"/>
			</g>
			<g>
				<path class="st12" d="M3285.6,1642.9h-5.3c0.6,1.6,2.1,5.6,5.4,5.6c3.1,0,6-2.8,8.2-7.6c2.4-5.4,3.6-13.2,3.6-22.7
					c0-11.1-2-18.1-3.6-22c-2.2-5.2-5.2-8.2-8.2-8.2c-3.4,0-4.9,4.1-5.5,5.7h5.3c0.2-0.3,0.3-0.5,0.4-0.7c0.7,0.4,2.2,1.8,3.6,5.6
					c1.4,3.5,3,9.7,3,19.6c0,11.1-1.7,17.3-3.2,20.7c-1.4,3.2-2.8,4.3-3.4,4.6C3285.9,1643.4,3285.7,1643.2,3285.6,1642.9z"/>
			</g>
			<g>
				<path class="st12" d="M3329,1642.9h-5.3c0.6,1.6,2.1,5.6,5.4,5.6c3.1,0,6-2.8,8.2-7.6c2.4-5.4,3.6-13.2,3.6-22.7
					c0-19.6-6.1-30.2-11.8-30.2c-3.4,0-4.9,4.1-5.5,5.7h5.3c0.2-0.3,0.3-0.5,0.4-0.7c0.7,0.4,2.1,1.8,3.6,5.4c1.4,3.4,3,9.7,3,19.8
					c0,11.1-1.7,17.3-3.2,20.7c-1.4,3.2-2.8,4.3-3.4,4.6C3329.3,1643.4,3329.2,1643.2,3329,1642.9z"/>
			</g>
			<g>
				<path class="st12" d="M3372.5,1642.9h-5.3c0.6,1.6,2.1,5.6,5.4,5.6c1.5,0,5.2-0.7,8.2-7.4c2.4-5.4,3.6-13.1,3.6-22.8
					c0-9.4-1.3-17.3-3.6-22.7c-2.1-4.8-5.1-7.6-8.2-7.6c-3.4,0-4.9,4.1-5.5,5.7h5.3c0.2-0.3,0.3-0.6,0.4-0.7c0.6,0.3,2,1.4,3.4,4.6
					c1.5,3.3,3.2,9.6,3.2,20.6c0,11.3-1.7,17.5-3.2,20.8c-1.4,3.1-2.8,4.2-3.4,4.4C3372.8,1643.4,3372.7,1643.2,3372.5,1642.9z"/>
			</g>
		</g>
	</g>
</g>
<g id="CLOCK">
	<path class="st13" d="M3610.5,890.8h-350.6c-20.3,0-36.7-16.4-36.7-36.7V503.5c0-20.3,16.4-36.7,36.7-36.7h350.6
		c20.3,0,36.7,16.4,36.7,36.7v350.6C3647.2,874.4,3630.7,890.8,3610.5,890.8z"/>
	<path class="st3" d="M3584.9,867.3h-357.5c-20.3,0-36.7-16.4-36.7-36.7V473.1c0-20.3,16.4-36.7,36.7-36.7h357.5
		c20.3,0,36.7,16.4,36.7,36.7v357.5C3621.6,850.9,3605.2,867.3,3584.9,867.3z"/>
	<circle class="st14" cx="3406.2" cy="651.8" r="165"/>
	<polyline class="st0" points="3313.4,581 3406.2,651.8 3383.4,581.9 	"/>
</g>
<g id="PAPER">
	<polygon class="st13" points="3112.4,1926.9 2829.7,1926.9 2711,1784.3 2986.9,1784.3 	"/>
	<g>
		<g>
			<path class="st2" d="M3265.5,1934.3v88l-224,0.9c-28.7,0.1-52-23.1-52-51.8v-27.3c0-18.2-6.7-35.7-18.7-49.2l-73.9-83h275.9
				l70.6,69.7C3257.6,1895.5,3265.5,1914.4,3265.5,1934.3z"/>
		</g>
		<path class="st2" d="M3366.3,1991.3c-9.5,19-29.1,32-51.8,32h-276c22.6,0,42.2-13,51.8-32H3366.3z"/>
	</g>
</g>
<g id="CHARACTER">
	<g id="HOODY">
		<path class="st15" d="M3195.2,1443.2l-168.4-295.8c-40.2-70.7-115.3-114.3-196.6-114.3h-630.7l22.1-47.7
			c-1.8,3.9-11.3,4.9-25.8,2.9c-22.2-3-56-12.7-92-28.7c-20.6-9.1-39.3-18.6-54.8-27.4c-29.3-16.7-47-31.3-44.1-37.8l-322,528.1
			c-70.7,103.1,3.1,243.2,128.1,243.2c16.8,0,33.4-2.7,49.2-8c15.8-5.3,30.7-13.1,44.1-23.2l247.3-185.9
			c14.9-11.2,36.2-2.5,39.2,15.8l32.3,201.3h842.6C3180,1665.8,3251.7,1542.4,3195.2,1443.2z M2820.4,1466.3l27-61.4
			c4.6-10.5,19.4-10.7,24.2-0.3l29.3,61.8H2820.4z"/>
		<path class="st7" d="M2299.9,1032.9c0-51.7,106.7-115.6,236.1-131.9c194.1-24.3,236.1,80.2,236.1,131.9"/>
		<path class="st15" d="M2749.7,1033.8c0,46.3-213.7,141.1-213.7,141.1s-213.7-94.8-213.7-141.1c0-46.3,101.6-99.9,218.7-114.2
			C2709.5,899,2749.7,987.4,2749.7,1033.8z"/>
		<path class="st17" d="M2749.7,1033.8c0,46.3-213.7,141.1-213.7,141.1s-213.7-94.8-213.7-141.1c0-0.2,0-0.4,0-0.6h427.4
			C2749.7,1033.3,2749.7,1033.5,2749.7,1033.8z"/>
		<path class="st9" d="M2772,1032.8c0,51.1-236,167.3-236,167.3s-236-116.1-236-167.3"/>
		<path class="st20" d="M2718.1,1663.5c13.2,0,23.9-43.7,23.9-97.5s-10.7-97.5-23.9-97.5"/>
		<line class="st21" x1="2216.7" y1="1005" x2="2031.6" y2="1375.1"/>
		<line class="st20" x1="2176.5" y1="1366.6" x2="2207.1" y2="1568"/>
		<g>
			<g>
				<line class="st20" x1="2526" y1="1223.8" x2="2546" y2="1223.8"/>
				<line class="st20" x1="2526" y1="1247.6" x2="2546" y2="1247.6"/>
				<line class="st20" x1="2526" y1="1271.3" x2="2546" y2="1271.3"/>
				<line class="st20" x1="2526" y1="1295" x2="2546" y2="1295"/>
				<line class="st20" x1="2526" y1="1318.7" x2="2546" y2="1318.7"/>
				<line class="st20" x1="2526" y1="1342.5" x2="2546" y2="1342.5"/>
				<line class="st20" x1="2526" y1="1343.6" x2="2546" y2="1343.6"/>
				<line class="st20" x1="2526" y1="1367.3" x2="2546" y2="1367.3"/>
				<line class="st20" x1="2526" y1="1391" x2="2546" y2="1391"/>
				<line class="st20" x1="2526" y1="1413.6" x2="2546" y2="1413.6"/>
				<line class="st20" x1="2526" y1="1437.4" x2="2546" y2="1437.4"/>
				<line class="st20" x1="2526" y1="1461.1" x2="2546" y2="1461.1"/>
				<line class="st20" x1="2526" y1="1484.8" x2="2546" y2="1484.8"/>
				<line class="st20" x1="2526" y1="1508.5" x2="2546" y2="1508.5"/>
				<line class="st20" x1="2526" y1="1532.3" x2="2546" y2="1532.3"/>
				<line class="st20" x1="2526" y1="1556" x2="2546" y2="1556"/>
				<line class="st20" x1="2526" y1="1579.7" x2="2546" y2="1579.7"/>
				<line class="st20" x1="2526" y1="1603.4" x2="2546" y2="1603.4"/>
				<line class="st20" x1="2526" y1="1604.6" x2="2546" y2="1604.6"/>
				<line class="st20" x1="2526" y1="1628.3" x2="2546" y2="1628.3"/>
				<line class="st20" x1="2526" y1="1652" x2="2546" y2="1652"/>
			</g>
			<line class="st21" x1="2523.9" y1="1191.5" x2="2523.9" y2="1568"/>
		</g>
		<line class="st20" x1="2706.5" y1="1468.3" x2="2947" y2="1468.3"/>
	</g>
	<g id="BOOK">
		<polygon class="st2" points="2037.3,1861.8 2805.2,1861.8 2733,1666.5 2120.5,1666.5 		"/>
		<path class="st19" d="M2037.3,1861.8c0-27.6,73.2-77.5,192.1-84.3c127.3-7.2,194,72.8,192.1,84.3H2037.3z"/>
		<path class="st22" d="M2421.4,1861.8c0,0-33.8-158-330.5-125.8l64.1-155.9c0,0,243-44.2,266.5,86.4L2421.4,1861.8z"/>
		<path class="st22" d="M2800.7,1849.5c-17.7-24.5-85.9-50.1-187.5-55.9c-120.8-6.9-187,50.5-191.8,66.1l0-193.2
			c0,0,86.2-98.4,311.6,0L2800.7,1849.5z"/>
		<path class="st1" d="M2697,1768.7c-25.2-6.4-55.7-11.2-90.5-13.2c-17.3-1-33.4-0.5-48.2,1.1c-36.7,4.1-65.6,15.1-86.2,26.9"/>
		<path class="st1" d="M2688.1,1735.4c-24.1-5.7-52.8-10-85.2-11.9c-17.3-1-33.4-0.5-48.2,1.1c-36.7,4.1-65.6,15.1-86.2,26.9"/>
		<path class="st1" d="M2679.9,1702.2c-23-5.1-49.7-8.9-79.7-10.7c-17.3-1-33.4-0.5-48.2,1.1c-36.7,4.1-65.6,15.1-86.2,26.9"/>
		<line class="st23" x1="2712.9" y1="1657.7" x2="2776.5" y2="1830.9"/>
		<path class="st19" d="M2805.3,1861.8h-383.9v-2.1c4.8-15.6,71-73,191.8-66.1c101.6,5.8,169.8,31.4,187.5,55.9L2805.3,1861.8z"/>
	</g>
	<g id="HEAD_1_">
		<g id="NECK">
			<path class="st5" d="M2658.5,1033.1c0,0-71.6,37.3-171,22.3h0c-24.7-3.7-51.2-10.7-78.6-22.3V912.7l128.8-80.2l19.3,32.1
				L2658.5,1033.1z"/>
			<path class="st12" d="M2544.8,842c7.7,14.3,9,31.3,3.4,46.6l-60.7,166.8h0c-24.7-3.7-51.2-10.7-78.6-22.3V912.7l129.4-82.7
				L2544.8,842z"/>
		</g>
		<path id="HAIR" class="st12" d="M2533.7,788.1c0,0,15.1-134.3-38.6-146.6c-41-9.4-61.4,21.5-61.4,21.5s-22.2-32.4-56.6-17.2
			c-32.7,14.4-30.4,59.3-15.7,55.7s-14.2-32.4-45.1-11.1c-34.2,23.5,0,62.3,0,62.3s-25.3-12.2-37,12.7
			c-14.5,30.9,68.3,97.5,68.3,97.5L2533.7,788.1z"/>
		<g id="HEAD">
			<path id="HEAD_2_" class="st5" d="M2451.9,723.2l-85.9,34.5c-20.7,8.3-30.8,32-22.5,52.6l37.5,93.5
				c13.8,34.5,53.4,51.3,87.8,37.5l35.7-14.3c34.5-13.8,51.3-53.4,37.5-87.8l-37.5-93.5C2496.2,725,2472.5,714.9,2451.9,723.2z"/>
			<g id="EARS">
				<path class="st5" d="M2559.3,832.2l-17.3,7l-18.8-46.8l17.3-7c10.3-4.1,21.9,0.9,26,11.1l3.9,9.7
					C2574.6,816.4,2569.6,828,2559.3,832.2z"/>
				<path class="st12" d="M2362.4,907.4l17.3-7l-17.5-43.5l-17.3,7c-10.3,4.1-15.2,15.8-11.1,26l2.6,6.4
					C2340.5,906.5,2352.1,911.5,2362.4,907.4z"/>
				<path class="st24" d="M2538.2,817.2c-3.2-8.1,0.7-17.2,8.8-20.5"/>
			</g>
			<g id="FACE">
				<path class="st24" d="M2454.1,773.9c0,0,20.3,7.6,46.1-4.6"/>
				<path class="st24" d="M2411.2,808.1c0,0,30.3-3.1,41.3,47.9"/>
				<path class="st24" d="M2497.2,872.6c0,0-44.7-12-43.1,11.1"/>
				
					<ellipse transform="matrix(0.9426 -0.3339 0.3339 0.9426 -129.6316 877.4178)" class="st12" cx="2487.6" cy="815.8" rx="4.1" ry="10.1"/>
				
					<ellipse transform="matrix(0.9426 -0.3339 0.3339 0.9426 -145.8348 851.8586)" class="st12" cx="2405.1" cy="850.2" rx="4.1" ry="10.1"/>
			</g>
			<g id="GLASSES">
				<circle class="st25" cx="2490" cy="815.6" r="28.9"/>
				<circle class="st25" cx="2405" cy="848.6" r="28.9"/>
				<line class="st25" x1="2432" y1="838.2" x2="2462.5" y2="824.2"/>
			</g>
		</g>
	</g>
	<g id="ARMS">
		<g id="LEFT">
			<path class="st6" d="M2227.6,974.4c-1.7,3.9-11.3,4.9-25.8,2.9c-22.2-3-56-12.7-92-28.7c-20.6-9.2-39.3-18.6-54.7-27.4
				c-29.3-16.7-47-31.3-44.1-37.8v0c2.9-6.4,25.4-3.3,57.2,7c17.1,5.5,36.8,13.1,57.6,22.4c35.6,15.8,66.5,31.2,84.7,43.1
				C2222.9,963.9,2229.4,970.4,2227.6,974.4z"/>
			<path class="st12" d="M2397.3,771.6l-27.2,105.1l-24.5-61c-9.4-23.4,1.9-50.2,25-60L2397.3,771.6z"/>
			<path class="st5" d="M2398.3,769.7l-54,93.6c-6.2,10.8-17.8,17.5-30.3,17.5h-55.8c-8.2,0-15.5,5-18.6,12.5l-29,62.7l-8.5,18.3
				c-24.5-3.3-58.6-13.9-91.2-28.4c-12.2-5.4-24.1-11.1-35.1-16.8l14.7-30.7l26.3-54.9c12.6-29.7,34.3-54.7,62-71.3l54.4-32.7
				c7.2-4.3,15.5-6.6,23.9-6.6h92.4c5.1,0,10.1,1.1,14.6,3.3l27.8,13.2C2399.6,753.1,2402.5,762.4,2398.3,769.7z"/>
			<path class="st24" d="M2267.7,772.7h66c4.9,0,9.7,1.1,14.1,3.2l26.7,12.8c7.3,3.5,10.1,12.5,6.1,19.5"/>
			<path class="st24" d="M2251.3,801.1h66c4.9,0,9.7,1.1,14.1,3.2l26.7,12.8c7.3,3.5,10.1,12.5,6.1,19.5"/>
			<path class="st24" d="M2232,838.2h66c4.9,0,9.7,1.1,14.1,3.2l26.7,12.8c7.3,3.5,10.1,12.5,6.1,19.5"/>
			<path class="st12" d="M2202.2,974.3c-24.5-3.3-58.6-13.9-91.2-28.4c-12.2-5.4-24.1-11.1-35.1-16.8l16.6-33.9
				c11.1,4.2,22,9,34.2,14.5c35.6,15.8,66.7,32.3,84.9,44.2L2202.2,974.3z"/>
			<line class="st24" x1="2212.5" y1="878.1" x2="2259.3" y2="878.1"/>
		</g>
		<g id="RIGHT">
			<ellipse class="st17" cx="2706.1" cy="1566" rx="23.9" ry="99.7"/>
			<path class="st5" d="M2730,1566c0,17.1-1,33.2-2.9,47.3c-6.2,15.8-18.9,28.3-34.9,34.2c-6.5,2.4-13.6,3.8-21,3.8h-90.7
				c-11.4,0-20.7,9.3-20.7,20.7v2.8c0,16.7-17.8,27.5-32.6,19.7l-42.6-22.3c-7.6-4-12.4-11.9-12.4-20.5v-33.3
				c0-12.5,5.9-24.2,15.8-31.7l65-48.9c11-8.3,24.4-12.7,38.1-12.7h136.7C2729.3,1537.6,2730,1551.4,2730,1566z"/>
			<path class="st24" d="M2569.4,1557.3l-59.7,44.9c-9.1,6.9-14.5,17.7-14.5,29.1v30.6c0,7.9,4.4,15.2,11.4,18.8"/>
			<path class="st24" d="M2599.8,1570.7l-59.7,44.9c-9.1,6.9-14.5,17.7-14.5,29.1v30.6c0,7.9,4.4,15.2,11.4,18.8"/>
			<path class="st12" d="M2730,1566c0,17.1-1,33.2-2.9,47.3c-6.2,15.8-18.9,28.3-34.9,34.2c-6.1-18.1-10.1-47.8-10.1-81.5
				c0-14.6,0.8-28.4,2.1-40.9h43.7C2729.3,1537.6,2730,1551.4,2730,1566z"/>
		</g>
	</g>
</g>
<g id="CUP">
	<ellipse class="st13" cx="2903.7" cy="1702.2" rx="108.4" ry="9.1"/>
	<path class="st3" d="M2993.9,1709.1h-44.8c-41.6,0-75.2-33.7-75.2-75.2V1570h195.3v63.8C3069.2,1675.4,3035.5,1709.1,2993.9,1709.1
		z"/>
	<path class="st14" d="M3096.5,1624.7h-27.4V1576h27.4c11.7,0,21.3,9.5,21.3,21.3v6.2C3117.8,1615.2,3108.2,1624.7,3096.5,1624.7z"
		/>
	<ellipse class="st26" cx="2971.5" cy="1569.3" rx="98.5" ry="19.7"/>
	<g>
		<path class="st14" d="M2874,1585.3c0,10.9,43.7,19.7,97.5,19.7c53.8,0,97.5-8.8,97.5-19.7"/>
		<path class="st14" d="M2874,1606.2c0,10.9,43.7,19.7,97.5,19.7c53.8,0,97.5-8.8,97.5-19.7"/>
		<path class="st14" d="M2874,1627.1c0,10.9,43.7,19.7,97.5,19.7c53.8,0,97.5-8.8,97.5-19.7"/>
		<path class="st14" d="M2875.5,1648c0,10.9,43,19.7,96,19.7c53,0,96-8.8,96-19.7"/>
		<path class="st14" d="M2883,1668.9c0,10.9,39.6,19.7,88.5,19.7s88.5-8.8,88.5-19.7"/>
	</g>
	<path class="st20" d="M2967.6,1534.3c-9.6-6.6-39.5-69.5-2.5-95.2c28.4-19.8,33.9,31.5,20.8,27.2c-22.8-7.5-36.7-107.9,22.8-101.7
		c26.2,2.7,23.3,40,0,41"/>
</g>
<g id="LAPTOP">
	<path class="st3" d="M1804.6,1828.1h-491.5c-13.2,0-25-8-29.9-20.2l-134.5-332.4c-6.4-15.9,5.3-33.3,22.4-33.3h491.5
		c13.2,0,25,8,29.9,20.2l134.5,332.4C1833.5,1810.7,1821.8,1828.1,1804.6,1828.1z"/>
	<path class="st13" d="M1781.8,1830.5h-468.9c-12.5,0-23.8-7.6-28.5-19.2l-128.3-317.1c-6.1-15.2,5-31.7,21.4-31.7h468.9
		c12.5,0,23.8,7.6,28.5,19.2l128.3,317.1C1809.3,1814,1798.1,1830.5,1781.8,1830.5z"/>
	<g>
		<path class="st17" d="M1493.9,1686.3c-13.8,0-26.8-5.4-36.6-15.2c-8-8-12.4-18.6-12.4-29.8c0-11.3,4.4-21.9,12.4-29.8
			c6.5-6.5,15.2-10.1,24.4-10.1c9.2,0,17.9,3.6,24.4,10.1c11.1,11.1,11.1,29.1,0,40.2c-9.2,9.2-24.1,9.2-33.3,0
			c-1.6-1.6-1.6-4.1,0-5.7c1.6-1.6,4.1-1.6,5.7,0c6.1,6.1,15.9,6.1,22,0c8-8,8-20.9,0-28.9c-5-5-11.7-7.8-18.8-7.8
			c-7.1,0-13.8,2.8-18.8,7.8c-6.5,6.5-10,15-10,24.2c0,9.1,3.6,17.7,10,24.2c8.3,8.3,19.2,12.8,30.9,12.8s22.7-4.5,30.9-12.8
			c1.6-1.6,4.1-1.6,5.7,0c1.6,1.6,1.6,4.1,0,5.7C1520.7,1680.9,1507.7,1686.3,1493.9,1686.3z"/>
	</g>
	<path class="st3" d="M1980.5,1863.3h-666.8c-7.7,0-13.9-6.2-13.9-13.9v-6.7c0-7.7,6.2-13.9,13.9-13.9h666.8
		c7.7,0,13.9,6.2,13.9,13.9v6.7C1994.3,1857.1,1988.1,1863.3,1980.5,1863.3z"/>
</g>
</svg>
