<?xml version="1.0" encoding="utf-8"?>
<!-- Generator: Adobe Illustrator 24.2.1, SVG Export Plug-In . SVG Version: 6.00 Build 0)  -->
<svg version="1.1" id="Слой_1" xmlns="http://www.w3.org/2000/svg" xmlns:xlink="http://www.w3.org/1999/xlink" x="0px" y="0px"
	 viewBox="0 0 5000 3500" style="enable-background:new 0 0 5000 3500;" xml:space="preserve">
<style type="text/css">
	.st0{fill:none;stroke:#66B0F0;stroke-width:6;stroke-miterlimit:10;}
	.st1{fill:none;stroke:#66B0F0;stroke-width:6;stroke-linecap:round;stroke-miterlimit:10;}
	.st2{fill:#66B0F0;}
	.st3{fill:#D0F0E4;}
	.st4{fill:#3FB1B5;}
	.st5{fill:none;stroke:#FFCF2D;stroke-width:6;stroke-linecap:round;stroke-miterlimit:10;}
	.st6{fill:none;stroke:#FFCF2D;stroke-width:6;stroke-miterlimit:10;}
	.st7{fill:#FE5244;}
	.st8{opacity:0.2;}
	.st9{fill:#FFFFFF;}
	.st10{fill:#E57281;}
	.st11{fill:none;stroke:#FFFFFF;stroke-width:6;stroke-miterlimit:10;}
	.st12{fill:none;stroke:#FFFFFF;stroke-width:5;stroke-miterlimit:10;}
	.st13{fill:none;stroke:#FFFFFF;stroke-width:5;stroke-linecap:round;stroke-miterlimit:10;}
	.st14{fill:#FFFFFF;stroke:#FE5244;stroke-width:5;stroke-miterlimit:10;}
	.st15{fill:#FFFFFF;stroke:#9A3B82;stroke-width:6;stroke-linecap:round;stroke-miterlimit:10;}
	.st16{fill:none;stroke:#9A3B82;stroke-width:6;stroke-linecap:round;stroke-miterlimit:10;}
	.st17{fill:#9A3B82;}
	.st18{fill:#FFCF2D;}
	.st19{fill:#FFFFFF;stroke:#FFCF2D;stroke-width:5;stroke-miterlimit:10;}
	.st20{fill:none;stroke:#E57281;stroke-width:4;stroke-linecap:round;stroke-miterlimit:10;}
	.st21{fill:#73325A;}
	.st22{fill:none;stroke:#73325A;stroke-width:4;stroke-linecap:round;stroke-miterlimit:10;}
	.st23{fill:#3FB1B5;stroke:#3FB1B5;stroke-width:5;stroke-linecap:round;stroke-miterlimit:10;}
	.st24{fill:#FFFFFF;stroke:#3FB1B5;stroke-width:6;stroke-miterlimit:10;}
	.st25{fill:#FFFFFF;stroke:#3FB1B5;stroke-width:6;stroke-linecap:round;stroke-miterlimit:10;}
	.st26{fill:#A0505A;}
	.st27{fill:#0096A0;}
	.st28{fill:#FFFFFF;stroke:#FE5244;stroke-width:6;stroke-miterlimit:10;}
	.st29{fill:none;stroke:#FE5244;stroke-width:6;stroke-miterlimit:10;}
	.st30{fill:none;stroke:#FE5244;stroke-width:6;stroke-linejoin:round;stroke-miterlimit:10;}
	.st31{fill:#FE5244;stroke:#FFFFFF;stroke-width:6;stroke-miterlimit:10;}
	.st32{fill:none;stroke:#9A3B82;stroke-width:4;stroke-linecap:round;stroke-miterlimit:10;}
	.st33{fill:none;stroke:#FE5244;stroke-width:5;stroke-miterlimit:10;}
	.st34{fill:#FFFFFF;stroke:#FE5244;stroke-width:5;stroke-linejoin:round;stroke-miterlimit:10;}
	.st35{fill:#FFFFFF;stroke:#3FB1B5;stroke-width:5;stroke-linecap:round;stroke-miterlimit:10;}
</style>
<g id="DOORS">
	<rect x="1870.1" y="432.3" class="st0" width="1306" height="1234.3"/>
	<rect x="1870.1" y="432.3" class="st0" width="653" height="1234.3"/>
	<rect x="2523.1" y="432.3" class="st0" width="653" height="1234.3"/>
	<g>
		<rect x="2657.4" y="551.7" class="st0" width="398.2" height="398.2"/>
		<line class="st1" x1="2917.5" y1="743.2" x2="2871.2" y2="778.2"/>
		<polyline class="st1" points="2806.7,827 2657.4,939.9 2657.4,856.9 3055.5,561.7 3055.5,638.9 2948.2,720 		"/>
	</g>
	<polygon class="st2" points="1870.1,432.3 2523.1,432.3 2523.1,527.8 	"/>
	<path class="st0" d="M2686.2,1221.2L2686.2,1221.2c-4.5,0-8.7-2.4-11-6.4l-95.5-167c-4.8-8.4,1.3-19,11-19l0,0
		c4.5,0,8.7,2.4,11,6.4l95.5,167C2702,1210.7,2695.9,1221.2,2686.2,1221.2z"/>
	<g>
		<rect x="1989" y="551.7" class="st0" width="398.2" height="398.2"/>
		<line class="st1" x1="1989" y1="856.9" x2="2387.1" y2="561.7"/>
	</g>
	<path class="st0" d="M2358.3,1221.2L2358.3,1221.2c4.5,0,8.7-2.4,11-6.4l95.5-167c4.8-8.4-1.3-19-11-19l0,0c-4.5,0-8.7,2.4-11,6.4
		l-95.5,167C2342.5,1210.7,2348.6,1221.2,2358.3,1221.2z"/>
</g>
<g id="STAIRS">
	<g>
		<polygon class="st3" points="4197.5,2868.1 833.4,3058.1 833.4,2787.8 4197.5,2787.8 		"/>
		<polygon class="st3" points="4044.2,2578.3 1008,2768.3 1008,2498 4044.2,2498 		"/>
		<polygon class="st3" points="3848.7,2289.5 1171.9,2479.5 1171.9,2209.2 3848.7,2209.2 		"/>
		<polygon class="st3" points="3694.6,2002.7 1354.5,2192.7 1354.5,1922.4 3694.6,1922.4 		"/>
		<polyline class="st0" points="833.4,2787.8 4197.5,2787.8 4197.5,3048.1 		"/>
		<polyline class="st0" points="1008,2497 4044.2,2497 4044.2,2768.4 		"/>
		<polyline class="st0" points="1171.9,2208.2 3848.7,2208.2 3848.7,2479.5 		"/>
		<polyline class="st0" points="1355.5,1921.4 3694.6,1921.4 3694.6,2192.7 		"/>
		<polygon class="st3" points="3484.6,1731.7 1564.6,1898.2 1564.6,1661.3 3484.6,1661.3 		"/>
		<polyline class="st0" points="1565.4,1660.4 3484.6,1660.4 3484.6,1898.2 		"/>
	</g>
	<g>
		<line class="st0" x1="1354.7" y1="2203.9" x2="1354.7" y2="1579.7"/>
		<path class="st0" d="M1871.4,1156.2L696.9,2118.3c-41.1,41.1-64.2,96.8-64.2,154.9v0c0,121,98.1,224.1,219.1,224.1"/>
		<line class="st0" x1="1005" y1="2768.4" x2="1005" y2="1865.3"/>
	</g>
	<g>
		<line class="st0" x1="3694.6" y1="2205.9" x2="3694.6" y2="1579.7"/>
		<path class="st0" d="M3177.9,1156.2l1174.6,962.1c41.1,41.1,64.2,96.8,64.2,154.9v0c0,121-98.1,224.1-219.1,224.1"/>
		<line class="st0" x1="4044.4" y1="2768.4" x2="4044.4" y2="1865.3"/>
	</g>
</g>
<g id="PLANTS">
	<g>
		<path class="st4" d="M3884.9,3063.6c0,0,130.9-234.9,51.4-236.2c-37.1-0.6-75.1,126.5-60.7,236.2H3884.9z"/>
		<path class="st5" d="M3879.2,3062.3c0,0,48.6-219.9,166-184.4s-83,184.4-83,184.4"/>
		<path class="st5" d="M3722.1,3066.1c-40.7-3.8-63.7-76.6-15.5-100.9c69.3-34.9,91,38,77.3,40.4c-13.7,2.5-33-89.7,26.8-87.2
			c59.8,2.5,62,143.9,62,143.9"/>
		<path class="st5" d="M3928.4,3062.3c0,0,62.5-151.8,123.4-182.1"/>
		<path class="st6" d="M3861.8,2983.5c0,0-14.7-81.5-15.3-135.1"/>
		<path class="st6" d="M3879.6,2884.7c-2.9,7.2-25.3,25.1-25.3,25.1s-3.6-28.5-0.7-35.7c2.9-7.2,11.1-10.6,18.2-7.7
			C3879,2869.3,3882.5,2877.5,3879.6,2884.7z"/>
		<path class="st6" d="M3872.1,2827.4c-2.9,7.2-25.3,25.1-25.3,25.1s-3.6-28.5-0.7-35.7c2.9-7.2,11.1-10.6,18.2-7.7
			C3871.5,2812.1,3875,2820.2,3872.1,2827.4z"/>
		<path class="st6" d="M3820.5,2891c4.2,6.5,29.6,19.8,29.6,19.8s-1.9-28.6-6.1-35.1s-12.9-8.3-19.4-4.1
			C3818.1,2875.9,3816.3,2884.5,3820.5,2891z"/>
	</g>
	<g>
		<path class="st4" d="M974.5,3067.7c0,0-80.4-72.6-78.8-124.7c1.8-59.6,58.8-30.8,61.8-52.3c3.1-21.4-60.2-167.8,27.9-166.7
			s47.1,141.5,71,154.5c23.9,12.9,63.5-2.5,52.8,54.3c-10.7,56.9-99.7,134.2-99.7,134.2L974.5,3067.7z"/>
		<path class="st5" d="M733.1,3065.9c-52.1,0-92.2-95.2-11.9-120.4s89.1,50.7,71.6,53.6c-17.5,2.9-26.2-145.8,118.3-125.6
			c157.7,22,61.3,192.4,61.3,192.4s93-156.4,7.5-339.6"/>
		<g>
			<path class="st5" d="M1081.6,3065.9c0,0,81.6-170.8,159.9-116.4S1136,3065.9,1136,3065.9"/>
			<path class="st5" d="M1111,3064.4c0,0,79.3-106,131.6-113.8"/>
		</g>
		<g>
			<path class="st5" d="M1010.9,3064.9c0,0,42.9-99.9,80.9-159.1"/>
			<path class="st6" d="M1101.9,2969.4c-8.4,5.8-45.9,9.3-45.9,9.3s16.7-33.8,25-39.6c8.4-5.8,19.8-3.7,25.6,4.7
				S1110.3,2963.7,1101.9,2969.4z"/>
			<path class="st6" d="M1135.1,2901.2c-8.4,5.8-45.9,9.3-45.9,9.3s16.7-33.8,25-39.6c8.4-5.8,19.8-3.7,25.6,4.7
				S1143.5,2895.5,1135.1,2901.2z"/>
			<path class="st6" d="M1149,2843.3c-5.4,8.6-38.5,26.6-38.5,26.6s1.9-37.6,7.4-46.2c5.4-8.6,16.8-11.2,25.4-5.8
				C1151.9,2823.3,1154.4,2834.7,1149,2843.3z"/>
			<path class="st6" d="M1032.5,2933.6c-0.1,10.2,18.1,43.2,18.1,43.2s18.6-32.8,18.7-42.9c0.1-10.2-8.1-18.5-18.3-18.5
				C1040.9,2915.3,1032.6,2923.4,1032.5,2933.6z"/>
			<path class="st6" d="M1069.7,2866.2c-0.1,10.2,18.1,43.2,18.1,43.2s18.6-32.8,18.7-42.9c0.1-10.2-8.1-18.5-18.3-18.5
				S1069.8,2856.1,1069.7,2866.2z"/>
		</g>
	</g>
	<line class="st0" x1="3469.3" y1="3066.1" x2="4312.1" y2="3066.1"/>
	<line class="st0" x1="603.4" y1="3066.1" x2="2636.8" y2="3066.1"/>
</g>
<g id="_x33__CHARACTER">
	<g id="JACKET_1_">
		<g>
			<path class="st7" d="M2451.8,1146.2c0,6.2-0.7,12.3-2,18.3c-0.3,1.2-0.6,2.4-0.9,3.6c-3.2,12-9,23.4-17.3,33.1
				c-0.1,0.1-0.2,0.3-0.3,0.4c-0.9,1.1-1.9,2.1-2.9,3.2c-0.2,0.3-0.5,0.5-0.7,0.7c-3.3,3.4-7,6.6-11,9.5c-7,5.1-14.4,8.9-22.1,11.6
				c-1.2,0.4-2.4,0.8-3.6,1.2c-10.8,3.2-22.1,4.2-33.1,3c-1.2-0.1-2.4-0.3-3.6-0.5c-11.7-1.8-23-5.9-33.1-12.4
				c-1.2-0.8-2.4-1.6-3.6-2.4c-4.4-3.1-8.5-6.7-12.3-10.7c-1.1-1.2-2.2-2.3-3.2-3.6c-2.1-2.5-4.2-5.2-6-8l-6.3-9.5l5.6,17.5l1.1,3.6
				l10.5,33.1l1.1,3.6l9.5,30l1,3.1l1.1,3.6l1.5,4.6l9,28.5l1.1,3.6l10.5,33.1l1.1,3.6l10.5,33.1l0.8,2.6l0.3,1l3.3,10.3l0.6,1.9
				c-0.1-0.4-0.3-0.8-0.6-1.2c-0.7-1-1.9-1.9-3.6-2.7c-5.7-2.8-17.1-4.9-33.1-6.1c-1.2-0.1-2.4-0.2-3.6-0.3
				c-9.6-0.6-20.6-1-33.1-1.2c-1.2,0-2.4,0-3.6,0c-10.2-0.1-21.2,0-33.1,0.3c-1.2,0-2.4,0.1-3.6,0.1c-10.5,0.3-21.5,0.7-33.1,1.2
				c-1.2,0.1-2.4,0.1-3.6,0.2c-10.6,0.5-21.6,1.1-33.1,1.8c-1.2,0.1-2.4,0.1-3.6,0.2c-10.7,0.7-21.7,1.4-33.1,2.3
				c-1.2,0.1-2.4,0.2-3.6,0.3c-10.8,0.8-21.8,1.7-33.1,2.7c-1.1,0.1-2.2,0.2-3.3,0.3c-0.1,0-0.2,0-0.3,0c-11.2,1-22.3,2-33.1,3.1
				c-1.2,0.1-2.4,0.2-3.6,0.4c-11.3,1.1-22.4,2.3-33.1,3.6c-1.2,0.1-2.4,0.3-3.6,0.4c-11.4,1.3-22.5,2.7-33.1,4.2
				c-1.2,0.2-2.4,0.3-3.6,0.5c-11.6,1.6-22.6,3.2-33.1,4.8c-1.2,0.2-2.4,0.4-3.6,0.6c-11.4,1.8-22,3.7-31.9,5.5
				c-0.4,0.1-0.8,0.2-1.2,0.2c-1.2,0.2-2.4,0.5-3.6,0.7c-4.5,0.9-8.8,1.8-12.9,2.7c-7.4,1.6-14.1,3.2-20.2,4.8
				c-1.2,0.3-2.4,0.6-3.6,1c-21,5.7-32.9,11.3-32.9,16.3v-143.6h-110.3c-1.2,0-2.4,0-3.6-0.1c-11.6-0.4-22.7-2.6-33.1-6.2
				c-1.2-0.4-2.4-0.9-3.6-1.3c-10.9-4.3-21-10.2-30-17.5c-1-0.8-2.1-1.7-3.1-2.6c-0.4-0.3-0.7-0.6-1.1-1c-0.8-0.7-1.7-1.5-2.5-2.3
				c-0.7-0.6-1.3-1.3-2-2c-8.4-8.4-15.5-18.1-20.9-28.9c-0.6-1.2-1.2-2.4-1.7-3.6c-4.8-10.3-8-21.4-9.4-33.1
				c-0.2-1.2-0.3-2.4-0.4-3.6c-0.3-3.4-0.5-6.8-0.5-10.3c0-7.7,0.8-15.4,2.3-22.8c0.2-1.2,0.5-2.4,0.8-3.6
				c2.8-11.7,7.5-22.8,13.9-33.1c0.6-0.9,1.2-1.9,1.8-2.8l0.5-0.8l15.5-23.3l3.6-5.4l3-4.4l2.4-3.6l22.1-33.1l2.4-3.6l3.3-4.9
				l3.6-5.4l15.2-22.8l2.4-3.6l15.5-23.3l3.6-5.4l2.9-4.4l2.4-3.6l22.1-33.1l2.4-3.6l0.6-0.9c0.9-1.3,1.8-2.5,2.7-3.8
				c1.2-1.6,2.4-3.1,3.6-4.7c7-8.8,14.8-16.7,23.4-23.7c1.5-1.2,3-2.4,4.5-3.6c1.7-1.3,3.5-2.6,5.2-3.8c1.2-0.8,2.4-1.6,3.6-2.4
				c10.3-6.9,21.5-12.5,33.1-16.8c1.2-0.4,2.4-0.9,3.6-1.3c10.7-3.7,21.8-6.2,33.1-7.5c1.2-0.1,2.4-0.3,3.6-0.4
				c5-0.5,10.1-0.7,15.2-0.7h280.3l0.3-0.1l9.2-3.6l21.6-8.4l3.6-1.4l33.1-12.9l3.6-1.4l23.3-9l9.2-3.6l0.6-0.3l3.6-1.4l6.2-2.4
				l2.2,4.1l2,3.6l18.1,33.1l2,3.6l2.6,4.8l3.6,6.6l11.9,21.7l2,3.6l18.1,33.1l1.1,2.1l0.8,1.5l2.8,5l15.3,28.1l2,3.6l15.8,28.9
				l2.3,4.2l1.3,2.3l0.7,1.3l18.1,33.1l2,3.6l12.3,22.5l3.6,6.6l2.2,4l2,3.6l5.9,10.8c3.9,7.2,6.7,14.7,8.4,22.3
				c0.3,1.2,0.5,2.4,0.7,3.6C2451.4,1136.3,2451.8,1141.3,2451.8,1146.2z"/>
			<g class="st8">
				<g>
					<g>
						<path class="st9" d="M1660.9,1099.2v176.4c-0.4-0.3-0.7-0.6-1.1-1c-0.8-0.7-1.7-1.5-2.5-2.3v-167.7L1660.9,1099.2z"/>
					</g>
					<g>
						<path class="st9" d="M1734.3,989.1v314.2c-1.2,0-2.4,0-3.6-0.1V994.5L1734.3,989.1z"/>
					</g>
					<g>
						<path class="st9" d="M1697.6,1044.1v252.8c-1.2-0.4-2.4-0.9-3.6-1.3v-246.1L1697.6,1044.1z"/>
					</g>
					<g>
						<path class="st9" d="M1807.7,901.4v401.8h-3.6V903.9C1805.3,903.1,1806.5,902.2,1807.7,901.4z"/>
					</g>
					<g>
						<path class="st9" d="M1771,935v368.2h-3.6V939.7C1768.6,938.1,1769.8,936.6,1771,935z"/>
					</g>
					<g>
						<path class="st9" d="M1881.1,875.5v554.2c-1.2,0.3-2.4,0.6-3.6,1V875.8C1878.7,875.7,1879.9,875.6,1881.1,875.5z"/>
					</g>
					<g>
						<path class="st9" d="M1844.4,883.4v419.9h-3.6V884.6C1842,884.2,1843.2,883.8,1844.4,883.4z"/>
					</g>
					<g>
						<g>
							<path class="st9" d="M1917.7,874.6v546.9c-1.2,0.2-2.4,0.5-3.6,0.7V874.6H1917.7z"/>
						</g>
					</g>
					<g>
						<path class="st9" d="M1991.1,874.6v535.3c-1.2,0.2-2.4,0.3-3.6,0.5V874.6H1991.1z"/>
					</g>
					<g>
						<path class="st9" d="M1954.4,874.6v540.6c-1.2,0.2-2.4,0.4-3.6,0.6V874.6H1954.4z"/>
					</g>
					<g>
						<path class="st9" d="M2064.5,874.6v526.8c-1.2,0.1-2.4,0.2-3.6,0.4V874.6H2064.5z"/>
					</g>
					<g>
						<path class="st9" d="M2027.8,874.6v530.7c-1.2,0.1-2.4,0.3-3.6,0.4V874.6H2027.8z"/>
					</g>
					<g>
						<path class="st9" d="M2137.9,874.6V1395c-1.2,0.1-2.4,0.2-3.6,0.3V874.6H2137.9z"/>
					</g>
					<g>
						<path class="st9" d="M2101.2,874.6V1398c-1.1,0.1-2.2,0.2-3.3,0.3c-0.1,0-0.2,0-0.3,0V874.6H2101.2z"/>
					</g>
					<g>
						<g>
							<path class="st9" d="M2174.5,874.6v518c-1.2,0.1-2.4,0.1-3.6,0.2V874.6H2174.5z"/>
						</g>
					</g>
					<g>
						<path class="st9" d="M2247.9,847v542.4c-1.2,0-2.4,0.1-3.6,0.1V848.4L2247.9,847z"/>
					</g>
					<g>
						<path class="st9" d="M2211.2,861.2v529.4c-1.2,0.1-2.4,0.1-3.6,0.2V862.6L2211.2,861.2z"/>
					</g>
					<g>
						<path class="st9" d="M2321.3,886v331.9c-1.2-0.8-2.4-1.6-3.6-2.4v-336L2321.3,886z"/>
						<path class="st9" d="M2321.3,1282.8v107.7c-1.2-0.1-2.4-0.2-3.6-0.3v-118.8l1,3.1l1.1,3.6L2321.3,1282.8z"/>
					</g>
					<g>
						<polygon class="st9" points="2284.6,832.2 2284.6,832.7 2281,834.1 2281,832.2 						"/>
						<path class="st9" d="M2284.6,832.7v556.4c-1.2,0-2.4,0-3.6,0v-555L2284.6,832.7z"/>
					</g>
					<g>
						<path class="st9" d="M2394.7,1020.1v206.5c-1.2,0.4-2.4,0.8-3.6,1.2v-214.2l2.3,4.2L2394.7,1020.1z"/>
					</g>
					<g>
						<path class="st9" d="M2358,1398.6v0.8c-0.7-1-1.9-1.9-3.6-2.7v-9.4l0.3,1L2358,1398.6z"/>
						<path class="st9" d="M2358,953v277.7c-1.2-0.1-2.4-0.3-3.6-0.5V946.5l0.8,1.5L2358,953z"/>
					</g>
					<g>
						<g>
							<path class="st9" d="M2431.3,1087.1v114.5c-0.9,1.1-1.9,2.1-2.9,3.2c-0.2,0.3-0.5,0.5-0.7,0.7v-124.9L2431.3,1087.1z"/>
						</g>
					</g>
				</g>
				<g>
					<g>
						<path class="st9" d="M1919,1421.3c-0.4,0.1-0.8,0.2-1.2,0.2c-1.2,0.2-2.4,0.5-3.6,0.7c-4.5,0.9-8.8,1.8-12.9,2.7h-56.9v-3.6
							H1919z"/>
					</g>
					<g>
						<polygon class="st9" points="2343.1,1351.5 1844.4,1351.5 1844.4,1347.9 2341.9,1347.9 						"/>
					</g>
					<g>
						<polygon class="st9" points="2354.7,1388.2 1844.4,1388.2 1844.4,1384.6 2353.6,1384.6 2354.4,1387.2 						"/>
					</g>
					<g>
						<g>
							<polygon class="st9" points="2331.4,1314.8 1844.4,1314.8 1844.4,1311.3 2330.3,1311.3 							"/>
						</g>
					</g>
					<g>
						<path class="st9" d="M2308.2,1241.5h-673.7c-0.6-1.2-1.2-2.4-1.7-3.6h674.3L2308.2,1241.5z"/>
					</g>
					<g>
						<path class="st9" d="M2319.8,1278.2H1664c-1-0.8-2.1-1.7-3.1-2.6c-0.4-0.3-0.7-0.6-1.1-1h658.8L2319.8,1278.2z"/>
					</g>
					<g>
						<path class="st9" d="M2449.9,1164.5c-0.3,1.2-0.6,2.4-0.9,3.6h-824.2c0.2-1.2,0.5-2.4,0.8-3.6H2449.9z"/>
					</g>
					<g>
						<path class="st9" d="M2296.6,1204.8h-673.3c-0.2-1.2-0.3-2.4-0.4-3.6h672.5L2296.6,1204.8z"/>
						<path class="st9" d="M2431.7,1201.2c-0.1,0.1-0.2,0.3-0.3,0.4c-0.9,1.1-1.9,2.1-2.9,3.2h-123.1c-1.1-1.2-2.2-2.3-3.2-3.6
							H2431.7z"/>
					</g>
					<g>
						<polygon class="st9" points="2435.5,1094.7 1663.9,1094.7 1666.3,1091.1 2433.5,1091.1 						"/>
					</g>
					<g>
						<path class="st9" d="M2450.5,1131.4h-811c0.6-0.9,1.2-1.9,1.8-2.8l0.5-0.8h808C2450.1,1129,2450.3,1130.2,2450.5,1131.4z"/>
					</g>
					<g>
						<g>
							<polygon class="st9" points="2415.4,1058 1688.4,1058 1690.7,1054.5 2413.5,1054.5 							"/>
						</g>
					</g>
					<g>
						<polygon class="st9" points="2375.3,984.7 1737.2,984.7 1739.6,981.1 2373.3,981.1 						"/>
					</g>
					<g>
						<polygon class="st9" points="2395.4,1021.4 1712.8,1021.4 1715.2,1017.8 2393.4,1017.8 2394.7,1020.1 						"/>
					</g>
					<g>
						<path class="st9" d="M2335.1,911.3h-540.8c1.5-1.2,3-2.4,4.5-3.6h534.3L2335.1,911.3z"/>
					</g>
					<g>
						<polygon class="st9" points="2355.2,948 1761.7,948 1764.1,944.4 2353.2,944.4 2354.4,946.5 						"/>
					</g>
					<g>
						<polygon class="st9" points="2295,837.9 2271.2,837.9 2280.4,834.3 2293,834.3 						"/>
					</g>
					<g>
						<polygon class="st9" points="2315.1,874.6 2176.9,874.6 2186.1,871 2313.1,871 						"/>
					</g>
				</g>
			</g>
		</g>
		<path class="st10" d="M2106.7,1471c-169.2,13.1-262-2.9-262.1-24.1c0,0,0,0,0,0c0-15.2,111.7-36.3,253.3-48.6
			c149.5-12.9,256.1-12.3,260.7,2.2C2365,1420.7,2281.9,1457.4,2106.7,1471z"/>
		<g>
			<line class="st11" x1="2098.8" y1="1276.4" x2="2156.4" y2="1393.7"/>
			<circle class="st12" cx="2079.7" cy="1313.3" r="8.9"/>
			<line class="st12" x1="2176.6" y1="874.7" x2="2302.2" y2="1210.4"/>
			<path class="st13" d="M1622.9,1173.6c25.4-14.7,62,1.1,81.7,35.3c19.7,34.1,15.1,73.7-10.3,88.4"/>
			<path class="st12" d="M2448.7,1169.1c-5,17.9-15.9,34.3-31.9,45.9c-23.8,17.3-53.5,20.3-79,11c-5.7-22.4,10.9-49.2,39.9-62.7
				C2404.5,1150.9,2433.5,1153.9,2448.7,1169.1z"/>
			<line class="st11" x1="2098.8" y1="1396" x2="2097.6" y2="874.6"/>
			<circle class="st12" cx="2128.1" cy="983.4" r="8.9"/>
			<circle class="st12" cx="2128.1" cy="1093.2" r="8.9"/>
			<circle class="st12" cx="2128.1" cy="1203" r="8.9"/>
			<polyline class="st12" points="1968.5,872.9 2098.4,947.4 2167.6,872 			"/>
		</g>
	</g>
	<g id="LEGS_2_">
		<g id="RIGHT_3_">
			<polygon class="st14" points="2401.1,2209.8 2169.9,2209.9 2185.4,2160.4 2400.1,2160.4 			"/>
			<path class="st15" d="M2455.1,1637.4c35.8,59.2,46.1,130.4,28.7,197.3L2409,2122l-10,38.4h-213.5l15.8-50.3l88.9-288.1
				l-254.5-417.6c19.8-2.2,40.6-4.3,62.1-6.1c88.2-7.6,161.4-10.5,207.6-8.7L2455.1,1637.4z"/>
		</g>
		<g id="LEFT_3_">
			<path class="st14" d="M2711.9,2209.8l-310.8,0.1l-1-49.8l0.2,0.3l171-79.3c96.5,29.9,138.2,73.4,155.8,101.4
				C2734.5,2194.4,2725.9,2209.8,2711.9,2209.8z"/>
			<g>
				<path class="st15" d="M2571.3,2081.1l-171,79.3l-454.6-622.2c-15-20.5-26.7-42.9-34.9-66.6c-5.2-15-9-30.5-11.3-46.3
					c46.1-10.1,117.4-20,198.4-27c20.4-1.8,39.9-3.3,58.5-4.5l40.6,67.2L2571.3,2081.1z"/>
				<line class="st16" x1="2070.6" y1="1458.2" x2="2472" y2="2123.3"/>
				<path class="st16" d="M2042.2,1432.4c0,0-3,73.4-66.4,99.3"/>
			</g>
		</g>
		<path id="SHADOW" class="st17" d="M2305.5,1389.6l23,38.2c-26.5,11.8-70.2,24-131.6,33.1c-26.7,4-56.8,7.4-90.3,10
			c-16.9,1.3-33,2.3-48.3,3.1c-62.4,3.1-112,1.7-147.6-2.4c-5.2-15-9-30.5-11.3-46.3c0,0,99.9-19,203.1-27.4
			S2305.5,1389.6,2305.5,1389.6z"/>
		<path class="st13" d="M1841.9,1447.8c0-15.2,107.3-37.4,256-50.4c149.5-13.1,258.8-11.4,263.4,3.1"/>
	</g>
	<g id="HEAD_4_">
		<g id="NECK_1_">
			<polygon class="st18" points="2108.2,874.7 1973.9,874.7 1992.4,777.2 2108.2,777.2 			"/>
			<polygon class="st10" points="2007.3,874.7 1973.9,874.7 1992.4,777.2 2108.2,777.2 2108.2,811.6 			"/>
		</g>
		<path id="HAIR_2_" class="st19" d="M1991.9,791.8c0,0,18.4-104.6,20.8-110.5c4.1-10,88.8-42.2,101.8-30.3s-13.3,22.5,0.8,21.4
			s56.6-32.7,74.4-8.6c10.8,14.7-24,35.9-46.3,40.2s-85,37.9-86.5,49.8C2055.4,765.7,2035.3,789.5,1991.9,791.8z"/>
		<g id="HEAD_5_">
			<path class="st18" d="M2143.4,702.2v88.6c0,13.8-11.2,24.9-24.9,24.9h-31.7c-16.5,0-29.8-13.4-29.8-29.9v-8.7h-15.4
				c-5,0-9.5-2-12.8-5.3c-3.3-3.3-5.3-7.8-5.3-12.8c0-10,8.1-18.1,18.1-18.1h17.4c4.6-14.4,16.7-25.6,32.2-28.6L2143.4,702.2z"/>
			<path class="st20" d="M2053.4,762.9c0-8.2-4.9-14.3-13-13"/>
			<path class="st20" d="M2110.8,734.3c0,0,10.4-5.9,22.1-7"/>
			<ellipse class="st10" cx="2125.2" cy="747.1" rx="4" ry="6.5"/>
		</g>
	</g>
	<g id="ARMS">
		<g id="LEFT_2_">
			<g>
				<g>
					<g>
						<path class="st9" d="M2048,1193.3l-23.6,9l-2.1,0.8l-16.2,6.1v-44.6h-195.9l43.6-74.1l1.8-3.1l21.5-8.1l4.2-1.6l16.5-6.3
							l3.2-1.2l25.4-9.7l4.2-1.6c0,0,0,0,0,0l16.2-6.1l4-1.5l17.4-6.6c0.4-0.2,0.8-0.3,1.2-0.4c1.3-0.4,2.6-0.7,3.9-0.8
							c1.6-0.2,3.2-0.2,4.7-0.1c4.8,0.4,9.3,2.5,12.8,5.8c2.4,2.2,4.3,5,5.5,8.2L2048,1193.3z"/>
						<path class="st4" d="M2017.7,1107.1l-19.1-50.5c-1.3-3.4-3.3-6.4-5.7-8.7c-4-3.9-9.4-6.3-15-6.7c-1.8-0.1-3.6-0.1-5.3,0.2
							c-1.7,0.2-3.4,0.7-5,1.3l-17.4,6.6l-4.2,1.6l-16,6.1l-4.2,1.6l-25,9.5l-4.2,1.6l-16.1,6.1l-4.2,1.6l-18.9,7.2l-1.8,3.1
							l-1.8,3.1l24.3-9.2l4.2-1.6l45.1-17.1l4.2-1.6l36.1-13.7l1.3-0.5c0.6-0.2,1.2-0.4,1.8-0.6c1.2-0.3,2.3-0.5,3.5-0.6
							c0.6,0,1.1-0.1,1.7-0.1c7.9,0,15.4,4.8,18.4,12.7l50.7,133.8l-19.5,7.4l-2.1,0.8l-2.1,0.8l-15.4,5.8v4.8l17-6.4l27.8-10.6h0
							L2017.7,1107.1z"/>
					</g>
					<g>
						<path class="st4" d="M2048,1193.3l-23.7,9l-54.8-144.5c-2.5-6.5,0.8-13.8,7.3-16.3l0,0c6.5-2.5,13.8,0.8,16.3,7.3L2048,1193.3
							z"/>
						<path class="st4" d="M2023,1205.1l-55.6-146.6c-2.9-7.7,1-16.3,8.6-19.2c3.7-1.4,7.8-1.3,11.4,0.3c3.6,1.6,6.4,4.6,7.8,8.3
							l55.6,146.6L2023,1205.1z M1981.4,1042.9c-1.2,0-2.5,0.2-3.7,0.7c-5.4,2-8.1,8.1-6,13.4l54,142.4l19.5-7.4l-54-142.4
							c-1-2.6-2.9-4.7-5.5-5.8C1984.3,1043.2,1982.8,1042.9,1981.4,1042.9z"/>
					</g>
					<g>
						<path class="st4" d="M1941.4,1073c-2.4,0-5-0.9-7.4-2.6c-3.4-2.4-6.1-6.1-7.8-10.5c-1.7-4.4-2.1-9.1-1.1-13.1
							c1-4.3,3.5-7.4,6.9-8.7c6.9-2.6,15.1,2.9,18.7,12.5c0.4,1.2-0.1,2.5-1.3,2.9c-1.2,0.4-2.5-0.1-2.9-1.3c-2.7-7-8.6-11.5-13-9.9
							c-2,0.8-3.5,2.7-4.1,5.5c-0.7,3.1-0.4,6.8,1,10.4c1.4,3.6,3.6,6.6,6.2,8.5c2.4,1.7,4.8,2.2,6.8,1.4c1.2-0.4,2.5,0.1,2.9,1.3
							c0.4,1.2-0.1,2.5-1.3,2.9C1943.8,1072.8,1942.6,1073,1941.4,1073z"/>
					</g>
					<g>
						<path class="st4" d="M1891.7,1091.1c-2.4,0-5-0.9-7.4-2.6c-3.4-2.4-6.1-6.1-7.8-10.5c-1.7-4.4-2.1-9.1-1.1-13.1
							c1-4.3,3.5-7.4,6.9-8.7c3.4-1.3,7.3-0.6,10.9,1.9c3.4,2.4,6.1,6.1,7.8,10.5c0.4,1.2-0.1,2.5-1.3,2.9c-1.2,0.4-2.5-0.1-2.9-1.3
							c-1.4-3.6-3.6-6.6-6.2-8.5c-2.4-1.7-4.8-2.2-6.8-1.4c-2,0.8-3.5,2.7-4.1,5.5c-0.7,3.1-0.4,6.8,1,10.4s3.6,6.6,6.2,8.5
							c2.4,1.7,4.8,2.2,6.8,1.4c1.2-0.4,2.5,0.1,2.9,1.3c0.4,1.2-0.1,2.5-1.3,2.9C1894.1,1090.9,1892.9,1091.1,1891.7,1091.1z"/>
					</g>
				</g>
				<g>
					<ellipse class="st21" cx="2006.3" cy="1233.9" rx="25.4" ry="69.3"/>
					<path class="st18" d="M2097.5,1178.8v75c0,6-3.1,11.6-8.2,14.8l-32,19h-67.2c-5.7-12.7-9.3-32-9.3-53.5c0-15.5,1.9-29.9,5-41.4
						h64.4l-9.9-26.2c-2.9-7.5,4.1-15.1,11.8-13l32.6,8.6C2092.3,1164.1,2097.5,1170.9,2097.5,1178.8z"/>
					<path class="st22" d="M2095.7,1230.4c0,6-3.1,11.6-8.2,14.8l-30.2,19"/>
					<path class="st22" d="M2095.7,1202.7c0,6-3.1,11.6-8.2,14.8l-30.2,19"/>
					<path class="st22" d="M2095.7,1176.7c0,6-3.1,11.6-8.2,14.8l-30.2,19"/>
					<line class="st22" x1="2065.2" y1="1183.1" x2="2050.1" y2="1192.5"/>
					<path class="st10" d="M2031.7,1233.9c0,21.6-3.6,40.9-9.3,53.6h-32.3c-5.7-12.7-9.3-32-9.3-53.6c0-15.5,1.9-29.9,5-41.4h40.8
						C2029.8,1204,2031.7,1218.4,2031.7,1233.9z"/>
				</g>
			</g>
			<line class="st12" x1="1885.6" y1="1041.8" x2="1813.7" y2="1162.9"/>
			<path class="st13" d="M2005.4,1162.9c-14,0-25.4,34.1-25.4,72.9c0,38.8,11.4,70.2,25.4,70.2h-161"/>
		</g>
		<g id="RIGHT_2_">
			<g>
				<path class="st23" d="M2179.9,744.9l94.8,117.7l-53.8,54.6l-119.1-93c-3.5-3.4-0.7-12.4,6.5-23.6c5.2-8.2,12.7-17.5,21.8-26.7
					c9.1-9.2,18.3-16.9,26.4-22.2C2167.5,744.5,2176.4,741.6,2179.9,744.9z"/>
				
					<ellipse transform="matrix(0.7017 -0.7124 0.7124 0.7017 36.3849 1866.8622)" class="st24" cx="2247.7" cy="890" rx="38.3" ry="14.3"/>
			</g>
			<g>
				<path class="st18" d="M2202.9,854.5v7.6c0,6.2-15.8,9.2-20.1,4.7l-37.4-39.2c-2.8-3-4.4-6.9-4.4-11v-22.6
					c0-5.8,2.7-11.2,7.3-14.7l13.3-10.1c3.2-2.5,7.2-3.8,11.2-3.8h36.1c10,0,19.2,5.5,23.8,14.3l31.8,59.9h-46.9
					C2209.5,839.7,2202.9,846.3,2202.9,854.5z"/>
				<path class="st22" d="M2263.8,839.7h-45.1c-8.2,0-14.9,6.7-14.9,14.9v7.6c0,6.2-14,9.2-18.3,4.7l-41.5-43.2"/>
				<path class="st22" d="M2159.3,839.7c-2.8-2.9-4.3-6.7-4.3-10.7v-22c0-5.7,2.6-11,7.1-14.4l13-9.9c3.2-2.4,7-3.7,11-3.7h25.4"/>
				<path class="st22" d="M2173.7,854.9c-2.8-2.9-4.3-6.7-4.3-10.7v-22c0-5.7,2.6-11,7.1-14.4l13-9.9c3.2-2.4,7-3.7,11-3.7h22.7"/>
				<path class="st22" d="M2189.4,867.5c-2.6-2.7-4-6.2-4-9.9v-20.4c0-5.2,2.4-10.2,6.6-13.3l12-9.2c2.9-2.2,6.5-3.4,10.1-3.4h15.2"
					/>
			</g>
		</g>
	</g>
</g>
<g id="_x32__CHARACTER">
	<g id="SHIRT">
		<path class="st25" d="M2963.2,1616.9H3355c79.2,0,153.2,39,198,104.2l179.5,264.4c14.8,21.5,1.4,50.8-24.7,50.8H3508l-79.8-104.3
			c-9.4-13.2-30.2-7.4-31.5,8.8l-16.1,196.4h-427.3l-36-199.7c-2.2-15.6-22.4-20.4-31.5-7.5l-73.3,94.4h-238.9l186.4-295.4
			C2804.1,1659.2,2880.8,1616.9,2963.2,1616.9z"/>
		<g>
			<polygon class="st7" points="3201.9,1718.9 3265.4,1929.8 3108.5,1929.8 3178.2,1718.9 			"/>
			<g class="st8">
				<g>
					<g>
						<polygon class="st9" points="3151.3,1800.4 3151.3,1929.8 3147.1,1929.8 3147.1,1813.1 3147.1,1813.1 3148.5,1808.8 						"/>
					</g>
					<g>
						<rect x="3191.8" y="1719.4" class="st9" width="4.2" height="210.4"/>
					</g>
					<g>
						<polygon class="st9" points="3240.7,1847.7 3240.7,1929.8 3236.5,1929.8 3236.5,1833.7 						"/>
					</g>
				</g>
				<g>
					<g>
						<polygon class="st9" points="3257.2,1902.5 3117.5,1902.5 3118.9,1898.2 3255.9,1898.2 						"/>
					</g>
					<g>
						<polygon class="st9" points="3243.7,1857.8 3132.3,1857.8 3133.7,1853.5 3242.4,1853.5 						"/>
					</g>
					<g>
						<polygon class="st9" points="3230.3,1813.1 3147.1,1813.1 3148.5,1808.8 3229,1808.8 						"/>
					</g>
					<g>
						<polygon class="st9" points="3216.8,1768.4 3161.9,1768.4 3163.3,1764.1 3215.5,1764.1 						"/>
					</g>
					<g>
						<polygon class="st9" points="3203.3,1723.7 3176.7,1723.7 3178.1,1719.4 3202.1,1719.4 						"/>
					</g>
				</g>
			</g>
		</g>
		<polygon class="st25" points="3230.3,1716.7 3255.9,1744.2 3338.4,1616.9 3265.3,1616.9 		"/>
		<polygon class="st25" points="3154.4,1716.7 3128.7,1744.2 3039.3,1616.9 3119.3,1616.9 		"/>
	</g>
	<g id="HAND_1_">
		<path class="st26" d="M3763.9,2060.5c0,49.8-35.5,97-90.7,105.1l-226.3,33.3l-49.7,7.3v-192.4l15.3-3.6l220.8-52.4
			c42.6-10.1,87,7,111.8,43.1C3758,2019.5,3763.9,2040.2,3763.9,2060.5z"/>
		<polygon class="st21" points="3446.9,2198.9 3397.2,2206.2 3397.2,2013.8 3412.5,2010.2 		"/>
	</g>
	<g id="LAPTOP">
		<path class="st18" d="M3397.2,2255.4h-475.7v-285.5c0-22.2,18-40.1,40.1-40.1h395.4c22.2,0,40.1,18,40.1,40.1V2255.4z"/>
		<path class="st12" d="M3188.7,2115.4H3130c-6,0-10.8-4.8-10.8-10.8V2080c0-6,4.8-10.8,10.8-10.8h58.7c6,0,10.8,4.8,10.8,10.8v24.6
			C3199.5,2110.6,3194.6,2115.4,3188.7,2115.4z"/>
	</g>
	<g id="LEGS_1_">
		<g id="RIGHT_1_">
			<path id="LEG_1_" class="st27" d="M3088.6,2252.3l503.6-75.3c98-14.9,186.3,61,186.3,160.2v0c0,89.5-72.5,162-162,162h-524.6
				L3088.6,2252.3z"/>
			<g id="SHOES_1_">
				<path class="st28" d="M3020.5,2543.3l-303.1,58.5c-38.6,8.2-77.4-24-79.1-65.6l-4.5-110.6c-2.3-56,51.4-89.7,102-65.7
					L3020.5,2543.3z"/>
				<path class="st29" d="M2737.9,2597.8c-37.3,7.8-75-23.5-76.8-64l-4.7-107.4c-2.4-54.4,49.4-86.8,98.4-63.4"/>
				<polygon class="st7" points="2735.8,2359.8 3020.5,2543.3 2955.6,2555.8 				"/>
				<g>
					<polyline class="st30" points="2845.5,2440.2 2808,2514.9 2770.9,2427.1 2728,2525.7 					"/>
					<polyline class="st30" points="2725.9,2413.4 2767.9,2518.2 2809,2434.5 2840.9,2504.3 					"/>
				</g>
			</g>
		</g>
		<g id="LEFT_1_">
			<g id="LEG">
				<path class="st4" d="M3255.9,2406.2c-16.8-13.8-65.4,17.6-108.6,70.1c-43.2,52.5-64.6,106.3-47.8,120.1
					c-2.5-1.5-318.2-199.5-514.1-334.6c-49.8-34.3-76.1-89.3-76.1-145c0-38.8,12.8-77.9,39.3-110.6c66.4-81.9,189.4-87.4,262.9-11.8
					L3255.9,2406.2z"/>
				
					<ellipse transform="matrix(0.6352 -0.7723 0.7723 0.6352 -772.6595 3366.5283)" class="st31" cx="3177.7" cy="2501.3" rx="123.1" ry="39.4"/>
			</g>
			<g id="SHOES">
				<path class="st28" d="M3394.9,2579l-56.2,95.4c-28.5,48.3-92.9,49.2-122.4,1.6l-94.6-152.4c8.1-13.4,18.1-27.4,29.6-41.4
					c20.8-25.3,42.9-45.7,62.1-58.5l150.6,57.3C3400.8,2495.1,3416,2543.1,3394.9,2579z"/>
				<path class="st29" d="M3348.1,2474.8c34.8,13.5,47.1,58.6,27.2,93.1l-53,91.5c-26.8,46.4-87.5,47.2-115.4,1.6"/>
				<g>
					<polyline class="st30" points="3163.3,2523.7 3239.9,2484.9 3216.9,2577.2 3308.5,2521 					"/>
					<polyline class="st30" points="3246,2614.2 3269.8,2506.7 3191.7,2545.2 3203.7,2473.8 					"/>
				</g>
			</g>
		</g>
	</g>
	<g id="HEAD_3_">
		<path id="HEAD_2_" class="st26" d="M3305.7,1634.2c-0.4,6.4-3.2,12.1-7.6,16.2c-4.4,4.1-10.2,6.6-16.6,6.6h-22.1l-1.4,23.3
			c-1.2,19.2-20.3,38.8-40.2,38.8h-55.9c-19.8,0-39-19.6-40.2-38.8l-1.4-23.3h-22.4c-6.4,0-12.3-2.5-16.6-6.6
			c-4.4-4.1-7.2-9.8-7.6-16.3c-0.8-14,10.7-25.6,24.7-25.6h18.9l-2.1-35.5c-0.4-7.5,5.5-13.8,13-13.8h123.4c7.5,0,13.4,6.3,13,13.8
			l-2.1,35.5h19.1C3295.4,1608.6,3306.5,1620.3,3305.7,1634.2z"/>
		<path id="HAIR_1_" class="st21" d="M3262.4,1608.5h20.1c0,0,19.2-69.7,0.7-87.6c-18.5-17.9-132.1-59.1-168.8-33.4
			c-26.8,18.8-12.2,121-12.2,121h14.8c0,0,59.7-42.8,69.1-39.1c9.4,3.7-27,21.7-19.7,25.2c27.3,13.1,76.4-34.4,87.7-34.4
			S3262.4,1608.5,3262.4,1608.5z"/>
		<g id="FACE">
			<path class="st22" d="M3237.1,1625.8c0,0-13.1-10.6-29.9-3.7"/>
			<path class="st22" d="M3210.3,1682.8c0,0-7.2,15.4-29,7.4"/>
			<path class="st22" d="M3137.5,1622.3c0,0,26.5-5.9,34.5,10.5c4.9,10.1,2.5,45.4,8.2,45.8c5.7,0.4,14.3,0,14.3,0"/>
			<ellipse class="st21" cx="3219.2" cy="1645.2" rx="4.7" ry="7.8"/>
			<ellipse class="st21" cx="3158.4" cy="1645.2" rx="4.7" ry="7.8"/>
			<path class="st22" d="M3112.4,1637.8c-0.6-9.8-8.7-17.4-18.5-17.4"/>
			<path class="st22" d="M3265.9,1638.3c0.6-10.4,9.2-18.5,19.5-18.5"/>
		</g>
	</g>
</g>
<g id="_x31__CHARACTER">
	<g id="HEAD_1_">
		<g id="HAIR">
			<path class="st18" d="M1787.4,1831.9c0-6.5-0.3-12.8-0.8-18.7c-6.1-2.7-44.6-21.2-54.3-54.5c0,0-29.2,59.1-72.6,52.3
				c-0.1,0-0.2,0-0.3-0.1c0,0,0,0-0.1,0l-10.5-5.4c-0.2-0.1-0.3-0.2-0.5-0.2c-11.9-5.7-25.6,1.7-28,14.1c-2.8-7.8-4.8-16.1-6-24.8
				c-7.7-58.2,24.4-106.9,77.7-106.9c48.6,0,95.3,45.7,102.7,94C1797.7,1800,1794.6,1817.1,1787.4,1831.9z"/>
			<path class="st18" d="M1628.9,1838.9c-4.7,27.6-107.7-10.9-130.6,35.2c-14.9,30.1,8.1,66.4-56.6,69.5
				c-77.1,3.6-108.4,45.8-95.9,143.6l210.6-111.7l58.8-52.4l25.6-78.7L1628.9,1838.9z"/>
		</g>
		<g id="NECK">
			<polygon class="st10" points="1748.9,1903.9 1748.9,1931.3 1683.8,1970.7 1615.2,1923.2 1640.8,1844.5 			"/>
			<polygon class="st17" points="1652.6,1850.7 1683.8,1970.7 1748.9,1931.3 1748.9,1903.9 			"/>
		</g>
		<g id="HEAD">
			<path class="st10" d="M1787.4,1832.5c0,44.7-28.7,81-64.1,81c-29,0-54.7-24.3-63.1-57.7l-29.3-15c-3.3-1.7-6-4.2-7.9-7.3
				c-1.9-3-2.9-6.6-2.9-10.3c0-14.8,15.6-24.3,28.8-17.6l10.9,5.5c0,0,0-0.1,0-0.1c43.4,6.7,72.6-52.3,72.6-52.3
				c9.7,33.3,48.2,51.7,54.3,54.5C1787.2,1819.3,1787.4,1825.7,1787.4,1832.5z"/>
			<g>
				<path class="st32" d="M1787.2,1823.2c0,0-16.1-6.7-26,3.3c-12.3,12.4-9.6,48-9.6,48"/>
				<path class="st32" d="M1729.4,1821.1c0,0-13.3-1-26.5,6"/>
				<path class="st32" d="M1650.7,1831c-1.1-6.6-5.9-12-12.3-14"/>
				
					<ellipse transform="matrix(0.2616 -0.9652 0.9652 0.2616 -509.5139 3022.1785)" class="st17" cx="1720.5" cy="1844.1" rx="7.8" ry="4.7"/>
				
					<ellipse transform="matrix(0.2616 -0.9652 0.9652 0.2616 -475.2641 3070.9485)" class="st17" cx="1769.5" cy="1846.1" rx="7.8" ry="4.7"/>
				<path class="st32" d="M1746.7,1886.5c0,0-17.3,4.6-22.3-10"/>
			</g>
		</g>
	</g>
	<g id="BLOUSE">
		<path class="st14" d="M1487.2,1975.8h389.5c53.4,0,101.9,31.5,123.5,80.4l73.6,151.4l-660.7,319.9l-212.9-91.2l115.9-339.2
			C1341.7,2024.4,1410.2,1975.8,1487.2,1975.8z"/>
		<g>
			<polygon class="st7" points="1669.8,2042.6 1637.5,2023.5 1682.3,1972.5 1685.5,1972.5 1730.9,2020.1 1699.4,2039.2 
				1834.6,2317.8 1577.9,2443.3 			"/>
			<g class="st8">
				<g>
					<g>
						<polygon class="st9" points="1616.2,2276.3 1616.2,2389.7 1612.2,2389.7 1612.2,2293.7 						"/>
					</g>
					<g>
						<polygon class="st9" points="1658.3,2092.4 1658.3,2389.6 1654.3,2389.6 1654.3,2109.8 1656.8,2099 1657.7,2095 						"/>
						<polygon class="st9" points="1658.3,1999.7 1658.3,2035.8 1654.3,2033.5 1654.3,2004.3 						"/>
					</g>
					<g>
						<polygon class="st9" points="1700.5,1988.3 1700.5,2383.4 1696.5,2385.3 1696.5,1984.1 						"/>
					</g>
					<g>
						<polygon class="st9" points="1742.7,2128.4 1742.7,2362.7 1738.7,2364.7 1738.7,2120.2 						"/>
					</g>
					<g>
						<polygon class="st9" points="1784.9,2215.3 1784.9,2342.1 1780.9,2344.1 1780.9,2207 						"/>
					</g>
					<g>
						<polygon class="st9" points="1827,2302.2 1827,2321.5 1823,2323.4 1823,2294 						"/>
					</g>
				</g>
				<g>
					<g>
						<polygon class="st9" points="1686.6,2390.2 1678.4,2394.2 1589.2,2394.2 1590.1,2390.2 						"/>
					</g>
					<g>
						<polygon class="st9" points="1772.8,2348 1764.6,2352 1598.8,2352 1599.8,2348 						"/>
					</g>
					<g>
						<polygon class="st9" points="1830.7,2309.8 1608.5,2309.8 1609.4,2305.8 1828.8,2305.8 						"/>
					</g>
					<g>
						<polygon class="st9" points="1810.3,2267.7 1618.2,2267.7 1619.1,2263.7 1808.3,2263.7 						"/>
					</g>
					<g>
						<polygon class="st9" points="1789.8,2225.5 1627.8,2225.5 1628.8,2221.5 1787.9,2221.5 						"/>
					</g>
					<g>
						<polygon class="st9" points="1769.3,2183.3 1637.5,2183.3 1638.4,2179.3 1767.4,2179.3 						"/>
					</g>
					<g>
						<polygon class="st9" points="1748.9,2141.2 1647.2,2141.2 1648.1,2137.2 1746.9,2137.2 						"/>
					</g>
					<g>
						<polygon class="st9" points="1728.4,2099 1656.8,2099 1657.7,2095 1726.5,2095 						"/>
					</g>
					<g>
						<polygon class="st9" points="1708,2056.8 1666.5,2056.8 1667.4,2052.8 1706,2052.8 						"/>
					</g>
					<g>
						<polygon class="st9" points="1725.7,2014.7 1645.2,2014.7 1648.7,2010.7 1721.9,2010.7 						"/>
					</g>
				</g>
			</g>
		</g>
		<line class="st33" x1="1473.3" y1="2192.8" x2="1441.9" y2="2298.8"/>
		<polygon class="st34" points="1803.9,1975.6 1729.8,2018 1685.5,1972.5 1682.3,1972.5 1638.5,2021.5 1556.4,1975.6 1616.2,1923.2 
			1683.8,1970.7 1748.9,1931.3 		"/>
	</g>
	<g id="BOOK">
		<polygon class="st4" points="2200.5,2099.8 2122.9,2346.4 1650.9,2346.4 1728.5,2099.8 		"/>
		<line class="st11" x1="1901.9" y1="2346.4" x2="1979.5" y2="2099.8"/>
		<path class="st35" d="M1737.4,2099.8c0,0,59.1-35.1,144.7-29.7c85.6,5.3,97.6,29.7,97.6,29.7H1737.4z"/>
		<path class="st35" d="M2183.4,2099.8c0,0-111.4-49.2-203.7,0H2183.4z"/>
	</g>
	<g id="LEGS">
		<g id="RIGHT">
			<path class="st10" d="M1967.4,2604.2L1738,2785.4c-27.4,21.6-31,61.8-7.9,87.9l157.6,178.8c0,0,15-11.1,10-55.7
				c-7-61.7,10-119.4,10-119.4l339.5-242.1c52.5-37.4,84.1-97.6,85-162.1v0c1.3-87.6-104.9-132-166.4-69.7L1967.4,2604.2z"/>
			<path class="st15" d="M1907.6,2876.9c0,0-16.9,57.7-10,119.4c5,44.7-10,55.8-10,55.8l-157.6-178.8c-23.1-26.2-19.4-66.3,7.9-87.9
				l73.6-58.2c2.2-1.6,4.4-3.3,6.6-5l93.6-74l55.6-44c0,0-3.1,73.1,31.3,207.8L1907.6,2876.9z"/>
			<g>
				<path class="st18" d="M1901.3,3002.3c1.9,17.3,0.7,29.8-1.6,38.6c-0.5,2.1-1.1,3.9-1.8,5.6c-3.9,10.3-9,13.7-9,13.7
					l-163.4-185.3c-21.2-24.1-20.6-59.6-0.3-82.9c2.5-2.9,5.4-5.7,8.6-8.2l5.3-4.2l46-36.3c-3,20,9.9,53.5,34.7,85.1
					c31.4,40,73.1,61.3,91.3,50.3C1908.2,2889.3,1894.9,2945.2,1901.3,3002.3z"/>
				<g>
					<path class="st9" d="M1899.8,3040.9c-0.5,2.1-1.1,3.9-1.8,5.6l-162.2-184c-12-13.6-17.7-31.1-16.1-49.2
						c0.7-7.5,2.6-14.8,5.6-21.4c2.5-2.9,5.4-5.7,8.6-8.2l5.3-4.2c-8.3,9.5-13.4,21.3-14.5,34.2c-1.5,16.7,3.8,32.9,14.9,45.5
						L1899.8,3040.9z"/>
				</g>
				<path class="st9" d="M1904.5,2909.1c0,0-44-17.5-49.9,0c-5.8,17.5,46.6,28.6,46.6,28.6L1904.5,2909.1z"/>
			</g>
		</g>
		<g id="LEFT">
			<path class="st10" d="M2185.4,2366.9v547.9c-63.7,64.7-148.3,29.9-148.3,29.9c-74.7-215-69.7-334.4-69.7-334.4l-55.6,43.9
				c-142.2-88.8-153.8-293.1-154.1-298l231.7-112.1C2080.1,2200.2,2185.4,2266.2,2185.4,2366.9z"/>
			<path class="st16" d="M1989.5,2244c90.6-43.8,195.9,22.2,195.9,122.8v547.9c-63.7,64.7-148.3,29.9-148.3,29.9
				c-74.6-215-69.7-334.5-69.7-334.5"/>
			<g id="SKIRT">
				<path class="st7" d="M1911.8,2654.1l-93.6,74c-167.8,132.7-414.6,13.2-414.6-200.7v0l354.1-171.4c0,0,0,0,0,0.1
					C1758,2361.1,1769.7,2565.4,1911.8,2654.1z"/>
				<g class="st8">
					<g>
						<g>
							<path class="st9" d="M1447.8,2506.1v166.1c-1.4-2-2.7-4-4-6V2508L1447.8,2506.1z"/>
						</g>
						<g>
							<path class="st9" d="M1490,2485.7v233.7c-1.3-1.2-2.7-2.4-4-3.6v-228.2L1490,2485.7z"/>
						</g>
						<g>
							<path class="st9" d="M1532.1,2465.3v284.1c-1.3-0.8-2.7-1.5-4-2.3v-279.9L1532.1,2465.3z"/>
						</g>
						<g>
							<path class="st9" d="M1574.3,2444.9v323.9c-1.3-0.5-2.7-0.9-4-1.4v-320.5L1574.3,2444.9z"/>
						</g>
						<g>
							<path class="st9" d="M1616.5,2424.5v355.5c-1.3-0.2-2.7-0.5-4-0.7v-352.8L1616.5,2424.5z"/>
						</g>
						<g>
							<path class="st9" d="M1658.6,2404v379.8c-1.3,0-2.7,0-4-0.1V2406L1658.6,2404z"/>
						</g>
						<g>
							<path class="st9" d="M1700.8,2383.6v397c-1.3,0.2-2.7,0.4-4,0.6v-395.6L1700.8,2383.6z"/>
						</g>
						<g>
							<path class="st9" d="M1743,2363.2v406.7c-1.3,0.5-2.7,0.9-4,1.4v-406.1L1743,2363.2z"/>
						</g>
						<g>
							<path class="st9" d="M1785.1,2484.1v266.5c-1.3,0.8-2.7,1.5-4,2.2v-280.4c0.2,0.7,0.4,1.4,0.7,2c0.4,1.3,0.9,2.7,1.3,4
								C1783.8,2480.3,1784.5,2482.2,1785.1,2484.1z"/>
						</g>
						<g>
							<path class="st9" d="M1827.3,2570.1V2721l-4,3.2v-160.3C1824.6,2565.9,1825.9,2568,1827.3,2570.1z"/>
						</g>
						<g>
							<path class="st9" d="M1869.5,2621.1v68.2h-2.1l-1.9,1.5v-73.7C1866.8,2618.5,1868.1,2619.8,1869.5,2621.1z"/>
						</g>
					</g>
					<g>
						<g>
							<path class="st9" d="M1743.7,2769.6c-0.3,0.1-0.5,0.2-0.8,0.3c-1.3,0.5-2.7,0.9-4,1.4c-2.5,0.8-5,1.6-7.6,2.4h-142.2
								c-4.2-1.2-8.4-2.6-12.6-4H1743.7z"/>
						</g>
						<g>
							<path class="st9" d="M1819.1,2727.4l-0.9,0.7c-1.4,1.1-2.8,2.2-4.2,3.3h-309.2c-1.8-1.3-3.5-2.6-5.2-4H1819.1z"/>
						</g>
						<g>
							<path class="st9" d="M1872.4,2685.3l-3,2.3v1.7h-408.8c-1.1-1.3-2.2-2.7-3.2-4H1872.4z"/>
						</g>
						<g>
							<path class="st9" d="M1901.2,2647.1h-468.5c-0.7-1.3-1.4-2.7-2.1-4h465C1897.4,2644.5,1899.3,2645.8,1901.2,2647.1z"/>
						</g>
						<g>
							<path class="st9" d="M1854,2604.9h-438.8c-0.4-1.3-0.8-2.7-1.2-4h436.6C1851.6,2602.3,1852.8,2603.6,1854,2604.9z"/>
						</g>
						<g>
							<path class="st9" d="M1822.6,2562.8h-416.7c-0.2-1.3-0.3-2.7-0.5-4h414.7C1821,2560.1,1821.8,2561.4,1822.6,2562.8z"/>
						</g>
						<g>
							<path class="st9" d="M1800,2520.6h-382.1l8.3-4h372C1798.7,2517.9,1799.3,2519.3,1800,2520.6z"/>
						</g>
						<g>
							<path class="st9" d="M1783.2,2478.4H1505l8.3-4h268.6C1782.2,2475.8,1782.7,2477.1,1783.2,2478.4z"/>
						</g>
						<g>
							<path class="st9" d="M1770.8,2436.3h-178.8l8.3-4h169.5C1770.2,2433.6,1770.5,2434.9,1770.8,2436.3z"/>
						</g>
						<g>
							<path class="st9" d="M1762.2,2394.1h-83.1l8.3-4h74.2C1761.8,2391.4,1762,2392.7,1762.2,2394.1z"/>
						</g>
					</g>
				</g>
				<path class="st11" d="M1757.7,2356.1C1757.7,2356.1,1757.7,2356.1,1757.7,2356.1c0.3,5,11.9,209.3,154.1,298.1"/>
			</g>
			<path class="st9" d="M2185.4,2719v195.8c-63.7,64.7-148.3,29.9-148.3,29.9c-32.7-94.2-50.1-170.1-59.4-225.6H2185.4z"/>
			<path class="st16" d="M2037,2944.6c-32.7-94.2-50.1-170.1-59.4-225.6h207.7v195.8"/>
			<g>
				<path class="st18" d="M2334.7,3058.1h-295.5c-13.8,0-24.3-12.3-22.1-25.9l0.5-3l1.8-10.8l12.8-78.4c0,0,90.1,36.3,156.5-31.1
					c0,0,20.8,53.6,107.6,93c20.4,9.3,30,23.1,34.5,34.8c0.7,1.7,1.2,3.4,1.7,5C2335.2,3051.1,2334.7,3058.1,2334.7,3058.1z"/>
				<g>
					<path class="st9" d="M2332.5,3041.6h-293.3c-7.3,0-14.2-3.2-18.9-8.8c-1-1.2-1.9-2.4-2.6-3.7l1.8-10.8
						c0.3,4.1,1.9,8.1,4.7,11.3c3.8,4.4,9.3,7,15.1,7h291.6C2331.5,3038.3,2332.1,3040,2332.5,3041.6z"/>
				</g>
				<path class="st9" d="M2234.5,2964.4c-32.8,23.4-83.3,16.7-86.7,6.6c-3.5-10,48.9-17.3,55.8-38.1
					C2210.9,2942,2220.3,2953,2234.5,2964.4z"/>
			</g>
			<path class="st16" d="M1967.4,2610.2c0-117.5,31-185.7,31-185.7"/>
		</g>
	</g>
	<g id="HAND">
		<path class="st10" d="M1683.8,2241.9l-410.4,96.5c-52,12.2-88.7,58.6-88.7,112v0c0,84.9,88.9,140.6,165.3,103.5l397.1-192.8
			c6.8-3.3,12.2-9.1,14.9-16.2l44-112.9c1.8-4.5-2-9.3-6.9-8.6l-7,1c-11.1,1.6-21.1,7.7-27.6,16.9l-17.9,26.8
			c-3.3,4.9-8.8,7.8-14.7,7.8h-41.9c-8.5,0-14.6-8.3-12-16.4L1683.8,2241.9z"/>
		<g>
			<path class="st11" d="M1679.8,2242.9l-406.4,96.5c-52,12.2-88.7,58.6-88.7,112v0c0,84.9,88.9,140.6,165.3,103.5l397.1-192.8
				c6.8-3.3,12.2-9.1,14.9-16.2l44-112.9c1.8-4.5-2-9.3-6.9-8.6l-7,1c-11.1,1.6-21.1,7.7-27.6,16.9l-17.9,26.8
				c-3.3,4.9-8.8,7.8-14.7,7.8h-45.9c-8.5,0-14.6-8.3-12-16.4L1679.8,2242.9z"/>
			<path class="st13" d="M1696,2308.9h61.3c10.1,0,19.3-5.5,24.2-14.4"/>
			<path class="st13" d="M1682,2344.9h61.3c10.1,0,19.3-5.5,24.2-14.4"/>
		</g>
	</g>
</g>
</svg>
