<?xml version="1.0" encoding="utf-8"?>
<!-- Generator: Adobe Illustrator 24.2.1, SVG Export Plug-In . SVG Version: 6.00 Build 0)  -->
<svg version="1.1" id="Слой_1" xmlns="http://www.w3.org/2000/svg" xmlns:xlink="http://www.w3.org/1999/xlink" x="0px" y="0px"
	 viewBox="0 0 5000 3500" style="enable-background:new 0 0 5000 3500;" xml:space="preserve">
<style type="text/css">
	.st0{fill:#D0F0E4;}
	.st1{fill:none;stroke:#FFCF2D;stroke-width:6;stroke-miterlimit:10;}
	.st2{fill:none;stroke:#FE5244;stroke-width:5;stroke-miterlimit:10;}
	.st3{fill:#A0505A;}
	.st4{fill:#FFCF2D;}
	.st5{fill:#FFFFFF;stroke:#9A3B82;stroke-width:5;stroke-miterlimit:10;}
	.st6{fill:none;stroke:#9A3B82;stroke-width:5;stroke-miterlimit:10;}
	.st7{fill:#9A3B82;}
	.st8{fill:#FE5244;}
	.st9{fill:none;stroke:#FFFFFF;stroke-width:6;stroke-linecap:round;stroke-miterlimit:10;}
	.st10{fill:#FFFFFF;stroke:#3FB1B5;stroke-width:5;stroke-linecap:round;stroke-miterlimit:10;}
	.st11{fill:#FFFFFF;stroke:#FE5244;stroke-width:5;stroke-miterlimit:10;}
	.st12{fill:none;stroke:#73325A;stroke-width:4;stroke-linecap:round;stroke-miterlimit:10;}
	.st13{fill:#73325A;}
	.st14{fill:#FFFFFF;stroke:#9A3B82;stroke-width:4;stroke-miterlimit:10;}
	.st15{fill:#3FB1B5;}
	.st16{fill:none;stroke:#3FB1B5;stroke-width:5;stroke-linecap:round;stroke-miterlimit:10;}
	.st17{fill:#E57281;}
	.st18{fill:none;stroke:#FE5244;stroke-width:5;stroke-linecap:round;stroke-miterlimit:10;}
	.st19{fill:none;stroke:#9A3B82;stroke-width:4;stroke-linecap:round;stroke-miterlimit:10;}
	.st20{fill:#FFFFFF;}
</style>
<g id="GRASS">
	<path class="st0" d="M4256.7,3193.8l-1178.9,2.1c-144.5,1-298,1.5-457.2,1.5c-387.5,0-741.7-3.2-1012.6-8.5H517.5
		c0-192.6,212-108,267.9-74c65,39.5-18.7-170.8,114-170.8c113.6,0,178.6,57.1,178.6,57.1s3.1-111,110.8-112.6
		c107.7-1.6,176.1,93.3,261.1,171.4c35.1,32.2,77.3,57.8,117.2,77.3c275.7-5.8,646.1-9.4,1053.5-9.4c193,0,377.6,0.8,547.9,2.3l0,0
		c302.6,0,579.7-159.1,658.3-199c194.2-98.8,102.2,136.7,102.2,136.7s149.7-63,255-62.5C4332.7,3006,4256.7,3193.8,4256.7,3193.8z"
		/>
	<g>
		<g>
			<path class="st1" d="M3645,3188c0,0,29.8-268.2-164.2-354.5c0,0-28.6,291.8,68.2,272.7c36.3-7.2-41.6-78-168.6-81
				c0,0,97.3,163.5,215.5,165.8"/>
			<path class="st1" d="M3596.3,3190.6c0,0,11.2-122.7,130.8-160.9c108-34.4-81,157.9-81,157.9"/>
		</g>
	</g>
	<g>
		<path class="st2" d="M910.7,3179.4c0,0-171.5-117.5-219.8-309.2c0,0,151.8,45.4,216.2,142c0,0,26.4-219.9,90.2-293.9
			c0,0,34.5,49.6,38.8,233.4c0,0,78.2-133.2,136.4-176.2c0,0-8,173.3-49.6,261.8c0,0,60.1-46.8,100.7-0.9
			c40.6,45.9-39,113.1-39,113.1"/>
		<path class="st2" d="M997.4,2724.8c0,0,1.7,400.6-16.5,452.5"/>
		<path class="st2" d="M1166.9,2785.6c0,0-119.6,307.3-186,391.7"/>
		<path class="st2" d="M1121.1,3038.7c-4.4,16.1-34.7,60.5-40.7,41.4c-5.9-19.1,48.6-50,62.3-55.1"/>
		<path class="st2" d="M907.2,3012.3c8.1,15.6,35.5,59.4,7.8,58.3c-18.1-0.7-2.9-92.6-2.9-92.6"/>
	</g>
</g>
<g id="_x32__CHARACTER">
	<g id="LEGS_1_">
		<g id="LEFT_LEG_1_">
			<g>
				<path class="st3" d="M3168.1,2850.1c-68,33.3-61.6,97.2-62.2,140.1c-0.7,45.7-87.9,69.6-87.9,69.6
					c23.2-73.1,6.7-148.4,6.7-148.4L3168.1,2850.1z"/>
				<path class="st4" d="M3240.2,3018.4l-15.5,8.4l-32.5-74.3c-1.7-3.9-5.5-6.2-9.4-6.2c-1.3,0-2.7,0.3-4,0.8
					c-3.3,1.4-5.7,4.5-6.1,8.1l-14.3,107.7l-188.1,102.4c-5.6-13.4,29.3-47,47.8-105.5c0,0,87.3-23.9,87.9-69.6
					c0.6-42.9-5.7-106.9,62.2-140.1l14.3-6.1C3260.5,2879.9,3240.2,3018.4,3240.2,3018.4z"/>
			</g>
			<path class="st5" d="M3182.4,2316.4V2844l-155.6,67.5l-116.6-529.7C2962.4,2383.8,3049.4,2372.8,3182.4,2316.4z"/>
			<line class="st6" x1="3068" y1="2362.8" x2="3098.7" y2="2880.1"/>
			<path class="st7" d="M3182.4,2316.4v138.1l-264.8-38.3l-7.4-34.4C2962.4,2383.8,3049.4,2372.8,3182.4,2316.4z"/>
		</g>
		<g id="RIGHT_LEG_1_">
			<g>
				<path class="st4" d="M3966.6,1958.4l-100.6,21.2c-3.4,0.7-6.8-0.4-9.2-2.9c-1.7-1.9-2.6-4.2-2.6-6.6c0-2.6,1-5.2,3.1-7.1
					l56-52.5l-12.4-11.1c0,0-130,25.5-137.4,106.6l9.9,10.8c51.1,50.2,106.2,24.3,144.7,11.3c36.8-12.4,80.7,44.7,89.4,56.5
					c0.1,0,0.3,0,0.4,0c58-1.9,99.1,18.7,109.2,9.4L3966.6,1958.4z"/>
				<path class="st3" d="M3773.5,2016.8c51.1,50.2,106.2,24.3,144.7,11.3c41-13.8,89.9,56.5,89.9,56.5
					c-72.6,2.3-134.5,40.8-134.5,40.8L3773.5,2016.8z"/>
			</g>
			<path class="st5" d="M3152.3,2320.9c0,0,25.3,170.9,219.4,167.7c194.1-3.2,499.8-364.2,499.8-364.2L3764,2006.6L3152.3,2320.9z"
				/>
			<path class="st6" d="M3264.2,2274.5c6.4,45,36.6,87.4,128.7,85.9c136.8-2.2,330.1-181.7,432.3-287.5"/>
		</g>
	</g>
	<g id="DRESS_1_">
		<path class="st8" d="M3999.5,1658c-17.7-6.7-59.8,16.3-91.5,56.3c-34.1,42.9-47.9,88.5-32.9,100.4l-480.3-255.4
			c-23.6-12.5-50.8,8.9-44.1,34.7l145.4,550.8c-492.5,319.6-650.4,223.8-650.4,223.8v-1810c0,0.1,0,0.1,0.1,0.2
			c4.2,10.7,49.3,3.2,100.8-16.9c47.4-18.4,83.6-41,85.9-52.8l0.1-0.1v570.3c0,35.8,19.3,68.7,50.5,86.2L3999.5,1658z"/>
		<path class="st8" d="M3999.5,1658c-17.7-6.7-59.8,16.3-91.5,56.3c-34.1,42.9-47.9,88.5-32.9,100.4l-480.3-255.4
			c-23.6-12.5-50.8,8.9-44.1,34.7l145.4,553c-125.2,81.3-228.8,133.5-313.7,169.5c-133,56.3-220,67.4-272.2,65.4
			c-45.5-1.7-64.5-13.3-64.5-13.3v-1810c0,0.1,0,0.1,0.1,0.2c4.2,10.7,49.3,3.2,100.8-16.9c47.4-18.4,83.6-41,85.9-52.8l0.1-0.1
			v570.3c0,35.8,19.3,68.7,50.5,86.2L3999.5,1658z"/>
		<line class="st9" x1="3310.6" y1="1514.9" x2="3875.1" y2="1821.1"/>
		<polygon class="st4" points="3096.5,1152.9 3033.2,1520.8 3356.3,1298.3 		"/>
		<polyline class="st9" points="3096.5,1152.9 3033.2,1520.8 3356.3,1298.3 		"/>
	</g>
	<g id="ARMS_1_">
		<g id="LEFT_ARM_1_">
			<g>
				<g>
					<path class="st10" d="M3093.9,442.8l-417.1,85.5c-15.4,3.2-31.3-10.5-35.4-30.6c-4.1-20.1,5.1-38.9,20.5-42.1l417.1-85.5
						L3093.9,442.8z"/>
					
						<ellipse transform="matrix(0.9796 -0.2008 0.2008 0.9796 -18.7409 628.1555)" class="st10" cx="3086.4" cy="406.4" rx="28.5" ry="37.1"/>
				</g>
				<path class="st8" d="M2855.9,479.2c0,0-134.9,151.6-120.2,185c19.2,19.1,34.8,27.5,32.5,34.6c-2.5,7.7-34.8,54.2-34.8,54.2
					l-3.2-34.5l-30.9,10.2c0,0,32.6-47.6,34.7-62.2c-13.4-10.2-40.7-31.4-39.8-46.2c1-15.7,48.8-71.5,83.5-110l-52.3,17.3
					l-10.3-48.3l94.1-17.3L2855.9,479.2z"/>
				<circle class="st11" cx="2837.6" cy="457.4" r="28.4"/>
			</g>
			<path class="st7" d="M3032.5,489.1c-2.3,11.8-38.5,34.4-85.9,52.8c-51.5,20-96.6,27.6-100.8,16.9c0-0.1,0-0.1-0.1-0.2
				c-3.6-10.8,34.6-35.5,85.8-55.4c51.5-20,96.6-27.6,100.8-16.9C3032.6,487.1,3032.7,488,3032.5,489.1z"/>
			<path class="st3" d="M2997.8,405.1l-5.5,79.4l-2.6,38c-12.5,6.6-27.2,13.2-43.1,19.4c-27,10.5-52.2,17.5-70.7,20.4v-72.6
				l75.9-15.6c0,0,4.2-27.1,12.2-49.8C2971.9,401.5,2997.8,405.1,2997.8,405.1z"/>
			<path class="st12" d="M2953.9,470.8c-1.1,4.5-34.1,15-34.1,39"/>
			<path class="st13" d="M2992.3,484.5l-2.6,38c-12.5,6.6-27.2,13.2-43.1,19.4c-27,10.5-52.2,17.5-70.7,20.4v-32.8
				c14.8-8.7,34.1-17.9,55.6-26.3C2953.9,494.4,2975.1,488,2992.3,484.5z"/>
			<g>
				<path class="st3" d="M2942.6,444.8l-84.7,19.4c-4.5,1-8.7-2.6-8.7-7.6v-51.4c0-6.9,4.2-12.9,10.3-14.9l83.7-27.3
					c5.3-1.7,10.6,2.5,10.6,8.4V430C2953.7,437.1,2949.1,443.3,2942.6,444.8z"/>
				<path class="st12" d="M2879.2,456.2c-4.6,1-9-2.5-9-7.3v-49.3c0-6.6,4.3-12.4,10.6-14.3"/>
				<path class="st12" d="M2903.6,450.9c-4.6,1-9-2.6-9-7.5v-50.8c0-6.8,4.3-12.8,10.6-14.7"/>
				<path class="st12" d="M2930.9,445.1c-4.6,1-9-2.7-9-7.7v-52.6c0-7,4.3-13.2,10.6-15.2"/>
			</g>
		</g>
		<g id="RIGHT_ARM_1_">
			<path class="st7" d="M3962.3,1757.4c-34.1,43-72.3,69.1-87.3,57.2c-15-11.9-1.2-57.4,32.9-100.4c31.8-40,73.8-63,91.5-56.3l3.5,2
				C4018,1671.9,3996.4,1714.5,3962.3,1757.4z"/>
			<path class="st3" d="M4116.6,1829.7l-22.7,12c-9,4.8-20.2,1.4-25-7.6l-23.9-44.4l-36.2-12.4c4,1.5,19.6,9.5,14.7,38.6l-85-31.7
				l-29.2-10.9l-27.7-17.7c6.5-13.2,15.4-27.4,26.5-41.3c9.3-11.7,19.4-21.9,29.5-30.3l28.9,20.2l29.6,3.2l48.1,5.1
				c7.7,0.8,15.1,3.4,21.6,7.5l38.4,27.3c5.6,4,9.3,10,10.2,16.8l7.8,54.6C4122.9,1823.2,4120.6,1827.6,4116.6,1829.7z"/>
			<path class="st12" d="M4060.7,1740.8l33.3,23.7c4.8,3.4,8,8.7,8.9,14.6l6.8,44.1c0.5,3.9-1.4,7.7-4.9,9.5"/>
			<path class="st12" d="M4040.1,1748.7l33.3,23.7c4.8,3.4,8,8.7,8.9,14.6l6.8,44.1c0.5,3.9-1.4,7.7-4.9,9.5"/>
			<line class="st12" x1="4008.8" y1="1777.2" x2="3984.6" y2="1769"/>
			<path class="st13" d="M3996.1,1707.4c-8.1,15.3-19.9,32.7-33.7,50.1c-7.9,9.9-15.9,18.9-23.9,26.7l-29.2-10.9l-27.7-17.7
				c6.5-13.2,15.4-27.4,26.5-41.3c9.3-11.7,19.4-21.9,29.5-30.3l28.9,20.2L3996.1,1707.4z"/>
		</g>
	</g>
	<g id="HEAD_1_">
		<g id="CAP">
			<polygon class="st8" points="3122.9,885.9 3336.8,980.8 3413.1,1204 3258.1,1093.2 3185.8,1004.9 			"/>
			<path class="st7" d="M3185.8,1004.9c0,0,70,12,98.2,90l14.9-15c0,0-27.1-75.9-98.7-95.4L3185.8,1004.9z"/>
			<path class="st4" d="M3603,1101.8c-24-13.6-46.2-21.1-53.3-18.4c0.5-1.2,0.8-2.6,0.7-4c-0.4-4.4-4-7.7-8.3-7.7
				c-0.2,0-0.4,0-0.7,0c-4.6,0.4-8,4.4-7.7,9c0,0.3,0.1,0.6,0.1,0.8l-25.4,16.3c-5.7,3.7-12.7,3.9-18.7,0.6c-6-3.3-9.5-9.3-9.5-16.1
				v-36.5c0-15.9-7.9-30.6-21.2-39.4c-13.3-8.8-30-10.2-44.6-4l-48.4,21.6l-18.4-53.9l-215-95.3c-1.3-0.6-2.9,0-3.5,1.4
				c-0.6,1.3,0,2.9,1.4,3.5l212.8,94.4l75.9,222.1c0.4,1.1,1.4,1.8,2.5,1.8c0.3,0,0.6-0.1,0.9-0.1c1.4-0.5,2.1-2,1.7-3.4
				l-56.5-165.4l48.8-21.8c13-5.6,27.8-4.3,39.5,3.5c11.8,7.8,18.8,20.8,18.8,35v36.5c0,8.8,4.6,16.6,12.3,20.8c3.6,2,7.5,3,11.4,3
				c4.4,0,8.8-1.3,12.7-3.8l25.2-16.1c1.5,1.4,3.5,2.2,5.6,2.2c0.2,0,0.5,0,0.7,0c1.8-0.1,3.4-0.8,4.6-1.9c0,7.1,18.2,23,43.2,37.2
				c5.4,3.1,10.8,5.9,15.9,8.3c3.1-2.6,5.7-5.7,7.8-9.4c2.1-3.6,3.4-7.5,4-11.5C3613.5,1108.1,3608.4,1104.9,3603,1101.8z
				 M3542.3,1084.2c-2.3,0.2-4.2-1.5-4.4-3.7c-0.2-2.2,1.5-4.2,3.7-4.4c2.2-0.2,4.2,1.5,4.4,3.7
				C3546.2,1082,3544.5,1084,3542.3,1084.2z"/>
		</g>
		<g id="HEAD_2_">
			<g id="NECK">
				<polygon class="st3" points="3171.9,1136.4 3134.9,1342.2 3261,1245 3261,1116.7 				"/>
				<polygon class="st13" points="3171.9,1136.4 3167.3,1162.2 3223.1,1274.2 3261,1245 3261,1116.7 				"/>
			</g>
			<g id="HAIR">
				<path class="st14" d="M3187.9,1007c0,0-63.1-15.7-82.8,20.9c-19.7,36.6,37.9,46.7,40.3,33.9c1.1-5.6-103.7-5.5-86.1,73.8
					c18.3,82.6,100.8,54.2,100.8,54.2l9.6-53.4L3187.9,1007z"/>
				<path class="st14" d="M3260,1125.4c0,0-94.2,122.8-11.4,175c66.4,41.8,83.5-17.1,65.7-25.2c-19.3-8.8-63.6,157.2,72.8,156.7
					c136.7-0.5,94.9-171.2,26-227.8c-32.9-27-142.7-102.5-142.7-102.5L3260,1125.4z"/>
			</g>
			<g id="HEAD_3_">
				<path class="st3" d="M3257.2,1094.6l7.1,4.5c6.9,4.4,8.9,13.5,4.6,20.4l-1.4,2.1c-4.4,6.9-13.5,9-20.4,4.6l-7.6-4.8
					c-8.4,6-58.9,39.7-90.1,6.2c-30.3-32.5,39.7-127.6,39.7-127.6c59.4,18.6,82.6,71.4,82.6,71.4L3257.2,1094.6z"/>
				<g>
					<path class="st12" d="M3169.6,1021.6c0,0,16.4,6.1,14.8,20.2c-1.6,14.1-16.4,36.3-12.9,40.1s8.2,4.5,8.2,4.5"/>
					<path class="st12" d="M3165.6,1094.9c0,0,12.2,6.8,28.8,4.2"/>
					
						<ellipse transform="matrix(0.3562 -0.9344 0.9344 0.3562 1066.3667 3694.5015)" class="st13" cx="3214.2" cy="1073.4" rx="7.2" ry="3.9"/>
					
						<ellipse transform="matrix(0.3562 -0.9344 0.9344 0.3562 1056.6555 3638.3127)" class="st13" cx="3168.5" cy="1052.4" rx="6" ry="3.3"/>
					<path class="st12" d="M3252,1111.8c2.8-4.4,8.6-5.7,13-2.9"/>
					<path class="st12" d="M3215.1,1048.5c0,0,12.2,3.3,18.5,17.8"/>
				</g>
			</g>
			<path id="HAIR_1_" class="st14" d="M3233.3,1024.2c0,0-13.3,44.1,24.8,74.2c22.4,17.7,23.7-3.6,23.7-3.6
				S3278.9,1051.5,3233.3,1024.2z"/>
		</g>
	</g>
</g>
<g id="_x31__CHARACTER">
	<g id="DRESS">
		<path class="st15" d="M2349.9,2154.3c-10.5-38.3-183.9-2.4-374.9,67.1c-182.7,66.5-331.2,156.2-332.8,192.3l-100.2-730.9
			c-1.5-10.3-10.3-17.9-20.7-17.9c-5.8,0-11,2.3-14.8,6.1c-3.8,3.8-6.1,9-6.1,14.8V2310h0c-1.2-17.1-45.3-30.8-99.5-30.8
			s-98.2,13.7-99.5,30.8h0v-701.4c0-59.2,31-114,81.6-144.6l65.7-39.7l270.6-163.4l251.7-153.2V846.2c0,11.2,46.3,20.2,100.9,20.2
			c54.5,0,100.9-8.9,100.9-20.2v283.5c0,62.8-30.7,122.1-79.7,161.3L1940,1400.4c-26.1,18.6-32.4,54.8-14.2,81.2
			c101.5,146.9,413.4,575.6,424,669.9C2349.9,2152.4,2349.9,2153.4,2349.9,2154.3z"/>
		<line class="st9" x1="1968" y1="1085.3" x2="1968" y2="1162.3"/>
		<polygon class="st9" points="1448.9,1424.3 1782.6,1647.5 1719.5,1260.9 1647.2,1303.7 1664.2,1462.2 1520.8,1379.3 		"/>
		<path class="st16" d="M2339.2,2163.9c-12-33.1-171,5.1-362.1,74.6s-337.8,157.4-325.7,190.5c12,33.1,178.3-1.1,369.4-70.6
			S2351.3,2197,2339.2,2163.9z"/>
	</g>
	<g id="LEGS">
		<g id="RIGHT_LEG">
			<path class="st17" d="M1904,2854.4l-11,19.2l-12.2,21.4c-105.5,13.2-124.1-55.8-124.1-55.8l15.9-31.6
				C1815.2,2833.8,1869.2,2847.7,1904,2854.4z"/>
			<path class="st5" d="M2284,2352.3c-75,129.3-344.7,507.7-344.7,507.7s-14.1-1.5-35.3-5.6c-34.8-6.8-88.8-20.6-131.5-46.8
				c-9.9-6.1-19.1-12.8-27.4-20.3l195.5-397l49.4-104.1l27.4-57.8c3.3-1.2,6.6-2.3,9.8-3.4c1.6-0.6,3.2-1.1,4.9-1.7
				c4.9-1.7,9.7-3.3,14.5-4.9c4-1.3,7.9-2.6,11.8-4c11.9-4,23.6-7.7,35-11.3c76.6-24.2,142.1-40.5,186.3-45.5
				c9.8,13.7,21,33.4,27.4,58.1C2316.4,2251.8,2315.3,2298.4,2284,2352.3z"/>
			<g>
				<path class="st11" d="M1956.6,3149.5c-3.4,14.9-21.9,20.2-32.7,9.4L1682.2,2918l75.6-78.9c0,0,17.5,68.9,123.1,55.8
					C1966.2,3023.7,1966,3108,1956.6,3149.5z"/>
				<path class="st8" d="M1946.7,3164.7c-16.4,6.3-34.9,3-48.2-8.7l-126.2-110.9c-3.1-2.8-3.5-7.5-0.9-10.8
					c2.5-3.1,2.3-7.7-0.6-10.5l-10.3-10c-2.8-2.8-7.3-2.9-10.3-0.3l-2.4,2c-2.9,2.5-7.1,2.5-9.9,0l-67.8-58.9
					c-8.8-7.6-9.1-21.2-0.8-29.3l11.8-11.4l243.2,245.5c7,7,17.1,7.3,24.3,2.6L1946.7,3164.7z"/>
				<g>
					<path class="st18" d="M1913.8,2927.1c0,0,20.5,18.2-28.5,40.3"/>
					<path class="st18" d="M1926.7,2949c0,0,20.5,18.2-28.5,40.3"/>
					<path class="st18" d="M1939.6,2970.9c0,0,20.5,18.2-28.5,40.3"/>
				</g>
			</g>
			<path class="st7" d="M2307.1,2215.7c-65-0.1-131.6,11.2-195.8,29c-5.1-18-12.3-32.3-17.9-41.6c76.6-24.2,142.1-40.5,186.3-45.5
				C2289.6,2171.4,2300.8,2191.1,2307.1,2215.7z"/>
		</g>
		<g id="LEFT_LEG">
			<path class="st17" d="M1629.3,2844.3l-19.3,24.7l-15.2,19.4c-106.3-2.1-114.8-73-114.8-73l23.1-33.1h0
				C1543.2,2814.5,1597.4,2834.5,1629.3,2844.3z"/>
			<path class="st5" d="M2113.5,2325.6c-5.8,24.7-18.2,51.3-41,78.7c-93.6,112.7-416.8,447.3-416.8,447.3s-126.2-28.4-180.1-96.4
				l217.6-309.1c0,0,0,0,0,0l80.3-114.1c55.4-29.5,125.8-60.8,203.6-89.2c40.6-14.8,79.7-28.1,116.3-39.7
				c5.5,9.3,12.8,23.7,17.9,41.6C2117.7,2266.9,2120.8,2294.7,2113.5,2325.6z"/>
			<g>
				<path class="st11" d="M1633.2,3151.2c-5.5,14.3-24.5,16.9-33.7,4.6l-204.7-273.1l86.1-67.3c0,0,7.4,70.9,113.8,73
					C1660.8,3028.1,1648.5,3111.5,1633.2,3151.2z"/>
				<path class="st8" d="M1621.3,3164c-17.1,3.9-35-2.1-46.4-15.4l-109-127.6c-2.7-3.2-2.4-7.9,0.6-10.8c3-2.7,3.3-7.3,0.9-10.5
					l-8.8-11.3c-2.4-3.1-6.8-3.9-10.2-1.8l-2.6,1.7c-3.2,2-7.3,1.4-9.8-1.4l-59-67.7c-7.6-8.8-6-22.2,3.4-29l13.3-9.6l205.7,276.9
					c5.9,7.9,15.9,9.6,23.7,6.1L1621.3,3164z"/>
				<g>
					<path class="st18" d="M1624.9,2925.6c0,0,17.7,20.9-34,35.8"/>
					<path class="st18" d="M1636.6,2949.1c0,0,17.7,20.9-34,35.8"/>
					<path class="st18" d="M1646.2,2972.6c0,0,17.7,20.9-34,35.8"/>
				</g>
			</g>
			<path class="st7" d="M2111.4,2244.7c-41.8,11.6-82.6,25.9-121.3,41.4c-167.1,67.3-295.2,158.7-296.8,159.8l80.3-114.1
				c55.4-29.5,125.8-60.8,203.6-89.2c13.6-4.9,27-9.7,40.3-14.4c3.3-1.2,6.6-2.3,9.8-3.4c1.6-0.6,3.2-1.1,4.9-1.7
				c4.9-1.7,9.7-3.3,14.5-4.9c4-1.3,7.9-2.6,11.8-4c11.9-4,23.6-7.7,35-11.3C2099,2212.5,2106.2,2226.8,2111.4,2244.7z"/>
		</g>
	</g>
	<g id="ARMS">
		<g id="LEFT_ARM">
			<path class="st10" d="M1498.2,2323.5c0,17.4-43.5,31.6-97.2,31.6c-53.7,0-97.2-14.1-97.2-31.6c0-0.2,0-0.5,0-0.7
				c1.2-17.1,44.3-30.8,97.2-30.8c52.9,0,96,13.7,97.2,30.8C1498.2,2323,1498.2,2323.3,1498.2,2323.5z"/>
			<path class="st17" d="M1459,2300v82.1c0,26.6-14.7,50.9-38.1,63.4l-39.9,21.2c-9.7,5.2-20.6,7.9-31.6,7.9c-4.7,0-7.9-3.9-7.9-8
				c0-1.7,0.6-3.5,1.8-5l14.9-18c2.1-2.5,0.3-6.2-2.9-6.2h-87.7l-16,20.2c-8.5,10.7-21.5,17-35.1,17h-4.6c-5.7,0-9.2-6.1-6.4-11
				l1.8-3.3c-5.5,2.3-11.5,3.6-17.6,3.6h-4.6c-5.7,0-9.2-6.1-6.4-11l35.9-39.6l24.9-9.8l0,0.1l123.7-48.6h0v-58.4
				c11.7-1.5,24.4-2.4,37.8-2.4C1422.7,2294.1,1442.7,2296.3,1459,2300z"/>
			<line class="st19" x1="1236.3" y1="2407.7" x2="1206.3" y2="2459.2"/>
			<path class="st19" d="M1350.6,2452.6l18.4-22.5c3.6-4.4,0.5-10.9-5.2-10.9"/>
			<path class="st7" d="M1459,2300v51.3c-16.3,3.7-36.3,5.9-58,5.9c-13.4,0-26.1-0.8-37.8-2.4v-58.4c11.7-1.5,24.4-2.4,37.8-2.4
				C1422.6,2294.1,1442.7,2296.3,1459,2300z"/>
		</g>
		<g id="RIGHT_ARM">
			<path class="st16" d="M2170.7,835.5c0,11.3-44.2,20.2-98.7,20.2s-98.7-8.9-98.7-20.2c0-11.3,44.2-20.6,98.7-20.6
				S2170.7,824.3,2170.7,835.5z"/>
			<path class="st17" d="M2041.9,852c-12.2-0.8-23.3-2-32.9-3.7v-97.1c0-3.2,0.7-6.4,2.1-9.3l31.4-64.8c5.8-12,18-19.6,31.3-19.6
				h38.5l-84.2,154.9c-0.4,0.7-0.7,1.4-1,2.1C2022.2,826.6,2028.3,842.1,2041.9,852z"/>
			<path class="st7" d="M2114.3,812.7l12.4-21.6v58.6c-10.2,1.3-21.7,2.4-34,2.9L2114.3,812.7z"/>
			<g>
				<g>
					<path class="st11" d="M2295.7,473.6l-205,377.2c-7.6,14-28.4,17.3-46.6,7.4s-26.7-29.2-19.1-43.1l205-377.2L2295.7,473.6z"/>
					
						<ellipse transform="matrix(0.4775 -0.8786 0.8786 0.4775 781.8137 2226.3313)" class="st11" cx="2262.8" cy="455.8" rx="28.8" ry="37.4"/>
				</g>
				<path class="st8" d="M2170.1,612l96.9-80.2l-1.5,29.2l31,7.7l-74,45.7c56.8-12.2,158.8-29.4,174.3,0.6
					c6.1,11.8-5.4,35.9-13.1,53.2c-4.8,36.5,186.6-8.7,188.8-9.2l-29.5,27.3l29.5,16.8c0,0-160.6,30.6-202,22.2
					c-23.4-4.8-4.8-36.2,11.5-59.2c5-17.7-34.8-23.5-200.3-5.5L2170.1,612z"/>
				<circle class="st11" cx="2171.5" cy="631.6" r="28.6"/>
			</g>
			<path class="st17" d="M2193.9,727.4l-9.2,21.6l-10.8,25.2l-5.8,13.7l-8.9,20.9c-0.2,0.6-0.5,1.1-0.8,1.7c0,0,0,0.1-0.1,0.1
				c-2.9,4.9-8.4,8-14.4,8h-70.6c-8.5,0-14.4-8.1-11.2-15.6l5.1-12l11.3-26.5l9.7-22.8l8.5-20.1c2.5-5.9,8.6-9.7,15.3-9.7h70.6
				C2191.3,711.8,2197.1,719.9,2193.9,727.4z"/>
			<g>
				<path class="st19" d="M2090.7,741.6c2.9-3.3,7.2-5.2,11.8-5.2h67.4c7.1,0,12.2,6.1,11.5,12.6"/>
				<path class="st19" d="M2081.5,764.5c2.9-2.9,6.9-4.6,11.2-4.6h67.4c7.7,0,13.1,7.2,11.1,14.3"/>
				<path class="st19" d="M2070.9,790.9c2.9-2.7,6.8-4.3,10.9-4.3h67.4c8,0,13.5,7.7,10.9,15c0,0,0,0,0,0"/>
			</g>
			<path class="st17" d="M2151,657.4v1.8c0,18.3-14.8,33.2-33.2,33.2H2083v-35H2151z"/>
		</g>
	</g>
	<g id="HEAD">
		<g id="CAP_1_">
			<path class="st4" d="M1305.9,1439.7c-3.2,4.8-6.5,9.3-9.8,13.4c-3.6-0.9-7.1-2.4-10.3-4.6c-3.2-2.2-5.9-4.8-8.1-7.9
				c2.6-4.5,5.5-9.3,8.8-14.1c16.2-24,33.6-40.5,39-36.9S1322.1,1415.7,1305.9,1439.7z"/>
			<path class="st15" d="M1453.3,1079.4l-124.9,184.4c-1.5,2.2,0.6,4.9,3.1,4.2l59.7-19.2c-7.3,8.7-11.8,20-11.8,32.2v58.1
				c0,22.7-18.1,41.2-40.7,41.8c-1.4-2.6-4.2-4.4-7.5-4.4c-2.3,0-4.4,0.9-6,2.5c-1.6,1.6-2.5,3.7-2.4,6c0,4.6,3.8,8.4,8.5,8.4h0
				c4.2,0,7.7-3.2,8.3-7.2c25-1.1,45.1-21.8,45.1-47.1V1281c0-14.6,7.2-27.9,18-35.9l120.1-38.6l154.2-127.1H1453.3z M1333.5,1387
				c-0.6,0.6-1.4,0.9-2.2,0.9c-0.8,0-1.6-0.3-2.2-0.9c-0.6-0.6-0.9-1.4-0.9-2.2c0-0.8,0.3-1.6,0.9-2.2c0.6-0.6,1.4-0.9,2.2-0.9
				c0,0,0,0,0,0c0.9,0,1.6,0.3,2.2,0.9c0.6,0.6,0.9,1.3,0.9,2.2C1334.5,1385.7,1334.1,1386.4,1333.5,1387z"/>
			<g>
				<path class="st15" d="M1317.5,1263.4c-0.5,0-1-0.1-1.5-0.5c-1.2-0.8-1.5-2.5-0.7-3.7l130.2-192.2h235.8c1.5,0,2.7,1.2,2.7,2.7
					c0,1.5-1.2,2.7-2.7,2.7h-233l-128.6,189.8C1319.2,1263,1318.4,1263.4,1317.5,1263.4z"/>
			</g>
			<g>
				<path class="st20" d="M1449.1,1232.4l-15-6.8l0.8-2.3c0.3-0.9,7.6-22.1,25.6-44.6c16.7-20.9,46-46.6,91.1-51l2.6-0.2l2.6,18.9
					l-5.3,0.7l-1.9-13.8c-41.8,4.8-69.2,29-84.9,48.7c-14.1,17.6-21.5,34.8-23.8,40.8l10.5,4.8L1449.1,1232.4z"/>
			</g>
		</g>
		<g id="HEAD_4_">
			<g id="NECK_1_">
				<polygon class="st17" points="1525.1,1378.2 1494.8,1279.2 1565.7,1244.5 1594.9,1266.7 1645.1,1304.8 1660.3,1456.2 				"/>
				<polygon class="st7" points="1594.9,1266.7 1594.9,1266.7 1540.8,1387.3 1525.1,1378.2 1494.8,1279.2 1565.7,1244.5 				"/>
			</g>
			<path id="HEAD_5_" class="st17" d="M1534.8,1285.7c-5.1,0.5-15.4-4.7-27.1-12.1l-13.7,11.1c-7.9,6.4-19.5,5.3-25.9-2.6
				c-2.8-3.4-4.2-7.6-4.2-11.7c0-5.3,2.3-10.6,6.8-14.3l5.6-4.6c-14.7-11-26.2-20.5-26.2-20.5s25.5-76.6,107-84.4
				c0,0,43.2,89.3,46.1,97.8C1606.1,1253,1563.6,1282.8,1534.8,1285.7z"/>
			<path id="HAIR_2_" class="st4" d="M1476.3,1251.5c-14.7-11-26.2-20.5-26.2-20.5s9.4-28.3,35.2-52.3
				C1458.3,1205.6,1498.6,1235.6,1476.3,1251.5z"/>
			<g id="FACE">
				<path class="st19" d="M1490.5,1199.9c0,0,4.3-11.6,15.2-17.6"/>
				<path class="st19" d="M1568.5,1170.5c0,0-15.1-2.1-22.6,2.5c-7.5,4.6-7.5,28.4,4.5,43.3"/>
				<path class="st19" d="M1557.6,1231.2c0,0-9.3,8.3-25.1,2.2"/>
				<path class="st19" d="M1534,1229c0,0-3.3,4.7-3.1,10"/>
				
					<ellipse transform="matrix(0.9658 -0.2593 0.2593 0.9658 -261.7921 433.6165)" class="st7" cx="1512.9" cy="1209.2" rx="3" ry="5.9"/>
				
					<ellipse transform="matrix(0.9658 -0.2593 0.2593 0.9658 -255.2721 444.5919)" class="st7" cx="1557.7" cy="1190" rx="2.7" ry="5.5"/>
				<path class="st19" d="M1512.9,1279.6l-23.1-18c-2.6-2-6.2-1.8-8.6,0.4l-1.4,1.3c-2.7,2.6-2.7,6.8,0,9.4"/>
			</g>
		</g>
	</g>
</g>
</svg>
