<?xml version="1.0" encoding="utf-8"?>
<!-- Generator: Adobe Illustrator 24.2.1, SVG Export Plug-In . SVG Version: 6.00 Build 0)  -->
<svg version="1.1" id="Слой_1" xmlns="http://www.w3.org/2000/svg" xmlns:xlink="http://www.w3.org/1999/xlink" x="0px" y="0px"
	 viewBox="0 0 5000 3500" style="enable-background:new 0 0 5000 3500;" xml:space="preserve">
<style type="text/css">
	.st0{fill:#D0F0E4;}
	.st1{fill:#FFFFFF;stroke:#66B0F0;stroke-width:6;stroke-miterlimit:10;}
	.st2{fill:#66B0F0;}
	.st3{fill:#66B0F0;stroke:#66B0F0;stroke-width:6;stroke-miterlimit:10;}
	.st4{fill:none;stroke:#66B0F0;stroke-width:6;stroke-miterlimit:10;}
	.st5{fill:#FFCF2D;}
	.st6{fill:#FFFFFF;}
	.st7{fill:#FFFFFF;stroke:#66B0F0;stroke-width:4;stroke-miterlimit:10;}
	.st8{fill:none;stroke:#66B0F0;stroke-width:4;stroke-linecap:round;stroke-miterlimit:10;}
	.st9{fill:#E57281;}
	.st10{fill:#9A3B82;}
	.st11{fill:#3FB1B5;}
	.st12{fill:#E6E6E6;}
	.st13{fill:none;stroke:#FFFFFF;stroke-width:6;stroke-linecap:round;stroke-miterlimit:10;}
	.st14{fill:none;stroke:#FFFFFF;stroke-width:6;stroke-miterlimit:10;}
	.st15{fill:#FFFFFF;stroke:#FFCF2D;stroke-width:6;stroke-miterlimit:10;}
	.st16{fill:none;stroke:#FFCF2D;stroke-width:6;stroke-linecap:round;stroke-miterlimit:10;}
	.st17{fill:#FFFFFF;stroke:#FE5244;stroke-width:6;stroke-miterlimit:10;}
	.st18{fill:none;stroke:#FE5244;stroke-width:6;stroke-miterlimit:10;}
	.st19{fill:#FFCF2D;stroke:#FE5244;stroke-width:6;stroke-linejoin:round;stroke-miterlimit:10;}
	.st20{fill:none;stroke:#9A3B82;stroke-width:5;stroke-linecap:round;stroke-miterlimit:10;}
	.st21{fill:#FE5244;}
	.st22{fill:#FFFFFF;stroke:#3FB1B5;stroke-width:5;stroke-miterlimit:10;}
	.st23{fill:none;stroke:#3FB1B5;stroke-width:5;stroke-miterlimit:10;}
	.st24{fill:#A0505A;}
	.st25{fill:#73325A;}
	.st26{fill:#FFFFFF;stroke:#FFCF2D;stroke-width:6;stroke-linecap:round;stroke-miterlimit:10;}
	.st27{fill:none;stroke:#73325A;stroke-width:5;stroke-linecap:round;stroke-miterlimit:10;}
</style>
<polygon id="FLOOR" class="st0" points="4374,2996 626,2996 1298.8,2598.7 3711.5,2598.7 "/>
<g id="LAPTOP">
	<g>
		<path class="st1" d="M2774.9,1053.7h-674.3V663.8c0-26.4,21.4-47.8,47.8-47.8h578.7c26.4,0,47.8,21.4,47.8,47.8V1053.7z"/>
		<path class="st2" d="M2724,1028.3h-569.7c-15,0-27.2-12.2-27.2-27.2V666.9c0-15,12.2-27.2,27.2-27.2H2724
			c15,0,27.2,12.2,27.2,27.2v334.3C2751.2,1016.2,2739,1028.3,2724,1028.3z"/>
		<path class="st3" d="M2893.1,1145.2c25.8,16.8,19.8,49.7-10.7,49.7h-918.6c-25.7,0-34.5-34.7-9.3-50.6L2893.1,1145.2z"/>
		<path class="st1" d="M2882.4,1172h-918.6c-16.4,0-22.9-19.3-9.3-27.7l146.3-90.6H2773l120,91.5C2905,1154.3,2898,1172,2882.4,1172
			z"/>
		<g>
			<path class="st1" d="M2776.4,1144.7h-706.6c-12.6,0-17.6-14.9-7.2-21.3l101.6-69.7h528l92.3,70.4
				C2793.8,1131.1,2788.4,1144.7,2776.4,1144.7z"/>
			<g>
				<line class="st4" x1="2646.5" y1="1053.7" x2="2738.9" y2="1144.7"/>
				<line class="st4" x1="2597.5" y1="1053.7" x2="2678.9" y2="1144.7"/>
				<line class="st4" x1="2551.7" y1="1053.7" x2="2622.3" y2="1144.7"/>
				<line class="st4" x1="2500.5" y1="1053.7" x2="2560.2" y2="1144.7"/>
				<line class="st4" x1="2458" y1="1053.7" x2="2487.1" y2="1144.7"/>
			</g>
			<g>
				<line class="st4" x1="2207.1" y1="1053.7" x2="2114.7" y2="1144.7"/>
				<line class="st4" x1="2256.1" y1="1053.7" x2="2174.7" y2="1144.7"/>
				<line class="st4" x1="2301.9" y1="1053.7" x2="2231.3" y2="1144.7"/>
				<line class="st4" x1="2353.1" y1="1053.7" x2="2293.4" y2="1144.7"/>
				<line class="st4" x1="2395.6" y1="1053.7" x2="2366.5" y2="1144.7"/>
			</g>
			<line class="st1" x1="2424.4" y1="1145.8" x2="2424.4" y2="1053.7"/>
			<line class="st4" x1="2114.7" y1="1087.7" x2="2736.9" y2="1087.7"/>
		</g>
	</g>
	<g>
		<g id="SHIRT">
			<path class="st5" d="M2676.6,1028.3h-505.9l9.1-64.5c5.6-39.7,34.1-72.3,72.6-83.3l123.3-25.6h95.9l123.3,25.6
				c38.6,10.9,67.1,43.6,72.6,83.3L2676.6,1028.3z"/>
			<g>
				<g>
					<path class="st6" d="M2457.8,928.6l-36.5-36.9c-0.8-0.8-0.8-2.1,0-2.8c0.8-0.8,2.1-0.8,2.8,0l33.5,33.9l52-58.9
						c0.7-0.8,2-0.9,2.8-0.2c0.8,0.7,0.9,2,0.2,2.8L2457.8,928.6z"/>
				</g>
				<g>
					<path class="st6" d="M2390,928.6l-54.8-62.1c-0.7-0.8-0.7-2.1,0.2-2.8c0.8-0.7,2.1-0.7,2.8,0.2l52,58.9l33.5-33.9
						c0.8-0.8,2-0.8,2.8,0c0.8,0.8,0.8,2,0,2.8L2390,928.6z"/>
				</g>
				<g>
					<path class="st6" d="M2424.5,952.7c-4.8,0-8.7-3.9-8.7-8.7c0-4.8,3.9-8.7,8.7-8.7s8.7,3.9,8.7,8.7
						C2433.2,948.8,2429.3,952.7,2424.5,952.7z M2424.5,939.3c-2.6,0-4.7,2.1-4.7,4.7c0,2.6,2.1,4.7,4.7,4.7s4.7-2.1,4.7-4.7
						C2429.2,941.4,2427.1,939.3,2424.5,939.3z"/>
				</g>
				<g>
					<path class="st6" d="M2424.5,1001.7c-4.8,0-8.7-3.9-8.7-8.7c0-4.8,3.9-8.7,8.7-8.7s8.7,3.9,8.7,8.7
						C2433.2,997.8,2429.3,1001.7,2424.5,1001.7z M2424.5,988.3c-2.6,0-4.7,2.1-4.7,4.7c0,2.6,2.1,4.7,4.7,4.7s4.7-2.1,4.7-4.7
						C2429.2,990.4,2427.1,988.3,2424.5,988.3z"/>
				</g>
			</g>
		</g>
		<g id="HAND_1_">
			<polygon class="st7" points="2375.1,1026.2 2211.7,1026.2 2168.1,896.8 2331.5,850 			"/>
			<g>
				<path class="st6" d="M2220.2,913.6h-3.1c-7.9,0-14.3-6.4-14.3-14.3v-44.9c0-3.2,2.6-5.8,5.8-5.8h13.5c3.2,0,5.8,2.6,5.8,5.8
					v51.4C2228,910.1,2224.5,913.6,2220.2,913.6z"/>
				<path class="st8" d="M2220.2,913.6h-3.1c-7.9,0-14.3-6.4-14.3-14.3v-44.9c0-3.2,2.6-5.8,5.8-5.8h13.5c3.2,0,5.8,2.6,5.8,5.8
					v51.4C2228,910.1,2224.5,913.6,2220.2,913.6z"/>
				<path class="st6" d="M2286,913.6h3.1c7.9,0,14.3-6.4,14.3-14.3v-44.9c0-3.2-2.6-5.8-5.8-5.8H2284c-3.2,0-5.8,2.6-5.8,5.8v51.4
					C2278.2,910.1,2281.7,913.6,2286,913.6z"/>
				<path class="st6" d="M2245.3,918.8h-7.2c-5.6,0-10.1-4.5-10.1-10.1v-54.2c0-3.2,2.6-5.8,5.8-5.8h13.5c3.2,0,5.8,2.6,5.8,5.8V911
					C2253.1,915.3,2249.6,918.8,2245.3,918.8z"/>
				<path class="st6" d="M2270.5,920.8h-6c-6.3,0-11.4-5.1-11.4-11.4v-55c0-3.2,2.6-5.8,5.8-5.8h13.5c3.2,0,5.8,2.6,5.8,5.8V913
					C2278.2,917.3,2274.7,920.8,2270.5,920.8z"/>
				<path class="st8" d="M2286,913.6h3.1c7.9,0,14.3-6.4,14.3-14.3v-44.9c0-3.2-2.6-5.8-5.8-5.8H2284c-3.2,0-5.8,2.6-5.8,5.8v51.4
					C2278.2,910.1,2281.7,913.6,2286,913.6z"/>
				<path class="st8" d="M2245.3,918.8h-7.2c-5.6,0-10.1-4.5-10.1-10.1v-54.2c0-3.2,2.6-5.8,5.8-5.8h13.5c3.2,0,5.8,2.6,5.8,5.8V911
					C2253.1,915.3,2249.6,918.8,2245.3,918.8z"/>
				<path class="st8" d="M2270.5,920.8h-6c-6.3,0-11.4-5.1-11.4-11.4v-55c0-3.2,2.6-5.8,5.8-5.8h13.5c3.2,0,5.8,2.6,5.8,5.8V913
					C2278.2,917.3,2274.7,920.8,2270.5,920.8z"/>
			</g>
		</g>
		<g id="HEAD_5_">
			<g id="NECK_2_">
				<path class="st6" d="M2471.7,796.1v73c0,12.6-21.5,22.9-48,22.9c-26.5,0-48-10.3-48-22.9v-73H2471.7z"/>
				<path class="st2" d="M2471.7,796.1c0,55.1-35.3,71.5-69.2,68.6c-0.1,0-0.2,0-0.3,0c-15-1.4-26.4-14.2-26.4-29.2v-39.3H2471.7z"
					/>
			</g>
			<path id="HEAD_4_" class="st6" d="M2494,777.3v3.7c0,8.2-6.6,14.8-14.8,14.8h-7.6l0.1,1.7c0,23.6-19.1,42.7-42.7,42.7h-10.5
				c-23.6,0-42.7-19.1-42.7-42.7l0.1-1.7h-7.6c-8.2,0-14.8-6.6-14.8-14.8v-3.7c0-8.2,6.6-14.8,14.8-14.8h9.7l1.1-18.1
				c0-2.8,0.4-5.5,1.2-8c28.6,7.1,62.1-11.3,71.1-16.8c10,3.8,17.1,13.4,17.1,24.7l1.1,18.1h9.7C2487.4,762.5,2494,769.1,2494,777.3
				z"/>
			<path id="HAIR_2_" class="st9" d="M2479.9,762.5h-10.4l-1.1-18.1c0-11.3-7.1-20.9-17.1-24.7c-9,5.4-42.5,23.8-71.1,16.8
				c-0.8,2.5-1.2,5.2-1.2,8l-1.1,18.1h-6.5c0,0-13.3-64.4-0.2-76.2c9.7-8.7,98.5,10.3,108.3,23.8
				C2485,717.9,2479.9,762.5,2479.9,762.5z"/>
			<g id="FACE">
				<g>
					<path class="st2" d="M2454.9,758.6c-0.3,0-0.7-0.1-1-0.4l0,0c-0.1-0.1-6.6-5.4-17-5.4c-0.8,0-1.5-0.7-1.5-1.5s0.7-1.5,1.5-1.5
						c11.5,0,18.6,5.8,18.9,6.1c0.6,0.5,0.7,1.5,0.2,2.1C2455.8,758.4,2455.3,758.6,2454.9,758.6z"/>
				</g>
				<g>
					<path class="st2" d="M2416.9,789.6c-0.2,0-0.4,0-0.5-0.1c-0.8-0.3-1.2-1.2-0.9-1.9c2.8-7.4,2.1-16.7-1.8-24.9
						c-2.3-5-5.6-8.6-8.5-9.6c-6.4-2.2-15.4,0.9-15.5,0.9c-0.8,0.3-1.6-0.1-1.9-0.9c-0.3-0.8,0.1-1.6,0.9-1.9
						c0.4-0.1,10-3.4,17.4-0.9c3.7,1.3,7.5,5.4,10.2,11.2c4.2,8.9,4.9,19.1,1.9,27.3C2418.1,789.2,2417.5,789.6,2416.9,789.6z"/>
				</g>
				<g>
					<path class="st2" d="M2436.6,805.5c0.1,0.8-0.6,1.5-1.4,1.6h-0.1c-0.8,0-1.4-0.6-1.5-1.4c-0.1-1-0.3-2-0.6-2.9
						c-4.3,2.1-8.2,2.8-11.4,2.8c-6.3,0-10.1-2.6-10.3-2.8c-0.7-0.5-0.8-1.4-0.4-2.1c0.5-0.7,1.4-0.8,2.1-0.4
						c0.2,0.1,3.4,2.3,8.6,2.3c2.8,0,6.2-0.6,10.1-2.5c-0.6-1-1.2-1.6-1.2-1.6c-0.6-0.6-0.5-1.6,0.1-2.1c0.6-0.5,1.6-0.5,2.1,0.1
						C2432.9,796.8,2436.3,800.6,2436.6,805.5z"/>
				</g>
				
					<ellipse transform="matrix(0.9981 -6.221230e-02 6.221230e-02 0.9981 -43.2943 153.3953)" class="st2" cx="2441.6" cy="771.9" rx="2.5" ry="5"/>
				
					<ellipse transform="matrix(0.9981 -6.221230e-02 6.221230e-02 0.9981 -43.3734 150.8559)" class="st2" cx="2400.8" cy="771.9" rx="2.3" ry="4.6"/>
				<path class="st2" d="M2373.2,782.1c-0.8,0-1.5-0.7-1.5-1.5c0-4.4-3.6-7.9-7.9-7.9c-0.8,0-1.5-0.7-1.5-1.5s0.7-1.5,1.5-1.5
					c6,0,10.9,4.9,10.9,10.9C2374.7,781.5,2374,782.1,2373.2,782.1z"/>
				<path class="st2" d="M2473.8,782.1c-0.8,0-1.5-0.7-1.5-1.5c0-6,4.9-10.9,10.9-10.9c0.8,0,1.5,0.7,1.5,1.5s-0.7,1.5-1.5,1.5
					c-4.4,0-7.9,3.6-7.9,7.9C2475.3,781.5,2474.7,782.1,2473.8,782.1z"/>
			</g>
		</g>
	</g>
</g>
<g id="TABLE">
	<path class="st4" d="M4284,2996l-428.3-1416.2c-8.5-28.2-34.6-47.5-64.1-47.5H1192.1c-29.8,0-56,19.7-64.3,48.4L719.1,2996"/>
	<line class="st4" x1="1904.2" y1="1053.7" x2="3041.2" y2="1053.7"/>
</g>
<g id="BOY">
	<path id="PAPER_1_" class="st5" d="M2298.8,1268.9h268.6v230.7h-268.6C2298.8,1499.6,2298.8,1260.2,2298.8,1268.9z"/>
	<g id="BOY_1_">
		<g id="LEGS_1_">
			<g>
				<polygon class="st10" points="3303.2,2340.8 3178.3,2029.8 3379.4,2029.8 				"/>
				<path class="st10" d="M2960.5,1614.7L2960.5,1614.7c26.8-50.7,79.5-82.4,136.8-82.4H3252l105.1,82.4H2960.5z"/>
			</g>
			<g>
				<g>
					<path class="st11" d="M3547,1978.8h-389.7l146.7,356.1c-10.2-16.6-71.3,0.7-136,40.4c-63.9,39.2-107.1,86.4-98.3,103.6
						l-316.2-550.2c-82-138.8,18-314,179.2-314H3806l1.9,6C3864.9,1797.7,3732.9,1978.8,3547,1978.8z"/>
					<path class="st12" d="M3821.1,1716.8c-1.4,32.5-8.6,63.9-20.8,93l-458-195h454.6l10.6,31
						C3814.9,1664.4,3819,1690.5,3821.1,1716.8z"/>
					<path class="st2" d="M3304.1,2334.9c10.2,16.6-34.4,61.9-99,101.6c-64.7,39.7-124.8,59.6-135,43c-10.2-16.6,33.3-63.5,98-103.2
						C3232.7,2336.6,3293.8,2318.3,3304.1,2334.9z"/>
					<g>
						<path class="st13" d="M3160.6,2376.5l-284.4-502.8c-22.3-39.8,6.4-89,52.1-89h553.9c74.6,0,130.3-68.7,114.9-141.7"/>
						<path class="st13" d="M3066.8,2480.6c-10.2-16.6,33.9-69.4,101.3-108.7c75.7-44.1,124.7-57.2,139.3-33.8"/>
						<line class="st13" x1="3309.6" y1="2340.3" x2="3123.8" y2="1897.3"/>
						<line class="st14" x1="2921.8" y1="1611.4" x2="3375.1" y2="1611.4"/>
					</g>
				</g>
				<g>
					<path class="st9" d="M3178.2,2502.4l-27-36.8l-37.2-50.6c15.2-12.8,33.5-26.1,54-38.7c40.8-25,80.1-41.6,106.2-46.2l18.1,36.1
						l22.6,45C3298.9,2468.1,3178.2,2502.4,3178.2,2502.4z"/>
					<path class="st10" d="M3292.4,2366.2c-16.8,20.5-48.4,46.4-87.3,70.3c-18.7,11.5-37,21.3-53.8,29.1l-37.2-50.6
						c15.2-12.8,33.5-26.1,54-38.7c40.8-25,80.1-41.6,106.2-46.2L3292.4,2366.2z"/>
				</g>
				<g>
					<path class="st15" d="M3438.5,2609.5l-274.4,197.1c-23.3,16.2-59.5,29.7-54.7-28.9c6.7-80.8,24.6-201,68.8-275.4c0,0,0,0,0,0
						c1.9-0.5,120.7-34.8,136.7-91.2L3440,2500C3476,2528,3475.2,2582.6,3438.5,2609.5z"/>
					<path class="st16" d="M3165.5,2528.4c21.8,4.1,144.2-39.3,163.2-106.2"/>
					<path class="st5" d="M3136,2786.3c0,0,179.1-248.8,306.5-234.8C3581.2,2566.6,3022.6,2931.4,3136,2786.3z"/>
					<path class="st16" d="M3130.9,2820.2c-13.9,0.9-28.6-15.3-8.3-41.3c0,0,186.4-258,319.1-243.4c20.5,2.2,27.4,18.9,22.6,33.3"/>
				</g>
			</g>
		</g>
		<g id="T-SHIRT">
			<path class="st17" d="M3822.1,1737.1c-63.4-15-221.2-54.5-401.2-96.1c-84.6-19.5-155.4-77.1-191.9-155.9l-163.9-354.6l99.2-157.2
				c30.5-48.4,82.5-79.2,139.6-82.7l97.6-6c98.4-6,177.4,55.4,207.4,149.3l198.5,580.8C3829.2,1669.1,3822.1,1737.1,3822.1,1737.1z"
				/>
			<path class="st18" d="M3151.4,1150.4c0,0,52.2,82,171.1,100.1"/>
			<g>
				<path class="st19" d="M3221.8,1001.2L3221.8,1001.2c-5.4-5.8-14.9-4.2-18.2,2.9l0,0c-3.7,8,3,16.9,11.7,15.6h0
					C3224.2,1018.4,3227.9,1007.7,3221.8,1001.2z"/>
				<path class="st19" d="M3470.9,1172.1L3470.9,1172.1c-5.4-5.8-14.9-4.2-18.2,2.9v0c-3.7,8,3,16.9,11.7,15.6h0
					C3473.3,1189.3,3477,1178.6,3470.9,1172.1z"/>
				<path class="st19" d="M3549.8,1242.1L3549.8,1242.1c-5.4-5.8-14.9-4.2-18.2,2.9l0,0c-3.7,8,3,16.9,11.7,15.6l0,0
					C3552.1,1259.4,3555.8,1248.7,3549.8,1242.1z"/>
				<path class="st19" d="M3701.1,1638.2L3701.1,1638.2c-5.4-5.8-14.9-4.2-18.2,2.9l0,0c-3.7,8,3,16.9,11.7,15.6l0,0
					C3703.4,1655.4,3707.1,1644.8,3701.1,1638.2z"/>
				<path class="st19" d="M3616.4,1448.9L3616.4,1448.9c-5.4-5.8-14.9-4.2-18.2,2.9l0,0c-3.7,8,3,16.9,11.7,15.6l0,0
					C3618.8,1466.1,3622.5,1455.4,3616.4,1448.9z"/>
				<path class="st19" d="M3651.5,1312.7L3651.5,1312.7c-7.8,1-12.1,9.7-8.2,16.5v0c4.4,7.7,15.5,7.4,19.5-0.5l0,0
					C3666.9,1320.7,3660.3,1311.5,3651.5,1312.7z"/>
				<path class="st19" d="M3715.4,1514.7L3715.4,1514.7c-7.8,1-12.1,9.7-8.2,16.5l0,0c4.4,7.7,15.5,7.4,19.5-0.5l0,0
					C3730.8,1522.7,3724.3,1513.5,3715.4,1514.7z"/>
				<path class="st19" d="M3450.4,1296.8L3450.4,1296.8c-5.4-5.8-14.9-4.2-18.2,2.9v0c-3.7,8,3,16.9,11.7,15.6l0,0
					C3452.7,1314,3456.4,1303.4,3450.4,1296.8z"/>
				<path class="st19" d="M3395.3,1410.1L3395.3,1410.1c-5.4-5.8-14.9-4.2-18.2,2.9v0c-3.7,8,3,16.9,11.7,15.6l0,0
					C3397.7,1427.3,3401.4,1416.6,3395.3,1410.1z"/>
				<path class="st19" d="M3296.7,1370.5L3296.7,1370.5c5.8-5.4,4.2-14.9-2.9-18.2l0,0c-8-3.7-16.9,3-15.6,11.7l0,0
					C3279.5,1372.8,3290.1,1376.5,3296.7,1370.5z"/>
				<path class="st19" d="M3384.2,1565.5L3384.2,1565.5c5.8-5.4,4.2-14.9-2.9-18.2l0,0c-8-3.7-16.9,3-15.6,11.7l0,0
					C3367,1567.9,3377.7,1571.6,3384.2,1565.5z"/>
				<path class="st19" d="M3531.5,1398.2L3531.5,1398.2c5.8-5.4,4.2-14.9-2.9-18.2h0c-8-3.7-16.9,3-15.6,11.7v0
					C3514.3,1400.5,3525,1404.3,3531.5,1398.2z"/>
				<path class="st19" d="M3581.8,1607.6L3581.8,1607.6c5.8-5.4,4.2-14.9-2.9-18.2l0,0c-8-3.7-16.9,3-15.6,11.7l0,0
					C3564.5,1610,3575.2,1613.7,3581.8,1607.6z"/>
				<path class="st19" d="M3280.2,1183.5L3280.2,1183.5c-5.4-5.8-14.9-4.2-18.2,2.9l0,0c-3.7,8,3,16.9,11.7,15.6l0,0
					C3282.6,1200.7,3286.3,1190,3280.2,1183.5z"/>
				<path class="st19" d="M3298.1,924.1L3298.1,924.1c-5.4-5.8-14.9-4.2-18.2,2.9v0c-3.7,8,3,16.9,11.7,15.6v0
					C3300.5,941.3,3304.2,930.6,3298.1,924.1z"/>
				<path class="st19" d="M3470.9,924.1L3470.9,924.1c-5.4-5.8-14.9-4.2-18.2,2.9v0c-3.7,8,3,16.9,11.7,15.6l0,0
					C3473.3,941.3,3477,930.6,3470.9,924.1z"/>
				<path class="st19" d="M3471.2,1036.1L3471.2,1036.1c-7.3,2.9-9.4,12.3-3.9,18v0c6.1,6.3,16.8,3.4,18.8-5.2l0,0
					C3488.1,1040.2,3479.5,1032.8,3471.2,1036.1z"/>
				<path class="st19" d="M3373,972.3L3373,972.3c-7.6,2.2-10.5,11.3-5.7,17.5h0c5.5,6.9,16.4,5,19.2-3.3l0,0
					C3389.4,978,3381.5,969.8,3373,972.3z"/>
				<path class="st19" d="M3358.5,1249.3L3358.5,1249.3c-7.8,0.9-12.2,9.5-8.4,16.4v0c4.3,7.7,15.4,7.6,19.5-0.2v0
					C3373.8,1257.6,3367.4,1248.3,3358.5,1249.3z"/>
				<path class="st19" d="M3272.8,1457.6L3272.8,1457.6c-7.8,0.9-12.2,9.5-8.4,16.4v0c4.3,7.7,15.4,7.6,19.5-0.2l0,0
					C3288.1,1465.9,3281.7,1456.6,3272.8,1457.6z"/>
				<path class="st19" d="M3301.6,1054.9L3301.6,1054.9c-7.6,2.2-10.5,11.3-5.7,17.5v0c5.5,6.9,16.4,5,19.2-3.3l0,0
					C3318,1060.7,3310.2,1052.5,3301.6,1054.9z"/>
				<path class="st19" d="M3384.4,1110.9L3384.4,1110.9c-7.6,2.2-10.5,11.3-5.7,17.5l0,0c5.5,6.9,16.4,5,19.2-3.3v0
					C3400.8,1116.6,3393,1108.4,3384.4,1110.9z"/>
				<path class="st19" d="M3205.1,1108.5L3205.1,1108.5c5-6.1,2.3-15.3-5.3-17.6l0,0c-8.4-2.6-16.4,5.2-13.9,13.6l0,0
					C3188.4,1113.1,3199.4,1115.4,3205.1,1108.5z"/>
				<path class="st19" d="M3584.2,1108.8L3584.2,1108.8c5-6.1,2.3-15.3-5.3-17.6l0,0c-8.4-2.6-16.4,5.2-13.9,13.6v0
					C3567.4,1113.4,3578.5,1115.7,3584.2,1108.8z"/>
				<path class="st19" d="M3488,1514.2L3488,1514.2c5-6.1,2.3-15.3-5.3-17.6l0,0c-8.4-2.6-16.4,5.2-13.9,13.6v0
					C3471.2,1518.7,3482.3,1521,3488,1514.2z"/>
			</g>
		</g>
		<g id="HEAD_2_">
			<g id="NECK_1_">
				<path class="st9" d="M3408.2,881.3c-2.2,0.1-4.4,0.2-6.7,0.3l-97.6,6c-24.9,1.5-48.7,8.2-70.3,19.3l-30-89.8l133.7-98
					L3408.2,881.3z"/>
				<path class="st10" d="M3233.2,905.5L3233.2,905.5c27.8-12.6,50-35,62.6-62.8l48.6-107.5l-7.1-16.2l-133.7,98L3233.2,905.5z"/>
			</g>
			<g id="HEAD_3_">
				<path class="st9" d="M3345.9,728.1c0,9.3-3.8,17.7-9.9,23.8c-6.1,6.1-14.5,9.9-23.8,9.9h-29.4c-11.6,45.1-56.5,76-104.8,67.5
					l-22.1-3.9c-24.2-4.3-40.7-26.9-37.3-51.2l25.9-129.7c4.5-27.7,33-44.6,59.5-35.1l42.9,17.2c23.2,8,38.8,29.8,38.8,54.3v12.5
					l26.5,1C3330.8,694.4,3345.9,709.5,3345.9,728.1z"/>
				<g>
					<path class="st20" d="M3296.1,734.6c0-12.9,10.4-23.3,23.3-23.3"/>
					<path class="st20" d="M3158.9,671.8c0,0,21,0,36,20.1"/>
					
						<ellipse transform="matrix(0.1788 -0.9839 0.9839 0.1788 1904.504 3698.6665)" class="st10" cx="3168" cy="708.4" rx="10.7" ry="5"/>
				</g>
			</g>
			<g id="HAIR_1_">
				<path class="st5" d="M3312.2,694.4c18.6,0,33.7,15.1,33.7,33.7c0,0.1,0,0.3,0,0.5c15-23.1,51.8-81.9,51.8-101.8
					c0-26.7-33.3-53.4-67.8-41.2c2.3-1.7,4.7-3.5,7.2-5.4c13.3-10.4,20.3-18.2,21.4-23.8c0.4-2,0.1-3.8-0.9-5.2
					c-4-5.7-8.4-8.2-13.1-7.4c-6.9,1.1-14,9.6-21.1,25.2c-3.2,7.1-5.7,14.1-7.1,18.4c-2.8-16.7-16.3-72-74.3-63.5
					c-20,2.9-29.4,11.2-32,20.3c-16.6-13-38.8-23.2-57.2-13.5c-31.8,16.7-27.9,44.1-9.5,63.5c-17.4-0.3-29.6,4.8-29.6,19.5
					c0,13.5,13.9,20,33,22.6c19.1,2.6,43.6,1.2,64.8-1.2c15.1-1.7,28.7-3.8,37.4-5.3c-5.8,11.9-8.1,22.1-7.6,30.7
					c0.9,17.8,13.8,28.3,32,32c3.9,0.8,8.1,1.3,12.4,1.5L3312.2,694.4z M3345.1,547.8c0.3-0.1,0.6-0.1,1-0.1c2.8,0,5.5,2,8.2,5.8
					c0.2,0.4,0.5,1,0.3,2.1c-1.6,8.1-22.1,23.5-34,31.6C3325.3,573.4,3335.2,549.5,3345.1,547.8z"/>
				<g>
					<path class="st6" d="M3232.4,577.4c-6.9,0-13.9-3.7-19-10.2c-5.7-7.2-7.6-16.1-5.2-23.8c0.3-1,1.3-1.6,2.3-1.4
						c0.4,0,0.8,0.1,1.1,0.4c15.1,10.8,27.2,26.2,25.4,32.3c-0.4,1.6-1.7,2.6-3.4,2.7C3233.2,577.4,3232.8,577.4,3232.4,577.4z
						 M3211.4,547.2c-0.9,5.8,0.9,12.2,5.1,17.5c4.5,5.7,10.7,9,16.7,8.6C3233.4,570.7,3226.7,558.8,3211.4,547.2z"/>
				</g>
			</g>
		</g>
		<g id="HANDS">
			<g id="LEFT_1_">
				<path class="st9" d="M3035,1460.4h-640c-15.8,0-25.3-17.4-16.9-30.7l85.2-133.8c11.1-17.4,30.2-27.9,50.8-27.9h433.2
					L3035,1460.4z"/>
				<path class="st21" d="M2528.2,1268.1l51-84c3-5,8.5-8.1,14.3-8.1h0c13.1,0,21.1,14.3,14.3,25.5l-40.5,66.6H2528.2z"/>
				<path class="st10" d="M3035,1460.4h-143.9c-0.3-0.3-0.7-0.7-1-1c-35-36-49.9-90.6-30.2-143.2l20.5-48.2h66.9L3035,1460.4z"/>
				<path class="st9" d="M2485.4,1370.6h-80.2c-5.4,0-10.4,2.9-13.1,7.6l-8.5,14.8c-5.7,10,1.5,22.5,13.1,22.5h64.5
					c11.2,0,21.6-5.8,27.5-15.4l6.9-11.3C2500.4,1380.8,2494.7,1370.6,2485.4,1370.6z"/>
				<path class="st9" d="M2464.7,1415.5h-80.2c-5.4,0-10.4,2.9-13.1,7.6l-8.5,14.8c-5.7,10,1.5,22.5,13.1,22.5h64.5
					c11.2,0,21.6-5.8,27.5-15.4l6.9-11.3C2479.8,1425.7,2474,1415.5,2464.7,1415.5z"/>
				<path class="st9" d="M2508.3,1325.1h-80.2c-5.4,0-10.4,2.9-13.1,7.6l-8.5,14.8c-5.7,10,1.5,22.5,13.1,22.5h64.5
					c11.2,0,21.6-5.8,27.5-15.4l6.9-11.3C2523.4,1335.3,2517.6,1325.1,2508.3,1325.1z"/>
				<path class="st20" d="M2485.4,1370.6h-80.2c-5.4,0-10.4,2.9-13.1,7.6l-8.5,14.8c-5.7,10,1.5,22.5,13.1,22.5h64.5
					c11.2,0,21.6-5.8,27.5-15.4l6.9-11.3C2500.4,1380.8,2494.7,1370.6,2485.4,1370.6z"/>
				<path class="st20" d="M2464.7,1415.5h-80.2c-5.4,0-10.4,2.9-13.1,7.6l-8.5,14.8c-5.7,10,1.5,22.5,13.1,22.5h64.5
					c11.2,0,21.6-5.8,27.5-15.4l6.9-11.3C2479.8,1425.7,2474,1415.5,2464.7,1415.5z"/>
				<path class="st20" d="M2508.3,1325.1h-80.2c-5.4,0-10.4,2.9-13.1,7.6l-8.5,14.8c-5.7,10,1.5,22.5,13.1,22.5h64.5
					c11.2,0,21.6-5.8,27.5-15.4l6.9-11.3C2523.4,1335.3,2517.6,1325.1,2508.3,1325.1z"/>
				<path class="st9" d="M2624.4,1392c-24.1,0-47.3-8.7-65.5-24.6l-30.4-26.6h-28l-7.2,7.7c-12.9,13.8-28.8,21.7-47.7,21.7h-13.4
					c-7,0-11.3-7.8-7.5-13.7l33.7-52.8h166.1V1392z"/>
				<path class="st20" d="M2458.4,1303.7l-33.7,52.8c-3.8,5.9,0.5,13.7,7.5,13.7h13.4c18.9,0,34.8-7.8,47.7-21.7l7.2-7.7h28
					l30.4,26.6c18.1,15.8,41.4,24.6,65.5,24.6"/>
			</g>
			<g id="RIGHT_1_">
				<path class="st9" d="M3299.6,1273.4L3146.9,1444c-32.1,35.9-78,56.4-126.2,56.4h0c-95.2,0-161.1-95-127.7-184.2l181.4-426.2
					l-61.3-34.3c-8.7-6.8-12.9-17.9-11-28.7l10.4-70.1c3.2-15.6,19.1-27.8,34.6-31.4l71.8-16.2c6.1-1.4,11.7,3.8,10.7,9.9
					l-10.4,54.1c-4.1,26.4,13.7,49.2,40.1,53.7l0,0c21.6,3.7,36.8,25.4,34.8,47.2l-48.9,305
					C3145.1,1179.4,3195.2,1257.5,3299.6,1273.4z"/>
				<line class="st20" x1="3182.5" y1="946.7" x2="3123.5" y2="1329.8"/>
				<path class="st20" d="M3060.2,762l-0.8,24.8c-0.3,10.2,5.8,19.2,14.6,21.7l91.9,18.6"/>
				<path class="st20" d="M3228.4,835.1l-73.5-9.8c-24.2-4.3-40.7-26.9-37.3-51.2l9.5-54.3c0.9-5.1-3.7-9.4-8.7-8.2l-75,17.5"/>
				<line class="st18" x1="3187.8" y1="1398" x2="3386.6" y2="1176.8"/>
				<line class="st20" x1="3076.5" y1="890.1" x2="3111.6" y2="890.1"/>
				<path class="st20" d="M3060.3,768.6v8c0,9.5,6.9,17.3,15.4,17.3h11c4.8,0,8.6-4.3,8.6-9.7l0.7-52.2c0.1-8.1-8.5-13.1-15.5-11.4"
					/>
				<path class="st20" d="M3096,768.6v8c0,9.5,6.9,17.3,15.4,17.3h7"/>
			</g>
		</g>
	</g>
	<g id="CHAIR_1_">
		<line class="st4" x1="3760.1" y1="2029.8" x2="3876.2" y2="2996"/>
		<line class="st4" x1="3256.9" y1="2029.8" x2="3140.8" y2="2996"/>
		<line class="st4" x1="3180.6" y1="2664.2" x2="3836.3" y2="2664.2"/>
		<path class="st15" d="M3190,2032.8H3821c8.4,0,15.2-6.8,15.2-15.2V1997c0-8.4-6.8-15.2-15.2-15.2H3190c-8.4,0-15.2,6.8-15.2,15.2
			v20.6C3174.8,2026,3181.6,2032.8,3190,2032.8z"/>
	</g>
</g>
<g id="GIRL">
	<g id="PAPER">
		<polygon class="st22" points="2140,1301.6 2043.4,1500.4 1751.5,1500.4 1868.8,1301.6 		"/>
		<path class="st23" d="M2076,1350.1c0,0-12.7-21.7-43.2-16.1c-22.8,4.1-49.8,22.9-66.4,12.8c-16.6-10.1-31.3-22.7-52.8-16.7
			c-21.5,6-37.4,17.5-37.4,17.5"/>
		<path class="st23" d="M2066,1381.1c0,0-12.7-21.7-43.2-16.1c-22.8,4.1-49.8,22.9-66.4,12.8c-16.6-10.1-31.3-22.7-52.8-16.7
			c-21.5,6-37.4,17.5-37.4,17.5"/>
	</g>
	<g id="GIRL_1_">
		<g id="LEGS">
			<g id="LEFT">
				<path class="st21" d="M2249.8,2193.8c0,26.7-74.1,48.3-166.9,48.3c-92.8,0-164.7-21.6-164.7-48.3s71.9-48.3,164.7-48.3
					C2175.7,2145.5,2249.8,2167.2,2249.8,2193.8z"/>
				<g>
					<path class="st24" d="M2207.1,2161.3v345l-10.5-49.8c-11.3-53.6-58.6-91.9-113.4-91.9c-16.5,0-32.7,3.5-47.4,10.1
						c-0.5,0.2-1,0.5-1.6,0.7l-38.5-140.4l-21.4-78.1c29.3-7.1,67.2-11.4,108.6-11.4C2132.1,2145.5,2176.4,2151.6,2207.1,2161.3z"/>
					<path class="st25" d="M2207.1,2161.3v65c-30.7,9.7-75,15.8-124.2,15.8c-31.9,0-61.7-2.6-87.2-7l-21.4-78.1
						c29.3-7.1,67.2-11.4,108.6-11.4C2132.1,2145.5,2176.4,2151.6,2207.1,2161.3z"/>
				</g>
				<g>
					<g>
						<g>
							<path class="st5" d="M2199.7,2496.2c2.7,0.8,28.1,7.9,50.6,7.9c12.2,0,23.5-2.1,29.9-8.5c5.5-5.5,6.8-13.5,3.9-23.6
								c-2.6-9-7.6-14.6-14.9-16.6c-13.4-3.6-32,6.4-46.7,16.9c22.9-27.8,45.5-63.1,37.1-86.2c-3-8.2-9.8-13.7-18.3-14.7
								c-7.1-0.8-13.7,1.7-16.8,6.4c-14.4,21.9-26.2,111.8-26.7,115.6L2199.7,2496.2z M2228.7,2380.6c1.8-2.7,5.6-4.3,10-4.3
								c0.7,0,1.4,0,2.1,0.1c3.2,0.4,10.9,2.2,14.2,11.4c2.2,6.1,3,17.3-5.9,36.1c-8.4,17.8-23.6,38.7-45.2,62.4
								C2207.1,2463.5,2217.3,2397.9,2228.7,2380.6z M2276.7,2492.1c-6.6,6.6-21.6,8.6-43.5,5.8c-11.5-1.5-22.2-3.9-27.9-5.4
								c4.3-3.8,12.3-10.7,21.6-17.1c17.8-12.3,32-17.6,41.1-15.1c5.5,1.5,9.2,5.8,11.4,13.1
								C2281.8,2481.8,2280.9,2487.9,2276.7,2492.1z"/>
						</g>
					</g>
					<path class="st22" d="M1996.7,2403.4l-23.1,25.9c-26.2,29.4-30.5,72.2-10.6,106.2l101.7,174.4c19.9,34.1,56.4,55,95.8,55h42.1
						c30.5,0,53.2-28,46.9-57.8l-53-250.5c-11.3-53.6-58.6-91.9-113.4-91.9h0C2050.2,2364.6,2018.7,2378.7,1996.7,2403.4z"/>
					<path class="st11" d="M2075.4,2478.8l131.3,254.4c6.2,11.5,13.9,18.9,22.7,23.6c-7.6,5.1-16.8,8.2-26.8,8.2h-42.1
						c-39.5,0-76-21-95.8-55L1963,2535.5c-4.1-7.1-7.2-14.5-9.3-22.2c-14.4-53.5,46.5-95.5,92.2-64.1
						C2056.3,2456.3,2066.5,2465.9,2075.4,2478.8z"/>
					<g>
						<g>
							<path class="st6" d="M2075.7,2479.4h-121.2c0.6-1.9,1.3-3.7,2.1-5.4h115.2c1.2,1.6,2.4,3.2,3.6,4.9L2075.7,2479.4z"/>
						</g>
						<g>
							<path class="st6" d="M2093.5,2513.8h-139.6c0-0.2-0.1-0.4-0.1-0.5c-0.4-1.6-0.8-3.3-1.1-4.9h138.1L2093.5,2513.8z"/>
						</g>
						<g>
							<polygon class="st6" points="2111.3,2548.3 1970.5,2548.3 1967.3,2542.8 2108.5,2542.8 							"/>
						</g>
						<g>
							<polygon class="st6" points="2129.1,2582.8 1990.6,2582.8 1987.4,2577.3 2126.3,2577.3 							"/>
						</g>
						<g>
							<polygon class="st6" points="2146.9,2617.2 2010.7,2617.2 2007.5,2611.8 2144.1,2611.8 							"/>
						</g>
						<g>
							<polygon class="st6" points="2164.7,2651.7 2030.8,2651.7 2027.6,2646.2 2161.8,2646.2 							"/>
						</g>
						<g>
							<polygon class="st6" points="2182.5,2686.2 2050.9,2686.2 2047.7,2680.7 2179.6,2680.7 							"/>
						</g>
						<g>
							<path class="st6" d="M2200.2,2720.6h-128.4c-1.3-1.8-2.6-3.6-3.8-5.4h129.4L2200.2,2720.6z"/>
						</g>
						<g>
							<path class="st6" d="M2226.5,2755.1h-111.6c-3.6-1.6-7.1-3.4-10.5-5.4h114.9C2221.6,2751.7,2224,2753.5,2226.5,2755.1z"/>
						</g>
					</g>
				</g>
			</g>
			<g id="RIGHT">
				<path class="st25" d="M1840.2,2186.7c-0.9,26.4-75.8,47.8-168,47.8c-92.2,0-167.1-21.3-168-47.8l0-207.9h336L1840.2,2186.7z"/>
				<g>
					<path class="st24" d="M1817.9,2221.2l-0.5,24.7l-4.8,241.1v-7c0-61.9-50.2-112.1-112.1-112.1h-6.8c-31.6,0-60.1,12.3-81.2,32.1
						l-14.7-99.4l-9.1-61.5c24.6,4.1,53.1,6.4,83.4,6.4C1734.5,2245.4,1788.8,2235.6,1817.9,2221.2z"/>
					<path class="st25" d="M1817.9,2221.2l-0.5,24.7c-37.2,26.4-152.1,58.9-219.5,54.6l-9.1-61.5c24.6,4,53.1,6.4,83.4,6.4
						C1734.5,2245.4,1788.8,2235.6,1817.9,2221.2z"/>
				</g>
				<g>
					<path class="st22" d="M1705.6,2768.2h18.6c48.8,0,88.4-39.6,88.4-88.4V2480c0-61.9-50.2-112.1-112.1-112.1h-6.8
						c-72,0-127.5,63.5-117.8,134.9l23.5,172.8C1606.7,2728.6,1652,2768.2,1705.6,2768.2z"/>
					<path class="st11" d="M1784.8,2744.1c-15.8,14.9-37.2,24.1-60.6,24.1h-18.6c-53.6,0-98.9-39.6-106.1-92.6l-23.5-172.8
						c-0.4-3.3-0.8-6.6-0.9-9.8c6-38.3,39.1-67.6,79.1-67.6c19.7,0,37.9,7.2,52,19.2c14.1,12,24,28.9,27.1,48.4l30.9,210.9
						C1766.5,2719.6,1773.9,2733.6,1784.8,2744.1z"/>
					<g>
						<g>
							<path class="st6" d="M1724,2466.3h-139.7c1-1.9,2.2-3.7,3.4-5.4h133C1721.9,2462.6,1723,2464.4,1724,2466.3z"/>
						</g>
						<g>
							<path class="st6" d="M1734.4,2500.7h-158.7c-0.2-1.8-0.4-3.6-0.5-5.4h158.4L1734.4,2500.7z"/>
						</g>
						<g>
							<polygon class="st6" points="1739.5,2535.2 1580.4,2535.2 1579.6,2529.8 1738.7,2529.8 							"/>
						</g>
						<g>
							<polygon class="st6" points="1744.5,2569.7 1585.1,2569.7 1584.3,2564.2 1743.7,2564.2 							"/>
						</g>
						<g>
							<polygon class="st6" points="1749.6,2604.1 1589.8,2604.1 1589,2598.7 1748.8,2598.7 							"/>
						</g>
						<g>
							<polygon class="st6" points="1754.6,2638.6 1594.4,2638.6 1593.7,2633.2 1753.8,2633.2 							"/>
						</g>
						<g>
							<polygon class="st6" points="1759.7,2673.1 1599.1,2673.1 1598.4,2667.6 1758.9,2667.6 							"/>
						</g>
						<g>
							<path class="st6" d="M1764.8,2707.5h-155.8c-0.9-1.8-1.7-3.6-2.4-5.4h157.3l0.3,1.8
								C1764.4,2705.1,1764.6,2706.3,1764.8,2707.5z"/>
						</g>
						<g>
							<path class="st6" d="M1782.7,2742h-147.3c-2-1.7-4-3.6-5.8-5.4h148.5C1779.5,2738.5,1781.1,2740.3,1782.7,2742z"/>
						</g>
					</g>
				</g>
			</g>
		</g>
		<g id="CLOTHES">
			<g>
				<path class="st5" d="M1912.9,1106.1v168.4c-7.3-19.1-65.1-16.4-128.7,7.7c-54.5,20.7-95.4,49.1-101.4,68.8V1114
					c0-70.5,37.7-133.5,95.6-167.9C1853.6,959.2,1912.9,1024.7,1912.9,1106.1z"/>
				<path class="st5" d="M1678.4,953.7c-51.2,35.6-83.8,94.7-83.8,160.3v195.5h-284.7l39.3-169.2c16.7-72.1,68.9-129.6,136.9-154.1
					L1678.4,953.7z"/>
			</g>
			<g>
				<path class="st21" d="M2254.2,1790.5v392.5c0-26.7-78.5-48.3-171.3-48.3c-92.8,0-168,21.6-168,48.3v-188.1c0-8.8-7.2-16-16-16
					h-510.4c-153.5,0-267-142.9-232.3-292.4l123.2-530.8c19.6-84.7,88.2-149.2,173.9-163.8l32.8-5.6c-68,24.5-120.2,82-136.9,154.1
					l-39.3,169.2h284.7V1114c0-65.6,32.7-124.8,83.8-160.3h0l45-7.6c9.3-1.6,18.4-2.3,27.5-2.3c1.2,0,2.3,0,3.5,0
					c1.1,0,2.2,0.1,3.2,0.1c0.2,0,0.4,0,0.6,0c0.8,0,1.7,0.1,2.5,0.1c0.1,0,0.3,0,0.4,0c0.5,0,1,0.1,1.4,0.1
					c0.9,0.1,1.7,0.1,2.6,0.2c1,0.1,2.1,0.2,3.1,0.3c1,0.1,1.9,0.2,2.9,0.3c0.2,0,0.4,0.1,0.7,0.1c1,0.1,2.1,0.3,3.1,0.4
					c0.1,0,0.2,0,0.2,0c1.1,0.2,2.2,0.3,3.3,0.5c-57.9,34.4-95.6,97.4-95.6,167.9v480.5h375.4
					C2166.4,1594.5,2254.2,1682.2,2254.2,1790.5z"/>
				<path class="st13" d="M1684.9,949.3c-51.2,35.6-90.4,99.1-90.4,164.7v195.5h-284.7l39.3-169.2c16.7-72.1,64.5-130.7,132.6-155.2
					"/>
				<path class="st13" d="M1914.9,1934.6c0-55.7,19.7-109.6,55.6-152.1"/>
				<g>
					<path class="st6" d="M1499,1914.7c-0.5,0-1-0.1-1.4-0.4l-13.2-7.2c-1.5-0.8-2-2.6-1.2-4.1s2.6-2,4.1-1.2l13.2,7.2
						c1.5,0.8,2,2.6,1.2,4.1C1501.1,1914.1,1500.1,1914.7,1499,1914.7z M1512.2,1911.3c-1.1,0-2.1-0.6-2.6-1.6
						c-0.8-1.5-0.3-3.3,1.2-4.1l13.2-7.2c1.5-0.8,3.3-0.2,4.1,1.2c0.8,1.5,0.3,3.3-1.2,4.1l-13.2,7.2
						C1513.2,1911.1,1512.7,1911.3,1512.2,1911.3z M1472.6,1900.4c-0.5,0-1-0.1-1.4-0.4l-13.2-7.2c-1.5-0.8-2-2.6-1.2-4.1
						c0.8-1.5,2.6-2,4.1-1.2l13.2,7.2c1.5,0.8,2,2.6,1.2,4.1C1474.7,1899.8,1473.7,1900.4,1472.6,1900.4z M1538.5,1896.9
						c-1.1,0-2.1-0.6-2.6-1.6c-0.8-1.5-0.3-3.3,1.2-4.1l13.2-7.2c2.3-1.2,4.4-2.6,6.5-4.1c1.3-1,3.2-0.7,4.2,0.6
						c1,1.3,0.7,3.2-0.6,4.2c-2.3,1.7-4.7,3.2-7.2,4.6l-13.2,7.2C1539.5,1896.8,1539,1896.9,1538.5,1896.9z M1446.5,1885.6
						c-0.6,0-1.2-0.2-1.8-0.6c-4.2-3.1-8.1-6.7-11.4-10.8c-1.1-1.3-0.9-3.2,0.4-4.2c1.3-1.1,3.2-0.9,4.2,0.4c3,3.7,6.5,6.9,10.3,9.7
						c1.3,1,1.6,2.9,0.7,4.2C1448.4,1885.2,1447.5,1885.6,1446.5,1885.6z M1569.4,1875.1c-0.7,0-1.3-0.2-1.9-0.7
						c-1.3-1-1.5-2.9-0.4-4.2c3-3.7,5.5-7.7,7.5-12.1c0.7-1.5,2.5-2.2,4-1.5c1.5,0.7,2.2,2.5,1.5,4c-2.2,4.8-5,9.3-8.3,13.3
						C1571.1,1874.7,1570.3,1875.1,1569.4,1875.1z M1427.7,1862.7c-1.1,0-2.2-0.6-2.7-1.7c-2.2-4.8-3.8-9.8-4.8-15
						c-0.3-1.6,0.8-3.2,2.4-3.5c1.6-0.3,3.2,0.8,3.5,2.4c0.9,4.7,2.3,9.2,4.3,13.5c0.7,1.5,0,3.3-1.5,4
						C1428.5,1862.6,1428.1,1862.7,1427.7,1862.7z M1581.8,1848.1c-0.2,0-0.4,0-0.5,0c-1.6-0.3-2.7-1.9-2.4-3.5
						c0.6-3.3,0.9-6.6,0.9-9.9v-4.5c0-1.7,1.3-3,3-3s3,1.3,3,3v4.5c0,3.7-0.3,7.4-1,11C1584.5,1847.1,1583.2,1848.1,1581.8,1848.1z
						 M1422.2,1833.5c-1.7,0-3-1.3-3-3v-15c0-1.7,1.3-3,3-3s3,1.3,3,3v15C1425.2,1832.1,1423.8,1833.5,1422.2,1833.5z
						 M1582.7,1818.2c-1.7,0-3-1.3-3-3v-15c0-1.7,1.3-3,3-3s3,1.3,3,3v15C1585.7,1816.9,1584.4,1818.2,1582.7,1818.2z
						 M1422.2,1803.5c-1.7,0-3-1.3-3-3v-15c0-1.7,1.3-3,3-3s3,1.3,3,3v15C1425.2,1802.1,1423.8,1803.5,1422.2,1803.5z
						 M1582.7,1788.2c-1.7,0-3-1.3-3-3v-15c0-1.7,1.3-3,3-3s3,1.3,3,3v15C1585.7,1786.9,1584.4,1788.2,1582.7,1788.2z
						 M1422.2,1773.5c-1.7,0-3-1.3-3-3v-15c0-1.7,1.3-3,3-3s3,1.3,3,3v15C1425.2,1772.1,1423.8,1773.5,1422.2,1773.5z
						 M1582.7,1758.2c-1.7,0-3-1.3-3-3v-15c0-1.7,1.3-3,3-3s3,1.3,3,3v15C1585.7,1756.9,1584.4,1758.2,1582.7,1758.2z
						 M1422.2,1743.5c-1.7,0-3-1.3-3-3v-12.9h8.1c1.7,0,3,1.3,3,3s-1.3,3-3,3h-2.1v6.9C1425.2,1742.1,1423.8,1743.5,1422.2,1743.5z
						 M1577.3,1733.6h-15c-1.7,0-3-1.3-3-3s1.3-3,3-3h15c1.7,0,3,1.3,3,3S1579,1733.6,1577.3,1733.6z M1547.3,1733.6h-15
						c-1.7,0-3-1.3-3-3s1.3-3,3-3h15c1.7,0,3,1.3,3,3S1549,1733.6,1547.3,1733.6z M1517.3,1733.6h-15c-1.7,0-3-1.3-3-3s1.3-3,3-3h15
						c1.7,0,3,1.3,3,3S1519,1733.6,1517.3,1733.6z M1487.3,1733.6h-15c-1.7,0-3-1.3-3-3s1.3-3,3-3h15c1.7,0,3,1.3,3,3
						S1489,1733.6,1487.3,1733.6z M1457.3,1733.6h-15c-1.7,0-3-1.3-3-3s1.3-3,3-3h15c1.7,0,3,1.3,3,3S1459,1733.6,1457.3,1733.6z"/>
				</g>
				<g>
					<path class="st6" d="M1216,1898.1c-1.1,0-2.1-0.6-2.6-1.6c-0.8-1.5-0.3-3.3,1.2-4.1l12.2-6.7c0.3-0.2,0.6-0.3,0.9-0.5
						c1.4-0.8,3.3-0.3,4.1,1.1c0.8,1.4,0.3,3.3-1.1,4.1c-0.3,0.2-0.6,0.4-1,0.5l-12.2,6.7C1217,1898,1216.5,1898.1,1216,1898.1z
						 M1241.3,1882.1c-0.8,0-1.6-0.3-2.2-1c-1.1-1.2-1-3.1,0.2-4.2c3.5-3.2,6.6-6.9,9.3-10.8c0.9-1.4,2.8-1.7,4.2-0.8
						c1.4,0.9,1.7,2.8,0.8,4.2c-2.9,4.3-6.4,8.3-10.2,11.9C1242.7,1881.9,1242,1882.1,1241.3,1882.1z M1258,1857.5
						c-0.4,0-0.7-0.1-1.1-0.2c-1.5-0.6-2.3-2.3-1.7-3.9c1.7-4.5,2.9-9.1,3.6-13.8c0.2-1.6,1.7-2.8,3.4-2.6c1.6,0.2,2.8,1.7,2.6,3.4
						c-0.7,5.2-2,10.3-3.9,15.2C1260.3,1856.8,1259.2,1857.5,1258,1857.5z M1262.3,1828.1c-1.7,0-3-1.3-3-3v-15c0-1.7,1.3-3,3-3
						s3,1.3,3,3v15C1265.3,1826.7,1264,1828.1,1262.3,1828.1z M1262.3,1798.1c-1.7,0-3-1.3-3-3v-15c0-1.7,1.3-3,3-3s3,1.3,3,3v15
						C1265.3,1796.7,1264,1798.1,1262.3,1798.1z M1262.3,1768.1c-1.7,0-3-1.3-3-3v-15c0-1.7,1.3-3,3-3s3,1.3,3,3v15
						C1265.3,1766.7,1264,1768.1,1262.3,1768.1z M1262.3,1738.1c-1.7,0-3-1.3-3-3v-1.5h-7.5c-1.7,0-3-1.3-3-3s1.3-3,3-3h13.5v7.5
						C1265.3,1736.7,1264,1738.1,1262.3,1738.1z M1236.8,1733.6h-15c-1.7,0-3-1.3-3-3s1.3-3,3-3h15c1.7,0,3,1.3,3,3
						S1238.4,1733.6,1236.8,1733.6z M1206.8,1733.6h-15c-1.7,0-3-1.3-3-3s1.3-3,3-3h15c1.7,0,3,1.3,3,3S1208.4,1733.6,1206.8,1733.6
						z M1176.8,1733.6h-15c-1.7,0-3-1.3-3-3s1.3-3,3-3h15c1.7,0,3,1.3,3,3S1178.4,1733.6,1176.8,1733.6z"/>
				</g>
			</g>
		</g>
		<g id="HAND">
			<path class="st21" d="M1912.9,1274.5c7.3,19.1-38.9,53-102.4,77.1s-120.4,27.8-127.7,8.6s37.8-53.8,101.4-77.9
				S1905.6,1255.3,1912.9,1274.5z"/>
			<path class="st25" d="M1948.4,1894.9v10.6c-3.3-0.8-6.8-1.2-10.3-1.2h-12.9c-19.1,0-35.4-12.2-41.6-29.2l36.6-4.9
				C1935.1,1868.2,1948.4,1879.8,1948.4,1894.9z"/>
			<path class="st24" d="M1982.2,1948.4v81.4c0,19-15.4,34.4-34.4,34.4h-38.3c-9.5,0-18.1-3.8-24.3-10.1
				c-6.2-6.2-10.1-14.8-10.1-24.3h24.9c8.2,0,14.8-6.6,14.8-14.8v-21.3c0-8.2-6.6-14.8-14.8-14.8h-127.3c-49.7,0-90-40.3-90-90
				v-537.8c6-19.7,46.9-48.2,101.4-68.8c37.2-14.1,72.5-20.9,96.8-20.3v598.2c0,24.4,19.8,44.2,44.2,44.2h12.9
				C1962.4,1904.3,1982.2,1924,1982.2,1948.4z"/>
			<path class="st25" d="M1880.9,1261.9v54.4c-18.1,12.2-42.6,24.7-70.5,35.2c-63.6,24.1-120.4,27.8-127.7,8.6v-9.1
				c6-19.7,46.9-48.2,101.4-68.8C1821.4,1268.1,1856.6,1261.3,1880.9,1261.9z"/>
		</g>
		<g id="HEAD_1_">
			<g id="NECK">
				<polygon class="st24" points="1714.6,856.8 1677,953.7 1483.2,988.4 1533.8,856.8 				"/>
				<polygon class="st25" points="1714.6,856.8 1694.3,909.2 1502.1,939.2 1533.8,856.8 				"/>
			</g>
			<g id="HAIR">
				<path class="st26" d="M1828.2,659.6c0,13.1-22.7,27.6-48.9,39.8c-35.7,16.7-77.8,29.4-77.8,29.4l-28.4,53.5
					c38.6,20.5,53.7,57.3,59.7,83c3.8,16.4,3.8,28.1,3.8,28.1h-272.2c0,0-71.5-231.6,100.8-287
					C1670.6,572.5,1828.2,628.5,1828.2,659.6z"/>
				<circle class="st26" cx="1540" cy="571.7" r="67.7"/>
			</g>
			<g id="HEAD">
				<path class="st24" d="M1732.7,865.3c-5.6-24.3-19.6-58.9-54.1-79.8h-8.9c-8.2,0-15.7-3.3-21.1-8.7c-5.4-5.4-8.7-12.9-8.7-21.1
					c0-16.5,13.3-29.8,29.8-29.8l37.7,0.8c0,0,0,0,0,0l1,0c0.7-0.2,1.4-0.5,2.2-0.7c10.2-2.2,42.5-10,69.3-23.4l3.1,18.5l10,59.3
					C1799.8,821.1,1771.9,858.6,1732.7,865.3z"/>
				<path class="st25" d="M1782.9,721c-32.8,13.3-75.6,5.6-75.6,5.6s40.3-8,72.5-24.1L1782.9,721z"/>
				<path class="st27" d="M1692.9,761.4c0-11.4-9.2-20.6-20.6-20.6"/>
			</g>
		</g>
	</g>
	<g id="CHAIR">
		<line class="st4" x1="1798.8" y1="2029.8" x2="1914.9" y2="2996"/>
		<line class="st4" x1="1295.5" y1="2029.8" x2="1179.5" y2="2996"/>
		<line class="st4" x1="1219.3" y1="2664.2" x2="1875" y2="2664.2"/>
		<path class="st15" d="M1194.6,2029.8h705.1c8.4,0,15.2-6.8,15.2-15.2V1994c0-8.4-6.8-15.2-15.2-15.2h-705.1
			c-8.4,0-15.2,6.8-15.2,15.2v20.6C1179.5,2023,1186.3,2029.8,1194.6,2029.8z"/>
	</g>
</g>
</svg>
